<svg width="4" height="14" viewBox="0 0 4 14" fill="none" xmlns="http://www.w3.org/2000/svg">
<path d="M3.5 2.1001C3.5 2.92852 2.82843 3.6001 2 3.6001C1.17157 3.6001 0.5 2.92852 0.5 2.1001C0.5 1.27167 1.17157 0.600098 2 0.600098C2.82843 0.600098 3.5 1.27167 3.5 2.1001Z" fill="#F1F3F4"/>
<path d="M3.5 7.1001C3.5 7.92852 2.82843 8.6001 2 8.6001C1.17157 8.6001 0.5 7.92852 0.5 7.1001C0.5 6.27167 1.17157 5.6001 2 5.6001C2.82843 5.6001 3.5 6.27167 3.5 7.1001Z" fill="#F1F3F4"/>
<path d="M3.5 12.1001C3.5 12.9285 2.82843 13.6001 2 13.6001C1.17157 13.6001 0.5 12.9285 0.5 12.1001C0.5 11.2717 1.17157 10.6001 2 10.6001C2.82843 10.6001 3.5 11.2717 3.5 12.1001Z" fill="#F1F3F4"/>
</svg>
