<?xml version="1.0" standalone="no"?>
<!DOCTYPE svg PUBLIC "-//W3C//DTD SVG 1.1//EN" "http://www.w3.org/Graphics/SVG/1.1/DTD/svg11.dtd" >
<svg xmlns="http://www.w3.org/2000/svg" xmlns:xlink="http://www.w3.org/1999/xlink" version="1.1">
<metadata>
Created by FontForge 20190801 at Mon Sep 17 17:50:18 2018
 By Jimmy Wärting
The Font Software, the designs embodied therein, the trade names and/or trademarks and copyrights associated therewith are each the exclusive property of Coppers and Brasses.
</metadata>
<defs>
<font id="Ilisarniq-Regular" horiz-adv-x="660" >
  <font-face 
    font-family="Ilisarniq"
    font-weight="400"
    font-stretch="normal"
    units-per-em="1000"
    panose-1="0 0 0 0 0 0 0 0 0 0"
    ascent="800"
    descent="-200"
    x-height="518"
    cap-height="700"
    bbox="-35 -293 1538 1128"
    underline-thickness="50"
    underline-position="-100"
    unicode-range="U+000D-FB04"
  />
<missing-glyph horiz-adv-x="637" 
d="M110 0v700h417v-700h-417zM210 91h217v518h-217v-518z" />
    <glyph glyph-name="uniFB00" unicode="ff" horiz-adv-x="672" 
d="M113 0v433h-89v85h89v40q0 90 47 137t121 47q17 0 31.5 -2.5t26.5 -6.5v-86q-21 6 -47 6q-37 0 -60.5 -24t-23.5 -78v-33h227v38q0 92 48.5 139t125.5 47q19 0 35.5 -2.5t30.5 -7.5v-86q-13 3 -27.5 5t-28.5 2q-39 0 -63.5 -24t-24.5 -80v-31h134v-85h-134v-433h-96v433
h-227v-433h-95z" />
    <glyph glyph-name="uni00660069" unicode="fi" horiz-adv-x="627" 
d="M113 0v433h-89v85h89v40q0 90 47 137t121 47q17 0 31.5 -2.5t26.5 -6.5v-86q-21 6 -47 6q-37 0 -60.5 -24t-23.5 -78v-33h323v-518h-96v433h-227v-433h-95zM417 679q0 26 19 44.5t47 18.5q29 0 47.5 -18.5t18.5 -44.5q0 -27 -18.5 -45t-47.5 -18q-28 0 -47 18t-19 45z
" />
    <glyph glyph-name="uni00660133" unicode="f&#x133;" horiz-adv-x="914" 
d="M113 0v433h-89v85h89v40q0 90 47 137t121 47q17 0 31.5 -2.5t26.5 -6.5v-86q-21 6 -47 6q-37 0 -60.5 -24t-23.5 -78v-33h323v-518h-96v433h-227v-433h-95zM417 679q0 26 19 44.5t47 18.5q29 0 47.5 -18.5t18.5 -44.5q0 -27 -18.5 -45t-47.5 -18q-28 0 -47 18t-19 45z
M704 679q0 26 19 44.5t47 18.5q29 0 47.5 -18.5t18.5 -44.5q0 -27 -18.5 -45t-47.5 -18q-28 0 -47 18t-19 45zM591 -152l6 86q24 -6 47 -6q35 0 56.5 23.5t21.5 74.5v492h96v-499q0 -88 -45 -134t-116 -46q-36 0 -66 9z" />
    <glyph glyph-name="uni0066006C" unicode="fl" horiz-adv-x="633" 
d="M113 0v433h-89v85h89v38q0 92 48.5 139t124.5 47q20 0 36.5 -2.5t29.5 -7.5v-86q-13 3 -27 5t-28 2q-40 0 -64.5 -24t-24.5 -80v-31h134v-85h-134v-433h-95zM441 0v730h96v-730h-96z" />
    <glyph glyph-name="uniFB03" unicode="ffi" horiz-adv-x="949" 
d="M113 0v433h-89v85h89v40q0 90 47 137t121 47q17 0 31.5 -2.5t26.5 -6.5v-86q-21 6 -47 6q-37 0 -60.5 -24t-23.5 -78v-33h227v40q0 90 47 137t122 47q17 0 31 -2.5t27 -6.5v-86q-22 6 -48 6q-37 0 -60 -24t-23 -78v-33h322v-518h-96v433h-226v-433h-96v433h-227v-433h-95
zM739 679q0 26 19 44.5t47 18.5q29 0 47.5 -18.5t18.5 -44.5q0 -27 -18.5 -45t-47.5 -18q-28 0 -47 18t-19 45z" />
    <glyph glyph-name="uni006600660133" unicode="ff&#x133;" horiz-adv-x="1236" 
d="M113 0v433h-89v85h89v40q0 90 47 137t121 47q17 0 31.5 -2.5t26.5 -6.5v-86q-21 6 -47 6q-37 0 -60.5 -24t-23.5 -78v-33h227v40q0 90 47 137t122 47q17 0 31 -2.5t27 -6.5v-86q-22 6 -48 6q-37 0 -60 -24t-23 -78v-33h322v-518h-96v433h-226v-433h-96v433h-227v-433h-95
zM739 679q0 26 19 44.5t47 18.5q29 0 47.5 -18.5t18.5 -44.5q0 -27 -18.5 -45t-47.5 -18q-28 0 -47 18t-19 45zM1026 679q0 26 19 44.5t47 18.5q29 0 47.5 -18.5t18.5 -44.5q0 -27 -18.5 -45t-47.5 -18q-28 0 -47 18t-19 45zM913 -152l6 86q24 -6 47 -6q35 0 56.5 23.5
t21.5 74.5v492h96v-499q0 -88 -45 -134t-116 -46q-36 0 -66 9z" />
    <glyph glyph-name="uniFB04" unicode="ffl" horiz-adv-x="955" 
d="M113 0v433h-89v85h89v40q0 90 47 137t121 47q17 0 31.5 -2.5t26.5 -6.5v-86q-21 6 -47 6q-37 0 -60.5 -24t-23.5 -78v-33h227v38q0 92 48.5 139t125.5 47q19 0 35.5 -2.5t30.5 -7.5v-86q-13 3 -27.5 5t-28.5 2q-39 0 -63.5 -24t-24.5 -80v-31h134v-85h-134v-433h-96v433
h-227v-433h-95zM763 0v730h96v-730h-96z" />
    <glyph glyph-name=".notdef" horiz-adv-x="637" 
d="M110 0v700h417v-700h-417zM210 91h217v518h-217v-518z" />
    <glyph glyph-name="uni0000" horiz-adv-x="0" 
 />
    <glyph glyph-name="uni0000" horiz-adv-x="0" 
 />
    <glyph glyph-name="uni000D" unicode="&#xd;" horiz-adv-x="0" 
 />
    <glyph glyph-name="uni0020" unicode=" " horiz-adv-x="400" 
 />
    <glyph glyph-name="uni00A0" unicode="&#xa0;" horiz-adv-x="400" 
 />
    <glyph glyph-name="uni2009" unicode="&#x2009;" horiz-adv-x="132" 
 />
    <glyph glyph-name="uni0041" unicode="A" horiz-adv-x="668" 
d="M21 0l285 705h56l285 -705h-109l-70 181h-271l-72 -181h-104zM230 266h205l-102 260z" />
    <glyph glyph-name="uni0042" unicode="B" horiz-adv-x="665" 
d="M110 0v700h244q64 0 113.5 -23.5t77.5 -65.5t28 -97q0 -47 -25 -85t-67 -61q55 -22 88 -66t33 -103q0 -57 -29.5 -102t-81 -71t-119.5 -26h-262zM344 610h-134v-208h137q55 0 89 30t34 76t-33.5 74t-92.5 28zM362 323h-152v-233h149q64 0 101 32.5t37 84.5q0 50 -37.5 83
t-97.5 33z" />
    <glyph glyph-name="uni0043" unicode="C" horiz-adv-x="690" 
d="M63 350q0 79 24.5 145t68.5 114.5t104 75t131 26.5q83 0 147.5 -35.5t102.5 -97.5l-83 -55q-27 47 -70.5 71t-96.5 24q-65 0 -115.5 -34t-79.5 -94.5t-29 -139.5t28.5 -139.5t79 -94.5t115.5 -34q54 0 100 25t73 71l83 -56q-37 -60 -104 -96.5t-152 -36.5
q-94 0 -168 46.5t-116.5 128t-42.5 186.5z" />
    <glyph glyph-name="uni0044" unicode="D" horiz-adv-x="727" 
d="M110 0v700h203q103 0 182 -44t124 -123t45 -183t-45 -183t-124 -123t-182 -44h-203zM308 609h-98v-518h98q76 0 132.5 32.5t88 91t31.5 135.5t-31.5 135.5t-88 91t-132.5 32.5z" />
    <glyph glyph-name="uni0045" unicode="E" horiz-adv-x="635" 
d="M110 0v700h445v-91h-345v-210h307v-88h-307v-220h350v-91h-450z" />
    <glyph glyph-name="uni0046" unicode="F" horiz-adv-x="585" 
d="M110 0v700h424v-91h-324v-230h286v-88h-286v-291h-100z" />
    <glyph glyph-name="uni0047" unicode="G" horiz-adv-x="764" 
d="M63 350q0 79 25.5 145t71 114.5t107.5 75t135 26.5q86 0 152.5 -35.5t106.5 -97.5l-83 -55q-28 47 -74 71t-102 24q-67 0 -120.5 -34t-84 -94.5t-30.5 -139.5q0 -80 30 -140.5t83.5 -94t123.5 -33.5q56 0 100 17t71 43v118h-145v91h245v-244q-43 -50 -114 -84t-157 -34
q-100 0 -177 46t-120.5 127.5t-43.5 187.5z" />
    <glyph glyph-name="uni0048" unicode="H" horiz-adv-x="747" 
d="M110 0v700h100v-300h327v300h100v-700h-100v310h-327v-310h-100z" />
    <glyph glyph-name="uni0049" unicode="I" horiz-adv-x="319" 
d="M110 0v700h100v-700h-100z" />
    <glyph glyph-name="uni004A" unicode="J" horiz-adv-x="539" 
d="M23 107l79 54q16 -36 45.5 -57.5t70.5 -21.5q57 0 89.5 39.5t32.5 115.5v463h100v-474q0 -109 -60 -173t-164 -64q-64 0 -113.5 31.5t-79.5 86.5z" />
    <glyph glyph-name="uni004B" unicode="K" horiz-adv-x="645" 
d="M110 0v700h100v-330l278 330h123l-300 -341l314 -359h-130l-285 334v-334h-100z" />
    <glyph glyph-name="uni004C" unicode="L" horiz-adv-x="557" 
d="M110 0v700h100v-609h312v-91h-412z" />
    <glyph glyph-name="uni004D" unicode="M" horiz-adv-x="841" 
d="M110 0v705h54l257 -385l256 385h55v-705h-99v467l-200 -293h-25l-200 292v-466h-98z" />
    <glyph glyph-name="uni004E" unicode="N" horiz-adv-x="765" 
d="M110 0v705h46l402 -492v487h97v-705h-46l-402 492v-487h-97z" />
    <glyph glyph-name="uni004F" unicode="O" horiz-adv-x="770" 
d="M63 350q0 106 42 187.5t114.5 127.5t165.5 46t166 -46t114.5 -127.5t41.5 -187.5t-41.5 -187.5t-114.5 -127.5t-166 -46t-165.5 46t-114.5 127.5t-42 187.5zM167 350q0 -79 28 -139.5t77.5 -94.5t112.5 -34q64 0 113 34t77.5 94.5t28.5 139.5t-28.5 139.5t-77.5 94.5
t-113 34q-63 0 -112.5 -34t-77.5 -94.5t-28 -139.5z" />
    <glyph glyph-name="uni0050" unicode="P" horiz-adv-x="655" 
d="M110 0v700h250q71 0 126 -28.5t86 -80t31 -120.5q0 -68 -31 -119t-86 -79t-126 -28h-150v-245h-100zM350 609h-140v-277h140q66 0 107.5 37.5t41.5 101.5q0 63 -41.5 100.5t-107.5 37.5z" />
    <glyph glyph-name="uni0051" unicode="Q" horiz-adv-x="770" 
d="M63 350q0 106 42 187.5t114.5 127.5t165.5 46t166 -46t114.5 -127.5t41.5 -187.5q0 -74 -21 -137t-59 -110l87 -90l-66 -66l-90 93q-76 -51 -173 -51q-93 0 -165.5 46t-114.5 127.5t-42 187.5zM167 350q0 -79 28 -139.5t77.5 -94.5t112.5 -34q58 0 104 29l-92 95l68 66
l92 -95q23 34 35 77.5t12 95.5q0 79 -28.5 139.5t-77.5 94.5t-113 34q-63 0 -112.5 -34t-77.5 -94.5t-28 -139.5z" />
    <glyph glyph-name="uni0052" unicode="R" horiz-adv-x="661" 
d="M110 0v700h245q71 0 125 -27.5t85 -77t31 -114.5q0 -76 -43 -130t-114 -74l176 -277h-118l-161 265h-126v-265h-100zM345 609h-135v-257h135q65 0 105.5 36t40.5 93t-40.5 92.5t-105.5 35.5z" />
    <glyph glyph-name="uni0053" unicode="S" horiz-adv-x="609" 
d="M44 87l62 73q39 -34 91 -57.5t111 -23.5q79 0 116 29.5t37 71.5q0 26 -13 48t-48 42t-100 38q-85 24 -134 56t-70 71.5t-21 83.5q0 52 30 95.5t82.5 70t121.5 26.5q68 0 121 -20.5t99 -56.5l-63 -71q-31 27 -70 43t-85 16q-69 0 -103 -31t-34 -67q0 -37 33 -66.5
t124 -55.5q128 -36 178.5 -90t50.5 -125q0 -55 -30.5 -100t-87.5 -71.5t-138 -26.5q-72 0 -139 26t-121 72z" />
    <glyph glyph-name="uni0054" unicode="T" horiz-adv-x="572" 
d="M236 0v609h-204v91h508v-91h-204v-609h-100z" />
    <glyph glyph-name="uni0055" unicode="U" horiz-adv-x="723" 
d="M100 257v443h100v-431q0 -91 42 -139t120 -48t120 48t42 139v431h99v-443q0 -82 -31.5 -142t-90 -93t-139.5 -33t-139.5 33t-90.5 93t-32 142z" />
    <glyph glyph-name="uni0056" unicode="V" horiz-adv-x="668" 
d="M306 -5l-285 705h109l205 -527l208 527h104l-285 -705h-56z" />
    <glyph glyph-name="uni0057" unicode="W" horiz-adv-x="958" 
d="M255 -5l-234 705h106l157 -505l170 505h54l167 -505l160 505h102l-234 -705h-56l-168 491l-168 -491h-56z" />
    <glyph glyph-name="uni0058" unicode="X" horiz-adv-x="672" 
d="M29 0l249 359l-236 341h120l178 -258l175 258h116l-235 -339l248 -361h-121l-190 278l-189 -278h-115z" />
    <glyph glyph-name="uni0059" unicode="Y" horiz-adv-x="656" 
d="M277 0v292l-262 408h118l196 -316l199 316h113l-264 -411v-289h-100z" />
    <glyph glyph-name="uni005A" unicode="Z" horiz-adv-x="612" 
d="M49 0v65l370 547h-360v88h494v-65l-370 -547h380v-88h-514z" />
    <glyph glyph-name="uni0061" unicode="a" horiz-adv-x="564" 
d="M56 143q0 71 55.5 118t153.5 47q33 0 61.5 -3.5t56.5 -11.5v11q0 138 -128 138q-31 0 -66.5 -9.5t-69.5 -29.5l-33 77q41 23 88.5 36.5t97.5 13.5q95 0 151 -55t56 -150v-325h-96v70q-27 -38 -68 -59.5t-91 -21.5q-49 0 -87 19.5t-59.5 54.5t-21.5 80zM152 150
q0 -34 23 -56.5t67 -22.5q38 0 70 17t51.5 47.5t19.5 70.5v17q-28 6 -55.5 9t-58.5 3q-61 0 -89 -25t-28 -60z" />
    <glyph glyph-name="uni0062" unicode="b" horiz-adv-x="630" 
d="M96 0v730h96v-286q29 41 70.5 63.5t91.5 22.5q64 0 115 -34.5t80.5 -95.5t29.5 -141q0 -79 -29.5 -140t-80.5 -95.5t-115 -34.5q-50 0 -91.5 23t-70.5 63v-75h-96zM185 259q0 -88 43.5 -136t107.5 -48q61 0 102.5 49.5t41.5 134.5q0 86 -41.5 135t-102.5 49
q-64 0 -107.5 -48t-43.5 -136z" />
    <glyph glyph-name="uni0063" unicode="c" horiz-adv-x="539" 
d="M51 259q0 80 33 141t90 95.5t130 34.5q65 0 115 -25.5t81 -69.5l-80 -55q-17 29 -48.5 45t-67.5 16q-43 0 -78 -22t-55.5 -63t-20.5 -97t21 -96.5t56.5 -62.5t79.5 -22q38 0 71 18t50 47l76 -58q-31 -43 -82.5 -69.5t-117.5 -26.5q-73 0 -130 34.5t-90 95.5t-33 140z" />
    <glyph glyph-name="uni0064" unicode="d" horiz-adv-x="630" 
d="M51 259q0 80 29.5 141t80.5 95.5t114 34.5q51 0 93 -23t70 -64v287h96v-730h-96v75q-28 -40 -70 -63t-93 -23q-63 0 -114 34.5t-80.5 95.5t-29.5 140zM150 259q0 -56 19 -97.5t51.5 -64t72.5 -22.5q65 0 108 48t43 136t-43 136t-108 48q-60 0 -101.5 -49t-41.5 -135z" />
    <glyph glyph-name="uni0065" unicode="e" horiz-adv-x="580" 
d="M51 257q0 80 32 141.5t87.5 96.5t125.5 35q72 0 124.5 -32.5t80.5 -90t28 -133.5q0 -23 -3 -44h-377q8 -74 51 -113.5t107 -39.5q36 0 73.5 17t60.5 46l68 -57q-34 -42 -88 -68t-119 -26q-73 0 -130 33.5t-89 94t-32 140.5zM297 447q-52 0 -93 -37t-52 -106h282
q-5 71 -42 107t-95 36z" />
    <glyph glyph-name="uni0066" unicode="f" horiz-adv-x="349" 
d="M113 0v433h-89v85h89v38q0 92 48.5 139t124.5 47q20 0 36.5 -2.5t29.5 -7.5v-86q-13 3 -27 5t-28 2q-40 0 -64.5 -24t-24.5 -80v-31h134v-85h-134v-433h-95z" />
    <glyph glyph-name="uni0067" unicode="g" horiz-adv-x="623" 
d="M72 -93l49 72q26 -25 68 -39.5t86 -14.5q77 0 117 39t40 127v23q-28 -37 -69 -58t-91 -21q-63 0 -113 31.5t-79 87t-29 128.5t29 129t79 87.5t113 31.5q50 0 91 -20.5t69 -58.5v67h96v-428q0 -120 -64.5 -185.5t-189.5 -65.5q-54 0 -106 16t-96 52zM150 282
q0 -75 41 -118t99 -43q63 0 105.5 42.5t42.5 118.5q0 77 -42.5 119t-105.5 42q-58 0 -99 -43t-41 -118z" />
    <glyph glyph-name="uni0068" unicode="h" horiz-adv-x="622" 
d="M96 0v730h96v-294q19 40 62 67t97 27q51 0 93 -25.5t67.5 -73.5t25.5 -117v-314h-96v301q0 74 -34.5 107.5t-81.5 33.5q-35 0 -65.5 -20t-49 -56.5t-18.5 -86.5v-279h-96z" />
    <glyph glyph-name="uni0069" unicode="i" horiz-adv-x="288" 
d="M78 679q0 26 19 44.5t47 18.5q29 0 47.5 -18.5t18.5 -44.5q0 -27 -18.5 -45t-47.5 -18q-28 0 -47 18t-19 45zM96 0v518h96v-518h-96z" />
    <glyph glyph-name="uni006A" unicode="j" horiz-adv-x="288" 
d="M78 679q0 26 19 44.5t47 18.5q29 0 47.5 -18.5t18.5 -44.5q0 -27 -18.5 -45t-47.5 -18q-28 0 -47 18t-19 45zM-35 -152l6 86q24 -6 47 -6q35 0 56.5 23.5t21.5 74.5v492h96v-499q0 -88 -45 -134t-116 -46q-36 0 -66 9z" />
    <glyph glyph-name="uni006B" unicode="k" horiz-adv-x="540" 
d="M96 0v730h96v-450l204 238h116l-222 -246l238 -272h-123l-213 247v-247h-96z" />
    <glyph glyph-name="uni006C" unicode="l" horiz-adv-x="288" 
d="M96 0v730h96v-730h-96z" />
    <glyph glyph-name="uni006D" unicode="m" horiz-adv-x="931" 
d="M96 0v518h96v-81q17 40 57.5 66.5t87.5 26.5q52 0 94 -27t64 -78q26 54 71 79.5t94 25.5q51 0 92.5 -25t66 -73t24.5 -118v-314h-96v301q0 74 -31 107.5t-74 33.5q-51 0 -88 -41t-37 -124v-277h-96v301q0 74 -30.5 107.5t-74.5 33.5q-50 0 -87 -41t-37 -124v-277h-96z
" />
    <glyph glyph-name="uni006E" unicode="n" horiz-adv-x="622" 
d="M96 0v518h96v-82q19 40 62 67t97 27q51 0 93 -25.5t67.5 -73.5t25.5 -117v-314h-96v301q0 74 -34.5 107.5t-81.5 33.5q-35 0 -65.5 -20t-49 -56.5t-18.5 -86.5v-279h-96z" />
    <glyph glyph-name="uni006F" unicode="o" horiz-adv-x="601" 
d="M51 259q0 80 33 141t89.5 95.5t126.5 34.5q71 0 127.5 -34.5t89.5 -95.5t33 -141q0 -79 -33 -140t-89.5 -95.5t-127.5 -34.5q-70 0 -126.5 34.5t-89.5 95.5t-33 140zM150 259q0 -87 44 -134.5t106 -47.5q42 0 76 21.5t54.5 62t20.5 98.5t-20.5 99t-54.5 62.5t-76 21.5
q-41 0 -75.5 -21.5t-54.5 -62.5t-20 -99z" />
    <glyph glyph-name="uni0070" unicode="p" horiz-adv-x="630" 
d="M96 -150v668h96v-74q29 41 70.5 63.5t91.5 22.5q64 0 115 -34.5t80.5 -95.5t29.5 -141t-29.5 -141t-80.5 -95t-115 -34q-50 0 -91.5 23t-70.5 63v-225h-96zM185 259q0 -88 43.5 -136t107.5 -48q61 0 102.5 49.5t41.5 134.5q0 86 -41.5 135t-102.5 49q-64 0 -107.5 -48
t-43.5 -136z" />
    <glyph glyph-name="uni0071" unicode="q" horiz-adv-x="630" 
d="M51 259q0 80 29.5 141t80.5 95.5t114 34.5q51 0 93 -23t70 -64v75h96v-668h-96v225q-28 -40 -70 -63t-93 -23q-63 0 -114 34t-80.5 95t-29.5 141zM150 259q0 -56 19 -97.5t51.5 -64t72.5 -22.5q65 0 108 48t43 136t-43 136t-108 48q-60 0 -101.5 -49t-41.5 -135z" />
    <glyph glyph-name="uni0072" unicode="r" horiz-adv-x="387" 
d="M96 0v518h96v-104q20 47 66.5 81.5t104.5 34.5v-98q-171 -9 -171 -189v-243h-96z" />
    <glyph glyph-name="uni0073" unicode="s" horiz-adv-x="493" 
d="M46 64l55 65q27 -25 71.5 -40.5t84.5 -15.5q51 0 74 18.5t23 41.5q0 18 -9.5 33.5t-37 30t-81.5 30.5q-85 25 -120 63.5t-35 90.5q0 41 23 74.5t65 54t98 20.5q44 0 89 -13.5t78 -36.5l-47 -70q-24 17 -57 27.5t-71 10.5q-42 0 -64.5 -19t-22.5 -41q0 -24 21.5 -42.5
t89.5 -38.5q98 -28 137 -70t39 -97q0 -64 -50.5 -107.5t-145.5 -43.5q-61 0 -116.5 21t-90.5 54z" />
    <glyph glyph-name="uni0074" unicode="t" horiz-adv-x="400" 
d="M113 167v266h-89v85h89v124h95v-124h149v-85h-149v-258q0 -52 23.5 -74.5t69.5 -22.5q25 0 52 6l10 -85q-16 -4 -35 -7t-39 -3q-82 0 -129 45t-47 133z" />
    <glyph glyph-name="uni0075" unicode="u" horiz-adv-x="622" 
d="M86 204v314h96v-301q0 -73 34 -106.5t82 -33.5q36 0 66 20t48.5 56.5t18.5 86.5v278h96v-518h-96v83q-19 -40 -62.5 -67t-97.5 -27q-50 0 -92.5 25.5t-67.5 73.5t-25 116z" />
    <glyph glyph-name="uni0076" unicode="v" horiz-adv-x="526" 
d="M236 -5l-217 523h105l139 -359l143 359h101l-217 -523h-54z" />
    <glyph glyph-name="uni0077" unicode="w" horiz-adv-x="759" 
d="M505 -5l-125 342l-126 -342h-55l-178 523h104l103 -346l127 346h53l123 -346l108 346h99l-178 -523h-55z" />
    <glyph glyph-name="uni0078" unicode="x" horiz-adv-x="531" 
d="M26 0l184 267l-169 251h115l114 -168l113 168h108l-170 -245l185 -273h-115l-130 192l-127 -192h-108z" />
    <glyph glyph-name="uni0079" unicode="y" horiz-adv-x="526" 
d="M36 -148l17 83q10 -4 22 -6.5t24 -2.5q25 0 43 8t35 33t39 76l-197 475h105l139 -359l143 359h101l-217 -523q-37 -90 -81 -123t-98 -33q-42 0 -75 13z" />
    <glyph glyph-name="uni007A" unicode="z" horiz-adv-x="507" 
d="M47 0v63l272 373h-262v82h393v-62l-272 -373h282v-83h-413z" />
    <glyph glyph-name="uni00C0" unicode="&#xc0;" horiz-adv-x="668" 
d="M21 0l285 705h56l285 -705h-109l-70 181h-271l-72 -181h-104zM230 266h205l-102 260zM165 909h116l100 -145h-80z" />
    <glyph glyph-name="uni00E0" unicode="&#xe0;" horiz-adv-x="564" 
d="M56 143q0 71 55.5 118t153.5 47q33 0 61.5 -3.5t56.5 -11.5v11q0 138 -128 138q-31 0 -66.5 -9.5t-69.5 -29.5l-33 77q41 23 88.5 36.5t97.5 13.5q95 0 151 -55t56 -150v-325h-96v70q-27 -38 -68 -59.5t-91 -21.5q-49 0 -87 19.5t-59.5 54.5t-21.5 80zM152 150
q0 -34 23 -56.5t67 -22.5q38 0 70 17t51.5 47.5t19.5 70.5v17q-28 6 -55.5 9t-58.5 3q-61 0 -89 -25t-28 -60zM132 770h104l79 -170h-75z" />
    <glyph glyph-name="uni00C1" unicode="&#xc1;" horiz-adv-x="668" 
d="M21 0l285 705h56l285 -705h-109l-70 181h-271l-72 -181h-104zM230 266h205l-102 260zM289 764l100 145h116l-136 -145h-80z" />
    <glyph glyph-name="uni00E1" unicode="&#xe1;" horiz-adv-x="564" 
d="M56 143q0 71 55.5 118t153.5 47q33 0 61.5 -3.5t56.5 -11.5v11q0 138 -128 138q-31 0 -66.5 -9.5t-69.5 -29.5l-33 77q41 23 88.5 36.5t97.5 13.5q95 0 151 -55t56 -150v-325h-96v70q-27 -38 -68 -59.5t-91 -21.5q-49 0 -87 19.5t-59.5 54.5t-21.5 80zM152 150
q0 -34 23 -56.5t67 -22.5q38 0 70 17t51.5 47.5t19.5 70.5v17q-28 6 -55.5 9t-58.5 3q-61 0 -89 -25t-28 -60zM229 600l79 170h104l-108 -170h-75z" />
    <glyph glyph-name="uni00C2" unicode="&#xc2;" horiz-adv-x="668" 
d="M21 0l285 705h56l285 -705h-109l-70 181h-271l-72 -181h-104zM230 266h205l-102 260zM176 764l116 145h86l116 -145h-78l-81 75l-81 -75h-78z" />
    <glyph glyph-name="uni00E2" unicode="&#xe2;" horiz-adv-x="564" 
d="M56 143q0 71 55.5 118t153.5 47q33 0 61.5 -3.5t56.5 -11.5v11q0 138 -128 138q-31 0 -66.5 -9.5t-69.5 -29.5l-33 77q41 23 88.5 36.5t97.5 13.5q95 0 151 -55t56 -150v-325h-96v70q-27 -38 -68 -59.5t-91 -21.5q-49 0 -87 19.5t-59.5 54.5t-21.5 80zM152 150
q0 -34 23 -56.5t67 -22.5q38 0 70 17t51.5 47.5t19.5 70.5v17q-28 6 -55.5 9t-58.5 3q-61 0 -89 -25t-28 -60zM120 600l112 170h80l112 -170h-78l-74 94l-74 -94h-78z" />
    <glyph glyph-name="uni00C3" unicode="&#xc3;" horiz-adv-x="668" 
d="M21 0l285 705h56l285 -705h-109l-70 181h-271l-72 -181h-104zM230 266h205l-102 260zM159 765q5 60 28.5 99.5t72.5 39.5q27 0 48.5 -10.5t39 -25t32.5 -25t30 -10.5q17 0 27 15t14 51h60q-4 -60 -28 -99.5t-73 -39.5q-27 0 -48.5 11t-39 25t-33 25t-29.5 11
q-17 0 -26.5 -15.5t-14.5 -51.5h-60z" />
    <glyph glyph-name="uni00E3" unicode="&#xe3;" horiz-adv-x="564" 
d="M56 143q0 71 55.5 118t153.5 47q33 0 61.5 -3.5t56.5 -11.5v11q0 138 -128 138q-31 0 -66.5 -9.5t-69.5 -29.5l-33 77q41 23 88.5 36.5t97.5 13.5q95 0 151 -55t56 -150v-325h-96v70q-27 -38 -68 -59.5t-91 -21.5q-49 0 -87 19.5t-59.5 54.5t-21.5 80zM152 150
q0 -34 23 -56.5t67 -22.5q38 0 70 17t51.5 47.5t19.5 70.5v17q-28 6 -55.5 9t-58.5 3q-61 0 -89 -25t-28 -60zM106 600q4 63 27 104.5t71 41.5q27 0 46.5 -12t34.5 -27t28.5 -27t26.5 -12q15 0 24.5 16.5t13.5 56.5h60q-4 -63 -27.5 -104.5t-70.5 -41.5q-27 0 -46.5 12
t-35 27t-28.5 27t-26 12q-15 0 -24.5 -16.5t-13.5 -56.5h-60z" />
    <glyph glyph-name="uni00C4" unicode="&#xc4;" horiz-adv-x="668" 
d="M21 0l285 705h56l285 -705h-109l-70 181h-271l-72 -181h-104zM230 266h205l-102 260zM168 830q0 24 16 40t41 16q26 0 42 -16t16 -40t-16 -40t-42 -16q-25 0 -41 16t-16 40zM387 830q0 24 16 40t42 16t41.5 -16t15.5 -40t-15.5 -40t-41.5 -16t-42 16t-16 40z" />
    <glyph glyph-name="uni00E4" unicode="&#xe4;" horiz-adv-x="564" 
d="M56 143q0 71 55.5 118t153.5 47q33 0 61.5 -3.5t56.5 -11.5v11q0 138 -128 138q-31 0 -66.5 -9.5t-69.5 -29.5l-33 77q41 23 88.5 36.5t97.5 13.5q95 0 151 -55t56 -150v-325h-96v70q-27 -38 -68 -59.5t-91 -21.5q-49 0 -87 19.5t-59.5 54.5t-21.5 80zM152 150
q0 -34 23 -56.5t67 -22.5q38 0 70 17t51.5 47.5t19.5 70.5v17q-28 6 -55.5 9t-58.5 3q-61 0 -89 -25t-28 -60zM111 685q0 24 16 40t41 16q26 0 41.5 -16t15.5 -40t-15.5 -40t-41.5 -16q-25 0 -41 16t-16 40zM319 685q0 24 16 40t41 16q26 0 41.5 -16t15.5 -40t-15.5 -40
t-41.5 -16q-25 0 -41 16t-16 40z" />
    <glyph glyph-name="uni0100" unicode="&#x100;" horiz-adv-x="668" 
d="M21 0l285 705h56l285 -705h-109l-70 181h-271l-72 -181h-104zM230 266h205l-102 260zM174 795v73h322v-73h-322z" />
    <glyph glyph-name="uni0101" unicode="&#x101;" horiz-adv-x="564" 
d="M56 143q0 71 55.5 118t153.5 47q33 0 61.5 -3.5t56.5 -11.5v11q0 138 -128 138q-31 0 -66.5 -9.5t-69.5 -29.5l-33 77q41 23 88.5 36.5t97.5 13.5q95 0 151 -55t56 -150v-325h-96v70q-27 -38 -68 -59.5t-91 -21.5q-49 0 -87 19.5t-59.5 54.5t-21.5 80zM152 150
q0 -34 23 -56.5t67 -22.5q38 0 70 17t51.5 47.5t19.5 70.5v17q-28 6 -55.5 9t-58.5 3q-61 0 -89 -25t-28 -60zM125 648v74h294v-74h-294z" />
    <glyph glyph-name="uni0102" unicode="&#x102;" horiz-adv-x="668" 
d="M21 0l285 705h56l285 -705h-109l-70 181h-271l-72 -181h-104zM230 266h205l-102 260zM173 904h75q5 -31 27.5 -48t59.5 -17t59.5 17t27.5 48h75q-7 -69 -52 -107t-110 -38t-110 38t-52 107z" />
    <glyph glyph-name="uni0103" unicode="&#x103;" horiz-adv-x="564" 
d="M56 143q0 71 55.5 118t153.5 47q33 0 61.5 -3.5t56.5 -11.5v11q0 138 -128 138q-31 0 -66.5 -9.5t-69.5 -29.5l-33 77q41 23 88.5 36.5t97.5 13.5q95 0 151 -55t56 -150v-325h-96v70q-27 -38 -68 -59.5t-91 -21.5q-49 0 -87 19.5t-59.5 54.5t-21.5 80zM152 150
q0 -34 23 -56.5t67 -22.5q38 0 70 17t51.5 47.5t19.5 70.5v17q-28 6 -55.5 9t-58.5 3q-61 0 -89 -25t-28 -60zM120 765h75q12 -89 77 -89t77 89h75q-8 -82 -49 -126t-103 -44t-103 44t-49 126z" />
    <glyph glyph-name="uni00C5" unicode="&#xc5;" horiz-adv-x="668" 
d="M21 0l285 705h56l285 -705h-109l-70 181h-271l-72 -181h-104zM230 266h205l-102 260zM227 857q0 42 30 71.5t78 29.5t78 -29.5t30 -71.5q0 -43 -30 -72.5t-78 -29.5t-78 29.5t-30 72.5zM288 857q0 -21 13 -34.5t34 -13.5t34 13.5t13 34.5q0 20 -13 33.5t-34 13.5
t-34 -13.5t-13 -33.5z" />
    <glyph glyph-name="uni00E5" unicode="&#xe5;" horiz-adv-x="564" 
d="M56 143q0 71 55.5 118t153.5 47q33 0 61.5 -3.5t56.5 -11.5v11q0 138 -128 138q-31 0 -66.5 -9.5t-69.5 -29.5l-33 77q41 23 88.5 36.5t97.5 13.5q95 0 151 -55t56 -150v-325h-96v70q-27 -38 -68 -59.5t-91 -21.5q-49 0 -87 19.5t-59.5 54.5t-21.5 80zM152 150
q0 -34 23 -56.5t67 -22.5q38 0 70 17t51.5 47.5t19.5 70.5v17q-28 6 -55.5 9t-58.5 3q-61 0 -89 -25t-28 -60zM167 698q0 44 29.5 73t75.5 29t75.5 -29t29.5 -73q0 -43 -29.5 -73t-75.5 -30t-75.5 30t-29.5 73zM228 698q0 -22 12.5 -35.5t31.5 -13.5t31.5 13.5t12.5 35.5
t-12.5 35t-31.5 13t-31.5 -13t-12.5 -35z" />
    <glyph glyph-name="uni01FA" unicode="&#x1fa;" horiz-adv-x="668" 
d="M21 0l285 705h56l285 -705h-109l-70 181h-271l-72 -181h-104zM230 266h205l-102 260zM300 993l94 135h115l-128 -135h-81zM227 857q0 42 30 71.5t78 29.5t78 -29.5t30 -71.5q0 -43 -30 -72.5t-78 -29.5t-78 29.5t-30 72.5zM288 857q0 -21 13 -34.5t34 -13.5t34 13.5
t13 34.5q0 20 -13 33.5t-34 13.5t-34 -13.5t-13 -33.5z" />
    <glyph glyph-name="uni01FB" unicode="&#x1fb;" horiz-adv-x="564" 
d="M56 143q0 71 55.5 118t153.5 47q33 0 61.5 -3.5t56.5 -11.5v11q0 138 -128 138q-31 0 -66.5 -9.5t-69.5 -29.5l-33 77q41 23 88.5 36.5t97.5 13.5q95 0 151 -55t56 -150v-325h-96v70q-27 -38 -68 -59.5t-91 -21.5q-49 0 -87 19.5t-59.5 54.5t-21.5 80zM152 150
q0 -34 23 -56.5t67 -22.5q38 0 70 17t51.5 47.5t19.5 70.5v17q-28 6 -55.5 9t-58.5 3q-61 0 -89 -25t-28 -60zM242 856l79 159h104l-108 -159h-75zM167 698q0 44 29.5 73t75.5 29t75.5 -29t29.5 -73q0 -43 -29.5 -73t-75.5 -30t-75.5 30t-29.5 73zM228 698q0 -22 12.5 -35.5
t31.5 -13.5t31.5 13.5t12.5 35.5t-12.5 35t-31.5 13t-31.5 -13t-12.5 -35z" />
    <glyph glyph-name="uni1EA0" unicode="&#x1ea0;" horiz-adv-x="668" 
d="M21 0l285 705h56l285 -705h-109l-70 181h-271l-72 -181h-104zM230 266h205l-102 260zM273 -138q0 26 17.5 43.5t44.5 17.5t44.5 -17.5t17.5 -43.5t-17.5 -43.5t-44.5 -17.5t-44.5 17.5t-17.5 43.5z" />
    <glyph glyph-name="uni1EA1" unicode="&#x1ea1;" horiz-adv-x="564" 
d="M56 143q0 71 55.5 118t153.5 47q33 0 61.5 -3.5t56.5 -11.5v11q0 138 -128 138q-31 0 -66.5 -9.5t-69.5 -29.5l-33 77q41 23 88.5 36.5t97.5 13.5q95 0 151 -55t56 -150v-325h-96v70q-27 -38 -68 -59.5t-91 -21.5q-49 0 -87 19.5t-59.5 54.5t-21.5 80zM152 150
q0 -34 23 -56.5t67 -22.5q38 0 70 17t51.5 47.5t19.5 70.5v17q-28 6 -55.5 9t-58.5 3q-61 0 -89 -25t-28 -60zM207 -138q0 26 17.5 43.5t44.5 17.5t44.5 -17.5t17.5 -43.5t-17.5 -43.5t-44.5 -17.5t-44.5 17.5t-17.5 43.5z" />
    <glyph glyph-name="uni0104" unicode="&#x104;" horiz-adv-x="668" 
d="M21 0l285 705h56l285 -705q-64 -28 -95 -56.5t-31 -53.5q0 -14 10 -23.5t29 -9.5q22 0 50 17l23 -57q-19 -12 -43.5 -20.5t-46.5 -8.5q-45 0 -72.5 25t-27.5 62q0 38 24.5 69t70.5 57l-70 180h-271l-72 -181h-104zM230 266h205l-102 260z" />
    <glyph glyph-name="uni0105" unicode="&#x105;" horiz-adv-x="564" 
d="M56 143q0 71 55.5 118t153.5 47q33 0 61.5 -3.5t56.5 -11.5v11q0 138 -128 138q-31 0 -66.5 -9.5t-69.5 -29.5l-33 77q41 23 88.5 36.5t97.5 13.5q95 0 151 -55t56 -150v-325q-64 -28 -95 -56.5t-31 -53.5q0 -14 10 -23.5t29 -9.5q22 0 50 17l23 -57q-19 -12 -43.5 -20.5
t-46.5 -8.5q-45 0 -72.5 25t-27.5 62q0 40 28 73t80 61v61q-27 -38 -68 -59.5t-91 -21.5q-49 0 -87 19.5t-59.5 54.5t-21.5 80zM152 150q0 -34 23 -56.5t67 -22.5q38 0 70 17t51.5 47.5t19.5 70.5v17q-28 6 -55.5 9t-58.5 3q-61 0 -89 -25t-28 -60z" />
    <glyph glyph-name="uni00C6" unicode="&#xc6;" horiz-adv-x="955" 
d="M21 0l381 700h473v-91h-325v-210h287v-88h-287v-220h330v-91h-430v181h-223l-97 -181h-109zM272 266h178v332z" />
    <glyph glyph-name="uni00E6" unicode="&#xe6;" horiz-adv-x="882" 
d="M56 140q0 71 57.5 117.5t160.5 46.5q8 0 27.5 -0.5t41.5 -1.5t37 -3v5q0 138 -128 138q-31 0 -65.5 -9.5t-67.5 -29.5l-33 77q40 23 86.5 36.5t92.5 13.5q64 0 108.5 -28.5t65.5 -79.5q29 52 75 80t101 28q68 0 116.5 -32.5t74.5 -90t26 -133.5q0 -23 -3 -44h-353
q7 -74 47.5 -113.5t98.5 -39.5q33 0 66.5 17t54.5 46l68 -57q-32 -42 -81 -68t-108 -26q-64 0 -114 31.5t-78 92.5q-25 -57 -79 -90.5t-124 -33.5q-76 0 -123.5 42t-47.5 109zM612 447q-48 0 -85.5 -37t-48.5 -106h258q-4 71 -38 107t-86 36zM152 147q0 -34 22 -55t65 -21
q38 0 70 17t51.5 47.5t19.5 70.5v20q-15 2 -35.5 2.5t-38.5 1t-28 0.5q-65 0 -95.5 -24t-30.5 -59z" />
    <glyph glyph-name="uni01FC" unicode="&#x1fc;" horiz-adv-x="955" 
d="M21 0l381 700h473v-91h-325v-210h287v-88h-287v-220h330v-91h-430v181h-223l-97 -181h-109zM272 266h178v332zM509 764l100 145h116l-136 -145h-80z" />
    <glyph glyph-name="uni01FD" unicode="&#x1fd;" horiz-adv-x="882" 
d="M56 140q0 71 57.5 117.5t160.5 46.5q8 0 27.5 -0.5t41.5 -1.5t37 -3v5q0 138 -128 138q-31 0 -65.5 -9.5t-67.5 -29.5l-33 77q40 23 86.5 36.5t92.5 13.5q64 0 108.5 -28.5t65.5 -79.5q29 52 75 80t101 28q68 0 116.5 -32.5t74.5 -90t26 -133.5q0 -23 -3 -44h-353
q7 -74 47.5 -113.5t98.5 -39.5q33 0 66.5 17t54.5 46l68 -57q-32 -42 -81 -68t-108 -26q-64 0 -114 31.5t-78 92.5q-25 -57 -79 -90.5t-124 -33.5q-76 0 -123.5 42t-47.5 109zM612 447q-48 0 -85.5 -37t-48.5 -106h258q-4 71 -38 107t-86 36zM152 147q0 -34 22 -55t65 -21
q38 0 70 17t51.5 47.5t19.5 70.5v20q-15 2 -35.5 2.5t-38.5 1t-28 0.5q-65 0 -95.5 -24t-30.5 -59zM395 600l79 170h104l-108 -170h-75z" />
    <glyph glyph-name="uni0106" unicode="&#x106;" horiz-adv-x="690" 
d="M63 350q0 79 24.5 145t68.5 114.5t104 75t131 26.5q83 0 147.5 -35.5t102.5 -97.5l-83 -55q-27 47 -70.5 71t-96.5 24q-65 0 -115.5 -34t-79.5 -94.5t-29 -139.5t28.5 -139.5t79 -94.5t115.5 -34q54 0 100 25t73 71l83 -56q-37 -60 -104 -96.5t-152 -36.5
q-94 0 -168 46.5t-116.5 128t-42.5 186.5zM336 764l100 145h116l-136 -145h-80z" />
    <glyph glyph-name="uni0107" unicode="&#x107;" horiz-adv-x="539" 
d="M51 259q0 80 33 141t90 95.5t130 34.5q65 0 115 -25.5t81 -69.5l-80 -55q-17 29 -48.5 45t-67.5 16q-43 0 -78 -22t-55.5 -63t-20.5 -97t21 -96.5t56.5 -62.5t79.5 -22q38 0 71 18t50 47l76 -58q-31 -43 -82.5 -69.5t-117.5 -26.5q-73 0 -130 34.5t-90 95.5t-33 140z
M257 600l79 170h104l-108 -170h-75z" />
    <glyph glyph-name="uni0108" unicode="&#x108;" horiz-adv-x="690" 
d="M63 350q0 79 24.5 145t68.5 114.5t104 75t131 26.5q83 0 147.5 -35.5t102.5 -97.5l-83 -55q-27 47 -70.5 71t-96.5 24q-65 0 -115.5 -34t-79.5 -94.5t-29 -139.5t28.5 -139.5t79 -94.5t115.5 -34q54 0 100 25t73 71l83 -56q-37 -60 -104 -96.5t-152 -36.5
q-94 0 -168 46.5t-116.5 128t-42.5 186.5zM223 764l116 145h86l116 -145h-78l-81 75l-81 -75h-78z" />
    <glyph glyph-name="uni0109" unicode="&#x109;" horiz-adv-x="539" 
d="M51 259q0 80 33 141t90 95.5t130 34.5q65 0 115 -25.5t81 -69.5l-80 -55q-17 29 -48.5 45t-67.5 16q-43 0 -78 -22t-55.5 -63t-20.5 -97t21 -96.5t56.5 -62.5t79.5 -22q38 0 71 18t50 47l76 -58q-31 -43 -82.5 -69.5t-117.5 -26.5q-73 0 -130 34.5t-90 95.5t-33 140z
M148 600l112 170h80l112 -170h-78l-74 94l-74 -94h-78z" />
    <glyph glyph-name="uni010C" unicode="&#x10c;" horiz-adv-x="690" 
d="M63 350q0 79 24.5 145t68.5 114.5t104 75t131 26.5q83 0 147.5 -35.5t102.5 -97.5l-83 -55q-27 47 -70.5 71t-96.5 24q-65 0 -115.5 -34t-79.5 -94.5t-29 -139.5t28.5 -139.5t79 -94.5t115.5 -34q54 0 100 25t73 71l83 -56q-37 -60 -104 -96.5t-152 -36.5
q-94 0 -168 46.5t-116.5 128t-42.5 186.5zM541 904l-116 -145h-86l-116 145h78l81 -75l81 75h78z" />
    <glyph glyph-name="uni010D" unicode="&#x10d;" horiz-adv-x="539" 
d="M51 259q0 80 33 141t90 95.5t130 34.5q65 0 115 -25.5t81 -69.5l-80 -55q-17 29 -48.5 45t-67.5 16q-43 0 -78 -22t-55.5 -63t-20.5 -97t21 -96.5t56.5 -62.5t79.5 -22q38 0 71 18t50 47l76 -58q-31 -43 -82.5 -69.5t-117.5 -26.5q-73 0 -130 34.5t-90 95.5t-33 140z
M148 765h79l74 -94l74 94h77l-112 -170h-79z" />
    <glyph glyph-name="uni010A" unicode="&#x10a;" horiz-adv-x="690" 
d="M63 350q0 79 24.5 145t68.5 114.5t104 75t131 26.5q83 0 147.5 -35.5t102.5 -97.5l-83 -55q-27 47 -70.5 71t-96.5 24q-65 0 -115.5 -34t-79.5 -94.5t-29 -139.5t28.5 -139.5t79 -94.5t115.5 -34q54 0 100 25t73 71l83 -56q-37 -60 -104 -96.5t-152 -36.5
q-94 0 -168 46.5t-116.5 128t-42.5 186.5zM320 842q0 26 17.5 43.5t44.5 17.5t44.5 -17.5t17.5 -43.5t-17.5 -43.5t-44.5 -17.5t-44.5 17.5t-17.5 43.5z" />
    <glyph glyph-name="uni010B" unicode="&#x10b;" horiz-adv-x="539" 
d="M51 259q0 80 33 141t90 95.5t130 34.5q65 0 115 -25.5t81 -69.5l-80 -55q-17 29 -48.5 45t-67.5 16q-43 0 -78 -22t-55.5 -63t-20.5 -97t21 -96.5t56.5 -62.5t79.5 -22q38 0 71 18t50 47l76 -58q-31 -43 -82.5 -69.5t-117.5 -26.5q-73 0 -130 34.5t-90 95.5t-33 140z
M238 680q0 26 17.5 43.5t44.5 17.5t44.5 -17.5t17.5 -43.5t-17.5 -43.5t-44.5 -17.5t-44.5 17.5t-17.5 43.5z" />
    <glyph glyph-name="uni00C7" unicode="&#xc7;" horiz-adv-x="690" 
d="M304 -147l17 47q25 -10 46 -10q31 0 31 17q0 8 -11.5 15t-49.5 11l19 58q-85 9 -151.5 57t-104 125.5t-37.5 176.5q0 79 24.5 145t68.5 114.5t104 75t131 26.5q83 0 147.5 -35.5t102.5 -97.5l-83 -55q-27 47 -70.5 71t-96.5 24q-65 0 -115.5 -34t-79.5 -94.5t-29 -139.5
t28.5 -139.5t79 -94.5t115.5 -34q54 0 100 25t73 71l83 -56q-36 -57 -98 -93t-142 -40l-6 -26q37 -4 56.5 -22.5t19.5 -41.5q0 -25 -23 -42.5t-67 -17.5q-22 0 -43.5 4t-38.5 10z" />
    <glyph glyph-name="uni00E7" unicode="&#xe7;" horiz-adv-x="539" 
d="M212 -147l17 47q25 -10 46 -10q31 0 31 17q0 8 -11.5 15t-49.5 11l19 59q-62 9 -110.5 45t-75.5 93t-27 129q0 80 33 141t90 95.5t130 34.5q65 0 115 -25.5t81 -69.5l-80 -55q-17 29 -48.5 45t-67.5 16q-43 0 -78 -22t-55.5 -63t-20.5 -97t21 -96.5t56.5 -62.5t79.5 -22
q38 0 71 18t50 47l76 -58q-30 -41 -78.5 -67.5t-111.5 -28.5l-6 -26q37 -4 56.5 -22.5t19.5 -41.5q0 -25 -23 -42.5t-67 -17.5q-22 0 -43.5 4t-38.5 10z" />
    <glyph glyph-name="uni010E" unicode="&#x10e;" horiz-adv-x="727" 
d="M110 0v700h203q103 0 182 -44t124 -123t45 -183t-45 -183t-124 -123t-182 -44h-203zM308 609h-98v-518h98q76 0 132.5 32.5t88 91t31.5 135.5t-31.5 135.5t-88 91t-132.5 32.5zM476 904l-116 -145h-86l-116 145h78l81 -75l81 75h78z" />
    <glyph glyph-name="uni010F" unicode="&#x10f;" horiz-adv-x="695" 
d="M51 259q0 80 29.5 141t80.5 95.5t114 34.5q51 0 93 -23t70 -64v287h96v-730h-96v75q-28 -40 -70 -63t-93 -23q-63 0 -114 34.5t-80.5 95.5t-29.5 140zM150 259q0 -56 19 -97.5t51.5 -64t72.5 -22.5q65 0 108 48t43 136t-43 136t-108 48q-60 0 -101.5 -49t-41.5 -135z
M632 730h93l-42 -264h-72z" />
    <glyph glyph-name="uni0110" unicode="&#x110;" horiz-adv-x="727" 
d="M110 0v300h-85v84h85v316h203q103 0 182 -44t124 -123t45 -183t-45 -183t-124 -123t-182 -44h-203zM369 300h-159v-209h98q76 0 132.5 32.5t88 91t31.5 135.5t-31.5 135.5t-88 91t-132.5 32.5h-98v-225h159v-84z" />
    <glyph glyph-name="uni0111" unicode="&#x111;" horiz-adv-x="630" 
d="M51 253q0 78 29.5 137.5t80.5 93t114 33.5q51 0 93 -22t70 -62v145h-136v83h136v69h96v-69h82v-83h-82v-578h-96v73q-28 -40 -70 -62t-93 -22q-63 0 -114 33.5t-80.5 93t-29.5 137.5zM150 253q0 -82 41.5 -130t101.5 -48q65 0 108 46.5t43 131.5t-43 131.5t-108 46.5
q-60 0 -101.5 -47.5t-41.5 -130.5z" />
    <glyph glyph-name="uni00D0" unicode="&#xd0;" horiz-adv-x="727" 
d="M110 0v300h-85v84h85v316h203q103 0 182 -44t124 -123t45 -183t-45 -183t-124 -123t-182 -44h-203zM369 300h-159v-209h98q76 0 132.5 32.5t88 91t31.5 135.5t-31.5 135.5t-88 91t-132.5 32.5h-98v-225h159v-84z" />
    <glyph glyph-name="uni00F0" unicode="&#xf0;" horiz-adv-x="609" 
d="M51 235q0 67 31 120.5t83 85t116 31.5q44 0 82.5 -17.5t64.5 -49.5q-17 45 -46.5 89.5t-74.5 91.5l-114 -53l-30 66l88 41q-24 21 -51 43.5t-59 46.5h139q30 -25 57 -51l110 51l30 -66l-87 -40q76 -85 117 -175.5t41 -185.5q0 -84 -32.5 -145.5t-89 -95t-128.5 -33.5
q-71 0 -127 33t-88 88.5t-32 124.5zM150 235q0 -43 19.5 -78t53 -55.5t75.5 -20.5q43 0 76.5 20.5t52.5 55.5t19 78t-19 76t-52.5 52.5t-76.5 19.5q-42 0 -75.5 -19.5t-53 -52.5t-19.5 -76z" />
    <glyph glyph-name="uni00C8" unicode="&#xc8;" horiz-adv-x="635" 
d="M110 0v700h445v-91h-345v-210h307v-88h-307v-220h350v-91h-450zM165 909h116l100 -145h-80z" />
    <glyph glyph-name="uni00E8" unicode="&#xe8;" horiz-adv-x="580" 
d="M51 257q0 80 32 141.5t87.5 96.5t125.5 35q72 0 124.5 -32.5t80.5 -90t28 -133.5q0 -23 -3 -44h-377q8 -74 51 -113.5t107 -39.5q36 0 73.5 17t60.5 46l68 -57q-34 -42 -88 -68t-119 -26q-73 0 -130 33.5t-89 94t-32 140.5zM297 447q-52 0 -93 -37t-52 -106h282
q-5 71 -42 107t-95 36zM155 770h104l79 -170h-75z" />
    <glyph glyph-name="uni00C9" unicode="&#xc9;" horiz-adv-x="635" 
d="M110 0v700h445v-91h-345v-210h307v-88h-307v-220h350v-91h-450zM289 764l100 145h116l-136 -145h-80z" />
    <glyph glyph-name="uni00E9" unicode="&#xe9;" horiz-adv-x="584" 
d="M51 257q0 80 32 141.5t87.5 96.5t125.5 35q72 0 124.5 -32.5t80.5 -90t28 -133.5q0 -23 -3 -44h-377q8 -74 51 -113.5t107 -39.5q36 0 73.5 17t60.5 46l68 -57q-34 -42 -88 -68t-119 -26q-73 0 -130 33.5t-89 94t-32 140.5zM297 447q-52 0 -93 -37t-52 -106h282
q-5 71 -42 107t-95 36zM252 600l79 170h104l-108 -170h-75z" />
    <glyph glyph-name="uni00CA" unicode="&#xca;" horiz-adv-x="635" 
d="M110 0v700h445v-91h-345v-210h307v-88h-307v-220h350v-91h-450zM176 764l116 145h86l116 -145h-78l-81 75l-81 -75h-78z" />
    <glyph glyph-name="uni00EA" unicode="&#xea;" horiz-adv-x="580" 
d="M51 257q0 80 32 141.5t87.5 96.5t125.5 35q72 0 124.5 -32.5t80.5 -90t28 -133.5q0 -23 -3 -44h-377q8 -74 51 -113.5t107 -39.5q36 0 73.5 17t60.5 46l68 -57q-34 -42 -88 -68t-119 -26q-73 0 -130 33.5t-89 94t-32 140.5zM297 447q-52 0 -93 -37t-52 -106h282
q-5 71 -42 107t-95 36zM143 600l112 170h80l112 -170h-78l-74 94l-74 -94h-78z" />
    <glyph glyph-name="uni1EBC" unicode="&#x1ebc;" horiz-adv-x="635" 
d="M110 0v700h445v-91h-345v-210h307v-88h-307v-220h350v-91h-450zM159 765q5 60 28.5 99.5t72.5 39.5q27 0 48.5 -10.5t39 -25t32.5 -25t30 -10.5q17 0 27 15t14 51h60q-4 -60 -28 -99.5t-73 -39.5q-27 0 -48.5 11t-39 25t-33 25t-29.5 11q-17 0 -26.5 -15.5t-14.5 -51.5
h-60z" />
    <glyph glyph-name="uni1EBD" unicode="&#x1ebd;" horiz-adv-x="580" 
d="M51 257q0 80 32 141.5t87.5 96.5t125.5 35q72 0 124.5 -32.5t80.5 -90t28 -133.5q0 -23 -3 -44h-377q8 -74 51 -113.5t107 -39.5q36 0 73.5 17t60.5 46l68 -57q-34 -42 -88 -68t-119 -26q-73 0 -130 33.5t-89 94t-32 140.5zM297 447q-52 0 -93 -37t-52 -106h282
q-5 71 -42 107t-95 36zM129 600q4 63 27 104.5t71 41.5q27 0 46.5 -12t34.5 -27t28.5 -27t26.5 -12q15 0 24.5 16.5t13.5 56.5h60q-4 -63 -27.5 -104.5t-70.5 -41.5q-27 0 -46.5 12t-35 27t-28.5 27t-26 12q-15 0 -24.5 -16.5t-13.5 -56.5h-60z" />
    <glyph glyph-name="uni011A" unicode="&#x11a;" horiz-adv-x="635" 
d="M110 0v700h445v-91h-345v-210h307v-88h-307v-220h350v-91h-450zM494 904l-116 -145h-86l-116 145h78l81 -75l81 75h78z" />
    <glyph glyph-name="uni011B" unicode="&#x11b;" horiz-adv-x="580" 
d="M51 257q0 80 32 141.5t87.5 96.5t125.5 35q72 0 124.5 -32.5t80.5 -90t28 -133.5q0 -23 -3 -44h-377q8 -74 51 -113.5t107 -39.5q36 0 73.5 17t60.5 46l68 -57q-34 -42 -88 -68t-119 -26q-73 0 -130 33.5t-89 94t-32 140.5zM297 447q-52 0 -93 -37t-52 -106h282
q-5 71 -42 107t-95 36zM143 765h79l74 -94l74 94h77l-112 -170h-79z" />
    <glyph glyph-name="uni00CB" unicode="&#xcb;" horiz-adv-x="635" 
d="M110 0v700h445v-91h-345v-210h307v-88h-307v-220h350v-91h-450zM168 830q0 24 16 40t41 16q26 0 42 -16t16 -40t-16 -40t-42 -16q-25 0 -41 16t-16 40zM387 830q0 24 16 40t42 16t41.5 -16t15.5 -40t-15.5 -40t-41.5 -16t-42 16t-16 40z" />
    <glyph glyph-name="uni00EB" unicode="&#xeb;" horiz-adv-x="580" 
d="M51 257q0 80 32 141.5t87.5 96.5t125.5 35q72 0 124.5 -32.5t80.5 -90t28 -133.5q0 -23 -3 -44h-377q8 -74 51 -113.5t107 -39.5q36 0 73.5 17t60.5 46l68 -57q-34 -42 -88 -68t-119 -26q-73 0 -130 33.5t-89 94t-32 140.5zM297 447q-52 0 -93 -37t-52 -106h282
q-5 71 -42 107t-95 36zM134 685q0 24 16 40t41 16q26 0 41.5 -16t15.5 -40t-15.5 -40t-41.5 -16q-25 0 -41 16t-16 40zM342 685q0 24 16 40t41 16q26 0 41.5 -16t15.5 -40t-15.5 -40t-41.5 -16q-25 0 -41 16t-16 40z" />
    <glyph glyph-name="uni0112" unicode="&#x112;" horiz-adv-x="635" 
d="M110 0v700h445v-91h-345v-210h307v-88h-307v-220h350v-91h-450zM174 795v73h322v-73h-322z" />
    <glyph glyph-name="uni0113" unicode="&#x113;" horiz-adv-x="580" 
d="M51 257q0 80 32 141.5t87.5 96.5t125.5 35q72 0 124.5 -32.5t80.5 -90t28 -133.5q0 -23 -3 -44h-377q8 -74 51 -113.5t107 -39.5q36 0 73.5 17t60.5 46l68 -57q-34 -42 -88 -68t-119 -26q-73 0 -130 33.5t-89 94t-32 140.5zM297 447q-52 0 -93 -37t-52 -106h282
q-5 71 -42 107t-95 36zM148 648v74h294v-74h-294z" />
    <glyph glyph-name="uni0114" unicode="&#x114;" horiz-adv-x="635" 
d="M110 0v700h445v-91h-345v-210h307v-88h-307v-220h350v-91h-450zM173 904h75q5 -31 27.5 -48t59.5 -17t59.5 17t27.5 48h75q-7 -69 -52 -107t-110 -38t-110 38t-52 107z" />
    <glyph glyph-name="uni0115" unicode="&#x115;" horiz-adv-x="580" 
d="M51 257q0 80 32 141.5t87.5 96.5t125.5 35q72 0 124.5 -32.5t80.5 -90t28 -133.5q0 -23 -3 -44h-377q8 -74 51 -113.5t107 -39.5q36 0 73.5 17t60.5 46l68 -57q-34 -42 -88 -68t-119 -26q-73 0 -130 33.5t-89 94t-32 140.5zM297 447q-52 0 -93 -37t-52 -106h282
q-5 71 -42 107t-95 36zM143 765h75q12 -89 77 -89t77 89h75q-8 -82 -49 -126t-103 -44t-103 44t-49 126z" />
    <glyph glyph-name="uni0116" unicode="&#x116;" horiz-adv-x="635" 
d="M110 0v700h445v-91h-345v-210h307v-88h-307v-220h350v-91h-450zM273 842q0 26 17.5 43.5t44.5 17.5t44.5 -17.5t17.5 -43.5t-17.5 -43.5t-44.5 -17.5t-44.5 17.5t-17.5 43.5z" />
    <glyph glyph-name="uni0117" unicode="&#x117;" horiz-adv-x="580" 
d="M51 257q0 80 32 141.5t87.5 96.5t125.5 35q72 0 124.5 -32.5t80.5 -90t28 -133.5q0 -23 -3 -44h-377q8 -74 51 -113.5t107 -39.5q36 0 73.5 17t60.5 46l68 -57q-34 -42 -88 -68t-119 -26q-73 0 -130 33.5t-89 94t-32 140.5zM297 447q-52 0 -93 -37t-52 -106h282
q-5 71 -42 107t-95 36zM233 680q0 26 17.5 43.5t44.5 17.5t44.5 -17.5t17.5 -43.5t-17.5 -43.5t-44.5 -17.5t-44.5 17.5t-17.5 43.5z" />
    <glyph glyph-name="uni1EB8" unicode="&#x1eb8;" horiz-adv-x="635" 
d="M110 0v700h445v-91h-345v-210h307v-88h-307v-220h350v-91h-450zM281 -138q0 26 17.5 43.5t44.5 17.5t44.5 -17.5t17.5 -43.5t-17.5 -43.5t-44.5 -17.5t-44.5 17.5t-17.5 43.5z" />
    <glyph glyph-name="uni1EB9" unicode="&#x1eb9;" horiz-adv-x="580" 
d="M51 257q0 80 32 141.5t87.5 96.5t125.5 35q72 0 124.5 -32.5t80.5 -90t28 -133.5q0 -23 -3 -44h-377q8 -74 51 -113.5t107 -39.5q36 0 73.5 17t60.5 46l68 -57q-34 -42 -88 -68t-119 -26q-73 0 -130 33.5t-89 94t-32 140.5zM297 447q-52 0 -93 -37t-52 -106h282
q-5 71 -42 107t-95 36zM239 -138q0 26 17.5 43.5t44.5 17.5t44.5 -17.5t17.5 -43.5t-17.5 -43.5t-44.5 -17.5t-44.5 17.5t-17.5 43.5z" />
    <glyph glyph-name="uni0118" unicode="&#x118;" horiz-adv-x="635" 
d="M110 0v700h445v-91h-345v-210h307v-88h-307v-220h350v-91q-64 -28 -95 -56.5t-31 -53.5q0 -14 10 -23.5t29 -9.5q22 0 50 17l23 -57q-19 -12 -43.5 -20.5t-46.5 -8.5q-45 0 -72.5 25t-27.5 62t24 68t68 57h-338z" />
    <glyph glyph-name="uni0119" unicode="&#x119;" horiz-adv-x="580" 
d="M447 32q-73 -46 -99 -79t-26 -57q0 -18 11.5 -28.5t27.5 -10.5q22 0 50 17l23 -57q-17 -12 -41 -20.5t-45 -8.5q-48 0 -76 27.5t-28 64.5q0 58 60 109h-2q-73 0 -130 33.5t-89 94t-32 140.5t32 141.5t87.5 96.5t125.5 35q72 0 124.5 -32.5t80.5 -90t28 -133.5
q0 -23 -3 -44h-377q8 -74 51 -113.5t107 -39.5q36 0 73.5 17t60.5 46l68 -57q-10 -13 -23.5 -24t-38.5 -27zM297 447q-52 0 -93 -37t-52 -106h282q-5 71 -42 107t-95 36z" />
    <glyph glyph-name="uni011C" unicode="&#x11c;" horiz-adv-x="764" 
d="M63 350q0 79 25.5 145t71 114.5t107.5 75t135 26.5q86 0 152.5 -35.5t106.5 -97.5l-83 -55q-28 47 -74 71t-102 24q-67 0 -120.5 -34t-84 -94.5t-30.5 -139.5q0 -80 30 -140.5t83.5 -94t123.5 -33.5q56 0 100 17t71 43v118h-145v91h245v-244q-43 -50 -114 -84t-157 -34
q-100 0 -177 46t-120.5 127.5t-43.5 187.5zM238 764l116 145h86l116 -145h-78l-81 75l-81 -75h-78z" />
    <glyph glyph-name="uni011D" unicode="&#x11d;" horiz-adv-x="623" 
d="M72 -93l49 72q26 -25 68 -39.5t86 -14.5q77 0 117 39t40 127v23q-28 -37 -69 -58t-91 -21q-63 0 -113 31.5t-79 87t-29 128.5t29 129t79 87.5t113 31.5q50 0 91 -20.5t69 -58.5v67h96v-428q0 -120 -64.5 -185.5t-189.5 -65.5q-54 0 -106 16t-96 52zM150 282
q0 -75 41 -118t99 -43q63 0 105.5 42.5t42.5 118.5q0 77 -42.5 119t-105.5 42q-58 0 -99 -43t-41 -118zM162 600l112 170h80l112 -170h-78l-74 94l-74 -94h-78z" />
    <glyph glyph-name="uni01E6" unicode="&#x1e6;" horiz-adv-x="764" 
d="M63 350q0 79 25.5 145t71 114.5t107.5 75t135 26.5q86 0 152.5 -35.5t106.5 -97.5l-83 -55q-28 47 -74 71t-102 24q-67 0 -120.5 -34t-84 -94.5t-30.5 -139.5q0 -80 30 -140.5t83.5 -94t123.5 -33.5q56 0 100 17t71 43v118h-145v91h245v-244q-43 -50 -114 -84t-157 -34
q-100 0 -177 46t-120.5 127.5t-43.5 187.5zM556 904l-116 -145h-86l-116 145h78l81 -75l81 75h78z" />
    <glyph glyph-name="uni01E7" unicode="&#x1e7;" horiz-adv-x="623" 
d="M72 -93l49 72q26 -25 68 -39.5t86 -14.5q77 0 117 39t40 127v23q-28 -37 -69 -58t-91 -21q-63 0 -113 31.5t-79 87t-29 128.5t29 129t79 87.5t113 31.5q50 0 91 -20.5t69 -58.5v67h96v-428q0 -120 -64.5 -185.5t-189.5 -65.5q-54 0 -106 16t-96 52zM150 282
q0 -75 41 -118t99 -43q63 0 105.5 42.5t42.5 118.5q0 77 -42.5 119t-105.5 42q-58 0 -99 -43t-41 -118zM162 765h79l74 -94l74 94h77l-112 -170h-79z" />
    <glyph glyph-name="uni011E" unicode="&#x11e;" horiz-adv-x="764" 
d="M63 350q0 79 25.5 145t71 114.5t107.5 75t135 26.5q86 0 152.5 -35.5t106.5 -97.5l-83 -55q-28 47 -74 71t-102 24q-67 0 -120.5 -34t-84 -94.5t-30.5 -139.5q0 -80 30 -140.5t83.5 -94t123.5 -33.5q56 0 100 17t71 43v118h-145v91h245v-244q-43 -50 -114 -84t-157 -34
q-100 0 -177 46t-120.5 127.5t-43.5 187.5zM235 904h75q5 -31 27.5 -48t59.5 -17t59.5 17t27.5 48h75q-7 -69 -52 -107t-110 -38t-110 38t-52 107z" />
    <glyph glyph-name="uni011F" unicode="&#x11f;" horiz-adv-x="623" 
d="M72 -93l49 72q26 -25 68 -39.5t86 -14.5q77 0 117 39t40 127v23q-28 -37 -69 -58t-91 -21q-63 0 -113 31.5t-79 87t-29 128.5t29 129t79 87.5t113 31.5q50 0 91 -20.5t69 -58.5v67h96v-428q0 -120 -64.5 -185.5t-189.5 -65.5q-54 0 -106 16t-96 52zM150 282
q0 -75 41 -118t99 -43q63 0 105.5 42.5t42.5 118.5q0 77 -42.5 119t-105.5 42q-58 0 -99 -43t-41 -118zM162 765h75q12 -89 77 -89t77 89h75q-8 -82 -49 -126t-103 -44t-103 44t-49 126z" />
    <glyph glyph-name="uni0120" unicode="&#x120;" horiz-adv-x="764" 
d="M63 350q0 79 25.5 145t71 114.5t107.5 75t135 26.5q86 0 152.5 -35.5t106.5 -97.5l-83 -55q-28 47 -74 71t-102 24q-67 0 -120.5 -34t-84 -94.5t-30.5 -139.5q0 -80 30 -140.5t83.5 -94t123.5 -33.5q56 0 100 17t71 43v118h-145v91h245v-244q-43 -50 -114 -84t-157 -34
q-100 0 -177 46t-120.5 127.5t-43.5 187.5zM335 842q0 26 17.5 43.5t44.5 17.5t44.5 -17.5t17.5 -43.5t-17.5 -43.5t-44.5 -17.5t-44.5 17.5t-17.5 43.5z" />
    <glyph glyph-name="uni0121" unicode="&#x121;" horiz-adv-x="623" 
d="M72 -93l49 72q26 -25 68 -39.5t86 -14.5q77 0 117 39t40 127v23q-28 -37 -69 -58t-91 -21q-63 0 -113 31.5t-79 87t-29 128.5t29 129t79 87.5t113 31.5q50 0 91 -20.5t69 -58.5v67h96v-428q0 -120 -64.5 -185.5t-189.5 -65.5q-54 0 -106 16t-96 52zM150 282
q0 -75 41 -118t99 -43q63 0 105.5 42.5t42.5 118.5q0 77 -42.5 119t-105.5 42q-58 0 -99 -43t-41 -118zM268 680q0 26 17.5 43.5t44.5 17.5t44.5 -17.5t17.5 -43.5t-17.5 -43.5t-44.5 -17.5t-44.5 17.5t-17.5 43.5z" />
    <glyph glyph-name="uni0122" unicode="&#x122;" horiz-adv-x="764" 
d="M63 350q0 79 25.5 145t71 114.5t107.5 75t135 26.5q86 0 152.5 -35.5t106.5 -97.5l-83 -55q-28 47 -74 71t-102 24q-67 0 -120.5 -34t-84 -94.5t-30.5 -139.5q0 -80 30 -140.5t83.5 -94t123.5 -33.5q56 0 100 17t71 43v118h-145v91h245v-244q-43 -50 -114 -84t-157 -34
q-100 0 -177 46t-120.5 127.5t-43.5 187.5zM333 -138q0 26 17.5 43.5t44.5 17.5q28 0 46 -18t18 -50q0 -33 -15.5 -75t-35.5 -73h-62q12 23 20 49t12 47q-20 5 -32.5 21t-12.5 38z" />
    <glyph glyph-name="uni0123" unicode="&#x123;" horiz-adv-x="623" 
d="M72 -93l49 72q26 -25 68 -39.5t86 -14.5q77 0 117 39t40 127v23q-28 -37 -69 -58t-91 -21q-63 0 -113 31.5t-79 87t-29 128.5t29 129t79 87.5t113 31.5q50 0 91 -20.5t69 -58.5v67h96v-428q0 -120 -64.5 -185.5t-189.5 -65.5q-54 0 -106 16t-96 52zM150 282
q0 -75 41 -118t99 -43q63 0 105.5 42.5t42.5 118.5q0 77 -42.5 119t-105.5 42q-58 0 -99 -43t-41 -118zM376 680q0 -25 -17.5 -43t-44.5 -18q-28 0 -46 18.5t-18 49.5q0 33 15.5 75t35.5 73h62q-12 -23 -20.5 -49t-11.5 -47q20 -4 32.5 -20t12.5 -39z" />
    <glyph glyph-name="uni0124" unicode="&#x124;" horiz-adv-x="747" 
d="M110 0v700h100v-300h327v300h100v-700h-100v310h-327v-310h-100zM215 764l116 145h86l116 -145h-78l-81 75l-81 -75h-78z" />
    <glyph glyph-name="uni0125" unicode="&#x125;" horiz-adv-x="622" 
d="M96 0v730h96v-294q19 40 62 67t97 27q51 0 93 -25.5t67.5 -73.5t25.5 -117v-314h-96v301q0 74 -34.5 107.5t-81.5 33.5q-35 0 -65.5 -20t-49 -56.5t-18.5 -86.5v-279h-96zM-9 812l112 170h80l112 -170h-78l-74 94l-74 -94h-78z" />
    <glyph glyph-name="uni0126" unicode="&#x126;" horiz-adv-x="747" 
d="M110 0v486h-85v85h85v129h100v-129h327v129h100v-129h85v-85h-85v-486h-100v273h-327v-273h-100zM210 363h327v123h-327v-123z" />
    <glyph glyph-name="uni0127" unicode="&#x127;" horiz-adv-x="622" 
d="M96 0v578h-82v83h82v69h96v-69h135v-83h-135v-155q19 40 62 67t97 27q51 0 93 -25.5t67.5 -73.5t25.5 -116v-302h-96v289q0 74 -34.5 107t-81.5 33q-35 0 -65.5 -20t-49 -56.5t-18.5 -86.5v-266h-96z" />
    <glyph glyph-name="uni0131" unicode="&#x131;" horiz-adv-x="288" 
d="M96 0v518h96v-518h-96z" />
    <glyph glyph-name="uni00CC" unicode="&#xcc;" horiz-adv-x="319" 
d="M110 0v700h100v-700h-100zM-10 909h116l100 -145h-80z" />
    <glyph glyph-name="uni00EC" unicode="&#xec;" horiz-adv-x="288" 
d="M3 769h104l79 -170h-75zM96 0v518h96v-518h-96z" />
    <glyph glyph-name="uni00CD" unicode="&#xcd;" horiz-adv-x="319" 
d="M110 0v700h100v-700h-100zM114 764l100 145h116l-136 -145h-80z" />
    <glyph glyph-name="uni00ED" unicode="&#xed;" horiz-adv-x="288" 
d="M96 0v518h96v-518h-96zM100 599l79 170h104l-108 -170h-75z" />
    <glyph glyph-name="uni00CE" unicode="&#xce;" horiz-adv-x="320" 
d="M1 764l116 145h86l116 -145h-78l-81 75l-81 -75h-78zM110 0v700h100v-700h-100z" />
    <glyph glyph-name="uni00EE" unicode="&#xee;" horiz-adv-x="288" 
d="M-9 599l112 170h80l112 -170h-78l-74 94l-74 -94h-78zM96 0v518h96v-518h-96z" />
    <glyph glyph-name="uni0128" unicode="&#x128;" horiz-adv-x="320" 
d="M110 0v700h100v-700h-100zM-16 765q5 60 28.5 99.5t72.5 39.5q27 0 48.5 -10.5t39 -25t32.5 -25t30 -10.5q17 0 27 15t14 51h60q-4 -60 -28 -99.5t-73 -39.5q-27 0 -48.5 11t-39 25t-33 25t-29.5 11q-17 0 -26.5 -15.5t-14.5 -51.5h-60z" />
    <glyph glyph-name="uni0129" unicode="&#x129;" horiz-adv-x="288" 
d="M96 0v518h96v-518h-96zM-23 600q4 63 27 104.5t71 41.5q27 0 46.5 -12t34.5 -27t28.5 -27t26.5 -12q15 0 24.5 16.5t13.5 56.5h60q-4 -63 -27.5 -104.5t-70.5 -41.5q-27 0 -46.5 12t-35 27t-28.5 27t-26 12q-15 0 -24.5 -16.5t-13.5 -56.5h-60z" />
    <glyph glyph-name="uni00CF" unicode="&#xcf;" horiz-adv-x="319" 
d="M-7 830q0 24 16 40t41 16q26 0 42 -16t16 -40t-16 -40t-42 -16q-25 0 -41 16t-16 40zM212 830q0 24 16 40t42 16t41.5 -16t15.5 -40t-15.5 -40t-41.5 -16t-42 16t-16 40zM110 0v700h100v-700h-100z" />
    <glyph glyph-name="uni00EF" unicode="&#xef;" horiz-adv-x="288" 
d="M-18 684q0 24 16 40t41 16q26 0 41.5 -16t15.5 -40t-15.5 -40t-41.5 -16q-25 0 -41 16t-16 40zM190 684q0 24 16 40t41 16q26 0 41.5 -16t15.5 -40t-15.5 -40t-41.5 -16q-25 0 -41 16t-16 40zM96 0v518h96v-518h-96z" />
    <glyph glyph-name="uni012A" unicode="&#x12a;" horiz-adv-x="319" 
d="M110 0v700h100v-700h-100zM-1 795v73h322v-73h-322z" />
    <glyph glyph-name="uni012B" unicode="&#x12b;" horiz-adv-x="288" 
d="M96 0v518h96v-518h-96zM-4 648v74h294v-74h-294z" />
    <glyph glyph-name="uni012C" unicode="&#x12c;" horiz-adv-x="319" 
d="M110 0v700h100v-700h-100zM-2 904h75q5 -31 27.5 -48t59.5 -17t59.5 17t27.5 48h75q-7 -69 -52 -107t-110 -38t-110 38t-52 107z" />
    <glyph glyph-name="uni012D" unicode="&#x12d;" horiz-adv-x="288" 
d="M96 0v518h96v-518h-96zM-9 765h75q12 -89 77 -89t77 89h75q-8 -82 -49 -126t-103 -44t-103 44t-49 126z" />
    <glyph glyph-name="uni0130" unicode="&#x130;" horiz-adv-x="319" 
d="M110 0v700h100v-700h-100zM98 842q0 26 17.5 43.5t44.5 17.5t44.5 -17.5t17.5 -43.5t-17.5 -43.5t-44.5 -17.5t-44.5 17.5t-17.5 43.5z" />
    <glyph glyph-name="uni0069.TRK" horiz-adv-x="288" 
d="M78 679q0 26 19 44.5t47 18.5q29 0 47.5 -18.5t18.5 -44.5q0 -27 -18.5 -45t-47.5 -18q-28 0 -47 18t-19 45zM96 0v518h96v-518h-96z" />
    <glyph glyph-name="uni1ECA" unicode="&#x1eca;" horiz-adv-x="320" 
d="M110 0v700h100v-700h-100zM98 -138q0 26 17.5 43.5t44.5 17.5t44.5 -17.5t17.5 -43.5t-17.5 -43.5t-44.5 -17.5t-44.5 17.5t-17.5 43.5z" />
    <glyph glyph-name="uni1ECB" unicode="&#x1ecb;" horiz-adv-x="288" 
d="M78 679q0 26 19 44.5t47 18.5q29 0 47.5 -18.5t18.5 -44.5q0 -27 -18.5 -45t-47.5 -18q-28 0 -47 18t-19 45zM96 0v518h96v-518h-96zM82 -139q0 26 17.5 43.5t44.5 17.5t44.5 -17.5t17.5 -43.5t-17.5 -43.5t-44.5 -17.5t-44.5 17.5t-17.5 43.5z" />
    <glyph glyph-name="uni012E" unicode="&#x12e;" horiz-adv-x="319" 
d="M196 -183q-19 -12 -43.5 -20.5t-46.5 -8.5q-45 0 -72.5 25t-27.5 62q0 39 27 72t77 59v694h100v-700q-64 -28 -95 -56.5t-31 -53.5q0 -14 10 -23.5t29 -9.5q22 0 50 17z" />
    <glyph glyph-name="uni012F" unicode="&#x12f;" horiz-adv-x="288" 
d="M78 679q0 26 19 44.5t47 18.5q29 0 47.5 -18.5t18.5 -44.5q0 -27 -18.5 -45t-47.5 -18q-28 0 -47 18t-19 45zM178 -184q-19 -12 -43.5 -20.5t-46.5 -8.5q-45 0 -72.5 25t-27.5 62q0 40 28 73t80 61v510h96v-518h-4l4 -1q-64 -28 -95 -56.5t-31 -53.5q0 -14 10 -23.5
t29 -9.5q22 0 50 17z" />
    <glyph glyph-name="uni0237" unicode="&#x237;" horiz-adv-x="288" 
d="M-35 -152l6 86q24 -6 47 -6q35 0 56.5 23.5t21.5 74.5v492h96v-499q0 -88 -45 -134t-116 -46q-36 0 -66 9z" />
    <glyph glyph-name="uni0134" unicode="&#x134;" horiz-adv-x="539" 
d="M23 107l79 54q16 -36 45.5 -57.5t70.5 -21.5q57 0 89.5 39.5t32.5 115.5v463h100v-474q0 -109 -60 -173t-164 -64q-64 0 -113.5 31.5t-79.5 86.5zM231 764l116 145h86l116 -145h-78l-81 75l-81 -75h-78z" />
    <glyph glyph-name="uni0135" unicode="&#x135;" horiz-adv-x="287" 
d="M-35 -152l6 86q24 -6 47 -6q35 0 56.5 23.5t21.5 74.5v492h96v-499q0 -88 -45 -134t-116 -46q-36 0 -66 9zM-9 600l112 170h80l112 -170h-78l-74 94l-74 -94h-78z" />
    <glyph glyph-name="uni0136" unicode="&#x136;" horiz-adv-x="645" 
d="M110 0v700h100v-330l278 330h123l-300 -341l314 -359h-130l-285 334v-334h-100zM291 -138q0 26 17.5 43.5t44.5 17.5q28 0 46 -18t18 -50q0 -33 -15.5 -75t-35.5 -73h-62q12 23 20 49t12 47q-20 5 -32.5 21t-12.5 38z" />
    <glyph glyph-name="uni0137" unicode="&#x137;" horiz-adv-x="540" 
d="M96 0v730h96v-450l204 238h116l-222 -246l238 -272h-123l-213 247v-247h-96zM235 -138q0 26 17.5 43.5t44.5 17.5q28 0 46 -18t18 -50q0 -33 -15.5 -75t-35.5 -73h-62q12 23 20 49t12 47q-20 5 -32.5 21t-12.5 38z" />
    <glyph glyph-name="uni0138" unicode="&#x138;" horiz-adv-x="540" 
d="M96 0v518h96v-238l204 238h116l-222 -246l238 -272h-123l-213 247v-247h-96z" />
    <glyph glyph-name="uni0139" unicode="&#x139;" horiz-adv-x="557" 
d="M110 0v700h100v-609h312v-91h-412zM114 764l100 145h116l-136 -145h-80z" />
    <glyph glyph-name="uni013A" unicode="&#x13a;" horiz-adv-x="288" 
d="M96 0v730h96v-730h-96zM100 812l79 170h104l-108 -170h-75z" />
    <glyph glyph-name="uni013D" unicode="&#x13d;" horiz-adv-x="557" 
d="M110 0v700h100v-609h312v-91h-412zM428 730h93l-42 -264h-72z" />
    <glyph glyph-name="uni013E" unicode="&#x13e;" horiz-adv-x="352" 
d="M96 0v730h96v-730h-96zM289 730h93l-42 -264h-72z" />
    <glyph glyph-name="uni013B" unicode="&#x13b;" horiz-adv-x="557" 
d="M110 0v700h100v-609h312v-91h-412zM256 -138q0 26 17.5 43.5t44.5 17.5q28 0 46 -18t18 -50q0 -33 -15.5 -75t-35.5 -73h-62q12 23 20 49t12 47q-20 5 -32.5 21t-12.5 38z" />
    <glyph glyph-name="uni013C" unicode="&#x13c;" horiz-adv-x="288" 
d="M96 0v730h96v-730h-96zM81 -138q0 26 17.5 43.5t44.5 17.5q28 0 46 -18t18 -50q0 -33 -15.5 -75t-35.5 -73h-62q12 23 20 49t12 47q-20 5 -32.5 21t-12.5 38z" />
    <glyph glyph-name="uni0141" unicode="&#x141;" horiz-adv-x="557" 
d="M110 0v224l-85 -50v88l85 50v388h100v-328l162 96v-88l-162 -96v-193h312v-91h-412z" />
    <glyph glyph-name="uni0142" unicode="&#x142;" horiz-adv-x="297" 
d="M96 0v259l-71 -42v87l71 42v384h96v-327l90 53v-86l-90 -54v-316h-96z" />
    <glyph glyph-name="uni013F" unicode="&#x13f;" horiz-adv-x="557" 
d="M110 0v700h100v-609h312v-91h-412zM366 338q0 29 20 48.5t51 19.5t51 -19.5t20 -48.5t-20 -49t-51 -20t-51 20t-20 49z" />
    <glyph glyph-name="uni0140" unicode="&#x140;" horiz-adv-x="361" 
d="M96 0v730h96v-730h-96zM253 313q0 29 20 48.5t51 19.5t51 -19.5t20 -48.5t-20 -49t-51 -20t-51 20t-20 49z" />
    <glyph glyph-name="uni0143" unicode="&#x143;" horiz-adv-x="765" 
d="M110 0v705h46l402 -492v487h97v-705h-46l-402 492v-487h-97zM337 764l100 145h116l-136 -145h-80z" />
    <glyph glyph-name="uni0144" unicode="&#x144;" horiz-adv-x="622" 
d="M96 0v518h96v-82q19 40 62 67t97 27q51 0 93 -25.5t67.5 -73.5t25.5 -117v-314h-96v301q0 74 -34.5 107.5t-81.5 33.5q-35 0 -65.5 -20t-49 -56.5t-18.5 -86.5v-279h-96zM276 600l79 170h104l-108 -170h-75z" />
    <glyph glyph-name="uni00D1" unicode="&#xd1;" horiz-adv-x="765" 
d="M110 0v705h46l402 -492v487h97v-705h-46l-402 492v-487h-97zM207 765q5 60 28.5 99.5t72.5 39.5q27 0 48.5 -10.5t39 -25t32.5 -25t30 -10.5q17 0 27 15t14 51h60q-4 -60 -28 -99.5t-73 -39.5q-27 0 -48.5 11t-39 25t-33 25t-29.5 11q-17 0 -26.5 -15.5t-14.5 -51.5h-60z
" />
    <glyph glyph-name="uni00F1" unicode="&#xf1;" horiz-adv-x="622" 
d="M96 0v518h96v-82q19 40 62 67t97 27q51 0 93 -25.5t67.5 -73.5t25.5 -117v-314h-96v301q0 74 -34.5 107.5t-81.5 33.5q-35 0 -65.5 -20t-49 -56.5t-18.5 -86.5v-279h-96zM153 600q4 63 27 104.5t71 41.5q27 0 46.5 -12t34.5 -27t28.5 -27t26.5 -12q15 0 24.5 16.5
t13.5 56.5h60q-4 -63 -27.5 -104.5t-70.5 -41.5q-27 0 -46.5 12t-35 27t-28.5 27t-26 12q-15 0 -24.5 -16.5t-13.5 -56.5h-60z" />
    <glyph glyph-name="uni0147" unicode="&#x147;" horiz-adv-x="765" 
d="M110 0v705h46l402 -492v487h97v-705h-46l-402 492v-487h-97zM542 904l-116 -145h-86l-116 145h78l81 -75l81 75h78z" />
    <glyph glyph-name="uni0148" unicode="&#x148;" horiz-adv-x="622" 
d="M96 0v518h96v-82q19 40 62 67t97 27q51 0 93 -25.5t67.5 -73.5t25.5 -117v-314h-96v301q0 74 -34.5 107.5t-81.5 33.5q-35 0 -65.5 -20t-49 -56.5t-18.5 -86.5v-279h-96zM167 765h79l74 -94l74 94h77l-112 -170h-79z" />
    <glyph glyph-name="uni0145" unicode="&#x145;" horiz-adv-x="765" 
d="M110 0v705h46l402 -492v487h97v-705h-46l-402 492v-487h-97zM332 -138q0 26 17.5 43.5t44.5 17.5q28 0 46 -18t18 -50q0 -33 -15.5 -75t-35.5 -73h-62q12 23 20 49t12 47q-20 5 -32.5 21t-12.5 38z" />
    <glyph glyph-name="uni0146" unicode="&#x146;" horiz-adv-x="622" 
d="M96 0v518h96v-82q19 40 62 67t97 27q51 0 93 -25.5t67.5 -73.5t25.5 -117v-314h-96v301q0 74 -34.5 107.5t-81.5 33.5q-35 0 -65.5 -20t-49 -56.5t-18.5 -86.5v-279h-96zM257 -138q0 26 17.5 43.5t44.5 17.5q28 0 46 -18t18 -50q0 -33 -15.5 -75t-35.5 -73h-62
q12 23 20 49t12 47q-20 5 -32.5 21t-12.5 38z" />
    <glyph glyph-name="uni019D" unicode="&#x19d;" horiz-adv-x="765" 
d="M-21 -152l6 86q24 -6 47 -6q35 0 56.5 23.5t21.5 74.5v679h46l402 -492v487h97v-705h-46l-402 492v-468q0 -88 -45.5 -134t-116.5 -46q-36 0 -66 9z" />
    <glyph glyph-name="uni0272" unicode="&#x272;" horiz-adv-x="622" 
d="M-35 -152l6 86q24 -6 47 -6q35 0 56.5 23.5t21.5 74.5v492h96v-82q19 40 62 67t97 27q51 0 93 -25.5t67.5 -73.5t25.5 -117v-314h-96v301q0 74 -34.5 107.5t-81.5 33.5q-35 0 -65.5 -20t-49 -56.5t-18.5 -86.5v-260q0 -88 -45 -134t-116 -46q-36 0 -66 9z" />
    <glyph glyph-name="uni014A" unicode="&#x14a;" horiz-adv-x="765" 
d="M427 -152l6 86q24 -6 47 -6q35 0 56.5 23.5t21.5 74.5v31l-351 430v-487h-97v705h46l402 -492v487h97v-681q0 -88 -45.5 -134t-116.5 -46q-36 0 -66 9z" />
    <glyph glyph-name="uni014B" unicode="&#x14b;" horiz-adv-x="622" 
d="M310 -152l6 86q24 -6 47 -6q35 0 56.5 23.5t21.5 74.5v275q0 74 -34.5 107.5t-81.5 33.5q-35 0 -65.5 -20t-49 -56.5t-18.5 -86.5v-279h-96v518h96v-82q19 40 62 67t97 27q51 0 93 -25.5t67.5 -73.5t25.5 -117v-295q0 -88 -45 -134t-116 -46q-36 0 -66 9z" />
    <glyph glyph-name="uni0149" unicode="&#x149;" horiz-adv-x="868" 
d="M62 673q0 29 20 48.5t50 19.5q32 0 52 -21t20 -58q0 -49 -20 -97.5t-51 -98.5h-66q20 39 32 74t18 66q-25 5 -40 23.5t-15 43.5zM342 0v518h96v-82q19 40 62 67t97 27q51 0 93 -25.5t67.5 -73.5t25.5 -117v-314h-96v301q0 74 -34.5 107.5t-81.5 33.5q-35 0 -65.5 -20
t-49 -56.5t-18.5 -86.5v-279h-96z" />
    <glyph glyph-name="uni00D2" unicode="&#xd2;" horiz-adv-x="770" 
d="M63 350q0 106 42 187.5t114.5 127.5t165.5 46t166 -46t114.5 -127.5t41.5 -187.5t-41.5 -187.5t-114.5 -127.5t-166 -46t-165.5 46t-114.5 127.5t-42 187.5zM167 350q0 -79 28 -139.5t77.5 -94.5t112.5 -34q64 0 113 34t77.5 94.5t28.5 139.5t-28.5 139.5t-77.5 94.5
t-113 34q-63 0 -112.5 -34t-77.5 -94.5t-28 -139.5zM215 909h116l100 -145h-80z" />
    <glyph glyph-name="uni00F2" unicode="&#xf2;" horiz-adv-x="601" 
d="M51 259q0 80 33 141t89.5 95.5t126.5 34.5q71 0 127.5 -34.5t89.5 -95.5t33 -141q0 -79 -33 -140t-89.5 -95.5t-127.5 -34.5q-70 0 -126.5 34.5t-89.5 95.5t-33 140zM150 259q0 -87 44 -134.5t106 -47.5q42 0 76 21.5t54.5 62t20.5 98.5t-20.5 99t-54.5 62.5t-76 21.5
q-41 0 -75.5 -21.5t-54.5 -62.5t-20 -99zM160 770h104l79 -170h-75z" />
    <glyph glyph-name="uni00D3" unicode="&#xd3;" horiz-adv-x="770" 
d="M63 350q0 106 42 187.5t114.5 127.5t165.5 46t166 -46t114.5 -127.5t41.5 -187.5t-41.5 -187.5t-114.5 -127.5t-166 -46t-165.5 46t-114.5 127.5t-42 187.5zM167 350q0 -79 28 -139.5t77.5 -94.5t112.5 -34q64 0 113 34t77.5 94.5t28.5 139.5t-28.5 139.5t-77.5 94.5
t-113 34q-63 0 -112.5 -34t-77.5 -94.5t-28 -139.5zM339 764l100 145h116l-136 -145h-80z" />
    <glyph glyph-name="uni00F3" unicode="&#xf3;" horiz-adv-x="601" 
d="M51 259q0 80 33 141t89.5 95.5t126.5 34.5q71 0 127.5 -34.5t89.5 -95.5t33 -141q0 -79 -33 -140t-89.5 -95.5t-127.5 -34.5q-70 0 -126.5 34.5t-89.5 95.5t-33 140zM150 259q0 -87 44 -134.5t106 -47.5q42 0 76 21.5t54.5 62t20.5 98.5t-20.5 99t-54.5 62.5t-76 21.5
q-41 0 -75.5 -21.5t-54.5 -62.5t-20 -99zM257 600l79 170h104l-108 -170h-75z" />
    <glyph glyph-name="uni00D4" unicode="&#xd4;" horiz-adv-x="770" 
d="M63 350q0 106 42 187.5t114.5 127.5t165.5 46t166 -46t114.5 -127.5t41.5 -187.5t-41.5 -187.5t-114.5 -127.5t-166 -46t-165.5 46t-114.5 127.5t-42 187.5zM167 350q0 -79 28 -139.5t77.5 -94.5t112.5 -34q64 0 113 34t77.5 94.5t28.5 139.5t-28.5 139.5t-77.5 94.5
t-113 34q-63 0 -112.5 -34t-77.5 -94.5t-28 -139.5zM226 764l116 145h86l116 -145h-78l-81 75l-81 -75h-78z" />
    <glyph glyph-name="uni00F4" unicode="&#xf4;" horiz-adv-x="601" 
d="M51 259q0 80 33 141t89.5 95.5t126.5 34.5q71 0 127.5 -34.5t89.5 -95.5t33 -141q0 -79 -33 -140t-89.5 -95.5t-127.5 -34.5q-70 0 -126.5 34.5t-89.5 95.5t-33 140zM150 259q0 -87 44 -134.5t106 -47.5q42 0 76 21.5t54.5 62t20.5 98.5t-20.5 99t-54.5 62.5t-76 21.5
q-41 0 -75.5 -21.5t-54.5 -62.5t-20 -99zM148 600l112 170h80l112 -170h-78l-74 94l-74 -94h-78z" />
    <glyph glyph-name="uni00D5" unicode="&#xd5;" horiz-adv-x="770" 
d="M63 350q0 106 42 187.5t114.5 127.5t165.5 46t166 -46t114.5 -127.5t41.5 -187.5t-41.5 -187.5t-114.5 -127.5t-166 -46t-165.5 46t-114.5 127.5t-42 187.5zM167 350q0 -79 28 -139.5t77.5 -94.5t112.5 -34q64 0 113 34t77.5 94.5t28.5 139.5t-28.5 139.5t-77.5 94.5
t-113 34q-63 0 -112.5 -34t-77.5 -94.5t-28 -139.5zM209 765q5 60 28.5 99.5t72.5 39.5q27 0 48.5 -10.5t39 -25t32.5 -25t30 -10.5q17 0 27 15t14 51h60q-4 -60 -28 -99.5t-73 -39.5q-27 0 -48.5 11t-39 25t-33 25t-29.5 11q-17 0 -26.5 -15.5t-14.5 -51.5h-60z" />
    <glyph glyph-name="uni00F5" unicode="&#xf5;" horiz-adv-x="601" 
d="M51 259q0 80 33 141t89.5 95.5t126.5 34.5q71 0 127.5 -34.5t89.5 -95.5t33 -141q0 -79 -33 -140t-89.5 -95.5t-127.5 -34.5q-70 0 -126.5 34.5t-89.5 95.5t-33 140zM150 259q0 -87 44 -134.5t106 -47.5q42 0 76 21.5t54.5 62t20.5 98.5t-20.5 99t-54.5 62.5t-76 21.5
q-41 0 -75.5 -21.5t-54.5 -62.5t-20 -99zM134 600q4 63 27 104.5t71 41.5q27 0 46.5 -12t34.5 -27t28.5 -27t26.5 -12q15 0 24.5 16.5t13.5 56.5h60q-4 -63 -27.5 -104.5t-70.5 -41.5q-27 0 -46.5 12t-35 27t-28.5 27t-26 12q-15 0 -24.5 -16.5t-13.5 -56.5h-60z" />
    <glyph glyph-name="uni00D6" unicode="&#xd6;" horiz-adv-x="770" 
d="M63 350q0 106 42 187.5t114.5 127.5t165.5 46t166 -46t114.5 -127.5t41.5 -187.5t-41.5 -187.5t-114.5 -127.5t-166 -46t-165.5 46t-114.5 127.5t-42 187.5zM167 350q0 -79 28 -139.5t77.5 -94.5t112.5 -34q64 0 113 34t77.5 94.5t28.5 139.5t-28.5 139.5t-77.5 94.5
t-113 34q-63 0 -112.5 -34t-77.5 -94.5t-28 -139.5zM218 830q0 24 16 40t41 16q26 0 42 -16t16 -40t-16 -40t-42 -16q-25 0 -41 16t-16 40zM437 830q0 24 16 40t42 16t41.5 -16t15.5 -40t-15.5 -40t-41.5 -16t-42 16t-16 40z" />
    <glyph glyph-name="uni00F6" unicode="&#xf6;" horiz-adv-x="601" 
d="M51 259q0 80 33 141t89.5 95.5t126.5 34.5q71 0 127.5 -34.5t89.5 -95.5t33 -141q0 -79 -33 -140t-89.5 -95.5t-127.5 -34.5q-70 0 -126.5 34.5t-89.5 95.5t-33 140zM150 259q0 -87 44 -134.5t106 -47.5q42 0 76 21.5t54.5 62t20.5 98.5t-20.5 99t-54.5 62.5t-76 21.5
q-41 0 -75.5 -21.5t-54.5 -62.5t-20 -99zM139 685q0 24 16 40t41 16q26 0 41.5 -16t15.5 -40t-15.5 -40t-41.5 -16q-25 0 -41 16t-16 40zM347 685q0 24 16 40t41 16q26 0 41.5 -16t15.5 -40t-15.5 -40t-41.5 -16q-25 0 -41 16t-16 40z" />
    <glyph glyph-name="uni014C" unicode="&#x14c;" horiz-adv-x="770" 
d="M63 350q0 106 42 187.5t114.5 127.5t165.5 46t166 -46t114.5 -127.5t41.5 -187.5t-41.5 -187.5t-114.5 -127.5t-166 -46t-165.5 46t-114.5 127.5t-42 187.5zM167 350q0 -79 28 -139.5t77.5 -94.5t112.5 -34q64 0 113 34t77.5 94.5t28.5 139.5t-28.5 139.5t-77.5 94.5
t-113 34q-63 0 -112.5 -34t-77.5 -94.5t-28 -139.5zM224 795v73h322v-73h-322z" />
    <glyph glyph-name="uni014D" unicode="&#x14d;" horiz-adv-x="601" 
d="M51 259q0 80 33 141t89.5 95.5t126.5 34.5q71 0 127.5 -34.5t89.5 -95.5t33 -141q0 -79 -33 -140t-89.5 -95.5t-127.5 -34.5q-70 0 -126.5 34.5t-89.5 95.5t-33 140zM150 259q0 -87 44 -134.5t106 -47.5q42 0 76 21.5t54.5 62t20.5 98.5t-20.5 99t-54.5 62.5t-76 21.5
q-41 0 -75.5 -21.5t-54.5 -62.5t-20 -99zM153 648v74h294v-74h-294z" />
    <glyph glyph-name="uni014E" unicode="&#x14e;" horiz-adv-x="770" 
d="M63 350q0 106 42 187.5t114.5 127.5t165.5 46t166 -46t114.5 -127.5t41.5 -187.5t-41.5 -187.5t-114.5 -127.5t-166 -46t-165.5 46t-114.5 127.5t-42 187.5zM167 350q0 -79 28 -139.5t77.5 -94.5t112.5 -34q64 0 113 34t77.5 94.5t28.5 139.5t-28.5 139.5t-77.5 94.5
t-113 34q-63 0 -112.5 -34t-77.5 -94.5t-28 -139.5zM223 904h75q5 -31 27.5 -48t59.5 -17t59.5 17t27.5 48h75q-7 -69 -52 -107t-110 -38t-110 38t-52 107z" />
    <glyph glyph-name="uni014F" unicode="&#x14f;" horiz-adv-x="601" 
d="M51 259q0 80 33 141t89.5 95.5t126.5 34.5q71 0 127.5 -34.5t89.5 -95.5t33 -141q0 -79 -33 -140t-89.5 -95.5t-127.5 -34.5q-70 0 -126.5 34.5t-89.5 95.5t-33 140zM150 259q0 -87 44 -134.5t106 -47.5q42 0 76 21.5t54.5 62t20.5 98.5t-20.5 99t-54.5 62.5t-76 21.5
q-41 0 -75.5 -21.5t-54.5 -62.5t-20 -99zM148 765h75q12 -89 77 -89t77 89h75q-8 -82 -49 -126t-103 -44t-103 44t-49 126z" />
    <glyph glyph-name="uni0150" unicode="&#x150;" horiz-adv-x="770" 
d="M63 350q0 106 42 187.5t114.5 127.5t165.5 46t166 -46t114.5 -127.5t41.5 -187.5t-41.5 -187.5t-114.5 -127.5t-166 -46t-165.5 46t-114.5 127.5t-42 187.5zM167 350q0 -79 28 -139.5t77.5 -94.5t112.5 -34q64 0 113 34t77.5 94.5t28.5 139.5t-28.5 139.5t-77.5 94.5
t-113 34q-63 0 -112.5 -34t-77.5 -94.5t-28 -139.5zM285 764l72 145h98l-100 -145h-70zM425 764l72 145h97l-100 -145h-69z" />
    <glyph glyph-name="uni0151" unicode="&#x151;" horiz-adv-x="601" 
d="M51 259q0 80 33 141t89.5 95.5t126.5 34.5q71 0 127.5 -34.5t89.5 -95.5t33 -141q0 -79 -33 -140t-89.5 -95.5t-127.5 -34.5q-70 0 -126.5 34.5t-89.5 95.5t-33 140zM150 259q0 -87 44 -134.5t106 -47.5q42 0 76 21.5t54.5 62t20.5 98.5t-20.5 99t-54.5 62.5t-76 21.5
q-41 0 -75.5 -21.5t-54.5 -62.5t-20 -99zM191 600l65 170h97l-95 -170h-67zM329 600l65 170h97l-94 -170h-68z" />
    <glyph glyph-name="uni1ECC" unicode="&#x1ecc;" horiz-adv-x="770" 
d="M63 350q0 106 42 187.5t114.5 127.5t165.5 46t166 -46t114.5 -127.5t41.5 -187.5t-41.5 -187.5t-114.5 -127.5t-166 -46t-165.5 46t-114.5 127.5t-42 187.5zM167 350q0 -79 28 -139.5t77.5 -94.5t112.5 -34q64 0 113 34t77.5 94.5t28.5 139.5t-28.5 139.5t-77.5 94.5
t-113 34q-63 0 -112.5 -34t-77.5 -94.5t-28 -139.5zM323 -138q0 26 17.5 43.5t44.5 17.5t44.5 -17.5t17.5 -43.5t-17.5 -43.5t-44.5 -17.5t-44.5 17.5t-17.5 43.5z" />
    <glyph glyph-name="uni1ECD" unicode="&#x1ecd;" horiz-adv-x="601" 
d="M51 259q0 80 33 141t89.5 95.5t126.5 34.5q71 0 127.5 -34.5t89.5 -95.5t33 -141q0 -79 -33 -140t-89.5 -95.5t-127.5 -34.5q-70 0 -126.5 34.5t-89.5 95.5t-33 140zM150 259q0 -87 44 -134.5t106 -47.5q42 0 76 21.5t54.5 62t20.5 98.5t-20.5 99t-54.5 62.5t-76 21.5
q-41 0 -75.5 -21.5t-54.5 -62.5t-20 -99zM238 -138q0 26 17.5 43.5t44.5 17.5t44.5 -17.5t17.5 -43.5t-17.5 -43.5t-44.5 -17.5t-44.5 17.5t-17.5 43.5z" />
    <glyph glyph-name="uni01EA" unicode="&#x1ea;" horiz-adv-x="770" 
d="M494 8q-51 -19 -78 -40t-37 -39.5t-10 -32.5q0 -18 11.5 -28.5t27.5 -10.5q22 0 50 17l23 -57q-17 -12 -41 -20.5t-45 -8.5q-48 0 -76 27t-28 63q0 60 75 112q-88 5 -156.5 51.5t-107.5 126.5t-39 182q0 106 42 187.5t114.5 127.5t165.5 46t166 -46t114.5 -127.5
t41.5 -187.5q0 -84 -26.5 -152.5t-74.5 -117t-112 -72.5zM167 350q0 -79 28 -139.5t77.5 -94.5t112.5 -34q64 0 113 34t77.5 94.5t28.5 139.5t-28.5 139.5t-77.5 94.5t-113 34q-63 0 -112.5 -34t-77.5 -94.5t-28 -139.5z" />
    <glyph glyph-name="uni01EB" unicode="&#x1eb;" horiz-adv-x="601" 
d="M410 15q-74 -39 -99 -68.5t-25 -50.5q0 -18 11.5 -28.5t27.5 -10.5q22 0 50 17l23 -57q-17 -12 -41 -20.5t-45 -8.5q-48 0 -76 27.5t-28 64.5q0 60 73 110q-66 5 -118 40t-82 94t-30 135q0 80 33 141t89.5 95.5t126.5 34.5q71 0 127.5 -34.5t89.5 -95.5t33 -141
q0 -85 -39 -148t-101 -96zM150 259q0 -87 44 -134.5t106 -47.5q42 0 76 21.5t54.5 62t20.5 98.5t-20.5 99t-54.5 62.5t-76 21.5q-41 0 -75.5 -21.5t-54.5 -62.5t-20 -99z" />
    <glyph glyph-name="uni00D8" unicode="&#xd8;" horiz-adv-x="770" 
d="M38 0l97 114q-34 46 -53 106t-19 130q0 106 42 187.5t114.5 127.5t165.5 46q58 0 109 -18.5t91 -52.5l51 60h96l-97 -114q35 -46 53.5 -106t18.5 -130q0 -106 -41.5 -187.5t-114.5 -127.5t-166 -46q-58 0 -108 18.5t-91 52.5l-51 -60h-97zM167 350q0 -90 37 -156l317 371
q-28 26 -62 39.5t-74 13.5q-63 0 -112.5 -34t-77.5 -94.5t-28 -139.5zM604 350q0 91 -37 156l-317 -372q27 -25 61 -38.5t74 -13.5q64 0 113 34t77.5 94.5t28.5 139.5z" />
    <glyph glyph-name="uni00F8" unicode="&#xf8;" horiz-adv-x="601" 
d="M26 0l77 88q-25 34 -38.5 77.5t-13.5 93.5q0 80 33 141t89.5 95.5t126.5 34.5q84 0 147 -48l31 36h97l-77 -88q25 -34 38.5 -77.5t13.5 -93.5q0 -79 -33 -140t-89.5 -95.5t-127.5 -34.5q-41 0 -78 12.5t-68 34.5l-31 -36h-97zM150 259q0 -54 19 -95l217 249
q-37 29 -86 29q-41 0 -75.5 -21.5t-54.5 -62.5t-20 -99zM451 259q0 54 -19 95l-217 -249q37 -28 85 -28q42 0 76 21.5t54.5 62t20.5 98.5z" />
    <glyph glyph-name="uni01FE" unicode="&#x1fe;" horiz-adv-x="770" 
d="M38 0l97 114q-34 46 -53 106t-19 130q0 106 42 187.5t114.5 127.5t165.5 46q58 0 109 -18.5t91 -52.5l51 60h96l-97 -114q35 -46 53.5 -106t18.5 -130q0 -106 -41.5 -187.5t-114.5 -127.5t-166 -46q-58 0 -108 18.5t-91 52.5l-51 -60h-97zM167 350q0 -90 37 -156l317 371
q-28 26 -62 39.5t-74 13.5q-63 0 -112.5 -34t-77.5 -94.5t-28 -139.5zM604 350q0 91 -37 156l-317 -372q27 -25 61 -38.5t74 -13.5q64 0 113 34t77.5 94.5t28.5 139.5zM339 764l100 145h116l-136 -145h-80z" />
    <glyph glyph-name="uni01FF" unicode="&#x1ff;" horiz-adv-x="601" 
d="M26 0l77 88q-25 34 -38.5 77.5t-13.5 93.5q0 80 33 141t89.5 95.5t126.5 34.5q84 0 147 -48l31 36h97l-77 -88q25 -34 38.5 -77.5t13.5 -93.5q0 -79 -33 -140t-89.5 -95.5t-127.5 -34.5q-41 0 -78 12.5t-68 34.5l-31 -36h-97zM150 259q0 -54 19 -95l217 249
q-37 29 -86 29q-41 0 -75.5 -21.5t-54.5 -62.5t-20 -99zM451 259q0 54 -19 95l-217 -249q37 -28 85 -28q42 0 76 21.5t54.5 62t20.5 98.5zM257 600l79 170h104l-108 -170h-75z" />
    <glyph glyph-name="uni0152" unicode="&#x152;" horiz-adv-x="986" 
d="M63 350q0 103 44.5 182t122.5 123.5t176 44.5h500v-91h-326v-210h287v-88h-287v-220h331v-91h-505q-98 0 -176 44.5t-122.5 123.5t-44.5 182zM412 91h68v518h-68q-71 0 -126.5 -33t-87 -91.5t-31.5 -134.5t31.5 -134.5t87 -91.5t126.5 -33z" />
    <glyph glyph-name="uni0153" unicode="&#x153;" horiz-adv-x="924" 
d="M51 259q0 80 30.5 141t83 95.5t118.5 34.5q62 0 112 -32.5t78 -93.5q27 61 75.5 93.5t108.5 32.5q68 0 116.5 -32.5t74.5 -90t26 -133.5q0 -23 -3 -44h-352q7 -74 47 -113.5t98 -39.5q33 0 66.5 17t54.5 46l68 -57q-32 -42 -81 -68t-108 -26q-64 0 -114.5 31.5
t-77.5 92.5q-28 -60 -78 -92t-111 -32q-66 0 -118.5 34.5t-83 95.5t-30.5 140zM654 447q-48 0 -85 -37t-48 -106h258q-4 71 -38.5 107t-86.5 36zM150 259q0 -87 40.5 -134.5t96.5 -47.5q58 0 98.5 47.5t40.5 134.5t-40.5 135t-98.5 48q-56 0 -96.5 -48t-40.5 -135z" />
    <glyph glyph-name="uni0154" unicode="&#x154;" horiz-adv-x="661" 
d="M110 0v700h245q71 0 125 -27.5t85 -77t31 -114.5q0 -76 -43 -130t-114 -74l176 -277h-118l-161 265h-126v-265h-100zM345 609h-135v-257h135q65 0 105.5 36t40.5 93t-40.5 92.5t-105.5 35.5zM281 764l100 145h116l-136 -145h-80z" />
    <glyph glyph-name="uni0155" unicode="&#x155;" horiz-adv-x="387" 
d="M96 0v518h96v-104q20 47 66.5 81.5t104.5 34.5v-98q-171 -9 -171 -189v-243h-96zM180 600l79 170h104l-108 -170h-75z" />
    <glyph glyph-name="uni0158" unicode="&#x158;" horiz-adv-x="661" 
d="M110 0v700h245q71 0 125 -27.5t85 -77t31 -114.5q0 -76 -43 -130t-114 -74l176 -277h-118l-161 265h-126v-265h-100zM345 609h-135v-257h135q65 0 105.5 36t40.5 93t-40.5 92.5t-105.5 35.5zM486 904l-116 -145h-86l-116 145h78l81 -75l81 75h78z" />
    <glyph glyph-name="uni0159" unicode="&#x159;" horiz-adv-x="387" 
d="M96 0v518h96v-104q20 47 66.5 81.5t104.5 34.5v-98q-171 -9 -171 -189v-243h-96zM71 765h79l74 -94l74 94h77l-112 -170h-79z" />
    <glyph glyph-name="uni0156" unicode="&#x156;" horiz-adv-x="661" 
d="M110 0v700h245q71 0 125 -27.5t85 -77t31 -114.5q0 -76 -43 -130t-114 -74l176 -277h-118l-161 265h-126v-265h-100zM345 609h-135v-257h135q65 0 105.5 36t40.5 93t-40.5 92.5t-105.5 35.5zM289 -138q0 26 17.5 43.5t44.5 17.5q28 0 46 -18t18 -50q0 -33 -15.5 -75
t-35.5 -73h-62q12 23 20 49t12 47q-20 5 -32.5 21t-12.5 38z" />
    <glyph glyph-name="uni0157" unicode="&#x157;" horiz-adv-x="387" 
d="M96 0v518h96v-104q20 47 66.5 81.5t104.5 34.5v-98q-171 -9 -171 -189v-243h-96zM81 -138q0 26 17.5 43.5t44.5 17.5q28 0 46 -18t18 -50q0 -33 -15.5 -75t-35.5 -73h-62q12 23 20 49t12 47q-20 5 -32.5 21t-12.5 38z" />
    <glyph glyph-name="uni015A" unicode="&#x15a;" horiz-adv-x="609" 
d="M44 87l62 73q39 -34 91 -57.5t111 -23.5q79 0 116 29.5t37 71.5q0 26 -13 48t-48 42t-100 38q-85 24 -134 56t-70 71.5t-21 83.5q0 52 30 95.5t82.5 70t121.5 26.5q68 0 121 -20.5t99 -56.5l-63 -71q-31 27 -70 43t-85 16q-69 0 -103 -31t-34 -67q0 -37 33 -66.5
t124 -55.5q128 -36 178.5 -90t50.5 -125q0 -55 -30.5 -100t-87.5 -71.5t-138 -26.5q-72 0 -139 26t-121 72zM266 764l100 145h116l-136 -145h-80z" />
    <glyph glyph-name="uni015B" unicode="&#x15b;" horiz-adv-x="493" 
d="M46 64l55 65q27 -25 71.5 -40.5t84.5 -15.5q51 0 74 18.5t23 41.5q0 18 -9.5 33.5t-37 30t-81.5 30.5q-85 25 -120 63.5t-35 90.5q0 41 23 74.5t65 54t98 20.5q44 0 89 -13.5t78 -36.5l-47 -70q-24 17 -57 27.5t-71 10.5q-42 0 -64.5 -19t-22.5 -41q0 -24 21.5 -42.5
t89.5 -38.5q98 -28 137 -70t39 -97q0 -64 -50.5 -107.5t-145.5 -43.5q-61 0 -116.5 21t-90.5 54zM213 600l79 170h104l-108 -170h-75z" />
    <glyph glyph-name="uni015C" unicode="&#x15c;" horiz-adv-x="609" 
d="M44 87l62 73q39 -34 91 -57.5t111 -23.5q79 0 116 29.5t37 71.5q0 26 -13 48t-48 42t-100 38q-85 24 -134 56t-70 71.5t-21 83.5q0 52 30 95.5t82.5 70t121.5 26.5q68 0 121 -20.5t99 -56.5l-63 -71q-31 27 -70 43t-85 16q-69 0 -103 -31t-34 -67q0 -37 33 -66.5
t124 -55.5q128 -36 178.5 -90t50.5 -125q0 -55 -30.5 -100t-87.5 -71.5t-138 -26.5q-72 0 -139 26t-121 72zM153 764l116 145h86l116 -145h-78l-81 75l-81 -75h-78z" />
    <glyph glyph-name="uni015D" unicode="&#x15d;" horiz-adv-x="493" 
d="M46 64l55 65q27 -25 71.5 -40.5t84.5 -15.5q51 0 74 18.5t23 41.5q0 18 -9.5 33.5t-37 30t-81.5 30.5q-85 25 -120 63.5t-35 90.5q0 41 23 74.5t65 54t98 20.5q44 0 89 -13.5t78 -36.5l-47 -70q-24 17 -57 27.5t-71 10.5q-42 0 -64.5 -19t-22.5 -41q0 -24 21.5 -42.5
t89.5 -38.5q98 -28 137 -70t39 -97q0 -64 -50.5 -107.5t-145.5 -43.5q-61 0 -116.5 21t-90.5 54zM104 600l112 170h80l112 -170h-78l-74 94l-74 -94h-78z" />
    <glyph glyph-name="uni0160" unicode="&#x160;" horiz-adv-x="609" 
d="M44 87l62 73q39 -34 91 -57.5t111 -23.5q79 0 116 29.5t37 71.5q0 26 -13 48t-48 42t-100 38q-85 24 -134 56t-70 71.5t-21 83.5q0 52 30 95.5t82.5 70t121.5 26.5q68 0 121 -20.5t99 -56.5l-63 -71q-31 27 -70 43t-85 16q-69 0 -103 -31t-34 -67q0 -37 33 -66.5
t124 -55.5q128 -36 178.5 -90t50.5 -125q0 -55 -30.5 -100t-87.5 -71.5t-138 -26.5q-72 0 -139 26t-121 72zM471 904l-116 -145h-86l-116 145h78l81 -75l81 75h78z" />
    <glyph glyph-name="uni0161" unicode="&#x161;" horiz-adv-x="493" 
d="M46 64l55 65q27 -25 71.5 -40.5t84.5 -15.5q51 0 74 18.5t23 41.5q0 18 -9.5 33.5t-37 30t-81.5 30.5q-85 25 -120 63.5t-35 90.5q0 41 23 74.5t65 54t98 20.5q44 0 89 -13.5t78 -36.5l-47 -70q-24 17 -57 27.5t-71 10.5q-42 0 -64.5 -19t-22.5 -41q0 -24 21.5 -42.5
t89.5 -38.5q98 -28 137 -70t39 -97q0 -64 -50.5 -107.5t-145.5 -43.5q-61 0 -116.5 21t-90.5 54zM104 765h79l74 -94l74 94h77l-112 -170h-79z" />
    <glyph glyph-name="uni015E" unicode="&#x15e;" horiz-adv-x="609" 
d="M44 87l62 73q39 -34 91 -57.5t111 -23.5q79 0 116 29.5t37 71.5q0 26 -13 48t-48 42t-100 38q-85 24 -134 56t-70 71.5t-21 83.5q0 52 30 95.5t82.5 70t121.5 26.5q68 0 121 -20.5t99 -56.5l-63 -71q-31 27 -70 43t-85 16q-69 0 -103 -31t-34 -67q0 -37 33 -66.5
t124 -55.5q128 -36 178.5 -90t50.5 -125q0 -55 -30 -100t-86 -71.5t-134 -26.5l-6 -26q37 -4 56.5 -22.5t19.5 -41.5q0 -25 -23 -42.5t-67 -17.5q-22 0 -43.5 4t-38.5 10l17 47q25 -10 46 -10q31 0 31 17q0 8 -11.5 15t-49.5 11l19 59q-60 7 -115 31.5t-101 63.5z" />
    <glyph glyph-name="uni015F" unicode="&#x15f;" horiz-adv-x="493" 
d="M46 64l55 65q27 -25 71.5 -40.5t84.5 -15.5q51 0 74 18.5t23 41.5q0 18 -9.5 33.5t-37 30t-81.5 30.5q-85 25 -120 63.5t-35 90.5q0 41 23 74.5t65 54t98 20.5q44 0 89 -13.5t78 -36.5l-47 -70q-24 17 -57 27.5t-71 10.5q-42 0 -64.5 -19t-22.5 -41q0 -24 21.5 -42.5
t89.5 -38.5q98 -28 137 -70t39 -97q0 -62 -48 -105t-138 -46l-6 -26q37 -4 56.5 -22.5t19.5 -41.5q0 -25 -23 -42.5t-67 -17.5q-22 0 -43.5 4t-38.5 10l17 47q25 -10 46 -10q31 0 31 17q0 8 -11.5 15t-49.5 11l19 58q-50 6 -94 25.5t-73 47.5z" />
    <glyph glyph-name="uni0218" unicode="&#x218;" horiz-adv-x="609" 
d="M44 87l62 73q39 -34 91 -57.5t111 -23.5q79 0 116 29.5t37 71.5q0 26 -13 48t-48 42t-100 38q-85 24 -134 56t-70 71.5t-21 83.5q0 52 30 95.5t82.5 70t121.5 26.5q68 0 121 -20.5t99 -56.5l-63 -71q-31 27 -70 43t-85 16q-69 0 -103 -31t-34 -67q0 -37 33 -66.5
t124 -55.5q128 -36 178.5 -90t50.5 -125q0 -55 -30.5 -100t-87.5 -71.5t-138 -26.5q-72 0 -139 26t-121 72zM250 -138q0 26 17.5 43.5t44.5 17.5q28 0 46 -18t18 -50q0 -33 -15.5 -75t-35.5 -73h-62q12 23 20 49t12 47q-20 5 -32.5 21t-12.5 38z" />
    <glyph glyph-name="uni0219" unicode="&#x219;" horiz-adv-x="493" 
d="M46 64l55 65q27 -25 71.5 -40.5t84.5 -15.5q51 0 74 18.5t23 41.5q0 18 -9.5 33.5t-37 30t-81.5 30.5q-85 25 -120 63.5t-35 90.5q0 41 23 74.5t65 54t98 20.5q44 0 89 -13.5t78 -36.5l-47 -70q-24 17 -57 27.5t-71 10.5q-42 0 -64.5 -19t-22.5 -41q0 -24 21.5 -42.5
t89.5 -38.5q98 -28 137 -70t39 -97q0 -64 -50.5 -107.5t-145.5 -43.5q-61 0 -116.5 21t-90.5 54zM181 -138q0 26 17.5 43.5t44.5 17.5q28 0 46 -18t18 -50q0 -33 -15.5 -75t-35.5 -73h-62q12 23 20 49t12 47q-20 5 -32.5 21t-12.5 38z" />
    <glyph glyph-name="uni1E9E" unicode="&#x1e9e;" horiz-adv-x="1218" 
d="M44 87l62 73q39 -34 91 -57.5t111 -23.5q79 0 116 29.5t37 71.5q0 26 -13 48t-48 42t-100 38q-85 24 -134 56t-70 71.5t-21 83.5q0 52 30 95.5t82.5 70t121.5 26.5q68 0 121 -20.5t99 -56.5l-63 -71q-31 27 -70 43t-85 16q-69 0 -103 -31t-34 -67q0 -37 33 -66.5
t124 -55.5q128 -36 178.5 -90t50.5 -125q0 -55 -30.5 -100t-87.5 -71.5t-138 -26.5q-72 0 -139 26t-121 72zM653 87l62 73q39 -34 91 -57.5t111 -23.5q79 0 116 29.5t37 71.5q0 26 -13 48t-48 42t-100 38q-85 24 -134 56t-70 71.5t-21 83.5q0 52 30 95.5t82.5 70t121.5 26.5
q68 0 121 -20.5t99 -56.5l-63 -71q-31 27 -70 43t-85 16q-69 0 -103 -31t-34 -67q0 -37 33 -66.5t124 -55.5q128 -36 178.5 -90t50.5 -125q0 -55 -30.5 -100t-87.5 -71.5t-138 -26.5q-72 0 -139 26t-121 72z" />
    <glyph glyph-name="uni00DF" unicode="&#xdf;" horiz-adv-x="626" 
d="M96 0v484q0 86 29 143t78.5 85.5t110.5 28.5q54 0 98.5 -23.5t71 -64.5t26.5 -92q0 -38 -12 -65t-30.5 -46t-36.5 -33.5t-30 -27.5t-12 -28q0 -14 13 -28t53 -34q66 -31 96.5 -70.5t30.5 -91.5q0 -66 -46 -107t-129 -41q-47 0 -86 13.5t-67 29.5l41 78q22 -15 51 -25.5
t62 -10.5q37 0 58 18t21 41q0 24 -17.5 43t-73.5 47q-56 29 -80 60.5t-24 62.5q0 33 12.5 55.5t31.5 40t38 33.5t31.5 34.5t12.5 44.5q0 45 -30 71.5t-77 26.5q-52 0 -85.5 -37.5t-33.5 -125.5v-489h-96z" />
    <glyph glyph-name="uni0164" unicode="&#x164;" horiz-adv-x="572" 
d="M236 0v609h-204v91h508v-91h-204v-609h-100zM445 904l-116 -145h-86l-116 145h78l81 -75l81 75h78z" />
    <glyph glyph-name="uni0165" unicode="&#x165;" horiz-adv-x="465" 
d="M402 730h93l-42 -264h-72zM113 167v266h-89v85h89v124h95v-124h129v-85h-129v-258q0 -52 23.5 -74.5t69.5 -22.5q25 0 52 6l10 -85q-16 -4 -35 -7t-39 -3q-82 0 -129 45t-47 133z" />
    <glyph glyph-name="uni0162" unicode="&#x162;" horiz-adv-x="572" 
d="M236 0v609h-204v91h508v-91h-204v-609h-23l-9 -37q37 -4 56.5 -22.5t19.5 -41.5q0 -25 -23 -42.5t-67 -17.5q-22 0 -43.5 4t-38.5 10l17 47q25 -10 46 -10q31 0 31 17q0 8 -11.5 15t-49.5 11l22 67h-27z" />
    <glyph glyph-name="uni0163" unicode="&#x163;" horiz-adv-x="400" 
d="M113 167v266h-89v85h89v124h95v-124h149v-85h-149v-258q0 -52 23.5 -74.5t69.5 -22.5q25 0 52 6l10 -85q-16 -4 -35 -7t-39 -3q-10 0 -19 0.5t-17 1.5l-7 -28q37 -4 56.5 -22.5t19.5 -41.5q0 -25 -23 -42.5t-67 -17.5q-22 0 -43.5 4t-38.5 10l17 47q25 -10 46 -10
q31 0 31 17q0 8 -11.5 15t-49.5 11l23 71q-44 18 -68.5 59t-24.5 104z" />
    <glyph glyph-name="uni021A" unicode="&#x21a;" horiz-adv-x="572" 
d="M236 0v609h-204v91h508v-91h-204v-609h-100zM224 -138q0 26 17.5 43.5t44.5 17.5q28 0 46 -18t18 -50q0 -33 -15.5 -75t-35.5 -73h-62q12 23 20 49t12 47q-20 5 -32.5 21t-12.5 38z" />
    <glyph glyph-name="uni021B" unicode="&#x21b;" horiz-adv-x="400" 
d="M113 167v266h-89v85h89v124h95v-124h149v-85h-149v-258q0 -52 23.5 -74.5t69.5 -22.5q25 0 52 6l10 -85q-16 -4 -35 -7t-39 -3q-82 0 -129 45t-47 133zM170 -138q0 26 17.5 43.5t44.5 17.5q28 0 46 -18t18 -50q0 -33 -15.5 -75t-35.5 -73h-62q12 23 20 49t12 47
q-20 5 -32.5 21t-12.5 38z" />
    <glyph glyph-name="uni0166" unicode="&#x166;" horiz-adv-x="572" 
d="M236 0v289h-128v85h128v235h-204v91h508v-91h-204v-235h128v-85h-128v-289h-100z" />
    <glyph glyph-name="uni0167" unicode="&#x167;" horiz-adv-x="400" 
d="M113 167v80h-89v85h89v101h-89v85h89v124h95v-124h149v-85h-149v-101h156v-85h-156v-72q0 -52 23.5 -74.5t69.5 -22.5q25 0 52 6l10 -85q-16 -4 -35 -7t-39 -3q-82 0 -129 45t-47 133z" />
    <glyph glyph-name="uni00DE" unicode="&#xde;" horiz-adv-x="645" 
d="M110 0v700h100v-131h150q68 0 120.5 -27t82.5 -76.5t30 -115.5q0 -65 -30 -114t-82.5 -75.5t-120.5 -26.5h-150v-134h-100zM350 478h-140v-256h140q62 0 100.5 35t38.5 93q0 59 -38.5 93.5t-100.5 34.5z" />
    <glyph glyph-name="uni00FE" unicode="&#xfe;" horiz-adv-x="630" 
d="M96 -150v880h96v-286q29 41 70.5 63.5t91.5 22.5q64 0 115 -34.5t80.5 -95.5t29.5 -141t-29.5 -141t-80.5 -95t-115 -34q-50 0 -91.5 23t-70.5 63v-225h-96zM185 259q0 -88 43.5 -136t107.5 -48q61 0 102.5 49.5t41.5 134.5q0 86 -41.5 135t-102.5 49q-64 0 -107.5 -48
t-43.5 -136z" />
    <glyph glyph-name="uni00D9" unicode="&#xd9;" horiz-adv-x="723" 
d="M100 257v443h100v-431q0 -91 42 -139t120 -48t120 48t42 139v431h99v-443q0 -82 -31.5 -142t-90 -93t-139.5 -33t-139.5 33t-90.5 93t-32 142zM191 909h116l100 -145h-80z" />
    <glyph glyph-name="uni00F9" unicode="&#xf9;" horiz-adv-x="622" 
d="M86 204v314h96v-301q0 -73 34 -106.5t82 -33.5q36 0 66 20t48.5 56.5t18.5 86.5v278h96v-518h-96v83q-19 -40 -62.5 -67t-97.5 -27q-50 0 -92.5 25.5t-67.5 73.5t-25 116zM163 770h104l79 -170h-75z" />
    <glyph glyph-name="uni00DA" unicode="&#xda;" horiz-adv-x="723" 
d="M100 257v443h100v-431q0 -91 42 -139t120 -48t120 48t42 139v431h99v-443q0 -82 -31.5 -142t-90 -93t-139.5 -33t-139.5 33t-90.5 93t-32 142zM315 764l100 145h116l-136 -145h-80z" />
    <glyph glyph-name="uni00FA" unicode="&#xfa;" horiz-adv-x="622" 
d="M86 204v314h96v-301q0 -73 34 -106.5t82 -33.5q36 0 66 20t48.5 56.5t18.5 86.5v278h96v-518h-96v83q-19 -40 -62.5 -67t-97.5 -27q-50 0 -92.5 25.5t-67.5 73.5t-25 116zM260 600l79 170h104l-108 -170h-75z" />
    <glyph glyph-name="uni00DB" unicode="&#xdb;" horiz-adv-x="723" 
d="M100 257v443h100v-431q0 -91 42 -139t120 -48t120 48t42 139v431h99v-443q0 -82 -31.5 -142t-90 -93t-139.5 -33t-139.5 33t-90.5 93t-32 142zM202 764l116 145h86l116 -145h-78l-81 75l-81 -75h-78z" />
    <glyph glyph-name="uni00FB" unicode="&#xfb;" horiz-adv-x="622" 
d="M86 204v314h96v-301q0 -73 34 -106.5t82 -33.5q36 0 66 20t48.5 56.5t18.5 86.5v278h96v-518h-96v83q-19 -40 -62.5 -67t-97.5 -27q-50 0 -92.5 25.5t-67.5 73.5t-25 116zM151 600l112 170h80l112 -170h-78l-74 94l-74 -94h-78z" />
    <glyph glyph-name="uni0168" unicode="&#x168;" horiz-adv-x="723" 
d="M100 257v443h100v-431q0 -91 42 -139t120 -48t120 48t42 139v431h99v-443q0 -82 -31.5 -142t-90 -93t-139.5 -33t-139.5 33t-90.5 93t-32 142zM185 765q5 60 28.5 99.5t72.5 39.5q27 0 48.5 -10.5t39 -25t32.5 -25t30 -10.5q17 0 27 15t14 51h60q-4 -60 -28 -99.5
t-73 -39.5q-27 0 -48.5 11t-39 25t-33 25t-29.5 11q-17 0 -26.5 -15.5t-14.5 -51.5h-60z" />
    <glyph glyph-name="uni0169" unicode="&#x169;" horiz-adv-x="622" 
d="M86 204v314h96v-301q0 -73 34 -106.5t82 -33.5q36 0 66 20t48.5 56.5t18.5 86.5v278h96v-518h-96v83q-19 -40 -62.5 -67t-97.5 -27q-50 0 -92.5 25.5t-67.5 73.5t-25 116zM137 600q4 63 27 104.5t71 41.5q27 0 46.5 -12t34.5 -27t28.5 -27t26.5 -12q15 0 24.5 16.5
t13.5 56.5h60q-4 -63 -27.5 -104.5t-70.5 -41.5q-27 0 -46.5 12t-35 27t-28.5 27t-26 12q-15 0 -24.5 -16.5t-13.5 -56.5h-60z" />
    <glyph glyph-name="uni00DC" unicode="&#xdc;" horiz-adv-x="723" 
d="M100 257v443h100v-431q0 -91 42 -139t120 -48t120 48t42 139v431h99v-443q0 -82 -31.5 -142t-90 -93t-139.5 -33t-139.5 33t-90.5 93t-32 142zM194 830q0 24 16 40t41 16q26 0 42 -16t16 -40t-16 -40t-42 -16q-25 0 -41 16t-16 40zM413 830q0 24 16 40t42 16t41.5 -16
t15.5 -40t-15.5 -40t-41.5 -16t-42 16t-16 40z" />
    <glyph glyph-name="uni00FC" unicode="&#xfc;" horiz-adv-x="622" 
d="M86 204v314h96v-301q0 -73 34 -106.5t82 -33.5q36 0 66 20t48.5 56.5t18.5 86.5v278h96v-518h-96v83q-19 -40 -62.5 -67t-97.5 -27q-50 0 -92.5 25.5t-67.5 73.5t-25 116zM142 685q0 24 16 40t41 16q26 0 41.5 -16t15.5 -40t-15.5 -40t-41.5 -16q-25 0 -41 16t-16 40z
M350 685q0 24 16 40t41 16q26 0 41.5 -16t15.5 -40t-15.5 -40t-41.5 -16q-25 0 -41 16t-16 40z" />
    <glyph glyph-name="uni016A" unicode="&#x16a;" horiz-adv-x="723" 
d="M100 257v443h100v-431q0 -91 42 -139t120 -48t120 48t42 139v431h99v-443q0 -82 -31.5 -142t-90 -93t-139.5 -33t-139.5 33t-90.5 93t-32 142zM200 795v73h322v-73h-322z" />
    <glyph glyph-name="uni016B" unicode="&#x16b;" horiz-adv-x="622" 
d="M86 204v314h96v-301q0 -73 34 -106.5t82 -33.5q36 0 66 20t48.5 56.5t18.5 86.5v278h96v-518h-96v83q-19 -40 -62.5 -67t-97.5 -27q-50 0 -92.5 25.5t-67.5 73.5t-25 116zM156 648v74h294v-74h-294z" />
    <glyph glyph-name="uni016C" unicode="&#x16c;" horiz-adv-x="723" 
d="M100 257v443h100v-431q0 -91 42 -139t120 -48t120 48t42 139v431h99v-443q0 -82 -31.5 -142t-90 -93t-139.5 -33t-139.5 33t-90.5 93t-32 142zM199 904h75q5 -31 27.5 -48t59.5 -17t59.5 17t27.5 48h75q-7 -69 -52 -107t-110 -38t-110 38t-52 107z" />
    <glyph glyph-name="uni016D" unicode="&#x16d;" horiz-adv-x="622" 
d="M86 204v314h96v-301q0 -73 34 -106.5t82 -33.5q36 0 66 20t48.5 56.5t18.5 86.5v278h96v-518h-96v83q-19 -40 -62.5 -67t-97.5 -27q-50 0 -92.5 25.5t-67.5 73.5t-25 116zM151 765h75q12 -89 77 -89t77 89h75q-8 -82 -49 -126t-103 -44t-103 44t-49 126z" />
    <glyph glyph-name="uni016E" unicode="&#x16e;" horiz-adv-x="723" 
d="M100 257v443h100v-431q0 -91 42 -139t120 -48t120 48t42 139v431h99v-443q0 -82 -31.5 -142t-90 -93t-139.5 -33t-139.5 33t-90.5 93t-32 142zM253 857q0 42 30 71.5t78 29.5t78 -29.5t30 -71.5q0 -43 -30 -72.5t-78 -29.5t-78 29.5t-30 72.5zM314 857q0 -21 13 -34.5
t34 -13.5t34 13.5t13 34.5q0 20 -13 33.5t-34 13.5t-34 -13.5t-13 -33.5z" />
    <glyph glyph-name="uni016F" unicode="&#x16f;" horiz-adv-x="622" 
d="M86 204v314h96v-301q0 -73 34 -106.5t82 -33.5q36 0 66 20t48.5 56.5t18.5 86.5v278h96v-518h-96v83q-19 -40 -62.5 -67t-97.5 -27q-50 0 -92.5 25.5t-67.5 73.5t-25 116zM198 698q0 44 29.5 73t75.5 29t75.5 -29t29.5 -73q0 -43 -29.5 -73t-75.5 -30t-75.5 30t-29.5 73z
M259 698q0 -22 12.5 -35.5t31.5 -13.5t31.5 13.5t12.5 35.5t-12.5 35t-31.5 13t-31.5 -13t-12.5 -35z" />
    <glyph glyph-name="uni0170" unicode="&#x170;" horiz-adv-x="723" 
d="M100 257v443h100v-431q0 -91 42 -139t120 -48t120 48t42 139v431h99v-443q0 -82 -31.5 -142t-90 -93t-139.5 -33t-139.5 33t-90.5 93t-32 142zM261 764l72 145h98l-100 -145h-70zM401 764l72 145h97l-100 -145h-69z" />
    <glyph glyph-name="uni0171" unicode="&#x171;" horiz-adv-x="622" 
d="M86 204v314h96v-301q0 -73 34 -106.5t82 -33.5q36 0 66 20t48.5 56.5t18.5 86.5v278h96v-518h-96v83q-19 -40 -62.5 -67t-97.5 -27q-50 0 -92.5 25.5t-67.5 73.5t-25 116zM194 600l65 170h97l-95 -170h-67zM332 600l65 170h97l-94 -170h-68z" />
    <glyph glyph-name="uni1EE4" unicode="&#x1ee4;" horiz-adv-x="723" 
d="M100 257v443h100v-431q0 -91 42 -139t120 -48t120 48t42 139v431h99v-443q0 -82 -31.5 -142t-90 -93t-139.5 -33t-139.5 33t-90.5 93t-32 142zM300 -138q0 26 17.5 43.5t44.5 17.5t44.5 -17.5t17.5 -43.5t-17.5 -43.5t-44.5 -17.5t-44.5 17.5t-17.5 43.5z" />
    <glyph glyph-name="uni1EE5" unicode="&#x1ee5;" horiz-adv-x="622" 
d="M86 204v314h96v-301q0 -73 34 -106.5t82 -33.5q36 0 66 20t48.5 56.5t18.5 86.5v278h96v-518h-96v83q-19 -40 -62.5 -67t-97.5 -27q-50 0 -92.5 25.5t-67.5 73.5t-25 116zM245 -138q0 26 17.5 43.5t44.5 17.5t44.5 -17.5t17.5 -43.5t-17.5 -43.5t-44.5 -17.5t-44.5 17.5
t-17.5 43.5z" />
    <glyph glyph-name="uni0172" unicode="&#x172;" horiz-adv-x="723" 
d="M469 7q-51 -19 -78 -39.5t-37 -39t-10 -32.5q0 -18 11.5 -28.5t27.5 -10.5q22 0 50 17l23 -57q-17 -12 -41 -20.5t-45 -8.5q-48 0 -76 27t-28 63q0 60 75 112q-112 6 -176.5 77.5t-64.5 189.5v443h100v-431q0 -91 42 -139t120 -48t120 48t42 139v431h99v-443
q0 -93 -40.5 -157.5t-113.5 -92.5z" />
    <glyph glyph-name="uni0173" unicode="&#x173;" horiz-adv-x="622" 
d="M86 204v314h96v-301q0 -73 34 -106.5t82 -33.5q36 0 66 20t48.5 56.5t18.5 86.5v278h96v-518q-64 -28 -95 -56.5t-31 -53.5q0 -14 10 -23.5t29 -9.5q22 0 50 17l23 -57q-19 -12 -43.5 -20.5t-46.5 -8.5q-45 0 -72.5 25t-27.5 62q0 40 28 73t80 61v74q-19 -40 -62.5 -67
t-97.5 -27q-50 0 -92.5 25.5t-67.5 73.5t-25 116z" />
    <glyph glyph-name="uni1E80" unicode="&#x1e80;" horiz-adv-x="958" 
d="M255 -5l-234 705h106l157 -505l170 505h54l167 -505l160 505h102l-234 -705h-56l-168 491l-168 -491h-56zM311 909h116l100 -145h-80z" />
    <glyph glyph-name="uni1E81" unicode="&#x1e81;" horiz-adv-x="759" 
d="M505 -5l-125 342l-126 -342h-55l-178 523h104l103 -346l127 346h53l123 -346l108 346h99l-178 -523h-55zM242 770h104l79 -170h-75z" />
    <glyph glyph-name="uni1E82" unicode="&#x1e82;" horiz-adv-x="958" 
d="M255 -5l-234 705h106l157 -505l170 505h54l167 -505l160 505h102l-234 -705h-56l-168 491l-168 -491h-56zM435 764l100 145h116l-136 -145h-80z" />
    <glyph glyph-name="uni1E83" unicode="&#x1e83;" horiz-adv-x="759" 
d="M505 -5l-125 342l-126 -342h-55l-178 523h104l103 -346l127 346h53l123 -346l108 346h99l-178 -523h-55zM339 600l79 170h104l-108 -170h-75z" />
    <glyph glyph-name="uni0174" unicode="&#x174;" horiz-adv-x="958" 
d="M255 -5l-234 705h106l157 -505l170 505h54l167 -505l160 505h102l-234 -705h-56l-168 491l-168 -491h-56zM322 764l116 145h86l116 -145h-78l-81 75l-81 -75h-78z" />
    <glyph glyph-name="uni0175" unicode="&#x175;" horiz-adv-x="759" 
d="M505 -5l-125 342l-126 -342h-55l-178 523h104l103 -346l127 346h53l123 -346l108 346h99l-178 -523h-55zM230 600l112 170h80l112 -170h-78l-74 94l-74 -94h-78z" />
    <glyph glyph-name="uni1E84" unicode="&#x1e84;" horiz-adv-x="958" 
d="M255 -5l-234 705h106l157 -505l170 505h54l167 -505l160 505h102l-234 -705h-56l-168 491l-168 -491h-56zM314 830q0 24 16 40t41 16q26 0 42 -16t16 -40t-16 -40t-42 -16q-25 0 -41 16t-16 40zM533 830q0 24 16 40t42 16t41.5 -16t15.5 -40t-15.5 -40t-41.5 -16t-42 16
t-16 40z" />
    <glyph glyph-name="uni1E85" unicode="&#x1e85;" horiz-adv-x="759" 
d="M505 -5l-125 342l-126 -342h-55l-178 523h104l103 -346l127 346h53l123 -346l108 346h99l-178 -523h-55zM221 685q0 24 16 40t41 16q26 0 41.5 -16t15.5 -40t-15.5 -40t-41.5 -16q-25 0 -41 16t-16 40zM429 685q0 24 16 40t41 16q26 0 41.5 -16t15.5 -40t-15.5 -40
t-41.5 -16q-25 0 -41 16t-16 40z" />
    <glyph glyph-name="uni1EF2" unicode="&#x1ef2;" horiz-adv-x="656" 
d="M277 0v292l-262 408h118l196 -316l199 316h113l-264 -411v-289h-100zM159 909h116l100 -145h-80z" />
    <glyph glyph-name="uni1EF3" unicode="&#x1ef3;" horiz-adv-x="526" 
d="M36 -148l17 83q10 -4 22 -6.5t24 -2.5q25 0 43 8t35 33t39 76l-197 475h105l139 -359l143 359h101l-217 -523q-37 -90 -81 -123t-98 -33q-42 0 -75 13zM128 770h104l79 -170h-75z" />
    <glyph glyph-name="uni00DD" unicode="&#xdd;" horiz-adv-x="656" 
d="M277 0v292l-262 408h118l196 -316l199 316h113l-264 -411v-289h-100zM283 764l100 145h116l-136 -145h-80z" />
    <glyph glyph-name="uni00FD" unicode="&#xfd;" horiz-adv-x="526" 
d="M36 -148l17 83q10 -4 22 -6.5t24 -2.5q25 0 43 8t35 33t39 76l-197 475h105l139 -359l143 359h101l-217 -523q-37 -90 -81 -123t-98 -33q-42 0 -75 13zM225 600l79 170h104l-108 -170h-75z" />
    <glyph glyph-name="uni0176" unicode="&#x176;" horiz-adv-x="656" 
d="M277 0v292l-262 408h118l196 -316l199 316h113l-264 -411v-289h-100zM170 764l116 145h86l116 -145h-78l-81 75l-81 -75h-78z" />
    <glyph glyph-name="uni0177" unicode="&#x177;" horiz-adv-x="526" 
d="M36 -148l17 83q10 -4 22 -6.5t24 -2.5q25 0 43 8t35 33t39 76l-197 475h105l139 -359l143 359h101l-217 -523q-37 -90 -81 -123t-98 -33q-42 0 -75 13zM116 600l112 170h80l112 -170h-78l-74 94l-74 -94h-78z" />
    <glyph glyph-name="uni1EF8" unicode="&#x1ef8;" horiz-adv-x="656" 
d="M277 0v292l-262 408h118l196 -316l199 316h113l-264 -411v-289h-100zM153 765q5 60 28.5 99.5t72.5 39.5q27 0 48.5 -10.5t39 -25t32.5 -25t30 -10.5q17 0 27 15t14 51h60q-4 -60 -28 -99.5t-73 -39.5q-27 0 -48.5 11t-39 25t-33 25t-29.5 11q-17 0 -26.5 -15.5
t-14.5 -51.5h-60z" />
    <glyph glyph-name="uni1EF9" unicode="&#x1ef9;" horiz-adv-x="526" 
d="M36 -148l17 83q10 -4 22 -6.5t24 -2.5q25 0 43 8t35 33t39 76l-197 475h105l139 -359l143 359h101l-217 -523q-37 -90 -81 -123t-98 -33q-42 0 -75 13zM102 600q4 63 27 104.5t71 41.5q27 0 46.5 -12t34.5 -27t28.5 -27t26.5 -12q15 0 24.5 16.5t13.5 56.5h60
q-4 -63 -27.5 -104.5t-70.5 -41.5q-27 0 -46.5 12t-35 27t-28.5 27t-26 12q-15 0 -24.5 -16.5t-13.5 -56.5h-60z" />
    <glyph glyph-name="uni0178" unicode="&#x178;" horiz-adv-x="656" 
d="M277 0v292l-262 408h118l196 -316l199 316h113l-264 -411v-289h-100zM162 830q0 24 16 40t41 16q26 0 42 -16t16 -40t-16 -40t-42 -16q-25 0 -41 16t-16 40zM381 830q0 24 16 40t42 16t41.5 -16t15.5 -40t-15.5 -40t-41.5 -16t-42 16t-16 40z" />
    <glyph glyph-name="uni00FF" unicode="&#xff;" horiz-adv-x="526" 
d="M36 -148l17 83q10 -4 22 -6.5t24 -2.5q25 0 43 8t35 33t39 76l-197 475h105l139 -359l143 359h101l-217 -523q-37 -90 -81 -123t-98 -33q-42 0 -75 13zM107 685q0 24 16 40t41 16q26 0 41.5 -16t15.5 -40t-15.5 -40t-41.5 -16q-25 0 -41 16t-16 40zM315 685q0 24 16 40
t41 16q26 0 41.5 -16t15.5 -40t-15.5 -40t-41.5 -16q-25 0 -41 16t-16 40z" />
    <glyph glyph-name="uni0232" unicode="&#x232;" horiz-adv-x="656" 
d="M277 0v292l-262 408h118l196 -316l199 316h113l-264 -411v-289h-100zM168 795v73h322v-73h-322z" />
    <glyph glyph-name="uni0233" unicode="&#x233;" horiz-adv-x="526" 
d="M36 -148l17 83q10 -4 22 -6.5t24 -2.5q25 0 43 8t35 33t39 76l-197 475h105l139 -359l143 359h101l-217 -523q-37 -90 -81 -123t-98 -33q-42 0 -75 13zM121 648v74h294v-74h-294z" />
    <glyph glyph-name="uni0179" unicode="&#x179;" horiz-adv-x="612" 
d="M49 0v65l370 547h-360v88h494v-65l-370 -547h380v-88h-514zM256 764l100 145h116l-136 -145h-80z" />
    <glyph glyph-name="uni017A" unicode="&#x17a;" horiz-adv-x="507" 
d="M47 0v63l272 373h-262v82h393v-62l-272 -373h282v-83h-413zM211 600l79 170h104l-108 -170h-75z" />
    <glyph glyph-name="uni017D" unicode="&#x17d;" horiz-adv-x="612" 
d="M49 0v65l370 547h-360v88h494v-65l-370 -547h380v-88h-514zM461 904l-116 -145h-86l-116 145h78l81 -75l81 75h78z" />
    <glyph glyph-name="uni017E" unicode="&#x17e;" horiz-adv-x="507" 
d="M47 0v63l272 373h-262v82h393v-62l-272 -373h282v-83h-413zM102 765h79l74 -94l74 94h77l-112 -170h-79z" />
    <glyph glyph-name="uni017B" unicode="&#x17b;" horiz-adv-x="612" 
d="M49 0v65l370 547h-360v88h494v-65l-370 -547h380v-88h-514zM240 842q0 26 17.5 43.5t44.5 17.5t44.5 -17.5t17.5 -43.5t-17.5 -43.5t-44.5 -17.5t-44.5 17.5t-17.5 43.5z" />
    <glyph glyph-name="uni017C" unicode="&#x17c;" horiz-adv-x="507" 
d="M47 0v63l272 373h-262v82h393v-62l-272 -373h282v-83h-413zM192 680q0 26 17.5 43.5t44.5 17.5t44.5 -17.5t17.5 -43.5t-17.5 -43.5t-44.5 -17.5t-44.5 17.5t-17.5 43.5z" />
    <glyph glyph-name="uni0132" unicode="&#x132;" horiz-adv-x="858" 
d="M110 0v700h100v-700h-100zM342 107l79 54q16 -36 45.5 -57.5t70.5 -21.5q57 0 89.5 39.5t32.5 115.5v463h100v-474q0 -109 -60 -173t-164 -64q-64 0 -113.5 31.5t-79.5 86.5z" />
    <glyph glyph-name="uni0133" unicode="&#x133;" horiz-adv-x="575" 
d="M78 679q0 26 19 44.5t47 18.5q29 0 47.5 -18.5t18.5 -44.5q0 -27 -18.5 -45t-47.5 -18q-28 0 -47 18t-19 45zM96 0v518h96v-518h-96zM365 679q0 26 19 44.5t47 18.5q29 0 47.5 -18.5t18.5 -44.5q0 -27 -18.5 -45t-47.5 -18q-28 0 -47 18t-19 45zM252 -152l6 86
q24 -6 47 -6q35 0 56.5 23.5t21.5 74.5v492h96v-499q0 -88 -45 -134t-116 -46q-36 0 -66 9z" />
    <glyph glyph-name="IJacute" horiz-adv-x="858" 
d="M114 764l100 145h116l-136 -145h-80zM663 764l100 145h116l-136 -145h-80zM110 0v700h100v-700h-100zM342 107l79 54q16 -36 45.5 -57.5t70.5 -21.5q57 0 89.5 39.5t32.5 115.5v463h100v-474q0 -109 -60 -173t-164 -64q-64 0 -113.5 31.5t-79.5 86.5z" />
    <glyph glyph-name="ijacute" horiz-adv-x="575" 
d="M100 599l79 170h104l-108 -170h-75zM387 599l79 170h104l-108 -170h-75zM96 0v518h96v-518h-96zM252 -152l6 86q24 -6 47 -6q35 0 56.5 23.5t21.5 74.5v492h96v-499q0 -88 -45 -134t-116 -46q-36 0 -66 9z" />
    <glyph glyph-name="uni018F" unicode="&#x18f;" horiz-adv-x="755" 
d="M368 -11q-90 0 -159 43.5t-107.5 120t-38.5 174.5q0 15 1 29.5t2 24.5h521q-6 71 -36 124t-77.5 83t-108.5 30q-54 0 -102 -24.5t-77 -71.5l-83 56q39 60 108 96.5t154 36.5q95 0 169 -46.5t116 -128t42 -186.5q0 -78 -25 -144t-69 -114.5t-103 -75.5t-127 -27zM368 82
q55 0 100 27t75.5 75t40.5 110h-420q11 -100 66.5 -156t137.5 -56z" />
    <glyph glyph-name="uni0259" unicode="&#x259;" horiz-adv-x="580" 
d="M529 262q0 -80 -32 -141.5t-87.5 -96.5t-125.5 -35q-72 0 -124.5 32.5t-80.5 90t-28 133.5q0 23 3 44h377q-8 74 -51 113.5t-107 39.5q-36 0 -73.5 -17t-60.5 -46l-68 57q34 42 88 68t119 26q73 0 130 -33.5t89 -94t32 -140.5zM283 72q52 0 93 37t52 106h-282
q5 -71 42 -107t95 -36z" />
    <glyph glyph-name="uniFB01" unicode="&#xfb01;" horiz-adv-x="627" 
d="M113 0v433h-89v85h89v40q0 90 47 137t121 47q17 0 31.5 -2.5t26.5 -6.5v-86q-21 6 -47 6q-37 0 -60.5 -24t-23.5 -78v-33h323v-518h-96v433h-227v-433h-95zM417 679q0 26 18.5 44.5t46.5 18.5q29 0 47.5 -18.5t18.5 -44.5q0 -27 -18.5 -45t-47.5 -18q-28 0 -46.5 18
t-18.5 45z" />
    <glyph glyph-name="uniFB02" unicode="&#xfb02;" horiz-adv-x="633" 
d="M113 0v433h-89v85h89v38q0 92 48.5 139t124.5 47q20 0 36.5 -2.5t29.5 -7.5v-86q-13 3 -27 5t-28 2q-40 0 -64.5 -24t-24.5 -80v-31h134v-85h-134v-433h-95zM441 0v730h96v-730h-96z" />
    <glyph glyph-name="uni0030" unicode="0" horiz-adv-x="653" 
d="M62 350q0 112 32.5 192.5t92 124.5t140.5 44q80 0 139.5 -44t92 -124.5t32.5 -192.5q0 -111 -32.5 -192t-92 -125t-139.5 -44q-81 0 -140.5 44t-92 125t-32.5 192zM166 350q0 -136 46 -203t115 -67q68 0 114 67t46 203t-46 203t-114 67q-69 0 -115 -67t-46 -203z" />
    <glyph glyph-name="uni0031" unicode="1" horiz-adv-x="433" 
d="M205 0v586l-153 -88l-44 80l215 122h82v-700h-100z" />
    <glyph glyph-name="uni0032" unicode="2" horiz-adv-x="581" 
d="M54 0v65l232 233q50 50 77 84.5t37.5 62t10.5 56.5q0 48 -36 82t-90 34q-112 0 -143 -120l-86 32q21 83 83.5 132.5t148.5 49.5q65 0 116 -27.5t80.5 -74t29.5 -104.5q0 -68 -39.5 -129.5t-117.5 -137.5l-152 -147h322v-91h-473z" />
    <glyph glyph-name="uni0033" unicode="3" horiz-adv-x="613" 
d="M50 143l80 45q21 -51 64 -78.5t101 -27.5q75 0 113.5 33.5t38.5 83.5q0 55 -42.5 89t-121.5 34h-73v83h73q57 0 97.5 28.5t40.5 77.5q0 43 -33.5 75t-91.5 32q-57 0 -98 -27.5t-59 -77.5l-79 44q29 71 91 112.5t152 41.5q64 0 113.5 -24.5t78 -68t28.5 -99.5
q0 -46 -25 -83.5t-75 -62.5q59 -22 93.5 -68t34.5 -111q0 -59 -30.5 -105.5t-86 -73t-132.5 -26.5q-91 0 -157 41.5t-95 112.5z" />
    <glyph glyph-name="uni0034" unicode="4" horiz-adv-x="606" 
d="M46 156v65l290 479h130v-456h95v-88h-95v-156h-97v156h-323zM157 244h212v352z" />
    <glyph glyph-name="uni0035" unicode="5" horiz-adv-x="626" 
d="M62 142l81 46q21 -51 63.5 -78.5t100.5 -27.5q71 0 112.5 39.5t41.5 100.5q0 62 -43 100.5t-114 38.5q-50 0 -87.5 -17.5t-66.5 -46.5l-56 25l23 378h401v-97h-317l-13 -193q58 43 145 43q68 0 120 -30t81.5 -82.5t29.5 -118.5q0 -67 -31.5 -120t-88 -83t-131.5 -30
q-87 0 -153 40t-98 113z" />
    <glyph glyph-name="uni0036" unicode="6" horiz-adv-x="627" 
d="M62 277q0 115 52 208t146 152.5t218 73.5l15 -91q-150 -21 -228.5 -91.5t-98.5 -174.5q29 43 76.5 65t103.5 22q62 0 111.5 -28t78.5 -77t29 -114q0 -66 -32 -118.5t-86.5 -83.5t-124.5 -31q-78 0 -136.5 34t-91 98.5t-32.5 155.5zM170 215q0 -41 20.5 -72t54 -48
t72.5 -17q66 0 107 40t41 99q0 62 -39 99t-104 37q-66 0 -109 -38.5t-43 -99.5z" />
    <glyph glyph-name="uni0037" unicode="7" horiz-adv-x="548" 
d="M146 0l246 601h-355v99h468v-65l-248 -635h-111z" />
    <glyph glyph-name="uni0038" unicode="8" horiz-adv-x="645" 
d="M66 198q0 56 30.5 102.5t85.5 73.5q-46 24 -71 62t-25 84q0 55 29 98t82 68t125 25q71 0 122.5 -25t80 -68t28.5 -98q0 -45 -24 -83t-68 -63q56 -26 86.5 -72.5t30.5 -103.5q0 -61 -31 -108t-88 -74t-137 -27q-79 0 -136.5 27t-88.5 74t-31 108zM188 515
q0 -50 39.5 -77.5t94.5 -27.5q54 0 91.5 27.5t37.5 77.5t-37.5 77.5t-91.5 27.5q-55 0 -94.5 -27.5t-39.5 -77.5zM169 203q0 -59 43.5 -91t109.5 -32q67 0 110.5 32t43.5 91q0 65 -43.5 98.5t-110.5 33.5q-66 0 -109.5 -33.5t-43.5 -98.5z" />
    <glyph glyph-name="uni0039" unicode="9" horiz-adv-x="626" 
d="M62 478q0 66 32 118.5t87 83.5t124 31q78 0 136.5 -34t90.5 -98t32 -156q0 -115 -52 -208t-145.5 -152.5t-218.5 -73.5l-14 91q150 21 228 91.5t99 175.5q-29 -43 -76.5 -65.5t-103.5 -22.5q-62 0 -111.5 28t-78.5 77.5t-29 113.5zM161 483q0 -61 39.5 -98.5t103.5 -37.5
q66 0 109 38.5t43 99.5q0 42 -20.5 72.5t-53.5 47.5t-72 17q-67 0 -108 -40t-41 -99z" />
    <glyph glyph-name="uni0030.lt" horiz-adv-x="600" 
d="M45 350q0 115 31.5 195.5t89 123t134.5 42.5q78 0 135 -42.5t88.5 -123t31.5 -195.5q0 -114 -31.5 -195t-88.5 -123.5t-135 -42.5q-77 0 -134.5 42.5t-89 123.5t-31.5 195zM149 350q0 -140 43 -205t108 -65t108 65t43 205t-43 205t-108 65t-108 -65t-43 -205z" />
    <glyph glyph-name="uni0031.lt" horiz-adv-x="600" 
d="M287 0v584l-176 -104l-45 80l240 140h81v-700h-100z" />
    <glyph glyph-name="uni0032.lt" horiz-adv-x="600" 
d="M59 0v65l233 233q49 49 76 83.5t37.5 62.5t10.5 57q0 32 -16.5 58.5t-45 42t-64.5 15.5q-111 0 -142 -120l-87 32q22 83 84 132.5t148 49.5q64 0 115 -27.5t81 -74t30 -104.5q0 -68 -41 -129t-118 -138l-148 -147h320v-91h-473z" />
    <glyph glyph-name="uni0033.lt" horiz-adv-x="600" 
d="M43 143l80 45q20 -51 61 -78.5t98 -27.5q73 0 112.5 33.5t39.5 83.5q0 55 -41 89t-117 34h-73v83h73q56 0 95.5 28.5t39.5 77.5q0 43 -33.5 75t-91.5 32q-55 0 -94.5 -27.5t-56.5 -77.5l-79 44q29 71 89 112.5t148 41.5q62 0 112 -24.5t79 -68t29 -99.5
q0 -46 -25.5 -83.5t-75.5 -62.5q59 -22 92 -68t33 -111q0 -59 -30.5 -105.5t-86 -73t-131.5 -26.5q-89 0 -153 41.5t-93 112.5z" />
    <glyph glyph-name="uni0034.lt" horiz-adv-x="600" 
d="M47 156v65l280 479h130v-456h90v-88h-90v-156h-100v156h-310zM156 244h201v343z" />
    <glyph glyph-name="uni0035.lt" horiz-adv-x="600" 
d="M52 142l81 46q20 -51 61 -78.5t97 -27.5q68 0 110 39.5t42 100.5q0 62 -42 100.5t-109 38.5q-49 0 -86 -17.5t-66 -46.5l-56 25l24 378h394v-97h-311l-13 -193q56 43 142 43q65 0 116.5 -30t81 -82.5t29.5 -118.5t-31.5 -119t-87.5 -83.5t-131 -30.5q-85 0 -149.5 40
t-95.5 113z" />
    <glyph glyph-name="uni0036.lt" horiz-adv-x="600" 
d="M55 275q0 85 29 159.5t83 133t129 96t167 47.5l15 -91q-148 -21 -225 -91t-97 -174q29 42 74.5 64t100.5 22q59 0 107.5 -28t77.5 -77t29 -114q0 -66 -32 -118.5t-85.5 -83.5t-120.5 -31q-75 0 -132 33.5t-88.5 97.5t-31.5 155zM160 215q0 -41 20 -72t52.5 -48t69.5 -17
q41 0 73.5 18.5t51 50t18.5 70.5q0 62 -39 99t-99 37q-63 0 -105 -38.5t-42 -99.5z" />
    <glyph glyph-name="uni0037.lt" horiz-adv-x="600" 
d="M171 0l246 601h-356v99h470v-65l-249 -635h-111z" />
    <glyph glyph-name="uni0038.lt" horiz-adv-x="600" 
d="M51 198q0 59 31 104.5t88 70.5q-48 23 -74.5 61t-26.5 86q0 53 28 96t80 69t123 26q70 0 120.5 -26t78 -69t27.5 -96q0 -47 -25.5 -85t-71.5 -61q57 -25 88.5 -71t31.5 -105q0 -58 -30 -105.5t-86 -75.5t-133 -28t-133 28t-86 75.5t-30 105.5zM169 515q0 -50 38 -77.5
t93 -27.5q53 0 89.5 27.5t36.5 77.5t-36.5 77.5t-89.5 27.5q-55 0 -93 -27.5t-38 -77.5zM154 203q0 -55 41.5 -89t104.5 -34t104.5 34t41.5 89q0 62 -41.5 97t-104.5 35t-104.5 -35t-41.5 -97z" />
    <glyph glyph-name="uni0039.lt" horiz-adv-x="600" 
d="M55 478q0 66 32 118.5t86 83.5t120 31q76 0 132.5 -33.5t88 -97t31.5 -155.5q0 -85 -29 -159.5t-83 -133t-129 -95.5t-167 -48l-15 91q148 21 225 91t97 174q-28 -42 -74 -64t-101 -22q-59 0 -107.5 28t-77.5 77.5t-29 113.5zM155 483q0 -61 39 -98.5t99 -37.5
q63 0 105 38.5t42 99.5q0 42 -20 72.5t-52 47.5t-70 17q-41 0 -73.5 -18.5t-51 -49.5t-18.5 -71z" />
    <glyph glyph-name="uni1401" unicode="&#x1401;" horiz-adv-x="701" 
d="M323 -5l-303 705h661l-302 -705h-56zM165 609l186 -443l183 443h-369z" />
    <glyph glyph-name="uni1402" unicode="&#x1402;" horiz-adv-x="701" 
d="M20 0l303 705h56l302 -705h-661zM165 91h369l-183 443zM243 877q0 42 30 71.5t78 29.5t78 -29.5t30 -71.5q0 -43 -30 -72.5t-78 -29.5t-78 29.5t-30 72.5zM304 877q0 -21 13 -34.5t34 -13.5t34 13.5t13 34.5q0 20 -13 33.5t-34 13.5t-34 -13.5t-13 -33.5z" />
    <glyph glyph-name="uni1403" unicode="&#x1403;" horiz-adv-x="701" 
d="M20 0l303 705h56l302 -705h-661zM165 91h369l-183 443z" />
    <glyph glyph-name="uni1404" unicode="&#x1404;" horiz-adv-x="701" 
d="M20 0l303 705h56l302 -705h-661zM165 91h369l-183 443zM289 860q0 26 17.5 43.5t44.5 17.5t44.5 -17.5t17.5 -43.5t-17.5 -43.5t-44.5 -17.5t-44.5 17.5t-17.5 43.5z" />
    <glyph glyph-name="uni1405" unicode="&#x1405;" horiz-adv-x="674" 
d="M110 -11v722l537 -333v-56zM206 540v-379l312 189z" />
    <glyph glyph-name="uni1406" unicode="&#x1406;" horiz-adv-x="674" 
d="M96 860q0 26 17.5 43.5t44.5 17.5t44.5 -17.5t17.5 -43.5t-17.5 -43.5t-44.5 -17.5t-44.5 17.5t-17.5 43.5zM110 -11v722l537 -333v-56zM206 540v-379l312 189z" />
    <glyph glyph-name="uni140A" unicode="&#x140a;" horiz-adv-x="674" 
d="M27 322v56l538 333v-722zM156 350l312 -188v377z" />
    <glyph glyph-name="uni140B" unicode="&#x140b;" horiz-adv-x="674" 
d="M27 322v56l538 333v-722zM156 350l312 -188v377zM454 860q0 26 17.5 43.5t44.5 17.5t44.5 -17.5t17.5 -43.5t-17.5 -43.5t-44.5 -17.5t-44.5 17.5t-17.5 43.5z" />
    <glyph glyph-name="uni142F" unicode="&#x142f;" horiz-adv-x="701" 
d="M323 -5l-303 705h107l224 -534l221 534h109l-302 -705h-56z" />
    <glyph glyph-name="uni1430" unicode="&#x1430;" horiz-adv-x="701" 
d="M20 0l302 705h56l303 -705h-105l-225 534l-221 -534h-110zM243 877q0 42 30 71.5t78 29.5t78 -29.5t30 -71.5q0 -43 -30 -72.5t-78 -29.5t-78 29.5t-30 72.5zM304 877q0 -21 13 -34.5t34 -13.5t34 13.5t13 34.5q0 20 -13 33.5t-34 13.5t-34 -13.5t-13 -33.5z" />
    <glyph glyph-name="uni1431" unicode="&#x1431;" horiz-adv-x="701" 
d="M20 0l302 705h56l303 -705h-105l-225 534l-221 -534h-110z" />
    <glyph glyph-name="uni1432" unicode="&#x1432;" horiz-adv-x="701" 
d="M20 0l302 705h56l303 -705h-105l-225 534l-221 -534h-110zM289 860q0 26 17.5 43.5t44.5 17.5t44.5 -17.5t17.5 -43.5t-17.5 -43.5t-44.5 -17.5t-44.5 17.5t-17.5 43.5z" />
    <glyph glyph-name="uni1433" unicode="&#x1433;" horiz-adv-x="652" 
d="M87 -11v118l408 243l-408 244v117l538 -333v-56z" />
    <glyph glyph-name="uni1434" unicode="&#x1434;" horiz-adv-x="652" 
d="M87 -11v118l408 243l-408 244v117l538 -333v-56zM96 860q0 26 17.5 43.5t44.5 17.5t44.5 -17.5t17.5 -43.5t-17.5 -43.5t-44.5 -17.5t-44.5 17.5t-17.5 43.5z" />
    <glyph glyph-name="uni1438" unicode="&#x1438;" horiz-adv-x="652" 
d="M27 322v55l538 334v-119l-408 -243l408 -244v-116z" />
    <glyph glyph-name="uni1439" unicode="&#x1439;" horiz-adv-x="652" 
d="M27 322v55l538 334v-119l-408 -243l408 -244v-116zM431 860q0 26 17.5 43.5t44.5 17.5t44.5 -17.5t17.5 -43.5t-17.5 -43.5t-44.5 -17.5t-44.5 17.5t-17.5 43.5z" />
    <glyph glyph-name="uni1449" unicode="&#x1449;" horiz-adv-x="437" 
d="M29 455v45l337 209v-100l-220 -131l220 -130v-101z" />
    <glyph glyph-name="uni144C" unicode="&#x144c;" horiz-adv-x="738" 
d="M103 267v433h100v-428q0 -91 45.5 -140t120.5 -49t121 49t46 140v428h100v-433q0 -85 -34 -147.5t-94 -96.5t-139 -34q-78 0 -138 34t-94 96.5t-34 147.5z" />
    <glyph glyph-name="uni144D" unicode="&#x144d;" horiz-adv-x="738" 
d="M103 0v433q0 85 34 147.5t94 96.5t138 34q79 0 139 -34t94 -96.5t34 -147.5v-433h-100v428q0 91 -46 140t-121 49t-120.5 -49t-45.5 -140v-428h-100zM261 877q0 42 30 71.5t78 29.5t78 -29.5t30 -71.5q0 -43 -30 -72.5t-78 -29.5t-78 29.5t-30 72.5zM322 877
q0 -21 13 -34.5t34 -13.5t34 13.5t13 34.5q0 20 -13 33.5t-34 13.5t-34 -13.5t-13 -33.5z" />
    <glyph glyph-name="uni144E" unicode="&#x144e;" horiz-adv-x="738" 
d="M103 0v433q0 85 34 147.5t94 96.5t138 34q79 0 139 -34t94 -96.5t34 -147.5v-433h-100v428q0 91 -46 140t-121 49t-120.5 -49t-45.5 -140v-428h-100z" />
    <glyph glyph-name="uni144F" unicode="&#x144f;" horiz-adv-x="738" 
d="M103 0v433q0 85 34 147.5t94 96.5t138 34q79 0 139 -34t94 -96.5t34 -147.5v-433h-100v428q0 91 -46 140t-121 49t-120.5 -49t-45.5 -140v-428h-100zM307 860q0 26 17.5 43.5t44.5 17.5t44.5 -17.5t17.5 -43.5t-17.5 -43.5t-44.5 -17.5t-44.5 17.5t-17.5 43.5z" />
    <glyph glyph-name="uni1450" unicode="&#x1450;" horiz-adv-x="627" 
d="M87 0v91h106q78 0 135.5 31.5t88.5 89.5t31 138t-31 138t-88.5 89.5t-135.5 31.5h-106v91h111q101 0 180.5 -42t125 -120t45.5 -188q0 -109 -45.5 -187.5t-125 -120.5t-180.5 -42h-111z" />
    <glyph glyph-name="uni1451" unicode="&#x1451;" horiz-adv-x="627" 
d="M87 0v91h106q78 0 135.5 31.5t88.5 89.5t31 138t-31 138t-88.5 89.5t-135.5 31.5h-106v91h111q101 0 180.5 -42t125 -120t45.5 -188q0 -109 -45.5 -187.5t-125 -120.5t-180.5 -42h-111zM167 860q0 26 17.5 43.5t44.5 17.5t44.5 -17.5t17.5 -43.5t-17.5 -43.5t-44.5 -17.5
t-44.5 17.5t-17.5 43.5z" />
    <glyph glyph-name="uni1455" unicode="&#x1455;" horiz-adv-x="627" 
d="M78 350q0 110 45.5 188t125 120t180.5 42h111v-91h-106q-78 0 -135 -31.5t-88.5 -89.5t-31.5 -138t31.5 -138t88.5 -89.5t135 -31.5h106v-91h-111q-101 0 -180.5 42t-125 120.5t-45.5 187.5z" />
    <glyph glyph-name="uni1456" unicode="&#x1456;" horiz-adv-x="627" 
d="M78 350q0 110 45.5 188t125 120t180.5 42h111v-91h-106q-78 0 -135 -31.5t-88.5 -89.5t-31.5 -138t31.5 -138t88.5 -89.5t135 -31.5h106v-91h-111q-101 0 -180.5 42t-125 120.5t-45.5 187.5zM336 860q0 26 17.5 43.5t44.5 17.5t44.5 -17.5t17.5 -43.5t-17.5 -43.5
t-44.5 -17.5t-44.5 17.5t-17.5 43.5z" />
    <glyph glyph-name="uni1466" unicode="&#x1466;" horiz-adv-x="436" 
d="M59 478q0 68 31 117.5t84.5 77t120.5 27.5h73v-84h-67q-71 0 -111.5 -38t-40.5 -100t40.5 -100.5t111.5 -38.5h67v-84h-73q-67 0 -120.5 27.5t-84.5 77.5t-31 118z" />
    <glyph glyph-name="uni146B" unicode="&#x146b;" horiz-adv-x="677" 
d="M74 452q0 73 32.5 131.5t89.5 93t129 34.5q73 0 129 -33.5t88 -95t32 -145.5v-437h-98v291q-26 -43 -71.5 -67.5t-99.5 -24.5q-64 0 -116.5 33.5t-83.5 91t-31 128.5zM173 452q0 -47 20 -83.5t54.5 -57.5t77.5 -21q44 0 78.5 21t54.5 57.5t20 83.5q0 48 -20 85.5
t-54.5 59.5t-78.5 22q-43 0 -77.5 -22t-54.5 -59.5t-20 -85.5z" />
    <glyph glyph-name="uni146C" unicode="&#x146c;" horiz-adv-x="677" 
d="M103 0v437q0 84 32 145.5t88.5 95t128.5 33.5q73 0 129.5 -34.5t89 -93t32.5 -131.5q0 -71 -31 -128.5t-83.5 -91t-116.5 -33.5q-53 0 -99 24.5t-72 67.5v-291h-98zM199 452q0 -47 20 -83.5t54.5 -57.5t77.5 -21q44 0 78.5 21t54.5 57.5t20 83.5q0 48 -20 85.5
t-54.5 59.5t-78.5 22q-43 0 -77.5 -22t-54.5 -59.5t-20 -85.5zM244 877q0 42 30 71.5t78 29.5t78 -29.5t30 -71.5q0 -43 -30 -72.5t-78 -29.5t-78 29.5t-30 72.5zM305 877q0 -21 13 -34.5t34 -13.5t34 13.5t13 34.5q0 20 -13 33.5t-34 13.5t-34 -13.5t-13 -33.5z" />
    <glyph glyph-name="uni146D" unicode="&#x146d;" horiz-adv-x="677" 
d="M103 0v437q0 84 32 145.5t88.5 95t128.5 33.5q73 0 129.5 -34.5t89 -93t32.5 -131.5q0 -71 -31 -128.5t-83.5 -91t-116.5 -33.5q-53 0 -99 24.5t-72 67.5v-291h-98zM199 452q0 -47 20 -83.5t54.5 -57.5t77.5 -21q44 0 78.5 21t54.5 57.5t20 83.5q0 48 -20 85.5
t-54.5 59.5t-78.5 22q-43 0 -77.5 -22t-54.5 -59.5t-20 -85.5z" />
    <glyph glyph-name="uni146E" unicode="&#x146e;" horiz-adv-x="677" 
d="M103 0v437q0 84 32 145.5t88.5 95t128.5 33.5q73 0 129.5 -34.5t89 -93t32.5 -131.5q0 -71 -31 -128.5t-83.5 -91t-116.5 -33.5q-53 0 -99 24.5t-72 67.5v-291h-98zM199 452q0 -47 20 -83.5t54.5 -57.5t77.5 -21q44 0 78.5 21t54.5 57.5t20 83.5q0 48 -20 85.5
t-54.5 59.5t-78.5 22q-43 0 -77.5 -22t-54.5 -59.5t-20 -85.5zM290 860q0 26 17.5 43.5t44.5 17.5t44.5 -17.5t17.5 -43.5t-17.5 -43.5t-44.5 -17.5t-44.5 17.5t-17.5 43.5z" />
    <glyph glyph-name="uni146F" unicode="&#x146f;" horiz-adv-x="677" 
d="M74 248q0 72 31 129t83.5 90.5t116.5 33.5q54 0 99.5 -24.5t71.5 -67.5v291h98v-437q0 -83 -32 -145t-88 -95.5t-129 -33.5q-72 0 -129 34.5t-89.5 93.5t-32.5 131zM173 248q0 -47 20 -85t54.5 -60t77.5 -22q44 0 78.5 22t54.5 60t20 85t-20 83.5t-54.5 57.5t-78.5 21
q-43 0 -77.5 -21t-54.5 -57.5t-20 -83.5z" />
    <glyph glyph-name="uni1470" unicode="&#x1470;" horiz-adv-x="677" 
d="M74 248q0 72 31 129t83.5 90.5t116.5 33.5q54 0 99.5 -24.5t71.5 -67.5v291h98v-437q0 -83 -32 -145t-88 -95.5t-129 -33.5q-72 0 -129 34.5t-89.5 93.5t-32.5 131zM173 248q0 -47 20 -85t54.5 -60t77.5 -22q44 0 78.5 22t54.5 60t20 85t-20 83.5t-54.5 57.5t-78.5 21
q-43 0 -77.5 -21t-54.5 -57.5t-20 -83.5zM464 860q0 26 17.5 43.5t44.5 17.5t44.5 -17.5t17.5 -43.5t-17.5 -43.5t-44.5 -17.5t-44.5 17.5t-17.5 43.5z" />
    <glyph glyph-name="uni1472" unicode="&#x1472;" horiz-adv-x="677" 
d="M103 263v437h98v-291q26 43 72 67.5t99 24.5q64 0 116.5 -33.5t83.5 -90.5t31 -129t-32.5 -131t-89 -93.5t-129.5 -34.5q-72 0 -128.5 33.5t-88.5 95.5t-32 145zM199 248q0 -47 20 -85t54.5 -60t77.5 -22q44 0 78.5 22t54.5 60t20 85t-20 83.5t-54.5 57.5t-78.5 21
q-43 0 -77.5 -21t-54.5 -57.5t-20 -83.5z" />
    <glyph glyph-name="uni1473" unicode="&#x1473;" horiz-adv-x="677" 
d="M89 860q0 26 17.5 43.5t44.5 17.5t44.5 -17.5t17.5 -43.5t-17.5 -43.5t-44.5 -17.5t-44.5 17.5t-17.5 43.5zM103 263v437h98v-291q26 43 72 67.5t99 24.5q64 0 116.5 -33.5t83.5 -90.5t31 -129t-32.5 -131t-89 -93.5t-129.5 -34.5q-72 0 -128.5 33.5t-88.5 95.5t-32 145z
M199 248q0 -47 20 -85t54.5 -60t77.5 -22q44 0 78.5 22t54.5 60t20 85t-20 83.5t-54.5 57.5t-78.5 21q-43 0 -77.5 -21t-54.5 -57.5t-20 -83.5z" />
    <glyph glyph-name="uni1483" unicode="&#x1483;" horiz-adv-x="471" 
d="M69 436v264h88v-166q17 26 45 40.5t59 14.5q44 0 78 -22t53.5 -60t19.5 -86q0 -49 -23 -88.5t-62 -62.5t-89 -23q-49 0 -87.5 24t-60 66.5t-21.5 98.5zM154 422q0 -41 24.5 -66t60.5 -25t60.5 25t24.5 66q0 39 -24.5 64.5t-60.5 25.5t-60.5 -25.5t-24.5 -64.5z" />
    <glyph glyph-name="uni1489" unicode="&#x1489;" horiz-adv-x="669" 
d="M77 335v122q0 77 30.5 134t85.5 88.5t128 31.5q74 0 129 -31.5t85.5 -88.5t30.5 -134v-457h-98v448q0 80 -39.5 125.5t-107.5 45.5q-67 0 -106.5 -45.5t-39.5 -125.5v-113h-98z" />
    <glyph glyph-name="uni148A" unicode="&#x148a;" horiz-adv-x="669" 
d="M103 0v457q0 77 30.5 134t85.5 88.5t128 31.5q74 0 129 -31.5t85.5 -88.5t30.5 -134v-122h-99v113q0 80 -39 125.5t-107 45.5q-67 0 -106.5 -45.5t-39.5 -125.5v-448h-98zM239 877q0 42 30 71.5t78 29.5t78 -29.5t30 -71.5q0 -43 -30 -72.5t-78 -29.5t-78 29.5t-30 72.5z
M300 877q0 -21 13 -34.5t34 -13.5t34 13.5t13 34.5q0 20 -13 33.5t-34 13.5t-34 -13.5t-13 -33.5z" />
    <glyph glyph-name="uni148B" unicode="&#x148b;" horiz-adv-x="669" 
d="M103 0v457q0 77 30.5 134t85.5 88.5t128 31.5q74 0 129 -31.5t85.5 -88.5t30.5 -134v-122h-99v113q0 80 -39 125.5t-107 45.5q-67 0 -106.5 -45.5t-39.5 -125.5v-448h-98z" />
    <glyph glyph-name="uni148C" unicode="&#x148c;" horiz-adv-x="669" 
d="M103 0v457q0 77 30.5 134t85.5 88.5t128 31.5q74 0 129 -31.5t85.5 -88.5t30.5 -134v-122h-99v113q0 80 -39 125.5t-107 45.5q-67 0 -106.5 -45.5t-39.5 -125.5v-448h-98zM285 860q0 26 17.5 43.5t44.5 17.5t44.5 -17.5t17.5 -43.5t-17.5 -43.5t-44.5 -17.5t-44.5 17.5
t-17.5 43.5z" />
    <glyph glyph-name="uni148D" unicode="&#x148d;" horiz-adv-x="669" 
d="M77 243v122h98v-113q0 -79 39.5 -125t106.5 -46q68 0 107.5 46t39.5 125v448h98v-457q0 -76 -30.5 -133.5t-85.5 -89t-129 -31.5q-73 0 -128 31.5t-85.5 89t-30.5 133.5z" />
    <glyph glyph-name="uni148E" unicode="&#x148e;" horiz-adv-x="669" 
d="M77 243v122h98v-113q0 -79 39.5 -125t106.5 -46q68 0 107.5 46t39.5 125v448h98v-457q0 -76 -30.5 -133.5t-85.5 -89t-129 -31.5q-73 0 -128 31.5t-85.5 89t-30.5 133.5zM455 860q0 26 17.5 43.5t44.5 17.5t44.5 -17.5t17.5 -43.5t-17.5 -43.5t-44.5 -17.5t-44.5 17.5
t-17.5 43.5z" />
    <glyph glyph-name="uni1490" unicode="&#x1490;" horiz-adv-x="669" 
d="M103 243v457h98v-448q0 -79 39.5 -125t106.5 -46q68 0 107 46t39 125v113h99v-122q0 -76 -30.5 -133.5t-85.5 -89t-129 -31.5q-73 0 -128 31.5t-85.5 89t-30.5 133.5z" />
    <glyph glyph-name="uni1491" unicode="&#x1491;" horiz-adv-x="669" 
d="M89 860q0 26 17.5 43.5t44.5 17.5t44.5 -17.5t17.5 -43.5t-17.5 -43.5t-44.5 -17.5t-44.5 17.5t-17.5 43.5zM103 243v457h98v-448q0 -79 39.5 -125t106.5 -46q68 0 107 46t39 125v113h99v-122q0 -76 -30.5 -133.5t-85.5 -89t-129 -31.5q-73 0 -128 31.5t-85.5 89
t-30.5 133.5z" />
    <glyph glyph-name="uni14A1" unicode="&#x14a1;" horiz-adv-x="474" 
d="M69 434v266h88v-262q0 -49 22.5 -77.5t62.5 -28.5q39 0 61.5 28.5t22.5 77.5v56h89v-60q0 -86 -47 -136t-126 -50t-126 50t-47 136z" />
    <glyph glyph-name="uni14A3" unicode="&#x14a3;" horiz-adv-x="560" 
d="M350 0v609h-312v91h412v-700h-100z" />
    <glyph glyph-name="uni14A4" unicode="&#x14a4;" horiz-adv-x="560" 
d="M110 0v700h412v-91h-312v-609h-100zM213 877q0 42 30 71.5t78 29.5t78 -29.5t30 -71.5q0 -43 -30 -72.5t-78 -29.5t-78 29.5t-30 72.5zM274 877q0 -21 13 -34.5t34 -13.5t34 13.5t13 34.5q0 20 -13 33.5t-34 13.5t-34 -13.5t-13 -33.5z" />
    <glyph glyph-name="uni14A5" unicode="&#x14a5;" horiz-adv-x="560" 
d="M110 0v700h412v-91h-312v-609h-100z" />
    <glyph glyph-name="uni14A6" unicode="&#x14a6;" horiz-adv-x="560" 
d="M110 0v700h412v-91h-312v-609h-100zM259 860q0 26 17.5 43.5t44.5 17.5t44.5 -17.5t17.5 -43.5t-17.5 -43.5t-44.5 -17.5t-44.5 17.5t-17.5 43.5z" />
    <glyph glyph-name="uni14A7" unicode="&#x14a7;" horiz-adv-x="560" 
d="M38 0v91h312v609h100v-700h-412z" />
    <glyph glyph-name="uni14A8" unicode="&#x14a8;" horiz-adv-x="560" 
d="M38 0v91h312v609h100v-700h-412zM338 860q0 26 17.5 43.5t44.5 17.5t44.5 -17.5t17.5 -43.5t-17.5 -43.5t-44.5 -17.5t-44.5 17.5t-17.5 43.5z" />
    <glyph glyph-name="uni14AA" unicode="&#x14aa;" horiz-adv-x="560" 
d="M110 0v700h100v-609h312v-91h-412z" />
    <glyph glyph-name="uni14AB" unicode="&#x14ab;" horiz-adv-x="560" 
d="M98 860q0 26 17.5 43.5t44.5 17.5t44.5 -17.5t17.5 -43.5t-17.5 -43.5t-44.5 -17.5t-44.5 17.5t-17.5 43.5zM110 0v700h100v-609h312v-91h-412z" />
    <glyph glyph-name="uni14BB" unicode="&#x14bb;" horiz-adv-x="370" 
d="M74 255v445h88v-362h179v-83h-267z" />
    <glyph glyph-name="uni14C0" unicode="&#x14c0;" horiz-adv-x="796" 
d="M38 399v91h417q84 0 143.5 -34t91.5 -91t32 -127t-32 -126.5t-88 -89.5t-130 -33q-66 0 -120.5 31t-87 84t-32.5 119q0 55 22.5 101.5t61.5 74.5h-278zM330 240q0 -72 41 -115.5t104 -43.5q64 0 105 43.5t41 115.5q0 47 -19.5 82.5t-52.5 55.5t-74 20q-40 0 -73 -20
t-52.5 -55.5t-19.5 -82.5z" />
    <glyph glyph-name="uni14C1" unicode="&#x14c1;" horiz-adv-x="796" 
d="M74 238q0 70 32 127t92 91t143 34h417v-91h-278q39 -28 61.5 -74.5t22.5 -101.5q0 -66 -32.5 -119t-86.5 -84t-121 -31q-73 0 -129.5 33t-88.5 89.5t-32 126.5zM175 240q0 -72 41 -115.5t104 -43.5q64 0 105 43.5t41 115.5q0 47 -19.5 82.5t-52.5 55.5t-74 20
q-40 0 -73 -20t-52.5 -55.5t-19.5 -82.5zM270 667q0 42 30 71.5t78 29.5t78 -29.5t30 -71.5q0 -43 -30 -72.5t-78 -29.5t-78 29.5t-30 72.5zM331 667q0 -21 13 -34.5t34 -13.5t34 13.5t13 34.5q0 20 -13 33.5t-34 13.5t-34 -13.5t-13 -33.5z" />
    <glyph glyph-name="uni14C2" unicode="&#x14c2;" horiz-adv-x="796" 
d="M74 238q0 70 32 127t92 91t143 34h417v-91h-278q39 -28 61.5 -74.5t22.5 -101.5q0 -66 -32.5 -119t-86.5 -84t-121 -31q-73 0 -129.5 33t-88.5 89.5t-32 126.5zM175 240q0 -72 41 -115.5t104 -43.5q64 0 105 43.5t41 115.5q0 47 -19.5 82.5t-52.5 55.5t-74 20
q-40 0 -73 -20t-52.5 -55.5t-19.5 -82.5z" />
    <glyph glyph-name="uni14C3" unicode="&#x14c3;" horiz-adv-x="796" 
d="M74 238q0 70 32 127t92 91t143 34h417v-91h-278q39 -28 61.5 -74.5t22.5 -101.5q0 -66 -32.5 -119t-86.5 -84t-121 -31q-73 0 -129.5 33t-88.5 89.5t-32 126.5zM175 240q0 -72 41 -115.5t104 -43.5q64 0 105 43.5t41 115.5q0 47 -19.5 82.5t-52.5 55.5t-74 20
q-40 0 -73 -20t-52.5 -55.5t-19.5 -82.5zM316 650q0 26 17.5 43.5t44.5 17.5t44.5 -17.5t17.5 -43.5t-17.5 -43.5t-44.5 -17.5t-44.5 17.5t-17.5 43.5z" />
    <glyph glyph-name="uni14C4" unicode="&#x14c4;" horiz-adv-x="796" 
d="M38 0v91h278q-39 28 -61.5 74.5t-22.5 101.5q0 67 32.5 119.5t87 83.5t120.5 31q74 0 130 -33t88 -89.5t32 -126.5t-32 -127t-91.5 -91t-143.5 -34h-417zM330 250q0 -46 19.5 -82t52.5 -56t73 -20q41 0 74 20t52.5 55.5t19.5 82.5q0 72 -41 115.5t-105 43.5
q-63 0 -104 -43.5t-41 -115.5z" />
    <glyph glyph-name="uni14C5" unicode="&#x14c5;" horiz-adv-x="796" 
d="M38 0v91h278q-39 28 -61.5 74.5t-22.5 101.5q0 67 32.5 119.5t87 83.5t120.5 31q74 0 130 -33t88 -89.5t32 -126.5t-32 -127t-91.5 -91t-143.5 -34h-417zM330 250q0 -46 19.5 -82t52.5 -56t73 -20q41 0 74 20t52.5 55.5t19.5 82.5q0 72 -41 115.5t-105 43.5
q-63 0 -104 -43.5t-41 -115.5zM410 650q0 26 17.5 43.5t44.5 17.5t44.5 -17.5t17.5 -43.5t-17.5 -43.5t-44.5 -17.5t-44.5 17.5t-17.5 43.5z" />
    <glyph glyph-name="uni14C7" unicode="&#x14c7;" horiz-adv-x="796" 
d="M74 252q0 70 32 126.5t88.5 89.5t129.5 33q67 0 121 -31t86.5 -83.5t32.5 -119.5q0 -55 -22.5 -101.5t-61.5 -74.5h278v-91h-417q-83 0 -143 34t-92 91t-32 127zM175 250q0 -47 19.5 -82.5t52.5 -55.5t73 -20q41 0 74 20t52.5 56t19.5 82q0 72 -41 115.5t-105 43.5
q-63 0 -104 -43.5t-41 -115.5z" />
    <glyph glyph-name="uni14C8" unicode="&#x14c8;" horiz-adv-x="796" 
d="M74 252q0 70 32 126.5t88.5 89.5t129.5 33q67 0 121 -31t86.5 -83.5t32.5 -119.5q0 -55 -22.5 -101.5t-61.5 -74.5h278v-91h-417q-83 0 -143 34t-92 91t-32 127zM175 250q0 -47 19.5 -82.5t52.5 -55.5t73 -20q41 0 74 20t52.5 56t19.5 82q0 72 -41 115.5t-105 43.5
q-63 0 -104 -43.5t-41 -115.5zM262 650q0 26 17.5 43.5t44.5 17.5t44.5 -17.5t17.5 -43.5t-17.5 -43.5t-44.5 -17.5t-44.5 17.5t-17.5 43.5z" />
    <glyph glyph-name="uni14D0" unicode="&#x14d0;" horiz-adv-x="546" 
d="M59 535q0 48 22.5 87.5t62 63t89.5 23.5q48 0 85.5 -20.5t59 -55.5t21.5 -79q0 -34 -13.5 -62t-36.5 -47h172v-83h-271q-60 0 -102.5 23t-65.5 62.5t-23 87.5zM147 535q0 -40 26 -65.5t60 -25.5q38 0 62 25t24 65q0 41 -24 66t-62 25q-36 0 -61 -26t-25 -64z" />
    <glyph glyph-name="uni14D3" unicode="&#x14d3;" horiz-adv-x="736" 
d="M38 399v91h363q82 0 140.5 -32.5t90 -87.5t31.5 -125q0 -69 -31.5 -124.5t-90 -88t-140.5 -32.5h-81v91h75q82 0 124 45t42 109t-41.5 109t-124.5 45h-357z" />
    <glyph glyph-name="uni14D4" unicode="&#x14d4;" horiz-adv-x="736" 
d="M74 245q0 70 31.5 125t90.5 87.5t140 32.5h363v-91h-357q-83 0 -125 -45t-42 -109t42.5 -109t124.5 -45h74v-91h-80q-81 0 -140 32.5t-90.5 88t-31.5 124.5zM263 667q0 42 30 71.5t78 29.5t78 -29.5t30 -71.5q0 -43 -30 -72.5t-78 -29.5t-78 29.5t-30 72.5zM324 667
q0 -21 13 -34.5t34 -13.5t34 13.5t13 34.5q0 20 -13 33.5t-34 13.5t-34 -13.5t-13 -33.5z" />
    <glyph glyph-name="uni14D5" unicode="&#x14d5;" horiz-adv-x="736" 
d="M74 245q0 70 31.5 125t90.5 87.5t140 32.5h363v-91h-357q-83 0 -125 -45t-42 -109t42.5 -109t124.5 -45h74v-91h-80q-81 0 -140 32.5t-90.5 88t-31.5 124.5z" />
    <glyph glyph-name="uni14D6" unicode="&#x14d6;" horiz-adv-x="736" 
d="M74 245q0 70 31.5 125t90.5 87.5t140 32.5h363v-91h-357q-83 0 -125 -45t-42 -109t42.5 -109t124.5 -45h74v-91h-80q-81 0 -140 32.5t-90.5 88t-31.5 124.5zM309 650q0 26 17.5 43.5t44.5 17.5t44.5 -17.5t17.5 -43.5t-17.5 -43.5t-44.5 -17.5t-44.5 17.5t-17.5 43.5z
" />
    <glyph glyph-name="uni14D7" unicode="&#x14d7;" horiz-adv-x="736" 
d="M38 0v91h357q83 0 124.5 45t41.5 109t-42 109t-124 45h-75v91h81q82 0 140.5 -32.5t90 -87.5t31.5 -125q0 -69 -31.5 -124.5t-90 -88t-140.5 -32.5h-363z" />
    <glyph glyph-name="uni14D8" unicode="&#x14d8;" horiz-adv-x="736" 
d="M38 0v91h357q83 0 124.5 45t41.5 109t-42 109t-124 45h-75v91h81q82 0 140.5 -32.5t90 -87.5t31.5 -125q0 -69 -31.5 -124.5t-90 -88t-140.5 -32.5h-363zM299 650q0 26 17.5 43.5t44.5 17.5t44.5 -17.5t17.5 -43.5t-17.5 -43.5t-44.5 -17.5t-44.5 17.5t-17.5 43.5z" />
    <glyph glyph-name="uni14DA" unicode="&#x14da;" horiz-adv-x="736" 
d="M74 245q0 70 31.5 125t90.5 87.5t140 32.5h80v-91h-74q-82 0 -124.5 -45t-42.5 -109t42 -109t125 -45h357v-91h-363q-81 0 -140 32.5t-90.5 88t-31.5 124.5z" />
    <glyph glyph-name="uni14DB" unicode="&#x14db;" horiz-adv-x="736" 
d="M74 245q0 70 31.5 125t90.5 87.5t140 32.5h80v-91h-74q-82 0 -124.5 -45t-42.5 -109t42 -109t125 -45h357v-91h-363q-81 0 -140 32.5t-90.5 88t-31.5 124.5zM314 650q0 26 17.5 43.5t44.5 17.5t44.5 -17.5t17.5 -43.5t-17.5 -43.5t-44.5 -17.5t-44.5 17.5t-17.5 43.5z
" />
    <glyph glyph-name="uni14EA" unicode="&#x14ea;" horiz-adv-x="496" 
d="M59 531q0 49 22 87t63 60t96 22h49v-84h-43q-47 0 -72 -24.5t-25 -60.5q0 -37 25 -61.5t72 -24.5h224v-83h-230q-55 0 -96 22t-63 60.5t-22 86.5z" />
    <glyph glyph-name="uni14ED" unicode="&#x14ed;" horiz-adv-x="587" 
d="M77 586v114h100v-106q0 -121 58 -184t170 -63h85v-347h-100v256q-149 2 -231 88t-82 242z" />
    <glyph glyph-name="uni14EE" unicode="&#x14ee;" horiz-adv-x="587" 
d="M97 0v347h85q111 0 169.5 63t58.5 184v106h100v-114q0 -157 -82.5 -243.5t-230.5 -86.5v-256h-100zM352 877q0 42 30 71.5t78 29.5t78 -29.5t30 -71.5q0 -43 -30 -72.5t-78 -29.5t-78 29.5t-30 72.5zM413 877q0 -21 13 -34.5t34 -13.5t34 13.5t13 34.5q0 20 -13 33.5
t-34 13.5t-34 -13.5t-13 -33.5z" />
    <glyph glyph-name="uni14EF" unicode="&#x14ef;" horiz-adv-x="587" 
d="M97 0v347h85q111 0 169.5 63t58.5 184v106h100v-114q0 -157 -82.5 -243.5t-230.5 -86.5v-256h-100z" />
    <glyph glyph-name="uni14F0" unicode="&#x14f0;" horiz-adv-x="587" 
d="M97 0v347h85q111 0 169.5 63t58.5 184v106h100v-114q0 -157 -82.5 -243.5t-230.5 -86.5v-256h-100zM398 860q0 26 17.5 43.5t44.5 17.5t44.5 -17.5t17.5 -43.5t-17.5 -43.5t-44.5 -17.5t-44.5 17.5t-17.5 43.5z" />
    <glyph glyph-name="uni14F1" unicode="&#x14f1;" horiz-adv-x="587" 
d="M77 0v114q0 158 82.5 244t230.5 86v256h100v-347h-85q-112 0 -170 -62.5t-58 -184.5v-106h-100z" />
    <glyph glyph-name="uni14F2" unicode="&#x14f2;" horiz-adv-x="587" 
d="M77 0v114q0 158 82.5 244t230.5 86v256h100v-347h-85q-112 0 -170 -62.5t-58 -184.5v-106h-100zM378 860q0 26 17.5 43.5t44.5 17.5t44.5 -17.5t17.5 -43.5t-17.5 -43.5t-44.5 -17.5t-44.5 17.5t-17.5 43.5z" />
    <glyph glyph-name="uni14F4" unicode="&#x14f4;" horiz-adv-x="587" 
d="M97 353v347h100v-256q149 -1 231 -87.5t82 -242.5v-114h-100v106q0 122 -58.5 184.5t-169.5 62.5h-85z" />
    <glyph glyph-name="uni14F5" unicode="&#x14f5;" horiz-adv-x="587" 
d="M85 860q0 26 17.5 43.5t44.5 17.5t44.5 -17.5t17.5 -43.5t-17.5 -43.5t-44.5 -17.5t-44.5 17.5t-17.5 43.5zM97 353v347h100v-256q149 -1 231 -87.5t82 -242.5v-114h-100v106q0 122 -58.5 184.5t-169.5 62.5h-85z" />
    <glyph glyph-name="uni1505" unicode="&#x1505;" horiz-adv-x="418" 
d="M68 468v232h88v-151q98 -2 149 -57.5t51 -158.5v-78h-89v71q0 77 -33 109.5t-93 32.5h-73z" />
    <glyph glyph-name="uni1526" unicode="&#x1526;" horiz-adv-x="583" 
d="M59 265v64l280 371h125l-266 -345h276v-355h-100v265h-315z" />
    <glyph glyph-name="uni1527" unicode="&#x1527;" horiz-adv-x="583" 
d="M110 0v355h276l-266 345h124l281 -371v-64h-315v-265h-100zM104 877q0 42 30 71.5t78 29.5t78 -29.5t30 -71.5q0 -43 -30 -72.5t-78 -29.5t-78 29.5t-30 72.5zM165 877q0 -21 13 -34.5t34 -13.5t34 13.5t13 34.5q0 20 -13 33.5t-34 13.5t-34 -13.5t-13 -33.5z" />
    <glyph glyph-name="uni1528" unicode="&#x1528;" horiz-adv-x="583" 
d="M110 0v355h276l-266 345h124l281 -371v-64h-315v-265h-100z" />
    <glyph glyph-name="uni1529" unicode="&#x1529;" horiz-adv-x="583" 
d="M110 0v355h276l-266 345h124l281 -371v-64h-315v-265h-100zM150 860q0 26 17.5 43.5t44.5 17.5t44.5 -17.5t17.5 -43.5t-17.5 -43.5t-44.5 -17.5t-44.5 17.5t-17.5 43.5z" />
    <glyph glyph-name="uni152A" unicode="&#x152a;" horiz-adv-x="583" 
d="M59 371v64h315v265h100v-355h-276l266 -345h-125z" />
    <glyph glyph-name="uni152B" unicode="&#x152b;" horiz-adv-x="583" 
d="M59 371v64h315v265h100v-355h-276l266 -345h-125zM362 860q0 26 17.5 43.5t44.5 17.5t44.5 -17.5t17.5 -43.5t-17.5 -43.5t-44.5 -17.5t-44.5 17.5t-17.5 43.5z" />
    <glyph glyph-name="uni152D" unicode="&#x152d;" horiz-adv-x="583" 
d="M120 0l266 345h-276v355h100v-265h315v-64l-281 -371h-124z" />
    <glyph glyph-name="uni152E" unicode="&#x152e;" horiz-adv-x="583" 
d="M98 860q0 26 17.5 43.5t44.5 17.5t44.5 -17.5t17.5 -43.5t-17.5 -43.5t-44.5 -17.5t-44.5 17.5t-17.5 43.5zM120 0l266 345h-276v355h100v-265h315v-64l-281 -371h-124z" />
    <glyph glyph-name="uni153E" unicode="&#x153e;" horiz-adv-x="379" 
d="M76 255l150 205h-158v240h88v-157h190v-53l-165 -235h-105z" />
    <glyph glyph-name="uni1542" unicode="&#x1542;" horiz-adv-x="788" 
d="M80 248v242h99v-237q0 -83 38.5 -126.5t106.5 -43.5t106.5 43.5t38.5 126.5v237h282v-91h-184v-151q0 -78 -30 -136.5t-84.5 -90.5t-128.5 -32t-129 32t-85 90.5t-30 136.5z" />
    <glyph glyph-name="uni1543" unicode="&#x1543;" horiz-adv-x="788" 
d="M221 248v151h-183v91h282v-237q0 -83 38.5 -126.5t106.5 -43.5t106.5 43.5t38.5 126.5v237h98v-242q0 -78 -30 -136.5t-84.5 -90.5t-128.5 -32t-129 32t-85 90.5t-30 136.5z" />
    <glyph glyph-name="uni1544" unicode="&#x1544;" horiz-adv-x="788" 
d="M38 0v91h183v151q0 79 30 137t85 90t129 32t128.5 -32t84.5 -90t30 -137v-242h-98v237q0 83 -38.5 126.5t-106.5 43.5t-106.5 -43.5t-38.5 -126.5v-237h-282z" />
    <glyph glyph-name="uni1545" unicode="&#x1545;" horiz-adv-x="788" 
d="M80 0v242q0 79 30 137t85 90t129 32t128.5 -32t84.5 -90t30 -137v-151h184v-91h-282v237q0 83 -38.5 126.5t-106.5 43.5t-106.5 -43.5t-38.5 -126.5v-237h-99zM216 667q0 42 30 71.5t78 29.5t78 -29.5t30 -71.5q0 -43 -30 -72.5t-78 -29.5t-78 29.5t-30 72.5zM277 667
q0 -21 13 -34.5t34 -13.5t34 13.5t13 34.5q0 20 -13 33.5t-34 13.5t-34 -13.5t-13 -33.5z" />
    <glyph glyph-name="uni1546" unicode="&#x1546;" horiz-adv-x="788" 
d="M80 0v242q0 79 30 137t85 90t129 32t128.5 -32t84.5 -90t30 -137v-151h184v-91h-282v237q0 83 -38.5 126.5t-106.5 43.5t-106.5 -43.5t-38.5 -126.5v-237h-99z" />
    <glyph glyph-name="uni1547" unicode="&#x1547;" horiz-adv-x="788" 
d="M80 0v242q0 79 30 137t85 90t129 32t128.5 -32t84.5 -90t30 -137v-151h184v-91h-282v237q0 83 -38.5 126.5t-106.5 43.5t-106.5 -43.5t-38.5 -126.5v-237h-99zM262 650q0 26 17.5 43.5t44.5 17.5t44.5 -17.5t17.5 -43.5t-17.5 -43.5t-44.5 -17.5t-44.5 17.5t-17.5 43.5z
" />
    <glyph glyph-name="uni1548" unicode="&#x1548;" horiz-adv-x="600" 
d="M110 0v308h136q87 0 131 43t44 107q0 65 -44 108t-131 43h-136v91h145q80 0 140.5 -30.5t94 -85t33.5 -126.5q0 -71 -33.5 -125.5t-94 -84.5t-140.5 -30h-47v-218h-98z" />
    <glyph glyph-name="uni1549" unicode="&#x1549;" horiz-adv-x="600" 
d="M110 0v308h136q87 0 131 43t44 107q0 65 -44 108t-131 43h-136v91h145q80 0 140.5 -30.5t94 -85t33.5 -126.5q0 -71 -33.5 -125.5t-94 -84.5t-140.5 -30h-47v-218h-98zM159 860q0 26 17.5 43.5t44.5 17.5t44.5 -17.5t17.5 -43.5t-17.5 -43.5t-44.5 -17.5t-44.5 17.5
t-17.5 43.5z" />
    <glyph glyph-name="uni154B" unicode="&#x154b;" horiz-adv-x="600" 
d="M392 0v218h-48q-80 0 -140 30t-93.5 84.5t-33.5 125.5q0 72 33.5 126.5t93.5 85t140 30.5h146v-91h-136q-88 0 -132 -43t-44 -108q0 -64 44 -107t132 -43h136v-308h-98z" />
    <glyph glyph-name="uni154C" unicode="&#x154c;" horiz-adv-x="600" 
d="M392 0v218h-48q-80 0 -140 30t-93.5 84.5t-33.5 125.5q0 72 33.5 126.5t93.5 85t140 30.5h146v-91h-136q-88 0 -132 -43t-44 -108q0 -64 44 -107t132 -43h136v-308h-98zM316 860q0 26 17.5 43.5t44.5 17.5t44.5 -17.5t17.5 -43.5t-17.5 -43.5t-44.5 -17.5t-44.5 17.5
t-17.5 43.5z" />
    <glyph glyph-name="uni1550" unicode="&#x1550;" horiz-adv-x="395" 
d="M59 540q0 45 21.5 81.5t59.5 57.5t88 21h99v-83h-91q-42 0 -65 -21.5t-23 -55.5q0 -35 24 -56.5t64 -21.5h92v-207h-89v126q-87 2 -133.5 46.5t-46.5 112.5z" />
    <glyph glyph-name="uni1553" unicode="&#x1553;" horiz-adv-x="758" 
d="M343 -5l-227 424q-18 34 -28.5 65t-10.5 66q0 45 21 81.5t58.5 58t85.5 21.5q50 0 87.5 -21.5t59 -58t21.5 -81.5q0 -43 -20 -78t-52 -55.5t-69 -20.5q-24 0 -44 6l140 -265l264 563h108l-338 -705h-56zM163 552q0 -34 23 -57t58 -23t57.5 23t22.5 57q0 35 -22.5 58
t-57.5 23t-58 -23t-23 -58z" />
    <glyph glyph-name="uni1554" unicode="&#x1554;" horiz-adv-x="759" 
d="M77 150q0 35 10.5 66t28.5 65l227 424h56l338 -705h-108l-264 563l-140 -265q20 6 44 6q37 0 69 -20.5t52 -55.5t20 -78q0 -45 -21.5 -81.5t-59 -58t-87.5 -21.5q-48 0 -85.5 21.5t-58.5 58.5t-21 81zM163 148q0 -35 23 -58t58 -23t57.5 23t22.5 58t-22.5 57.5
t-57.5 22.5t-58 -22.5t-23 -57.5zM263 877q0 42 30 71.5t78 29.5t78 -29.5t30 -71.5q0 -43 -30 -72.5t-78 -29.5t-78 29.5t-30 72.5zM324 877q0 -21 13 -34.5t34 -13.5t34 13.5t13 34.5q0 20 -13 33.5t-34 13.5t-34 -13.5t-13 -33.5z" />
    <glyph glyph-name="uni1555" unicode="&#x1555;" horiz-adv-x="759" 
d="M77 150q0 35 10.5 66t28.5 65l227 424h56l338 -705h-108l-264 563l-140 -265q20 6 44 6q37 0 69 -20.5t52 -55.5t20 -78q0 -45 -21.5 -81.5t-59 -58t-87.5 -21.5q-48 0 -85.5 21.5t-58.5 58.5t-21 81zM163 148q0 -35 23 -58t58 -23t57.5 23t22.5 58t-22.5 57.5
t-57.5 22.5t-58 -22.5t-23 -57.5z" />
    <glyph glyph-name="uni1556" unicode="&#x1556;" horiz-adv-x="759" 
d="M77 150q0 35 10.5 66t28.5 65l227 424h56l338 -705h-108l-264 563l-140 -265q20 6 44 6q37 0 69 -20.5t52 -55.5t20 -78q0 -45 -21.5 -81.5t-59 -58t-87.5 -21.5q-48 0 -85.5 21.5t-58.5 58.5t-21 81zM163 148q0 -35 23 -58t58 -23t57.5 23t22.5 58t-22.5 57.5
t-57.5 22.5t-58 -22.5t-23 -57.5zM309 860q0 26 17.5 43.5t44.5 17.5t44.5 -17.5t17.5 -43.5t-17.5 -43.5t-44.5 -17.5t-44.5 17.5t-17.5 43.5z" />
    <glyph glyph-name="uni1557" unicode="&#x1557;" horiz-adv-x="779" 
d="M105 -11v110l527 287l-233 166q1 -6 1.5 -12t0.5 -13q0 -39 -21 -71.5t-56 -52t-77 -19.5q-46 0 -83 20.5t-58.5 57t-21.5 84.5q0 47 22 84.5t60 59t85 21.5q39 0 76.5 -15t73.5 -41l351 -252v-56zM170 546q0 -36 22 -59.5t57 -23.5t57 23.5t22 59.5q0 38 -22 62t-57 24
t-57 -24t-22 -62z" />
    <glyph glyph-name="uni1558" unicode="&#x1558;" horiz-adv-x="779" 
d="M105 -11v110l527 287l-233 166q1 -6 1.5 -12t0.5 -13q0 -39 -21 -71.5t-56 -52t-77 -19.5q-46 0 -83 20.5t-58.5 57t-21.5 84.5q0 47 22 84.5t60 59t85 21.5q39 0 76.5 -15t73.5 -41l351 -252v-56zM170 546q0 -36 22 -59.5t57 -23.5t57 23.5t22 59.5q0 38 -22 62t-57 24
t-57 -24t-22 -62zM189 860q0 26 17.5 43.5t44.5 17.5t44.5 -17.5t17.5 -43.5t-17.5 -43.5t-44.5 -17.5t-44.5 17.5t-17.5 43.5z" />
    <glyph glyph-name="uni1559" unicode="&#x1559;" horiz-adv-x="779" 
d="M27 347v56l351 252q37 26 74 41t77 15q47 0 84.5 -21.5t59.5 -59t22 -84.5q0 -48 -21.5 -84.5t-58.5 -57t-83 -20.5q-42 0 -77 19.5t-56 52t-21 71.5q0 6 0.5 12.5t1.5 11.5l-233 -165l527 -287v-110zM452 546q0 -36 22 -59.5t57 -23.5t56.5 23.5t21.5 59.5
q0 38 -21.5 62t-56.5 24t-57 -24t-22 -62z" />
    <glyph glyph-name="uni155A" unicode="&#x155a;" horiz-adv-x="779" 
d="M27 347v56l351 252q37 26 74 41t77 15q47 0 84.5 -21.5t59.5 -59t22 -84.5q0 -48 -21.5 -84.5t-58.5 -57t-83 -20.5q-42 0 -77 19.5t-56 52t-21 71.5q0 6 0.5 12.5t1.5 11.5l-233 -165l527 -287v-110zM452 546q0 -36 22 -59.5t57 -23.5t56.5 23.5t21.5 59.5
q0 38 -21.5 62t-56.5 24t-57 -24t-22 -62zM467 860q0 26 17.5 43.5t44.5 17.5t44.5 -17.5t17.5 -43.5t-17.5 -43.5t-44.5 -17.5t-44.5 17.5t-17.5 43.5z" />
    <glyph glyph-name="uni155D" unicode="&#x155d;" horiz-adv-x="507" 
d="M33 440v70l203 155q26 20 51 31.5t47 11.5q52 0 82.5 -31.5t30.5 -75.5q0 -45 -30.5 -74.5t-79.5 -29.5q-41 0 -69.5 25t-28.5 56l-124 -92l324 -145v-94zM291 602q0 -19 12.5 -32t33.5 -13t33.5 13t12.5 32t-12.5 32t-33.5 13t-33.5 -13t-12.5 -32z" />
    <glyph glyph-name="uni1574" unicode="&#x1574;" horiz-adv-x="754" 
d="M74 452q0 73 32.5 131.5t89.5 93t129 34.5q73 0 129 -33.5t88 -95t32 -145.5v-300l143 111v-118l-176 -130h-65v291q-26 -43 -71.5 -67.5t-99.5 -24.5q-64 0 -116.5 33.5t-83.5 91t-31 128.5zM173 452q0 -47 20 -83.5t54.5 -57.5t77.5 -21q44 0 78.5 21t54.5 57.5
t20 83.5q0 48 -20 85.5t-54.5 59.5t-78.5 22q-43 0 -77.5 -22t-54.5 -59.5t-20 -85.5z" />
    <glyph glyph-name="uni1575" unicode="&#x1575;" horiz-adv-x="754" 
d="M38 130v118l142 -111v300q0 84 32.5 145.5t88.5 95t128 33.5q73 0 129.5 -34.5t89.5 -93t33 -131.5q0 -71 -31 -128.5t-83.5 -91t-117.5 -33.5q-54 0 -99.5 24.5t-71.5 67.5v-291h-64zM277 452q0 -47 20 -83.5t54.5 -57.5t77.5 -21q44 0 78.5 21t54.5 57.5t20 83.5
q0 48 -20 85.5t-54.5 59.5t-78.5 22q-43 0 -77.5 -22t-54.5 -59.5t-20 -85.5z" />
    <glyph glyph-name="uni1576" unicode="&#x1576;" horiz-adv-x="754" 
d="M38 130v118l142 -111v300q0 84 32.5 145.5t88.5 95t128 33.5q73 0 129.5 -34.5t89.5 -93t33 -131.5q0 -71 -31 -128.5t-83.5 -91t-117.5 -33.5q-54 0 -99.5 24.5t-71.5 67.5v-291h-64zM277 452q0 -47 20 -83.5t54.5 -57.5t77.5 -21q44 0 78.5 21t54.5 57.5t20 83.5
q0 48 -20 85.5t-54.5 59.5t-78.5 22q-43 0 -77.5 -22t-54.5 -59.5t-20 -85.5zM367 860q0 26 17.5 43.5t44.5 17.5t44.5 -17.5t17.5 -43.5t-17.5 -43.5t-44.5 -17.5t-44.5 17.5t-17.5 43.5z" />
    <glyph glyph-name="uni1577" unicode="&#x1577;" horiz-adv-x="754" 
d="M74 248q0 72 31 129t83.5 90.5t116.5 33.5q54 0 99.5 -24.5t71.5 -67.5v291h65l176 -130v-118l-143 111v-300q0 -83 -32 -145t-88 -95.5t-129 -33.5q-72 0 -129 34.5t-89.5 93.5t-32.5 131zM173 248q0 -47 20 -85t54.5 -60t77.5 -22q44 0 78.5 22t54.5 60t20 85t-20 83.5
t-54.5 57.5t-78.5 21q-43 0 -77.5 -21t-54.5 -57.5t-20 -83.5z" />
    <glyph glyph-name="uni1578" unicode="&#x1578;" horiz-adv-x="754" 
d="M74 248q0 72 31 129t83.5 90.5t116.5 33.5q54 0 99.5 -24.5t71.5 -67.5v291h65l176 -130v-118l-143 111v-300q0 -83 -32 -145t-88 -95.5t-129 -33.5q-72 0 -129 34.5t-89.5 93.5t-32.5 131zM173 248q0 -47 20 -85t54.5 -60t77.5 -22q44 0 78.5 22t54.5 60t20 85t-20 83.5
t-54.5 57.5t-78.5 21q-43 0 -77.5 -21t-54.5 -57.5t-20 -83.5zM458 860q0 26 17.5 43.5t44.5 17.5t44.5 -17.5t17.5 -43.5t-17.5 -43.5t-44.5 -17.5t-44.5 17.5t-17.5 43.5z" />
    <glyph glyph-name="uni1579" unicode="&#x1579;" horiz-adv-x="754" 
d="M180 263v300l-142 -111v118l176 130h64v-291q26 43 71.5 67.5t99.5 24.5q65 0 117.5 -33.5t83.5 -90.5t31 -129t-33 -131t-89.5 -93.5t-129.5 -34.5q-72 0 -128 33.5t-88.5 95.5t-32.5 145zM277 248q0 -47 20 -85t54.5 -60t77.5 -22q44 0 78.5 22t54.5 60t20 85t-20 83.5
t-54.5 57.5t-78.5 21q-43 0 -77.5 -21t-54.5 -57.5t-20 -83.5z" />
    <glyph glyph-name="uni157A" unicode="&#x157a;" horiz-adv-x="754" 
d="M180 263v300l-142 -111v118l176 130h64v-291q26 43 71.5 67.5t99.5 24.5q65 0 117.5 -33.5t83.5 -90.5t31 -129t-33 -131t-89.5 -93.5t-129.5 -34.5q-72 0 -128 33.5t-88.5 95.5t-32.5 145zM277 248q0 -47 20 -85t54.5 -60t77.5 -22q44 0 78.5 22t54.5 60t20 85t-20 83.5
t-54.5 57.5t-78.5 21q-43 0 -77.5 -21t-54.5 -57.5t-20 -83.5zM173 860q0 26 17.5 43.5t44.5 17.5t44.5 -17.5t17.5 -43.5t-17.5 -43.5t-44.5 -17.5t-44.5 17.5t-17.5 43.5z" />
    <glyph glyph-name="uni157B" unicode="&#x157b;" horiz-adv-x="538" 
d="M136 436v149l-107 -91v106l131 100h65v-164q18 24 45 38.5t58 14.5q44 0 78 -22t53.5 -60t19.5 -86q0 -49 -23 -88.5t-62 -62.5t-89 -23q-49 0 -87.5 24t-60 66.5t-21.5 98.5zM221 422q0 -41 24.5 -66t60.5 -25t60.5 25t24.5 66q0 39 -24.5 64.5t-60.5 25.5t-60.5 -25.5
t-24.5 -64.5z" />
    <glyph glyph-name="uni157C" unicode="&#x157c;" horiz-adv-x="747" 
d="M110 0v700h100v-300h327v300h100v-700h-100v310h-327v-310h-100z" />
    <glyph glyph-name="uni157D" unicode="&#x157d;" horiz-adv-x="465" 
d="M26 255l156 229l-144 216h108l90 -138l88 138h102l-143 -210l156 -235h-107l-103 158l-102 -158h-101z" />
    <glyph glyph-name="uni157E" unicode="&#x157e;" horiz-adv-x="1041" 
d="M59 540q0 45 21.5 81.5t59.5 57.5t88 21h99v-83h-91q-42 0 -65 -21.5t-23 -55.5q0 -35 24 -56.5t64 -21.5h92v-207h-89v126q-87 2 -133.5 46.5t-46.5 112.5zM467 0v437q0 84 32 145.5t88.5 95t128.5 33.5q73 0 129.5 -34.5t89 -93t32.5 -131.5q0 -71 -31 -128.5
t-83.5 -91t-116.5 -33.5q-53 0 -99 24.5t-72 67.5v-291h-98zM563 452q0 -47 20 -83.5t54.5 -57.5t77.5 -21q44 0 78.5 21t54.5 57.5t20 83.5q0 48 -20 85.5t-54.5 59.5t-78.5 22q-43 0 -77.5 -22t-54.5 -59.5t-20 -85.5zM607 877q0 42 30 71.5t78 29.5t78 -29.5t30 -71.5
q0 -43 -30 -72.5t-78 -29.5t-78 29.5t-30 72.5zM668 877q0 -21 13 -34.5t34 -13.5t34 13.5t13 34.5q0 20 -13 33.5t-34 13.5t-34 -13.5t-13 -33.5z" />
    <glyph glyph-name="uni157F" unicode="&#x157f;" horiz-adv-x="1041" 
d="M59 540q0 45 21.5 81.5t59.5 57.5t88 21h99v-83h-91q-42 0 -65 -21.5t-23 -55.5q0 -35 24 -56.5t64 -21.5h92v-207h-89v126q-87 2 -133.5 46.5t-46.5 112.5zM467 0v437q0 84 32 145.5t88.5 95t128.5 33.5q73 0 129.5 -34.5t89 -93t32.5 -131.5q0 -71 -31 -128.5
t-83.5 -91t-116.5 -33.5q-53 0 -99 24.5t-72 67.5v-291h-98zM563 452q0 -47 20 -83.5t54.5 -57.5t77.5 -21q44 0 78.5 21t54.5 57.5t20 83.5q0 48 -20 85.5t-54.5 59.5t-78.5 22q-43 0 -77.5 -22t-54.5 -59.5t-20 -85.5z" />
    <glyph glyph-name="uni1580" unicode="&#x1580;" horiz-adv-x="1041" 
d="M59 540q0 45 21.5 81.5t59.5 57.5t88 21h99v-83h-91q-42 0 -65 -21.5t-23 -55.5q0 -35 24 -56.5t64 -21.5h92v-207h-89v126q-87 2 -133.5 46.5t-46.5 112.5zM467 0v437q0 84 32 145.5t88.5 95t128.5 33.5q73 0 129.5 -34.5t89 -93t32.5 -131.5q0 -71 -31 -128.5
t-83.5 -91t-116.5 -33.5q-53 0 -99 24.5t-72 67.5v-291h-98zM563 452q0 -47 20 -83.5t54.5 -57.5t77.5 -21q44 0 78.5 21t54.5 57.5t20 83.5q0 48 -20 85.5t-54.5 59.5t-78.5 22q-43 0 -77.5 -22t-54.5 -59.5t-20 -85.5zM653 860q0 26 17.5 43.5t44.5 17.5t44.5 -17.5
t17.5 -43.5t-17.5 -43.5t-44.5 -17.5t-44.5 17.5t-17.5 43.5z" />
    <glyph glyph-name="uni1581" unicode="&#x1581;" horiz-adv-x="1028" 
d="M59 540q0 45 21.5 81.5t59.5 57.5t88 21h99v-83h-91q-42 0 -65 -21.5t-23 -55.5q0 -35 24 -56.5t64 -21.5h92v-207h-89v126q-87 2 -133.5 46.5t-46.5 112.5zM425 248q0 72 31 129t83.5 90.5t116.5 33.5q54 0 99.5 -24.5t71.5 -67.5v291h98v-437q0 -83 -32 -145t-88 -95.5
t-129 -33.5q-72 0 -129 34.5t-89.5 93.5t-32.5 131zM524 248q0 -47 20 -85t54.5 -60t77.5 -22q44 0 78.5 22t54.5 60t20 85t-20 83.5t-54.5 57.5t-78.5 21q-43 0 -77.5 -21t-54.5 -57.5t-20 -83.5z" />
    <glyph glyph-name="uni1582" unicode="&#x1582;" horiz-adv-x="1028" 
d="M59 540q0 45 21.5 81.5t59.5 57.5t88 21h99v-83h-91q-42 0 -65 -21.5t-23 -55.5q0 -35 24 -56.5t64 -21.5h92v-207h-89v126q-87 2 -133.5 46.5t-46.5 112.5zM425 248q0 72 31 129t83.5 90.5t116.5 33.5q54 0 99.5 -24.5t71.5 -67.5v291h98v-437q0 -83 -32 -145t-88 -95.5
t-129 -33.5q-72 0 -129 34.5t-89.5 93.5t-32.5 131zM524 248q0 -47 20 -85t54.5 -60t77.5 -22q44 0 78.5 22t54.5 60t20 85t-20 83.5t-54.5 57.5t-78.5 21q-43 0 -77.5 -21t-54.5 -57.5t-20 -83.5zM815 860q0 26 17.5 43.5t44.5 17.5t44.5 -17.5t17.5 -43.5t-17.5 -43.5
t-44.5 -17.5t-44.5 17.5t-17.5 43.5z" />
    <glyph glyph-name="uni1583" unicode="&#x1583;" horiz-adv-x="1041" 
d="M59 540q0 45 21.5 81.5t59.5 57.5t88 21h99v-83h-91q-42 0 -65 -21.5t-23 -55.5q0 -35 24 -56.5t64 -21.5h92v-207h-89v126q-87 2 -133.5 46.5t-46.5 112.5zM467 263v437h98v-291q26 43 72 67.5t99 24.5q64 0 116.5 -33.5t83.5 -90.5t31 -129t-32.5 -131t-89 -93.5
t-129.5 -34.5q-72 0 -128.5 33.5t-88.5 95.5t-32 145zM563 248q0 -47 20 -85t54.5 -60t77.5 -22q44 0 78.5 22t54.5 60t20 85t-20 83.5t-54.5 57.5t-78.5 21q-43 0 -77.5 -21t-54.5 -57.5t-20 -83.5z" />
    <glyph glyph-name="uni1584" unicode="&#x1584;" horiz-adv-x="1041" 
d="M59 540q0 45 21.5 81.5t59.5 57.5t88 21h99v-83h-91q-42 0 -65 -21.5t-23 -55.5q0 -35 24 -56.5t64 -21.5h92v-207h-89v126q-87 2 -133.5 46.5t-46.5 112.5zM467 263v437h98v-291q26 43 72 67.5t99 24.5q64 0 116.5 -33.5t83.5 -90.5t31 -129t-32.5 -131t-89 -93.5
t-129.5 -34.5q-72 0 -128.5 33.5t-88.5 95.5t-32 145zM563 248q0 -47 20 -85t54.5 -60t77.5 -22q44 0 78.5 22t54.5 60t20 85t-20 83.5t-54.5 57.5t-78.5 21q-43 0 -77.5 -21t-54.5 -57.5t-20 -83.5zM453 860q0 26 17.5 43.5t44.5 17.5t44.5 -17.5t17.5 -43.5t-17.5 -43.5
t-44.5 -17.5t-44.5 17.5t-17.5 43.5z" />
    <glyph glyph-name="uni1585" unicode="&#x1585;" horiz-adv-x="853" 
d="M59 540q0 45 21.5 81.5t59.5 57.5t88 21h99v-83h-91q-42 0 -65 -21.5t-23 -55.5q0 -35 24 -56.5t64 -21.5h92v-207h-89v126q-87 2 -133.5 46.5t-46.5 112.5zM438 436v264h89v-165q18 25 45.5 39.5t58.5 14.5q43 0 77 -22t53.5 -60t19.5 -86q0 -49 -22.5 -88.5t-62 -62.5
t-89.5 -23q-49 0 -87 24t-60 66.5t-22 98.5zM523 422q0 -41 25 -66t60 -25q36 0 60.5 25t24.5 66q0 39 -24.5 64.5t-60.5 25.5q-35 0 -60 -25.5t-25 -64.5z" />
    <glyph glyph-name="uni158E" unicode="&#x158e;" horiz-adv-x="1321" 
d="M340 326v111h-124q-76 0 -116.5 40t-40.5 95q0 39 18.5 70t50 49t71.5 18q59 0 97 -33.5t38 -86.5q0 -47 -33 -76h118v-105q14 16 35 24.5t44 8.5q50 0 85 -36t35 -94q0 -39 -18.5 -70t-50 -48.5t-72.5 -17.5q-61 0 -99 41.5t-38 109.5zM140 572q0 -25 17.5 -42t41.5 -17
q27 0 43.5 17t16.5 42q0 26 -17 42.5t-43 16.5q-25 0 -42 -16.5t-17 -42.5zM418 311q0 -25 17 -41.5t42 -16.5q26 0 42.5 16.5t16.5 41.5q0 26 -16.5 42.5t-42.5 16.5q-25 0 -42 -16.5t-17 -42.5zM756 0v457q0 77 30.5 134t85.5 88.5t128 31.5q74 0 129 -31.5t85.5 -88.5
t30.5 -134v-122h-99v113q0 80 -39 125.5t-107 45.5q-67 0 -106.5 -45.5t-39.5 -125.5v-448h-98zM892 877q0 42 30 71.5t78 29.5t78 -29.5t30 -71.5q0 -43 -30 -72.5t-78 -29.5t-78 29.5t-30 72.5zM953 877q0 -21 13 -34.5t34 -13.5t34 13.5t13 34.5q0 20 -13 33.5t-34 13.5
t-34 -13.5t-13 -33.5z" />
    <glyph glyph-name="uni158E.vut" horiz-adv-x="1334" 
d="M364 375v56h-146q-76 0 -117.5 41t-41.5 97q0 40 18.5 71.5t51 50t73.5 18.5q59 0 98 -34.5t39 -88.5q0 -23 -8.5 -43.5t-26.5 -35.5h141v-127q0 -30 15 -47.5t41 -17.5t40.5 17.5t14.5 47.5v43h81v-48q0 -62 -38.5 -100.5t-97.5 -38.5q-60 0 -98.5 38.5t-38.5 100.5z
M140 569q0 -26 18.5 -43.5t43.5 -17.5q28 0 45 18t17 43q0 27 -18 44.5t-44 17.5t-44 -17.5t-18 -44.5zM769 0v457q0 77 30.5 134t85.5 88.5t128 31.5q74 0 129 -31.5t85.5 -88.5t30.5 -134v-122h-99v113q0 80 -39 125.5t-107 45.5q-67 0 -106.5 -45.5t-39.5 -125.5v-448
h-98zM905 877q0 42 30 71.5t78 29.5t78 -29.5t30 -71.5q0 -43 -30 -72.5t-78 -29.5t-78 29.5t-30 72.5zM966 877q0 -21 13 -34.5t34 -13.5t34 13.5t13 34.5q0 20 -13 33.5t-34 13.5t-34 -13.5t-13 -33.5z" />
    <glyph glyph-name="uni158F" unicode="&#x158f;" horiz-adv-x="1321" 
d="M340 326v111h-124q-76 0 -116.5 40t-40.5 95q0 39 18.5 70t50 49t71.5 18q59 0 97 -33.5t38 -86.5q0 -47 -33 -76h118v-105q14 16 35 24.5t44 8.5q50 0 85 -36t35 -94q0 -39 -18.5 -70t-50 -48.5t-72.5 -17.5q-61 0 -99 41.5t-38 109.5zM140 572q0 -25 17.5 -42t41.5 -17
q27 0 43.5 17t16.5 42q0 26 -17 42.5t-43 16.5q-25 0 -42 -16.5t-17 -42.5zM418 311q0 -25 17 -41.5t42 -16.5q26 0 42.5 16.5t16.5 41.5q0 26 -16.5 42.5t-42.5 16.5q-25 0 -42 -16.5t-17 -42.5zM756 0v457q0 77 30.5 134t85.5 88.5t128 31.5q74 0 129 -31.5t85.5 -88.5
t30.5 -134v-122h-99v113q0 80 -39 125.5t-107 45.5q-67 0 -106.5 -45.5t-39.5 -125.5v-448h-98z" />
    <glyph glyph-name="uni158F.vut" horiz-adv-x="1334" 
d="M364 375v56h-146q-76 0 -117.5 41t-41.5 97q0 40 18.5 71.5t51 50t73.5 18.5q59 0 98 -34.5t39 -88.5q0 -23 -8.5 -43.5t-26.5 -35.5h141v-127q0 -30 15 -47.5t41 -17.5t40.5 17.5t14.5 47.5v43h81v-48q0 -62 -38.5 -100.5t-97.5 -38.5q-60 0 -98.5 38.5t-38.5 100.5z
M140 569q0 -26 18.5 -43.5t43.5 -17.5q28 0 45 18t17 43q0 27 -18 44.5t-44 17.5t-44 -17.5t-18 -44.5zM769 0v457q0 77 30.5 134t85.5 88.5t128 31.5q74 0 129 -31.5t85.5 -88.5t30.5 -134v-122h-99v113q0 80 -39 125.5t-107 45.5q-67 0 -106.5 -45.5t-39.5 -125.5v-448
h-98z" />
    <glyph glyph-name="uni1590" unicode="&#x1590;" horiz-adv-x="1321" 
d="M340 326v111h-124q-76 0 -116.5 40t-40.5 95q0 39 18.5 70t50 49t71.5 18q59 0 97 -33.5t38 -86.5q0 -47 -33 -76h118v-105q14 16 35 24.5t44 8.5q50 0 85 -36t35 -94q0 -39 -18.5 -70t-50 -48.5t-72.5 -17.5q-61 0 -99 41.5t-38 109.5zM140 572q0 -25 17.5 -42t41.5 -17
q27 0 43.5 17t16.5 42q0 26 -17 42.5t-43 16.5q-25 0 -42 -16.5t-17 -42.5zM418 311q0 -25 17 -41.5t42 -16.5q26 0 42.5 16.5t16.5 41.5q0 26 -16.5 42.5t-42.5 16.5q-25 0 -42 -16.5t-17 -42.5zM756 0v457q0 77 30.5 134t85.5 88.5t128 31.5q74 0 129 -31.5t85.5 -88.5
t30.5 -134v-122h-99v113q0 80 -39 125.5t-107 45.5q-67 0 -106.5 -45.5t-39.5 -125.5v-448h-98zM938 860q0 26 17.5 43.5t44.5 17.5t44.5 -17.5t17.5 -43.5t-17.5 -43.5t-44.5 -17.5t-44.5 17.5t-17.5 43.5z" />
    <glyph glyph-name="uni1590.vut" horiz-adv-x="1334" 
d="M364 375v56h-146q-76 0 -117.5 41t-41.5 97q0 40 18.5 71.5t51 50t73.5 18.5q59 0 98 -34.5t39 -88.5q0 -23 -8.5 -43.5t-26.5 -35.5h141v-127q0 -30 15 -47.5t41 -17.5t40.5 17.5t14.5 47.5v43h81v-48q0 -62 -38.5 -100.5t-97.5 -38.5q-60 0 -98.5 38.5t-38.5 100.5z
M140 569q0 -26 18.5 -43.5t43.5 -17.5q28 0 45 18t17 43q0 27 -18 44.5t-44 17.5t-44 -17.5t-18 -44.5zM769 0v457q0 77 30.5 134t85.5 88.5t128 31.5q74 0 129 -31.5t85.5 -88.5t30.5 -134v-122h-99v113q0 80 -39 125.5t-107 45.5q-67 0 -106.5 -45.5t-39.5 -125.5v-448
h-98zM951 860q0 26 17.5 43.5t44.5 17.5t44.5 -17.5t17.5 -43.5t-17.5 -43.5t-44.5 -17.5t-44.5 17.5t-17.5 43.5z" />
    <glyph glyph-name="uni1591" unicode="&#x1591;" horiz-adv-x="1298" 
d="M340 326v111h-124q-76 0 -116.5 40t-40.5 95q0 39 18.5 70t50 49t71.5 18q59 0 97 -33.5t38 -86.5q0 -47 -33 -76h118v-105q14 16 35 24.5t44 8.5q50 0 85 -36t35 -94q0 -39 -18.5 -70t-50 -48.5t-72.5 -17.5q-61 0 -99 41.5t-38 109.5zM140 572q0 -25 17.5 -42t41.5 -17
q27 0 43.5 17t16.5 42q0 26 -17 42.5t-43 16.5q-25 0 -42 -16.5t-17 -42.5zM418 311q0 -25 17 -41.5t42 -16.5q26 0 42.5 16.5t16.5 41.5q0 26 -16.5 42.5t-42.5 16.5q-25 0 -42 -16.5t-17 -42.5zM706 243v122h98v-113q0 -79 39.5 -125t106.5 -46q68 0 107.5 46t39.5 125
v448h98v-457q0 -76 -30.5 -133.5t-85.5 -89t-129 -31.5q-73 0 -128 31.5t-85.5 89t-30.5 133.5z" />
    <glyph glyph-name="uni1591.vut" horiz-adv-x="1311" 
d="M364 375v56h-146q-76 0 -117.5 41t-41.5 97q0 40 18.5 71.5t51 50t73.5 18.5q59 0 98 -34.5t39 -88.5q0 -23 -8.5 -43.5t-26.5 -35.5h141v-127q0 -30 15 -47.5t41 -17.5t40.5 17.5t14.5 47.5v43h81v-48q0 -62 -38.5 -100.5t-97.5 -38.5q-60 0 -98.5 38.5t-38.5 100.5z
M140 569q0 -26 18.5 -43.5t43.5 -17.5q28 0 45 18t17 43q0 27 -18 44.5t-44 17.5t-44 -17.5t-18 -44.5zM719 243v122h98v-113q0 -79 39.5 -125t106.5 -46q68 0 107.5 46t39.5 125v448h98v-457q0 -76 -30.5 -133.5t-85.5 -89t-129 -31.5q-73 0 -128 31.5t-85.5 89
t-30.5 133.5z" />
    <glyph glyph-name="uni1592" unicode="&#x1592;" horiz-adv-x="1298" 
d="M340 326v111h-124q-76 0 -116.5 40t-40.5 95q0 39 18.5 70t50 49t71.5 18q59 0 97 -33.5t38 -86.5q0 -47 -33 -76h118v-105q14 16 35 24.5t44 8.5q50 0 85 -36t35 -94q0 -39 -18.5 -70t-50 -48.5t-72.5 -17.5q-61 0 -99 41.5t-38 109.5zM140 572q0 -25 17.5 -42t41.5 -17
q27 0 43.5 17t16.5 42q0 26 -17 42.5t-43 16.5q-25 0 -42 -16.5t-17 -42.5zM418 311q0 -25 17 -41.5t42 -16.5q26 0 42.5 16.5t16.5 41.5q0 26 -16.5 42.5t-42.5 16.5q-25 0 -42 -16.5t-17 -42.5zM706 243v122h98v-113q0 -79 39.5 -125t106.5 -46q68 0 107.5 46t39.5 125
v448h98v-457q0 -76 -30.5 -133.5t-85.5 -89t-129 -31.5q-73 0 -128 31.5t-85.5 89t-30.5 133.5zM1084 860q0 26 17.5 43.5t44.5 17.5t44.5 -17.5t17.5 -43.5t-17.5 -43.5t-44.5 -17.5t-44.5 17.5t-17.5 43.5z" />
    <glyph glyph-name="uni1592.vut" horiz-adv-x="1311" 
d="M364 375v56h-146q-76 0 -117.5 41t-41.5 97q0 40 18.5 71.5t51 50t73.5 18.5q59 0 98 -34.5t39 -88.5q0 -23 -8.5 -43.5t-26.5 -35.5h141v-127q0 -30 15 -47.5t41 -17.5t40.5 17.5t14.5 47.5v43h81v-48q0 -62 -38.5 -100.5t-97.5 -38.5q-60 0 -98.5 38.5t-38.5 100.5z
M140 569q0 -26 18.5 -43.5t43.5 -17.5q28 0 45 18t17 43q0 27 -18 44.5t-44 17.5t-44 -17.5t-18 -44.5zM719 243v122h98v-113q0 -79 39.5 -125t106.5 -46q68 0 107.5 46t39.5 125v448h98v-457q0 -76 -30.5 -133.5t-85.5 -89t-129 -31.5q-73 0 -128 31.5t-85.5 89
t-30.5 133.5zM1098 860q0 26 17.5 43.5t44.5 17.5t44.5 -17.5t17.5 -43.5t-17.5 -43.5t-44.5 -17.5t-44.5 17.5t-17.5 43.5z" />
    <glyph glyph-name="uni1593" unicode="&#x1593;" horiz-adv-x="1298" 
d="M340 326v111h-124q-76 0 -116.5 40t-40.5 95q0 39 18.5 70t50 49t71.5 18q59 0 97 -33.5t38 -86.5q0 -47 -33 -76h118v-105q14 16 35 24.5t44 8.5q50 0 85 -36t35 -94q0 -39 -18.5 -70t-50 -48.5t-72.5 -17.5q-61 0 -99 41.5t-38 109.5zM140 572q0 -25 17.5 -42t41.5 -17
q27 0 43.5 17t16.5 42q0 26 -17 42.5t-43 16.5q-25 0 -42 -16.5t-17 -42.5zM418 311q0 -25 17 -41.5t42 -16.5q26 0 42.5 16.5t16.5 41.5q0 26 -16.5 42.5t-42.5 16.5q-25 0 -42 -16.5t-17 -42.5zM732 243v457h98v-448q0 -79 39.5 -125t106.5 -46q68 0 107 46t39 125v113h99
v-122q0 -76 -30.5 -133.5t-85.5 -89t-129 -31.5q-73 0 -128 31.5t-85.5 89t-30.5 133.5z" />
    <glyph glyph-name="uni1593.vut" horiz-adv-x="1311" 
d="M364 375v56h-146q-76 0 -117.5 41t-41.5 97q0 40 18.5 71.5t51 50t73.5 18.5q59 0 98 -34.5t39 -88.5q0 -23 -8.5 -43.5t-26.5 -35.5h141v-127q0 -30 15 -47.5t41 -17.5t40.5 17.5t14.5 47.5v43h81v-48q0 -62 -38.5 -100.5t-97.5 -38.5q-60 0 -98.5 38.5t-38.5 100.5z
M140 569q0 -26 18.5 -43.5t43.5 -17.5q28 0 45 18t17 43q0 27 -18 44.5t-44 17.5t-44 -17.5t-18 -44.5zM745 243v457h98v-448q0 -79 39.5 -125t106.5 -46q68 0 107 46t39 125v113h99v-122q0 -76 -30.5 -133.5t-85.5 -89t-129 -31.5q-73 0 -128 31.5t-85.5 89t-30.5 133.5z
" />
    <glyph glyph-name="uni1594" unicode="&#x1594;" horiz-adv-x="1298" 
d="M340 326v111h-124q-76 0 -116.5 40t-40.5 95q0 39 18.5 70t50 49t71.5 18q59 0 97 -33.5t38 -86.5q0 -47 -33 -76h118v-105q14 16 35 24.5t44 8.5q50 0 85 -36t35 -94q0 -39 -18.5 -70t-50 -48.5t-72.5 -17.5q-61 0 -99 41.5t-38 109.5zM140 572q0 -25 17.5 -42t41.5 -17
q27 0 43.5 17t16.5 42q0 26 -17 42.5t-43 16.5q-25 0 -42 -16.5t-17 -42.5zM418 311q0 -25 17 -41.5t42 -16.5q26 0 42.5 16.5t16.5 41.5q0 26 -16.5 42.5t-42.5 16.5q-25 0 -42 -16.5t-17 -42.5zM732 243v457h98v-448q0 -79 39.5 -125t106.5 -46q68 0 107 46t39 125v113h99
v-122q0 -76 -30.5 -133.5t-85.5 -89t-129 -31.5q-73 0 -128 31.5t-85.5 89t-30.5 133.5zM719 860q0 26 17.5 43.5t44.5 17.5t44.5 -17.5t17.5 -43.5t-17.5 -43.5t-44.5 -17.5t-44.5 17.5t-17.5 43.5z" />
    <glyph glyph-name="uni1594.vut" horiz-adv-x="1311" 
d="M364 375v56h-146q-76 0 -117.5 41t-41.5 97q0 40 18.5 71.5t51 50t73.5 18.5q59 0 98 -34.5t39 -88.5q0 -23 -8.5 -43.5t-26.5 -35.5h141v-127q0 -30 15 -47.5t41 -17.5t40.5 17.5t14.5 47.5v43h81v-48q0 -62 -38.5 -100.5t-97.5 -38.5q-60 0 -98.5 38.5t-38.5 100.5z
M140 569q0 -26 18.5 -43.5t43.5 -17.5q28 0 45 18t17 43q0 27 -18 44.5t-44 17.5t-44 -17.5t-18 -44.5zM745 243v457h98v-448q0 -79 39.5 -125t106.5 -46q68 0 107 46t39 125v113h99v-122q0 -76 -30.5 -133.5t-85.5 -89t-129 -31.5q-73 0 -128 31.5t-85.5 89t-30.5 133.5z
M732 860q0 26 17.5 43.5t44.5 17.5t44.5 -17.5t17.5 -43.5t-17.5 -43.5t-44.5 -17.5t-44.5 17.5t-17.5 43.5z" />
    <glyph glyph-name="uni1595" unicode="&#x1595;" horiz-adv-x="673" 
d="M340 326v111h-124q-76 0 -116.5 40t-40.5 95q0 39 18.5 70t50 49t71.5 18q59 0 97 -33.5t38 -86.5q0 -47 -33 -76h118v-105q14 16 35 24.5t44 8.5q50 0 85 -36t35 -94q0 -39 -18.5 -70t-50 -48.5t-72.5 -17.5q-61 0 -99 41.5t-38 109.5zM140 572q0 -25 17.5 -42t41.5 -17
q27 0 43.5 17t16.5 42q0 26 -17 42.5t-43 16.5q-25 0 -42 -16.5t-17 -42.5zM418 311q0 -25 17 -41.5t42 -16.5q26 0 42.5 16.5t16.5 41.5q0 26 -16.5 42.5t-42.5 16.5q-25 0 -42 -16.5t-17 -42.5z" />
    <glyph glyph-name="uni1595.vut" horiz-adv-x="691" 
d="M364 375v56h-146q-76 0 -117.5 41t-41.5 97q0 40 18.5 71.5t51 50t73.5 18.5q59 0 98 -34.5t39 -88.5q0 -23 -8.5 -43.5t-26.5 -35.5h141v-127q0 -30 15 -47.5t41 -17.5t40.5 17.5t14.5 47.5v43h81v-48q0 -62 -38.5 -100.5t-97.5 -38.5q-60 0 -98.5 38.5t-38.5 100.5z
M140 569q0 -26 18.5 -43.5t43.5 -17.5q28 0 45 18t17 43q0 27 -18 44.5t-44 17.5t-44 -17.5t-18 -44.5z" />
    <glyph glyph-name="uni1596" unicode="&#x1596;" horiz-adv-x="988" 
d="M59 569q0 40 18.5 71.5t51 50t73.5 18.5q59 0 98 -34.5t39 -88.5q0 -23 -8.5 -43.5t-26.5 -35.5h103q-35 30 -35 79q0 54 39 88.5t98 34.5t98 -34.5t39 -88.5q0 -23 -8.5 -43.5t-26.5 -35.5h131v-127q0 -30 15 -47.5t41 -17.5t41 17.5t15 47.5v43h80v-48
q0 -62 -38.5 -100.5t-97.5 -38.5q-60 0 -98.5 38.5t-38.5 100.5v56h-443q-76 0 -117.5 41t-41.5 97zM140 569q0 -26 18.5 -44t43.5 -18q28 0 45 18t17 44q0 27 -18 44.5t-44 17.5t-44 -17.5t-18 -44.5zM447 569q0 -26 17 -44t45 -18q26 0 44 18t18 44q0 27 -18 44.5
t-44 17.5t-44 -17.5t-18 -44.5z" />
    <glyph glyph-name="uni15A0" unicode="&#x15a0;" horiz-adv-x="736" 
d="M74 245q0 70 31.5 125t90.5 87.5t140 32.5h231l-116 150h118l130 -176v-65h-357q-83 0 -125 -45t-42 -109t42.5 -109t124.5 -45h74v-91h-80q-81 0 -140 32.5t-90.5 88t-31.5 124.5z" />
    <glyph glyph-name="uni15A1" unicode="&#x15a1;" horiz-adv-x="736" 
d="M74 245q0 70 31.5 125t90.5 87.5t140 32.5h231l-116 150h118l130 -176v-65h-357q-83 0 -125 -45t-42 -109t42.5 -109t124.5 -45h74v-91h-80q-81 0 -140 32.5t-90.5 88t-31.5 124.5zM438 800q0 26 17.5 43.5t44.5 17.5t44.5 -17.5t17.5 -43.5t-17.5 -43.5t-44.5 -17.5
t-44.5 17.5t-17.5 43.5z" />
    <glyph glyph-name="uni15A2" unicode="&#x15a2;" horiz-adv-x="736" 
d="M38 26v65h357q83 0 124.5 45t41.5 109t-42 109t-124 45h-75v91h81q82 0 140.5 -32.5t90 -87.5t31.5 -125q0 -69 -31.5 -124.5t-90 -88t-140.5 -32.5h-232l116 -150h-117z" />
    <glyph glyph-name="uni15A3" unicode="&#x15a3;" horiz-adv-x="736" 
d="M38 26v65h357q83 0 124.5 45t41.5 109t-42 109t-124 45h-75v91h81q82 0 140.5 -32.5t90 -87.5t31.5 -125q0 -69 -31.5 -124.5t-90 -88t-140.5 -32.5h-232l116 -150h-117zM301 650q0 26 17.5 43.5t44.5 17.5t44.5 -17.5t17.5 -43.5t-17.5 -43.5t-44.5 -17.5t-44.5 17.5
t-17.5 43.5z" />
    <glyph glyph-name="uni15A4" unicode="&#x15a4;" horiz-adv-x="736" 
d="M74 245q0 70 31.5 125t90.5 87.5t140 32.5h80v-91h-74q-82 0 -124.5 -45t-42.5 -109t42 -109t125 -45h357v-65l-130 -176h-118l116 150h-231q-81 0 -140 32.5t-90.5 88t-31.5 124.5z" />
    <glyph glyph-name="uni15A5" unicode="&#x15a5;" horiz-adv-x="736" 
d="M74 245q0 70 31.5 125t90.5 87.5t140 32.5h80v-91h-74q-82 0 -124.5 -45t-42.5 -109t42 -109t125 -45h357v-65l-130 -176h-118l116 150h-231q-81 0 -140 32.5t-90.5 88t-31.5 124.5zM312 650q0 26 17.5 43.5t44.5 17.5t44.5 -17.5t17.5 -43.5t-17.5 -43.5t-44.5 -17.5
t-44.5 17.5t-17.5 43.5z" />
    <glyph glyph-name="uni15A6" unicode="&#x15a6;" horiz-adv-x="496" 
d="M264 250l96 112h-120q-55 0 -96 22t-63 60.5t-22 86.5q0 49 22 87t63 60t96 22h49v-84h-43q-47 0 -72 -24.5t-25 -60.5q0 -37 25 -61.5t72 -24.5h224v-64l-100 -131h-106z" />
    <glyph glyph-name="uni166D" unicode="&#x166d;" horiz-adv-x="672" 
d="M29 0l249 359l-236 341h120l178 -258l175 258h116l-235 -339l248 -361h-121l-190 278l-189 -278h-115z" />
    <glyph glyph-name="uni166F" unicode="&#x166f;" horiz-adv-x="1038" 
d="M59 540q0 45 21.5 81.5t59.5 57.5t88 21h99v-83h-91q-42 0 -65 -21.5t-23 -55.5q0 -35 24 -56.5t64 -21.5h92v-207h-89v126q-87 2 -133.5 46.5t-46.5 112.5zM435 452q0 73 32.5 131.5t89.5 93t129 34.5q73 0 129 -33.5t88 -95t32 -145.5v-437h-98v291
q-26 -43 -71.5 -67.5t-99.5 -24.5q-64 0 -116.5 33.5t-83.5 91t-31 128.5zM534 452q0 -47 20 -83.5t54.5 -57.5t77.5 -21q44 0 78.5 21t54.5 57.5t20 83.5q0 48 -20 85.5t-54.5 59.5t-78.5 22q-43 0 -77.5 -22t-54.5 -59.5t-20 -85.5z" />
    <glyph glyph-name="uni1670" unicode="&#x1670;" horiz-adv-x="1303" 
d="M712 335v122q0 77 30.5 134t85.5 88.5t128 31.5q74 0 129 -31.5t85.5 -88.5t30.5 -134v-457h-98v448q0 80 -39.5 125.5t-107.5 45.5q-67 0 -106.5 -45.5t-39.5 -125.5v-113h-98zM340 326v111h-124q-76 0 -116.5 40t-40.5 95q0 39 18.5 70t50 49t71.5 18q59 0 97 -33.5
t38 -86.5q0 -47 -33 -76h118v-105q14 16 35 24.5t44 8.5q50 0 85 -36t35 -94q0 -39 -18.5 -70t-50 -48.5t-72.5 -17.5q-61 0 -99 41.5t-38 109.5zM140 572q0 -25 17.5 -42t41.5 -17q27 0 43.5 17t16.5 42q0 26 -17 42.5t-43 16.5q-25 0 -42 -16.5t-17 -42.5zM418 311
q0 -25 17 -41.5t42 -16.5q26 0 42.5 16.5t16.5 41.5q0 26 -16.5 42.5t-42.5 16.5q-25 0 -42 -16.5t-17 -42.5z" />
    <glyph glyph-name="uni1670.vut" horiz-adv-x="1303" 
d="M712 335v122q0 77 30.5 134t85.5 88.5t128 31.5q74 0 129 -31.5t85.5 -88.5t30.5 -134v-457h-98v448q0 80 -39.5 125.5t-107.5 45.5q-67 0 -106.5 -45.5t-39.5 -125.5v-113h-98zM364 375v56h-146q-76 0 -117.5 41t-41.5 97q0 40 18.5 71.5t51 50t73.5 18.5q59 0 98 -34.5
t39 -88.5q0 -23 -8.5 -43.5t-26.5 -35.5h141v-127q0 -30 15 -47.5t41 -17.5t40.5 17.5t14.5 47.5v43h81v-48q0 -62 -38.5 -100.5t-97.5 -38.5q-60 0 -98.5 38.5t-38.5 100.5zM140 569q0 -26 18.5 -43.5t43.5 -17.5q28 0 45 18t17 43q0 27 -18 44.5t-44 17.5t-44 -17.5
t-18 -44.5z" />
    <glyph glyph-name="uni1671" unicode="&#x1671;" horiz-adv-x="1614" 
d="M59 569q0 40 18.5 71.5t51 50t73.5 18.5q59 0 98 -34.5t39 -88.5q0 -23 -8.5 -43.5t-26.5 -35.5h103q-35 30 -35 79q0 54 39 88.5t98 34.5t98 -34.5t39 -88.5q0 -23 -8.5 -43.5t-26.5 -35.5h131v-127q0 -30 15 -47.5t41 -17.5t41 17.5t15 47.5v43h80v-48
q0 -62 -38.5 -100.5t-97.5 -38.5q-60 0 -98.5 38.5t-38.5 100.5v56h-443q-76 0 -117.5 41t-41.5 97zM140 569q0 -26 18.5 -44t43.5 -18q28 0 45 18t17 44q0 27 -18 44.5t-44 17.5t-44 -17.5t-18 -44.5zM447 569q0 -26 17 -44t45 -18q26 0 44 18t18 44q0 27 -18 44.5
t-44 17.5t-44 -17.5t-18 -44.5zM1049 0v457q0 77 30.5 134t85.5 88.5t128 31.5q74 0 129 -31.5t85.5 -88.5t30.5 -134v-122h-99v113q0 80 -39 125.5t-107 45.5q-67 0 -106.5 -45.5t-39.5 -125.5v-448h-98z" />
    <glyph glyph-name="uni1672" unicode="&#x1672;" horiz-adv-x="1614" 
d="M59 569q0 40 18.5 71.5t51 50t73.5 18.5q59 0 98 -34.5t39 -88.5q0 -23 -8.5 -43.5t-26.5 -35.5h103q-35 30 -35 79q0 54 39 88.5t98 34.5t98 -34.5t39 -88.5q0 -23 -8.5 -43.5t-26.5 -35.5h131v-127q0 -30 15 -47.5t41 -17.5t41 17.5t15 47.5v43h80v-48
q0 -62 -38.5 -100.5t-97.5 -38.5q-60 0 -98.5 38.5t-38.5 100.5v56h-443q-76 0 -117.5 41t-41.5 97zM140 569q0 -26 18.5 -44t43.5 -18q28 0 45 18t17 44q0 27 -18 44.5t-44 17.5t-44 -17.5t-18 -44.5zM447 569q0 -26 17 -44t45 -18q26 0 44 18t18 44q0 27 -18 44.5
t-44 17.5t-44 -17.5t-18 -44.5zM1049 0v457q0 77 30.5 134t85.5 88.5t128 31.5q74 0 129 -31.5t85.5 -88.5t30.5 -134v-122h-99v113q0 80 -39 125.5t-107 45.5q-67 0 -106.5 -45.5t-39.5 -125.5v-448h-98zM1231 860q0 26 17.5 43.5t44.5 17.5t44.5 -17.5t17.5 -43.5
t-17.5 -43.5t-44.5 -17.5t-44.5 17.5t-17.5 43.5z" />
    <glyph glyph-name="uni1673" unicode="&#x1673;" horiz-adv-x="1614" 
d="M59 569q0 40 18.5 71.5t51 50t73.5 18.5q59 0 98 -34.5t39 -88.5q0 -23 -8.5 -43.5t-26.5 -35.5h103q-35 30 -35 79q0 54 39 88.5t98 34.5t98 -34.5t39 -88.5q0 -23 -8.5 -43.5t-26.5 -35.5h131v-127q0 -30 15 -47.5t41 -17.5t41 17.5t15 47.5v43h80v-48
q0 -62 -38.5 -100.5t-97.5 -38.5q-60 0 -98.5 38.5t-38.5 100.5v56h-443q-76 0 -117.5 41t-41.5 97zM140 569q0 -26 18.5 -44t43.5 -18q28 0 45 18t17 44q0 27 -18 44.5t-44 17.5t-44 -17.5t-18 -44.5zM447 569q0 -26 17 -44t45 -18q26 0 44 18t18 44q0 27 -18 44.5
t-44 17.5t-44 -17.5t-18 -44.5zM1023 243v122h98v-113q0 -79 39.5 -125t106.5 -46q68 0 107.5 46t39.5 125v448h98v-457q0 -76 -30.5 -133.5t-85.5 -89t-129 -31.5q-73 0 -128 31.5t-85.5 89t-30.5 133.5z" />
    <glyph glyph-name="uni1674" unicode="&#x1674;" horiz-adv-x="1614" 
d="M59 569q0 40 18.5 71.5t51 50t73.5 18.5q59 0 98 -34.5t39 -88.5q0 -23 -8.5 -43.5t-26.5 -35.5h103q-35 30 -35 79q0 54 39 88.5t98 34.5t98 -34.5t39 -88.5q0 -23 -8.5 -43.5t-26.5 -35.5h131v-127q0 -30 15 -47.5t41 -17.5t41 17.5t15 47.5v43h80v-48
q0 -62 -38.5 -100.5t-97.5 -38.5q-60 0 -98.5 38.5t-38.5 100.5v56h-443q-76 0 -117.5 41t-41.5 97zM140 569q0 -26 18.5 -44t43.5 -18q28 0 45 18t17 44q0 27 -18 44.5t-44 17.5t-44 -17.5t-18 -44.5zM447 569q0 -26 17 -44t45 -18q26 0 44 18t18 44q0 27 -18 44.5
t-44 17.5t-44 -17.5t-18 -44.5zM1023 243v122h98v-113q0 -79 39.5 -125t106.5 -46q68 0 107.5 46t39.5 125v448h98v-457q0 -76 -30.5 -133.5t-85.5 -89t-129 -31.5q-73 0 -128 31.5t-85.5 89t-30.5 133.5zM1401 860q0 26 17.5 43.5t44.5 17.5t44.5 -17.5t17.5 -43.5
t-17.5 -43.5t-44.5 -17.5t-44.5 17.5t-17.5 43.5z" />
    <glyph glyph-name="uni1675" unicode="&#x1675;" horiz-adv-x="1614" 
d="M59 569q0 40 18.5 71.5t51 50t73.5 18.5q59 0 98 -34.5t39 -88.5q0 -23 -8.5 -43.5t-26.5 -35.5h103q-35 30 -35 79q0 54 39 88.5t98 34.5t98 -34.5t39 -88.5q0 -23 -8.5 -43.5t-26.5 -35.5h131v-127q0 -30 15 -47.5t41 -17.5t41 17.5t15 47.5v43h80v-48
q0 -62 -38.5 -100.5t-97.5 -38.5q-60 0 -98.5 38.5t-38.5 100.5v56h-443q-76 0 -117.5 41t-41.5 97zM140 569q0 -26 18.5 -44t43.5 -18q28 0 45 18t17 44q0 27 -18 44.5t-44 17.5t-44 -17.5t-18 -44.5zM447 569q0 -26 17 -44t45 -18q26 0 44 18t18 44q0 27 -18 44.5
t-44 17.5t-44 -17.5t-18 -44.5zM1049 243v457h98v-448q0 -79 39.5 -125t106.5 -46q68 0 107 46t39 125v113h99v-122q0 -76 -30.5 -133.5t-85.5 -89t-129 -31.5q-73 0 -128 31.5t-85.5 89t-30.5 133.5z" />
    <glyph glyph-name="uni1676" unicode="&#x1676;" horiz-adv-x="1614" 
d="M59 569q0 40 18.5 71.5t51 50t73.5 18.5q59 0 98 -34.5t39 -88.5q0 -23 -8.5 -43.5t-26.5 -35.5h103q-35 30 -35 79q0 54 39 88.5t98 34.5t98 -34.5t39 -88.5q0 -23 -8.5 -43.5t-26.5 -35.5h131v-127q0 -30 15 -47.5t41 -17.5t41 17.5t15 47.5v43h80v-48
q0 -62 -38.5 -100.5t-97.5 -38.5q-60 0 -98.5 38.5t-38.5 100.5v56h-443q-76 0 -117.5 41t-41.5 97zM140 569q0 -26 18.5 -44t43.5 -18q28 0 45 18t17 44q0 27 -18 44.5t-44 17.5t-44 -17.5t-18 -44.5zM447 569q0 -26 17 -44t45 -18q26 0 44 18t18 44q0 27 -18 44.5
t-44 17.5t-44 -17.5t-18 -44.5zM1049 243v457h98v-448q0 -79 39.5 -125t106.5 -46q68 0 107 46t39 125v113h99v-122q0 -76 -30.5 -133.5t-85.5 -89t-129 -31.5q-73 0 -128 31.5t-85.5 89t-30.5 133.5zM1035 860q0 26 17.5 43.5t44.5 17.5t44.5 -17.5t17.5 -43.5t-17.5 -43.5
t-44.5 -17.5t-44.5 17.5t-17.5 43.5z" />
    <glyph glyph-name="sylring" 
d="M222 877q0 42 30 71.5t78 29.5t78 -29.5t30 -71.5q0 -43 -30 -72.5t-78 -29.5t-78 29.5t-30 72.5zM283 877q0 -21 13 -34.5t34 -13.5t34 13.5t13 34.5q0 20 -13 33.5t-34 13.5t-34 -13.5t-13 -33.5z" />
    <glyph glyph-name="syldotaccent" 
d="M268 860q0 26 17.5 43.5t44.5 17.5t44.5 -17.5t17.5 -43.5t-17.5 -43.5t-44.5 -17.5t-44.5 17.5t-17.5 43.5z" />
    <glyph glyph-name="uni00B4" unicode="&#xb4;" 
d="M287 600l79 170h104l-108 -170h-75z" />
    <glyph glyph-name="uni02D8" unicode="&#x2d8;" 
d="M178 765h75q12 -89 77 -89t77 89h75q-8 -82 -49 -126t-103 -44t-103 44t-49 126z" />
    <glyph glyph-name="uni02C7" unicode="&#x2c7;" 
d="M178 765h79l74 -94l74 94h77l-112 -170h-79z" />
    <glyph glyph-name="uni02C7.alt" 
d="M332 730h93l-42 -264h-72z" />
    <glyph glyph-name="uni00B8" unicode="&#xb8;" 
d="M208 -147l17 47q25 -10 46 -10q31 0 31 17q0 8 -11.5 15t-49.5 11l28 85l45 -14l-10 -41q37 -4 56.5 -22.5t19.5 -41.5q0 -25 -23 -42.5t-67 -17.5q-22 0 -43.5 4t-38.5 10z" />
    <glyph glyph-name="uni02C6" unicode="&#x2c6;" 
d="M178 600l112 170h80l112 -170h-78l-74 94l-74 -94h-78z" />
    <glyph glyph-name="commaaccent" 
d="M268 -138q0 26 17.5 43.5t44.5 17.5q28 0 46 -18t18 -50q0 -33 -15.5 -75t-35.5 -73h-62q12 23 20 49t12 47q-20 5 -32.5 21t-12.5 38z" />
    <glyph glyph-name="commaaccent.alt" 
d="M392 680q0 -25 -17.5 -43t-44.5 -18q-28 0 -46 18.5t-18 49.5q0 33 15.5 75t35.5 73h62q-12 -23 -20.5 -49t-11.5 -47q20 -4 32.5 -20t12.5 -39z" />
    <glyph glyph-name="uni00A8" unicode="&#xa8;" 
d="M169 685q0 24 16 40t41 16q26 0 41.5 -16t15.5 -40t-15.5 -40t-41.5 -16q-25 0 -41 16t-16 40zM377 685q0 24 16 40t41 16q26 0 41.5 -16t15.5 -40t-15.5 -40t-41.5 -16q-25 0 -41 16t-16 40z" />
    <glyph glyph-name="uni02D9" unicode="&#x2d9;" 
d="M268 680q0 26 17.5 43.5t44.5 17.5t44.5 -17.5t17.5 -43.5t-17.5 -43.5t-44.5 -17.5t-44.5 17.5t-17.5 43.5z" />
    <glyph glyph-name="dotbelow" 
d="M268 -138q0 26 17.5 43.5t44.5 17.5t44.5 -17.5t17.5 -43.5t-17.5 -43.5t-44.5 -17.5t-44.5 17.5t-17.5 43.5z" />
    <glyph glyph-name="uni0060" unicode="`" 
d="M190 770h104l79 -170h-75z" />
    <glyph glyph-name="uni02DD" unicode="&#x2dd;" 
d="M221 600l65 170h97l-95 -170h-67zM359 600l65 170h97l-94 -170h-68z" />
    <glyph glyph-name="uni00AF" unicode="&#xaf;" 
d="M183 648v74h294v-74h-294z" />
    <glyph glyph-name="uni02C9" unicode="&#x2c9;" 
d="M183 648v74h294v-74h-294z" />
    <glyph glyph-name="uni02DB" unicode="&#x2db;" 
d="M253 18l77 -18q-64 -28 -95 -56.5t-31 -53.5q0 -14 10 -23.5t29 -9.5q22 0 50 17l23 -57q-19 -12 -43.5 -20.5t-46.5 -8.5q-45 0 -72.5 25t-27.5 62q0 44 33 79.5t94 63.5z" />
    <glyph glyph-name="uni02DA" unicode="&#x2da;" 
d="M225 698q0 44 29.5 73t75.5 29t75.5 -29t29.5 -73q0 -43 -29.5 -73t-75.5 -30t-75.5 30t-29.5 73zM286 698q0 -22 12.5 -35.5t31.5 -13.5t31.5 13.5t12.5 35.5t-12.5 35t-31.5 13t-31.5 -13t-12.5 -35z" />
    <glyph glyph-name="ringacute" 
d="M300 856l79 159h104l-108 -159h-75zM225 698q0 44 29.5 73t75.5 29t75.5 -29t29.5 -73q0 -43 -29.5 -73t-75.5 -30t-75.5 30t-29.5 73zM286 698q0 -22 12.5 -35.5t31.5 -13.5t31.5 13.5t12.5 35.5t-12.5 35t-31.5 13t-31.5 -13t-12.5 -35z" />
    <glyph glyph-name="uni02DC" unicode="&#x2dc;" 
d="M164 600q4 63 27 104.5t71 41.5q27 0 46.5 -12t34.5 -27t28.5 -27t26.5 -12q15 0 24.5 16.5t13.5 56.5h60q-4 -63 -27.5 -104.5t-70.5 -41.5q-27 0 -46.5 12t-35 27t-28.5 27t-26 12q-15 0 -24.5 -16.5t-13.5 -56.5h-60z" />
    <glyph glyph-name="uni00B4.cap" 
d="M284 764l100 145h116l-136 -145h-80z" />
    <glyph glyph-name="uni02D8.cap" 
d="M168 904h75q5 -31 27.5 -48t59.5 -17t59.5 17t27.5 48h75q-7 -69 -52 -107t-110 -38t-110 38t-52 107z" />
    <glyph glyph-name="uni02C7.cap" 
d="M489 904l-116 -145h-86l-116 145h78l81 -75l81 75h78z" />
    <glyph glyph-name="uni02C6.cap" 
d="M171 764l116 145h86l116 -145h-78l-81 75l-81 -75h-78z" />
    <glyph glyph-name="uni00A8.cap" 
d="M163 830q0 24 16 40t41 16q26 0 42 -16t16 -40t-16 -40t-42 -16q-25 0 -41 16t-16 40zM382 830q0 24 16 40t42 16t41.5 -16t15.5 -40t-15.5 -40t-41.5 -16t-42 16t-16 40z" />
    <glyph glyph-name="uni02D9.cap" 
d="M268 842q0 26 17.5 43.5t44.5 17.5t44.5 -17.5t17.5 -43.5t-17.5 -43.5t-44.5 -17.5t-44.5 17.5t-17.5 43.5z" />
    <glyph glyph-name="uni0060.cap" 
d="M160 909h116l100 -145h-80z" />
    <glyph glyph-name="uni02DD.cap" 
d="M230 764l72 145h98l-100 -145h-70zM370 764l72 145h97l-100 -145h-69z" />
    <glyph glyph-name="uni00AF.cap" 
d="M169 795v73h322v-73h-322z" />
    <glyph glyph-name="uni02DA.cap" 
d="M222 857q0 42 30 71.5t78 29.5t78 -29.5t30 -71.5q0 -43 -30 -72.5t-78 -29.5t-78 29.5t-30 72.5zM283 857q0 -21 13 -34.5t34 -13.5t34 13.5t13 34.5q0 20 -13 33.5t-34 13.5t-34 -13.5t-13 -33.5z" />
    <glyph glyph-name="ringacute.cap" 
d="M295 993l94 135h115l-128 -135h-81zM222 857q0 42 30 71.5t78 29.5t78 -29.5t30 -71.5q0 -43 -30 -72.5t-78 -29.5t-78 29.5t-30 72.5zM283 857q0 -21 13 -34.5t34 -13.5t34 13.5t13 34.5q0 20 -13 33.5t-34 13.5t-34 -13.5t-13 -33.5z" />
    <glyph glyph-name="uni02DC.cap" 
d="M154 765q5 60 28.5 99.5t72.5 39.5q27 0 48.5 -10.5t39 -25t32.5 -25t30 -10.5q17 0 27 15t14 51h60q-4 -60 -28 -99.5t-73 -39.5q-27 0 -48.5 11t-39 25t-33 25t-29.5 11q-17 0 -26.5 -15.5t-14.5 -51.5h-60z" />
    <glyph glyph-name="uni002E" unicode="." horiz-adv-x="293" 
d="M76 57q0 29 20 49t50 20q31 0 51 -20t20 -49q0 -28 -20 -48t-51 -20q-30 0 -50 20t-20 48z" />
    <glyph glyph-name="uni002E.tab" horiz-adv-x="600" 
d="M229 57q0 29 20 49t51 20t51 -20t20 -49q0 -28 -20 -48t-51 -20t-51 20t-20 48z" />
    <glyph glyph-name="uni002C" unicode="," horiz-adv-x="293" 
d="M76 57q0 29 20 49t49 20q32 0 52.5 -21.5t20.5 -58.5q0 -49 -20.5 -97.5t-50.5 -98.5h-66q20 40 32 75t17 65q-25 5 -39.5 23.5t-14.5 43.5z" />
    <glyph glyph-name="uni002C.tab" horiz-adv-x="600" 
d="M229 57q0 29 20 49t50 20q32 0 52 -21.5t20 -58.5q0 -49 -20 -97.5t-51 -98.5h-66q40 81 50 140q-25 5 -40 23.5t-15 43.5z" />
    <glyph glyph-name="uni003A" unicode=":" horiz-adv-x="293" 
d="M76 57q0 29 20 49t50 20q31 0 51 -20t20 -49q0 -28 -20 -48t-51 -20q-30 0 -50 20t-20 48zM76 461q0 29 20 49t50 20q31 0 51 -20t20 -49q0 -28 -20 -48t-51 -20q-30 0 -50 20t-20 48z" />
    <glyph glyph-name="uni003B" unicode=";" horiz-adv-x="293" 
d="M76 57q0 29 20 49t49 20q32 0 52.5 -21.5t20.5 -58.5q0 -49 -20.5 -97.5t-50.5 -98.5h-66q20 40 32 75t17 65q-25 5 -39.5 23.5t-14.5 43.5zM76 461q0 29 20 49t50 20q31 0 51 -20t20 -49q0 -28 -20 -48t-51 -20q-30 0 -50 20t-20 48z" />
    <glyph glyph-name="uni2026" unicode="&#x2026;" horiz-adv-x="778" 
d="M76 57q0 29 20 49t50 20q31 0 51 -20t20 -49q0 -28 -20 -48t-51 -20q-30 0 -50 20t-20 48zM318 57q0 29 20 49t50 20q31 0 51 -20t20 -49q0 -28 -20 -48t-51 -20q-30 0 -50 20t-20 48zM561 57q0 29 20 49t50 20q31 0 51 -20t20 -49q0 -28 -20 -48t-51 -20q-30 0 -50 20
t-20 48z" />
    <glyph glyph-name="uni0021" unicode="!" horiz-adv-x="293" 
d="M93 501v199h107v-199l-22 -281h-63zM76 57q0 29 20 49t50 20q31 0 51 -20t20 -49q0 -28 -20 -48t-51 -20q-30 0 -50 20t-20 48z" />
    <glyph glyph-name="uni00A1" unicode="&#xa1;" horiz-adv-x="293" 
d="M76 461q0 29 20 49t50 20q31 0 51 -20t20 -49q0 -28 -20 -48t-51 -20q-30 0 -50 20t-20 48zM93 -150v174l22 274h63l22 -274v-174h-107z" />
    <glyph glyph-name="uni003F" unicode="?" horiz-adv-x="569" 
d="M54 529q21 83 83.5 132.5t149.5 49.5q65 0 113.5 -24t75.5 -64t27 -89q0 -51 -23 -89.5t-84 -76.5q-27 -17 -43 -32t-23.5 -33.5t-10.5 -47.5l-4 -35h-69l-6 53q-1 8 -1.5 16t-0.5 16q0 38 20 65.5t76 63.5q35 23 51 46t16 51q0 37 -31 62.5t-87 25.5t-92 -31.5
t-51 -90.5zM210 57q0 29 20 49t50 20q31 0 51 -20t20 -49q0 -28 -20 -48t-51 -20q-30 0 -50 20t-20 48z" />
    <glyph glyph-name="uni00BF" unicode="&#xbf;" horiz-adv-x="569" 
d="M218 461q0 29 20 49t51 20t51 -20t20 -49q0 -28 -20 -48t-51 -20t-51 20t-20 48zM66 2q0 43 24 83t83 75q41 25 57.5 45t20.5 58l4 35h68l6 -52q1 -8 1.5 -16.5t0.5 -16.5q0 -35 -19.5 -60t-76.5 -58q-34 -20 -51 -40.5t-17 -46.5q0 -34 28.5 -55.5t85.5 -21.5
q61 0 97 30t51 85l86 -32q-21 -80 -84 -127.5t-154 -47.5q-64 0 -111.5 22t-73.5 59.5t-26 81.5z" />
    <glyph glyph-name="uni2039" unicode="&#x2039;" horiz-adv-x="326" 
d="M44 245v40l141 165h107l-162 -185l162 -185h-107z" />
    <glyph glyph-name="uni2039.cap" horiz-adv-x="326" 
d="M44 285v40l141 165h107l-162 -185l162 -185h-107z" />
    <glyph glyph-name="uni203A" unicode="&#x203a;" horiz-adv-x="326" 
d="M34 80l162 185l-162 185h107l141 -165v-40l-141 -165h-107z" />
    <glyph glyph-name="uni203A.cap" horiz-adv-x="326" 
d="M34 120l162 185l-162 185h107l141 -165v-40l-141 -165h-107z" />
    <glyph glyph-name="uni00AB" unicode="&#xab;" horiz-adv-x="544" 
d="M44 245v40l141 165h107l-162 -185l162 -185h-107zM262 245v40l141 165h107l-161 -185l161 -185h-107z" />
    <glyph glyph-name="uni00AB.cap" horiz-adv-x="544" 
d="M44 285v40l141 165h107l-162 -185l162 -185h-107zM262 285v40l141 165h107l-161 -185l161 -185h-107z" />
    <glyph glyph-name="uni00BB" unicode="&#xbb;" horiz-adv-x="544" 
d="M34 80l162 185l-162 185h107l141 -165v-40l-141 -165h-107zM252 80l162 185l-162 185h107l141 -165v-40l-141 -165h-107z" />
    <glyph glyph-name="uni00BB.cap" horiz-adv-x="544" 
d="M34 120l162 185l-162 185h107l141 -165v-40l-141 -165h-107zM252 120l162 185l-162 185h107l141 -165v-40l-141 -165h-107z" />
    <glyph glyph-name="uni0027" unicode="'" horiz-adv-x="243" 
d="M72 730h100l-13 -264h-74z" />
    <glyph glyph-name="uni0022" unicode="&#x22;" horiz-adv-x="426" 
d="M72 730h103l-14 -264h-75zM250 730h104l-15 -264h-74z" />
    <glyph glyph-name="uni2018" unicode="&#x2018;" horiz-adv-x="266" 
d="M62 534q0 50 20 98.5t51 97.5h66q-40 -81 -50 -140q25 -5 40 -23.5t15 -43.5q0 -29 -20 -49t-50 -20q-32 0 -52 21.5t-20 58.5z" />
    <glyph glyph-name="uni2019" unicode="&#x2019;" horiz-adv-x="266" 
d="M62 673q0 29 20 48.5t50 19.5q32 0 52 -21t20 -58q0 -49 -20 -97.5t-51 -98.5h-66q20 39 32 74t18 66q-25 5 -40 23.5t-15 43.5z" />
    <glyph glyph-name="uni201C" unicode="&#x201c;" horiz-adv-x="450" 
d="M62 534q0 50 20 98.5t51 97.5h66q-40 -81 -50 -140q25 -5 40 -23.5t15 -43.5q0 -29 -20 -49t-50 -20q-32 0 -52 21.5t-20 58.5zM247 534q0 50 20 98.5t51 97.5h65q-19 -40 -31.5 -75t-17.5 -65q25 -5 39.5 -23.5t14.5 -43.5q0 -29 -20 -49t-49 -20q-32 0 -52 21.5
t-20 58.5z" />
    <glyph glyph-name="uni201D" unicode="&#x201d;" horiz-adv-x="450" 
d="M62 673q0 29 20 48.5t50 19.5q32 0 52 -21t20 -58q0 -49 -20 -97.5t-51 -98.5h-66q20 39 32 74t18 66q-25 5 -40 23.5t-15 43.5zM247 673q0 29 20 48.5t49 19.5q32 0 52 -21t20 -58q0 -49 -20 -97.5t-51 -98.5h-65q20 39 32 74t17 66q-25 5 -39.5 23.5t-14.5 43.5z" />
    <glyph glyph-name="uni201A" unicode="&#x201a;" horiz-adv-x="266" 
d="M62 57q0 29 20 49t50 20q32 0 52 -21.5t20 -58.5q0 -49 -20 -97.5t-51 -98.5h-66q20 40 32 75t18 65q-25 5 -40 23.5t-15 43.5z" />
    <glyph glyph-name="uni201E" unicode="&#x201e;" horiz-adv-x="450" 
d="M62 57q0 29 20 49t50 20q32 0 52 -21.5t20 -58.5q0 -49 -20 -97.5t-51 -98.5h-66q20 40 32 75t18 65q-25 5 -40 23.5t-15 43.5zM247 57q0 29 20 49t49 20q32 0 52 -21.5t20 -58.5q0 -49 -20 -97.5t-51 -98.5h-65q20 40 32 75t17 65q-25 5 -39.5 23.5t-14.5 43.5z" />
    <glyph glyph-name="uni0028" unicode="(" horiz-adv-x="324" 
d="M88 315q0 155 46 283.5t132 240.5l58 -41q-141 -205 -141 -483q0 -277 141 -483l-58 -41q-86 113 -132 241.5t-46 282.5z" />
    <glyph glyph-name="uni0028.cap" horiz-adv-x="324" 
d="M88 345q0 155 46 283.5t132 240.5l58 -41q-141 -205 -141 -483q0 -277 141 -483l-58 -41q-86 113 -132 241.5t-46 282.5z" />
    <glyph glyph-name="uni0029" unicode=")" horiz-adv-x="324" 
d="M0 -168q71 103 105.5 224t34.5 259t-34.5 259t-105.5 224l58 41q86 -112 132 -240.5t46 -283.5q0 -154 -46 -282.5t-132 -241.5z" />
    <glyph glyph-name="uni0029.cap" horiz-adv-x="324" 
d="M0 -138q71 103 105.5 224t34.5 259t-34.5 259t-105.5 224l58 41q86 -112 132 -240.5t46 -283.5q0 -154 -46 -282.5t-132 -241.5z" />
    <glyph glyph-name="uni005B" unicode="[" horiz-adv-x="316" 
d="M110 -202v1034h221v-85h-129v-864h129v-85h-221z" />
    <glyph glyph-name="uni005B.cap" horiz-adv-x="316" 
d="M110 -172v1034h221v-85h-129v-864h129v-85h-221z" />
    <glyph glyph-name="uni005D" unicode="]" horiz-adv-x="316" 
d="M-15 -202v85h129v864h-129v85h221v-1034h-221z" />
    <glyph glyph-name="uni005D.cap" horiz-adv-x="316" 
d="M-15 -172v85h129v864h-129v85h221v-1034h-221z" />
    <glyph glyph-name="uni007B" unicode="{" horiz-adv-x="337" 
d="M84 289v52q38 8 66 36.5t28 68.5q0 32 -11.5 59t-26 52.5t-26 52.5t-11.5 59q0 47 26.5 82.5t72 58.5t102.5 32l14 -70q-68 -13 -94 -39t-26 -61q0 -29 11 -56t25 -53.5t25 -55t11 -60.5q0 -45 -27.5 -79.5t-65.5 -52.5q38 -18 65.5 -52.5t27.5 -79.5q0 -32 -11 -60.5
t-25 -55t-25 -53.5t-11 -56q0 -36 26 -61t94 -39l-14 -70q-57 9 -102.5 32t-72 59t-26.5 82q0 32 11.5 59t26 52.5t26 52.5t11.5 59q0 41 -28 69t-66 36z" />
    <glyph glyph-name="uni007B.cap" horiz-adv-x="337" 
d="M84 319v52q38 8 66 36.5t28 68.5q0 32 -11.5 59t-26 52.5t-26 52.5t-11.5 59q0 47 26.5 82.5t72 58.5t102.5 32l14 -70q-68 -13 -94 -39t-26 -61q0 -29 11 -56t25 -53.5t25 -55t11 -60.5q0 -45 -27.5 -79.5t-65.5 -52.5q38 -18 65.5 -52.5t27.5 -79.5q0 -32 -11 -60.5
t-25 -55t-25 -53.5t-11 -56q0 -36 26 -61t94 -39l-14 -70q-57 9 -102.5 32t-72 59t-26.5 82q0 32 11.5 59t26 52.5t26 52.5t11.5 59q0 41 -28 69t-66 36z" />
    <glyph glyph-name="uni007D" unicode="}" horiz-adv-x="337" 
d="M20 -142q68 14 93.5 39.5t25.5 60.5q0 29 -10.5 56t-25 53.5t-25 55t-10.5 60.5q0 45 27 79.5t65 52.5q-38 18 -65 52.5t-27 79.5q0 32 10.5 60.5t25 55t25 53.5t10.5 56q0 35 -25.5 61t-93.5 39l13 70q58 -9 103 -32t71.5 -58.5t26.5 -82.5q0 -32 -11.5 -59t-26 -52.5
t-26 -52.5t-11.5 -59q0 -40 28 -68.5t66 -36.5v-52q-38 -8 -66 -36t-28 -69q0 -32 11.5 -59t26 -52.5t26 -52.5t11.5 -59q0 -46 -26.5 -82t-71.5 -59t-103 -32z" />
    <glyph glyph-name="uni007D.cap" horiz-adv-x="337" 
d="M20 -112q68 14 93.5 39.5t25.5 60.5q0 29 -10.5 56t-25 53.5t-25 55t-10.5 60.5q0 45 27 79.5t65 52.5q-38 18 -65 52.5t-27 79.5q0 32 10.5 60.5t25 55t25 53.5t10.5 56q0 35 -25.5 61t-93.5 39l13 70q58 -9 103 -32t71.5 -58.5t26.5 -82.5q0 -32 -11.5 -59t-26 -52.5
t-26 -52.5t-11.5 -59q0 -40 28 -68.5t66 -36.5v-52q-38 -8 -66 -36t-28 -69q0 -32 11.5 -59t26 -52.5t26 -52.5t11.5 -59q0 -46 -26.5 -82t-71.5 -59t-103 -32z" />
    <glyph glyph-name="uni002D" unicode="-" horiz-adv-x="428" 
d="M67 238v84h295v-84h-295z" />
    <glyph glyph-name="uni002D.cap" horiz-adv-x="428" 
d="M67 278v84h295v-84h-295z" />
    <glyph glyph-name="uni00AD" unicode="&#xad;" horiz-adv-x="428" 
d="M67 238v84h295v-84h-295z" />
    <glyph glyph-name="uni00AD.cap" horiz-adv-x="428" 
d="M67 278v84h295v-84h-295z" />
    <glyph glyph-name="uni2013" unicode="&#x2013;" horiz-adv-x="546" 
d="M67 238v84h412v-84h-412z" />
    <glyph glyph-name="uni2013.cap" horiz-adv-x="546" 
d="M67 278v84h412v-84h-412z" />
    <glyph glyph-name="uni2014" unicode="&#x2014;" horiz-adv-x="750" 
d="M0 237v85h750v-85h-750z" />
    <glyph glyph-name="uni2014.cap" horiz-adv-x="750" 
d="M0 277v85h750v-85h-750z" />
    <glyph glyph-name="uni005F" unicode="_" horiz-adv-x="412" 
d="M0 -88v84h412v-84h-412z" />
    <glyph glyph-name="uni2022" unicode="&#x2022;" horiz-adv-x="341" 
d="M76 291q0 38 27 65.5t67 27.5q41 0 68 -27.5t27 -65.5t-27 -65.5t-68 -27.5q-40 0 -67 27.5t-27 65.5z" />
    <glyph glyph-name="uni2022.cap" horiz-adv-x="341" 
d="M76 331q0 38 27 65.5t67 27.5q41 0 68 -27.5t27 -65.5t-27 -65.5t-68 -27.5q-40 0 -67 27.5t-27 65.5z" />
    <glyph glyph-name="uni00B7" unicode="&#xb7;" horiz-adv-x="293" 
d="M76 285q0 29 20 49t50 20q31 0 51 -20t20 -49q0 -28 -20 -48t-51 -20q-30 0 -50 20t-20 48z" />
    <glyph glyph-name="uni00B7.cap" horiz-adv-x="293" 
d="M76 325q0 29 20 49t50 20q31 0 51 -20t20 -49q0 -28 -20 -48t-51 -20q-30 0 -50 20t-20 48z" />
    <glyph glyph-name="uni007C" unicode="|" horiz-adv-x="304" 
d="M110 -150v850h84v-850h-84z" />
    <glyph glyph-name="uni00A6" unicode="&#xa6;" horiz-adv-x="304" 
d="M110 380v320h84v-320h-84zM110 -150v320h84v-320h-84z" />
    <glyph glyph-name="uni2020" unicode="&#x2020;" horiz-adv-x="558" 
d="M237 -150v570h-173v77h173v203h85v-203h173v-77h-173v-570h-85z" />
    <glyph glyph-name="uni2021" unicode="&#x2021;" horiz-adv-x="558" 
d="M64 53v77h173v290h-173v77h173v203h85v-203h173v-77h-173v-290h173v-77h-173v-203h-85v203h-173z" />
    <glyph glyph-name="uni002F" unicode="/" horiz-adv-x="397" 
d="M4 -150l301 950h88l-300 -950h-89z" />
    <glyph glyph-name="uni005C" unicode="\" horiz-adv-x="397" 
d="M4 800h89l300 -950h-88z" />
    <glyph glyph-name="uni0023" unicode="#" horiz-adv-x="692" 
d="M99 0l47 192h-100v79h119l39 158h-101v79h120l47 192h86l-47 -192h150l47 192h87l-47 -192h100v-79h-119l-39 -158h100v-79h-119l-47 -192h-86l47 192h-150l-47 -192h-87zM252 271h150l38 158h-150z" />
    <glyph glyph-name="uni0026" unicode="&#x26;" horiz-adv-x="659" 
d="M62 163q0 39 12.5 74t45.5 68.5t92 67.5q-37 50 -56.5 87.5t-19.5 78.5q0 48 22.5 87t63.5 62t96 23q54 0 94.5 -22.5t63.5 -59t23 -80.5q0 -53 -34 -99t-120 -93l125 -156q40 49 79 112l74 -53q-24 -37 -48 -69t-49 -60l104 -131h-126l-49 63q-44 -36 -92 -55t-101 -19
q-63 0 -108 24t-68.5 63.5t-23.5 86.5zM237 543q0 -29 14 -56.5t46 -68.5q62 33 81.5 62.5t19.5 61.5q0 35 -23 59t-58 24t-57.5 -24.5t-22.5 -57.5zM163 176q0 -40 28.5 -69.5t74.5 -29.5q35 0 69 14.5t66 40.5l-141 179q-58 -35 -77.5 -69t-19.5 -66z" />
    <glyph glyph-name="uni00A7" unicode="&#xa7;" horiz-adv-x="627" 
d="M59 283q0 45 28.5 81.5t83.5 57.5q-29 25 -42 55t-13 64q0 45 26.5 84t73 62.5t106.5 23.5q61 1 108 -19t87 -57l-63 -70q-26 27 -59 42t-71 15q-55 0 -82 -24.5t-27 -53.5q0 -19 12 -37t44 -34.5t91 -30.5q80 -18 125 -44t63 -58.5t18 -71.5q0 -45 -28.5 -81.5
t-84.5 -56.5q29 -25 42 -55.5t13 -63.5q0 -45 -26.5 -84t-72.5 -62.5t-107 -24.5t-107 19t-87 57l63 70q26 -27 58.5 -42t70.5 -15q56 0 83 24.5t27 53.5q0 20 -12 38t-44 34t-92 30q-79 19 -124 44.5t-63 58t-18 71.5zM311 197q42 -10 77 -26q44 10 63 31t19 49
q0 22 -12.5 39.5t-46 33.5t-95.5 31q-45 11 -76 25q-44 -10 -63.5 -31t-19.5 -49q0 -22 12.5 -39.5t46 -33t95.5 -30.5z" />
    <glyph glyph-name="uni00B6" unicode="&#xb6;" horiz-adv-x="714" 
d="M301 -150v405h-26q-64 0 -115 27.5t-81 77.5t-30 117q0 68 30 118t81 77.5t115 27.5h126v-850h-100zM505 -150v850h100v-850h-100z" />
    <glyph glyph-name="uni0040" unicode="@" horiz-adv-x="986" 
d="M63 265q0 95 33 176t92 141.5t138.5 94.5t171.5 34q90 0 167 -33t135 -91.5t90.5 -138t32.5 -172.5t-24 -157t-63.5 -97t-88.5 -33q-52 0 -87.5 31.5t-46.5 86.5q-25 -35 -62 -54.5t-84 -19.5q-56 0 -103.5 29t-75.5 80.5t-28 120.5q0 70 28 121.5t75.5 80t103.5 28.5
q44 0 79.5 -17.5t60.5 -49.5v56h96v-348q0 -31 13.5 -49t35.5 -18t41.5 20.5t32.5 66.5t13 122q0 77 -26.5 142.5t-73.5 114.5t-108.5 76t-132.5 27q-74 0 -138 -28t-112 -78.5t-74.5 -118t-26.5 -146.5q0 -78 25 -142.5t69.5 -111t102 -72t121.5 -25.5q37 0 67 8t60 22
l30 -70q-37 -17 -75 -26t-82 -9q-82 0 -155 30.5t-128.5 87.5t-87 135t-31.5 173zM358 263q0 -67 36 -105.5t88 -38.5q56 0 93.5 37.5t37.5 106.5t-37.5 106.5t-93.5 37.5q-32 0 -60.5 -17.5t-46 -49.5t-17.5 -77z" />
    <glyph glyph-name="uni002A" unicode="*" horiz-adv-x="605" 
d="M54 513l31 95l185 -79l-17 201h100l-18 -201l186 79l31 -95l-198 -46l132 -154l-81 -58l-102 173l-103 -173l-81 58l133 154z" />
    <glyph glyph-name="uni00A9" unicode="&#xa9;" horiz-adv-x="824" 
d="M64 350q0 75 27 140t74.5 115t110.5 78t136 28t136 -28t110.5 -78t74.5 -115t27 -140t-27 -140t-74.5 -115t-110.5 -78t-136 -28t-136 28t-110.5 78t-74.5 115t-27 140zM141 350q0 -80 35 -146t96.5 -105.5t139.5 -39.5t139 39.5t96.5 105.5t35.5 146t-35.5 146
t-96.5 105.5t-139 39.5t-139.5 -39.5t-96.5 -105.5t-35 -146zM233 350q0 57 25 102.5t68.5 72t97.5 26.5q49 0 86.5 -21t58.5 -56l-61 -41q-13 23 -35.5 34.5t-48.5 11.5q-47 0 -79.5 -36t-32.5 -93q0 -58 33 -94t80 -36q58 0 89 51l60 -44q-25 -35 -64 -57t-86 -22
q-54 0 -97.5 26.5t-68.5 72.5t-25 103z" />
    <glyph glyph-name="uni00AE" unicode="&#xae;" horiz-adv-x="824" 
d="M64 350q0 75 27 140t74.5 115t110.5 78t136 28t136 -28t110.5 -78t74.5 -115t27 -140t-27 -140t-74.5 -115t-110.5 -78t-136 -28t-136 28t-110.5 78t-74.5 115t-27 140zM141 350q0 -80 35 -146t96.5 -105.5t139.5 -39.5t139 39.5t96.5 105.5t35.5 146t-35.5 146
t-96.5 105.5t-139 39.5t-139.5 -39.5t-96.5 -105.5t-35 -146zM277 156v390h148q63 0 101 -35t38 -91q0 -42 -22 -72.5t-61 -43.5l93 -148h-87l-82 139h-54v-139h-74zM419 478h-68v-118h68q32 0 49.5 16.5t17.5 43.5q0 26 -17.5 42t-49.5 16z" />
    <glyph glyph-name="uni2122" unicode="&#x2122;" horiz-adv-x="837" 
d="M386 280v423h36l150 -227l150 227h38v-423h-75v248l-102 -155h-21l-102 155v-248h-74zM128 280v353h-115v68h305v-68h-115v-353h-75z" />
    <glyph glyph-name="uni005E" unicode="^" horiz-adv-x="600" 
d="M68 291l210 420h44l210 -420h-97l-135 287l-135 -287h-97z" />
    <glyph glyph-name="uni007E" unicode="~" horiz-adv-x="600" 
d="M78 275q6 85 37.5 137.5t93.5 52.5q33 0 59.5 -16.5t47.5 -37.5t40 -37.5t37 -16.5q24 0 40 23t22 79h67q-6 -85 -37.5 -137.5t-93.5 -52.5q-33 0 -59.5 16.5t-48 38t-40 38t-36.5 16.5q-24 0 -40 -23.5t-22 -79.5h-67z" />
    <glyph glyph-name="uni00A2" unicode="&#xa2;" horiz-adv-x="531" 
d="M249 60v144q-55 12 -97.5 46t-67 87t-24.5 118q0 66 24.5 118t67 87t97.5 46v144h84v-141q51 -6 90 -30.5t65 -62.5l-80 -54q-16 29 -45 44.5t-62 15.5q-60 0 -101 -45t-41 -122q0 -51 19.5 -88.5t52 -58t72.5 -20.5q35 0 66 18t47 47l76 -58q-26 -37 -66.5 -62
t-92.5 -32v-141h-84z" />
    <glyph glyph-name="uni00A4" unicode="&#xa4;" horiz-adv-x="621" 
d="M54 125l97 97q-13 22 -21 48t-8 54q0 29 8 54.5t21 47.5l-97 97l57 57l99 -98q44 27 100 27q55 0 101 -27l98 98l58 -57l-98 -98q28 -45 28 -101t-28 -101l98 -98l-58 -57l-98 98q-46 -27 -101 -27t-101 27l-98 -98zM209 324q0 -47 29.5 -77t71.5 -30q41 0 70.5 30
t29.5 77t-29 77t-71 30t-71.5 -30t-29.5 -77z" />
    <glyph glyph-name="uni0024" unicode="$" horiz-adv-x="609" 
d="M44 87l62 73q39 -34 91 -57.5t111 -23.5q79 0 116 29.5t37 71.5q0 26 -13 48t-48 42t-100 38q-85 24 -134 56t-70 71.5t-21 83.5q0 47 24.5 87t68 67.5t101.5 34.5v142h83v-141q53 -6 96 -25.5t81 -49.5l-63 -71q-31 27 -70 43t-85 16q-69 0 -103 -31t-34 -67
q0 -37 33 -66.5t124 -55.5q128 -36 178.5 -90t50.5 -125q0 -74 -54.5 -129t-153.5 -66v-142h-83v141q-62 5 -120 30.5t-105 65.5z" />
    <glyph glyph-name="uni20AC" unicode="&#x20ac;" horiz-adv-x="645" 
d="M14 243v74h72q-1 8 -1 16.5v16.5v14.5t1 13.5h-72v74h81q17 78 57 136t98 90.5t128 32.5t127.5 -34.5t91.5 -95.5l-81 -52q-25 45 -63 68t-77 23q-62 0 -109 -45.5t-67 -122.5h251v-74h-262q-1 -7 -1 -13.5v-14.5v-16.5t1 -16.5h262v-74h-250q20 -74 65 -118.5t106 -44.5
q44 0 84 25t65 73l81 -52q-34 -62 -93.5 -99.5t-136.5 -37.5q-68 0 -124.5 32t-95.5 89t-56 133h-82z" />
    <glyph glyph-name="uni00A3" unicode="&#xa3;" horiz-adv-x="595" 
d="M84 0v65q45 38 66.5 81.5t23.5 97.5h-89v74h77q-10 27 -23.5 54.5t-23.5 59t-10 68.5q0 57 29.5 105t80.5 77t117 29q55 0 102.5 -21.5t84.5 -65.5l-67 -67q-24 34 -55.5 49.5t-66.5 15.5q-41 0 -69.5 -17.5t-42.5 -45t-14 -58.5q0 -36 9 -66t20.5 -58t18.5 -59h226v-74
h-219q-2 -47 -19 -86t-52 -70h338v-88h-442z" />
    <glyph glyph-name="uni00A5" unicode="&#xa5;" horiz-adv-x="656" 
d="M112 181v74h165v62h-165v74h118l-215 309h118l196 -297l199 297h113l-215 -309h117v-74h-166v-62h166v-74h-166v-181h-100v181h-165z" />
    <glyph glyph-name="uni002B" unicode="+" horiz-adv-x="600" 
d="M258 86v184h-182v80h182v184h84v-184h182v-80h-182v-184h-84z" />
    <glyph glyph-name="uni2212" unicode="&#x2212;" horiz-adv-x="600" 
d="M76 270v80h448v-80h-448z" />
    <glyph glyph-name="uni00D7" unicode="&#xd7;" horiz-adv-x="600" 
d="M84 152l158 158l-158 158l58 58l158 -158l158 158l58 -58l-158 -158l158 -158l-58 -58l-158 158l-158 -158z" />
    <glyph glyph-name="uni00F7" unicode="&#xf7;" horiz-adv-x="600" 
d="M242 482q0 25 16 41t42 16t42 -16t16 -41t-16 -41.5t-42 -16.5t-42 16.5t-16 41.5zM76 270v80h448v-80h-448zM242 138q0 25 16 41.5t42 16.5t42 -16.5t16 -41.5t-16 -41t-42 -16t-42 16t-16 41z" />
    <glyph glyph-name="uni003D" unicode="=" horiz-adv-x="600" 
d="M76 373v80h448v-80h-448zM76 167v80h448v-80h-448z" />
    <glyph glyph-name="uni2248" unicode="&#x2248;" horiz-adv-x="600" 
d="M76 348v82q24 22 57 35t66 13q34 0 59 -7.5t47 -17.5t46 -17.5t55 -7.5t61.5 14t56.5 36v-82q-24 -22 -57 -35t-66 -13q-34 0 -59 7.5t-47 17.5t-46 17.5t-55 7.5t-61.5 -13.5t-56.5 -36.5zM76 142v83q24 22 57 35t66 13q34 0 59 -7.5t47 -17.5t46 -17.5t55 -7.5t61.5 14
t56.5 36v-83q-24 -22 -57 -35t-66 -13q-34 0 -59 7.5t-47 17.5t-46 17.5t-55 7.5t-61.5 -13.5t-56.5 -36.5z" />
    <glyph glyph-name="uni2260" unicode="&#x2260;" horiz-adv-x="600" 
d="M104 70l62 97h-90v80h140l81 126h-221v80h271l62 97h88l-62 -97h89v-80h-139l-81 -126h220v-80h-270l-62 -97h-88z" />
    <glyph glyph-name="uni00B1" unicode="&#xb1;" horiz-adv-x="600" 
d="M76 86v80h182v137h-182v80h182v151h84v-151h182v-80h-182v-137h182v-80h-448z" />
    <glyph glyph-name="uni003E" unicode="&#x3e;" horiz-adv-x="600" 
d="M101 78v97l287 135l-287 135v97l420 -210v-44z" />
    <glyph glyph-name="uni2265" unicode="&#x2265;" horiz-adv-x="600" 
d="M76 204v89l311 80l-311 80v89l448 -137v-64zM76 87v81h448v-81h-448z" />
    <glyph glyph-name="uni003C" unicode="&#x3c;" horiz-adv-x="600" 
d="M79 288v44l420 210v-97l-287 -135l287 -135v-97z" />
    <glyph glyph-name="uni2264" unicode="&#x2264;" horiz-adv-x="600" 
d="M76 341v64l448 137v-89l-311 -80l311 -80v-89zM76 87v81h448v-81h-448z" />
    <glyph glyph-name="uni00AC" unicode="&#xac;" horiz-adv-x="600" 
d="M76 270v80h448v-264h-83v184h-365z" />
    <glyph glyph-name="uni0025" unicode="%" horiz-adv-x="842" 
d="M54 544q0 48 22 86t60.5 59.5t85.5 21.5t85 -21.5t60 -59.5t22 -86t-22 -86t-60 -59.5t-85 -21.5t-85.5 21.5t-60.5 59.5t-22 86zM152 0l440 700h98l-440 -700h-98zM141 544q0 -39 23.5 -64t57.5 -25q33 0 56.5 25t23.5 64t-23.5 64t-56.5 25q-34 0 -57.5 -25t-23.5 -64z
M453 156q0 48 22 86t60 59.5t85 21.5q48 0 86 -21.5t60 -59.5t22 -86t-22 -85.5t-60 -59.5t-86 -22q-47 0 -85 22t-60 59.5t-22 85.5zM540 156q0 -39 23.5 -64t56.5 -25q34 0 57.5 25t23.5 64t-23.5 64t-57.5 25q-33 0 -56.5 -25t-23.5 -64z" />
    <glyph glyph-name="uni2030" unicode="&#x2030;" horiz-adv-x="1234" 
d="M54 544q0 48 22 86t60.5 59.5t85.5 21.5t85 -21.5t60 -59.5t22 -86t-22 -86t-60 -59.5t-85 -21.5t-85.5 21.5t-60.5 59.5t-22 86zM152 0l440 700h98l-440 -700h-98zM141 544q0 -39 23.5 -64t57.5 -25q33 0 56.5 25t23.5 64t-23.5 64t-56.5 25q-34 0 -57.5 -25t-23.5 -64z
M453 156q0 48 22 86t60 59.5t85 21.5q48 0 86 -21.5t60 -59.5t22 -86t-22 -85.5t-60 -59.5t-86 -22q-47 0 -85 22t-60 59.5t-22 85.5zM845 156q0 48 22 86t60 59.5t85 21.5q48 0 86 -21.5t60 -59.5t22 -86t-22 -85.5t-60 -59.5t-86 -22q-47 0 -85 22t-60 59.5t-22 85.5z
M540 156q0 -39 23.5 -64t56.5 -25q34 0 57.5 25t23.5 64t-23.5 64t-57.5 25q-33 0 -56.5 -25t-23.5 -64zM932 156q0 -39 23.5 -64t56.5 -25q34 0 57.5 25t23.5 64t-23.5 64t-57.5 25q-33 0 -56.5 -25t-23.5 -64z" />
    <glyph glyph-name="uni00B0" unicode="&#xb0;" horiz-adv-x="443" 
d="M54 544q0 48 22 86t60.5 59.5t85.5 21.5t85 -21.5t60 -59.5t22 -86t-22 -86t-60 -59.5t-85 -21.5t-85.5 21.5t-60.5 59.5t-22 86zM141 544q0 -39 23.5 -64t57.5 -25q33 0 56.5 25t23.5 64t-23.5 64t-56.5 25q-34 0 -57.5 -25t-23.5 -64z" />
    <glyph glyph-name="uni2044" unicode="&#x2044;" horiz-adv-x="532" 
d="M-3 0l440 700h98l-440 -700h-98z" />
    <glyph glyph-name="uni2215" unicode="&#x2215;" horiz-adv-x="532" 
d="M-3 0l440 700h98l-440 -700h-98z" />
    <glyph glyph-name="uni00B9" unicode="&#xb9;" horiz-adv-x="306" 
d="M129 255v347l-86 -49l-39 68l139 79h72v-445h-86z" />
    <glyph glyph-name="uni00B2" unicode="&#xb2;" horiz-adv-x="421" 
d="M44 584q17 57 62 90.5t105 33.5q45 0 79 -18.5t53.5 -50.5t19.5 -72t-23.5 -78t-74.5 -81l-86 -72h196v-81h-330v63l148 131q45 41 63 64.5t18 48.5q0 26 -19.5 45t-51.5 19q-31 0 -52.5 -19t-32.5 -52z" />
    <glyph glyph-name="uni00B3" unicode="&#xb3;" horiz-adv-x="439" 
d="M41 354l67 37q17 -34 44.5 -49t61.5 -15q44 0 64.5 17t20.5 42q0 27 -23.5 46t-70.5 19h-52v62h52q37 0 57.5 16.5t20.5 39.5q0 26 -21 43t-53 17q-65 0 -91 -66l-69 32q21 53 63.5 83t103.5 30q45 0 79 -17t53.5 -45t19.5 -62q0 -27 -16 -51t-51 -41q41 -14 63 -45
t22 -67q0 -53 -44.5 -92.5t-124.5 -39.5q-60 0 -106.5 27.5t-69.5 78.5z" />
    <glyph glyph-name="uni00AA" unicode="&#xaa;" horiz-adv-x="418" 
d="M49 454q0 48 39.5 78.5t108.5 30.5q33 0 60 -6v2q0 38 -19.5 55t-53.5 17q-22 0 -44.5 -6.5t-47.5 -20.5l-32 67q66 37 137 37q72 0 109.5 -40t37.5 -102v-203h-87v41q-18 -23 -44.5 -36.5t-56.5 -13.5q-47 0 -77 28t-30 72zM134 461q0 -16 12.5 -27t35.5 -11
q28 0 51.5 18.5t23.5 48.5v11q-14 3 -27.5 4t-29.5 1q-34 0 -50 -13.5t-16 -31.5z" />
    <glyph glyph-name="uni00BA" unicode="&#xba;" horiz-adv-x="432" 
d="M49 531q0 52 22.5 92t60.5 62.5t84 22.5q47 0 84.5 -22.5t60 -62.5t22.5 -92t-22.5 -92t-60 -62.5t-84.5 -22.5q-46 0 -84 22.5t-60.5 62.5t-22.5 92zM136 531q0 -47 23 -72t57 -25t57 25t23 72q0 48 -23 73t-57 25t-57 -25t-23 -73z" />
    <glyph glyph-name="uni2116" unicode="&#x2116;" horiz-adv-x="1088" 
d="M701 531q0 52 22 92t60 62.5t85 22.5t84.5 -22.5t60 -62.5t22.5 -92t-22.5 -92t-60 -62.5t-84.5 -22.5t-85 22.5t-60 62.5t-22 92zM110 0v705h46l353 -479v474h97v-705h-46l-353 479v-474h-97zM788 531q0 -47 23 -72t57 -25q33 0 56 25t23 72q0 48 -23 73t-56 25
q-34 0 -57 -25t-23 -73zM716 208v85h304v-85h-304z" />
    <glyph glyph-name="uni0394" unicode="&#x394;" horiz-adv-x="701" 
d="M20 0l303 705h56l302 -705h-661zM165 91h369l-183 443z" />
    <glyph glyph-name="uni2206" unicode="&#x2206;" horiz-adv-x="701" 
d="M20 0l303 705h56l302 -705h-661zM165 91h369l-183 443z" />
    <glyph glyph-name="uniA7B6" unicode="&#xa7b6;" horiz-adv-x="758" 
d="M326 0h-259v98h170v64q-80 32 -126 97t-46 159q0 86 41 152t112 103.5t161 37.5t161 -37.5t112 -103.5t41 -152q0 -94 -46 -159t-126 -97v-64h170v-98h-259v222q73 11 119 58.5t46 132.5q0 57 -29 101.5t-78 69.5t-111 25q-61 0 -110.5 -25t-78.5 -69.5t-29 -101.5
q0 -85 46 -132.5t119 -58.5v-222z" />
    <glyph glyph-name="uni2126" unicode="&#x2126;" horiz-adv-x="758" 
d="M326 0h-259v98h170v64q-80 32 -126 97t-46 159q0 86 41 152t112 103.5t161 37.5t161 -37.5t112 -103.5t41 -152q0 -94 -46 -159t-126 -97v-64h170v-98h-259v222q73 11 119 58.5t46 132.5q0 57 -29 101.5t-78 69.5t-111 25q-61 0 -110.5 -25t-78.5 -69.5t-29 -101.5
q0 -85 46 -132.5t119 -58.5v-222z" />
    <glyph glyph-name="uni03BC" unicode="&#x3bc;" horiz-adv-x="632" 
d="M96 -150v668h96v-301q0 -73 34 -106.5t82 -33.5q36 0 66 20t48.5 56.5t18.5 86.5v278h96v-518h-96v83q-17 -40 -54 -67t-84 -27q-41 0 -76 21.5t-55 61.5l20 -222h-96z" />
    <glyph glyph-name="uni00B5" unicode="&#xb5;" horiz-adv-x="632" 
d="M96 -150v668h96v-301q0 -73 34 -106.5t82 -33.5q36 0 66 20t48.5 56.5t18.5 86.5v278h96v-518h-96v83q-17 -40 -54 -67t-84 -27q-41 0 -76 21.5t-55 61.5l20 -222h-96z" />
    <glyph glyph-name="uni03C0" unicode="&#x3c0;" horiz-adv-x="599" 
d="M98 0l12 425h-77v93h517v-93h-93l4 -295q1 -28 13 -40t34 -12q10 0 19 2t19 5l13 -85q-30 -11 -62 -11q-58 0 -95 34t-37 98v304h-166l-8 -425h-93z" />
    <glyph glyph-name="uni2113" unicode="&#x2113;" horiz-adv-x="620" 
d="M13 57q41 26 78.5 52t71.5 52q-3 18 -3 40q0 110 25 207.5t67.5 172t95.5 117.5t108 43q59 0 92.5 -37t33.5 -91q0 -93 -73.5 -215.5t-242.5 -259.5q11 -28 31.5 -43t43.5 -15q20 0 43 11.5t51 36.5l48 -70q-34 -31 -77 -50t-76 -19q-48 0 -84.5 24t-58.5 65
q-30 -22 -63.5 -44.5t-69.5 -45.5zM446 653q-27 0 -58.5 -32.5t-60.5 -90t-48.5 -133t-23.5 -161.5q122 109 178.5 203t56.5 155q0 26 -11 42.5t-33 16.5z" />
    <glyph glyph-name="uni212E" unicode="&#x212e;" horiz-adv-x="806" 
d="M74 350q0 83 27.5 149t74.5 113.5t107 72.5t124 25q65 0 123 -24.5t104 -69.5t72 -107.5t26 -138.5q0 -7 -0.5 -17t-1.5 -18h-528v-188q39 -46 95.5 -71.5t122.5 -25.5q73 0 130.5 29.5t94.5 66.5l39 -44q-29 -29 -70.5 -54.5t-91.5 -41.5t-106 -16q-69 0 -130.5 25
t-109 72.5t-75 114t-27.5 148.5zM407 650q-60 0 -113.5 -24.5t-91.5 -71.5v-159h411v153q-36 49 -90 75.5t-116 26.5z" />
    <glyph glyph-name="uni221E" unicode="&#x221e;" horiz-adv-x="856" 
d="M72 310q0 51 23 93.5t64 67.5t93 25q56 0 100.5 -30t75.5 -79q33 50 77.5 79.5t98.5 29.5q53 0 93.5 -25t63.5 -67.5t23 -93.5t-23 -93t-63.5 -67.5t-93.5 -25.5q-55 0 -100 30t-76 79q-34 -51 -78 -80t-98 -29q-52 0 -93 25.5t-64 67.5t-23 93zM499 274q19 -30 45.5 -47
t54.5 -17q42 0 69.5 28.5t27.5 71.5q0 44 -27.5 72t-69.5 28q-28 0 -54.5 -17t-45.5 -47l-23 -36zM160 310q0 -43 27.5 -71.5t69.5 -28.5q29 0 55 17t45 47l23 36l-23 36q-19 29 -45 46.5t-55 17.5q-42 0 -69.5 -28t-27.5 -72z" />
    <glyph glyph-name="uni2202" unicode="&#x2202;" horiz-adv-x="680" 
d="M72 209q0 83 35 147.5t95.5 102t134.5 37.5q58 0 102 -25t67 -70q-4 87 -29 141t-62.5 79t-80.5 25q-52 0 -98 -24l-34 87q31 16 68 24t72 8q69 0 127 -38t93 -115t35 -195q0 -100 -25 -175.5t-68 -126t-98 -76t-114 -25.5q-64 0 -114 28t-78 77.5t-28 113.5zM172 217
q0 -62 33.5 -102t92.5 -40q50 0 93 29t69 75.5t26 100.5q0 60 -37.5 96.5t-100.5 36.5q-49 0 -89 -25.5t-63.5 -69.5t-23.5 -101z" />
    <glyph glyph-name="uni222B" unicode="&#x222b;" horiz-adv-x="535" 
d="M255 7q-36 -168 -196 -168q-19 0 -37 3t-32 7l18 85q24 -6 50 -6q40 0 67.5 22t36.5 66l118 557q36 168 196 168q19 0 37 -2.5t32 -7.5l-18 -85q-25 6 -50 6q-40 0 -67.5 -22t-36.5 -66z" />
    <glyph glyph-name="uni221A" unicode="&#x221a;" horiz-adv-x="631" 
d="M289 -5l-178 429h-94v84h164l135 -349l218 541h100l-291 -705h-54z" />
    <glyph glyph-name="uni2211" unicode="&#x2211;" horiz-adv-x="620" 
d="M413 296v-33l-229 -325h386v-88h-514v65l258 364l-248 356v65h494v-88h-361z" />
    <glyph glyph-name="uni220F" unicode="&#x220f;" horiz-adv-x="787" 
d="M148 -150v753h-93v97h677v-97h-94v-753h-92v753h-306v-753h-92z" />
    <glyph glyph-name="uni25CA" unicode="&#x25ca;" horiz-adv-x="611" 
d="M88 275l190 430h56l189 -430l-190 -430h-56zM193 278l112 -266l113 260l-113 265z" />
    </font>
</defs>
</svg>
