<?xml version="1.0" standalone="no"?>
<!DOCTYPE svg PUBLIC "-//W3C//DTD SVG 1.1//EN" "http://www.w3.org/Graphics/SVG/1.1/DTD/svg11.dtd" >
<svg xmlns="http://www.w3.org/2000/svg" xmlns:xlink="http://www.w3.org/1999/xlink" version="1.1">
<metadata>
Created by FontForge 20190801 at Mon Sep 17 17:51:45 2018
 By Jimmy Wärting
The Font Software, the designs embodied therein, the trade names and/or trademarks and copyrights associated therewith are each the exclusive property of Coppers and Brasses.
</metadata>
<defs>
<font id="Ilisarniq-Black" horiz-adv-x="660" >
  <font-face 
    font-family="Ilisarniq Black"
    font-weight="900"
    font-stretch="normal"
    units-per-em="1000"
    panose-1="0 0 0 0 0 0 0 0 0 0"
    ascent="800"
    descent="-200"
    x-height="530"
    cap-height="700"
    bbox="-49 -353 1646 1157"
    underline-thickness="50"
    underline-position="-100"
    unicode-range="U+000D-FB04"
  />
<missing-glyph horiz-adv-x="635" 
d="M80 0v700h475v-700h-475zM245 152h145v396h-145v-396z" />
    <glyph glyph-name="uniFB00" unicode="ff" horiz-adv-x="740" 
d="M75 0v380h-65v150h65v11q0 204 202 204q23 0 42.5 -2.5t35.5 -6.5v-146q-22 6 -44 6q-61 0 -61 -65v-1h195v11q0 204 212 204q26 0 48 -2.5t40 -7.5v-146q-13 3 -28 5t-29 2q-68 0 -68 -65v-1h115v-150h-115v-380h-175v380h-195v-380h-175z" />
    <glyph glyph-name="uni00660069" unicode="fi" horiz-adv-x="675" 
d="M415 689q0 43 29.5 71.5t77.5 28.5t78 -28.5t30 -71.5t-30 -71.5t-78 -28.5t-77.5 28.5t-29.5 71.5zM75 0v380h-65v150h65v11q0 204 202 204q23 0 42.5 -2.5t35.5 -6.5v-146q-22 6 -44 6q-61 0 -61 -65v-1h360v-530h-175v380h-185v-380h-175z" />
    <glyph glyph-name="uni00660133" unicode="f&#x133;" horiz-adv-x="980" 
d="M415 689q0 43 29.5 71.5t77.5 28.5t78 -28.5t30 -71.5t-30 -71.5t-78 -28.5t-77.5 28.5t-29.5 71.5zM75 0v380h-65v150h65v11q0 204 202 204q23 0 42.5 -2.5t35.5 -6.5v-146q-22 6 -44 6q-61 0 -61 -65v-1h360v-530h-175v380h-185v-380h-175zM720 689q0 43 29.5 71.5
t77.5 28.5t78 -28.5t30 -71.5t-30 -71.5t-78 -28.5t-77.5 28.5t-29.5 71.5zM626 -155l9 154q23 -6 44 -6q32 0 46.5 14.5t14.5 48.5v474h175v-491q0 -100 -47.5 -152t-147.5 -52q-54 0 -94 10z" />
    <glyph glyph-name="uni0066006C" unicode="fl" horiz-adv-x="675" 
d="M75 0v380h-65v150h65v11q0 204 212 204q26 0 48 -2.5t40 -7.5v-146q-13 3 -28 5t-29 2q-68 0 -68 -65v-1h115v-150h-115v-380h-175zM435 0v730h175v-730h-175z" />
    <glyph glyph-name="uniFB03" unicode="ffi" horiz-adv-x="1045" 
d="M785 689q0 43 29.5 71.5t77.5 28.5t78 -28.5t30 -71.5t-30 -71.5t-78 -28.5t-77.5 28.5t-29.5 71.5zM75 0v380h-65v150h65v11q0 204 202 204q23 0 42.5 -2.5t35.5 -6.5v-146q-22 6 -44 6q-61 0 -61 -65v-1h195v11q0 204 202 204q23 0 42.5 -2.5t35.5 -6.5v-146
q-22 6 -44 6q-61 0 -61 -65v-1h360v-530h-175v380h-185v-380h-175v380h-195v-380h-175z" />
    <glyph glyph-name="uni006600660133" unicode="ff&#x133;" horiz-adv-x="1350" 
d="M785 689q0 43 29.5 71.5t77.5 28.5t78 -28.5t30 -71.5t-30 -71.5t-78 -28.5t-77.5 28.5t-29.5 71.5zM75 0v380h-65v150h65v11q0 204 202 204q23 0 42.5 -2.5t35.5 -6.5v-146q-22 6 -44 6q-61 0 -61 -65v-1h195v11q0 204 202 204q23 0 42.5 -2.5t35.5 -6.5v-146
q-22 6 -44 6q-61 0 -61 -65v-1h360v-530h-175v380h-185v-380h-175v380h-195v-380h-175zM1090 689q0 43 29.5 71.5t77.5 28.5t78 -28.5t30 -71.5t-30 -71.5t-78 -28.5t-77.5 28.5t-29.5 71.5zM996 -155l9 154q23 -6 44 -6q32 0 46.5 14.5t14.5 48.5v474h175v-491
q0 -100 -47.5 -152t-147.5 -52q-54 0 -94 10z" />
    <glyph glyph-name="uniFB04" unicode="ffl" horiz-adv-x="1045" 
d="M75 0v380h-65v150h65v11q0 204 202 204q23 0 42.5 -2.5t35.5 -6.5v-146q-22 6 -44 6q-61 0 -61 -65v-1h195v11q0 204 212 204q26 0 48 -2.5t40 -7.5v-146q-13 3 -28 5t-29 2q-68 0 -68 -65v-1h115v-150h-115v-380h-175v380h-195v-380h-175zM805 0v730h175v-730h-175z" />
    <glyph glyph-name=".notdef" horiz-adv-x="635" 
d="M80 0v700h475v-700h-475zM245 152h145v396h-145v-396z" />
    <glyph glyph-name="uni0000" horiz-adv-x="0" 
 />
    <glyph glyph-name="uni0000" horiz-adv-x="0" 
 />
    <glyph glyph-name="uni000D" unicode="&#xd;" horiz-adv-x="0" 
 />
    <glyph glyph-name="uni0020" unicode=" " horiz-adv-x="340" 
 />
    <glyph glyph-name="uni00A0" unicode="&#xa0;" horiz-adv-x="340" 
 />
    <glyph glyph-name="uni2009" unicode="&#x2009;" horiz-adv-x="110" 
 />
    <glyph glyph-name="uni0041" unicode="A" horiz-adv-x="723" 
d="M5 0l269 700h175l269 -700h-199l-37 106h-247l-38 -106h-192zM293 266h133l-66 188z" />
    <glyph glyph-name="uni0042" unicode="B" horiz-adv-x="664" 
d="M80 0v700h292q116 0 176.5 -53.5t60.5 -140.5q0 -46 -20 -83.5t-61 -61.5q53 -25 79.5 -68t26.5 -94q0 -57 -28.5 -102t-83.5 -71t-135 -26h-307zM349 538h-84v-116h84q34 0 52 15.5t18 42.5q0 58 -70 58zM362 288h-97v-126h97q77 0 77 63q0 29 -19.5 46t-57.5 17z" />
    <glyph glyph-name="uni0043" unicode="C" horiz-adv-x="663" 
d="M40 350q0 79 26 145.5t74 116t112.5 76.5t140.5 27q75 0 138 -27t102 -67l-114 -143q-24 23 -54.5 36.5t-65.5 13.5q-48 0 -85 -22.5t-58 -62.5t-21 -93q0 -52 20 -92.5t56 -63t83 -22.5q37 0 71 14t62 38l111 -145q-41 -40 -104.5 -67t-134.5 -27q-106 0 -187 47
t-126.5 129.5t-45.5 188.5z" />
    <glyph glyph-name="uni0044" unicode="D" horiz-adv-x="744" 
d="M80 0v700h272q108 0 187 -44.5t122 -123t43 -182.5q0 -103 -43 -182t-122 -123.5t-187 -44.5h-272zM337 528h-72v-356h72q77 0 124.5 47t47.5 131t-47.5 131t-124.5 47z" />
    <glyph glyph-name="uni0045" unicode="E" horiz-adv-x="630" 
d="M80 0v700h495v-172h-310v-96h264v-158h-264v-102h315v-172h-500z" />
    <glyph glyph-name="uni0046" unicode="F" horiz-adv-x="585" 
d="M80 0v700h475v-172h-290v-128h249v-162h-249v-238h-185z" />
    <glyph glyph-name="uni0047" unicode="G" horiz-adv-x="735" 
d="M40 350q0 79 26.5 145.5t75 116t115 76.5t145.5 27q75 0 140.5 -24t105.5 -62l-110 -151q-26 22 -61 36.5t-73 14.5q-75 0 -122 -49t-47 -130q0 -95 44.5 -146.5t120.5 -51.5q57 0 105 22v80h-115v156h290v-323q-34 -29 -82 -52t-101.5 -36.5t-107.5 -13.5
q-102 0 -180.5 46t-123.5 128.5t-45 190.5z" />
    <glyph glyph-name="uni0048" unicode="H" horiz-adv-x="755" 
d="M80 0v700h185v-261h225v261h185v-700h-185v267h-225v-267h-185z" />
    <glyph glyph-name="uni0049" unicode="I" horiz-adv-x="345" 
d="M80 0v700h185v-700h-185z" />
    <glyph glyph-name="uni004A" unicode="J" horiz-adv-x="551" 
d="M15 69l92 135q19 -19 44 -31.5t49 -12.5q36 0 63.5 26.5t27.5 87.5v426h185v-440q0 -84 -31 -146t-87 -95.5t-132 -33.5q-51 0 -107.5 21.5t-103.5 62.5z" />
    <glyph glyph-name="uni004B" unicode="K" horiz-adv-x="693" 
d="M80 0v700h185v-295l193 295h222l-245 -344l258 -356h-229l-199 295v-295h-185z" />
    <glyph glyph-name="uni004C" unicode="L" horiz-adv-x="580" 
d="M80 0v700h185v-528h280v-172h-465z" />
    <glyph glyph-name="uni004D" unicode="M" horiz-adv-x="855" 
d="M80 0v700h125l223 -316l222 316h125v-700h-185v319l-130 -178h-65l-130 178v-319h-185z" />
    <glyph glyph-name="uni004E" unicode="N" horiz-adv-x="755" 
d="M80 0v700h110l300 -343v343h185v-700h-110l-300 343v-343h-185z" />
    <glyph glyph-name="uni004F" unicode="O" horiz-adv-x="784" 
d="M40 350q0 108 45.5 190.5t125.5 128.5t181 46q102 0 181.5 -46t125 -128.5t45.5 -190.5t-45.5 -190.5t-125 -128.5t-181.5 -46q-101 0 -181 46t-125.5 128.5t-45.5 190.5zM235 350q0 -55 20 -97.5t55.5 -66.5t81.5 -24t81.5 24t55.5 66.5t20 97.5q0 56 -20 98t-55.5 66
t-81.5 24t-81.5 -24t-55.5 -66t-20 -98z" />
    <glyph glyph-name="uni0050" unicode="P" horiz-adv-x="679" 
d="M80 0v700h287q90 0 152 -33t93.5 -91.5t31.5 -135.5t-31.5 -135.5t-93.5 -91.5t-152 -33h-102v-180h-185zM352 528h-87v-176h87q47 0 72 23.5t25 64.5t-25 64.5t-72 23.5z" />
    <glyph glyph-name="uni0051" unicode="Q" horiz-adv-x="784" 
d="M40 350q0 108 45.5 190.5t125.5 128.5t181 46q102 0 181.5 -46t125 -128.5t45.5 -190.5q0 -59 -14.5 -111t-40.5 -96l85 -76l-104 -120l-94 86q-81 -48 -184 -48q-101 0 -181 46t-125.5 128.5t-45.5 190.5zM235 350q0 -55 20 -97.5t55.5 -66.5t81.5 -24q11 0 20.5 1.5
t18.5 3.5l-80 74l103 112l85 -76q5 17 7.5 35.5t2.5 37.5q0 56 -20 98t-55.5 66t-81.5 24t-81.5 -24t-55.5 -66t-20 -98z" />
    <glyph glyph-name="uni0052" unicode="R" horiz-adv-x="684" 
d="M80 0v700h292q86 0 144 -30.5t88 -84.5t30 -125q0 -72 -34 -126.5t-99 -80.5l158 -253h-217l-123 230h-54v-230h-185zM357 528h-92v-136h92q40 0 61 18.5t21 49.5q0 32 -21 50t-61 18z" />
    <glyph glyph-name="uni0053" unicode="S" horiz-adv-x="614" 
d="M15 81l82 154q40 -34 97 -58t118 -24q42 0 60 12.5t18 31.5q0 20 -20.5 36.5t-82.5 32.5q-88 24 -140 58t-74.5 77.5t-22.5 95.5q0 57 32 106.5t92 80.5t144 31q68 0 126.5 -17t111.5 -47l-73 -153q-33 22 -79.5 35t-90.5 13q-45 0 -62 -12t-17 -29q0 -10 9 -20.5
t34 -21.5t72 -24q131 -35 185.5 -91.5t54.5 -139.5q0 -63 -33 -113.5t-96.5 -80t-155.5 -29.5q-75 0 -152 25.5t-137 70.5z" />
    <glyph glyph-name="uni0054" unicode="T" horiz-adv-x="601" 
d="M208 0v528h-178v172h541v-172h-178v-528h-185z" />
    <glyph glyph-name="uni0055" unicode="U" horiz-adv-x="740" 
d="M75 265v435h185v-405q0 -67 29.5 -100t82.5 -33t82.5 33t29.5 100v405h181v-435q0 -83 -34 -146t-99.5 -98.5t-161.5 -35.5q-95 0 -161 35.5t-100 98.5t-34 146z" />
    <glyph glyph-name="uni0056" unicode="V" horiz-adv-x="713" 
d="M269 0l-264 700h199l154 -450l158 450h192l-264 -700h-175z" />
    <glyph glyph-name="uni0057" unicode="W" horiz-adv-x="1017" 
d="M199 0l-194 700h194l101 -442l111 442h195l116 -442l96 442h194l-194 -700h-195l-114 406l-115 -406h-195z" />
    <glyph glyph-name="uni0058" unicode="X" horiz-adv-x="694" 
d="M5 0l239 354l-226 346h221l115 -190l107 190h215l-226 -338l239 -362h-221l-129 206l-119 -206h-215z" />
    <glyph glyph-name="uni0059" unicode="Y" horiz-adv-x="703" 
d="M259 0v268l-259 432h216l137 -257l141 257h209l-259 -432v-268h-185z" />
    <glyph glyph-name="uni005A" unicode="Z" horiz-adv-x="640" 
d="M40 0v110l286 418h-276v172h540v-110l-286 -418h296v-172h-560z" />
    <glyph glyph-name="uni0061" unicode="a" horiz-adv-x="576" 
d="M35 146q0 76 55.5 123t166.5 47q42 0 84 -8q-4 44 -32.5 64t-71.5 20q-31 0 -65.5 -10t-63.5 -24l-46 140q41 19 95.5 33t115.5 14q72 0 126.5 -26.5t85.5 -78.5t31 -129v-311h-175v45q-54 -60 -143 -60q-79 0 -121 46.5t-42 114.5zM198 162q0 -18 13 -32t42 -14
q40 0 64 23.5t24 61.5v7q-16 2 -32.5 3t-37.5 1q-39 0 -56 -15t-17 -35z" />
    <glyph glyph-name="uni0062" unicode="b" horiz-adv-x="627" 
d="M65 0v730h175v-239q28 26 62.5 40t74.5 14q68 0 117.5 -37t76 -100t26.5 -143q0 -79 -27 -142.5t-76 -100.5t-117 -37q-43 0 -80.5 17t-66.5 48v-50h-165zM225 265q0 -55 27 -89t70 -34t70 34t27 89q0 56 -27 89.5t-70 33.5t-70 -33.5t-27 -89.5z" />
    <glyph glyph-name="uni0063" unicode="c" horiz-adv-x="520" 
d="M30 265q0 80 33 143t92.5 100t139.5 37q59 0 111 -18t93 -53l-91 -128q-40 34 -88 34q-49 0 -80.5 -29.5t-31.5 -85.5q0 -55 31.5 -85t80.5 -30q23 0 49 10.5t45 27.5l91 -129q-41 -35 -96 -54.5t-114 -19.5q-79 0 -139 37t-93 100.5t-33 142.5z" />
    <glyph glyph-name="uni0064" unicode="d" horiz-adv-x="627" 
d="M30 265q0 80 26.5 143t76 100t117.5 37q40 0 74.5 -14t62.5 -40v239h175v-730h-165v50q-28 -31 -65.5 -48t-81.5 -17q-67 0 -116.5 37t-76.5 100.5t-27 142.5zM208 265q0 -55 27 -89t70 -34t70 34t27 89q0 56 -27 89.5t-70 33.5t-70 -33.5t-27 -89.5z" />
    <glyph glyph-name="uni0065" unicode="e" horiz-adv-x="577" 
d="M30 265q0 80 32 143t91 100t140 37q75 0 131 -35t86.5 -93.5t30.5 -131.5q0 -15 -1.5 -34.5t-4.5 -33.5h-327q13 -37 44 -59t80 -22q39 0 74.5 7t66.5 19l51 -133q-101 -44 -204 -44q-87 0 -152 37.5t-101.5 101t-36.5 141.5zM290 405q-70 0 -85 -92h165q-4 42 -24.5 67
t-55.5 25z" />
    <glyph glyph-name="uni0066" unicode="f" horiz-adv-x="370" 
d="M75 0v380h-65v150h65v11q0 204 212 204q26 0 48 -2.5t40 -7.5v-146q-13 3 -28 5t-29 2q-68 0 -68 -65v-1h115v-150h-115v-380h-175z" />
    <glyph glyph-name="uni0067" unicode="g" horiz-adv-x="627" 
d="M55 -124l47 148q38 -19 77 -28t75 -9q70 0 101.5 27t31.5 76v6q-28 -22 -62 -34.5t-74 -12.5q-63 0 -113 32t-79 87.5t-29 126.5t29 127.5t80.5 89.5t116.5 33q41 0 77 -15t64 -42v42h165v-438q0 -77 -32.5 -135t-94.5 -90t-153 -32q-71 0 -126.5 11.5t-100.5 29.5z
M208 295q0 -43 27 -68t70 -25t70 25t27 68q0 42 -27 67.5t-70 25.5t-70 -25.5t-27 -67.5z" />
    <glyph glyph-name="uni0068" unicode="h" horiz-adv-x="645" 
d="M65 0v730h175v-266q52 81 157 81q54 0 96.5 -26.5t67 -78.5t24.5 -129v-311h-175v275q0 54 -22 77.5t-56 23.5q-40 0 -66 -28.5t-26 -84.5v-263h-175z" />
    <glyph glyph-name="uni0069" unicode="i" horiz-adv-x="305" 
d="M45 689q0 43 29.5 71.5t77.5 28.5t78 -28.5t30 -71.5t-30 -71.5t-78 -28.5t-77.5 28.5t-29.5 71.5zM65 0v530h175v-530h-175z" />
    <glyph glyph-name="uni006A" unicode="j" horiz-adv-x="305" 
d="M45 689q0 43 29.5 71.5t77.5 28.5t78 -28.5t30 -71.5t-30 -71.5t-78 -28.5t-77.5 28.5t-29.5 71.5zM-49 -155l9 154q23 -6 44 -6q32 0 46.5 14.5t14.5 48.5v474h175v-491q0 -100 -47.5 -152t-147.5 -52q-54 0 -94 10z" />
    <glyph glyph-name="uni006B" unicode="k" horiz-adv-x="587" 
d="M65 0v730h175v-412l133 212h197l-180 -253l193 -277h-206l-137 218v-218h-175z" />
    <glyph glyph-name="uni006C" unicode="l" horiz-adv-x="305" 
d="M65 0v730h175v-730h-175z" />
    <glyph glyph-name="uni006D" unicode="m" horiz-adv-x="970" 
d="M65 0v530h175v-66q25 40 63.5 60.5t85.5 20.5q52 0 93 -24.5t65 -72.5q39 57 83.5 77t93.5 20q80 0 133 -59t53 -175v-311h-175v275q0 54 -20.5 77.5t-52.5 23.5q-38 0 -62.5 -28.5t-24.5 -84.5v-263h-175v275q0 54 -20.5 77.5t-52.5 23.5q-38 0 -62.5 -28.5t-24.5 -84.5
v-263h-175z" />
    <glyph glyph-name="uni006E" unicode="n" horiz-adv-x="645" 
d="M65 0v530h175v-66q52 81 157 81q54 0 96.5 -26.5t67 -78.5t24.5 -129v-311h-175v275q0 54 -22 77.5t-56 23.5q-40 0 -66 -28.5t-26 -84.5v-263h-175z" />
    <glyph glyph-name="uni006F" unicode="o" horiz-adv-x="610" 
d="M30 265q0 80 34 143t96 100t145 37t145 -37t96 -100t34 -143q0 -79 -34.5 -142.5t-96 -100.5t-144.5 -37q-82 0 -144 37t-96.5 100.5t-34.5 142.5zM208 265q0 -55 27 -89t70 -34t70 34t27 89q0 56 -27 89.5t-70 33.5t-70 -33.5t-27 -89.5z" />
    <glyph glyph-name="uni0070" unicode="p" horiz-adv-x="627" 
d="M65 -150v680h165v-50q29 31 66.5 48t80.5 17q68 0 117 -37t76 -100t27 -143q0 -79 -26.5 -142.5t-76 -100.5t-117.5 -37q-40 0 -74.5 14.5t-62.5 39.5v-189h-175zM225 265q0 -56 27 -89.5t70 -33.5t70 33.5t27 89.5t-27 89.5t-70 33.5t-70 -33.5t-27 -89.5z" />
    <glyph glyph-name="uni0071" unicode="q" horiz-adv-x="627" 
d="M30 265q0 80 27 143t76.5 100t116.5 37q44 0 81.5 -17t65.5 -48v50h165v-680h-175v189q-28 -25 -62.5 -39.5t-74.5 -14.5q-68 0 -117.5 37t-76 100.5t-26.5 142.5zM208 265q0 -56 27 -89.5t70 -33.5t70 33.5t27 89.5t-27 89.5t-70 33.5t-70 -33.5t-27 -89.5z" />
    <glyph glyph-name="uni0072" unicode="r" horiz-adv-x="412" 
d="M65 0v530h175v-101q23 61 62.5 88.5t94.5 27.5v-197q-84 0 -120.5 -36t-36.5 -119v-193h-175z" />
    <glyph glyph-name="uni0073" unicode="s" horiz-adv-x="511" 
d="M26 50l54 141q37 -25 86 -43.5t86 -18.5q28 0 38.5 7t10.5 16t-12 19t-56 24q-96 32 -140.5 75t-44.5 100q0 47 27.5 87t76 64t110.5 24q50 0 102.5 -13.5t96.5 -36.5l-47 -133q-37 20 -79 32t-68 12q-24 0 -34 -7t-10 -15q0 -10 12.5 -19.5t46.5 -19.5
q113 -34 157.5 -78t44.5 -106q0 -49 -27.5 -88.5t-80 -63.5t-128.5 -24q-38 0 -79.5 9t-78.5 23.5t-64 32.5z" />
    <glyph glyph-name="uni0074" unicode="t" horiz-adv-x="389" 
d="M75 189v191h-65v150h65v112h175v-112h125v-150h-125v-170q0 -34 17 -50.5t54 -16.5q25 0 54 7l9 -154q-20 -5 -47.5 -8t-56.5 -3q-105 0 -155 52t-50 152z" />
    <glyph glyph-name="uni0075" unicode="u" horiz-adv-x="645" 
d="M60 219v311h175v-275q0 -54 22 -77.5t56 -23.5q41 0 66.5 28.5t25.5 84.5v263h175v-530h-175v66q-52 -81 -157 -81q-53 0 -96 26.5t-67.5 78.5t-24.5 129z" />
    <glyph glyph-name="uni0076" unicode="v" horiz-adv-x="575" 
d="M206 0l-206 530h188l100 -318l104 318h183l-206 -530h-163z" />
    <glyph glyph-name="uni0077" unicode="w" horiz-adv-x="815" 
d="M481 0l-73 241l-74 -241h-163l-171 530h188l67 -310l77 310h156l74 -310l70 310h183l-171 -530h-163z" />
    <glyph glyph-name="uni0078" unicode="x" horiz-adv-x="563" 
d="M0 0l186 265l-171 265h209l61 -118l63 118h200l-171 -253l186 -277h-208l-77 131l-78 -131h-200z" />
    <glyph glyph-name="uni0079" unicode="y" horiz-adv-x="575" 
d="M42 -146l10 138q16 -7 34.5 -11t37.5 -4q27 0 45.5 7t32.5 25l-202 521h188l100 -318l104 318h183l-196 -505q-30 -78 -67 -119t-78 -56t-86 -15q-65 0 -106 19z" />
    <glyph glyph-name="uni007A" unicode="z" horiz-adv-x="504" 
d="M30 0v100l201 280h-187v150h424v-100l-201 -280h207v-150h-444z" />
    <glyph glyph-name="uni00C0" unicode="&#xc0;" horiz-adv-x="723" 
d="M5 0l269 700h175l269 -700h-199l-37 106h-247l-38 -106h-192zM293 266h133l-66 188zM175 915h168l76 -145h-119z" />
    <glyph glyph-name="uni00E0" unicode="&#xe0;" horiz-adv-x="576" 
d="M35 146q0 76 55.5 123t166.5 47q42 0 84 -8q-4 44 -32.5 64t-71.5 20q-31 0 -65.5 -10t-63.5 -24l-46 140q41 19 95.5 33t115.5 14q72 0 126.5 -26.5t85.5 -78.5t31 -129v-311h-175v45q-54 -60 -143 -60q-79 0 -121 46.5t-42 114.5zM198 162q0 -18 13 -32t42 -14
q40 0 64 23.5t24 61.5v7q-16 2 -32.5 3t-37.5 1q-39 0 -56 -15t-17 -35zM103 780h158l66 -170h-114z" />
    <glyph glyph-name="uni00C1" unicode="&#xc1;" horiz-adv-x="723" 
d="M5 0l269 700h175l269 -700h-199l-37 106h-247l-38 -106h-192zM293 266h133l-66 188zM301 770l76 145h168l-125 -145h-119z" />
    <glyph glyph-name="uni00E1" unicode="&#xe1;" horiz-adv-x="576" 
d="M35 146q0 76 55.5 123t166.5 47q42 0 84 -8q-4 44 -32.5 64t-71.5 20q-31 0 -65.5 -10t-63.5 -24l-46 140q41 19 95.5 33t115.5 14q72 0 126.5 -26.5t85.5 -78.5t31 -129v-311h-175v45q-54 -60 -143 -60q-79 0 -121 46.5t-42 114.5zM198 162q0 -18 13 -32t42 -14
q40 0 64 23.5t24 61.5v7q-16 2 -32.5 3t-37.5 1q-39 0 -56 -15t-17 -35zM219 610l66 170h158l-110 -170h-114z" />
    <glyph glyph-name="uni00C2" unicode="&#xc2;" horiz-adv-x="723" 
d="M5 0l269 700h175l269 -700h-199l-37 106h-247l-38 -106h-192zM293 266h133l-66 188zM180 770l115 145h130l115 -145h-118l-62 54l-62 -54h-118z" />
    <glyph glyph-name="uni00E2" unicode="&#xe2;" horiz-adv-x="576" 
d="M35 146q0 76 55.5 123t166.5 47q42 0 84 -8q-4 44 -32.5 64t-71.5 20q-31 0 -65.5 -10t-63.5 -24l-46 140q41 19 95.5 33t115.5 14q72 0 126.5 -26.5t85.5 -78.5t31 -129v-311h-175v45q-54 -60 -143 -60q-79 0 -121 46.5t-42 114.5zM198 162q0 -18 13 -32t42 -14
q40 0 64 23.5t24 61.5v7q-16 2 -32.5 3t-37.5 1q-39 0 -56 -15t-17 -35zM104 610l110 170h118l110 -170h-112l-57 65l-57 -65h-112z" />
    <glyph glyph-name="uni00C3" unicode="&#xc3;" horiz-adv-x="723" 
d="M5 0l269 700h175l269 -700h-199l-37 106h-247l-38 -106h-192zM293 266h133l-66 188zM162 765q3 44 17 80t41.5 58t69.5 22q28 0 49 -9t38 -21.5t32.5 -21.5t31.5 -9t25 13t13 43h79q-2 -43 -16.5 -79.5t-41.5 -58.5t-70 -22q-28 0 -49.5 9t-38 21.5t-32 21.5t-31.5 9
q-29 0 -38 -56h-79z" />
    <glyph glyph-name="uni00E3" unicode="&#xe3;" horiz-adv-x="576" 
d="M35 146q0 76 55.5 123t166.5 47q42 0 84 -8q-4 44 -32.5 64t-71.5 20q-31 0 -65.5 -10t-63.5 -24l-46 140q41 19 95.5 33t115.5 14q72 0 126.5 -26.5t85.5 -78.5t31 -129v-311h-175v45q-54 -60 -143 -60q-79 0 -121 46.5t-42 114.5zM198 162q0 -18 13 -32t42 -14
q40 0 64 23.5t24 61.5v7q-16 2 -32.5 3t-37.5 1q-39 0 -56 -15t-17 -35zM90 610q3 44 15.5 80t37.5 58t65 22q35 0 59.5 -15t42 -30.5t31.5 -15.5q16 0 24 13t12 43h79q-2 -43 -15 -79.5t-38 -58.5t-65 -22q-35 0 -59.5 15.5t-42 30.5t-31.5 15q-29 0 -36 -56h-79z" />
    <glyph glyph-name="uni00C4" unicode="&#xc4;" horiz-adv-x="723" 
d="M5 0l269 700h175l269 -700h-199l-37 106h-247l-38 -106h-192zM293 266h133l-66 188zM164 850q0 32 22 54t55 22t55 -22t22 -54q0 -31 -22 -53.5t-55 -22.5t-55 22.5t-22 53.5zM402 850q0 32 22 54t55 22t55 -22t22 -54q0 -31 -22 -53.5t-55 -22.5t-55 22.5t-22 53.5z" />
    <glyph glyph-name="uni00E4" unicode="&#xe4;" horiz-adv-x="576" 
d="M35 146q0 76 55.5 123t166.5 47q42 0 84 -8q-4 44 -32.5 64t-71.5 20q-31 0 -65.5 -10t-63.5 -24l-46 140q41 19 95.5 33t115.5 14q72 0 126.5 -26.5t85.5 -78.5t31 -129v-311h-175v45q-54 -60 -143 -60q-79 0 -121 46.5t-42 114.5zM198 162q0 -18 13 -32t42 -14
q40 0 64 23.5t24 61.5v7q-16 2 -32.5 3t-37.5 1q-39 0 -56 -15t-17 -35zM87 685q0 32 22 54t55 22t55 -22t22 -54q0 -31 -22 -53.5t-55 -22.5t-55 22.5t-22 53.5zM305 685q0 32 22 54t55 22t55 -22t22 -54q0 -31 -22 -53.5t-55 -22.5t-55 22.5t-22 53.5z" />
    <glyph glyph-name="uni0100" unicode="&#x100;" horiz-adv-x="723" 
d="M5 0l269 700h175l269 -700h-199l-37 106h-247l-38 -106h-192zM293 266h133l-66 188zM181 788v125h358v-125h-358z" />
    <glyph glyph-name="uni0101" unicode="&#x101;" horiz-adv-x="576" 
d="M35 146q0 76 55.5 123t166.5 47q42 0 84 -8q-4 44 -32.5 64t-71.5 20q-31 0 -65.5 -10t-63.5 -24l-46 140q41 19 95.5 33t115.5 14q72 0 126.5 -26.5t85.5 -78.5t31 -129v-311h-175v45q-54 -60 -143 -60q-79 0 -121 46.5t-42 114.5zM198 162q0 -18 13 -32t42 -14
q40 0 64 23.5t24 61.5v7q-16 2 -32.5 3t-37.5 1q-39 0 -56 -15t-17 -35zM104 648v125h338v-125h-338z" />
    <glyph glyph-name="uni0102" unicode="&#x102;" horiz-adv-x="723" 
d="M5 0l269 700h175l269 -700h-199l-37 106h-247l-38 -106h-192zM293 266h133l-66 188zM186 905h112q2 -18 16.5 -28t45.5 -10q30 0 44.5 10t17.5 28h112q-11 -145 -174 -145t-174 145z" />
    <glyph glyph-name="uni0103" unicode="&#x103;" horiz-adv-x="576" 
d="M35 146q0 76 55.5 123t166.5 47q42 0 84 -8q-4 44 -32.5 64t-71.5 20q-31 0 -65.5 -10t-63.5 -24l-46 140q41 19 95.5 33t115.5 14q72 0 126.5 -26.5t85.5 -78.5t31 -129v-311h-175v45q-54 -60 -143 -60q-79 0 -121 46.5t-42 114.5zM198 162q0 -18 13 -32t42 -14
q40 0 64 23.5t24 61.5v7q-16 2 -32.5 3t-37.5 1q-39 0 -56 -15t-17 -35zM109 770h112q4 -30 16 -45.5t36 -15.5t36 15.5t16 45.5h112q-6 -83 -46.5 -126.5t-117.5 -43.5q-76 0 -117 43.5t-47 126.5z" />
    <glyph glyph-name="uni00C5" unicode="&#xc5;" horiz-adv-x="723" 
d="M5 0l269 700h175l269 -700h-199l-37 106h-247l-38 -106h-192zM293 266h133l-66 188zM234 866q0 46 35.5 78.5t90.5 32.5t90.5 -32.5t35.5 -78.5t-35.5 -78.5t-90.5 -32.5t-90.5 32.5t-35.5 78.5zM323 866q0 -15 10.5 -25t26.5 -10q17 0 27 10t10 25t-10 25t-27 10
q-16 0 -26.5 -10t-10.5 -25z" />
    <glyph glyph-name="uni00E5" unicode="&#xe5;" horiz-adv-x="576" 
d="M35 146q0 76 55.5 123t166.5 47q42 0 84 -8q-4 44 -32.5 64t-71.5 20q-31 0 -65.5 -10t-63.5 -24l-46 140q41 19 95.5 33t115.5 14q72 0 126.5 -26.5t85.5 -78.5t31 -129v-311h-175v45q-54 -60 -143 -60q-79 0 -121 46.5t-42 114.5zM198 162q0 -18 13 -32t42 -14
q40 0 64 23.5t24 61.5v7q-16 2 -32.5 3t-37.5 1q-39 0 -56 -15t-17 -35zM150 707q0 47 35 79.5t88 32.5t88 -32.5t35 -79.5t-35 -79.5t-88 -32.5t-88 32.5t-35 79.5zM239 707q0 -16 9.5 -27t24.5 -11t24.5 11t9.5 27q0 17 -9.5 27.5t-24.5 10.5t-24.5 -10.5t-9.5 -27.5z" />
    <glyph glyph-name="uni01FA" unicode="&#x1fa;" horiz-adv-x="723" 
d="M5 0l269 700h175l269 -700h-199l-37 106h-247l-38 -106h-192zM293 266h133l-66 188zM307 1012l76 145h168l-125 -145h-119zM234 866q0 46 35.5 78.5t90.5 32.5t90.5 -32.5t35.5 -78.5t-35.5 -78.5t-90.5 -32.5t-90.5 32.5t-35.5 78.5zM323 866q0 -15 10.5 -25t26.5 -10
q17 0 27 10t10 25t-10 25t-27 10q-16 0 -26.5 -10t-10.5 -25z" />
    <glyph glyph-name="uni01FB" unicode="&#x1fb;" horiz-adv-x="576" 
d="M35 146q0 76 55.5 123t166.5 47q42 0 84 -8q-4 44 -32.5 64t-71.5 20q-31 0 -65.5 -10t-63.5 -24l-46 140q41 19 95.5 33t115.5 14q72 0 126.5 -26.5t85.5 -78.5t31 -129v-311h-175v45q-54 -60 -143 -60q-79 0 -121 46.5t-42 114.5zM198 162q0 -18 13 -32t42 -14
q40 0 64 23.5t24 61.5v7q-16 2 -32.5 3t-37.5 1q-39 0 -56 -15t-17 -35zM229 869l66 170h158l-110 -170h-114zM150 707q0 47 35 79.5t88 32.5t88 -32.5t35 -79.5t-35 -79.5t-88 -32.5t-88 32.5t-35 79.5zM239 707q0 -16 9.5 -27t24.5 -11t24.5 11t9.5 27q0 17 -9.5 27.5
t-24.5 10.5t-24.5 -10.5t-9.5 -27.5z" />
    <glyph glyph-name="uni1EA0" unicode="&#x1ea0;" horiz-adv-x="723" 
d="M5 0l269 700h175l269 -700h-199l-37 106h-247l-38 -106h-192zM293 266h133l-66 188zM253 -174q0 43 29.5 73.5t77.5 30.5t77.5 -30.5t29.5 -73.5t-29.5 -73.5t-77.5 -30.5t-77.5 30.5t-29.5 73.5z" />
    <glyph glyph-name="uni1EA1" unicode="&#x1ea1;" horiz-adv-x="576" 
d="M35 146q0 76 55.5 123t166.5 47q42 0 84 -8q-4 44 -32.5 64t-71.5 20q-31 0 -65.5 -10t-63.5 -24l-46 140q41 19 95.5 33t115.5 14q72 0 126.5 -26.5t85.5 -78.5t31 -129v-311h-175v45q-54 -60 -143 -60q-79 0 -121 46.5t-42 114.5zM198 162q0 -18 13 -32t42 -14
q40 0 64 23.5t24 61.5v7q-16 2 -32.5 3t-37.5 1q-39 0 -56 -15t-17 -35zM178 -174q0 43 29.5 73.5t77.5 30.5t77.5 -30.5t29.5 -73.5t-29.5 -73.5t-77.5 -30.5t-77.5 30.5t-29.5 73.5z" />
    <glyph glyph-name="uni0104" unicode="&#x104;" horiz-adv-x="723" 
d="M5 0l269 700h175l269 -700q-55 -21 -85 -39.5t-41 -33.5t-11 -28q0 -30 34 -30q27 0 67 24l21 -96q-25 -14 -55.5 -24t-64.5 -10q-55 0 -90 30t-35 76q0 39 23.5 72t65.5 59h-28l-37 106h-247l-38 -106h-192zM293 266h133l-66 188z" />
    <glyph glyph-name="uni0105" unicode="&#x105;" horiz-adv-x="576" 
d="M35 146q0 76 55.5 123t166.5 47q42 0 84 -8q-4 44 -32.5 64t-71.5 20q-31 0 -65.5 -10t-63.5 -24l-46 140q41 19 95.5 33t115.5 14q72 0 126.5 -26.5t85.5 -78.5t31 -129v-311q-55 -21 -85 -39.5t-41 -33.5t-11 -28q0 -30 34 -30q27 0 67 24l21 -96q-25 -14 -55.5 -24
t-64.5 -10q-55 0 -90 30t-35 76q0 39 23.5 72t65.5 59h-4v45q-54 -60 -143 -60q-79 0 -121 46.5t-42 114.5zM198 162q0 -18 13 -32t42 -14q40 0 64 23.5t24 61.5v7q-16 2 -32.5 3t-37.5 1q-39 0 -56 -15t-17 -35z" />
    <glyph glyph-name="uni00C6" unicode="&#xc6;" horiz-adv-x="973" 
d="M5 0l331 700h582v-172h-290v-96h244v-158h-244v-102h295v-172h-480v106h-192l-49 -106h-197zM324 266h119v260z" />
    <glyph glyph-name="uni00E6" unicode="&#xe6;" horiz-adv-x="877" 
d="M35 146q0 76 55.5 123t166.5 47q42 0 84 -8q-4 44 -32.5 64t-71.5 20q-31 0 -65.5 -10t-63.5 -24l-46 140q38 19 87 33t104 14q61 0 107 -27.5t71 -80.5q30 56 79.5 82t107.5 26q66 0 116 -35t78.5 -93.5t28.5 -131.5q0 -15 -1.5 -34.5t-4.5 -33.5h-312q11 -37 40 -59
t74 -22q38 0 71.5 7t64.5 19l51 -133q-48 -22 -93 -33t-86 -11q-66 0 -122.5 28.5t-90.5 89.5q-28 -58 -85 -88t-124 -30q-94 0 -141 46.5t-47 114.5zM595 405q-62 0 -76 -92h151q-4 42 -23.5 67t-51.5 25zM198 162q0 -18 13 -32t42 -14q40 0 64 23.5t24 61.5v7
q-16 2 -32.5 3t-37.5 1q-39 0 -56 -15t-17 -35z" />
    <glyph glyph-name="uni01FC" unicode="&#x1fc;" horiz-adv-x="973" 
d="M5 0l331 700h582v-172h-290v-96h244v-158h-244v-102h295v-172h-480v106h-192l-49 -106h-197zM324 266h119v260zM536 770l76 145h168l-125 -145h-119z" />
    <glyph glyph-name="uni01FD" unicode="&#x1fd;" horiz-adv-x="877" 
d="M35 146q0 76 55.5 123t166.5 47q42 0 84 -8q-4 44 -32.5 64t-71.5 20q-31 0 -65.5 -10t-63.5 -24l-46 140q38 19 87 33t104 14q61 0 107 -27.5t71 -80.5q30 56 79.5 82t107.5 26q66 0 116 -35t78.5 -93.5t28.5 -131.5q0 -15 -1.5 -34.5t-4.5 -33.5h-312q11 -37 40 -59
t74 -22q38 0 71.5 7t64.5 19l51 -133q-48 -22 -93 -33t-86 -11q-66 0 -122.5 28.5t-90.5 89.5q-28 -58 -85 -88t-124 -30q-94 0 -141 46.5t-47 114.5zM595 405q-62 0 -76 -92h151q-4 42 -23.5 67t-51.5 25zM198 162q0 -18 13 -32t42 -14q40 0 64 23.5t24 61.5v7
q-16 2 -32.5 3t-37.5 1q-39 0 -56 -15t-17 -35zM383 610l66 170h158l-110 -170h-114z" />
    <glyph glyph-name="uni0106" unicode="&#x106;" horiz-adv-x="663" 
d="M40 350q0 79 26 145.5t74 116t112.5 76.5t140.5 27q75 0 138 -27t102 -67l-114 -143q-24 23 -54.5 36.5t-65.5 13.5q-48 0 -85 -22.5t-58 -62.5t-21 -93q0 -52 20 -92.5t56 -63t83 -22.5q37 0 71 14t62 38l111 -145q-41 -40 -104.5 -67t-134.5 -27q-106 0 -187 47
t-126.5 129.5t-45.5 188.5zM312 770l76 145h168l-125 -145h-119z" />
    <glyph glyph-name="uni0107" unicode="&#x107;" horiz-adv-x="520" 
d="M30 265q0 80 33 143t92.5 100t139.5 37q59 0 111 -18t93 -53l-91 -128q-40 34 -88 34q-49 0 -80.5 -29.5t-31.5 -85.5q0 -55 31.5 -85t80.5 -30q23 0 49 10.5t45 27.5l91 -129q-41 -35 -96 -54.5t-114 -19.5q-79 0 -139 37t-93 100.5t-33 142.5zM236 610l66 170h158
l-110 -170h-114z" />
    <glyph glyph-name="uni0108" unicode="&#x108;" horiz-adv-x="663" 
d="M40 350q0 79 26 145.5t74 116t112.5 76.5t140.5 27q75 0 138 -27t102 -67l-114 -143q-24 23 -54.5 36.5t-65.5 13.5q-48 0 -85 -22.5t-58 -62.5t-21 -93q0 -52 20 -92.5t56 -63t83 -22.5q37 0 71 14t62 38l111 -145q-41 -40 -104.5 -67t-134.5 -27q-106 0 -187 47
t-126.5 129.5t-45.5 188.5zM191 770l115 145h130l115 -145h-118l-62 54l-62 -54h-118z" />
    <glyph glyph-name="uni0109" unicode="&#x109;" horiz-adv-x="520" 
d="M30 265q0 80 33 143t92.5 100t139.5 37q59 0 111 -18t93 -53l-91 -128q-40 34 -88 34q-49 0 -80.5 -29.5t-31.5 -85.5q0 -55 31.5 -85t80.5 -30q23 0 49 10.5t45 27.5l91 -129q-41 -35 -96 -54.5t-114 -19.5q-79 0 -139 37t-93 100.5t-33 142.5zM121 610l110 170h118
l110 -170h-112l-57 65l-57 -65h-112z" />
    <glyph glyph-name="uni010C" unicode="&#x10c;" horiz-adv-x="663" 
d="M40 350q0 79 26 145.5t74 116t112.5 76.5t140.5 27q75 0 138 -27t102 -67l-114 -143q-24 23 -54.5 36.5t-65.5 13.5q-48 0 -85 -22.5t-58 -62.5t-21 -93q0 -52 20 -92.5t56 -63t83 -22.5q37 0 71 14t62 38l111 -145q-41 -40 -104.5 -67t-134.5 -27q-106 0 -187 47
t-126.5 129.5t-45.5 188.5zM551 905l-115 -145h-130l-115 145h118l62 -54l62 54h118z" />
    <glyph glyph-name="uni010D" unicode="&#x10d;" horiz-adv-x="520" 
d="M30 265q0 80 33 143t92.5 100t139.5 37q59 0 111 -18t93 -53l-91 -128q-40 34 -88 34q-49 0 -80.5 -29.5t-31.5 -85.5q0 -55 31.5 -85t80.5 -30q23 0 49 10.5t45 27.5l91 -129q-41 -35 -96 -54.5t-114 -19.5q-79 0 -139 37t-93 100.5t-33 142.5zM121 770h112l57 -65
l57 65h112l-110 -170h-118z" />
    <glyph glyph-name="uni010A" unicode="&#x10a;" horiz-adv-x="663" 
d="M40 350q0 79 26 145.5t74 116t112.5 76.5t140.5 27q75 0 138 -27t102 -67l-114 -143q-24 23 -54.5 36.5t-65.5 13.5q-48 0 -85 -22.5t-58 -62.5t-21 -93q0 -52 20 -92.5t56 -63t83 -22.5q37 0 71 14t62 38l111 -145q-41 -40 -104.5 -67t-134.5 -27q-106 0 -187 47
t-126.5 129.5t-45.5 188.5zM264 864q0 43 29.5 73.5t77.5 30.5t77.5 -30.5t29.5 -73.5t-29.5 -73.5t-77.5 -30.5t-77.5 30.5t-29.5 73.5z" />
    <glyph glyph-name="uni010B" unicode="&#x10b;" horiz-adv-x="520" 
d="M30 265q0 80 33 143t92.5 100t139.5 37q59 0 111 -18t93 -53l-91 -128q-40 34 -88 34q-49 0 -80.5 -29.5t-31.5 -85.5q0 -55 31.5 -85t80.5 -30q23 0 49 10.5t45 27.5l91 -129q-41 -35 -96 -54.5t-114 -19.5q-79 0 -139 37t-93 100.5t-33 142.5zM183 704q0 43 29.5 73.5
t77.5 30.5t77.5 -30.5t29.5 -73.5t-29.5 -73.5t-77.5 -30.5t-77.5 30.5t-29.5 73.5z" />
    <glyph glyph-name="uni00C7" unicode="&#xc7;" horiz-adv-x="663" 
d="M274 -153l20 59q11 -4 21.5 -5.5t19.5 -1.5q23 0 23 12q0 6 -9.5 12t-41.5 10l19 58q-86 16 -150.5 65.5t-100 125t-35.5 168.5q0 79 26 145.5t74 116t112.5 76.5t140.5 27q75 0 138 -27t102 -67l-114 -143q-24 23 -54.5 36.5t-65.5 13.5q-48 0 -85 -22.5t-58 -62.5
t-21 -93q0 -52 20 -92.5t56 -63t83 -22.5q37 0 71 14t62 38l111 -145q-41 -40 -103.5 -67t-129.5 -27l-5 -21q35 -4 54.5 -23t19.5 -42q0 -27 -29 -45.5t-87 -18.5q-23 0 -45 3.5t-39 8.5z" />
    <glyph glyph-name="uni00E7" unicode="&#xe7;" horiz-adv-x="520" 
d="M196 -153l20 59q11 -4 21.5 -5.5t19.5 -1.5q23 0 23 12q0 6 -9.5 12t-41.5 10l18 56q-66 11 -114.5 49t-75.5 97t-27 130q0 80 33 143t92.5 100t139.5 37q59 0 111 -18t93 -53l-91 -128q-40 34 -88 34q-49 0 -80.5 -29.5t-31.5 -85.5q0 -55 31.5 -85t80.5 -30
q23 0 49 10.5t45 27.5l91 -129q-35 -31 -81.5 -49t-96.5 -23l-5 -23q35 -4 54.5 -23t19.5 -42q0 -27 -29 -45.5t-87 -18.5q-23 0 -45 3.5t-39 8.5z" />
    <glyph glyph-name="uni010E" unicode="&#x10e;" horiz-adv-x="744" 
d="M80 0v700h272q108 0 187 -44.5t122 -123t43 -182.5q0 -103 -43 -182t-122 -123.5t-187 -44.5h-272zM337 528h-72v-356h72q77 0 124.5 47t47.5 131t-47.5 131t-124.5 47zM517 905l-115 -145h-130l-115 145h118l62 -54l62 54h118z" />
    <glyph glyph-name="uni010F" unicode="&#x10f;" horiz-adv-x="758" 
d="M30 265q0 80 26.5 143t76 100t117.5 37q40 0 74.5 -14t62.5 -40v239h175v-730h-165v50q-28 -31 -65.5 -48t-81.5 -17q-67 0 -116.5 37t-76.5 100.5t-27 142.5zM208 265q0 -55 27 -89t70 -34t70 34t27 89q0 56 -27 89.5t-70 33.5t-70 -33.5t-27 -89.5zM629 730h164
l-66 -328h-122z" />
    <glyph glyph-name="uni0110" unicode="&#x110;" horiz-adv-x="744" 
d="M80 0v272h-65v144h65v284h272q108 0 187 -44.5t122 -123t43 -182.5q0 -103 -43 -182t-122 -123.5t-187 -44.5h-272zM405 272h-140v-100h72q77 0 124.5 47t47.5 131t-47.5 131t-124.5 47h-72v-112h140v-144z" />
    <glyph glyph-name="uni0111" unicode="&#x111;" horiz-adv-x="627" 
d="M30 245q0 74 26.5 132.5t76 93t117.5 34.5q40 0 74.5 -13.5t62.5 -37.5v92h-105v126h105v58h175v-58h65v-126h-65v-546h-165v45q-28 -28 -65.5 -44t-81.5 -16q-67 0 -116.5 34.5t-76.5 93.5t-27 132zM208 245q0 -46 27 -74.5t70 -28.5t70 28.5t27 74.5q0 47 -27 75
t-70 28t-70 -28t-27 -75z" />
    <glyph glyph-name="uni00D0" unicode="&#xd0;" horiz-adv-x="744" 
d="M80 0v272h-65v144h65v284h272q108 0 187 -44.5t122 -123t43 -182.5q0 -103 -43 -182t-122 -123.5t-187 -44.5h-272zM405 272h-140v-100h72q77 0 124.5 47t47.5 131t-47.5 131t-124.5 47h-72v-112h140v-144z" />
    <glyph glyph-name="uni00F0" unicode="&#xf0;" horiz-adv-x="677" 
d="M55 250q0 76 30.5 132t81.5 87t110 31q68 0 117 -40q-26 50 -65 95l-118 -40l-34 100l68 23q-26 22 -55.5 45t-62.5 47h225q12 -10 24 -19.5t23 -20.5l116 40l35 -100l-73 -25q57 -73 91 -159.5t34 -175.5q0 -83 -34 -147.5t-94.5 -101t-142.5 -36.5q-83 0 -145 36
t-96.5 96.5t-34.5 132.5zM238 248q0 -45 25.5 -72t67.5 -27t67.5 27t25.5 72t-25.5 72t-67.5 27t-67.5 -27t-25.5 -72z" />
    <glyph glyph-name="uni00C8" unicode="&#xc8;" horiz-adv-x="630" 
d="M80 0v700h495v-172h-310v-96h264v-158h-264v-102h315v-172h-500zM148 915h168l76 -145h-119z" />
    <glyph glyph-name="uni00E8" unicode="&#xe8;" horiz-adv-x="577" 
d="M30 265q0 80 32 143t91 100t140 37q75 0 131 -35t86.5 -93.5t30.5 -131.5q0 -15 -1.5 -34.5t-4.5 -33.5h-327q13 -37 44 -59t80 -22q39 0 74.5 7t66.5 19l51 -133q-101 -44 -204 -44q-87 0 -152 37.5t-101.5 101t-36.5 141.5zM290 405q-70 0 -85 -92h165q-4 42 -24.5 67
t-55.5 25zM123 780h158l66 -170h-114z" />
    <glyph glyph-name="uni00C9" unicode="&#xc9;" horiz-adv-x="630" 
d="M80 0v700h495v-172h-310v-96h264v-158h-264v-102h315v-172h-500zM274 770l76 145h168l-125 -145h-119z" />
    <glyph glyph-name="uni00E9" unicode="&#xe9;" horiz-adv-x="577" 
d="M30 265q0 80 32 143t91 100t140 37q75 0 131 -35t86.5 -93.5t30.5 -131.5q0 -15 -1.5 -34.5t-4.5 -33.5h-327q13 -37 44 -59t80 -22q39 0 74.5 7t66.5 19l51 -133q-101 -44 -204 -44q-87 0 -152 37.5t-101.5 101t-36.5 141.5zM290 405q-70 0 -85 -92h165q-4 42 -24.5 67
t-55.5 25zM239 610l66 170h158l-110 -170h-114z" />
    <glyph glyph-name="uni00CA" unicode="&#xca;" horiz-adv-x="630" 
d="M80 0v700h495v-172h-310v-96h264v-158h-264v-102h315v-172h-500zM153 770l115 145h130l115 -145h-118l-62 54l-62 -54h-118z" />
    <glyph glyph-name="uni00EA" unicode="&#xea;" horiz-adv-x="577" 
d="M30 265q0 80 32 143t91 100t140 37q75 0 131 -35t86.5 -93.5t30.5 -131.5q0 -15 -1.5 -34.5t-4.5 -33.5h-327q13 -37 44 -59t80 -22q39 0 74.5 7t66.5 19l51 -133q-101 -44 -204 -44q-87 0 -152 37.5t-101.5 101t-36.5 141.5zM290 405q-70 0 -85 -92h165q-4 42 -24.5 67
t-55.5 25zM124 610l110 170h118l110 -170h-112l-57 65l-57 -65h-112z" />
    <glyph glyph-name="uni1EBC" unicode="&#x1ebc;" horiz-adv-x="630" 
d="M80 0v700h495v-172h-310v-96h264v-158h-264v-102h315v-172h-500zM135 765q3 44 17 80t41.5 58t69.5 22q28 0 49 -9t38 -21.5t32.5 -21.5t31.5 -9t25 13t13 43h79q-2 -43 -16.5 -79.5t-41.5 -58.5t-70 -22q-28 0 -49.5 9t-38 21.5t-32 21.5t-31.5 9q-29 0 -38 -56h-79z
" />
    <glyph glyph-name="uni1EBD" unicode="&#x1ebd;" horiz-adv-x="577" 
d="M30 265q0 80 32 143t91 100t140 37q75 0 131 -35t86.5 -93.5t30.5 -131.5q0 -15 -1.5 -34.5t-4.5 -33.5h-327q13 -37 44 -59t80 -22q39 0 74.5 7t66.5 19l51 -133q-101 -44 -204 -44q-87 0 -152 37.5t-101.5 101t-36.5 141.5zM290 405q-70 0 -85 -92h165q-4 42 -24.5 67
t-55.5 25zM110 610q3 44 15.5 80t37.5 58t65 22q35 0 59.5 -15t42 -30.5t31.5 -15.5q16 0 24 13t12 43h79q-2 -43 -15 -79.5t-38 -58.5t-65 -22q-35 0 -59.5 15.5t-42 30.5t-31.5 15q-29 0 -36 -56h-79z" />
    <glyph glyph-name="uni011A" unicode="&#x11a;" horiz-adv-x="630" 
d="M80 0v700h495v-172h-310v-96h264v-158h-264v-102h315v-172h-500zM513 905l-115 -145h-130l-115 145h118l62 -54l62 54h118z" />
    <glyph glyph-name="uni011B" unicode="&#x11b;" horiz-adv-x="577" 
d="M30 265q0 80 32 143t91 100t140 37q75 0 131 -35t86.5 -93.5t30.5 -131.5q0 -15 -1.5 -34.5t-4.5 -33.5h-327q13 -37 44 -59t80 -22q39 0 74.5 7t66.5 19l51 -133q-101 -44 -204 -44q-87 0 -152 37.5t-101.5 101t-36.5 141.5zM290 405q-70 0 -85 -92h165q-4 42 -24.5 67
t-55.5 25zM124 770h112l57 -65l57 65h112l-110 -170h-118z" />
    <glyph glyph-name="uni00CB" unicode="&#xcb;" horiz-adv-x="630" 
d="M80 0v700h495v-172h-310v-96h264v-158h-264v-102h315v-172h-500zM137 850q0 32 22 54t55 22t55 -22t22 -54q0 -31 -22 -53.5t-55 -22.5t-55 22.5t-22 53.5zM375 850q0 32 22 54t55 22t55 -22t22 -54q0 -31 -22 -53.5t-55 -22.5t-55 22.5t-22 53.5z" />
    <glyph glyph-name="uni00EB" unicode="&#xeb;" horiz-adv-x="577" 
d="M30 265q0 80 32 143t91 100t140 37q75 0 131 -35t86.5 -93.5t30.5 -131.5q0 -15 -1.5 -34.5t-4.5 -33.5h-327q13 -37 44 -59t80 -22q39 0 74.5 7t66.5 19l51 -133q-101 -44 -204 -44q-87 0 -152 37.5t-101.5 101t-36.5 141.5zM290 405q-70 0 -85 -92h165q-4 42 -24.5 67
t-55.5 25zM107 685q0 32 22 54t55 22t55 -22t22 -54q0 -31 -22 -53.5t-55 -22.5t-55 22.5t-22 53.5zM325 685q0 32 22 54t55 22t55 -22t22 -54q0 -31 -22 -53.5t-55 -22.5t-55 22.5t-22 53.5z" />
    <glyph glyph-name="uni0112" unicode="&#x112;" horiz-adv-x="630" 
d="M80 0v700h495v-172h-310v-96h264v-158h-264v-102h315v-172h-500zM154 788v125h358v-125h-358z" />
    <glyph glyph-name="uni0113" unicode="&#x113;" horiz-adv-x="577" 
d="M30 265q0 80 32 143t91 100t140 37q75 0 131 -35t86.5 -93.5t30.5 -131.5q0 -15 -1.5 -34.5t-4.5 -33.5h-327q13 -37 44 -59t80 -22q39 0 74.5 7t66.5 19l51 -133q-101 -44 -204 -44q-87 0 -152 37.5t-101.5 101t-36.5 141.5zM290 405q-70 0 -85 -92h165q-4 42 -24.5 67
t-55.5 25zM124 648v125h338v-125h-338z" />
    <glyph glyph-name="uni0114" unicode="&#x114;" horiz-adv-x="630" 
d="M80 0v700h495v-172h-310v-96h264v-158h-264v-102h315v-172h-500zM159 905h112q2 -18 16.5 -28t45.5 -10q30 0 44.5 10t17.5 28h112q-11 -145 -174 -145t-174 145z" />
    <glyph glyph-name="uni0115" unicode="&#x115;" horiz-adv-x="577" 
d="M30 265q0 80 32 143t91 100t140 37q75 0 131 -35t86.5 -93.5t30.5 -131.5q0 -15 -1.5 -34.5t-4.5 -33.5h-327q13 -37 44 -59t80 -22q39 0 74.5 7t66.5 19l51 -133q-101 -44 -204 -44q-87 0 -152 37.5t-101.5 101t-36.5 141.5zM290 405q-70 0 -85 -92h165q-4 42 -24.5 67
t-55.5 25zM129 770h112q4 -30 16 -45.5t36 -15.5t36 15.5t16 45.5h112q-6 -83 -46.5 -126.5t-117.5 -43.5q-76 0 -117 43.5t-47 126.5z" />
    <glyph glyph-name="uni0116" unicode="&#x116;" horiz-adv-x="630" 
d="M80 0v700h495v-172h-310v-96h264v-158h-264v-102h315v-172h-500zM226 864q0 43 29.5 73.5t77.5 30.5t77.5 -30.5t29.5 -73.5t-29.5 -73.5t-77.5 -30.5t-77.5 30.5t-29.5 73.5z" />
    <glyph glyph-name="uni0117" unicode="&#x117;" horiz-adv-x="577" 
d="M30 265q0 80 32 143t91 100t140 37q75 0 131 -35t86.5 -93.5t30.5 -131.5q0 -15 -1.5 -34.5t-4.5 -33.5h-327q13 -37 44 -59t80 -22q39 0 74.5 7t66.5 19l51 -133q-101 -44 -204 -44q-87 0 -152 37.5t-101.5 101t-36.5 141.5zM290 405q-70 0 -85 -92h165q-4 42 -24.5 67
t-55.5 25zM186 704q0 43 29.5 73.5t77.5 30.5t77.5 -30.5t29.5 -73.5t-29.5 -73.5t-77.5 -30.5t-77.5 30.5t-29.5 73.5z" />
    <glyph glyph-name="uni1EB8" unicode="&#x1eb8;" horiz-adv-x="630" 
d="M80 0v700h495v-172h-310v-96h264v-158h-264v-102h315v-172h-500zM238 -174q0 43 29.5 73.5t77.5 30.5t77.5 -30.5t29.5 -73.5t-29.5 -73.5t-77.5 -30.5t-77.5 30.5t-29.5 73.5z" />
    <glyph glyph-name="uni1EB9" unicode="&#x1eb9;" horiz-adv-x="577" 
d="M30 265q0 80 32 143t91 100t140 37q75 0 131 -35t86.5 -93.5t30.5 -131.5q0 -15 -1.5 -34.5t-4.5 -33.5h-327q13 -37 44 -59t80 -22q39 0 74.5 7t66.5 19l51 -133q-101 -44 -204 -44q-87 0 -152 37.5t-101.5 101t-36.5 141.5zM290 405q-70 0 -85 -92h165q-4 42 -24.5 67
t-55.5 25zM194 -174q0 43 29.5 73.5t77.5 30.5t77.5 -30.5t29.5 -73.5t-29.5 -73.5t-77.5 -30.5t-77.5 30.5t-29.5 73.5z" />
    <glyph glyph-name="uni0118" unicode="&#x118;" horiz-adv-x="630" 
d="M80 0v700h495v-172h-310v-96h264v-158h-264v-102h315v-172q-55 -21 -85 -39.5t-41 -33.5t-11 -28q0 -30 34 -30q27 0 67 24l21 -96q-25 -14 -55.5 -24t-64.5 -10q-55 0 -90 30t-35 76q0 39 23.5 72t65.5 59h-329z" />
    <glyph glyph-name="uni0119" unicode="&#x119;" horiz-adv-x="577" 
d="M459 3q-58 -25 -87 -44.5t-39 -34t-10 -25.5q0 -30 34 -30q27 0 67 24l21 -96q-25 -14 -55.5 -24t-64.5 -10q-55 0 -90 30t-35 76q0 35 19 64.5t53 54.5q-73 11 -127.5 50t-84.5 98t-30 129q0 80 32 143t91 100t140 37q75 0 131 -35t86.5 -93.5t30.5 -131.5
q0 -15 -1.5 -34.5t-4.5 -33.5h-327q13 -37 44 -59t80 -22q39 0 74.5 7t66.5 19l51 -133q-19 -7 -35 -13.5t-30 -12.5zM290 405q-70 0 -85 -92h165q-4 42 -24.5 67t-55.5 25z" />
    <glyph glyph-name="uni011C" unicode="&#x11c;" horiz-adv-x="735" 
d="M40 350q0 79 26.5 145.5t75 116t115 76.5t145.5 27q75 0 140.5 -24t105.5 -62l-110 -151q-26 22 -61 36.5t-73 14.5q-75 0 -122 -49t-47 -130q0 -95 44.5 -146.5t120.5 -51.5q57 0 105 22v80h-115v156h290v-323q-34 -29 -82 -52t-101.5 -36.5t-107.5 -13.5
q-102 0 -180.5 46t-123.5 128.5t-45 190.5zM210 770l115 145h130l115 -145h-118l-62 54l-62 -54h-118z" />
    <glyph glyph-name="uni011D" unicode="&#x11d;" horiz-adv-x="627" 
d="M55 -124l47 148q38 -19 77 -28t75 -9q70 0 101.5 27t31.5 76v6q-28 -22 -62 -34.5t-74 -12.5q-63 0 -113 32t-79 87.5t-29 126.5t29 127.5t80.5 89.5t116.5 33q41 0 77 -15t64 -42v42h165v-438q0 -77 -32.5 -135t-94.5 -90t-153 -32q-71 0 -126.5 11.5t-100.5 29.5z
M208 295q0 -43 27 -68t70 -25t70 25t27 68q0 42 -27 67.5t-70 25.5t-70 -25.5t-27 -67.5zM154 610l110 170h118l110 -170h-112l-57 65l-57 -65h-112z" />
    <glyph glyph-name="uni01E6" unicode="&#x1e6;" horiz-adv-x="735" 
d="M40 350q0 79 26.5 145.5t75 116t115 76.5t145.5 27q75 0 140.5 -24t105.5 -62l-110 -151q-26 22 -61 36.5t-73 14.5q-75 0 -122 -49t-47 -130q0 -95 44.5 -146.5t120.5 -51.5q57 0 105 22v80h-115v156h290v-323q-34 -29 -82 -52t-101.5 -36.5t-107.5 -13.5
q-102 0 -180.5 46t-123.5 128.5t-45 190.5zM570 905l-115 -145h-130l-115 145h118l62 -54l62 54h118z" />
    <glyph glyph-name="uni01E7" unicode="&#x1e7;" horiz-adv-x="627" 
d="M55 -124l47 148q38 -19 77 -28t75 -9q70 0 101.5 27t31.5 76v6q-28 -22 -62 -34.5t-74 -12.5q-63 0 -113 32t-79 87.5t-29 126.5t29 127.5t80.5 89.5t116.5 33q41 0 77 -15t64 -42v42h165v-438q0 -77 -32.5 -135t-94.5 -90t-153 -32q-71 0 -126.5 11.5t-100.5 29.5z
M208 295q0 -43 27 -68t70 -25t70 25t27 68q0 42 -27 67.5t-70 25.5t-70 -25.5t-27 -67.5zM154 770h112l57 -65l57 65h112l-110 -170h-118z" />
    <glyph glyph-name="uni011E" unicode="&#x11e;" horiz-adv-x="735" 
d="M40 350q0 79 26.5 145.5t75 116t115 76.5t145.5 27q75 0 140.5 -24t105.5 -62l-110 -151q-26 22 -61 36.5t-73 14.5q-75 0 -122 -49t-47 -130q0 -95 44.5 -146.5t120.5 -51.5q57 0 105 22v80h-115v156h290v-323q-34 -29 -82 -52t-101.5 -36.5t-107.5 -13.5
q-102 0 -180.5 46t-123.5 128.5t-45 190.5zM216 905h112q2 -18 16.5 -28t45.5 -10q30 0 44.5 10t17.5 28h112q-11 -145 -174 -145t-174 145z" />
    <glyph glyph-name="uni011F" unicode="&#x11f;" horiz-adv-x="627" 
d="M55 -124l47 148q38 -19 77 -28t75 -9q70 0 101.5 27t31.5 76v6q-28 -22 -62 -34.5t-74 -12.5q-63 0 -113 32t-79 87.5t-29 126.5t29 127.5t80.5 89.5t116.5 33q41 0 77 -15t64 -42v42h165v-438q0 -77 -32.5 -135t-94.5 -90t-153 -32q-71 0 -126.5 11.5t-100.5 29.5z
M208 295q0 -43 27 -68t70 -25t70 25t27 68q0 42 -27 67.5t-70 25.5t-70 -25.5t-27 -67.5zM159 770h112q4 -30 16 -45.5t36 -15.5t36 15.5t16 45.5h112q-6 -83 -46.5 -126.5t-117.5 -43.5q-76 0 -117 43.5t-47 126.5z" />
    <glyph glyph-name="uni0120" unicode="&#x120;" horiz-adv-x="735" 
d="M40 350q0 79 26.5 145.5t75 116t115 76.5t145.5 27q75 0 140.5 -24t105.5 -62l-110 -151q-26 22 -61 36.5t-73 14.5q-75 0 -122 -49t-47 -130q0 -95 44.5 -146.5t120.5 -51.5q57 0 105 22v80h-115v156h290v-323q-34 -29 -82 -52t-101.5 -36.5t-107.5 -13.5
q-102 0 -180.5 46t-123.5 128.5t-45 190.5zM283 864q0 43 29.5 73.5t77.5 30.5t77.5 -30.5t29.5 -73.5t-29.5 -73.5t-77.5 -30.5t-77.5 30.5t-29.5 73.5z" />
    <glyph glyph-name="uni0121" unicode="&#x121;" horiz-adv-x="627" 
d="M55 -124l47 148q38 -19 77 -28t75 -9q70 0 101.5 27t31.5 76v6q-28 -22 -62 -34.5t-74 -12.5q-63 0 -113 32t-79 87.5t-29 126.5t29 127.5t80.5 89.5t116.5 33q41 0 77 -15t64 -42v42h165v-438q0 -77 -32.5 -135t-94.5 -90t-153 -32q-71 0 -126.5 11.5t-100.5 29.5z
M208 295q0 -43 27 -68t70 -25t70 25t27 68q0 42 -27 67.5t-70 25.5t-70 -25.5t-27 -67.5zM216 704q0 43 29.5 73.5t77.5 30.5t77.5 -30.5t29.5 -73.5t-29.5 -73.5t-77.5 -30.5t-77.5 30.5t-29.5 73.5z" />
    <glyph glyph-name="uni0122" unicode="&#x122;" horiz-adv-x="735" 
d="M40 350q0 79 26.5 145.5t75 116t115 76.5t145.5 27q75 0 140.5 -24t105.5 -62l-110 -151q-26 22 -61 36.5t-73 14.5q-75 0 -122 -49t-47 -130q0 -95 44.5 -146.5t120.5 -51.5q57 0 105 22v80h-115v156h290v-323q-34 -29 -82 -52t-101.5 -36.5t-107.5 -13.5
q-102 0 -180.5 46t-123.5 128.5t-45 190.5zM322 -169q0 41 29.5 70t77.5 29t77.5 -29.5t29.5 -77.5q0 -23 -11.5 -55.5t-29.5 -65t-36 -55.5h-117q12 20 24 45t19 48q-26 10 -44.5 34t-18.5 57z" />
    <glyph glyph-name="uni0123" unicode="&#x123;" horiz-adv-x="627" 
d="M55 -124l47 148q38 -19 77 -28t75 -9q70 0 101.5 27t31.5 76v6q-28 -22 -62 -34.5t-74 -12.5q-63 0 -113 32t-79 87.5t-29 126.5t29 127.5t80.5 89.5t116.5 33q41 0 77 -15t64 -42v42h165v-438q0 -77 -32.5 -135t-94.5 -90t-153 -32q-71 0 -126.5 11.5t-100.5 29.5z
M208 295q0 -43 27 -68t70 -25t70 25t27 68q0 42 -27 67.5t-70 25.5t-70 -25.5t-27 -67.5zM430 699q0 -40 -29.5 -69.5t-77.5 -29.5t-77.5 29.5t-29.5 77.5q0 23 11.5 55.5t29.5 65.5t36 55h117q-12 -19 -23.5 -44.5t-19.5 -48.5q26 -10 44.5 -34t18.5 -57z" />
    <glyph glyph-name="uni0124" unicode="&#x124;" horiz-adv-x="755" 
d="M80 0v700h185v-261h225v261h185v-700h-185v267h-225v-267h-185zM197 770l115 145h130l115 -145h-118l-62 54l-62 -54h-118z" />
    <glyph glyph-name="uni0125" unicode="&#x125;" horiz-adv-x="645" 
d="M65 0v730h175v-266q52 81 157 81q54 0 96.5 -26.5t67 -78.5t24.5 -129v-311h-175v275q0 54 -22 77.5t-56 23.5q-40 0 -66 -28.5t-26 -84.5v-263h-175zM-16 810l110 170h118l110 -170h-112l-57 65l-57 -65h-112z" />
    <glyph glyph-name="uni0126" unicode="&#x126;" horiz-adv-x="755" 
d="M80 0v476h-80v126h80v98h185v-98h225v98h185v-98h80v-126h-80v-476h-185v207h-225v-207h-185zM265 379h225v97h-225v-97z" />
    <glyph glyph-name="uni0127" unicode="&#x127;" horiz-adv-x="645" 
d="M65 0v546h-65v126h65v58h175v-58h105v-126h-105v-122q52 81 157 81q54 0 96.5 -26.5t67 -78.5t24.5 -129v-271h-175v235q0 54 -22 77.5t-56 23.5q-40 0 -66 -28.5t-26 -84.5v-223h-175z" />
    <glyph glyph-name="uni0131" unicode="&#x131;" horiz-adv-x="305" 
d="M65 0v530h175v-530h-175z" />
    <glyph glyph-name="uni00CC" unicode="&#xcc;" horiz-adv-x="345" 
d="M80 0v700h185v-700h-185zM-13 915h168l76 -145h-119z" />
    <glyph glyph-name="uni00EC" unicode="&#xec;" horiz-adv-x="305" 
d="M-17 780h158l66 -170h-114zM65 0v530h175v-530h-175z" />
    <glyph glyph-name="uni00CD" unicode="&#xcd;" horiz-adv-x="345" 
d="M80 0v700h185v-700h-185zM113 770l76 145h168l-125 -145h-119z" />
    <glyph glyph-name="uni00ED" unicode="&#xed;" horiz-adv-x="305" 
d="M65 0v530h175v-530h-175zM99 610l66 170h158l-110 -170h-114z" />
    <glyph glyph-name="uni00CE" unicode="&#xce;" horiz-adv-x="345" 
d="M-8 770l115 145h130l115 -145h-118l-62 54l-62 -54h-118zM80 0v700h185v-700h-185z" />
    <glyph glyph-name="uni00EE" unicode="&#xee;" horiz-adv-x="305" 
d="M-16 610l110 170h118l110 -170h-112l-57 65l-57 -65h-112zM65 0v530h175v-530h-175z" />
    <glyph glyph-name="uni0128" unicode="&#x128;" horiz-adv-x="345" 
d="M80 0v700h185v-700h-185zM-26 765q3 44 17 80t41.5 58t69.5 22q28 0 49 -9t38 -21.5t32.5 -21.5t31.5 -9t25 13t13 43h79q-2 -43 -16.5 -79.5t-41.5 -58.5t-70 -22q-28 0 -49.5 9t-38 21.5t-32 21.5t-31.5 9q-29 0 -38 -56h-79z" />
    <glyph glyph-name="uni0129" unicode="&#x129;" horiz-adv-x="305" 
d="M65 0v530h175v-530h-175zM-30 610q3 44 15.5 80t37.5 58t65 22q35 0 59.5 -15t42 -30.5t31.5 -15.5q16 0 24 13t12 43h79q-2 -43 -15 -79.5t-38 -58.5t-65 -22q-35 0 -59.5 15.5t-42 30.5t-31.5 15q-29 0 -36 -56h-79z" />
    <glyph glyph-name="uni00CF" unicode="&#xcf;" horiz-adv-x="345" 
d="M-24 850q0 32 22 54t55 22t55 -22t22 -54q0 -31 -22 -53.5t-55 -22.5t-55 22.5t-22 53.5zM214 850q0 32 22 54t55 22t55 -22t22 -54q0 -31 -22 -53.5t-55 -22.5t-55 22.5t-22 53.5zM80 0v700h185v-700h-185z" />
    <glyph glyph-name="uni00EF" unicode="&#xef;" horiz-adv-x="305" 
d="M-33 685q0 32 22 54t55 22t55 -22t22 -54q0 -31 -22 -53.5t-55 -22.5t-55 22.5t-22 53.5zM185 685q0 32 22 54t55 22t55 -22t22 -54q0 -31 -22 -53.5t-55 -22.5t-55 22.5t-22 53.5zM65 0v530h175v-530h-175z" />
    <glyph glyph-name="uni012A" unicode="&#x12a;" horiz-adv-x="345" 
d="M80 0v700h185v-700h-185zM-7 788v125h358v-125h-358z" />
    <glyph glyph-name="uni012B" unicode="&#x12b;" horiz-adv-x="305" 
d="M65 0v530h175v-530h-175zM-16 648v125h338v-125h-338z" />
    <glyph glyph-name="uni012C" unicode="&#x12c;" horiz-adv-x="345" 
d="M80 0v700h185v-700h-185zM-2 905h112q2 -18 16.5 -28t45.5 -10q30 0 44.5 10t17.5 28h112q-11 -145 -174 -145t-174 145z" />
    <glyph glyph-name="uni012D" unicode="&#x12d;" horiz-adv-x="305" 
d="M65 0v530h175v-530h-175zM-11 770h112q4 -30 16 -45.5t36 -15.5t36 15.5t16 45.5h112q-6 -83 -46.5 -126.5t-117.5 -43.5q-76 0 -117 43.5t-47 126.5z" />
    <glyph glyph-name="uni0130" unicode="&#x130;" horiz-adv-x="345" 
d="M80 0v700h185v-700h-185zM65 864q0 43 29.5 73.5t77.5 30.5t77.5 -30.5t29.5 -73.5t-29.5 -73.5t-77.5 -30.5t-77.5 30.5t-29.5 73.5z" />
    <glyph glyph-name="uni0069.TRK" horiz-adv-x="305" 
d="M45 689q0 43 29.5 71.5t77.5 28.5t78 -28.5t30 -71.5t-30 -71.5t-78 -28.5t-77.5 28.5t-29.5 71.5zM65 0v530h175v-530h-175z" />
    <glyph glyph-name="uni1ECA" unicode="&#x1eca;" horiz-adv-x="345" 
d="M80 0v700h185v-700h-185zM65 -174q0 43 29.5 73.5t77.5 30.5t77.5 -30.5t29.5 -73.5t-29.5 -73.5t-77.5 -30.5t-77.5 30.5t-29.5 73.5z" />
    <glyph glyph-name="uni1ECB" unicode="&#x1ecb;" horiz-adv-x="305" 
d="M45 689q0 43 29.5 71.5t77.5 28.5t78 -28.5t30 -71.5t-30 -71.5t-78 -28.5t-77.5 28.5t-29.5 71.5zM65 0v530h175v-530h-175zM46 -174q0 43 29.5 73.5t77.5 30.5t77.5 -30.5t29.5 -73.5t-29.5 -73.5t-77.5 -30.5t-77.5 30.5t-29.5 73.5z" />
    <glyph glyph-name="uni012E" unicode="&#x12e;" horiz-adv-x="345" 
d="M80 0v700h185v-700q-55 -21 -85 -39.5t-41 -33.5t-11 -28q0 -30 34 -30q27 0 67 24l21 -96q-25 -14 -55.5 -24t-64.5 -10q-55 0 -90 30t-35 76q0 39 23.5 72t65.5 59h-14z" />
    <glyph glyph-name="uni012F" unicode="&#x12f;" horiz-adv-x="305" 
d="M45 689q0 43 29.5 71.5t77.5 28.5t78 -28.5t30 -71.5t-30 -71.5t-78 -28.5t-77.5 28.5t-29.5 71.5zM65 0v530h175v-530q-55 -21 -85 -39.5t-41 -33.5t-11 -28q0 -30 34 -30q27 0 67 24l21 -96q-25 -14 -55.5 -24t-64.5 -10q-55 0 -90 30t-35 76q0 39 23.5 72t65.5 59h-4z
" />
    <glyph glyph-name="uni0237" unicode="&#x237;" horiz-adv-x="305" 
d="M-49 -155l9 154q23 -6 44 -6q32 0 46.5 14.5t14.5 48.5v474h175v-491q0 -100 -47.5 -152t-147.5 -52q-54 0 -94 10z" />
    <glyph glyph-name="uni0134" unicode="&#x134;" horiz-adv-x="551" 
d="M15 69l92 135q19 -19 44 -31.5t49 -12.5q36 0 63.5 26.5t27.5 87.5v426h185v-440q0 -84 -31 -146t-87 -95.5t-132 -33.5q-51 0 -107.5 21.5t-103.5 62.5zM203 770l115 145h130l115 -145h-118l-62 54l-62 -54h-118z" />
    <glyph glyph-name="uni0135" unicode="&#x135;" horiz-adv-x="305" 
d="M-49 -155l9 154q23 -6 44 -6q32 0 46.5 14.5t14.5 48.5v474h175v-491q0 -100 -47.5 -152t-147.5 -52q-54 0 -94 10zM-16 610l110 170h118l110 -170h-112l-57 65l-57 -65h-112z" />
    <glyph glyph-name="uni0136" unicode="&#x136;" horiz-adv-x="693" 
d="M80 0v700h185v-295l193 295h222l-245 -344l258 -356h-229l-199 295v-295h-185zM255 -169q0 41 29.5 70t77.5 29t77.5 -29.5t29.5 -77.5q0 -23 -11.5 -55.5t-29.5 -65t-36 -55.5h-117q12 20 24 45t19 48q-26 10 -44.5 34t-18.5 57z" />
    <glyph glyph-name="uni0137" unicode="&#x137;" horiz-adv-x="587" 
d="M65 0v730h175v-412l133 212h197l-180 -253l193 -277h-206l-137 218v-218h-175zM201 -169q0 41 29.5 70t77.5 29t77.5 -29.5t29.5 -77.5q0 -23 -11.5 -55.5t-29.5 -65t-36 -55.5h-117q12 20 24 45t19 48q-26 10 -44.5 34t-18.5 57z" />
    <glyph glyph-name="uni0138" unicode="&#x138;" horiz-adv-x="587" 
d="M65 0v530h175v-212l133 212h197l-180 -253l193 -277h-206l-137 218v-218h-175z" />
    <glyph glyph-name="uni0139" unicode="&#x139;" horiz-adv-x="580" 
d="M80 0v700h185v-528h280v-172h-465zM113 770l76 145h168l-125 -145h-119z" />
    <glyph glyph-name="uni013A" unicode="&#x13a;" horiz-adv-x="305" 
d="M65 0v730h175v-730h-175zM99 810l66 170h158l-110 -170h-114z" />
    <glyph glyph-name="uni013D" unicode="&#x13d;" horiz-adv-x="580" 
d="M80 0v700h185v-528h280v-172h-465zM446 730h164l-66 -328h-122z" />
    <glyph glyph-name="uni013E" unicode="&#x13e;" horiz-adv-x="436" 
d="M65 0v730h175v-730h-175zM307 730h164l-66 -328h-122z" />
    <glyph glyph-name="uni013B" unicode="&#x13b;" horiz-adv-x="580" 
d="M80 0v700h185v-528h280v-172h-465zM219 -169q0 41 29.5 70t77.5 29t77.5 -29.5t29.5 -77.5q0 -23 -11.5 -55.5t-29.5 -65t-36 -55.5h-117q12 20 24 45t19 48q-26 10 -44.5 34t-18.5 57z" />
    <glyph glyph-name="uni013C" unicode="&#x13c;" horiz-adv-x="305" 
d="M65 0v730h175v-730h-175zM46 -169q0 41 29.5 70t77.5 29t77.5 -29.5t29.5 -77.5q0 -23 -11.5 -55.5t-29.5 -65t-36 -55.5h-117q12 20 24 45t19 48q-26 10 -44.5 34t-18.5 57z" />
    <glyph glyph-name="uni0141" unicode="&#x141;" horiz-adv-x="580" 
d="M80 0v182l-65 -30v174l65 30v344h185v-259l140 65v-174l-140 -65v-95h280v-172h-465z" />
    <glyph glyph-name="uni0142" unicode="&#x142;" horiz-adv-x="325" 
d="M65 0v175l-50 -23v174l50 23v381h175v-300l70 32v-174l-70 -32v-256h-175z" />
    <glyph glyph-name="uni013F" unicode="&#x13f;" horiz-adv-x="580" 
d="M80 0v700h185v-528h280v-172h-465zM354 351q0 43 29.5 73.5t77.5 30.5t77.5 -30.5t29.5 -73.5t-29.5 -73.5t-77.5 -30.5t-77.5 30.5t-29.5 73.5z" />
    <glyph glyph-name="uni0140" unicode="&#x140;" horiz-adv-x="449" 
d="M65 0v730h175v-730h-175zM270 291q0 43 29.5 73.5t77.5 30.5t77.5 -30.5t29.5 -73.5t-29.5 -73.5t-77.5 -30.5t-77.5 30.5t-29.5 73.5z" />
    <glyph glyph-name="uni0143" unicode="&#x143;" horiz-adv-x="755" 
d="M80 0v700h110l300 -343v343h185v-700h-110l-300 343v-343h-185zM317 770l76 145h168l-125 -145h-119z" />
    <glyph glyph-name="uni0144" unicode="&#x144;" horiz-adv-x="645" 
d="M65 0v530h175v-66q52 81 157 81q54 0 96.5 -26.5t67 -78.5t24.5 -129v-311h-175v275q0 54 -22 77.5t-56 23.5q-40 0 -66 -28.5t-26 -84.5v-263h-175zM278 610l66 170h158l-110 -170h-114z" />
    <glyph glyph-name="uni00D1" unicode="&#xd1;" horiz-adv-x="755" 
d="M80 0v700h110l300 -343v343h185v-700h-110l-300 343v-343h-185zM183 765q3 44 17 80t41.5 58t69.5 22q28 0 49 -9t38 -21.5t32.5 -21.5t31.5 -9t25 13t13 43h79q-2 -43 -16.5 -79.5t-41.5 -58.5t-70 -22q-28 0 -49.5 9t-38 21.5t-32 21.5t-31.5 9q-29 0 -38 -56h-79z" />
    <glyph glyph-name="uni00F1" unicode="&#xf1;" horiz-adv-x="645" 
d="M65 0v530h175v-66q52 81 157 81q54 0 96.5 -26.5t67 -78.5t24.5 -129v-311h-175v275q0 54 -22 77.5t-56 23.5q-40 0 -66 -28.5t-26 -84.5v-263h-175zM149 610q3 44 15.5 80t37.5 58t65 22q35 0 59.5 -15t42 -30.5t31.5 -15.5q16 0 24 13t12 43h79q-2 -43 -15 -79.5
t-38 -58.5t-65 -22q-35 0 -59.5 15.5t-42 30.5t-31.5 15q-29 0 -36 -56h-79z" />
    <glyph glyph-name="uni0147" unicode="&#x147;" horiz-adv-x="755" 
d="M80 0v700h110l300 -343v343h185v-700h-110l-300 343v-343h-185zM556 905l-115 -145h-130l-115 145h118l62 -54l62 54h118z" />
    <glyph glyph-name="uni0148" unicode="&#x148;" horiz-adv-x="645" 
d="M65 0v530h175v-66q52 81 157 81q54 0 96.5 -26.5t67 -78.5t24.5 -129v-311h-175v275q0 54 -22 77.5t-56 23.5q-40 0 -66 -28.5t-26 -84.5v-263h-175zM163 770h112l57 -65l57 65h112l-110 -170h-118z" />
    <glyph glyph-name="uni0145" unicode="&#x145;" horiz-adv-x="755" 
d="M80 0v700h110l300 -343v343h185v-700h-110l-300 343v-343h-185zM334 -169q0 41 29.5 70t77.5 29t77.5 -29.5t29.5 -77.5q0 -23 -11.5 -55.5t-29.5 -65t-36 -55.5h-117q12 20 24 45t19 48q-26 10 -44.5 34t-18.5 57z" />
    <glyph glyph-name="uni0146" unicode="&#x146;" horiz-adv-x="645" 
d="M65 0v530h175v-66q52 81 157 81q54 0 96.5 -26.5t67 -78.5t24.5 -129v-311h-175v275q0 54 -22 77.5t-56 23.5q-40 0 -66 -28.5t-26 -84.5v-263h-175zM220 -169q0 41 29.5 70t77.5 29t77.5 -29.5t29.5 -77.5q0 -23 -11.5 -55.5t-29.5 -65t-36 -55.5h-117q12 20 24 45
t19 48q-26 10 -44.5 34t-18.5 57z" />
    <glyph glyph-name="uni019D" unicode="&#x19d;" horiz-adv-x="755" 
d="M-34 -155l9 154q23 -6 44 -6q32 0 46.5 14.5t14.5 48.5v644h110l300 -343v343h185v-700h-110l-300 343v-304q0 -100 -52.5 -152t-152.5 -52q-54 0 -94 10z" />
    <glyph glyph-name="uni0272" unicode="&#x272;" horiz-adv-x="645" 
d="M-49 -155l9 154q23 -6 44 -6q32 0 46.5 14.5t14.5 48.5v474h175v-66q52 81 157 81q54 0 96.5 -26.5t67 -78.5t24.5 -129v-311h-175v275q0 54 -22 77.5t-56 23.5q-40 0 -66 -28.5t-26 -84.5v-224q0 -100 -47.5 -152t-147.5 -52q-54 0 -94 10z" />
    <glyph glyph-name="uni014A" unicode="&#x14a;" horiz-adv-x="755" 
d="M376 -155l9 154q23 -6 44 -6q32 0 46.5 14.5t14.5 48.5v30l-225 257v-343h-185v700h110l300 -343v343h185v-661q0 -100 -52.5 -152t-152.5 -52q-54 0 -94 10z" />
    <glyph glyph-name="uni014B" unicode="&#x14b;" horiz-adv-x="645" 
d="M296 -155l9 154q23 -6 44 -6q32 0 46.5 14.5t14.5 48.5v219q0 54 -22 77.5t-56 23.5q-40 0 -66 -28.5t-26 -84.5v-263h-175v530h175v-66q52 81 157 81q54 0 96.5 -26.5t67 -78.5t24.5 -129v-272q0 -100 -47.5 -152t-147.5 -52q-54 0 -94 10z" />
    <glyph glyph-name="uni0149" unicode="&#x149;" horiz-adv-x="945" 
d="M50 641q0 43 29.5 73.5t77.5 30.5t77.5 -31t29.5 -83q0 -33 -13.5 -74.5t-34 -82t-42.5 -72.5h-114q15 30 29.5 69t23.5 74q-26 11 -44.5 36.5t-18.5 59.5zM365 0v530h175v-66q52 81 157 81q54 0 96.5 -26.5t67 -78.5t24.5 -129v-311h-175v275q0 54 -22 77.5t-56 23.5
q-40 0 -66 -28.5t-26 -84.5v-263h-175z" />
    <glyph glyph-name="uni00D2" unicode="&#xd2;" horiz-adv-x="784" 
d="M40 350q0 108 45.5 190.5t125.5 128.5t181 46q102 0 181.5 -46t125 -128.5t45.5 -190.5t-45.5 -190.5t-125 -128.5t-181.5 -46q-101 0 -181 46t-125.5 128.5t-45.5 190.5zM235 350q0 -55 20 -97.5t55.5 -66.5t81.5 -24t81.5 24t55.5 66.5t20 97.5q0 56 -20 98t-55.5 66
t-81.5 24t-81.5 -24t-55.5 -66t-20 -98zM207 915h168l76 -145h-119z" />
    <glyph glyph-name="uni00F2" unicode="&#xf2;" horiz-adv-x="610" 
d="M30 265q0 80 34 143t96 100t145 37t145 -37t96 -100t34 -143q0 -79 -34.5 -142.5t-96 -100.5t-144.5 -37q-82 0 -144 37t-96.5 100.5t-34.5 142.5zM208 265q0 -55 27 -89t70 -34t70 34t27 89q0 56 -27 89.5t-70 33.5t-70 -33.5t-27 -89.5zM135 780h158l66 -170h-114z" />
    <glyph glyph-name="uni00D3" unicode="&#xd3;" horiz-adv-x="784" 
d="M40 350q0 108 45.5 190.5t125.5 128.5t181 46q102 0 181.5 -46t125 -128.5t45.5 -190.5t-45.5 -190.5t-125 -128.5t-181.5 -46q-101 0 -181 46t-125.5 128.5t-45.5 190.5zM235 350q0 -55 20 -97.5t55.5 -66.5t81.5 -24t81.5 24t55.5 66.5t20 97.5q0 56 -20 98t-55.5 66
t-81.5 24t-81.5 -24t-55.5 -66t-20 -98zM333 770l76 145h168l-125 -145h-119z" />
    <glyph glyph-name="uni00F3" unicode="&#xf3;" horiz-adv-x="610" 
d="M30 265q0 80 34 143t96 100t145 37t145 -37t96 -100t34 -143q0 -79 -34.5 -142.5t-96 -100.5t-144.5 -37q-82 0 -144 37t-96.5 100.5t-34.5 142.5zM208 265q0 -55 27 -89t70 -34t70 34t27 89q0 56 -27 89.5t-70 33.5t-70 -33.5t-27 -89.5zM251 610l66 170h158l-110 -170
h-114z" />
    <glyph glyph-name="uni00D4" unicode="&#xd4;" horiz-adv-x="784" 
d="M40 350q0 108 45.5 190.5t125.5 128.5t181 46q102 0 181.5 -46t125 -128.5t45.5 -190.5t-45.5 -190.5t-125 -128.5t-181.5 -46q-101 0 -181 46t-125.5 128.5t-45.5 190.5zM235 350q0 -55 20 -97.5t55.5 -66.5t81.5 -24t81.5 24t55.5 66.5t20 97.5q0 56 -20 98t-55.5 66
t-81.5 24t-81.5 -24t-55.5 -66t-20 -98zM212 770l115 145h130l115 -145h-118l-62 54l-62 -54h-118z" />
    <glyph glyph-name="uni00F4" unicode="&#xf4;" horiz-adv-x="610" 
d="M30 265q0 80 34 143t96 100t145 37t145 -37t96 -100t34 -143q0 -79 -34.5 -142.5t-96 -100.5t-144.5 -37q-82 0 -144 37t-96.5 100.5t-34.5 142.5zM208 265q0 -55 27 -89t70 -34t70 34t27 89q0 56 -27 89.5t-70 33.5t-70 -33.5t-27 -89.5zM136 610l110 170h118l110 -170
h-112l-57 65l-57 -65h-112z" />
    <glyph glyph-name="uni00D5" unicode="&#xd5;" horiz-adv-x="784" 
d="M40 350q0 108 45.5 190.5t125.5 128.5t181 46q102 0 181.5 -46t125 -128.5t45.5 -190.5t-45.5 -190.5t-125 -128.5t-181.5 -46q-101 0 -181 46t-125.5 128.5t-45.5 190.5zM235 350q0 -55 20 -97.5t55.5 -66.5t81.5 -24t81.5 24t55.5 66.5t20 97.5q0 56 -20 98t-55.5 66
t-81.5 24t-81.5 -24t-55.5 -66t-20 -98zM194 765q3 44 17 80t41.5 58t69.5 22q28 0 49 -9t38 -21.5t32.5 -21.5t31.5 -9t25 13t13 43h79q-2 -43 -16.5 -79.5t-41.5 -58.5t-70 -22q-28 0 -49.5 9t-38 21.5t-32 21.5t-31.5 9q-29 0 -38 -56h-79z" />
    <glyph glyph-name="uni00F5" unicode="&#xf5;" horiz-adv-x="610" 
d="M30 265q0 80 34 143t96 100t145 37t145 -37t96 -100t34 -143q0 -79 -34.5 -142.5t-96 -100.5t-144.5 -37q-82 0 -144 37t-96.5 100.5t-34.5 142.5zM208 265q0 -55 27 -89t70 -34t70 34t27 89q0 56 -27 89.5t-70 33.5t-70 -33.5t-27 -89.5zM122 610q3 44 15.5 80t37.5 58
t65 22q35 0 59.5 -15t42 -30.5t31.5 -15.5q16 0 24 13t12 43h79q-2 -43 -15 -79.5t-38 -58.5t-65 -22q-35 0 -59.5 15.5t-42 30.5t-31.5 15q-29 0 -36 -56h-79z" />
    <glyph glyph-name="uni00D6" unicode="&#xd6;" horiz-adv-x="784" 
d="M40 350q0 108 45.5 190.5t125.5 128.5t181 46q102 0 181.5 -46t125 -128.5t45.5 -190.5t-45.5 -190.5t-125 -128.5t-181.5 -46q-101 0 -181 46t-125.5 128.5t-45.5 190.5zM235 350q0 -55 20 -97.5t55.5 -66.5t81.5 -24t81.5 24t55.5 66.5t20 97.5q0 56 -20 98t-55.5 66
t-81.5 24t-81.5 -24t-55.5 -66t-20 -98zM196 850q0 32 22 54t55 22t55 -22t22 -54q0 -31 -22 -53.5t-55 -22.5t-55 22.5t-22 53.5zM434 850q0 32 22 54t55 22t55 -22t22 -54q0 -31 -22 -53.5t-55 -22.5t-55 22.5t-22 53.5z" />
    <glyph glyph-name="uni00F6" unicode="&#xf6;" horiz-adv-x="610" 
d="M30 265q0 80 34 143t96 100t145 37t145 -37t96 -100t34 -143q0 -79 -34.5 -142.5t-96 -100.5t-144.5 -37q-82 0 -144 37t-96.5 100.5t-34.5 142.5zM208 265q0 -55 27 -89t70 -34t70 34t27 89q0 56 -27 89.5t-70 33.5t-70 -33.5t-27 -89.5zM119 685q0 32 22 54t55 22
t55 -22t22 -54q0 -31 -22 -53.5t-55 -22.5t-55 22.5t-22 53.5zM337 685q0 32 22 54t55 22t55 -22t22 -54q0 -31 -22 -53.5t-55 -22.5t-55 22.5t-22 53.5z" />
    <glyph glyph-name="uni014C" unicode="&#x14c;" horiz-adv-x="784" 
d="M40 350q0 108 45.5 190.5t125.5 128.5t181 46q102 0 181.5 -46t125 -128.5t45.5 -190.5t-45.5 -190.5t-125 -128.5t-181.5 -46q-101 0 -181 46t-125.5 128.5t-45.5 190.5zM235 350q0 -55 20 -97.5t55.5 -66.5t81.5 -24t81.5 24t55.5 66.5t20 97.5q0 56 -20 98t-55.5 66
t-81.5 24t-81.5 -24t-55.5 -66t-20 -98zM213 788v125h358v-125h-358z" />
    <glyph glyph-name="uni014D" unicode="&#x14d;" horiz-adv-x="610" 
d="M30 265q0 80 34 143t96 100t145 37t145 -37t96 -100t34 -143q0 -79 -34.5 -142.5t-96 -100.5t-144.5 -37q-82 0 -144 37t-96.5 100.5t-34.5 142.5zM208 265q0 -55 27 -89t70 -34t70 34t27 89q0 56 -27 89.5t-70 33.5t-70 -33.5t-27 -89.5zM136 648v125h338v-125h-338z
" />
    <glyph glyph-name="uni014E" unicode="&#x14e;" horiz-adv-x="784" 
d="M40 350q0 108 45.5 190.5t125.5 128.5t181 46q102 0 181.5 -46t125 -128.5t45.5 -190.5t-45.5 -190.5t-125 -128.5t-181.5 -46q-101 0 -181 46t-125.5 128.5t-45.5 190.5zM235 350q0 -55 20 -97.5t55.5 -66.5t81.5 -24t81.5 24t55.5 66.5t20 97.5q0 56 -20 98t-55.5 66
t-81.5 24t-81.5 -24t-55.5 -66t-20 -98zM218 905h112q2 -18 16.5 -28t45.5 -10q30 0 44.5 10t17.5 28h112q-11 -145 -174 -145t-174 145z" />
    <glyph glyph-name="uni014F" unicode="&#x14f;" horiz-adv-x="610" 
d="M30 265q0 80 34 143t96 100t145 37t145 -37t96 -100t34 -143q0 -79 -34.5 -142.5t-96 -100.5t-144.5 -37q-82 0 -144 37t-96.5 100.5t-34.5 142.5zM208 265q0 -55 27 -89t70 -34t70 34t27 89q0 56 -27 89.5t-70 33.5t-70 -33.5t-27 -89.5zM141 770h112q4 -30 16 -45.5
t36 -15.5t36 15.5t16 45.5h112q-6 -83 -46.5 -126.5t-117.5 -43.5q-76 0 -117 43.5t-47 126.5z" />
    <glyph glyph-name="uni0150" unicode="&#x150;" horiz-adv-x="784" 
d="M40 350q0 108 45.5 190.5t125.5 128.5t181 46q102 0 181.5 -46t125 -128.5t45.5 -190.5t-45.5 -190.5t-125 -128.5t-181.5 -46q-101 0 -181 46t-125.5 128.5t-45.5 190.5zM235 350q0 -55 20 -97.5t55.5 -66.5t81.5 -24t81.5 24t55.5 66.5t20 97.5q0 56 -20 98t-55.5 66
t-81.5 24t-81.5 -24t-55.5 -66t-20 -98zM258 770l66 145h148l-105 -145h-109zM428 770l66 145h148l-105 -145h-109z" />
    <glyph glyph-name="uni0151" unicode="&#x151;" horiz-adv-x="610" 
d="M30 265q0 80 34 143t96 100t145 37t145 -37t96 -100t34 -143q0 -79 -34.5 -142.5t-96 -100.5t-144.5 -37q-82 0 -144 37t-96.5 100.5t-34.5 142.5zM208 265q0 -55 27 -89t70 -34t70 34t27 89q0 56 -27 89.5t-70 33.5t-70 -33.5t-27 -89.5zM179 610l46 170h138l-80 -170
h-104zM339 610l46 170h138l-80 -170h-104z" />
    <glyph glyph-name="uni1ECC" unicode="&#x1ecc;" horiz-adv-x="784" 
d="M40 350q0 108 45.5 190.5t125.5 128.5t181 46q102 0 181.5 -46t125 -128.5t45.5 -190.5t-45.5 -190.5t-125 -128.5t-181.5 -46q-101 0 -181 46t-125.5 128.5t-45.5 190.5zM235 350q0 -55 20 -97.5t55.5 -66.5t81.5 -24t81.5 24t55.5 66.5t20 97.5q0 56 -20 98t-55.5 66
t-81.5 24t-81.5 -24t-55.5 -66t-20 -98zM285 -174q0 43 29.5 73.5t77.5 30.5t77.5 -30.5t29.5 -73.5t-29.5 -73.5t-77.5 -30.5t-77.5 30.5t-29.5 73.5z" />
    <glyph glyph-name="uni1ECD" unicode="&#x1ecd;" horiz-adv-x="610" 
d="M30 265q0 80 34 143t96 100t145 37t145 -37t96 -100t34 -143q0 -79 -34.5 -142.5t-96 -100.5t-144.5 -37q-82 0 -144 37t-96.5 100.5t-34.5 142.5zM208 265q0 -55 27 -89t70 -34t70 34t27 89q0 56 -27 89.5t-70 33.5t-70 -33.5t-27 -89.5zM198 -174q0 43 29.5 73.5
t77.5 30.5t77.5 -30.5t29.5 -73.5t-29.5 -73.5t-77.5 -30.5t-77.5 30.5t-29.5 73.5z" />
    <glyph glyph-name="uni01EA" unicode="&#x1ea;" horiz-adv-x="784" 
d="M534 12q-55 -22 -85 -43t-41.5 -39t-11.5 -31q0 -30 34 -30q27 0 67 24l21 -96q-25 -14 -55.5 -24t-64.5 -10q-55 0 -90 30t-35 76q0 67 62 120q-87 13 -153.5 61.5t-104 125.5t-37.5 174q0 108 45.5 190.5t125.5 128.5t181 46q102 0 181.5 -46t125 -128.5t45.5 -190.5
q0 -121 -57.5 -210.5t-152.5 -127.5zM235 350q0 -55 20 -97.5t55.5 -66.5t81.5 -24t81.5 24t55.5 66.5t20 97.5q0 56 -20 98t-55.5 66t-81.5 24t-81.5 -24t-55.5 -66t-20 -98z" />
    <glyph glyph-name="uni01EB" unicode="&#x1eb;" horiz-adv-x="610" 
d="M441 18q-56 -30 -85.5 -52t-39.5 -38t-10 -29q0 -30 34 -30q27 0 67 24l21 -96q-25 -14 -55.5 -24t-64.5 -10q-55 0 -90 30t-35 76q0 68 64 121q-66 13 -114.5 51.5t-75.5 96.5t-27 127q0 80 34 143t96 100t145 37t145 -37t96 -100t34 -143q0 -82 -36.5 -147t-102.5 -100
zM208 265q0 -55 27 -89t70 -34t70 34t27 89q0 56 -27 89.5t-70 33.5t-70 -33.5t-27 -89.5z" />
    <glyph glyph-name="uni00D8" unicode="&#xd8;" horiz-adv-x="784" 
d="M25 0l93 112q-37 47 -57.5 107t-20.5 131q0 108 45.5 190.5t125.5 128.5t181 46q53 0 99.5 -13t86.5 -36l29 34h152l-93 -112q37 -46 57.5 -106.5t20.5 -131.5q0 -108 -45.5 -190.5t-125 -128.5t-181.5 -46q-52 0 -99 13t-87 36l-29 -34h-152zM235 350q0 -22 3.5 -42.5
t9.5 -38.5l211 253q-15 8 -31.5 12t-35.5 4q-46 0 -81.5 -24t-55.5 -66t-20 -98zM549 350q0 23 -3.5 43t-9.5 38l-211 -253q15 -7 31.5 -11.5t35.5 -4.5q46 0 81.5 24t55.5 66.5t20 97.5z" />
    <glyph glyph-name="uni00F8" unicode="&#xf8;" horiz-adv-x="610" 
d="M5 0l79 91q-54 73 -54 174q0 80 34 143t96 100t145 37q40 0 75.5 -9t65.5 -26l17 20h142l-79 -91q54 -73 54 -174q0 -79 -34.5 -142.5t-96 -100.5t-144.5 -37q-40 0 -75.5 9.5t-65.5 25.5l-17 -20h-142zM208 265q0 -7 0.5 -14t1.5 -14l126 146q-17 5 -31 5
q-43 0 -70 -33.5t-27 -89.5zM402 265q0 8 -0.5 14.5t-1.5 13.5l-126 -146q17 -5 31 -5q43 0 70 34t27 89z" />
    <glyph glyph-name="uni01FE" unicode="&#x1fe;" horiz-adv-x="784" 
d="M25 0l93 112q-37 47 -57.5 107t-20.5 131q0 108 45.5 190.5t125.5 128.5t181 46q53 0 99.5 -13t86.5 -36l29 34h152l-93 -112q37 -46 57.5 -106.5t20.5 -131.5q0 -108 -45.5 -190.5t-125 -128.5t-181.5 -46q-52 0 -99 13t-87 36l-29 -34h-152zM235 350q0 -22 3.5 -42.5
t9.5 -38.5l211 253q-15 8 -31.5 12t-35.5 4q-46 0 -81.5 -24t-55.5 -66t-20 -98zM549 350q0 23 -3.5 43t-9.5 38l-211 -253q15 -7 31.5 -11.5t35.5 -4.5q46 0 81.5 24t55.5 66.5t20 97.5zM333 770l76 145h168l-125 -145h-119z" />
    <glyph glyph-name="uni01FF" unicode="&#x1ff;" horiz-adv-x="610" 
d="M5 0l79 91q-54 73 -54 174q0 80 34 143t96 100t145 37q40 0 75.5 -9t65.5 -26l17 20h142l-79 -91q54 -73 54 -174q0 -79 -34.5 -142.5t-96 -100.5t-144.5 -37q-40 0 -75.5 9.5t-65.5 25.5l-17 -20h-142zM208 265q0 -7 0.5 -14t1.5 -14l126 146q-17 5 -31 5
q-43 0 -70 -33.5t-27 -89.5zM402 265q0 8 -0.5 14.5t-1.5 13.5l-126 -146q17 -5 31 -5q43 0 70 34t27 89zM251 610l66 170h158l-110 -170h-114z" />
    <glyph glyph-name="uni0152" unicode="&#x152;" horiz-adv-x="980" 
d="M40 350q0 104 47.5 182.5t130.5 123t189 44.5h518v-172h-290v-96h244v-158h-244v-102h295v-172h-523q-106 0 -189 44.5t-130.5 123.5t-47.5 182zM417 172h33v356h-33q-53 0 -94.5 -22.5t-64.5 -62.5t-23 -93q0 -52 23 -92.5t64.5 -63t94.5 -22.5z" />
    <glyph glyph-name="uni0153" unicode="&#x153;" horiz-adv-x="923" 
d="M30 265q0 80 32 143t88.5 100t129.5 37q61 0 113 -26t84 -83q30 57 79.5 83t107.5 26q66 0 116 -35t78.5 -93.5t28.5 -131.5q0 -15 -1.5 -34.5t-4.5 -33.5h-312q11 -37 40 -59t74 -22q38 0 71.5 7t64.5 19l51 -133q-48 -22 -93 -33t-86 -11q-65 0 -121 28t-90 86
q-32 -59 -85 -86.5t-115 -27.5q-73 0 -129.5 37t-88.5 100.5t-32 142.5zM641 405q-62 0 -76 -92h151q-4 42 -23.5 67t-51.5 25zM208 265q0 -55 26 -89t66 -34q38 0 62.5 34t24.5 89q0 56 -24.5 89.5t-62.5 33.5q-40 0 -66 -33.5t-26 -89.5z" />
    <glyph glyph-name="uni0154" unicode="&#x154;" horiz-adv-x="684" 
d="M80 0v700h292q86 0 144 -30.5t88 -84.5t30 -125q0 -72 -34 -126.5t-99 -80.5l158 -253h-217l-123 230h-54v-230h-185zM357 528h-92v-136h92q40 0 61 18.5t21 49.5q0 32 -21 50t-61 18zM280 770l76 145h168l-125 -145h-119z" />
    <glyph glyph-name="uni0155" unicode="&#x155;" horiz-adv-x="412" 
d="M65 0v530h175v-101q23 61 62.5 88.5t94.5 27.5v-197q-84 0 -120.5 -36t-36.5 -119v-193h-175zM169 610l66 170h158l-110 -170h-114z" />
    <glyph glyph-name="uni0158" unicode="&#x158;" horiz-adv-x="684" 
d="M80 0v700h292q86 0 144 -30.5t88 -84.5t30 -125q0 -72 -34 -126.5t-99 -80.5l158 -253h-217l-123 230h-54v-230h-185zM357 528h-92v-136h92q40 0 61 18.5t21 49.5q0 32 -21 50t-61 18zM519 905l-115 -145h-130l-115 145h118l62 -54l62 54h118z" />
    <glyph glyph-name="uni0159" unicode="&#x159;" horiz-adv-x="412" 
d="M65 0v530h175v-101q23 61 62.5 88.5t94.5 27.5v-197q-84 0 -120.5 -36t-36.5 -119v-193h-175zM54 770h112l57 -65l57 65h112l-110 -170h-118z" />
    <glyph glyph-name="uni0156" unicode="&#x156;" horiz-adv-x="684" 
d="M80 0v700h292q86 0 144 -30.5t88 -84.5t30 -125q0 -72 -34 -126.5t-99 -80.5l158 -253h-217l-123 230h-54v-230h-185zM357 528h-92v-136h92q40 0 61 18.5t21 49.5q0 32 -21 50t-61 18zM244 -169q0 41 29.5 70t77.5 29t77.5 -29.5t29.5 -77.5q0 -23 -11.5 -55.5t-29.5 -65
t-36 -55.5h-117q12 20 24 45t19 48q-26 10 -44.5 34t-18.5 57z" />
    <glyph glyph-name="uni0157" unicode="&#x157;" horiz-adv-x="412" 
d="M65 0v530h175v-101q23 61 62.5 88.5t94.5 27.5v-197q-84 0 -120.5 -36t-36.5 -119v-193h-175zM46 -169q0 41 29.5 70t77.5 29t77.5 -29.5t29.5 -77.5q0 -23 -11.5 -55.5t-29.5 -65t-36 -55.5h-117q12 20 24 45t19 48q-26 10 -44.5 34t-18.5 57z" />
    <glyph glyph-name="uni015A" unicode="&#x15a;" horiz-adv-x="614" 
d="M15 81l82 154q40 -34 97 -58t118 -24q42 0 60 12.5t18 31.5q0 20 -20.5 36.5t-82.5 32.5q-88 24 -140 58t-74.5 77.5t-22.5 95.5q0 57 32 106.5t92 80.5t144 31q68 0 126.5 -17t111.5 -47l-73 -153q-33 22 -79.5 35t-90.5 13q-45 0 -62 -12t-17 -29q0 -10 9 -20.5
t34 -21.5t72 -24q131 -35 185.5 -91.5t54.5 -139.5q0 -63 -33 -113.5t-96.5 -80t-155.5 -29.5q-75 0 -152 25.5t-137 70.5zM256 770l76 145h168l-125 -145h-119z" />
    <glyph glyph-name="uni015B" unicode="&#x15b;" horiz-adv-x="511" 
d="M26 50l54 141q37 -25 86 -43.5t86 -18.5q28 0 38.5 7t10.5 16t-12 19t-56 24q-96 32 -140.5 75t-44.5 100q0 47 27.5 87t76 64t110.5 24q50 0 102.5 -13.5t96.5 -36.5l-47 -133q-37 20 -79 32t-68 12q-24 0 -34 -7t-10 -15q0 -10 12.5 -19.5t46.5 -19.5
q113 -34 157.5 -78t44.5 -106q0 -49 -27.5 -88.5t-80 -63.5t-128.5 -24q-38 0 -79.5 9t-78.5 23.5t-64 32.5zM213 610l66 170h158l-110 -170h-114z" />
    <glyph glyph-name="uni015C" unicode="&#x15c;" horiz-adv-x="614" 
d="M15 81l82 154q40 -34 97 -58t118 -24q42 0 60 12.5t18 31.5q0 20 -20.5 36.5t-82.5 32.5q-88 24 -140 58t-74.5 77.5t-22.5 95.5q0 57 32 106.5t92 80.5t144 31q68 0 126.5 -17t111.5 -47l-73 -153q-33 22 -79.5 35t-90.5 13q-45 0 -62 -12t-17 -29q0 -10 9 -20.5
t34 -21.5t72 -24q131 -35 185.5 -91.5t54.5 -139.5q0 -63 -33 -113.5t-96.5 -80t-155.5 -29.5q-75 0 -152 25.5t-137 70.5zM135 770l115 145h130l115 -145h-118l-62 54l-62 -54h-118z" />
    <glyph glyph-name="uni015D" unicode="&#x15d;" horiz-adv-x="511" 
d="M26 50l54 141q37 -25 86 -43.5t86 -18.5q28 0 38.5 7t10.5 16t-12 19t-56 24q-96 32 -140.5 75t-44.5 100q0 47 27.5 87t76 64t110.5 24q50 0 102.5 -13.5t96.5 -36.5l-47 -133q-37 20 -79 32t-68 12q-24 0 -34 -7t-10 -15q0 -10 12.5 -19.5t46.5 -19.5
q113 -34 157.5 -78t44.5 -106q0 -49 -27.5 -88.5t-80 -63.5t-128.5 -24q-38 0 -79.5 9t-78.5 23.5t-64 32.5zM98 610l110 170h118l110 -170h-112l-57 65l-57 -65h-112z" />
    <glyph glyph-name="uni0160" unicode="&#x160;" horiz-adv-x="614" 
d="M15 81l82 154q40 -34 97 -58t118 -24q42 0 60 12.5t18 31.5q0 20 -20.5 36.5t-82.5 32.5q-88 24 -140 58t-74.5 77.5t-22.5 95.5q0 57 32 106.5t92 80.5t144 31q68 0 126.5 -17t111.5 -47l-73 -153q-33 22 -79.5 35t-90.5 13q-45 0 -62 -12t-17 -29q0 -10 9 -20.5
t34 -21.5t72 -24q131 -35 185.5 -91.5t54.5 -139.5q0 -63 -33 -113.5t-96.5 -80t-155.5 -29.5q-75 0 -152 25.5t-137 70.5zM495 905l-115 -145h-130l-115 145h118l62 -54l62 54h118z" />
    <glyph glyph-name="uni0161" unicode="&#x161;" horiz-adv-x="511" 
d="M26 50l54 141q37 -25 86 -43.5t86 -18.5q28 0 38.5 7t10.5 16t-12 19t-56 24q-96 32 -140.5 75t-44.5 100q0 47 27.5 87t76 64t110.5 24q50 0 102.5 -13.5t96.5 -36.5l-47 -133q-37 20 -79 32t-68 12q-24 0 -34 -7t-10 -15q0 -10 12.5 -19.5t46.5 -19.5
q113 -34 157.5 -78t44.5 -106q0 -49 -27.5 -88.5t-80 -63.5t-128.5 -24q-38 0 -79.5 9t-78.5 23.5t-64 32.5zM98 770h112l57 -65l57 65h112l-110 -170h-118z" />
    <glyph glyph-name="uni015E" unicode="&#x15e;" horiz-adv-x="614" 
d="M15 81l82 154q40 -34 97 -58t118 -24q42 0 60 12.5t18 31.5q0 20 -20.5 36.5t-82.5 32.5q-88 24 -140 58t-74.5 77.5t-22.5 95.5q0 57 32 106.5t92 80.5t144 31q68 0 126.5 -17t111.5 -47l-73 -153q-33 22 -79.5 35t-90.5 13q-45 0 -62 -12t-17 -29q0 -10 9 -20.5
t34 -21.5t72 -24q131 -35 185.5 -91.5t54.5 -139.5q0 -85 -60 -146t-173 -74l-5 -24q35 -4 54.5 -23t19.5 -42q0 -27 -29 -45.5t-87 -18.5q-23 0 -45 3.5t-39 8.5l20 59q11 -4 21.5 -5.5t19.5 -1.5q23 0 23 12q0 6 -9.5 12t-41.5 10l17 53q-68 5 -137 30t-123 65z" />
    <glyph glyph-name="uni015F" unicode="&#x15f;" horiz-adv-x="511" 
d="M26 50l54 141q37 -25 86 -43.5t86 -18.5q28 0 38.5 7t10.5 16t-12 19t-56 24q-96 32 -140.5 75t-44.5 100q0 47 27.5 87t76 64t110.5 24q50 0 102.5 -13.5t96.5 -36.5l-47 -133q-37 20 -79 32t-68 12q-24 0 -34 -7t-10 -15q0 -10 12.5 -19.5t46.5 -19.5
q113 -34 157.5 -78t44.5 -106q0 -64 -47.5 -112.5t-137.5 -60.5l-5 -24q35 -4 54.5 -23t19.5 -42q0 -27 -29 -45.5t-87 -18.5q-23 0 -45 3.5t-39 8.5l20 59q11 -4 21.5 -5.5t19.5 -1.5q23 0 23 12q0 6 -9.5 12t-41.5 10l18 53q-52 5 -105 23t-88 41z" />
    <glyph glyph-name="uni0218" unicode="&#x218;" horiz-adv-x="614" 
d="M15 81l82 154q40 -34 97 -58t118 -24q42 0 60 12.5t18 31.5q0 20 -20.5 36.5t-82.5 32.5q-88 24 -140 58t-74.5 77.5t-22.5 95.5q0 57 32 106.5t92 80.5t144 31q68 0 126.5 -17t111.5 -47l-73 -153q-33 22 -79.5 35t-90.5 13q-45 0 -62 -12t-17 -29q0 -10 9 -20.5
t34 -21.5t72 -24q131 -35 185.5 -91.5t54.5 -139.5q0 -63 -33 -113.5t-96.5 -80t-155.5 -29.5q-75 0 -152 25.5t-137 70.5zM211 -169q0 41 29.5 70t77.5 29t77.5 -29.5t29.5 -77.5q0 -23 -11.5 -55.5t-29.5 -65t-36 -55.5h-117q12 20 24 45t19 48q-26 10 -44.5 34t-18.5 57z
" />
    <glyph glyph-name="uni0219" unicode="&#x219;" horiz-adv-x="511" 
d="M26 50l54 141q37 -25 86 -43.5t86 -18.5q28 0 38.5 7t10.5 16t-12 19t-56 24q-96 32 -140.5 75t-44.5 100q0 47 27.5 87t76 64t110.5 24q50 0 102.5 -13.5t96.5 -36.5l-47 -133q-37 20 -79 32t-68 12q-24 0 -34 -7t-10 -15q0 -10 12.5 -19.5t46.5 -19.5
q113 -34 157.5 -78t44.5 -106q0 -49 -27.5 -88.5t-80 -63.5t-128.5 -24q-38 0 -79.5 9t-78.5 23.5t-64 32.5zM154 -169q0 41 29.5 70t77.5 29t77.5 -29.5t29.5 -77.5q0 -23 -11.5 -55.5t-29.5 -65t-36 -55.5h-117q12 20 24 45t19 48q-26 10 -44.5 34t-18.5 57z" />
    <glyph glyph-name="uni1E9E" unicode="&#x1e9e;" horiz-adv-x="1228" 
d="M15 81l82 154q40 -34 97 -58t118 -24q42 0 60 12.5t18 31.5q0 20 -20.5 36.5t-82.5 32.5q-88 24 -140 58t-74.5 77.5t-22.5 95.5q0 57 32 106.5t92 80.5t144 31q68 0 126.5 -17t111.5 -47l-73 -153q-33 22 -79.5 35t-90.5 13q-45 0 -62 -12t-17 -29q0 -10 9 -20.5
t34 -21.5t72 -24q131 -35 185.5 -91.5t54.5 -139.5q0 -63 -33 -113.5t-96.5 -80t-155.5 -29.5q-75 0 -152 25.5t-137 70.5zM629 81l82 154q40 -34 97 -58t118 -24q42 0 60 12.5t18 31.5q0 20 -20.5 36.5t-82.5 32.5q-88 24 -140 58t-74.5 77.5t-22.5 95.5q0 57 32 106.5
t92 80.5t144 31q68 0 126.5 -17t111.5 -47l-73 -153q-33 22 -79.5 35t-90.5 13q-45 0 -62 -12t-17 -29q0 -10 9 -20.5t34 -21.5t72 -24q131 -35 185.5 -91.5t54.5 -139.5q0 -63 -33 -113.5t-96.5 -80t-155.5 -29.5q-75 0 -152 25.5t-137 70.5z" />
    <glyph glyph-name="uni00DF" unicode="&#xdf;" horiz-adv-x="646" 
d="M65 0v466q0 92 33.5 154t93.5 93.5t140 31.5q65 0 118.5 -25.5t85.5 -70t32 -101.5q0 -39 -11 -63.5t-27 -40.5t-32.5 -27t-27.5 -22t-11 -26q0 -13 10 -23t39 -24q65 -31 91.5 -70t26.5 -100q0 -72 -50.5 -119.5t-147.5 -47.5q-48 0 -91 12t-69 25l41 138
q23 -13 54.5 -22t55.5 -9q22 0 31 6t9 17t-9.5 20.5t-49.5 25.5q-55 22 -81 63t-26 76q0 43 16 70t36.5 46.5t36.5 38.5t16 47q0 26 -17.5 42t-49.5 16q-42 0 -66.5 -33.5t-24.5 -107.5v-456h-175z" />
    <glyph glyph-name="uni0164" unicode="&#x164;" horiz-adv-x="601" 
d="M208 0v528h-178v172h541v-172h-178v-528h-185zM480 905l-115 -145h-130l-115 145h118l62 -54l62 54h118z" />
    <glyph glyph-name="uni0165" unicode="&#x165;" horiz-adv-x="537" 
d="M408 730h164l-66 -328h-122zM75 189v191h-65v150h65v112h175v-112h105v-150h-105v-170q0 -34 17 -50.5t54 -16.5q25 0 54 7l9 -154q-20 -5 -47.5 -8t-56.5 -3q-105 0 -155 52t-50 152z" />
    <glyph glyph-name="uni0162" unicode="&#x162;" horiz-adv-x="601" 
d="M208 0v528h-178v172h541v-172h-178v-528h-52l-8 -36q35 -4 54.5 -23t19.5 -42q0 -27 -29 -45.5t-87 -18.5q-23 0 -45 3.5t-39 8.5l20 59q11 -4 21.5 -5.5t19.5 -1.5q23 0 23 12q0 6 -9.5 12t-41.5 10l22 67h-54z" />
    <glyph glyph-name="uni0163" unicode="&#x163;" horiz-adv-x="389" 
d="M127 -153l20 59q11 -4 21.5 -5.5t19.5 -1.5q23 0 23 12q0 6 -9.5 12t-41.5 10l22 67q-107 41 -107 189v191h-65v150h65v112h175v-112h125v-150h-125v-170q0 -34 17 -50.5t54 -16.5q25 0 54 7l9 -154q-20 -5 -47.5 -8t-56.5 -3h-11.5t-10.5 1l-5 -22q35 -4 54.5 -23
t19.5 -42q0 -27 -29 -45.5t-87 -18.5q-23 0 -45 3.5t-39 8.5z" />
    <glyph glyph-name="uni021A" unicode="&#x21a;" horiz-adv-x="601" 
d="M208 0v528h-178v172h541v-172h-178v-528h-185zM193 -169q0 41 29.5 70t77.5 29t77.5 -29.5t29.5 -77.5q0 -23 -11.5 -55.5t-29.5 -65t-36 -55.5h-117q12 20 24 45t19 48q-26 10 -44.5 34t-18.5 57z" />
    <glyph glyph-name="uni021B" unicode="&#x21b;" horiz-adv-x="389" 
d="M75 189v191h-65v150h65v112h175v-112h125v-150h-125v-170q0 -34 17 -50.5t54 -16.5q25 0 54 7l9 -154q-20 -5 -47.5 -8t-56.5 -3q-105 0 -155 52t-50 152zM113 -169q0 41 29.5 70t77.5 29t77.5 -29.5t29.5 -77.5q0 -23 -11.5 -55.5t-29.5 -65t-36 -55.5h-117q12 20 24 45
t19 48q-26 10 -44.5 34t-18.5 57z" />
    <glyph glyph-name="uni0166" unicode="&#x166;" horiz-adv-x="601" 
d="M208 0v246h-100v126h100v156h-178v172h541v-172h-178v-156h100v-126h-100v-246h-185z" />
    <glyph glyph-name="uni0167" unicode="&#x167;" horiz-adv-x="389" 
d="M75 189v19h-65v121h65v61h-65v140h65v112h175v-112h125v-140h-125v-61h125v-121h-125q1 -33 17.5 -49t53.5 -16q25 0 54 7l9 -154q-20 -5 -47.5 -8t-56.5 -3q-105 0 -155 52t-50 152z" />
    <glyph glyph-name="uni00DE" unicode="&#xde;" horiz-adv-x="674" 
d="M80 0v700h185v-100h102q89 0 149.5 -31.5t91.5 -88t31 -130.5t-31 -130.5t-91.5 -88t-149.5 -31.5h-102v-100h-185zM352 428h-87v-156h87q44 0 68 20.5t24 57.5t-24 57.5t-68 20.5z" />
    <glyph glyph-name="uni00FE" unicode="&#xfe;" horiz-adv-x="627" 
d="M65 -150v880h175v-240q28 26 62.5 40.5t74.5 14.5q68 0 117 -37t76 -100t27 -143q0 -79 -26.5 -142.5t-76 -100.5t-117.5 -37q-40 0 -74.5 14.5t-62.5 39.5v-189h-175zM225 265q0 -56 27 -89.5t70 -33.5t70 33.5t27 89.5t-27 89.5t-70 33.5t-70 -33.5t-27 -89.5z" />
    <glyph glyph-name="uni00D9" unicode="&#xd9;" horiz-adv-x="740" 
d="M75 265v435h185v-405q0 -67 29.5 -100t82.5 -33t82.5 33t29.5 100v405h181v-435q0 -83 -34 -146t-99.5 -98.5t-161.5 -35.5q-95 0 -161 35.5t-100 98.5t-34 146zM187 915h168l76 -145h-119z" />
    <glyph glyph-name="uni00F9" unicode="&#xf9;" horiz-adv-x="645" 
d="M60 219v311h175v-275q0 -54 22 -77.5t56 -23.5q41 0 66.5 28.5t25.5 84.5v263h175v-530h-175v66q-52 -81 -157 -81q-53 0 -96 26.5t-67.5 78.5t-24.5 129zM151 780h158l66 -170h-114z" />
    <glyph glyph-name="uni00DA" unicode="&#xda;" horiz-adv-x="740" 
d="M75 265v435h185v-405q0 -67 29.5 -100t82.5 -33t82.5 33t29.5 100v405h181v-435q0 -83 -34 -146t-99.5 -98.5t-161.5 -35.5q-95 0 -161 35.5t-100 98.5t-34 146zM313 770l76 145h168l-125 -145h-119z" />
    <glyph glyph-name="uni00FA" unicode="&#xfa;" horiz-adv-x="645" 
d="M60 219v311h175v-275q0 -54 22 -77.5t56 -23.5q41 0 66.5 28.5t25.5 84.5v263h175v-530h-175v66q-52 -81 -157 -81q-53 0 -96 26.5t-67.5 78.5t-24.5 129zM267 610l66 170h158l-110 -170h-114z" />
    <glyph glyph-name="uni00DB" unicode="&#xdb;" horiz-adv-x="740" 
d="M75 265v435h185v-405q0 -67 29.5 -100t82.5 -33t82.5 33t29.5 100v405h181v-435q0 -83 -34 -146t-99.5 -98.5t-161.5 -35.5q-95 0 -161 35.5t-100 98.5t-34 146zM192 770l115 145h130l115 -145h-118l-62 54l-62 -54h-118z" />
    <glyph glyph-name="uni00FB" unicode="&#xfb;" horiz-adv-x="645" 
d="M60 219v311h175v-275q0 -54 22 -77.5t56 -23.5q41 0 66.5 28.5t25.5 84.5v263h175v-530h-175v66q-52 -81 -157 -81q-53 0 -96 26.5t-67.5 78.5t-24.5 129zM152 610l110 170h118l110 -170h-112l-57 65l-57 -65h-112z" />
    <glyph glyph-name="uni0168" unicode="&#x168;" horiz-adv-x="740" 
d="M75 265v435h185v-405q0 -67 29.5 -100t82.5 -33t82.5 33t29.5 100v405h181v-435q0 -83 -34 -146t-99.5 -98.5t-161.5 -35.5q-95 0 -161 35.5t-100 98.5t-34 146zM174 765q3 44 17 80t41.5 58t69.5 22q28 0 49 -9t38 -21.5t32.5 -21.5t31.5 -9t25 13t13 43h79
q-2 -43 -16.5 -79.5t-41.5 -58.5t-70 -22q-28 0 -49.5 9t-38 21.5t-32 21.5t-31.5 9q-29 0 -38 -56h-79z" />
    <glyph glyph-name="uni0169" unicode="&#x169;" horiz-adv-x="645" 
d="M60 219v311h175v-275q0 -54 22 -77.5t56 -23.5q41 0 66.5 28.5t25.5 84.5v263h175v-530h-175v66q-52 -81 -157 -81q-53 0 -96 26.5t-67.5 78.5t-24.5 129zM138 610q3 44 15.5 80t37.5 58t65 22q35 0 59.5 -15t42 -30.5t31.5 -15.5q16 0 24 13t12 43h79q-2 -43 -15 -79.5
t-38 -58.5t-65 -22q-35 0 -59.5 15.5t-42 30.5t-31.5 15q-29 0 -36 -56h-79z" />
    <glyph glyph-name="uni00DC" unicode="&#xdc;" horiz-adv-x="740" 
d="M75 265v435h185v-405q0 -67 29.5 -100t82.5 -33t82.5 33t29.5 100v405h181v-435q0 -83 -34 -146t-99.5 -98.5t-161.5 -35.5q-95 0 -161 35.5t-100 98.5t-34 146zM176 850q0 32 22 54t55 22t55 -22t22 -54q0 -31 -22 -53.5t-55 -22.5t-55 22.5t-22 53.5zM414 850
q0 32 22 54t55 22t55 -22t22 -54q0 -31 -22 -53.5t-55 -22.5t-55 22.5t-22 53.5z" />
    <glyph glyph-name="uni00FC" unicode="&#xfc;" horiz-adv-x="645" 
d="M60 219v311h175v-275q0 -54 22 -77.5t56 -23.5q41 0 66.5 28.5t25.5 84.5v263h175v-530h-175v66q-52 -81 -157 -81q-53 0 -96 26.5t-67.5 78.5t-24.5 129zM135 685q0 32 22 54t55 22t55 -22t22 -54q0 -31 -22 -53.5t-55 -22.5t-55 22.5t-22 53.5zM353 685q0 32 22 54
t55 22t55 -22t22 -54q0 -31 -22 -53.5t-55 -22.5t-55 22.5t-22 53.5z" />
    <glyph glyph-name="uni016A" unicode="&#x16a;" horiz-adv-x="740" 
d="M75 265v435h185v-405q0 -67 29.5 -100t82.5 -33t82.5 33t29.5 100v405h181v-435q0 -83 -34 -146t-99.5 -98.5t-161.5 -35.5q-95 0 -161 35.5t-100 98.5t-34 146zM193 788v125h358v-125h-358z" />
    <glyph glyph-name="uni016B" unicode="&#x16b;" horiz-adv-x="645" 
d="M60 219v311h175v-275q0 -54 22 -77.5t56 -23.5q41 0 66.5 28.5t25.5 84.5v263h175v-530h-175v66q-52 -81 -157 -81q-53 0 -96 26.5t-67.5 78.5t-24.5 129zM152 648v125h338v-125h-338z" />
    <glyph glyph-name="uni016C" unicode="&#x16c;" horiz-adv-x="740" 
d="M75 265v435h185v-405q0 -67 29.5 -100t82.5 -33t82.5 33t29.5 100v405h181v-435q0 -83 -34 -146t-99.5 -98.5t-161.5 -35.5q-95 0 -161 35.5t-100 98.5t-34 146zM198 905h112q2 -18 16.5 -28t45.5 -10q30 0 44.5 10t17.5 28h112q-11 -145 -174 -145t-174 145z" />
    <glyph glyph-name="uni016D" unicode="&#x16d;" horiz-adv-x="645" 
d="M60 219v311h175v-275q0 -54 22 -77.5t56 -23.5q41 0 66.5 28.5t25.5 84.5v263h175v-530h-175v66q-52 -81 -157 -81q-53 0 -96 26.5t-67.5 78.5t-24.5 129zM157 770h112q4 -30 16 -45.5t36 -15.5t36 15.5t16 45.5h112q-6 -83 -46.5 -126.5t-117.5 -43.5q-76 0 -117 43.5
t-47 126.5z" />
    <glyph glyph-name="uni016E" unicode="&#x16e;" horiz-adv-x="740" 
d="M75 265v435h185v-405q0 -67 29.5 -100t82.5 -33t82.5 33t29.5 100v405h181v-435q0 -83 -34 -146t-99.5 -98.5t-161.5 -35.5q-95 0 -161 35.5t-100 98.5t-34 146zM246 866q0 46 35.5 78.5t90.5 32.5t90.5 -32.5t35.5 -78.5t-35.5 -78.5t-90.5 -32.5t-90.5 32.5t-35.5 78.5
zM335 866q0 -15 10.5 -25t26.5 -10q17 0 27 10t10 25t-10 25t-27 10q-16 0 -26.5 -10t-10.5 -25z" />
    <glyph glyph-name="uni016F" unicode="&#x16f;" horiz-adv-x="645" 
d="M60 219v311h175v-275q0 -54 22 -77.5t56 -23.5q41 0 66.5 28.5t25.5 84.5v263h175v-530h-175v66q-52 -81 -157 -81q-53 0 -96 26.5t-67.5 78.5t-24.5 129zM198 707q0 47 35 79.5t88 32.5t88 -32.5t35 -79.5t-35 -79.5t-88 -32.5t-88 32.5t-35 79.5zM287 707
q0 -16 9.5 -27t24.5 -11t24.5 11t9.5 27q0 17 -9.5 27.5t-24.5 10.5t-24.5 -10.5t-9.5 -27.5z" />
    <glyph glyph-name="uni0170" unicode="&#x170;" horiz-adv-x="740" 
d="M75 265v435h185v-405q0 -67 29.5 -100t82.5 -33t82.5 33t29.5 100v405h181v-435q0 -83 -34 -146t-99.5 -98.5t-161.5 -35.5q-95 0 -161 35.5t-100 98.5t-34 146zM238 770l66 145h148l-105 -145h-109zM408 770l66 145h148l-105 -145h-109z" />
    <glyph glyph-name="uni0171" unicode="&#x171;" horiz-adv-x="645" 
d="M60 219v311h175v-275q0 -54 22 -77.5t56 -23.5q41 0 66.5 28.5t25.5 84.5v263h175v-530h-175v66q-52 -81 -157 -81q-53 0 -96 26.5t-67.5 78.5t-24.5 129zM195 610l46 170h138l-80 -170h-104zM355 610l46 170h138l-80 -170h-104z" />
    <glyph glyph-name="uni1EE4" unicode="&#x1ee4;" horiz-adv-x="740" 
d="M75 265v435h185v-405q0 -67 29.5 -100t82.5 -33t82.5 33t29.5 100v405h181v-435q0 -83 -34 -146t-99.5 -98.5t-161.5 -35.5q-95 0 -161 35.5t-100 98.5t-34 146zM263 -174q0 43 29.5 73.5t77.5 30.5t77.5 -30.5t29.5 -73.5t-29.5 -73.5t-77.5 -30.5t-77.5 30.5
t-29.5 73.5z" />
    <glyph glyph-name="uni1EE5" unicode="&#x1ee5;" horiz-adv-x="645" 
d="M60 219v311h175v-275q0 -54 22 -77.5t56 -23.5q41 0 66.5 28.5t25.5 84.5v263h175v-530h-175v66q-52 -81 -157 -81q-53 0 -96 26.5t-67.5 78.5t-24.5 129zM209 -174q0 43 29.5 73.5t77.5 30.5t77.5 -30.5t29.5 -73.5t-29.5 -73.5t-77.5 -30.5t-77.5 30.5t-29.5 73.5z" />
    <glyph glyph-name="uni0172" unicode="&#x172;" horiz-adv-x="740" 
d="M523 17q-55 -26 -85 -48t-41 -39.5t-11 -30.5q0 -30 34 -30q27 0 67 24l21 -96q-25 -14 -55.5 -24t-64.5 -10q-55 0 -90 30t-35 76q0 65 59 119q-120 13 -183.5 88.5t-63.5 188.5v435h185v-405q0 -67 29.5 -100t82.5 -33t82.5 33t29.5 100v405h181v-435q0 -85 -35.5 -150
t-106.5 -98z" />
    <glyph glyph-name="uni0173" unicode="&#x173;" horiz-adv-x="645" 
d="M60 219v311h175v-275q0 -54 22 -77.5t56 -23.5q41 0 66.5 28.5t25.5 84.5v263h175v-530q-55 -21 -85 -39.5t-41 -33.5t-11 -28q0 -30 34 -30q27 0 67 24l21 -96q-25 -14 -55.5 -24t-64.5 -10q-55 0 -90 30t-35 76q0 39 23.5 72t65.5 59h-4v66q-52 -81 -157 -81
q-53 0 -96 26.5t-67.5 78.5t-24.5 129z" />
    <glyph glyph-name="uni1E80" unicode="&#x1e80;" horiz-adv-x="1017" 
d="M199 0l-194 700h194l101 -442l111 442h195l116 -442l96 442h194l-194 -700h-195l-114 406l-115 -406h-195zM324 915h168l76 -145h-119z" />
    <glyph glyph-name="uni1E81" unicode="&#x1e81;" horiz-adv-x="815" 
d="M481 0l-73 241l-74 -241h-163l-171 530h188l67 -310l77 310h156l74 -310l70 310h183l-171 -530h-163zM242 780h158l66 -170h-114z" />
    <glyph glyph-name="uni1E82" unicode="&#x1e82;" horiz-adv-x="1017" 
d="M199 0l-194 700h194l101 -442l111 442h195l116 -442l96 442h194l-194 -700h-195l-114 406l-115 -406h-195zM450 770l76 145h168l-125 -145h-119z" />
    <glyph glyph-name="uni1E83" unicode="&#x1e83;" horiz-adv-x="815" 
d="M481 0l-73 241l-74 -241h-163l-171 530h188l67 -310l77 310h156l74 -310l70 310h183l-171 -530h-163zM358 610l66 170h158l-110 -170h-114z" />
    <glyph glyph-name="uni0174" unicode="&#x174;" horiz-adv-x="1017" 
d="M199 0l-194 700h194l101 -442l111 442h195l116 -442l96 442h194l-194 -700h-195l-114 406l-115 -406h-195zM329 770l115 145h130l115 -145h-118l-62 54l-62 -54h-118z" />
    <glyph glyph-name="uni0175" unicode="&#x175;" horiz-adv-x="815" 
d="M481 0l-73 241l-74 -241h-163l-171 530h188l67 -310l77 310h156l74 -310l70 310h183l-171 -530h-163zM243 610l110 170h118l110 -170h-112l-57 65l-57 -65h-112z" />
    <glyph glyph-name="uni1E84" unicode="&#x1e84;" horiz-adv-x="1017" 
d="M199 0l-194 700h194l101 -442l111 442h195l116 -442l96 442h194l-194 -700h-195l-114 406l-115 -406h-195zM313 850q0 32 22 54t55 22t55 -22t22 -54q0 -31 -22 -53.5t-55 -22.5t-55 22.5t-22 53.5zM551 850q0 32 22 54t55 22t55 -22t22 -54q0 -31 -22 -53.5t-55 -22.5
t-55 22.5t-22 53.5z" />
    <glyph glyph-name="uni1E85" unicode="&#x1e85;" horiz-adv-x="815" 
d="M481 0l-73 241l-74 -241h-163l-171 530h188l67 -310l77 310h156l74 -310l70 310h183l-171 -530h-163zM226 685q0 32 22 54t55 22t55 -22t22 -54q0 -31 -22 -53.5t-55 -22.5t-55 22.5t-22 53.5zM444 685q0 32 22 54t55 22t55 -22t22 -54q0 -31 -22 -53.5t-55 -22.5
t-55 22.5t-22 53.5z" />
    <glyph glyph-name="uni1EF2" unicode="&#x1ef2;" horiz-adv-x="703" 
d="M259 0v268l-259 432h216l137 -257l141 257h209l-259 -432v-268h-185zM168 915h168l76 -145h-119z" />
    <glyph glyph-name="uni1EF3" unicode="&#x1ef3;" horiz-adv-x="575" 
d="M42 -146l10 138q16 -7 34.5 -11t37.5 -4q27 0 45.5 7t32.5 25l-202 521h188l100 -318l104 318h183l-196 -505q-30 -78 -67 -119t-78 -56t-86 -15q-65 0 -106 19zM117 780h158l66 -170h-114z" />
    <glyph glyph-name="uni00DD" unicode="&#xdd;" horiz-adv-x="703" 
d="M259 0v268l-259 432h216l137 -257l141 257h209l-259 -432v-268h-185zM294 770l76 145h168l-125 -145h-119z" />
    <glyph glyph-name="uni00FD" unicode="&#xfd;" horiz-adv-x="575" 
d="M42 -146l10 138q16 -7 34.5 -11t37.5 -4q27 0 45.5 7t32.5 25l-202 521h188l100 -318l104 318h183l-196 -505q-30 -78 -67 -119t-78 -56t-86 -15q-65 0 -106 19zM233 610l66 170h158l-110 -170h-114z" />
    <glyph glyph-name="uni0176" unicode="&#x176;" horiz-adv-x="703" 
d="M259 0v268l-259 432h216l137 -257l141 257h209l-259 -432v-268h-185zM173 770l115 145h130l115 -145h-118l-62 54l-62 -54h-118z" />
    <glyph glyph-name="uni0177" unicode="&#x177;" horiz-adv-x="575" 
d="M42 -146l10 138q16 -7 34.5 -11t37.5 -4q27 0 45.5 7t32.5 25l-202 521h188l100 -318l104 318h183l-196 -505q-30 -78 -67 -119t-78 -56t-86 -15q-65 0 -106 19zM118 610l110 170h118l110 -170h-112l-57 65l-57 -65h-112z" />
    <glyph glyph-name="uni1EF8" unicode="&#x1ef8;" horiz-adv-x="703" 
d="M259 0v268l-259 432h216l137 -257l141 257h209l-259 -432v-268h-185zM155 765q3 44 17 80t41.5 58t69.5 22q28 0 49 -9t38 -21.5t32.5 -21.5t31.5 -9t25 13t13 43h79q-2 -43 -16.5 -79.5t-41.5 -58.5t-70 -22q-28 0 -49.5 9t-38 21.5t-32 21.5t-31.5 9q-29 0 -38 -56h-79
z" />
    <glyph glyph-name="uni1EF9" unicode="&#x1ef9;" horiz-adv-x="575" 
d="M42 -146l10 138q16 -7 34.5 -11t37.5 -4q27 0 45.5 7t32.5 25l-202 521h188l100 -318l104 318h183l-196 -505q-30 -78 -67 -119t-78 -56t-86 -15q-65 0 -106 19zM104 610q3 44 15.5 80t37.5 58t65 22q35 0 59.5 -15t42 -30.5t31.5 -15.5q16 0 24 13t12 43h79
q-2 -43 -15 -79.5t-38 -58.5t-65 -22q-35 0 -59.5 15.5t-42 30.5t-31.5 15q-29 0 -36 -56h-79z" />
    <glyph glyph-name="uni0178" unicode="&#x178;" horiz-adv-x="703" 
d="M259 0v268l-259 432h216l137 -257l141 257h209l-259 -432v-268h-185zM157 850q0 32 22 54t55 22t55 -22t22 -54q0 -31 -22 -53.5t-55 -22.5t-55 22.5t-22 53.5zM395 850q0 32 22 54t55 22t55 -22t22 -54q0 -31 -22 -53.5t-55 -22.5t-55 22.5t-22 53.5z" />
    <glyph glyph-name="uni00FF" unicode="&#xff;" horiz-adv-x="575" 
d="M42 -146l10 138q16 -7 34.5 -11t37.5 -4q27 0 45.5 7t32.5 25l-202 521h188l100 -318l104 318h183l-196 -505q-30 -78 -67 -119t-78 -56t-86 -15q-65 0 -106 19zM101 685q0 32 22 54t55 22t55 -22t22 -54q0 -31 -22 -53.5t-55 -22.5t-55 22.5t-22 53.5zM319 685
q0 32 22 54t55 22t55 -22t22 -54q0 -31 -22 -53.5t-55 -22.5t-55 22.5t-22 53.5z" />
    <glyph glyph-name="uni0232" unicode="&#x232;" horiz-adv-x="703" 
d="M259 0v268l-259 432h216l137 -257l141 257h209l-259 -432v-268h-185zM174 788v125h358v-125h-358z" />
    <glyph glyph-name="uni0233" unicode="&#x233;" horiz-adv-x="575" 
d="M42 -146l10 138q16 -7 34.5 -11t37.5 -4q27 0 45.5 7t32.5 25l-202 521h188l100 -318l104 318h183l-196 -505q-30 -78 -67 -119t-78 -56t-86 -15q-65 0 -106 19zM118 648v125h338v-125h-338z" />
    <glyph glyph-name="uni0179" unicode="&#x179;" horiz-adv-x="640" 
d="M40 0v110l286 418h-276v172h540v-110l-286 -418h296v-172h-560zM261 770l76 145h168l-125 -145h-119z" />
    <glyph glyph-name="uni017A" unicode="&#x17a;" horiz-adv-x="504" 
d="M30 0v100l201 280h-187v150h424v-100l-201 -280h207v-150h-444zM199 610l66 170h158l-110 -170h-114z" />
    <glyph glyph-name="uni017D" unicode="&#x17d;" horiz-adv-x="640" 
d="M40 0v110l286 418h-276v172h540v-110l-286 -418h296v-172h-560zM500 905l-115 -145h-130l-115 145h118l62 -54l62 54h118z" />
    <glyph glyph-name="uni017E" unicode="&#x17e;" horiz-adv-x="504" 
d="M30 0v100l201 280h-187v150h424v-100l-201 -280h207v-150h-444zM84 770h112l57 -65l57 65h112l-110 -170h-118z" />
    <glyph glyph-name="uni017B" unicode="&#x17b;" horiz-adv-x="640" 
d="M40 0v110l286 418h-276v172h540v-110l-286 -418h296v-172h-560zM213 864q0 43 29.5 73.5t77.5 30.5t77.5 -30.5t29.5 -73.5t-29.5 -73.5t-77.5 -30.5t-77.5 30.5t-29.5 73.5z" />
    <glyph glyph-name="uni017C" unicode="&#x17c;" horiz-adv-x="504" 
d="M30 0v100l201 280h-187v150h424v-100l-201 -280h207v-150h-444zM146 704q0 43 29.5 73.5t77.5 30.5t77.5 -30.5t29.5 -73.5t-29.5 -73.5t-77.5 -30.5t-77.5 30.5t-29.5 73.5z" />
    <glyph glyph-name="uni0132" unicode="&#x132;" horiz-adv-x="896" 
d="M80 0v700h185v-700h-185zM360 69l92 135q19 -19 44 -31.5t49 -12.5q36 0 63.5 26.5t27.5 87.5v426h185v-440q0 -84 -31 -146t-87 -95.5t-132 -33.5q-51 0 -107.5 21.5t-103.5 62.5z" />
    <glyph glyph-name="uni0133" unicode="&#x133;" horiz-adv-x="610" 
d="M45 689q0 43 29.5 71.5t77.5 28.5t78 -28.5t30 -71.5t-30 -71.5t-78 -28.5t-77.5 28.5t-29.5 71.5zM65 0v530h175v-530h-175zM350 689q0 43 29.5 71.5t77.5 28.5t78 -28.5t30 -71.5t-30 -71.5t-78 -28.5t-77.5 28.5t-29.5 71.5zM256 -155l9 154q23 -6 44 -6
q32 0 46.5 14.5t14.5 48.5v474h175v-491q0 -100 -47.5 -152t-147.5 -52q-54 0 -94 10z" />
    <glyph glyph-name="IJacute" horiz-adv-x="896" 
d="M113 770l76 145h168l-125 -145h-119zM669 770l76 145h168l-125 -145h-119zM80 0v700h185v-700h-185zM360 69l92 135q19 -19 44 -31.5t49 -12.5q36 0 63.5 26.5t27.5 87.5v426h185v-440q0 -84 -31 -146t-87 -95.5t-132 -33.5q-51 0 -107.5 21.5t-103.5 62.5z" />
    <glyph glyph-name="ijacute" horiz-adv-x="610" 
d="M99 610l66 170h158l-110 -170h-114zM404 610l66 170h158l-110 -170h-114zM65 0v530h175v-530h-175zM256 -155l9 154q23 -6 44 -6q32 0 46.5 14.5t14.5 48.5v474h175v-491q0 -100 -47.5 -152t-147.5 -52q-54 0 -94 10z" />
    <glyph glyph-name="uni018F" unicode="&#x18f;" horiz-adv-x="764" 
d="M377 -15q-101 0 -176.5 43t-117 122t-41.5 187q0 19 1.5 41t5.5 41h469q-20 52 -66.5 84.5t-105.5 32.5q-38 0 -75.5 -13.5t-69.5 -35.5l-96 144q46 38 114 61t135 23q80 0 147 -27t117.5 -76t78 -115.5t27.5 -146.5q0 -108 -44.5 -190.5t-122.5 -128.5t-180 -46z
M377 157q54 0 92 31.5t53 88.5h-284q11 -61 47 -90.5t92 -29.5z" />
    <glyph glyph-name="uni0259" unicode="&#x259;" horiz-adv-x="577" 
d="M547 265q0 -80 -32 -143t-91 -100t-140 -37q-75 0 -131 35t-86.5 93.5t-30.5 131.5q0 15 1.5 34.5t4.5 33.5h327q-13 37 -44 59t-80 22q-39 0 -74.5 -7t-66.5 -19l-51 133q101 44 204 44q87 0 152 -37.5t101.5 -101t36.5 -141.5zM287 125q70 0 85 92h-165q4 -42 24.5 -67
t55.5 -25z" />
    <glyph glyph-name="uniFB01" unicode="&#xfb01;" horiz-adv-x="675" 
d="M415 689q0 43 29.5 71.5t77.5 28.5t78 -28.5t30 -71.5t-30 -71.5t-78 -28.5t-77.5 28.5t-29.5 71.5zM75 0v380h-65v150h65v11q0 204 202 204q23 0 42.5 -2.5t35.5 -6.5v-146q-22 6 -44 6q-61 0 -61 -65v-1h360v-530h-175v380h-185v-380h-175z" />
    <glyph glyph-name="uniFB02" unicode="&#xfb02;" horiz-adv-x="675" 
d="M75 0v380h-65v150h65v11q0 204 212 204q26 0 48 -2.5t40 -7.5v-146q-13 3 -28 5t-29 2q-68 0 -68 -65v-1h115v-150h-115v-380h-175zM435 0v730h175v-730h-175z" />
    <glyph glyph-name="uni0030" unicode="0" horiz-adv-x="676" 
d="M40 350q0 114 37.5 195.5t105 125.5t155.5 44q89 0 156 -44t104.5 -125.5t37.5 -195.5t-37.5 -195.5t-104.5 -125.5t-156 -44q-88 0 -155.5 44t-105 125.5t-37.5 195.5zM235 350q0 -69 14.5 -110.5t38 -59.5t50.5 -18q28 0 51 18t37.5 59.5t14.5 110.5q0 70 -14.5 111
t-37.5 59t-51 18q-27 0 -50.5 -18t-38 -59t-14.5 -111z" />
    <glyph glyph-name="uni0031" unicode="1" horiz-adv-x="472" 
d="M192 0v492l-122 -72l-80 150l242 130h145v-700h-185z" />
    <glyph glyph-name="uni0032" unicode="2" horiz-adv-x="600" 
d="M44 0v110l238 237q43 43 59.5 69t16.5 52q0 29 -20.5 50t-52.5 21q-33 0 -62.5 -22.5t-53.5 -60.5l-133 109q47 73 114 111.5t150 38.5q78 0 134.5 -29t87 -80t30.5 -118q0 -41 -13.5 -79t-45.5 -78.5t-86 -90.5l-74 -68h225v-172h-514z" />
    <glyph glyph-name="uni0033" unicode="3" horiz-adv-x="627" 
d="M25 134l136 111q27 -39 64.5 -64t81.5 -25q46 0 66.5 19t20.5 46q0 29 -25.5 46.5t-92.5 17.5h-80v143h76q50 0 73.5 16.5t23.5 42.5q0 23 -19.5 40t-53.5 17q-37 0 -68.5 -21.5t-51.5 -60.5l-136 104q37 67 108 108t162 41q71 0 128 -26t90.5 -70t33.5 -99
q0 -93 -100 -144q58 -22 91.5 -68t33.5 -102q0 -67 -36 -116.5t-98.5 -77t-142.5 -27.5q-94 0 -169 41t-116 108z" />
    <glyph glyph-name="uni0034" unicode="4" horiz-adv-x="630" 
d="M30 110v110l258 480h235v-426h82v-164h-82v-110h-185v110h-308zM214 274h124v232z" />
    <glyph glyph-name="uni0035" unicode="5" horiz-adv-x="622" 
d="M30 134l136 111q26 -39 62 -64t79 -25q41 0 66.5 20.5t25.5 54.5q0 35 -27 57t-71 22q-34 0 -61 -10.5t-50 -27.5l-113 48l24 380h445v-175h-300l-6 -93q22 14 50 21.5t65 7.5q68 0 121.5 -29t84.5 -78.5t31 -112.5q0 -79 -36.5 -136.5t-100.5 -88.5t-145 -31
q-92 0 -165.5 41t-114.5 108z" />
    <glyph glyph-name="uni0036" unicode="6" horiz-adv-x="650" 
d="M40 289q0 119 59.5 211t165.5 148.5t246 66.5l16 -178q-130 -15 -197 -51t-91 -101q29 35 69.5 52.5t85.5 17.5q64 0 112.5 -27.5t76 -78.5t27.5 -121q0 -68 -35.5 -123t-98 -87.5t-144.5 -32.5q-88 0 -153.5 36t-102 104t-36.5 164zM232 224q0 -40 28.5 -62.5
t62.5 -22.5q41 0 67 23.5t26 63.5q0 39 -25.5 61.5t-63.5 22.5q-41 0 -68 -23t-27 -63z" />
    <glyph glyph-name="uni0037" unicode="7" horiz-adv-x="560" 
d="M115 0l210 520h-300v180h510v-110l-218 -590h-202z" />
    <glyph glyph-name="uni0038" unicode="8" horiz-adv-x="658" 
d="M40 205q0 55 31 98.5t87 69.5q-46 24 -72 60.5t-26 81.5q0 58 33.5 103t94 71t141.5 26q80 0 139 -26t92 -71t33 -103q0 -44 -25 -80.5t-69 -60.5q56 -26 87.5 -69.5t31.5 -99.5q0 -64 -35.5 -114t-100 -78t-153.5 -28q-88 0 -153 28t-100.5 78t-35.5 114zM255 502
q0 -28 20.5 -46t53.5 -18t53.5 18t20.5 46q0 26 -20.5 44.5t-53.5 18.5t-53.5 -18.5t-20.5 -44.5zM238 216q0 -35 26 -56t65 -21t65 21t26 56q0 38 -26 58.5t-65 20.5t-65 -20.5t-26 -58.5z" />
    <glyph glyph-name="uni0039" unicode="9" horiz-adv-x="650" 
d="M40 472q0 68 35.5 123t98 87.5t144.5 32.5q88 0 153.5 -36t102 -104t36.5 -164q0 -119 -59.5 -211t-165.5 -148t-246 -67l-16 178q131 15 197.5 51.5t90.5 100.5q-29 -34 -69.5 -52t-85.5 -18q-63 0 -112 27.5t-76.5 78.5t-27.5 121zM234 474q0 -39 26 -61.5t63 -22.5
q41 0 68 23t27 63t-28.5 62.5t-62.5 22.5q-40 0 -66.5 -23.5t-26.5 -63.5z" />
    <glyph glyph-name="uni0030.lt" horiz-adv-x="600" 
d="M27 350q0 122 34.5 203t96 121.5t142.5 40.5t142.5 -40.5t96 -121.5t34.5 -203q0 -121 -34.5 -202.5t-96 -122t-142.5 -40.5t-142.5 40.5t-96 122t-34.5 202.5zM222 350q0 -72 11 -113t29 -58t38 -17q21 0 38.5 17t28.5 58t11 113t-11 113t-28.5 58t-38.5 17
q-20 0 -38 -17t-29 -58t-11 -113z" />
    <glyph glyph-name="uni0031.lt" horiz-adv-x="600" 
d="M262 0v492l-142 -84l-80 150l262 142h145v-700h-185z" />
    <glyph glyph-name="uni0032.lt" horiz-adv-x="600" 
d="M42 0v110l233 237q40 43 55.5 69t15.5 52q0 29 -19.5 50t-48.5 21q-31 0 -59.5 -22.5t-51.5 -60.5l-133 109q47 73 112 111.5t147 38.5q76 0 131.5 -29t85.5 -80t30 -118q0 -41 -13.5 -79t-44 -78.5t-82.5 -90.5l-72 -68h218v-172h-504z" />
    <glyph glyph-name="uni0033.lt" horiz-adv-x="600" 
d="M15 134l136 111q25 -39 58 -64t73 -25q49 0 69.5 19t20.5 46q0 29 -23.5 46.5t-87.5 17.5h-75v143h71q47 0 71 16.5t24 42.5q0 23 -19.5 40t-53.5 17t-64 -21.5t-49 -60.5l-136 104q35 67 105 108t158 41q71 0 128 -26t90.5 -70t33.5 -99q0 -46 -26.5 -82.5t-76.5 -61.5
q58 -22 90.5 -68t32.5 -102q0 -67 -36 -116.5t-99.5 -77t-144.5 -27.5q-89 0 -160 41t-110 108z" />
    <glyph glyph-name="uni0034.lt" horiz-adv-x="600" 
d="M22 110v110l238 480h235v-431h82v-159h-82v-110h-185v110h-288zM192 269h118v237z" />
    <glyph glyph-name="uni0035.lt" horiz-adv-x="600" 
d="M16 134l136 111q26 -39 59.5 -64t74.5 -25q38 0 62 20.5t24 54.5q0 35 -23.5 57t-63.5 22q-34 0 -60 -10.5t-49 -27.5l-113 48l24 380h432v-175h-287l-6 -94q22 14 51 21.5t67 7.5q63 0 113 -28.5t79 -78t29 -112.5q0 -79 -36 -136.5t-98 -88.5t-142 -31q-91 0 -162 41
t-111 108z" />
    <glyph glyph-name="uni0036.lt" horiz-adv-x="600" 
d="M28 289q0 84 33 158t94 131.5t145 93t187 43.5l16 -178q-125 -15 -190 -51t-88 -99q28 32 65.5 49t79.5 17q61 0 107 -27t72.5 -77.5t26.5 -120.5q0 -68 -34 -123t-94.5 -87.5t-139.5 -32.5q-85 0 -148 36t-97.5 104t-34.5 164zM216 224q0 -40 26.5 -62.5t56.5 -22.5
q36 0 60.5 23.5t24.5 63.5q0 39 -24 61.5t-57 22.5q-37 0 -62 -23t-25 -63z" />
    <glyph glyph-name="uni0037.lt" horiz-adv-x="600" 
d="M132 0l210 520h-300v180h510v-110l-218 -590h-202z" />
    <glyph glyph-name="uni0038.lt" horiz-adv-x="600" 
d="M25 205q0 55 28.5 98t81.5 70q-46 23 -70.5 60t-24.5 82q0 58 32 103t90.5 71t137.5 26q78 0 135.5 -26t88.5 -71t31 -103q0 -45 -23.5 -81.5t-67.5 -60.5q53 -26 82 -69.5t29 -98.5q0 -64 -33 -114t-94.5 -78t-147.5 -28q-85 0 -147 28t-95 78t-33 114zM235 502
q0 -28 17 -46t48 -18t48 18t17 46q0 26 -17 44.5t-48 18.5t-48 -18.5t-17 -44.5zM223 216q0 -35 21.5 -56t55.5 -21q35 0 56 21t21 56q0 38 -21 58.5t-56 20.5q-34 0 -55.5 -20.5t-21.5 -58.5z" />
    <glyph glyph-name="uni0039.lt" horiz-adv-x="600" 
d="M24 472q0 68 34 123t94.5 87.5t139.5 32.5q85 0 148 -36t97.5 -104t34.5 -164q0 -84 -33 -158t-94 -131.5t-145 -93t-187 -43.5l-16 178q125 15 190 51t88 99q-28 -32 -65.5 -49t-79.5 -17q-60 0 -106.5 27t-73 77.5t-26.5 120.5zM216 474q0 -39 24 -61.5t57 -22.5
q37 0 62 23t25 63t-26.5 62.5t-56.5 22.5q-36 0 -60.5 -23.5t-24.5 -63.5z" />
    <glyph glyph-name="uni1401" unicode="&#x1401;" horiz-adv-x="753" 
d="M289 0l-284 700h743l-284 -700h-175zM268 528l110 -292l112 292h-222z" />
    <glyph glyph-name="uni1402" unicode="&#x1402;" horiz-adv-x="753" 
d="M5 0l284 700h175l284 -700h-743zM263 172h222l-110 292zM251 886q0 46 35.5 78.5t90.5 32.5t90.5 -32.5t35.5 -78.5t-35.5 -78.5t-90.5 -32.5t-90.5 32.5t-35.5 78.5zM340 886q0 -15 10.5 -25t26.5 -10q17 0 27 10t10 25t-10 25t-27 10q-16 0 -26.5 -10t-10.5 -25z" />
    <glyph glyph-name="uni1403" unicode="&#x1403;" horiz-adv-x="753" 
d="M5 0l284 700h175l284 -700h-743zM263 172h222l-110 292z" />
    <glyph glyph-name="uni1404" unicode="&#x1404;" horiz-adv-x="753" 
d="M5 0l284 700h175l284 -700h-743zM263 172h222l-110 292zM275 890q0 41 28 70t74 29t74 -29t28 -70t-28 -70t-74 -29t-74 29t-28 70z" />
    <glyph glyph-name="uni1405" unicode="&#x1405;" horiz-adv-x="695" 
d="M80 -15v730l590 -278v-175zM255 447v-199l226 100z" />
    <glyph glyph-name="uni1406" unicode="&#x1406;" horiz-adv-x="695" 
d="M66 890q0 41 28 70t74 29t74 -29t28 -70t-28 -70t-74 -29t-74 29t-28 70zM80 -15v730l590 -278v-175zM255 447v-199l226 100z" />
    <glyph glyph-name="uni140A" unicode="&#x140a;" horiz-adv-x="695" 
d="M25 262v175l590 278v-730zM214 348l226 -100v199z" />
    <glyph glyph-name="uni140B" unicode="&#x140b;" horiz-adv-x="695" 
d="M25 262v175l590 278v-730zM214 348l226 -100v199zM425 890q0 41 28 70t74 29t74 -29t28 -70t-28 -70t-74 -29t-74 29t-28 70z" />
    <glyph glyph-name="uni142F" unicode="&#x142f;" horiz-adv-x="733" 
d="M279 0l-274 700h199l164 -457l168 457h192l-274 -700h-175z" />
    <glyph glyph-name="uni1430" unicode="&#x1430;" horiz-adv-x="733" 
d="M5 0l274 700h175l274 -700h-199l-164 457l-168 -457h-192zM241 886q0 46 35.5 78.5t90.5 32.5t90.5 -32.5t35.5 -78.5t-35.5 -78.5t-90.5 -32.5t-90.5 32.5t-35.5 78.5zM330 886q0 -15 10.5 -25t26.5 -10q17 0 27 10t10 25t-10 25t-27 10q-16 0 -26.5 -10t-10.5 -25z" />
    <glyph glyph-name="uni1431" unicode="&#x1431;" horiz-adv-x="733" 
d="M5 0l274 700h175l274 -700h-199l-164 457l-168 -457h-192z" />
    <glyph glyph-name="uni1432" unicode="&#x1432;" horiz-adv-x="733" 
d="M5 0l274 700h175l274 -700h-199l-164 457l-168 -457h-192zM265 890q0 41 28 70t74 29t74 -29t28 -70t-28 -70t-74 -29t-74 29t-28 70z" />
    <glyph glyph-name="uni1433" unicode="&#x1433;" horiz-adv-x="690" 
d="M75 -15v195l379 168l-379 165v202l590 -278v-175z" />
    <glyph glyph-name="uni1434" unicode="&#x1434;" horiz-adv-x="690" 
d="M75 -15v195l379 168l-379 165v202l590 -278v-175zM71 890q0 41 28 70t74 29t74 -29t28 -70t-28 -70t-74 -29t-74 29t-28 70z" />
    <glyph glyph-name="uni1438" unicode="&#x1438;" horiz-adv-x="690" 
d="M25 262v175l590 278v-202l-379 -165l379 -168v-195z" />
    <glyph glyph-name="uni1439" unicode="&#x1439;" horiz-adv-x="690" 
d="M25 262v175l590 278v-202l-379 -165l379 -168v-195zM425 890q0 41 28 70t74 29t74 -29t28 -70t-28 -70t-74 -29t-74 29t-28 70z" />
    <glyph glyph-name="uni1449" unicode="&#x1449;" horiz-adv-x="458" 
d="M15 418v89l388 208v-164l-200 -87l200 -86v-168z" />
    <glyph glyph-name="uni144C" unicode="&#x144c;" horiz-adv-x="740" 
d="M75 265v435h185v-405q0 -67 29 -100t81 -33q53 0 81.5 33t28.5 100v405h185v-435q0 -83 -34 -146t-99.5 -98.5t-161.5 -35.5q-95 0 -161 35.5t-100 98.5t-34 146z" />
    <glyph glyph-name="uni144D" unicode="&#x144d;" horiz-adv-x="740" 
d="M75 0v435q0 83 34 146t100 98.5t161 35.5q96 0 161.5 -35.5t99.5 -98.5t34 -146v-435h-185v405q0 68 -28.5 100.5t-81.5 32.5q-52 0 -81 -32.5t-29 -100.5v-405h-185zM244 886q0 46 35.5 78.5t90.5 32.5t90.5 -32.5t35.5 -78.5t-35.5 -78.5t-90.5 -32.5t-90.5 32.5
t-35.5 78.5zM333 886q0 -15 10.5 -25t26.5 -10q17 0 27 10t10 25t-10 25t-27 10q-16 0 -26.5 -10t-10.5 -25z" />
    <glyph glyph-name="uni144E" unicode="&#x144e;" horiz-adv-x="740" 
d="M75 0v435q0 83 34 146t100 98.5t161 35.5q96 0 161.5 -35.5t99.5 -98.5t34 -146v-435h-185v405q0 68 -28.5 100.5t-81.5 32.5q-52 0 -81 -32.5t-29 -100.5v-405h-185z" />
    <glyph glyph-name="uni144F" unicode="&#x144f;" horiz-adv-x="740" 
d="M75 0v435q0 83 34 146t100 98.5t161 35.5q96 0 161.5 -35.5t99.5 -98.5t34 -146v-435h-185v405q0 68 -28.5 100.5t-81.5 32.5q-52 0 -81 -32.5t-29 -100.5v-405h-185zM268 890q0 41 28 70t74 29t74 -29t28 -70t-28 -70t-74 -29t-74 29t-28 70z" />
    <glyph glyph-name="uni1450" unicode="&#x1450;" horiz-adv-x="617" 
d="M75 0v175h105q98 0 147.5 48t49.5 127q0 80 -49.5 127.5t-147.5 47.5h-105v175h120q112 0 196.5 -43.5t132.5 -122t48 -184.5t-48 -184.5t-132.5 -122t-196.5 -43.5h-120z" />
    <glyph glyph-name="uni1451" unicode="&#x1451;" horiz-adv-x="617" 
d="M75 0v175h105q98 0 147.5 48t49.5 127q0 80 -49.5 127.5t-147.5 47.5h-105v175h120q112 0 196.5 -43.5t132.5 -122t48 -184.5t-48 -184.5t-132.5 -122t-196.5 -43.5h-120zM133 890q0 41 28 70t74 29t74 -29t28 -70t-28 -70t-74 -29t-74 29t-28 70z" />
    <glyph glyph-name="uni1455" unicode="&#x1455;" horiz-adv-x="617" 
d="M45 350q0 106 48 184.5t133 122t196 43.5h120v-175h-105q-97 0 -147 -47.5t-50 -127.5q0 -79 50 -127t147 -48h105v-175h-120q-111 0 -196 43.5t-133 122t-48 184.5z" />
    <glyph glyph-name="uni1456" unicode="&#x1456;" horiz-adv-x="617" 
d="M45 350q0 106 48 184.5t133 122t196 43.5h120v-175h-105q-97 0 -147 -47.5t-50 -127.5q0 -79 50 -127t147 -48h105v-175h-120q-111 0 -196 43.5t-133 122t-48 184.5zM280 890q0 41 28 70t74 29t74 -29t28 -70t-28 -70t-74 -29t-74 29t-28 70z" />
    <glyph glyph-name="uni1466" unicode="&#x1466;" horiz-adv-x="455" 
d="M45 462q0 74 34 127t93 82t134 29h94v-132h-84q-58 0 -89.5 -28.5t-31.5 -77.5t31.5 -77t89.5 -28h84v-132h-94q-75 0 -134 28.5t-93 82t-34 126.5z" />
    <glyph glyph-name="uni146B" unicode="&#x146b;" horiz-adv-x="677" 
d="M55 450q0 73 34.5 133t96.5 96t145 36q82 0 142.5 -37t94.5 -103t34 -155v-420h-185v244q-54 -49 -130 -49q-62 0 -115 32.5t-85 90t-32 132.5zM238 452q0 -45 25.5 -72t67.5 -27t67.5 27t25.5 72t-25.5 72t-67.5 27t-67.5 -27t-25.5 -72z" />
    <glyph glyph-name="uni146C" unicode="&#x146c;" horiz-adv-x="677" 
d="M75 0v420q0 89 34 155t95 103t142 37q83 0 145 -36t96.5 -96t34.5 -133q0 -75 -32 -132.5t-85 -90t-115 -32.5q-76 0 -130 49v-244h-185zM253 452q0 -45 25.5 -72t67.5 -27t67.5 27t25.5 72t-25.5 72t-67.5 27t-67.5 -27t-25.5 -72zM220 886q0 46 35.5 78.5t90.5 32.5
t90.5 -32.5t35.5 -78.5t-35.5 -78.5t-90.5 -32.5t-90.5 32.5t-35.5 78.5zM309 886q0 -15 10.5 -25t26.5 -10q17 0 27 10t10 25t-10 25t-27 10q-16 0 -26.5 -10t-10.5 -25z" />
    <glyph glyph-name="uni146D" unicode="&#x146d;" horiz-adv-x="677" 
d="M75 0v420q0 89 34 155t95 103t142 37q83 0 145 -36t96.5 -96t34.5 -133q0 -75 -32 -132.5t-85 -90t-115 -32.5q-76 0 -130 49v-244h-185zM253 452q0 -45 25.5 -72t67.5 -27t67.5 27t25.5 72t-25.5 72t-67.5 27t-67.5 -27t-25.5 -72z" />
    <glyph glyph-name="uni146E" unicode="&#x146e;" horiz-adv-x="677" 
d="M75 0v420q0 89 34 155t95 103t142 37q83 0 145 -36t96.5 -96t34.5 -133q0 -75 -32 -132.5t-85 -90t-115 -32.5q-76 0 -130 49v-244h-185zM253 452q0 -45 25.5 -72t67.5 -27t67.5 27t25.5 72t-25.5 72t-67.5 27t-67.5 -27t-25.5 -72zM244 890q0 41 28 70t74 29t74 -29
t28 -70t-28 -70t-74 -29t-74 29t-28 70z" />
    <glyph glyph-name="uni146F" unicode="&#x146f;" horiz-adv-x="677" 
d="M55 250q0 75 32 132.5t85 90t115 32.5q76 0 130 -49v244h185v-420q0 -88 -34 -154.5t-94.5 -103.5t-142.5 -37q-83 0 -145 36t-96.5 96.5t-34.5 132.5zM238 248q0 -45 25.5 -72t67.5 -27t67.5 27t25.5 72t-25.5 72t-67.5 27t-67.5 -27t-25.5 -72z" />
    <glyph glyph-name="uni1470" unicode="&#x1470;" horiz-adv-x="677" 
d="M55 250q0 75 32 132.5t85 90t115 32.5q76 0 130 -49v244h185v-420q0 -88 -34 -154.5t-94.5 -103.5t-142.5 -37q-83 0 -145 36t-96.5 96.5t-34.5 132.5zM238 248q0 -45 25.5 -72t67.5 -27t67.5 27t25.5 72t-25.5 72t-67.5 27t-67.5 -27t-25.5 -72zM408 890q0 41 28 70
t74 29t74 -29t28 -70t-28 -70t-74 -29t-74 29t-28 70z" />
    <glyph glyph-name="uni1472" unicode="&#x1472;" horiz-adv-x="677" 
d="M75 280v420h185v-244q54 49 130 49q62 0 115 -32.5t85 -90t32 -132.5q0 -72 -34.5 -132.5t-96.5 -96.5t-145 -36q-81 0 -142 37t-95 103.5t-34 154.5zM253 248q0 -45 25.5 -72t67.5 -27t67.5 27t25.5 72t-25.5 72t-67.5 27t-67.5 -27t-25.5 -72z" />
    <glyph glyph-name="uni1473" unicode="&#x1473;" horiz-adv-x="677" 
d="M65 890q0 41 28 70t74 29t74 -29t28 -70t-28 -70t-74 -29t-74 29t-28 70zM75 280v420h185v-244q54 49 130 49q62 0 115 -32.5t85 -90t32 -132.5q0 -72 -34.5 -132.5t-96.5 -96.5t-145 -36q-81 0 -142 37t-95 103.5t-34 154.5zM253 248q0 -45 25.5 -72t67.5 -27t67.5 27
t25.5 72t-25.5 72t-67.5 27t-67.5 -27t-25.5 -72z" />
    <glyph glyph-name="uni1483" unicode="&#x1483;" horiz-adv-x="486" 
d="M50 413v287h145v-151q37 35 95 35q42 0 77.5 -21.5t57 -62t21.5 -97.5q0 -54 -25 -97.5t-69.5 -69.5t-103.5 -26t-103.5 26t-69.5 72t-25 105zM190 403q0 -25 15.5 -41.5t42.5 -16.5t42.5 16.5t15.5 41.5t-15.5 41.5t-42.5 16.5t-42.5 -16.5t-15.5 -41.5z" />
    <glyph glyph-name="uni1489" unicode="&#x1489;" horiz-adv-x="710" 
d="M55 335v98q0 83 33.5 146.5t98 99.5t158.5 36t158.5 -36t98 -99.5t33.5 -146.5v-433h-185v407q0 68 -27.5 99.5t-77.5 31.5t-77.5 -31.5t-27.5 -99.5v-72h-185z" />
    <glyph glyph-name="uni148A" unicode="&#x148a;" horiz-adv-x="710" 
d="M75 0v433q0 83 33.5 146.5t98 99.5t158.5 36t158.5 -36t98 -99.5t33.5 -146.5v-98h-185v72q0 68 -27.5 99.5t-77.5 31.5t-77.5 -31.5t-27.5 -99.5v-407h-185zM239 886q0 46 35.5 78.5t90.5 32.5t90.5 -32.5t35.5 -78.5t-35.5 -78.5t-90.5 -32.5t-90.5 32.5t-35.5 78.5z
M328 886q0 -15 10.5 -25t26.5 -10q17 0 27 10t10 25t-10 25t-27 10q-16 0 -26.5 -10t-10.5 -25z" />
    <glyph glyph-name="uni148B" unicode="&#x148b;" horiz-adv-x="710" 
d="M75 0v433q0 83 33.5 146.5t98 99.5t158.5 36t158.5 -36t98 -99.5t33.5 -146.5v-98h-185v72q0 68 -27.5 99.5t-77.5 31.5t-77.5 -31.5t-27.5 -99.5v-407h-185z" />
    <glyph glyph-name="uni148C" unicode="&#x148c;" horiz-adv-x="710" 
d="M75 0v433q0 83 33.5 146.5t98 99.5t158.5 36t158.5 -36t98 -99.5t33.5 -146.5v-98h-185v72q0 68 -27.5 99.5t-77.5 31.5t-77.5 -31.5t-27.5 -99.5v-407h-185zM263 890q0 41 28 70t74 29t74 -29t28 -70t-28 -70t-74 -29t-74 29t-28 70z" />
    <glyph glyph-name="uni148D" unicode="&#x148d;" horiz-adv-x="710" 
d="M55 267v98h185v-72q0 -67 27.5 -99t77.5 -32t77.5 32t27.5 99v407h185v-433q0 -83 -33.5 -146.5t-98 -99.5t-158.5 -36t-158.5 36t-98 99.5t-33.5 146.5z" />
    <glyph glyph-name="uni148E" unicode="&#x148e;" horiz-adv-x="710" 
d="M55 267v98h185v-72q0 -67 27.5 -99t77.5 -32t77.5 32t27.5 99v407h185v-433q0 -83 -33.5 -146.5t-98 -99.5t-158.5 -36t-158.5 36t-98 99.5t-33.5 146.5zM441 890q0 41 28 70t74 29t74 -29t28 -70t-28 -70t-74 -29t-74 29t-28 70z" />
    <glyph glyph-name="uni1490" unicode="&#x1490;" horiz-adv-x="710" 
d="M75 267v433h185v-407q0 -67 27.5 -99t77.5 -32t77.5 32t27.5 99v72h185v-98q0 -83 -33.5 -146.5t-98 -99.5t-158.5 -36t-158.5 36t-98 99.5t-33.5 146.5z" />
    <glyph glyph-name="uni1491" unicode="&#x1491;" horiz-adv-x="710" 
d="M65 890q0 41 28 70t74 29t74 -29t28 -70t-28 -70t-74 -29t-74 29t-28 70zM75 267v433h185v-407q0 -67 27.5 -99t77.5 -32t77.5 32t27.5 99v72h185v-98q0 -83 -33.5 -146.5t-98 -99.5t-158.5 -36t-158.5 36t-98 99.5t-33.5 146.5z" />
    <glyph glyph-name="uni14A1" unicode="&#x14a1;" horiz-adv-x="486" 
d="M50 403v297h145v-284q0 -37 14 -53t39 -16t39 16t14 53v64h145v-77q0 -56 -25 -100t-69.5 -68.5t-103.5 -24.5t-103.5 24.5t-69.5 68.5t-25 100z" />
    <glyph glyph-name="uni14A3" unicode="&#x14a3;" horiz-adv-x="580" 
d="M315 0v528h-280v172h465v-700h-185z" />
    <glyph glyph-name="uni14A4" unicode="&#x14a4;" horiz-adv-x="580" 
d="M80 0v700h465v-172h-280v-528h-185zM189 886q0 46 35.5 78.5t90.5 32.5t90.5 -32.5t35.5 -78.5t-35.5 -78.5t-90.5 -32.5t-90.5 32.5t-35.5 78.5zM278 886q0 -15 10.5 -25t26.5 -10q17 0 27 10t10 25t-10 25t-27 10q-16 0 -26.5 -10t-10.5 -25z" />
    <glyph glyph-name="uni14A5" unicode="&#x14a5;" horiz-adv-x="580" 
d="M80 0v700h465v-172h-280v-528h-185z" />
    <glyph glyph-name="uni14A6" unicode="&#x14a6;" horiz-adv-x="580" 
d="M80 0v700h465v-172h-280v-528h-185zM213 890q0 41 28 70t74 29t74 -29t28 -70t-28 -70t-74 -29t-74 29t-28 70z" />
    <glyph glyph-name="uni14A7" unicode="&#x14a7;" horiz-adv-x="580" 
d="M35 0v172h280v528h185v-700h-465z" />
    <glyph glyph-name="uni14A8" unicode="&#x14a8;" horiz-adv-x="580" 
d="M35 0v172h280v528h185v-700h-465zM306 890q0 41 28 70t74 29t74 -29t28 -70t-28 -70t-74 -29t-74 29t-28 70z" />
    <glyph glyph-name="uni14AA" unicode="&#x14aa;" horiz-adv-x="580" 
d="M80 0v700h185v-528h280v-172h-465z" />
    <glyph glyph-name="uni14AB" unicode="&#x14ab;" horiz-adv-x="580" 
d="M70 890q0 41 28 70t74 29t74 -29t28 -70t-28 -70t-74 -29t-74 29t-28 70zM80 0v700h185v-528h280v-172h-465z" />
    <glyph glyph-name="uni14BB" unicode="&#x14bb;" horiz-adv-x="393" 
d="M55 225v475h145v-343h178v-132h-323z" />
    <glyph glyph-name="uni14C0" unicode="&#x14c0;" horiz-adv-x="829" 
d="M30 318v172h459q90 0 154 -33.5t97.5 -90.5t33.5 -128t-32 -128.5t-92.5 -91t-144.5 -33.5q-77 0 -136.5 27.5t-93 75.5t-33.5 109q0 36 11 67t30 54h-253zM410 238q0 -41 26 -66t69 -25t69 25t26 66t-26 66t-69 25t-69 -25t-26 -66z" />
    <glyph glyph-name="uni14C1" unicode="&#x14c1;" horiz-adv-x="829" 
d="M55 238q0 71 34 128t97.5 90.5t153.5 33.5h459v-172h-253q19 -23 30 -54t11 -67q0 -61 -33.5 -109t-93 -75.5t-136.5 -27.5q-84 0 -144.5 33.5t-92.5 91t-32 128.5zM229 238q0 -41 26 -66t69 -25t69 25t26 66t-26 66t-69 25t-69 -25t-26 -66zM254 676q0 46 35.5 78.5
t90.5 32.5t90.5 -32.5t35.5 -78.5t-35.5 -78.5t-90.5 -32.5t-90.5 32.5t-35.5 78.5zM343 676q0 -15 10.5 -25t26.5 -10q17 0 27 10t10 25t-10 25t-27 10q-16 0 -26.5 -10t-10.5 -25z" />
    <glyph glyph-name="uni14C2" unicode="&#x14c2;" horiz-adv-x="829" 
d="M55 238q0 71 34 128t97.5 90.5t153.5 33.5h459v-172h-253q19 -23 30 -54t11 -67q0 -61 -33.5 -109t-93 -75.5t-136.5 -27.5q-84 0 -144.5 33.5t-92.5 91t-32 128.5zM229 238q0 -41 26 -66t69 -25t69 25t26 66t-26 66t-69 25t-69 -25t-26 -66z" />
    <glyph glyph-name="uni14C3" unicode="&#x14c3;" horiz-adv-x="829" 
d="M55 238q0 71 34 128t97.5 90.5t153.5 33.5h459v-172h-253q19 -23 30 -54t11 -67q0 -61 -33.5 -109t-93 -75.5t-136.5 -27.5q-84 0 -144.5 33.5t-92.5 91t-32 128.5zM229 238q0 -41 26 -66t69 -25t69 25t26 66t-26 66t-69 25t-69 -25t-26 -66zM278 680q0 41 28 70t74 29
t74 -29t28 -70t-28 -70t-74 -29t-74 29t-28 70z" />
    <glyph glyph-name="uni14C4" unicode="&#x14c4;" horiz-adv-x="829" 
d="M30 0v172h253q-19 23 -30 54t-11 67q0 62 33.5 109.5t93 75t136.5 27.5q84 0 144.5 -33.5t92.5 -91t32 -128.5q0 -70 -33.5 -127.5t-97.5 -91t-154 -33.5h-459zM410 252q0 -41 26 -66t69 -25t69 25t26 66t-26 66t-69 25t-69 -25t-26 -66z" />
    <glyph glyph-name="uni14C5" unicode="&#x14c5;" horiz-adv-x="829" 
d="M30 0v172h253q-19 23 -30 54t-11 67q0 62 33.5 109.5t93 75t136.5 27.5q84 0 144.5 -33.5t92.5 -91t32 -128.5q0 -70 -33.5 -127.5t-97.5 -91t-154 -33.5h-459zM410 252q0 -41 26 -66t69 -25t69 25t26 66t-26 66t-69 25t-69 -25t-26 -66zM403 680q0 41 28 70t74 29
t74 -29t28 -70t-28 -70t-74 -29t-74 29t-28 70z" />
    <glyph glyph-name="uni14C7" unicode="&#x14c7;" horiz-adv-x="829" 
d="M55 252q0 71 32 128.5t92.5 91t144.5 33.5q77 0 136.5 -27.5t93 -75t33.5 -109.5q0 -36 -11 -67t-30 -54h253v-172h-459q-90 0 -153.5 33.5t-97.5 91t-34 127.5zM229 252q0 -41 26 -66t69 -25t69 25t26 66t-26 66t-69 25t-69 -25t-26 -66z" />
    <glyph glyph-name="uni14C8" unicode="&#x14c8;" horiz-adv-x="829" 
d="M55 252q0 71 32 128.5t92.5 91t144.5 33.5q77 0 136.5 -27.5t93 -75t33.5 -109.5q0 -36 -11 -67t-30 -54h253v-172h-459q-90 0 -153.5 33.5t-97.5 91t-34 127.5zM229 252q0 -41 26 -66t69 -25t69 25t26 66t-26 66t-69 25t-69 -25t-26 -66zM222 680q0 41 28 70t74 29
t74 -29t28 -70t-28 -70t-74 -29t-74 29t-28 70z" />
    <glyph glyph-name="uni14D0" unicode="&#x14d0;" horiz-adv-x="580" 
d="M40 519q0 52 24 94.5t70.5 68.5t112.5 26q90 0 140.5 -44t50.5 -109q0 -28 -10.5 -52t-27.5 -41h165v-132h-313q-68 0 -115.5 26t-72 69t-24.5 94zM190 519q0 -22 14 -39.5t43 -17.5t43 17.5t14 39.5t-14 39.5t-43 17.5q-28 0 -42.5 -17.5t-14.5 -39.5z" />
    <glyph glyph-name="uni14D3" unicode="&#x14d3;" horiz-adv-x="761" 
d="M30 318v172h403q89 0 150 -33t92 -88.5t31 -123.5t-31 -123.5t-92 -88.5t-150 -33h-108v172h103q41 0 64 19.5t23 53.5q0 35 -22 54t-65 19h-398z" />
    <glyph glyph-name="uni14D4" unicode="&#x14d4;" horiz-adv-x="761" 
d="M55 245q0 68 31 123.5t92 88.5t150 33h403v-172h-398q-43 0 -65 -19t-22 -54q0 -34 23 -53.5t64 -19.5h103v-172h-108q-89 0 -150 33t-92 88.5t-31 123.5zM242 676q0 46 35.5 78.5t90.5 32.5t90.5 -32.5t35.5 -78.5t-35.5 -78.5t-90.5 -32.5t-90.5 32.5t-35.5 78.5z
M331 676q0 -15 10.5 -25t26.5 -10q17 0 27 10t10 25t-10 25t-27 10q-16 0 -26.5 -10t-10.5 -25z" />
    <glyph glyph-name="uni14D5" unicode="&#x14d5;" horiz-adv-x="761" 
d="M55 245q0 68 31 123.5t92 88.5t150 33h403v-172h-398q-43 0 -65 -19t-22 -54q0 -34 23 -53.5t64 -19.5h103v-172h-108q-89 0 -150 33t-92 88.5t-31 123.5z" />
    <glyph glyph-name="uni14D6" unicode="&#x14d6;" horiz-adv-x="761" 
d="M55 245q0 68 31 123.5t92 88.5t150 33h403v-172h-398q-43 0 -65 -19t-22 -54q0 -34 23 -53.5t64 -19.5h103v-172h-108q-89 0 -150 33t-92 88.5t-31 123.5zM266 680q0 41 28 70t74 29t74 -29t28 -70t-28 -70t-74 -29t-74 29t-28 70z" />
    <glyph glyph-name="uni14D7" unicode="&#x14d7;" horiz-adv-x="761" 
d="M30 0v172h398q43 0 65 19.5t22 53.5q0 35 -23 54t-64 19h-103v172h108q89 0 150 -33t92 -88.5t31 -123.5t-31 -123.5t-92 -88.5t-150 -33h-403z" />
    <glyph glyph-name="uni14D8" unicode="&#x14d8;" horiz-adv-x="761" 
d="M30 0v172h398q43 0 65 19.5t22 53.5q0 35 -23 54t-64 19h-103v172h108q89 0 150 -33t92 -88.5t31 -123.5t-31 -123.5t-92 -88.5t-150 -33h-403zM291 680q0 41 28 70t74 29t74 -29t28 -70t-28 -70t-74 -29t-74 29t-28 70z" />
    <glyph glyph-name="uni14DA" unicode="&#x14da;" horiz-adv-x="761" 
d="M55 245q0 68 31 123.5t92 88.5t150 33h108v-172h-103q-41 0 -64 -19t-23 -54q0 -34 22 -53.5t65 -19.5h398v-172h-403q-89 0 -150 33t-92 88.5t-31 123.5z" />
    <glyph glyph-name="uni14DB" unicode="&#x14db;" horiz-adv-x="761" 
d="M55 245q0 68 31 123.5t92 88.5t150 33h108v-172h-103q-41 0 -64 -19t-23 -54q0 -34 22 -53.5t65 -19.5h398v-172h-403q-89 0 -150 33t-92 88.5t-31 123.5zM266 680q0 41 28 70t74 29t74 -29t28 -70t-28 -70t-74 -29t-74 29t-28 70z" />
    <glyph glyph-name="uni14EA" unicode="&#x14ea;" horiz-adv-x="520" 
d="M40 515q0 52 23.5 93.5t68.5 66.5t110 25h63v-132h-58q-28 0 -42.5 -15.5t-14.5 -37.5t14 -37.5t43 -15.5h258v-132h-263q-65 0 -110 25t-68.5 67t-23.5 93z" />
    <glyph glyph-name="uni14ED" unicode="&#x14ed;" horiz-adv-x="605" 
d="M55 561v139h185v-124q0 -91 47 -133t140 -42h103v-401h-185v226q-88 5 -153 44.5t-101 113t-36 177.5z" />
    <glyph glyph-name="uni14EE" unicode="&#x14ee;" horiz-adv-x="605" 
d="M75 0v401h103q93 0 140 42t47 133v124h185v-139q0 -104 -36 -177.5t-101 -113t-153 -44.5v-226h-185zM332 886q0 46 35.5 78.5t90.5 32.5t90.5 -32.5t35.5 -78.5t-35.5 -78.5t-90.5 -32.5t-90.5 32.5t-35.5 78.5zM421 886q0 -15 10.5 -25t26.5 -10q17 0 27 10t10 25
t-10 25t-27 10q-16 0 -26.5 -10t-10.5 -25z" />
    <glyph glyph-name="uni14EF" unicode="&#x14ef;" horiz-adv-x="605" 
d="M75 0v401h103q93 0 140 42t47 133v124h185v-139q0 -104 -36 -177.5t-101 -113t-153 -44.5v-226h-185z" />
    <glyph glyph-name="uni14F0" unicode="&#x14f0;" horiz-adv-x="605" 
d="M75 0v401h103q93 0 140 42t47 133v124h185v-139q0 -104 -36 -177.5t-101 -113t-153 -44.5v-226h-185zM356 890q0 41 28 70t74 29t74 -29t28 -70t-28 -70t-74 -29t-74 29t-28 70z" />
    <glyph glyph-name="uni14F1" unicode="&#x14f1;" horiz-adv-x="605" 
d="M55 0v139q0 105 36 178t101 113t153 44v226h185v-401h-103q-93 0 -140 -42t-47 -133v-124h-185z" />
    <glyph glyph-name="uni14F2" unicode="&#x14f2;" horiz-adv-x="605" 
d="M55 0v139q0 105 36 178t101 113t153 44v226h185v-401h-103q-93 0 -140 -42t-47 -133v-124h-185zM336 890q0 41 28 70t74 29t74 -29t28 -70t-28 -70t-74 -29t-74 29t-28 70z" />
    <glyph glyph-name="uni14F4" unicode="&#x14f4;" horiz-adv-x="605" 
d="M75 299v401h185v-226q88 -4 153 -44t101 -113t36 -178v-139h-185v124q0 91 -47 133t-140 42h-103z" />
    <glyph glyph-name="uni14F5" unicode="&#x14f5;" horiz-adv-x="605" 
d="M65 890q0 41 28 70t74 29t74 -29t28 -70t-28 -70t-74 -29t-74 29t-28 70zM75 299v401h185v-226q88 -4 153 -44t101 -113t36 -178v-139h-185v124q0 91 -47 133t-140 42h-103z" />
    <glyph glyph-name="uni1505" unicode="&#x1505;" horiz-adv-x="426" 
d="M45 418v282h145v-154q92 -4 141.5 -59t49.5 -159v-118h-145v98q0 59 -27 84.5t-90 25.5h-74z" />
    <glyph glyph-name="uni1526" unicode="&#x1526;" horiz-adv-x="595" 
d="M35 230v110l248 360h222l-220 -298h230v-402h-185v230h-295z" />
    <glyph glyph-name="uni1527" unicode="&#x1527;" horiz-adv-x="595" 
d="M80 0v402h230l-220 298h222l248 -360v-110h-295v-230h-185zM94 886q0 46 35.5 78.5t90.5 32.5t90.5 -32.5t35.5 -78.5t-35.5 -78.5t-90.5 -32.5t-90.5 32.5t-35.5 78.5zM183 886q0 -15 10.5 -25t26.5 -10q17 0 27 10t10 25t-10 25t-27 10q-16 0 -26.5 -10t-10.5 -25z" />
    <glyph glyph-name="uni1528" unicode="&#x1528;" horiz-adv-x="595" 
d="M80 0v402h230l-220 298h222l248 -360v-110h-295v-230h-185z" />
    <glyph glyph-name="uni1529" unicode="&#x1529;" horiz-adv-x="595" 
d="M80 0v402h230l-220 298h222l248 -360v-110h-295v-230h-185zM118 890q0 41 28 70t74 29t74 -29t28 -70t-28 -70t-74 -29t-74 29t-28 70z" />
    <glyph glyph-name="uni152A" unicode="&#x152a;" horiz-adv-x="595" 
d="M35 360v110h295v230h185v-402h-230l220 -298h-222z" />
    <glyph glyph-name="uni152B" unicode="&#x152b;" horiz-adv-x="595" 
d="M35 360v110h295v230h185v-402h-230l220 -298h-222zM321 890q0 41 28 70t74 29t74 -29t28 -70t-28 -70t-74 -29t-74 29t-28 70z" />
    <glyph glyph-name="uni152D" unicode="&#x152d;" horiz-adv-x="595" 
d="M90 0l220 298h-230v402h185v-230h295v-110l-248 -360h-222z" />
    <glyph glyph-name="uni152E" unicode="&#x152e;" horiz-adv-x="595" 
d="M70 890q0 41 28 70t74 29t74 -29t28 -70t-28 -70t-74 -29t-74 29t-28 70zM90 0l220 298h-230v402h185v-230h295v-110l-248 -360h-222z" />
    <glyph glyph-name="uni153E" unicode="&#x153e;" horiz-adv-x="416" 
d="M62 225l145 198h-152v277h145v-145h201v-89l-169 -241h-170z" />
    <glyph glyph-name="uni1542" unicode="&#x1542;" horiz-adv-x="834" 
d="M65 260v230h185v-205q0 -61 24.5 -92t70.5 -31t70.5 31t24.5 92v205h364v-172h-179v-58q0 -81 -32 -143t-94.5 -97t-153.5 -35t-153.5 35t-94.5 97t-32 143z" />
    <glyph glyph-name="uni1543" unicode="&#x1543;" horiz-adv-x="834" 
d="M30 318v172h364v-205q0 -61 24.5 -92t70.5 -31t70.5 31t24.5 92v205h185v-230q0 -81 -32 -143t-94.5 -97t-153.5 -35t-153.5 35t-94.5 97t-32 143v58h-179z" />
    <glyph glyph-name="uni1544" unicode="&#x1544;" horiz-adv-x="834" 
d="M30 0v172h179v58q0 82 32 143.5t94.5 96.5t153.5 35t153.5 -35t94.5 -96.5t32 -143.5v-230h-185v205q0 61 -24.5 92t-70.5 31t-70.5 -31t-24.5 -92v-205h-364z" />
    <glyph glyph-name="uni1545" unicode="&#x1545;" horiz-adv-x="834" 
d="M65 0v230q0 82 32 143.5t94.5 96.5t153.5 35t153.5 -35t94.5 -96.5t32 -143.5v-58h179v-172h-364v205q0 61 -24.5 92t-70.5 31t-70.5 -31t-24.5 -92v-205h-185zM219 676q0 46 35.5 78.5t90.5 32.5t90.5 -32.5t35.5 -78.5t-35.5 -78.5t-90.5 -32.5t-90.5 32.5t-35.5 78.5z
M308 676q0 -15 10.5 -25t26.5 -10q17 0 27 10t10 25t-10 25t-27 10q-16 0 -26.5 -10t-10.5 -25z" />
    <glyph glyph-name="uni1546" unicode="&#x1546;" horiz-adv-x="834" 
d="M65 0v230q0 82 32 143.5t94.5 96.5t153.5 35t153.5 -35t94.5 -96.5t32 -143.5v-58h179v-172h-364v205q0 61 -24.5 92t-70.5 31t-70.5 -31t-24.5 -92v-205h-185z" />
    <glyph glyph-name="uni1547" unicode="&#x1547;" horiz-adv-x="834" 
d="M65 0v230q0 82 32 143.5t94.5 96.5t153.5 35t153.5 -35t94.5 -96.5t32 -143.5v-58h179v-172h-364v205q0 61 -24.5 92t-70.5 31t-70.5 -31t-24.5 -92v-205h-185zM243 680q0 41 28 70t74 29t74 -29t28 -70t-28 -70t-74 -29t-74 29t-28 70z" />
    <glyph glyph-name="uni1548" unicode="&#x1548;" horiz-adv-x="606" 
d="M80 0v362h183q48 0 72.5 22t24.5 61t-25.5 61t-71.5 22h-183v172h188q93 0 156 -34t95 -92t32 -129t-32 -129t-95 -92t-156 -34h-3v-190h-185z" />
    <glyph glyph-name="uni1549" unicode="&#x1549;" horiz-adv-x="606" 
d="M80 0v362h183q48 0 72.5 22t24.5 61t-25.5 61t-71.5 22h-183v172h188q93 0 156 -34t95 -92t32 -129t-32 -129t-95 -92t-156 -34h-3v-190h-185zM126 890q0 41 28 70t74 29t74 -29t28 -70t-28 -70t-74 -29t-74 29t-28 70z" />
    <glyph glyph-name="uni154B" unicode="&#x154b;" horiz-adv-x="606" 
d="M341 0v190h-3q-93 0 -156 34t-95 92t-32 129t32 129t95 92t156 34h188v-172h-183q-46 0 -71.5 -22t-25.5 -61t24.5 -61t72.5 -22h183v-362h-185z" />
    <glyph glyph-name="uni154C" unicode="&#x154c;" horiz-adv-x="606" 
d="M341 0v190h-3q-93 0 -156 34t-95 92t-32 129t32 129t95 92t156 34h188v-172h-183q-46 0 -71.5 -22t-25.5 -61t24.5 -61t72.5 -22h183v-362h-185zM276 890q0 41 28 70t74 29t74 -29t28 -70t-28 -70t-74 -29t-74 29t-28 70z" />
    <glyph glyph-name="uni1550" unicode="&#x1550;" horiz-adv-x="420" 
d="M40 515q0 52 23.5 93.5t68.5 66.5t110 25h123v-132h-118q-28 0 -42.5 -15.5t-14.5 -37.5t14 -37.5t43 -15.5h118v-237h-145v106q-87 7 -133.5 59t-46.5 125z" />
    <glyph glyph-name="uni1553" unicode="&#x1553;" horiz-adv-x="800" 
d="M296 0l-214 414q-16 32 -24 59.5t-8 58.5q0 52 25 93.5t69 65.5t101 24q56 0 100.5 -24t70 -65.5t25.5 -93.5q0 -50 -22.5 -88.5t-57 -61.5t-72.5 -27l83 -165l224 510h199l-324 -700h-175zM193 529q0 -22 15 -37t37 -15q23 0 37.5 15t14.5 37q0 23 -14.5 37.5
t-37.5 14.5q-22 0 -37 -14.5t-15 -37.5z" />
    <glyph glyph-name="uni1554" unicode="&#x1554;" horiz-adv-x="800" 
d="M50 168q0 32 8 59.5t24 58.5l214 414h175l324 -700h-199l-224 510l-83 -165q38 -4 72.5 -27t57 -61.5t22.5 -88.5q0 -52 -25.5 -93.5t-70 -65.5t-100.5 -24q-57 0 -101 24t-69 65.5t-25 93.5zM193 171q0 -22 15 -37t37 -15q23 0 37.5 15t14.5 37q0 23 -14.5 37.5
t-37.5 14.5q-22 0 -37 -14.5t-15 -37.5zM257 886q0 46 35.5 78.5t90.5 32.5t90.5 -32.5t35.5 -78.5t-35.5 -78.5t-90.5 -32.5t-90.5 32.5t-35.5 78.5zM346 886q0 -15 10.5 -25t26.5 -10q17 0 27 10t10 25t-10 25t-27 10q-16 0 -26.5 -10t-10.5 -25z" />
    <glyph glyph-name="uni1555" unicode="&#x1555;" horiz-adv-x="800" 
d="M50 168q0 32 8 59.5t24 58.5l214 414h175l324 -700h-199l-224 510l-83 -165q38 -4 72.5 -27t57 -61.5t22.5 -88.5q0 -52 -25.5 -93.5t-70 -65.5t-100.5 -24q-57 0 -101 24t-69 65.5t-25 93.5zM193 171q0 -22 15 -37t37 -15q23 0 37.5 15t14.5 37q0 23 -14.5 37.5
t-37.5 14.5q-22 0 -37 -14.5t-15 -37.5z" />
    <glyph glyph-name="uni1556" unicode="&#x1556;" horiz-adv-x="800" 
d="M50 168q0 32 8 59.5t24 58.5l214 414h175l324 -700h-199l-224 510l-83 -165q38 -4 72.5 -27t57 -61.5t22.5 -88.5q0 -52 -25.5 -93.5t-70 -65.5t-100.5 -24q-57 0 -101 24t-69 65.5t-25 93.5zM193 171q0 -22 15 -37t37 -15q23 0 37.5 15t14.5 37q0 23 -14.5 37.5
t-37.5 14.5q-22 0 -37 -14.5t-15 -37.5zM281 890q0 41 28 70t74 29t74 -29t28 -70t-28 -70t-74 -29t-74 29t-28 70z" />
    <glyph glyph-name="uni1557" unicode="&#x1557;" horiz-adv-x="795" 
d="M90 -15v199l491 209l-144 74q-6 -35 -29.5 -66.5t-61.5 -50.5t-88 -19q-53 0 -96 24.5t-67.5 68t-24.5 99.5q0 57 24.5 100t67.5 67t96 24q33 0 63.5 -7t62.5 -25l386 -216v-175zM209 523q0 -22 15 -37t37 -15q23 0 37.5 15t14.5 37q0 23 -14.5 37.5t-37.5 14.5
q-22 0 -37 -14.5t-15 -37.5z" />
    <glyph glyph-name="uni1558" unicode="&#x1558;" horiz-adv-x="795" 
d="M90 -15v199l491 209l-144 74q-6 -35 -29.5 -66.5t-61.5 -50.5t-88 -19q-53 0 -96 24.5t-67.5 68t-24.5 99.5q0 57 24.5 100t67.5 67t96 24q33 0 63.5 -7t62.5 -25l386 -216v-175zM209 523q0 -22 15 -37t37 -15q23 0 37.5 15t14.5 37q0 23 -14.5 37.5t-37.5 14.5
q-22 0 -37 -14.5t-15 -37.5zM156 890q0 41 28 70t74 29t74 -29t28 -70t-28 -70t-74 -29t-74 29t-28 70z" />
    <glyph glyph-name="uni1559" unicode="&#x1559;" horiz-adv-x="795" 
d="M25 291v175l386 216q32 18 62.5 25t63.5 7q54 0 96.5 -24t67 -67t24.5 -100q0 -56 -24.5 -99.5t-67 -68t-96.5 -24.5q-49 0 -87.5 19t-62 50.5t-29.5 66.5l-144 -74l491 -209v-199zM482 523q0 -22 15 -37t37 -15q23 0 37.5 15t14.5 37q0 23 -14.5 37.5t-37.5 14.5
q-22 0 -37 -14.5t-15 -37.5z" />
    <glyph glyph-name="uni155A" unicode="&#x155a;" horiz-adv-x="795" 
d="M25 291v175l386 216q32 18 62.5 25t63.5 7q54 0 96.5 -24t67 -67t24.5 -100q0 -56 -24.5 -99.5t-67 -68t-96.5 -24.5q-49 0 -87.5 19t-62 50.5t-29.5 66.5l-144 -74l491 -209v-199zM482 523q0 -22 15 -37t37 -15q23 0 37.5 15t14.5 37q0 23 -14.5 37.5t-37.5 14.5
q-22 0 -37 -14.5t-15 -37.5zM435 890q0 41 28 70t74 29t74 -29t28 -70t-28 -70t-74 -29t-74 29t-28 70z" />
    <glyph glyph-name="uni155D" unicode="&#x155d;" horiz-adv-x="527" 
d="M15 407v95l239 166q22 15 48 27.5t52 12.5q53 0 85.5 -34t32.5 -84q0 -55 -32 -86.5t-83 -31.5q-33 0 -59.5 16t-39.5 39l-92 -57l298 -104v-156zM323 590q0 -13 8.5 -22t22.5 -9t22.5 9t8.5 22t-8.5 22t-22.5 9t-22.5 -9t-8.5 -22z" />
    <glyph glyph-name="uni1574" unicode="&#x1574;" horiz-adv-x="764" 
d="M417 0v244q-54 -49 -130 -49q-62 0 -115 32.5t-85 90t-32 132.5q0 73 34.5 133t96.5 96t145 36q82 0 142.5 -37t94.5 -103t34 -155v-210l127 103v-210l-170 -103h-142zM238 452q0 -45 25.5 -72t67.5 -27t67.5 27t25.5 72t-25.5 72t-67.5 27t-67.5 -27t-25.5 -72z" />
    <glyph glyph-name="uni1575" unicode="&#x1575;" horiz-adv-x="764" 
d="M35 103v210l127 -103v210q0 89 34 155t95 103t142 37q83 0 145 -36t96.5 -96t34.5 -133q0 -75 -32 -132.5t-85 -90t-115 -32.5q-76 0 -130 49v-244h-142zM340 452q0 -45 25.5 -72t67.5 -27t67.5 27t25.5 72t-25.5 72t-67.5 27t-67.5 -27t-25.5 -72z" />
    <glyph glyph-name="uni1576" unicode="&#x1576;" horiz-adv-x="764" 
d="M35 103v210l127 -103v210q0 89 34 155t95 103t142 37q83 0 145 -36t96.5 -96t34.5 -133q0 -75 -32 -132.5t-85 -90t-115 -32.5q-76 0 -130 49v-244h-142zM340 452q0 -45 25.5 -72t67.5 -27t67.5 27t25.5 72t-25.5 72t-67.5 27t-67.5 -27t-25.5 -72zM331 890q0 41 28 70
t74 29t74 -29t28 -70t-28 -70t-74 -29t-74 29t-28 70z" />
    <glyph glyph-name="uni1577" unicode="&#x1577;" horiz-adv-x="764" 
d="M55 250q0 75 32 132.5t85 90t115 32.5q76 0 130 -49v244h142l170 -103v-210l-127 103v-210q0 -88 -34 -154.5t-94.5 -103.5t-142.5 -37q-83 0 -145 36t-96.5 96.5t-34.5 132.5zM238 248q0 -45 25.5 -72t67.5 -27t67.5 27t25.5 72t-25.5 72t-67.5 27t-67.5 -27t-25.5 -72z
" />
    <glyph glyph-name="uni1578" unicode="&#x1578;" horiz-adv-x="764" 
d="M55 250q0 75 32 132.5t85 90t115 32.5q76 0 130 -49v244h142l170 -103v-210l-127 103v-210q0 -88 -34 -154.5t-94.5 -103.5t-142.5 -37q-83 0 -145 36t-96.5 96.5t-34.5 132.5zM238 248q0 -45 25.5 -72t67.5 -27t67.5 27t25.5 72t-25.5 72t-67.5 27t-67.5 -27t-25.5 -72z
M408 890q0 41 28 70t74 29t74 -29t28 -70t-28 -70t-74 -29t-74 29t-28 70z" />
    <glyph glyph-name="uni1579" unicode="&#x1579;" horiz-adv-x="764" 
d="M162 280v210l-127 -103v210l170 103h142v-244q54 49 130 49q62 0 115 -32.5t85 -90t32 -132.5q0 -72 -34.5 -132.5t-96.5 -96.5t-145 -36q-81 0 -142 37t-95 103.5t-34 154.5zM340 248q0 -45 25.5 -72t67.5 -27t67.5 27t25.5 72t-25.5 72t-67.5 27t-67.5 -27t-25.5 -72z
" />
    <glyph glyph-name="uni157A" unicode="&#x157a;" horiz-adv-x="764" 
d="M162 280v210l-127 -103v210l170 103h142v-244q54 49 130 49q62 0 115 -32.5t85 -90t32 -132.5q0 -72 -34.5 -132.5t-96.5 -96.5t-145 -36q-81 0 -142 37t-95 103.5t-34 154.5zM340 248q0 -45 25.5 -72t67.5 -27t67.5 27t25.5 72t-25.5 72t-67.5 27t-67.5 -27t-25.5 -72z
M152 890q0 41 28 70t74 29t74 -29t28 -70t-28 -70t-74 -29t-74 29t-28 70z" />
    <glyph glyph-name="uni157B" unicode="&#x157b;" horiz-adv-x="558" 
d="M122 413v118l-107 -72v158l140 83h112v-151q37 35 95 35q42 0 77.5 -21.5t57 -62t21.5 -97.5q0 -54 -25 -97.5t-69.5 -69.5t-103.5 -26t-103.5 26t-69.5 72t-25 105zM262 403q0 -25 15.5 -41.5t42.5 -16.5t42.5 16.5t15.5 41.5t-15.5 41.5t-42.5 16.5t-42.5 -16.5
t-15.5 -41.5z" />
    <glyph glyph-name="uni157C" unicode="&#x157c;" horiz-adv-x="755" 
d="M80 0v700h185v-261h225v261h185v-700h-185v267h-225v-267h-185z" />
    <glyph glyph-name="uni157D" unicode="&#x157d;" horiz-adv-x="524" 
d="M10 225l169 238l-156 237h185l57 -109l58 109h177l-156 -226l170 -249h-184l-71 122l-72 -122h-177z" />
    <glyph glyph-name="uni157E" unicode="&#x157e;" horiz-adv-x="1072" 
d="M40 515q0 52 23.5 93.5t68.5 66.5t110 25h123v-132h-118q-28 0 -42.5 -15.5t-14.5 -37.5t14 -37.5t43 -15.5h118v-237h-145v106q-87 7 -133.5 59t-46.5 125zM470 0v420q0 89 34 155t95 103t142 37q83 0 145 -36t96.5 -96t34.5 -133q0 -75 -32 -132.5t-85 -90t-115 -32.5
q-76 0 -130 49v-244h-185zM648 452q0 -45 25.5 -72t67.5 -27t67.5 27t25.5 72t-25.5 72t-67.5 27t-67.5 -27t-25.5 -72zM615 886q0 46 35.5 78.5t90.5 32.5t90.5 -32.5t35.5 -78.5t-35.5 -78.5t-90.5 -32.5t-90.5 32.5t-35.5 78.5zM704 886q0 -15 10.5 -25t26.5 -10
q17 0 27 10t10 25t-10 25t-27 10q-16 0 -26.5 -10t-10.5 -25z" />
    <glyph glyph-name="uni157F" unicode="&#x157f;" horiz-adv-x="1072" 
d="M40 515q0 52 23.5 93.5t68.5 66.5t110 25h123v-132h-118q-28 0 -42.5 -15.5t-14.5 -37.5t14 -37.5t43 -15.5h118v-237h-145v106q-87 7 -133.5 59t-46.5 125zM470 0v420q0 89 34 155t95 103t142 37q83 0 145 -36t96.5 -96t34.5 -133q0 -75 -32 -132.5t-85 -90t-115 -32.5
q-76 0 -130 49v-244h-185zM648 452q0 -45 25.5 -72t67.5 -27t67.5 27t25.5 72t-25.5 72t-67.5 27t-67.5 -27t-25.5 -72z" />
    <glyph glyph-name="uni1580" unicode="&#x1580;" horiz-adv-x="1072" 
d="M40 515q0 52 23.5 93.5t68.5 66.5t110 25h123v-132h-118q-28 0 -42.5 -15.5t-14.5 -37.5t14 -37.5t43 -15.5h118v-237h-145v106q-87 7 -133.5 59t-46.5 125zM470 0v420q0 89 34 155t95 103t142 37q83 0 145 -36t96.5 -96t34.5 -133q0 -75 -32 -132.5t-85 -90t-115 -32.5
q-76 0 -130 49v-244h-185zM648 452q0 -45 25.5 -72t67.5 -27t67.5 27t25.5 72t-25.5 72t-67.5 27t-67.5 -27t-25.5 -72zM639 890q0 41 28 70t74 29t74 -29t28 -70t-28 -70t-74 -29t-74 29t-28 70z" />
    <glyph glyph-name="uni1581" unicode="&#x1581;" horiz-adv-x="1072" 
d="M40 515q0 52 23.5 93.5t68.5 66.5t110 25h123v-132h-118q-28 0 -42.5 -15.5t-14.5 -37.5t14 -37.5t43 -15.5h118v-237h-145v106q-87 7 -133.5 59t-46.5 125zM450 250q0 75 32 132.5t85 90t115 32.5q76 0 130 -49v244h185v-420q0 -88 -34 -154.5t-94.5 -103.5t-142.5 -37
q-83 0 -145 36t-96.5 96.5t-34.5 132.5zM633 248q0 -45 25.5 -72t67.5 -27t67.5 27t25.5 72t-25.5 72t-67.5 27t-67.5 -27t-25.5 -72z" />
    <glyph glyph-name="uni1582" unicode="&#x1582;" horiz-adv-x="1072" 
d="M40 515q0 52 23.5 93.5t68.5 66.5t110 25h123v-132h-118q-28 0 -42.5 -15.5t-14.5 -37.5t14 -37.5t43 -15.5h118v-237h-145v106q-87 7 -133.5 59t-46.5 125zM450 250q0 75 32 132.5t85 90t115 32.5q76 0 130 -49v244h185v-420q0 -88 -34 -154.5t-94.5 -103.5t-142.5 -37
q-83 0 -145 36t-96.5 96.5t-34.5 132.5zM633 248q0 -45 25.5 -72t67.5 -27t67.5 27t25.5 72t-25.5 72t-67.5 27t-67.5 -27t-25.5 -72zM803 890q0 41 28 70t74 29t74 -29t28 -70t-28 -70t-74 -29t-74 29t-28 70z" />
    <glyph glyph-name="uni1583" unicode="&#x1583;" horiz-adv-x="1072" 
d="M40 515q0 52 23.5 93.5t68.5 66.5t110 25h123v-132h-118q-28 0 -42.5 -15.5t-14.5 -37.5t14 -37.5t43 -15.5h118v-237h-145v106q-87 7 -133.5 59t-46.5 125zM470 280v420h185v-244q54 49 130 49q62 0 115 -32.5t85 -90t32 -132.5q0 -72 -34.5 -132.5t-96.5 -96.5
t-145 -36q-81 0 -142 37t-95 103.5t-34 154.5zM648 248q0 -45 25.5 -72t67.5 -27t67.5 27t25.5 72t-25.5 72t-67.5 27t-67.5 -27t-25.5 -72z" />
    <glyph glyph-name="uni1584" unicode="&#x1584;" horiz-adv-x="1072" 
d="M40 515q0 52 23.5 93.5t68.5 66.5t110 25h123v-132h-118q-28 0 -42.5 -15.5t-14.5 -37.5t14 -37.5t43 -15.5h118v-237h-145v106q-87 7 -133.5 59t-46.5 125zM470 280v420h185v-244q54 49 130 49q62 0 115 -32.5t85 -90t32 -132.5q0 -72 -34.5 -132.5t-96.5 -96.5
t-145 -36q-81 0 -142 37t-95 103.5t-34 154.5zM648 248q0 -45 25.5 -72t67.5 -27t67.5 27t25.5 72t-25.5 72t-67.5 27t-67.5 -27t-25.5 -72zM460 890q0 41 28 70t74 29t74 -29t28 -70t-28 -70t-74 -29t-74 29t-28 70z" />
    <glyph glyph-name="uni1585" unicode="&#x1585;" horiz-adv-x="896" 
d="M40 515q0 52 23.5 93.5t68.5 66.5t110 25h123v-132h-118q-28 0 -42.5 -15.5t-14.5 -37.5t14 -37.5t43 -15.5h118v-237h-145v106q-87 7 -133.5 59t-46.5 125zM460 413v287h145v-151q37 35 95 35q42 0 77.5 -21.5t57 -62t21.5 -97.5q0 -54 -25 -97.5t-69.5 -69.5
t-103.5 -26t-103.5 26t-69.5 72t-25 105zM600 403q0 -25 15.5 -41.5t42.5 -16.5t42.5 16.5t15.5 41.5t-15.5 41.5t-42.5 16.5t-42.5 -16.5t-15.5 -41.5z" />
    <glyph glyph-name="uni158E" unicode="&#x158e;" horiz-adv-x="1360" 
d="M328 311v100h-114q-56 0 -95 22t-59 56.5t-20 71.5q0 43 20.5 77.5t56 54.5t79.5 20q65 0 106.5 -36t41.5 -91q0 -36 -19 -61h119v-110q28 22 69 22q34 0 63 -17.5t46.5 -49.5t17.5 -76q0 -67 -42.5 -109.5t-113.5 -42.5q-70 0 -113 47t-43 122zM153 561q0 -20 12.5 -33
t30.5 -13t30.5 13t12.5 33t-12.5 33t-30.5 13t-30.5 -13t-12.5 -33zM441 294q0 -20 12.5 -33t30.5 -13t30.5 13t12.5 33t-12.5 33t-30.5 13t-30.5 -13t-12.5 -33zM725 0v433q0 83 33.5 146.5t98 99.5t158.5 36t158.5 -36t98 -99.5t33.5 -146.5v-98h-185v72q0 68 -27.5 99.5
t-77.5 31.5t-77.5 -31.5t-27.5 -99.5v-407h-185zM889 886q0 46 35.5 78.5t90.5 32.5t90.5 -32.5t35.5 -78.5t-35.5 -78.5t-90.5 -32.5t-90.5 32.5t-35.5 78.5zM978 886q0 -15 10.5 -25t26.5 -10q17 0 27 10t10 25t-10 25t-27 10q-16 0 -26.5 -10t-10.5 -25z" />
    <glyph glyph-name="uni158E.vut" horiz-adv-x="1381" 
d="M346 365v46h-132q-56 0 -95 22t-59 56.5t-20 71.5q0 43 20.5 77.5t56 54.5t79.5 20q65 0 106.5 -36t41.5 -91q0 -36 -19 -61h134v-154q0 -54 43 -54t43 54v40h116v-46q0 -70 -44 -112.5t-115 -42.5q-68 0 -112 42.5t-44 112.5zM153 561q0 -20 12.5 -33t30.5 -13t30.5 13
t12.5 33t-12.5 33t-30.5 13t-30.5 -13t-12.5 -33zM746 0v433q0 83 33.5 146.5t98 99.5t158.5 36t158.5 -36t98 -99.5t33.5 -146.5v-98h-185v72q0 68 -27.5 99.5t-77.5 31.5t-77.5 -31.5t-27.5 -99.5v-407h-185zM910 886q0 46 35.5 78.5t90.5 32.5t90.5 -32.5t35.5 -78.5
t-35.5 -78.5t-90.5 -32.5t-90.5 32.5t-35.5 78.5zM999 886q0 -15 10.5 -25t26.5 -10q17 0 27 10t10 25t-10 25t-27 10q-16 0 -26.5 -10t-10.5 -25z" />
    <glyph glyph-name="uni158F" unicode="&#x158f;" horiz-adv-x="1360" 
d="M328 311v100h-114q-56 0 -95 22t-59 56.5t-20 71.5q0 43 20.5 77.5t56 54.5t79.5 20q65 0 106.5 -36t41.5 -91q0 -36 -19 -61h119v-110q28 22 69 22q34 0 63 -17.5t46.5 -49.5t17.5 -76q0 -67 -42.5 -109.5t-113.5 -42.5q-70 0 -113 47t-43 122zM153 561q0 -20 12.5 -33
t30.5 -13t30.5 13t12.5 33t-12.5 33t-30.5 13t-30.5 -13t-12.5 -33zM441 294q0 -20 12.5 -33t30.5 -13t30.5 13t12.5 33t-12.5 33t-30.5 13t-30.5 -13t-12.5 -33zM725 0v433q0 83 33.5 146.5t98 99.5t158.5 36t158.5 -36t98 -99.5t33.5 -146.5v-98h-185v72q0 68 -27.5 99.5
t-77.5 31.5t-77.5 -31.5t-27.5 -99.5v-407h-185z" />
    <glyph glyph-name="uni158F.vut" horiz-adv-x="1381" 
d="M346 365v46h-132q-56 0 -95 22t-59 56.5t-20 71.5q0 43 20.5 77.5t56 54.5t79.5 20q65 0 106.5 -36t41.5 -91q0 -36 -19 -61h134v-154q0 -54 43 -54t43 54v40h116v-46q0 -70 -44 -112.5t-115 -42.5q-68 0 -112 42.5t-44 112.5zM153 561q0 -20 12.5 -33t30.5 -13t30.5 13
t12.5 33t-12.5 33t-30.5 13t-30.5 -13t-12.5 -33zM746 0v433q0 83 33.5 146.5t98 99.5t158.5 36t158.5 -36t98 -99.5t33.5 -146.5v-98h-185v72q0 68 -27.5 99.5t-77.5 31.5t-77.5 -31.5t-27.5 -99.5v-407h-185z" />
    <glyph glyph-name="uni1590" unicode="&#x1590;" horiz-adv-x="1360" 
d="M328 311v100h-114q-56 0 -95 22t-59 56.5t-20 71.5q0 43 20.5 77.5t56 54.5t79.5 20q65 0 106.5 -36t41.5 -91q0 -36 -19 -61h119v-110q28 22 69 22q34 0 63 -17.5t46.5 -49.5t17.5 -76q0 -67 -42.5 -109.5t-113.5 -42.5q-70 0 -113 47t-43 122zM153 561q0 -20 12.5 -33
t30.5 -13t30.5 13t12.5 33t-12.5 33t-30.5 13t-30.5 -13t-12.5 -33zM441 294q0 -20 12.5 -33t30.5 -13t30.5 13t12.5 33t-12.5 33t-30.5 13t-30.5 -13t-12.5 -33zM725 0v433q0 83 33.5 146.5t98 99.5t158.5 36t158.5 -36t98 -99.5t33.5 -146.5v-98h-185v72q0 68 -27.5 99.5
t-77.5 31.5t-77.5 -31.5t-27.5 -99.5v-407h-185zM913 890q0 41 28 70t74 29t74 -29t28 -70t-28 -70t-74 -29t-74 29t-28 70z" />
    <glyph glyph-name="uni1590.vut" horiz-adv-x="1381" 
d="M346 365v46h-132q-56 0 -95 22t-59 56.5t-20 71.5q0 43 20.5 77.5t56 54.5t79.5 20q65 0 106.5 -36t41.5 -91q0 -36 -19 -61h134v-154q0 -54 43 -54t43 54v40h116v-46q0 -70 -44 -112.5t-115 -42.5q-68 0 -112 42.5t-44 112.5zM153 561q0 -20 12.5 -33t30.5 -13t30.5 13
t12.5 33t-12.5 33t-30.5 13t-30.5 -13t-12.5 -33zM746 0v433q0 83 33.5 146.5t98 99.5t158.5 36t158.5 -36t98 -99.5t33.5 -146.5v-98h-185v72q0 68 -27.5 99.5t-77.5 31.5t-77.5 -31.5t-27.5 -99.5v-407h-185zM934 890q0 41 28 70t74 29t74 -29t28 -70t-28 -70t-74 -29
t-74 29t-28 70z" />
    <glyph glyph-name="uni1591" unicode="&#x1591;" horiz-adv-x="1360" 
d="M328 311v100h-114q-56 0 -95 22t-59 56.5t-20 71.5q0 43 20.5 77.5t56 54.5t79.5 20q65 0 106.5 -36t41.5 -91q0 -36 -19 -61h119v-110q28 22 69 22q34 0 63 -17.5t46.5 -49.5t17.5 -76q0 -67 -42.5 -109.5t-113.5 -42.5q-70 0 -113 47t-43 122zM153 561q0 -20 12.5 -33
t30.5 -13t30.5 13t12.5 33t-12.5 33t-30.5 13t-30.5 -13t-12.5 -33zM441 294q0 -20 12.5 -33t30.5 -13t30.5 13t12.5 33t-12.5 33t-30.5 13t-30.5 -13t-12.5 -33zM705 267v98h185v-72q0 -67 27.5 -99t77.5 -32t77.5 32t27.5 99v407h185v-433q0 -83 -33.5 -146.5t-98 -99.5
t-158.5 -36t-158.5 36t-98 99.5t-33.5 146.5z" />
    <glyph glyph-name="uni1591.vut" horiz-adv-x="1381" 
d="M346 365v46h-132q-56 0 -95 22t-59 56.5t-20 71.5q0 43 20.5 77.5t56 54.5t79.5 20q65 0 106.5 -36t41.5 -91q0 -36 -19 -61h134v-154q0 -54 43 -54t43 54v40h116v-46q0 -70 -44 -112.5t-115 -42.5q-68 0 -112 42.5t-44 112.5zM153 561q0 -20 12.5 -33t30.5 -13t30.5 13
t12.5 33t-12.5 33t-30.5 13t-30.5 -13t-12.5 -33zM726 267v98h185v-72q0 -67 27.5 -99t77.5 -32t77.5 32t27.5 99v407h185v-433q0 -83 -33.5 -146.5t-98 -99.5t-158.5 -36t-158.5 36t-98 99.5t-33.5 146.5z" />
    <glyph glyph-name="uni1592" unicode="&#x1592;" horiz-adv-x="1360" 
d="M328 311v100h-114q-56 0 -95 22t-59 56.5t-20 71.5q0 43 20.5 77.5t56 54.5t79.5 20q65 0 106.5 -36t41.5 -91q0 -36 -19 -61h119v-110q28 22 69 22q34 0 63 -17.5t46.5 -49.5t17.5 -76q0 -67 -42.5 -109.5t-113.5 -42.5q-70 0 -113 47t-43 122zM153 561q0 -20 12.5 -33
t30.5 -13t30.5 13t12.5 33t-12.5 33t-30.5 13t-30.5 -13t-12.5 -33zM441 294q0 -20 12.5 -33t30.5 -13t30.5 13t12.5 33t-12.5 33t-30.5 13t-30.5 -13t-12.5 -33zM705 267v98h185v-72q0 -67 27.5 -99t77.5 -32t77.5 32t27.5 99v407h185v-433q0 -83 -33.5 -146.5t-98 -99.5
t-158.5 -36t-158.5 36t-98 99.5t-33.5 146.5zM1091 890q0 41 28 70t74 29t74 -29t28 -70t-28 -70t-74 -29t-74 29t-28 70z" />
    <glyph glyph-name="uni1592.vut" horiz-adv-x="1381" 
d="M346 365v46h-132q-56 0 -95 22t-59 56.5t-20 71.5q0 43 20.5 77.5t56 54.5t79.5 20q65 0 106.5 -36t41.5 -91q0 -36 -19 -61h134v-154q0 -54 43 -54t43 54v40h116v-46q0 -70 -44 -112.5t-115 -42.5q-68 0 -112 42.5t-44 112.5zM153 561q0 -20 12.5 -33t30.5 -13t30.5 13
t12.5 33t-12.5 33t-30.5 13t-30.5 -13t-12.5 -33zM726 267v98h185v-72q0 -67 27.5 -99t77.5 -32t77.5 32t27.5 99v407h185v-433q0 -83 -33.5 -146.5t-98 -99.5t-158.5 -36t-158.5 36t-98 99.5t-33.5 146.5zM1112 890q0 41 28 70t74 29t74 -29t28 -70t-28 -70t-74 -29t-74 29
t-28 70z" />
    <glyph glyph-name="uni1593" unicode="&#x1593;" horiz-adv-x="1360" 
d="M328 311v100h-114q-56 0 -95 22t-59 56.5t-20 71.5q0 43 20.5 77.5t56 54.5t79.5 20q65 0 106.5 -36t41.5 -91q0 -36 -19 -61h119v-110q28 22 69 22q34 0 63 -17.5t46.5 -49.5t17.5 -76q0 -67 -42.5 -109.5t-113.5 -42.5q-70 0 -113 47t-43 122zM153 561q0 -20 12.5 -33
t30.5 -13t30.5 13t12.5 33t-12.5 33t-30.5 13t-30.5 -13t-12.5 -33zM441 294q0 -20 12.5 -33t30.5 -13t30.5 13t12.5 33t-12.5 33t-30.5 13t-30.5 -13t-12.5 -33zM725 267v433h185v-407q0 -67 27.5 -99t77.5 -32t77.5 32t27.5 99v72h185v-98q0 -83 -33.5 -146.5t-98 -99.5
t-158.5 -36t-158.5 36t-98 99.5t-33.5 146.5z" />
    <glyph glyph-name="uni1593.vut" horiz-adv-x="1381" 
d="M346 365v46h-132q-56 0 -95 22t-59 56.5t-20 71.5q0 43 20.5 77.5t56 54.5t79.5 20q65 0 106.5 -36t41.5 -91q0 -36 -19 -61h134v-154q0 -54 43 -54t43 54v40h116v-46q0 -70 -44 -112.5t-115 -42.5q-68 0 -112 42.5t-44 112.5zM153 561q0 -20 12.5 -33t30.5 -13t30.5 13
t12.5 33t-12.5 33t-30.5 13t-30.5 -13t-12.5 -33zM746 267v433h185v-407q0 -67 27.5 -99t77.5 -32t77.5 32t27.5 99v72h185v-98q0 -83 -33.5 -146.5t-98 -99.5t-158.5 -36t-158.5 36t-98 99.5t-33.5 146.5z" />
    <glyph glyph-name="uni1594" unicode="&#x1594;" horiz-adv-x="1360" 
d="M328 311v100h-114q-56 0 -95 22t-59 56.5t-20 71.5q0 43 20.5 77.5t56 54.5t79.5 20q65 0 106.5 -36t41.5 -91q0 -36 -19 -61h119v-110q28 22 69 22q34 0 63 -17.5t46.5 -49.5t17.5 -76q0 -67 -42.5 -109.5t-113.5 -42.5q-70 0 -113 47t-43 122zM153 561q0 -20 12.5 -33
t30.5 -13t30.5 13t12.5 33t-12.5 33t-30.5 13t-30.5 -13t-12.5 -33zM441 294q0 -20 12.5 -33t30.5 -13t30.5 13t12.5 33t-12.5 33t-30.5 13t-30.5 -13t-12.5 -33zM725 267v433h185v-407q0 -67 27.5 -99t77.5 -32t77.5 32t27.5 99v72h185v-98q0 -83 -33.5 -146.5t-98 -99.5
t-158.5 -36t-158.5 36t-98 99.5t-33.5 146.5zM715 890q0 41 28 70t74 29t74 -29t28 -70t-28 -70t-74 -29t-74 29t-28 70z" />
    <glyph glyph-name="uni1594.vut" horiz-adv-x="1381" 
d="M346 365v46h-132q-56 0 -95 22t-59 56.5t-20 71.5q0 43 20.5 77.5t56 54.5t79.5 20q65 0 106.5 -36t41.5 -91q0 -36 -19 -61h134v-154q0 -54 43 -54t43 54v40h116v-46q0 -70 -44 -112.5t-115 -42.5q-68 0 -112 42.5t-44 112.5zM153 561q0 -20 12.5 -33t30.5 -13t30.5 13
t12.5 33t-12.5 33t-30.5 13t-30.5 -13t-12.5 -33zM746 267v433h185v-407q0 -67 27.5 -99t77.5 -32t77.5 32t27.5 99v72h185v-98q0 -83 -33.5 -146.5t-98 -99.5t-158.5 -36t-158.5 36t-98 99.5t-33.5 146.5zM736 890q0 41 28 70t74 29t74 -29t28 -70t-28 -70t-74 -29t-74 29
t-28 70z" />
    <glyph glyph-name="uni1595" unicode="&#x1595;" horiz-adv-x="680" 
d="M328 311v100h-114q-56 0 -95 22t-59 56.5t-20 71.5q0 43 20.5 77.5t56 54.5t79.5 20q65 0 106.5 -36t41.5 -91q0 -36 -19 -61h119v-110q28 22 69 22q34 0 63 -17.5t46.5 -49.5t17.5 -76q0 -67 -42.5 -109.5t-113.5 -42.5q-70 0 -113 47t-43 122zM153 561q0 -20 12.5 -33
t30.5 -13t30.5 13t12.5 33t-12.5 33t-30.5 13t-30.5 -13t-12.5 -33zM441 294q0 -20 12.5 -33t30.5 -13t30.5 13t12.5 33t-12.5 33t-30.5 13t-30.5 -13t-12.5 -33z" />
    <glyph glyph-name="uni1595.vut" horiz-adv-x="696" 
d="M346 365v46h-132q-56 0 -95 22t-59 56.5t-20 71.5q0 43 20.5 77.5t56 54.5t79.5 20q65 0 106.5 -36t41.5 -91q0 -36 -19 -61h134v-154q0 -54 43 -54t43 54v40h116v-46q0 -70 -44 -112.5t-115 -42.5q-68 0 -112 42.5t-44 112.5zM153 561q0 -20 12.5 -33t30.5 -13t30.5 13
t12.5 33t-12.5 33t-30.5 13t-30.5 -13t-12.5 -33z" />
    <glyph glyph-name="uni1596" unicode="&#x1596;" horiz-adv-x="1016" 
d="M40 561q0 43 20.5 77.5t56 54.5t79.5 20q65 0 106.5 -36t41.5 -91q0 -36 -19 -61h62q-19 25 -19 61q0 55 42 91t106 36q65 0 106.5 -36t41.5 -91q0 -36 -19 -61h134v-154q0 -54 43 -54t43 54v40h116v-46q0 -70 -44 -112.5t-115 -42.5q-68 0 -112 42.5t-44 112.5v46h-452
q-56 0 -95 22t-59 56.5t-20 71.5zM153 561q0 -20 12.5 -33t30.5 -13t30.5 13t12.5 33t-12.5 33t-30.5 13t-30.5 -13t-12.5 -33zM473 561q0 -20 12.5 -33t30.5 -13t30.5 13t12.5 33t-12.5 33t-30.5 13t-30.5 -13t-12.5 -33z" />
    <glyph glyph-name="uni15A0" unicode="&#x15a0;" horiz-adv-x="761" 
d="M55 245q0 68 31 123.5t92 88.5t150 33h198l-108 140h210l103 -170v-142h-398q-43 0 -65 -19t-22 -54q0 -34 23 -53.5t64 -19.5h103v-172h-108q-89 0 -150 33t-92 88.5t-31 123.5z" />
    <glyph glyph-name="uni15A1" unicode="&#x15a1;" horiz-adv-x="761" 
d="M55 245q0 68 31 123.5t92 88.5t150 33h198l-108 140h210l103 -170v-142h-398q-43 0 -65 -19t-22 -54q0 -34 23 -53.5t64 -19.5h103v-172h-108q-89 0 -150 33t-92 88.5t-31 123.5zM391 820q0 41 28 70t74 29t74 -29t28 -70t-28 -70t-74 -29t-74 29t-28 70z" />
    <glyph glyph-name="uni15A2" unicode="&#x15a2;" horiz-adv-x="761" 
d="M30 30v142h398q43 0 65 19.5t22 53.5q0 35 -23 54t-64 19h-103v172h108q89 0 150 -33t92 -88.5t31 -123.5t-31 -123.5t-92 -88.5t-150 -33h-198l108 -140h-210z" />
    <glyph glyph-name="uni15A3" unicode="&#x15a3;" horiz-adv-x="761" 
d="M30 30v142h398q43 0 65 19.5t22 53.5q0 35 -23 54t-64 19h-103v172h108q89 0 150 -33t92 -88.5t31 -123.5t-31 -123.5t-92 -88.5t-150 -33h-198l108 -140h-210zM291 680q0 41 28 70t74 29t74 -29t28 -70t-28 -70t-74 -29t-74 29t-28 70z" />
    <glyph glyph-name="uni15A4" unicode="&#x15a4;" horiz-adv-x="761" 
d="M55 245q0 68 31 123.5t92 88.5t150 33h108v-172h-103q-41 0 -64 -19t-23 -54q0 -34 22 -53.5t65 -19.5h398v-142l-103 -170h-210l108 140h-198q-89 0 -150 33t-92 88.5t-31 123.5z" />
    <glyph glyph-name="uni15A5" unicode="&#x15a5;" horiz-adv-x="761" 
d="M55 245q0 68 31 123.5t92 88.5t150 33h108v-172h-103q-41 0 -64 -19t-23 -54q0 -34 22 -53.5t65 -19.5h398v-142l-103 -170h-210l108 140h-198q-89 0 -150 33t-92 88.5t-31 123.5zM266 680q0 41 28 70t74 29t74 -29t28 -70t-28 -70t-74 -29t-74 29t-28 70z" />
    <glyph glyph-name="uni15A6" unicode="&#x15a6;" horiz-adv-x="520" 
d="M264 210l81 120h-103q-65 0 -110 25t-68.5 67t-23.5 93q0 52 23.5 93.5t68.5 66.5t110 25h63v-132h-58q-28 0 -42.5 -15.5t-14.5 -37.5t14 -37.5t43 -15.5h258v-112l-83 -140h-158z" />
    <glyph glyph-name="uni166D" unicode="&#x166d;" horiz-adv-x="694" 
d="M5 0l239 354l-226 346h221l115 -190l107 190h215l-226 -338l239 -362h-221l-129 206l-119 -206h-215z" />
    <glyph glyph-name="uni166F" unicode="&#x166f;" horiz-adv-x="1072" 
d="M40 515q0 52 23.5 93.5t68.5 66.5t110 25h123v-132h-118q-28 0 -42.5 -15.5t-14.5 -37.5t14 -37.5t43 -15.5h118v-237h-145v106q-87 7 -133.5 59t-46.5 125zM450 450q0 73 34.5 133t96.5 96t145 36q82 0 142.5 -37t94.5 -103t34 -155v-420h-185v244q-54 -49 -130 -49
q-62 0 -115 32.5t-85 90t-32 132.5zM633 452q0 -45 25.5 -72t67.5 -27t67.5 27t25.5 72t-25.5 72t-67.5 27t-67.5 -27t-25.5 -72z" />
    <glyph glyph-name="uni1670" unicode="&#x1670;" horiz-adv-x="1359" 
d="M704 335v98q0 83 33.5 146.5t98 99.5t158.5 36t158.5 -36t98 -99.5t33.5 -146.5v-433h-185v407q0 68 -27.5 99.5t-77.5 31.5t-77.5 -31.5t-27.5 -99.5v-72h-185zM328 311v100h-114q-56 0 -95 22t-59 56.5t-20 71.5q0 43 20.5 77.5t56 54.5t79.5 20q65 0 106.5 -36
t41.5 -91q0 -36 -19 -61h119v-110q28 22 69 22q34 0 63 -17.5t46.5 -49.5t17.5 -76q0 -67 -42.5 -109.5t-113.5 -42.5q-70 0 -113 47t-43 122zM153 561q0 -20 12.5 -33t30.5 -13t30.5 13t12.5 33t-12.5 33t-30.5 13t-30.5 -13t-12.5 -33zM441 294q0 -20 12.5 -33t30.5 -13
t30.5 13t12.5 33t-12.5 33t-30.5 13t-30.5 -13t-12.5 -33z" />
    <glyph glyph-name="uni1670.vut" horiz-adv-x="1381" 
d="M726 335v98q0 83 33.5 146.5t98 99.5t158.5 36t158.5 -36t98 -99.5t33.5 -146.5v-433h-185v407q0 68 -27.5 99.5t-77.5 31.5t-77.5 -31.5t-27.5 -99.5v-72h-185zM346 365v46h-132q-56 0 -95 22t-59 56.5t-20 71.5q0 43 20.5 77.5t56 54.5t79.5 20q65 0 106.5 -36
t41.5 -91q0 -36 -19 -61h134v-154q0 -54 43 -54t43 54v40h116v-46q0 -70 -44 -112.5t-115 -42.5q-68 0 -112 42.5t-44 112.5zM153 561q0 -20 12.5 -33t30.5 -13t30.5 13t12.5 33t-12.5 33t-30.5 13t-30.5 -13t-12.5 -33z" />
    <glyph glyph-name="uni1671" unicode="&#x1671;" horiz-adv-x="1701" 
d="M40 561q0 43 20.5 77.5t56 54.5t79.5 20q65 0 106.5 -36t41.5 -91q0 -36 -19 -61h62q-19 25 -19 61q0 55 42 91t106 36q65 0 106.5 -36t41.5 -91q0 -36 -19 -61h134v-154q0 -54 43 -54t43 54v40h116v-46q0 -70 -44 -112.5t-115 -42.5q-68 0 -112 42.5t-44 112.5v46h-452
q-56 0 -95 22t-59 56.5t-20 71.5zM153 561q0 -20 12.5 -33t30.5 -13t30.5 13t12.5 33t-12.5 33t-30.5 13t-30.5 -13t-12.5 -33zM473 561q0 -20 12.5 -33t30.5 -13t30.5 13t12.5 33t-12.5 33t-30.5 13t-30.5 -13t-12.5 -33zM1066 0v433q0 83 33.5 146.5t98 99.5t158.5 36
t158.5 -36t98 -99.5t33.5 -146.5v-98h-185v72q0 68 -27.5 99.5t-77.5 31.5t-77.5 -31.5t-27.5 -99.5v-407h-185z" />
    <glyph glyph-name="uni1672" unicode="&#x1672;" horiz-adv-x="1701" 
d="M40 561q0 43 20.5 77.5t56 54.5t79.5 20q65 0 106.5 -36t41.5 -91q0 -36 -19 -61h62q-19 25 -19 61q0 55 42 91t106 36q65 0 106.5 -36t41.5 -91q0 -36 -19 -61h134v-154q0 -54 43 -54t43 54v40h116v-46q0 -70 -44 -112.5t-115 -42.5q-68 0 -112 42.5t-44 112.5v46h-452
q-56 0 -95 22t-59 56.5t-20 71.5zM153 561q0 -20 12.5 -33t30.5 -13t30.5 13t12.5 33t-12.5 33t-30.5 13t-30.5 -13t-12.5 -33zM473 561q0 -20 12.5 -33t30.5 -13t30.5 13t12.5 33t-12.5 33t-30.5 13t-30.5 -13t-12.5 -33zM1066 0v433q0 83 33.5 146.5t98 99.5t158.5 36
t158.5 -36t98 -99.5t33.5 -146.5v-98h-185v72q0 68 -27.5 99.5t-77.5 31.5t-77.5 -31.5t-27.5 -99.5v-407h-185zM1254 890q0 41 28 70t74 29t74 -29t28 -70t-28 -70t-74 -29t-74 29t-28 70z" />
    <glyph glyph-name="uni1673" unicode="&#x1673;" horiz-adv-x="1701" 
d="M40 561q0 43 20.5 77.5t56 54.5t79.5 20q65 0 106.5 -36t41.5 -91q0 -36 -19 -61h62q-19 25 -19 61q0 55 42 91t106 36q65 0 106.5 -36t41.5 -91q0 -36 -19 -61h134v-154q0 -54 43 -54t43 54v40h116v-46q0 -70 -44 -112.5t-115 -42.5q-68 0 -112 42.5t-44 112.5v46h-452
q-56 0 -95 22t-59 56.5t-20 71.5zM153 561q0 -20 12.5 -33t30.5 -13t30.5 13t12.5 33t-12.5 33t-30.5 13t-30.5 -13t-12.5 -33zM473 561q0 -20 12.5 -33t30.5 -13t30.5 13t12.5 33t-12.5 33t-30.5 13t-30.5 -13t-12.5 -33zM1046 267v98h185v-72q0 -67 27.5 -99t77.5 -32
t77.5 32t27.5 99v407h185v-433q0 -83 -33.5 -146.5t-98 -99.5t-158.5 -36t-158.5 36t-98 99.5t-33.5 146.5z" />
    <glyph glyph-name="uni1674" unicode="&#x1674;" horiz-adv-x="1701" 
d="M40 561q0 43 20.5 77.5t56 54.5t79.5 20q65 0 106.5 -36t41.5 -91q0 -36 -19 -61h62q-19 25 -19 61q0 55 42 91t106 36q65 0 106.5 -36t41.5 -91q0 -36 -19 -61h134v-154q0 -54 43 -54t43 54v40h116v-46q0 -70 -44 -112.5t-115 -42.5q-68 0 -112 42.5t-44 112.5v46h-452
q-56 0 -95 22t-59 56.5t-20 71.5zM153 561q0 -20 12.5 -33t30.5 -13t30.5 13t12.5 33t-12.5 33t-30.5 13t-30.5 -13t-12.5 -33zM473 561q0 -20 12.5 -33t30.5 -13t30.5 13t12.5 33t-12.5 33t-30.5 13t-30.5 -13t-12.5 -33zM1046 267v98h185v-72q0 -67 27.5 -99t77.5 -32
t77.5 32t27.5 99v407h185v-433q0 -83 -33.5 -146.5t-98 -99.5t-158.5 -36t-158.5 36t-98 99.5t-33.5 146.5zM1432 890q0 41 28 70t74 29t74 -29t28 -70t-28 -70t-74 -29t-74 29t-28 70z" />
    <glyph glyph-name="uni1675" unicode="&#x1675;" horiz-adv-x="1701" 
d="M40 561q0 43 20.5 77.5t56 54.5t79.5 20q65 0 106.5 -36t41.5 -91q0 -36 -19 -61h62q-19 25 -19 61q0 55 42 91t106 36q65 0 106.5 -36t41.5 -91q0 -36 -19 -61h134v-154q0 -54 43 -54t43 54v40h116v-46q0 -70 -44 -112.5t-115 -42.5q-68 0 -112 42.5t-44 112.5v46h-452
q-56 0 -95 22t-59 56.5t-20 71.5zM153 561q0 -20 12.5 -33t30.5 -13t30.5 13t12.5 33t-12.5 33t-30.5 13t-30.5 -13t-12.5 -33zM473 561q0 -20 12.5 -33t30.5 -13t30.5 13t12.5 33t-12.5 33t-30.5 13t-30.5 -13t-12.5 -33zM1066 267v433h185v-407q0 -67 27.5 -99t77.5 -32
t77.5 32t27.5 99v72h185v-98q0 -83 -33.5 -146.5t-98 -99.5t-158.5 -36t-158.5 36t-98 99.5t-33.5 146.5z" />
    <glyph glyph-name="uni1676" unicode="&#x1676;" horiz-adv-x="1701" 
d="M40 561q0 43 20.5 77.5t56 54.5t79.5 20q65 0 106.5 -36t41.5 -91q0 -36 -19 -61h62q-19 25 -19 61q0 55 42 91t106 36q65 0 106.5 -36t41.5 -91q0 -36 -19 -61h134v-154q0 -54 43 -54t43 54v40h116v-46q0 -70 -44 -112.5t-115 -42.5q-68 0 -112 42.5t-44 112.5v46h-452
q-56 0 -95 22t-59 56.5t-20 71.5zM153 561q0 -20 12.5 -33t30.5 -13t30.5 13t12.5 33t-12.5 33t-30.5 13t-30.5 -13t-12.5 -33zM473 561q0 -20 12.5 -33t30.5 -13t30.5 13t12.5 33t-12.5 33t-30.5 13t-30.5 -13t-12.5 -33zM1066 267v433h185v-407q0 -67 27.5 -99t77.5 -32
t77.5 32t27.5 99v72h185v-98q0 -83 -33.5 -146.5t-98 -99.5t-158.5 -36t-158.5 36t-98 99.5t-33.5 146.5zM1056 890q0 41 28 70t74 29t74 -29t28 -70t-28 -70t-74 -29t-74 29t-28 70z" />
    <glyph glyph-name="sylring" 
d="M204 886q0 46 35.5 78.5t90.5 32.5t90.5 -32.5t35.5 -78.5t-35.5 -78.5t-90.5 -32.5t-90.5 32.5t-35.5 78.5zM293 886q0 -15 10.5 -25t26.5 -10q17 0 27 10t10 25t-10 25t-27 10q-16 0 -26.5 -10t-10.5 -25z" />
    <glyph glyph-name="syldotaccent" 
d="M228 890q0 41 28 70t74 29t74 -29t28 -70t-28 -70t-74 -29t-74 29t-28 70z" />
    <glyph glyph-name="uni00B4" unicode="&#xb4;" 
d="M276 610l66 170h158l-110 -170h-114z" />
    <glyph glyph-name="uni02D8" unicode="&#x2d8;" 
d="M166 770h112q4 -30 16 -45.5t36 -15.5t36 15.5t16 45.5h112q-6 -83 -46.5 -126.5t-117.5 -43.5q-76 0 -117 43.5t-47 126.5z" />
    <glyph glyph-name="uni02C7" unicode="&#x2c7;" 
d="M161 770h112l57 -65l57 65h112l-110 -170h-118z" />
    <glyph glyph-name="uni02C7.alt" 
d="M332 730h164l-66 -328h-122z" />
    <glyph glyph-name="uni00B8" unicode="&#xb8;" 
d="M237 -153l20 59q11 -4 21.5 -5.5t19.5 -1.5q23 0 23 12q0 6 -9.5 12t-41.5 10l28 85l74 -14l-9 -40q35 -4 54.5 -23t19.5 -42q0 -27 -29 -45.5t-87 -18.5q-23 0 -45 3.5t-39 8.5z" />
    <glyph glyph-name="uni02C6" unicode="&#x2c6;" 
d="M161 610l110 170h118l110 -170h-112l-57 65l-57 -65h-112z" />
    <glyph glyph-name="commaaccent" 
d="M223 -169q0 41 29.5 70t77.5 29t77.5 -29.5t29.5 -77.5q0 -23 -11.5 -55.5t-29.5 -65t-36 -55.5h-117q12 20 24 45t19 48q-26 10 -44.5 34t-18.5 57z" />
    <glyph glyph-name="commaaccent.alt" 
d="M437 699q0 -40 -29.5 -69.5t-77.5 -29.5t-77.5 29.5t-29.5 77.5q0 23 11.5 55.5t29.5 65.5t36 55h117q-12 -19 -23.5 -44.5t-19.5 -48.5q26 -10 44.5 -34t18.5 -57z" />
    <glyph glyph-name="uni00A8" unicode="&#xa8;" 
d="M144 685q0 32 22 54t55 22t55 -22t22 -54q0 -31 -22 -53.5t-55 -22.5t-55 22.5t-22 53.5zM362 685q0 32 22 54t55 22t55 -22t22 -54q0 -31 -22 -53.5t-55 -22.5t-55 22.5t-22 53.5z" />
    <glyph glyph-name="uni02D9" unicode="&#x2d9;" 
d="M223 704q0 43 29.5 73.5t77.5 30.5t77.5 -30.5t29.5 -73.5t-29.5 -73.5t-77.5 -30.5t-77.5 30.5t-29.5 73.5z" />
    <glyph glyph-name="dotbelow" 
d="M223 -174q0 43 29.5 73.5t77.5 30.5t77.5 -30.5t29.5 -73.5t-29.5 -73.5t-77.5 -30.5t-77.5 30.5t-29.5 73.5z" />
    <glyph glyph-name="uni0060" unicode="`" 
d="M160 780h158l66 -170h-114z" />
    <glyph glyph-name="uni02DD" unicode="&#x2dd;" 
d="M204 610l46 170h138l-80 -170h-104zM364 610l46 170h138l-80 -170h-104z" />
    <glyph glyph-name="uni00AF" unicode="&#xaf;" 
d="M161 648v125h338v-125h-338z" />
    <glyph glyph-name="uni02C9" unicode="&#x2c9;" 
d="M161 648v125h338v-125h-338z" />
    <glyph glyph-name="uni02DB" unicode="&#x2db;" 
d="M209 27l121 -27q-55 -21 -85 -39.5t-41 -33.5t-11 -28q0 -30 34 -30q27 0 67 24l21 -96q-25 -14 -55.5 -24t-64.5 -10q-55 0 -90 30t-35 76q0 50 37.5 89.5t101.5 68.5z" />
    <glyph glyph-name="uni02DA" unicode="&#x2da;" 
d="M207 707q0 47 35 79.5t88 32.5t88 -32.5t35 -79.5t-35 -79.5t-88 -32.5t-88 32.5t-35 79.5zM296 707q0 -16 9.5 -27t24.5 -11t24.5 11t9.5 27q0 17 -9.5 27.5t-24.5 10.5t-24.5 -10.5t-9.5 -27.5z" />
    <glyph glyph-name="ringacute" 
d="M286 869l66 170h158l-110 -170h-114zM207 707q0 47 35 79.5t88 32.5t88 -32.5t35 -79.5t-35 -79.5t-88 -32.5t-88 32.5t-35 79.5zM296 707q0 -16 9.5 -27t24.5 -11t24.5 11t9.5 27q0 17 -9.5 27.5t-24.5 10.5t-24.5 -10.5t-9.5 -27.5z" />
    <glyph glyph-name="uni02DC" unicode="&#x2dc;" 
d="M147 610q3 44 15.5 80t37.5 58t65 22q35 0 59.5 -15t42 -30.5t31.5 -15.5q16 0 24 13t12 43h79q-2 -43 -15 -79.5t-38 -58.5t-65 -22q-35 0 -59.5 15.5t-42 30.5t-31.5 15q-29 0 -36 -56h-79z" />
    <glyph glyph-name="uni00B4.cap" 
d="M271 770l76 145h168l-125 -145h-119z" />
    <glyph glyph-name="uni02D8.cap" 
d="M156 905h112q2 -18 16.5 -28t45.5 -10q30 0 44.5 10t17.5 28h112q-11 -145 -174 -145t-174 145z" />
    <glyph glyph-name="uni02C7.cap" 
d="M510 905l-115 -145h-130l-115 145h118l62 -54l62 54h118z" />
    <glyph glyph-name="uni02C6.cap" 
d="M150 770l115 145h130l115 -145h-118l-62 54l-62 -54h-118z" />
    <glyph glyph-name="uni00A8.cap" 
d="M134 850q0 32 22 54t55 22t55 -22t22 -54q0 -31 -22 -53.5t-55 -22.5t-55 22.5t-22 53.5zM372 850q0 32 22 54t55 22t55 -22t22 -54q0 -31 -22 -53.5t-55 -22.5t-55 22.5t-22 53.5z" />
    <glyph glyph-name="uni02D9.cap" 
d="M223 864q0 43 29.5 73.5t77.5 30.5t77.5 -30.5t29.5 -73.5t-29.5 -73.5t-77.5 -30.5t-77.5 30.5t-29.5 73.5z" />
    <glyph glyph-name="uni0060.cap" 
d="M145 915h168l76 -145h-119z" />
    <glyph glyph-name="uni02DD.cap" 
d="M196 770l66 145h148l-105 -145h-109zM366 770l66 145h148l-105 -145h-109z" />
    <glyph glyph-name="uni00AF.cap" 
d="M151 788v125h358v-125h-358z" />
    <glyph glyph-name="uni02DA.cap" 
d="M204 866q0 46 35.5 78.5t90.5 32.5t90.5 -32.5t35.5 -78.5t-35.5 -78.5t-90.5 -32.5t-90.5 32.5t-35.5 78.5zM293 866q0 -15 10.5 -25t26.5 -10q17 0 27 10t10 25t-10 25t-27 10q-16 0 -26.5 -10t-10.5 -25z" />
    <glyph glyph-name="ringacute.cap" 
d="M277 1012l76 145h168l-125 -145h-119zM204 866q0 46 35.5 78.5t90.5 32.5t90.5 -32.5t35.5 -78.5t-35.5 -78.5t-90.5 -32.5t-90.5 32.5t-35.5 78.5zM293 866q0 -15 10.5 -25t26.5 -10q17 0 27 10t10 25t-10 25t-27 10q-16 0 -26.5 -10t-10.5 -25z" />
    <glyph glyph-name="uni02DC.cap" 
d="M132 765q3 44 17 80t41.5 58t69.5 22q28 0 49 -9t38 -21.5t32.5 -21.5t31.5 -9t25 13t13 43h79q-2 -43 -16.5 -79.5t-41.5 -58.5t-70 -22q-28 0 -49.5 9t-38 21.5t-32 21.5t-31.5 9q-29 0 -38 -56h-79z" />
    <glyph glyph-name="uni002E" unicode="." horiz-adv-x="314" 
d="M50 89q0 43 29.5 73.5t77.5 30.5t77.5 -30.5t29.5 -73.5t-29.5 -73.5t-77.5 -30.5t-77.5 30.5t-29.5 73.5z" />
    <glyph glyph-name="uni002E.tab" horiz-adv-x="600" 
d="M193 89q0 43 29.5 73.5t77.5 30.5t77.5 -30.5t29.5 -73.5t-29.5 -73.5t-77.5 -30.5t-77.5 30.5t-29.5 73.5z" />
    <glyph glyph-name="uni002C" unicode="," horiz-adv-x="314" 
d="M50 89q0 43 29.5 73.5t77.5 30.5t77.5 -31t29.5 -83q0 -33 -13.5 -74.5t-34 -82t-42.5 -72.5h-114q15 30 29.5 69t23.5 74q-26 11 -44.5 36.5t-18.5 59.5z" />
    <glyph glyph-name="uni002C.tab" horiz-adv-x="600" 
d="M193 89q0 43 29.5 73.5t77.5 30.5t77.5 -31t29.5 -83q0 -33 -13.5 -74.5t-34 -82t-42.5 -72.5h-114q15 30 29.5 69t23.5 74q-26 11 -44.5 36.5t-18.5 59.5z" />
    <glyph glyph-name="uni003A" unicode=":" horiz-adv-x="314" 
d="M50 89q0 43 29.5 73.5t77.5 30.5t77.5 -30.5t29.5 -73.5t-29.5 -73.5t-77.5 -30.5t-77.5 30.5t-29.5 73.5zM50 441q0 43 29.5 73.5t77.5 30.5t77.5 -30.5t29.5 -73.5t-29.5 -73.5t-77.5 -30.5t-77.5 30.5t-29.5 73.5z" />
    <glyph glyph-name="uni003B" unicode=";" horiz-adv-x="314" 
d="M50 89q0 43 29.5 73.5t77.5 30.5t77.5 -31t29.5 -83q0 -33 -13.5 -74.5t-34 -82t-42.5 -72.5h-114q15 30 29.5 69t23.5 74q-26 11 -44.5 36.5t-18.5 59.5zM50 441q0 43 29.5 73.5t77.5 30.5t77.5 -30.5t29.5 -73.5t-29.5 -73.5t-77.5 -30.5t-77.5 30.5t-29.5 73.5z" />
    <glyph glyph-name="uni2026" unicode="&#x2026;" horiz-adv-x="854" 
d="M50 89q0 43 29.5 73.5t77.5 30.5t77.5 -30.5t29.5 -73.5t-29.5 -73.5t-77.5 -30.5t-77.5 30.5t-29.5 73.5zM320 89q0 43 29.5 73.5t77.5 30.5t77.5 -30.5t29.5 -73.5t-29.5 -73.5t-77.5 -30.5t-77.5 30.5t-29.5 73.5zM590 89q0 43 29.5 73.5t77.5 30.5t77.5 -30.5
t29.5 -73.5t-29.5 -73.5t-77.5 -30.5t-77.5 30.5t-29.5 73.5z" />
    <glyph glyph-name="uni0021" unicode="!" horiz-adv-x="314" 
d="M64 530v170h186v-170l-30 -270h-126zM50 89q0 43 29.5 73.5t77.5 30.5t77.5 -30.5t29.5 -73.5t-29.5 -73.5t-77.5 -30.5t-77.5 30.5t-29.5 73.5z" />
    <glyph glyph-name="uni00A1" unicode="&#xa1;" horiz-adv-x="314" 
d="M50 441q0 43 29.5 73.5t77.5 30.5t77.5 -30.5t29.5 -73.5t-29.5 -73.5t-77.5 -30.5t-77.5 30.5t-29.5 73.5zM64 -150v150l30 270h126l30 -270v-150h-186z" />
    <glyph glyph-name="uni003F" unicode="?" horiz-adv-x="568" 
d="M20 611q53 48 121 76t136 28q79 0 134 -29t83.5 -76t28.5 -102q0 -62 -36 -105.5t-113 -84.5q-26 -14 -36.5 -25.5t-12.5 -25.5l-1 -6l-144 -1l-3 14q-1 8 -3 21t-2 26q0 26 15 53t70 57q36 20 53.5 32.5t23 22t5.5 18.5q0 18 -16.5 30t-52.5 12q-40 0 -77.5 -17
t-72.5 -46zM149 89q0 43 29.5 73.5t77.5 30.5t77.5 -30.5t29.5 -73.5t-29.5 -73.5t-77.5 -30.5t-77.5 30.5t-29.5 73.5z" />
    <glyph glyph-name="uni00BF" unicode="&#xbf;" horiz-adv-x="568" 
d="M180 441q0 43 29.5 73.5t77.5 30.5t77.5 -30.5t29.5 -73.5t-29.5 -73.5t-77.5 -30.5t-77.5 30.5t-29.5 73.5zM20 30q0 61 36.5 107.5t112.5 84.5q26 13 36.5 25t12.5 26l1 6l144 1l3 -14q2 -8 3.5 -21t1.5 -26q0 -17 -6 -36.5t-24 -38.5t-55 -35q-52 -22 -67 -37.5
t-15 -26.5q0 -19 16.5 -30t52.5 -11q40 0 78 17t72 46l100 -128q-53 -48 -121 -76t-136 -28q-79 0 -134 26.5t-83.5 71t-28.5 97.5z" />
    <glyph glyph-name="uni2039" unicode="&#x2039;" horiz-adv-x="344" 
d="M25 233v64l113 163h191l-146 -195l146 -195h-191z" />
    <glyph glyph-name="uni2039.cap" horiz-adv-x="344" 
d="M25 273v64l113 163h191l-146 -195l146 -195h-191z" />
    <glyph glyph-name="uni203A" unicode="&#x203a;" horiz-adv-x="344" 
d="M15 70l146 195l-146 195h191l113 -163v-64l-113 -163h-191z" />
    <glyph glyph-name="uni203A.cap" horiz-adv-x="344" 
d="M15 110l146 195l-146 195h191l113 -163v-64l-113 -163h-191z" />
    <glyph glyph-name="uni0027" unicode="'" horiz-adv-x="299" 
d="M55 730h189l-26 -328h-137z" />
    <glyph glyph-name="uni0022" unicode="&#x22;" horiz-adv-x="539" 
d="M55 730h189l-26 -328h-137zM295 730h189l-26 -328h-137z" />
    <glyph glyph-name="uni2018" unicode="&#x2018;" horiz-adv-x="314" 
d="M50 501q0 33 13.5 74.5t34.5 82.5t42 72h114q-15 -30 -29.5 -69t-23.5 -74q26 -10 44.5 -35.5t18.5 -60.5q0 -43 -29.5 -73.5t-77.5 -30.5t-77.5 31t-29.5 83z" />
    <glyph glyph-name="uni2019" unicode="&#x2019;" horiz-adv-x="314" 
d="M50 641q0 43 29.5 73.5t77.5 30.5t77.5 -31t29.5 -83q0 -33 -13.5 -74.5t-34 -82t-42.5 -72.5h-114q15 30 29.5 69t23.5 74q-26 11 -44.5 36.5t-18.5 59.5z" />
    <glyph glyph-name="uni201C" unicode="&#x201c;" horiz-adv-x="564" 
d="M50 501q0 33 13.5 74.5t34.5 82.5t42 72h114q-15 -30 -29.5 -69t-23.5 -74q26 -10 44.5 -35.5t18.5 -60.5q0 -43 -29.5 -73.5t-77.5 -30.5t-77.5 31t-29.5 83zM300 501q0 33 13.5 74.5t34.5 82.5t42 72h114q-15 -30 -29.5 -69t-23.5 -74q26 -10 44.5 -35.5t18.5 -60.5
q0 -43 -29.5 -73.5t-77.5 -30.5t-77.5 31t-29.5 83z" />
    <glyph glyph-name="uni201D" unicode="&#x201d;" horiz-adv-x="564" 
d="M50 641q0 43 29.5 73.5t77.5 30.5t77.5 -31t29.5 -83q0 -33 -13.5 -74.5t-34 -82t-42.5 -72.5h-114q15 30 29.5 69t23.5 74q-26 11 -44.5 36.5t-18.5 59.5zM300 641q0 43 29.5 73.5t77.5 30.5t77.5 -31t29.5 -83q0 -33 -13.5 -74.5t-34 -82t-42.5 -72.5h-114
q15 30 29.5 69t23.5 74q-26 11 -44.5 36.5t-18.5 59.5z" />
    <glyph glyph-name="uni201A" unicode="&#x201a;" horiz-adv-x="314" 
d="M50 89q0 43 29.5 73.5t77.5 30.5t77.5 -31t29.5 -83q0 -33 -13.5 -74.5t-34 -82t-42.5 -72.5h-114q15 30 29.5 69t23.5 74q-26 11 -44.5 36.5t-18.5 59.5z" />
    <glyph glyph-name="uni201E" unicode="&#x201e;" horiz-adv-x="554" 
d="M50 89q0 43 29.5 73.5t77.5 30.5t77.5 -31t29.5 -83q0 -33 -13.5 -74.5t-34 -82t-42.5 -72.5h-114q15 30 29.5 69t23.5 74q-26 11 -44.5 36.5t-18.5 59.5zM300 89q0 43 29.5 73.5t77.5 30.5t77.5 -31t29.5 -83q0 -33 -13.5 -74.5t-34 -82t-42.5 -72.5h-114q15 30 29.5 69
t23.5 74q-26 11 -44.5 36.5t-18.5 59.5z" />
    <glyph glyph-name="uni0028" unicode="(" horiz-adv-x="386" 
d="M60 318q0 159 60 294t167 246l99 -71q-70 -100 -110.5 -215t-40.5 -254t40.5 -254.5t110.5 -214.5l-99 -80q-107 110 -167 249.5t-60 299.5z" />
    <glyph glyph-name="uni0028.cap" horiz-adv-x="386" 
d="M60 348q0 159 60 294t167 246l99 -71q-70 -100 -110.5 -215t-40.5 -254t40.5 -254.5t110.5 -214.5l-99 -80q-107 110 -167 249.5t-60 299.5z" />
    <glyph glyph-name="uni0029" unicode=")" horiz-adv-x="386" 
d="M0 -151q71 99 111 214.5t40 254.5t-40 254t-111 215l99 71q107 -111 167 -246t60 -294q0 -160 -60 -299.5t-167 -249.5z" />
    <glyph glyph-name="uni0029.cap" horiz-adv-x="386" 
d="M0 -121q71 99 111 214.5t40 254.5t-40 254t-111 215l99 71q107 -111 167 -246t60 -294q0 -160 -60 -299.5t-167 -249.5z" />
    <glyph glyph-name="uni005B" unicode="[" horiz-adv-x="335" 
d="M80 -202v1034h280v-149h-115v-736h115v-149h-280z" />
    <glyph glyph-name="uni005B.cap" horiz-adv-x="335" 
d="M80 -172v1034h280v-149h-115v-736h115v-149h-280z" />
    <glyph glyph-name="uni005D" unicode="]" horiz-adv-x="335" 
d="M-25 -202v149h115v736h-115v149h280v-1034h-280z" />
    <glyph glyph-name="uni005D.cap" horiz-adv-x="335" 
d="M-25 -172v149h115v736h-115v149h280v-1034h-280z" />
    <glyph glyph-name="uni007B" unicode="{" horiz-adv-x="356" 
d="M55 270v90q34 6 57.5 29t23.5 55t-10.5 58.5t-25 51t-25 51.5t-10.5 59q0 80 64 131.5t186 61.5l26 -120q-55 -13 -75.5 -37t-20.5 -57q0 -34 14.5 -65t29 -63t14.5 -70q0 -44 -25 -78t-78 -52q53 -18 78 -52t25 -78q0 -38 -14.5 -70t-29 -63t-14.5 -65t20.5 -57
t75.5 -37l-26 -120q-122 11 -186 62.5t-64 130.5q0 32 10.5 59t25 52t25 51.5t10.5 57.5q0 32 -23.5 55t-57.5 29z" />
    <glyph glyph-name="uni007B.cap" horiz-adv-x="356" 
d="M55 300v90q34 6 57.5 29t23.5 55t-10.5 58.5t-25 51t-25 51.5t-10.5 59q0 80 64 131.5t186 61.5l26 -120q-55 -13 -75.5 -37t-20.5 -57q0 -34 14.5 -65t29 -63t14.5 -70q0 -44 -25 -78t-78 -52q53 -18 78 -52t25 -78q0 -38 -14.5 -70t-29 -63t-14.5 -65t20.5 -57
t75.5 -37l-26 -120q-122 11 -186 62.5t-64 130.5q0 32 10.5 59t25 52t25 51.5t10.5 57.5q0 32 -23.5 55t-57.5 29z" />
    <glyph glyph-name="uni007D" unicode="}" horiz-adv-x="356" 
d="M15 -107q56 14 76 37t20 57t-14.5 65t-29 63t-14.5 70q0 44 25 78t78 52q-53 18 -78 52t-25 78q0 38 14.5 70t29 63t14.5 65q0 33 -20 57t-76 37l26 120q122 -10 186 -61.5t64 -131.5q0 -32 -10.5 -59t-25 -51.5t-25 -51t-10.5 -58.5t23.5 -55t57.5 -29v-90
q-34 -6 -57.5 -29t-23.5 -55q0 -31 10.5 -57.5t25 -51.5t25 -52t10.5 -59q0 -79 -64 -130.5t-186 -62.5z" />
    <glyph glyph-name="uni007D.cap" horiz-adv-x="356" 
d="M15 -77q56 14 76 37t20 57t-14.5 65t-29 63t-14.5 70q0 44 25 78t78 52q-53 18 -78 52t-25 78q0 38 14.5 70t29 63t14.5 65q0 33 -20 57t-76 37l26 120q122 -10 186 -61.5t64 -131.5q0 -32 -10.5 -59t-25 -51.5t-25 -51t-10.5 -58.5t23.5 -55t57.5 -29v-90
q-34 -6 -57.5 -29t-23.5 -55q0 -31 10.5 -57.5t25 -51.5t25 -52t10.5 -59q0 -79 -64 -130.5t-186 -62.5z" />
    <glyph glyph-name="uni002D" unicode="-" horiz-adv-x="460" 
d="M65 200v164h330v-164h-330z" />
    <glyph glyph-name="uni002D.cap" horiz-adv-x="460" 
d="M65 240v164h330v-164h-330z" />
    <glyph glyph-name="uni00AD" unicode="&#xad;" horiz-adv-x="460" 
d="M65 200v164h330v-164h-330z" />
    <glyph glyph-name="uni00AD.cap" horiz-adv-x="460" 
d="M65 240v164h330v-164h-330z" />
    <glyph glyph-name="uni2013" unicode="&#x2013;" horiz-adv-x="580" 
d="M65 200v164h450v-164h-450z" />
    <glyph glyph-name="uni2013.cap" horiz-adv-x="580" 
d="M65 240v164h450v-164h-450z" />
    <glyph glyph-name="uni2014" unicode="&#x2014;" horiz-adv-x="750" 
d="M0 200v164h750v-164h-750z" />
    <glyph glyph-name="uni2014.cap" horiz-adv-x="750" 
d="M0 240v164h750v-164h-750z" />
    <glyph glyph-name="uni005F" unicode="_" horiz-adv-x="450" 
d="M0 -150v135h450v-135h-450z" />
    <glyph glyph-name="uni2022" unicode="&#x2022;" horiz-adv-x="374" 
d="M50 294q0 38 18 68.5t49 48.5t70 18q40 0 70.5 -18t48.5 -48.5t18 -68.5q0 -37 -18 -67.5t-48.5 -49t-70.5 -18.5q-39 0 -70 18.5t-49 49t-18 67.5z" />
    <glyph glyph-name="uni2022.cap" horiz-adv-x="374" 
d="M50 334q0 38 18 68.5t49 48.5t70 18q40 0 70.5 -18t48.5 -48.5t18 -68.5q0 -37 -18 -67.5t-48.5 -49t-70.5 -18.5q-39 0 -70 18.5t-49 49t-18 67.5z" />
    <glyph glyph-name="uni00B7" unicode="&#xb7;" horiz-adv-x="314" 
d="M50 291q0 43 29.5 73.5t77.5 30.5t77.5 -30.5t29.5 -73.5t-29.5 -73.5t-77.5 -30.5t-77.5 30.5t-29.5 73.5z" />
    <glyph glyph-name="uni00B7.cap" horiz-adv-x="314" 
d="M50 331q0 43 29.5 73.5t77.5 30.5t77.5 -30.5t29.5 -73.5t-29.5 -73.5t-77.5 -30.5t-77.5 30.5t-29.5 73.5z" />
    <glyph glyph-name="uni007C" unicode="|" horiz-adv-x="325" 
d="M80 -150v850h165v-850h-165z" />
    <glyph glyph-name="uni00A6" unicode="&#xa6;" horiz-adv-x="325" 
d="M80 380v320h165v-320h-165zM80 -150v320h165v-320h-165z" />
    <glyph glyph-name="uni2020" unicode="&#x2020;" horiz-adv-x="595" 
d="M215 -150v516h-165v164h165v170h165v-170h165v-164h-165v-516h-165z" />
    <glyph glyph-name="uni2021" unicode="&#x2021;" horiz-adv-x="595" 
d="M50 20v164h165v182h-165v164h165v170h165v-170h165v-164h-165v-182h165v-164h-165v-170h-165v170h-165z" />
    <glyph glyph-name="uni002F" unicode="/" horiz-adv-x="440" 
d="M-15 -150l298 950h172l-298 -950h-172z" />
    <glyph glyph-name="uni005C" unicode="\" horiz-adv-x="440" 
d="M-15 800h172l298 -950h-172z" />
    <glyph glyph-name="uni0023" unicode="#" horiz-adv-x="768" 
d="M92 0l38 154h-100v140h134l28 112h-100v140h134l38 154h152l-38 -154h108l38 154h152l-38 -154h100v-140h-134l-28 -112h100v-140h-134l-38 -154h-152l38 154h-108l-38 -154h-152zM316 294h108l28 112h-108z" />
    <glyph glyph-name="uni0026" unicode="&#x26;" horiz-adv-x="696" 
d="M40 181q0 58 28.5 107.5t107.5 95.5q-31 41 -47.5 75.5t-16.5 67.5q0 53 27.5 95.5t78.5 67.5t119 25q69 0 119.5 -25t78 -67.5t27.5 -95.5t-28 -99.5t-109 -88.5l61 -77q27 32 57 72l137 -107q-22 -26 -45.5 -50t-46.5 -46l103 -131h-221l-21 28q-40 -20 -82 -31.5
t-89 -11.5q-74 0 -127.5 25t-82 69t-28.5 102zM292 531q0 -17 9 -34.5t26 -40.5q36 20 45.5 37.5t9.5 37.5q0 21 -11.5 34.5t-33.5 13.5t-33.5 -13.5t-11.5 -34.5zM223 187q0 -25 18.5 -41.5t49.5 -16.5q29 0 66 19l-87 114q-27 -20 -37 -39t-10 -36z" />
    <glyph glyph-name="uni00A7" unicode="&#xa7;" horiz-adv-x="629" 
d="M25 276q0 43 29.5 76.5t84.5 52.5q-23 26 -33.5 54.5t-10.5 57.5q0 52 28.5 97t81.5 73t128 28q59 0 114 -17t101 -47l-80 -143q-33 22 -67.5 35t-66.5 13q-29 0 -42 -12t-13 -26q0 -16 16 -30.5t69 -27.5q131 -32 185.5 -77t54.5 -109q0 -43 -29 -76.5t-85 -52.5
q23 -25 33.5 -54t10.5 -58q0 -51 -28.5 -96.5t-81.5 -73.5t-128 -28q-59 0 -113.5 17t-101.5 47l80 143q33 -22 67.5 -35t66.5 -13q29 0 42 12t13 26q0 16 -16 30.5t-69 27.5q-130 32 -185 77t-55 109zM327 234q14 -4 26 -8t23 -8q15 5 22 14t7 19q0 18 -21 33t-82 32
q-13 4 -25.5 8t-23.5 8q-15 -5 -22 -14t-7 -19q0 -18 21 -33t82 -32z" />
    <glyph glyph-name="uni00B6" unicode="&#xb6;" horiz-adv-x="778" 
d="M293 -150v370h-33q-69 0 -120.5 31.5t-80.5 86t-29 122.5t28.5 122.5t80.5 86t121 31.5h198v-850h-165zM533 -150v850h165v-850h-165z" />
    <glyph glyph-name="uni0040" unicode="@" horiz-adv-x="986" 
d="M40 259q0 92 33 174t94.5 145.5t147.5 100t191 36.5q136 0 234.5 -53.5t152 -149.5t53.5 -223q0 -149 -57 -226.5t-153 -77.5q-58 0 -99 30t-60 79q-26 -31 -61 -48.5t-77 -17.5q-57 0 -101 31t-69 84.5t-25 119.5q0 67 25 120t69 84t101 31q38 0 70 -14t57 -40v39h155
v-321q0 -27 9 -39.5t23 -12.5q15 0 28.5 16.5t21.5 55.5t8 107q0 104 -38.5 170.5t-107 98.5t-159.5 32q-93 0 -168 -40.5t-119 -115t-44 -175.5q0 -89 38 -156.5t102.5 -105t142.5 -37.5q52 0 98 15l35 -121q-63 -19 -133 -19q-95 0 -172 32.5t-132 90.5t-84.5 135
t-29.5 166zM412 263q0 -40 20.5 -64t51.5 -24q34 0 55.5 24t21.5 64t-21.5 64t-55.5 24q-31 0 -51.5 -24t-20.5 -64z" />
    <glyph glyph-name="uni002A" unicode="*" horiz-adv-x="635" 
d="M40 470l52 161l160 -72l-19 171h169l-19 -171l160 72l52 -161l-168 -35l114 -126l-137 -99l-86 150l-87 -150l-137 99l114 126z" />
    <glyph glyph-name="uni00A9" unicode="&#xa9;" horiz-adv-x="795" 
d="M40 350q0 75 28 141t77 116.5t114 79t138 28.5q74 0 139 -28.5t114 -79t77 -116.5t28 -141t-28 -141t-77 -116.5t-114 -79t-139 -28.5q-73 0 -138 28.5t-114 79t-77 116.5t-28 141zM148 350q0 -73 33 -134.5t89.5 -98.5t126.5 -37q71 0 127.5 37t89.5 98.5t33 134.5
q0 74 -33 135t-89.5 98t-127.5 37q-70 0 -126.5 -37t-89.5 -98t-33 -135zM207 350q0 60 26 106.5t71 73t102 26.5q42 0 77.5 -15.5t57.5 -37.5l-64 -83q-13 13 -30.5 20.5t-37.5 7.5q-41 0 -66.5 -27t-25.5 -71q0 -45 24.5 -72t64.5 -27q43 0 75 29l63 -83
q-23 -22 -58.5 -37.5t-76.5 -15.5q-59 0 -105 26.5t-71.5 73t-25.5 106.5z" />
    <glyph glyph-name="uni00AE" unicode="&#xae;" horiz-adv-x="795" 
d="M40 350q0 75 28 141t77 116.5t114 79t138 28.5q74 0 139 -28.5t114 -79t77 -116.5t28 -141t-28 -141t-77 -116.5t-114 -79t-139 -28.5q-73 0 -138 28.5t-114 79t-77 116.5t-28 141zM148 350q0 -73 33 -134.5t89.5 -98.5t126.5 -37q71 0 127.5 37t89.5 98.5t33 134.5
q0 74 -33 135t-89.5 98t-127.5 37q-70 0 -126.5 -37t-89.5 -98t-33 -135zM249 156v390h163q71 0 108 -37.5t37 -96.5q0 -40 -18.5 -70t-55.5 -45l88 -141h-120l-69 128h-30v-128h-103zM403 450h-51v-75h51q46 0 46 37q0 38 -46 38z" />
    <glyph glyph-name="uni2122" unicode="&#x2122;" horiz-adv-x="815" 
d="M112 280v322h-104v98h311v-98h-104v-322h-103zM380 280v420h67l123 -193l123 193h67v-420h-103v191l-67 -103h-39l-68 103v-191h-103z" />
    <glyph glyph-name="uni005E" unicode="^" horiz-adv-x="600" 
d="M44 257l192 458h128l192 -458h-174l-82 250l-82 -250h-174z" />
    <glyph glyph-name="uni007E" unicode="~" horiz-adv-x="600" 
d="M72 260q3 65 18.5 114.5t46.5 77.5t78 28q33 0 57.5 -9t44 -21.5t37.5 -21.5t37 -9q20 0 31 13.5t17 42.5h89q-2 -64 -18 -114t-46.5 -78t-78.5 -28q-33 0 -57.5 9t-44 21.5t-37.5 21.5t-37 9q-20 0 -31 -13.5t-17 -42.5h-89z" />
    <glyph glyph-name="uni00A2" unicode="&#xa2;" horiz-adv-x="520" 
d="M209 20v148q-82 26 -130.5 98.5t-48.5 168.5t48 168.5t131 98.5v148h155v-142q38 -7 72.5 -23t62.5 -41l-91 -128q-40 34 -88 34q-49 0 -80.5 -29.5t-31.5 -85.5q0 -55 31.5 -85t80.5 -30q23 0 49 10.5t45 27.5l91 -129q-59 -50 -141 -67v-142h-155z" />
    <glyph glyph-name="uni00A4" unicode="&#xa4;" horiz-adv-x="671" 
d="M40 141l93 93q-9 21 -14 43.5t-5 46.5q0 23 4.5 46t14.5 43l-93 93l113 113l95 -95q20 7 41.5 11t45.5 4t46 -4t41 -12l96 96l113 -113l-93 -93q18 -42 18 -89q0 -23 -4.5 -46t-14.5 -43l94 -93l-114 -114l-96 96q-19 -7 -40.5 -11t-45.5 -4q-47 0 -86 15l-96 -96z
M258 324q0 -35 21.5 -56.5t55.5 -21.5t55.5 21.5t21.5 56.5q0 36 -21.5 57t-55.5 21t-55.5 -21t-21.5 -57z" />
    <glyph glyph-name="uni0024" unicode="$" horiz-adv-x="614" 
d="M15 81l82 154q40 -34 97 -58t118 -24q42 0 60 12.5t18 31.5q0 20 -20.5 36.5t-82.5 32.5q-88 24 -140 58t-74.5 77.5t-22.5 95.5q0 47 21.5 89.5t63 74t100.5 45.5v144h155v-140q88 -15 166 -59l-73 -153q-33 22 -79.5 35t-90.5 13q-45 0 -62 -12t-17 -29q0 -10 9 -20.5
t34 -21t72 -23.5q131 -35 185.5 -92t54.5 -140q0 -79 -51 -137t-148 -78v-143h-155v140q-59 10 -116 33.5t-104 57.5z" />
    <glyph glyph-name="uni20AC" unicode="&#x20ac;" horiz-adv-x="663" 
d="M2 205v125h73v35h-73v125h95q24 68 68 118.5t105 78.5t133 28t132.5 -27t97.5 -67l-98 -127q-28 26 -58 37.5t-58 11.5q-72 0 -116 -53h177v-125h-220v-35h220v-125h-174q20 -22 47 -35t61 -13q29 0 63 12.5t66 38.5l95 -129q-40 -40 -100.5 -67t-128.5 -27
q-111 0 -193 60t-117 160h-97z" />
    <glyph glyph-name="uni00A3" unicode="&#xa3;" horiz-adv-x="598" 
d="M70 0v110q37 26 58 59t28 76h-86v135h59q-14 26 -26.5 55t-12.5 70q0 58 30 105.5t86 76t132 28.5q66 0 125 -27t95 -67l-108 -133q-20 23 -46 33t-50 10q-35 0 -56.5 -20.5t-21.5 -47.5q0 -25 8 -44t18 -39h198v-135h-183q-9 -40 -41 -73h269v-172h-475z" />
    <glyph glyph-name="uni00A5" unicode="&#xa5;" horiz-adv-x="703" 
d="M112 106v125h147v35h-147v125h97l-209 309h216l137 -239l141 239h209l-209 -309h96v-125h-146v-35h146v-125h-146v-106h-185v106h-147z" />
    <glyph glyph-name="uni002B" unicode="+" horiz-adv-x="600" 
d="M220 62v171h-168v154h168v171h160v-171h168v-154h-168v-171h-160z" />
    <glyph glyph-name="uni2212" unicode="&#x2212;" horiz-adv-x="600" 
d="M52 233v154h496v-154h-496z" />
    <glyph glyph-name="uni00D7" unicode="&#xd7;" horiz-adv-x="600" 
d="M47 170l140 140l-140 140l113 113l140 -140l140 140l113 -113l-140 -140l140 -140l-113 -113l-140 140l-140 -140z" />
    <glyph glyph-name="uni00F7" unicode="&#xf7;" horiz-adv-x="600" 
d="M201 521q0 38 26.5 66t72.5 28t72.5 -28t26.5 -66t-26.5 -66t-72.5 -28t-72.5 28t-26.5 66zM52 233v154h496v-154h-496zM201 99q0 38 26.5 66t72.5 28t72.5 -28t26.5 -66t-26.5 -66t-72.5 -28t-72.5 28t-26.5 66z" />
    <glyph glyph-name="uni003D" unicode="=" horiz-adv-x="600" 
d="M52 353v154h496v-154h-496zM52 113v154h496v-154h-496z" />
    <glyph glyph-name="uni2248" unicode="&#x2248;" horiz-adv-x="600" 
d="M52 327v158q27 22 62.5 35t72.5 13q46 0 82 -12.5t71.5 -25t77.5 -12.5q35 0 68 14t62 36v-158q-27 -22 -62.5 -35t-72.5 -13q-46 0 -82 12.5t-71 25t-78 12.5q-34 0 -67.5 -13.5t-62.5 -36.5zM52 87v158q27 22 62.5 35t72.5 13q46 0 82 -12.5t71.5 -25t77.5 -12.5
q35 0 68 14t62 36v-158q-27 -22 -62.5 -35t-72.5 -13q-46 0 -82 12.5t-71 25t-78 12.5q-34 0 -67.5 -13.5t-62.5 -36.5z" />
    <glyph glyph-name="uni2260" unicode="&#x2260;" horiz-adv-x="600" 
d="M112 50l29 68h-89v144h151l42 96h-193v144h255l29 68h152l-29 -68h89v-144h-151l-42 -96h193v-144h-255l-29 -68h-152z" />
    <glyph glyph-name="uni00B1" unicode="&#xb1;" horiz-adv-x="600" 
d="M52 62v144h168v104h-168v144h168v104h160v-104h168v-144h-168v-104h168v-144h-496z" />
    <glyph glyph-name="uni003E" unicode="&#x3e;" horiz-adv-x="600" 
d="M77 64v174l238 72l-238 72v174l458 -182v-128z" />
    <glyph glyph-name="uni2265" unicode="&#x2265;" horiz-adv-x="600" 
d="M52 174v164l278 27l-278 27v164l496 -117v-148zM52 23v144h496v-144h-496z" />
    <glyph glyph-name="uni003C" unicode="&#x3c;" horiz-adv-x="600" 
d="M65 246v128l458 182v-174l-238 -72l238 -72v-174z" />
    <glyph glyph-name="uni2264" unicode="&#x2264;" horiz-adv-x="600" 
d="M52 291v148l496 117v-164l-278 -27l278 -27v-164zM52 23v144h496v-144h-496z" />
    <glyph glyph-name="uni00AC" unicode="&#xac;" horiz-adv-x="600" 
d="M52 233v154h496v-325h-160v171h-336z" />
    <glyph glyph-name="uni0025" unicode="%" horiz-adv-x="1021" 
d="M40 520q0 54 24.5 98.5t69.5 70.5t107 26t107 -26t69.5 -70.5t24.5 -98.5t-24.5 -98t-69.5 -70.5t-107 -26.5q-61 0 -106.5 26.5t-70 70.5t-24.5 98zM197 0l438 700h189l-438 -700h-189zM184 520q0 -26 16 -42t41 -16t41 16t16 42q0 27 -16 42.5t-41 15.5t-41 -15.5
t-16 -42.5zM579 180q0 54 24.5 98.5t69.5 70.5t107 26t107 -26t69.5 -70.5t24.5 -98.5t-24.5 -98t-69.5 -70.5t-107 -26.5q-61 0 -106.5 26.5t-70 70.5t-24.5 98zM723 180q0 -26 16 -42t41 -16t41 16t16 42q0 27 -16 42.5t-41 15.5t-41 -15.5t-16 -42.5z" />
    <glyph glyph-name="uni2030" unicode="&#x2030;" horiz-adv-x="1456" 
d="M40 520q0 54 24.5 98.5t69.5 70.5t107 26t107 -26t69.5 -70.5t24.5 -98.5t-24.5 -98t-69.5 -70.5t-107 -26.5q-61 0 -106.5 26.5t-70 70.5t-24.5 98zM197 0l438 700h189l-438 -700h-189zM184 520q0 -26 16 -42t41 -16t41 16t16 42q0 27 -16 42.5t-41 15.5t-41 -15.5
t-16 -42.5zM579 180q0 54 24.5 98.5t69.5 70.5t107 26t107 -26t69.5 -70.5t24.5 -98.5t-24.5 -98t-69.5 -70.5t-107 -26.5q-61 0 -106.5 26.5t-70 70.5t-24.5 98zM1014 181q0 54 24.5 98t69.5 70t106 26q63 0 108 -26t69.5 -70t24.5 -98q0 -55 -24.5 -99t-70 -70.5
t-107.5 -26.5q-61 0 -106 26.5t-69.5 70.5t-24.5 99zM723 180q0 -26 16 -42t41 -16t41 16t16 42q0 27 -16 42.5t-41 15.5t-41 -15.5t-16 -42.5zM1158 180q0 -26 16 -42t41 -16t41 16t16 42q0 27 -16 42.5t-42 15.5q-24 0 -40 -15.5t-16 -42.5z" />
    <glyph glyph-name="uni00B0" unicode="&#xb0;" horiz-adv-x="482" 
d="M40 520q0 54 24.5 98.5t69.5 70.5t107 26t107 -26t69.5 -70.5t24.5 -98.5t-24.5 -98t-69.5 -70.5t-107 -26.5q-61 0 -106.5 26.5t-70 70.5t-24.5 98zM184 520q0 -26 16 -42t41 -16t41 16t16 42q0 27 -16 42.5t-41 15.5t-41 -15.5t-16 -42.5z" />
    <glyph glyph-name="uni2044" unicode="&#x2044;" horiz-adv-x="607" 
d="M-10 0l438 700h189l-438 -700h-189z" />
    <glyph glyph-name="uni2215" unicode="&#x2215;" horiz-adv-x="607" 
d="M-10 0l438 700h189l-438 -700h-189z" />
    <glyph glyph-name="uni00B9" unicode="&#xb9;" horiz-adv-x="349" 
d="M133 225v316l-71 -46l-62 105l173 100h101v-475h-141z" />
    <glyph glyph-name="uni00B2" unicode="&#xb2;" horiz-adv-x="436" 
d="M25 609q33 47 83.5 75.5t111.5 28.5q77 0 125.5 -44t48.5 -114q0 -43 -26 -83.5t-90 -92.5l-38 -31h161v-123h-365v84l166 153q28 26 38.5 43.5t10.5 32.5q0 20 -15 32t-34 12q-22 0 -43.5 -12.5t-36.5 -38.5z" />
    <glyph glyph-name="uni00B3" unicode="&#xb3;" horiz-adv-x="472" 
d="M25 310l91 77q20 -24 51 -41t62 -17t47 14t16 30q0 19 -17 31.5t-53 12.5h-71v97h58q29 0 44.5 13t15.5 29q0 15 -13 28t-36 13q-24 0 -48 -14.5t-41 -43.5l-101 70q29 49 82 76.5t116 27.5q52 0 92 -19t63 -49t23 -65q0 -34 -16 -58t-57 -41q49 -15 73.5 -47.5
t24.5 -73.5q0 -43 -26 -76.5t-71.5 -52t-103.5 -18.5q-64 0 -118.5 27t-86.5 70z" />
    <glyph glyph-name="uni00AA" unicode="&#xaa;" horiz-adv-x="436" 
d="M35 428q0 53 38.5 87t115.5 34q17 0 35 -2t33 -4q-2 29 -22 42t-51 13q-23 0 -48.5 -6t-50.5 -20l-40 102q81 39 164 39q84 0 128 -45t44 -117v-221h-124v41q-19 -25 -46 -39t-58 -14q-52 0 -85 31.5t-33 78.5zM161 444q0 -13 9 -22t28 -9q23 0 41 14t18 41v3
q-12 2 -23 3t-22 1q-30 0 -40.5 -9.5t-10.5 -21.5z" />
    <glyph glyph-name="uni00BA" unicode="&#xba;" horiz-adv-x="462" 
d="M35 515q0 55 24 100t68 71.5t104 26.5q61 0 104.5 -26.5t67.5 -71.5t24 -100t-24 -99.5t-68 -71t-104 -26.5t-104 26.5t-68 71t-24 99.5zM175 515q0 -37 17 -56.5t39 -19.5q23 0 39.5 19.5t16.5 56.5q0 38 -16.5 57.5t-39.5 19.5t-39.5 -19.5t-16.5 -57.5z" />
    <glyph glyph-name="uni2116" unicode="&#x2116;" horiz-adv-x="1147" 
d="M715 515q0 55 24 100t68 71.5t104 26.5q61 0 104.5 -26.5t67.5 -71.5t24 -100t-24 -99.5t-68 -71t-104 -26.5t-104 26.5t-68 71t-24 99.5zM80 0v700h110l260 -323v323h185v-700h-110l-260 323v-323h-185zM855 515q0 -37 17 -56.5t39 -19.5q23 0 39.5 19.5t16.5 56.5
q0 38 -16.5 57.5t-39.5 19.5t-39.5 -19.5t-16.5 -57.5zM730 120v154h362v-154h-362z" />
    <glyph glyph-name="uni0394" unicode="&#x394;" horiz-adv-x="753" 
d="M5 0l284 700h175l284 -700h-743zM263 172h222l-110 292z" />
    <glyph glyph-name="uni2206" unicode="&#x2206;" horiz-adv-x="753" 
d="M5 0l284 700h175l284 -700h-743zM263 172h222l-110 292z" />
    <glyph glyph-name="uniA7B6" unicode="&#xa7b6;" horiz-adv-x="774" 
d="M360 0h-310v185h167v36q-88 27 -132.5 88t-44.5 148q0 79 46 136.5t124.5 89.5t176.5 32t176.5 -32t124.5 -89.5t46 -136.5q0 -87 -44 -148t-133 -88v-36h167v-185h-310v319q62 5 88 31t26 60q0 44 -38.5 73.5t-102.5 29.5t-102.5 -29.5t-38.5 -73.5q0 -34 26.5 -60
t87.5 -31v-319z" />
    <glyph glyph-name="uni2126" unicode="&#x2126;" horiz-adv-x="774" 
d="M360 0h-310v185h167v36q-88 27 -132.5 88t-44.5 148q0 79 46 136.5t124.5 89.5t176.5 32t176.5 -32t124.5 -89.5t46 -136.5q0 -87 -44 -148t-133 -88v-36h167v-185h-310v319q62 5 88 31t26 60q0 44 -38.5 73.5t-102.5 29.5t-102.5 -29.5t-38.5 -73.5q0 -34 26.5 -60
t87.5 -31v-319z" />
    <glyph glyph-name="uni03BC" unicode="&#x3bc;" horiz-adv-x="650" 
d="M65 -150v680h175v-275q0 -54 22 -77.5t56 -23.5q41 0 66.5 28.5t25.5 84.5v263h175v-530h-175v66q-37 -81 -109 -81q-51 0 -86 46l25 -181h-175z" />
    <glyph glyph-name="uni00B5" unicode="&#xb5;" horiz-adv-x="650" 
d="M65 -150v680h175v-275q0 -54 22 -77.5t56 -23.5q41 0 66.5 28.5t25.5 84.5v263h175v-530h-175v66q-37 -81 -109 -81q-51 0 -86 46l25 -181h-175z" />
    <glyph glyph-name="uni03C0" unicode="&#x3c0;" horiz-adv-x="616" 
d="M72 0l19 355h-76v175h566v-175h-75l7 -178q1 -24 10 -33.5t27 -9.5q15 0 34 6l7 -144q-38 -11 -76 -11q-162 0 -162 184v186h-105l-7 -355h-169z" />
    <glyph glyph-name="uni2113" unicode="&#x2113;" horiz-adv-x="642" 
d="M10 106q32 16 61.5 33t57.5 33q-10 39 -10 88q0 101 29.5 189t77.5 154.5t106.5 104t116.5 37.5q74 0 113.5 -47.5t39.5 -129.5q0 -56 -28 -124.5t-88.5 -142.5t-157.5 -150q11 -7 23 -10.5t23 -3.5q41 0 88 40l80 -123q-41 -34 -93 -51.5t-93 -17.5q-103 0 -167 70
q-28 -17 -57.5 -33.5t-61.5 -33.5zM420 567q-17 0 -38 -23t-40.5 -62t-34.5 -88.5t-20 -102.5q82 74 120.5 137.5t38.5 100.5q0 38 -26 38z" />
    <glyph glyph-name="uni212E" unicode="&#x212e;" horiz-adv-x="786" 
d="M40 350q0 83 31 149t82.5 113.5t115 72.5t128.5 25t127.5 -24.5t112.5 -69.5t79.5 -107.5t29.5 -138.5q0 -7 -0.5 -17t-1.5 -18h-514v-232q39 -26 85 -39.5t95 -13.5t97 13.5t87.5 35.5t64.5 47l39 -44q-30 -29 -77 -54.5t-102.5 -41.5t-112.5 -16q-69 0 -134.5 25
t-118 72.5t-83 114t-30.5 148.5zM397 650q-90 0 -167 -51v-204h335v202q-76 53 -168 53z" />
    <glyph glyph-name="uni221E" unicode="&#x221e;" horiz-adv-x="864" 
d="M40 310q0 65 28 112.5t73.5 73t96.5 25.5q62 0 108 -31t86 -74q40 43 86.5 74t107.5 31q52 0 97 -25.5t73 -73t28 -112.5t-28 -112.5t-73 -73t-97 -25.5q-61 0 -107.5 31t-86.5 74q-40 -43 -86 -74t-108 -31q-51 0 -96.5 25.5t-73.5 73t-28 112.5zM552 277
q9 -10 23.5 -19t30.5 -9q25 0 43 16.5t18 44.5q0 29 -18 45t-43 16q-16 0 -30.5 -8.5t-23.5 -19.5l-28 -33zM197 310q0 -28 18 -44.5t43 -16.5q17 0 31 9t23 19l28 33l-28 33q-9 11 -23 19.5t-31 8.5q-25 0 -43 -16t-18 -45z" />
    <glyph glyph-name="uni2202" unicode="&#x2202;" horiz-adv-x="682" 
d="M40 215q0 84 36 149.5t98.5 103t143.5 37.5q53 0 92 -16.5t61 -44.5q-10 55 -33.5 86t-55.5 43.5t-67 12.5q-25 0 -52 -6t-53 -20l-52 144q36 18 83 29.5t96 11.5q81 0 148 -36.5t107 -110.5t40 -185q0 -130 -43.5 -226t-120.5 -149t-179 -53q-77 0 -133 31.5t-86 83.5
t-30 115zM211 223q0 -44 26.5 -72.5t70.5 -28.5q40 0 70 21t47 55t17 71q0 44 -28.5 71.5t-75.5 27.5q-39 0 -67.5 -21t-44 -54.5t-15.5 -69.5z" />
    <glyph glyph-name="uni222B" unicode="&#x222b;" horiz-adv-x="593" 
d="M329 29q-20 -96 -79 -145t-164 -49q-24 0 -51 4t-45 9l31 145q30 -9 57 -9q67 0 80 65l106 502q20 96 79 145t164 49q24 0 51 -4t45 -9l-31 -145q-30 9 -57 9q-67 0 -80 -65z" />
    <glyph glyph-name="uni221A" unicode="&#x221a;" horiz-adv-x="691" 
d="M257 0l-142 366h-105v164h229l102 -325l177 495h183l-281 -700h-163z" />
    <glyph glyph-name="uni2211" unicode="&#x2211;" horiz-adv-x="640" 
d="M590 528h-272l146 -206v-81l-158 -219h294v-172h-560v110l237 318l-227 312v110h540v-172z" />
    <glyph glyph-name="uni220F" unicode="&#x220f;" horiz-adv-x="772" 
d="M110 -150v665h-90v185h732v-185h-90v-665h-172v665h-208v-665h-172z" />
    <glyph glyph-name="uni25CA" unicode="&#x25ca;" horiz-adv-x="689" 
d="M60 275l197 425h175l197 -425l-197 -425h-175zM253 281l93 -215l90 203l-93 215z" />
    <glyph glyph-name="uni00BB" unicode="&#xbb;" horiz-adv-x="597" 
d="M15 70l146 195l-146 195h191l113 -163v-64l-113 -163h-191zM268 70l146 195l-146 195h191l113 -163v-64l-113 -163h-191z" />
    <glyph glyph-name="uni00AB.cap" horiz-adv-x="597" 
d="M25 273v64l113 163h191l-146 -195l146 -195h-191zM278 273v64l113 163h191l-146 -195l146 -195h-191z" />
    <glyph glyph-name="uni00AB" unicode="&#xab;" horiz-adv-x="597" 
d="M25 233v64l113 163h191l-146 -195l146 -195h-191zM278 233v64l113 163h191l-146 -195l146 -195h-191z" />
    <glyph glyph-name="uni00BB.cap" horiz-adv-x="597" 
d="M15 110l146 195l-146 195h191l113 -163v-64l-113 -163h-191zM268 110l146 195l-146 195h191l113 -163v-64l-113 -163h-191z" />
    </font>
</defs>
</svg>
