<?xml version="1.0" standalone="no"?>
<!DOCTYPE svg PUBLIC "-//W3C//DTD SVG 1.1//EN" "http://www.w3.org/Graphics/SVG/1.1/DTD/svg11.dtd" >
<svg xmlns="http://www.w3.org/2000/svg" xmlns:xlink="http://www.w3.org/1999/xlink" version="1.1">
<metadata>
Created by FontForge 20190801 at Mon Sep 17 17:51:05 2018
 By Jimmy Wärting
The Font Software, the designs embodied therein, the trade names and/or trademarks and copyrights associated therewith are each the exclusive property of Coppers and Brasses.
</metadata>
<defs>
<font id="Ilisarniq-Bold" horiz-adv-x="660" >
  <font-face 
    font-family="Ilisarniq"
    font-weight="700"
    font-stretch="normal"
    units-per-em="1000"
    panose-1="0 0 0 0 0 0 0 0 0 0"
    ascent="800"
    descent="-200"
    x-height="526"
    cap-height="700"
    bbox="-43 -331 1596 1151"
    underline-thickness="50"
    underline-position="-100"
    unicode-range="U+000D-FB04"
  />
<missing-glyph horiz-adv-x="635" 
d="M89 0v700h457v-700h-457zM234 133h167v434h-167v-434z" />
    <glyph glyph-name="uniFB00" unicode="ff" horiz-adv-x="715" 
d="M88 0v396h-74v130h74v20q0 98 51 148t140 50q22 0 39.5 -2.5t31.5 -7.5v-127q-21 6 -45 6q-34 0 -51.5 -18t-17.5 -59v-10h204v20q0 98 52.5 148t146.5 50q24 0 44.5 -2.5t36.5 -7.5v-128q-13 3 -28 5t-29 2q-36 0 -55.5 -18t-19.5 -59v-10h122v-130h-122v-396h-148v396
h-204v-396h-148z" />
    <glyph glyph-name="uni00660069" unicode="fi" horiz-adv-x="659" 
d="M415 680q0 38 26.5 63t66.5 25q42 0 68 -25t26 -63q0 -37 -26 -62.5t-68 -25.5q-40 0 -66.5 25.5t-26.5 62.5zM88 0v396h-74v130h74v20q0 98 51 148t140 50q22 0 39.5 -2.5t31.5 -7.5v-127q-21 6 -45 6q-34 0 -51.5 -18t-17.5 -59v-10h347v-526h-148v396h-199v-396h-148z
" />
    <glyph glyph-name="uni00660133" unicode="f&#x133;" horiz-adv-x="959" 
d="M415 680q0 38 26.5 63t66.5 25q42 0 68 -25t26 -63q0 -37 -26 -62.5t-68 -25.5q-40 0 -66.5 25.5t-26.5 62.5zM88 0v396h-74v130h74v20q0 98 51 148t140 50q22 0 39.5 -2.5t31.5 -7.5v-127q-21 6 -45 6q-34 0 -51.5 -18t-17.5 -59v-10h347v-526h-148v396h-199v-396h-148z
M716 680q0 38 26 63t67 25t67 -25t26 -63q0 -37 -26 -62.5t-67 -25.5t-67 25.5t-26 62.5zM616 -154l9 132q24 -6 46 -6q32 0 48 16.5t16 55.5v482h148v-496q0 -97 -47 -145.5t-135 -48.5q-23 0 -45.5 3t-39.5 7z" />
    <glyph glyph-name="uni0066006C" unicode="fl" horiz-adv-x="664" 
d="M88 0v396h-74v130h74v20q0 98 52.5 148t146.5 50q24 0 44.5 -2.5t36.5 -7.5v-128q-13 3 -28 5t-29 2q-36 0 -55.5 -18t-19.5 -59v-10h122v-130h-122v-396h-148zM440 0v730h148v-730h-148z" />
    <glyph glyph-name="uniFB03" unicode="ffi" horiz-adv-x="1011" 
d="M767 680q0 38 26.5 63t66.5 25q42 0 68 -25t26 -63q0 -37 -26 -62.5t-68 -25.5q-40 0 -66.5 25.5t-26.5 62.5zM88 0v396h-74v130h74v20q0 98 51 148t140 50q22 0 39.5 -2.5t31.5 -7.5v-127q-21 6 -45 6q-34 0 -51.5 -18t-17.5 -59v-10h204v20q0 98 51 148t140 50
q22 0 39.5 -2.5t31.5 -7.5v-127q-21 6 -45 6q-34 0 -51.5 -18t-17.5 -59v-10h347v-526h-148v396h-199v-396h-148v396h-204v-396h-148z" />
    <glyph glyph-name="uni006600660133" unicode="ff&#x133;" horiz-adv-x="1311" 
d="M767 680q0 38 26.5 63t66.5 25q42 0 68 -25t26 -63q0 -37 -26 -62.5t-68 -25.5q-40 0 -66.5 25.5t-26.5 62.5zM88 0v396h-74v130h74v20q0 98 51 148t140 50q22 0 39.5 -2.5t31.5 -7.5v-127q-21 6 -45 6q-34 0 -51.5 -18t-17.5 -59v-10h204v20q0 98 51 148t140 50
q22 0 39.5 -2.5t31.5 -7.5v-127q-21 6 -45 6q-34 0 -51.5 -18t-17.5 -59v-10h347v-526h-148v396h-199v-396h-148v396h-204v-396h-148zM1068 680q0 38 26 63t67 25t67 -25t26 -63q0 -37 -26 -62.5t-67 -25.5t-67 25.5t-26 62.5zM968 -154l9 132q24 -6 46 -6q32 0 48 16.5
t16 55.5v482h148v-496q0 -97 -47 -145.5t-135 -48.5q-23 0 -45.5 3t-39.5 7z" />
    <glyph glyph-name="uniFB04" unicode="ffl" horiz-adv-x="1016" 
d="M88 0v396h-74v130h74v20q0 98 51 148t140 50q22 0 39.5 -2.5t31.5 -7.5v-127q-21 6 -45 6q-34 0 -51.5 -18t-17.5 -59v-10h204v20q0 98 52.5 148t146.5 50q24 0 44.5 -2.5t36.5 -7.5v-128q-13 3 -28 5t-29 2q-36 0 -55.5 -18t-19.5 -59v-10h122v-130h-122v-396h-148v396
h-204v-396h-148zM792 0v730h148v-730h-148z" />
    <glyph glyph-name=".notdef" horiz-adv-x="635" 
d="M89 0v700h457v-700h-457zM234 133h167v434h-167v-434z" />
    <glyph glyph-name="uni0000" horiz-adv-x="0" 
 />
    <glyph glyph-name="uni0000" horiz-adv-x="0" 
 />
    <glyph glyph-name="uni000D" unicode="&#xd;" horiz-adv-x="0" 
 />
    <glyph glyph-name="uni0020" unicode=" " horiz-adv-x="360" 
 />
    <glyph glyph-name="uni00A0" unicode="&#xa0;" horiz-adv-x="360" 
 />
    <glyph glyph-name="uni2009" unicode="&#x2009;" horiz-adv-x="114" 
 />
    <glyph glyph-name="uni0041" unicode="A" horiz-adv-x="701" 
d="M10 0l278 702h125l279 -702h-168l-47 128h-258l-48 -128h-161zM270 262h158l-78 211z" />
    <glyph glyph-name="uni0042" unicode="B" horiz-adv-x="667" 
d="M89 0v700h280q109 0 170 -53.5t61 -138.5q0 -94 -83 -145q53 -25 82 -68t29 -96q0 -56 -29 -101.5t-83 -71.5t-129 -26h-298zM352 562h-107v-147h109q40 0 63.5 21.5t23.5 52.5q0 33 -23.5 53t-65.5 20zM369 299h-124v-161h122q47 0 72 22t25 59q0 35 -25.5 57.5
t-69.5 22.5z" />
    <glyph glyph-name="uni0043" unicode="C" horiz-adv-x="672" 
d="M47 350q0 78 26 144.5t72.5 115.5t110 76.5t138.5 27.5q79 0 143 -29.5t103 -76.5l-107 -111q-25 31 -60 47t-76 16q-54 0 -96.5 -27t-66.5 -74t-24 -109q0 -61 23.5 -108.5t65 -74.5t95.5 -27q42 0 80.5 16.5t65.5 47.5l105 -112q-40 -45 -105 -75.5t-143 -30.5
q-77 0 -141 27t-111 76.5t-72.5 116t-25.5 144.5z" />
    <glyph glyph-name="uni0044" unicode="D" horiz-adv-x="735" 
d="M89 0v700h245q107 0 186.5 -45t124 -123.5t44.5 -181.5q0 -102 -44.5 -181t-124 -124t-186.5 -45h-245zM324 556h-79v-412h79q92 0 146.5 56.5t54.5 149.5t-54.5 149.5t-146.5 56.5z" />
    <glyph glyph-name="uni0045" unicode="E" horiz-adv-x="632" 
d="M89 0v700h481v-144h-325v-135h282v-134h-282v-143h331v-144h-487z" />
    <glyph glyph-name="uni0046" unicode="F" horiz-adv-x="585" 
d="M89 0v700h459v-144h-303v-162h262v-136h-262v-258h-156z" />
    <glyph glyph-name="uni0047" unicode="G" horiz-adv-x="751" 
d="M47 350q0 78 26.5 144.5t74 115.5t112.5 76.5t143 27.5q81 0 147.5 -28t106.5 -74l-105 -115q-26 30 -65 46.5t-83 16.5q-57 0 -100.5 -26.5t-68.5 -73.5t-25 -110q0 -101 52.5 -161t140.5 -60q39 0 71.5 9t57.5 25v94h-131v135h281v-297q-31 -31 -76.5 -55.5t-99 -39
t-109.5 -14.5q-103 0 -182 47t-123.5 129.5t-44.5 187.5z" />
    <glyph glyph-name="uni0048" unicode="H" horiz-adv-x="750" 
d="M89 0v700h156v-274h261v274h156v-700h-156v282h-261v-282h-156z" />
    <glyph glyph-name="uni0049" unicode="I" horiz-adv-x="334" 
d="M89 0v700h156v-700h-156z" />
    <glyph glyph-name="uni004A" unicode="J" horiz-adv-x="544" 
d="M15 82l92 106q17 -24 43.5 -39.5t55.5 -15.5q45 0 73.5 31t28.5 98v438h154v-454q0 -78 -30 -136.5t-85 -91t-131 -32.5q-55 0 -108 25t-93 71z" />
    <glyph glyph-name="uni004B" unicode="K" horiz-adv-x="676" 
d="M89 0v700h156v-308l224 308h187l-264 -341l277 -359h-194l-230 311v-311h-156z" />
    <glyph glyph-name="uni004C" unicode="L" horiz-adv-x="569" 
d="M89 0v700h156v-556h293v-144h-449z" />
    <glyph glyph-name="uni004D" unicode="M" horiz-adv-x="850" 
d="M89 0v705h100l236 -339l236 339h101v-705h-155v374l-158 -219h-47l-158 218v-373h-155z" />
    <glyph glyph-name="uni004E" unicode="N" horiz-adv-x="760" 
d="M89 0v702h83l345 -393v391h153v-702h-82l-346 394v-392h-153z" />
    <glyph glyph-name="uni004F" unicode="O" horiz-adv-x="780" 
d="M47 350q0 80 25.5 146.5t71.5 115t109 75.5t137 27t137 -27t109 -75.5t71.5 -115t25.5 -146.5q0 -79 -25.5 -146t-71.5 -115.5t-109 -75.5t-137 -27t-137 27t-109 75.5t-71.5 115.5t-25.5 146zM210 350q0 -63 23 -111.5t63.5 -76t93.5 -27.5t93 27.5t63 76t23 111.5
t-23 111.5t-63 76t-93 27.5t-93.5 -27.5t-63.5 -76t-23 -111.5z" />
    <glyph glyph-name="uni0050" unicode="P" horiz-adv-x="668" 
d="M89 0v700h278q82 0 141 -31.5t91 -87.5t32 -130q0 -73 -32 -128.5t-91 -86.5t-141 -31h-122v-205h-156zM355 556h-110v-209h110q52 0 82 28t30 76q0 49 -30 77t-82 28z" />
    <glyph glyph-name="uni0051" unicode="Q" horiz-adv-x="780" 
d="M47 350q0 80 25.5 146.5t71.5 115t109 75.5t137 27t137 -27t109 -75.5t71.5 -115t25.5 -146.5q0 -63 -16.5 -118t-45.5 -99l89 -84l-93 -102l-94 90q-80 -51 -183 -51q-74 0 -137 27t-109 75.5t-71.5 115.5t-25.5 146zM210 350q0 -63 23 -111.5t63.5 -76t93.5 -27.5
q18 0 34.5 3.5t31.5 9.5l-86 82l93 97l86 -81q20 46 20 104q0 63 -23 111.5t-63 76t-93 27.5t-93.5 -27.5t-63.5 -76t-23 -111.5z" />
    <glyph glyph-name="uni0052" unicode="R" horiz-adv-x="673" 
d="M89 0v700h279q79 0 136 -30t88 -82.5t31 -120.5q0 -73 -37 -127t-105 -80l163 -260h-183l-135 241h-81v-241h-156zM355 556h-110v-178h110q48 0 76.5 24.5t28.5 64.5t-28.5 64.5t-76.5 24.5z" />
    <glyph glyph-name="uni0053" unicode="S" horiz-adv-x="617" 
d="M26 82l79 124q39 -34 93 -56.5t114 -22.5q58 0 83 18.5t25 45.5t-24.5 48t-99.5 40q-89 24 -141.5 57.5t-74.5 75.5t-22 91q0 56 31.5 104t89.5 77.5t136 29.5q71 0 128 -19t108 -51l-73 -123q-32 23 -75.5 37.5t-89.5 14.5q-54 0 -77 -19.5t-23 -42.5q0 -16 11 -30
t39.5 -27.5t81.5 -27.5q131 -34 184.5 -90t53.5 -135q0 -60 -32.5 -109t-94.5 -77.5t-150 -28.5q-75 0 -148 25.5t-132 70.5z" />
    <glyph glyph-name="uni0054" unicode="T" horiz-adv-x="583" 
d="M213 0v556h-187v144h531v-144h-188v-556h-156z" />
    <glyph glyph-name="uni0055" unicode="U" horiz-adv-x="733" 
d="M82 262v438h156v-414q0 -74 34 -112.5t96 -38.5t96 38.5t34 112.5v414h154v-438q0 -81 -33.5 -143.5t-97 -97.5t-154.5 -35q-90 0 -154 35t-97.5 97.5t-33.5 143.5z" />
    <glyph glyph-name="uni0056" unicode="V" horiz-adv-x="696" 
d="M285 -2l-275 702h168l171 -472l176 472h161l-275 -702h-126z" />
    <glyph glyph-name="uni0057" unicode="W" horiz-adv-x="993" 
d="M224 -2l-214 702h164l121 -459l134 459h137l135 -459l120 459h162l-215 -702h-136l-135 429l-136 -429h-137z" />
    <glyph glyph-name="uni0058" unicode="X" horiz-adv-x="690" 
d="M14 0l243 355l-230 345h186l138 -213l131 213h180l-229 -338l243 -362h-187l-151 231l-144 -231h-180z" />
    <glyph glyph-name="uni0059" unicode="Y" horiz-adv-x="681" 
d="M263 0v277l-261 423h182l158 -277l161 277h176l-261 -423v-277h-155z" />
    <glyph glyph-name="uni005A" unicode="Z" horiz-adv-x="631" 
d="M42 0v96l319 462h-309v142h527v-96l-319 -462h329v-142h-547z" />
    <glyph glyph-name="uni0061" unicode="a" horiz-adv-x="572" 
d="M42 146q0 73 55.5 121t161.5 48q26 0 50 -3t46 -8q-3 55 -32 79.5t-79 24.5q-31 0 -65 -9.5t-65 -25.5l-42 118q42 21 94 34.5t108 13.5q68 0 119.5 -26t80.5 -75.5t29 -122.5v-315h-148v52q-27 -31 -65 -48.5t-83 -17.5q-77 0 -121 46t-44 114zM183 158q0 -22 15.5 -39
t49.5 -17q47 0 77 29.5t30 72.5v9q-20 3 -40.5 5t-43.5 2q-47 0 -67.5 -19t-20.5 -43z" />
    <glyph glyph-name="uni0062" unicode="b" horiz-adv-x="631" 
d="M76 0v730h148v-256q29 31 66 48t80 17q67 0 117.5 -36.5t78.5 -99t28 -140.5t-28 -141t-78.5 -99.5t-117.5 -36.5q-45 0 -83.5 18.5t-67.5 51.5v-56h-143zM213 263q0 -64 32 -103.5t84 -39.5q50 0 82 40t32 103t-32 103t-82 40q-52 0 -84 -39t-32 -104z" />
    <glyph glyph-name="uni0063" unicode="c" horiz-adv-x="526" 
d="M37 263q0 78 33.5 140.5t93 99t137.5 36.5q63 0 114 -20.5t89 -57.5l-93 -102q-37 40 -96 40q-55 0 -91 -37t-36 -99t36.5 -99.5t92.5 -37.5q29 0 57 13t45 32l90 -105q-37 -37 -91 -58.5t-117 -21.5q-78 0 -137.5 36.5t-93 99.5t-33.5 141z" />
    <glyph glyph-name="uni0064" unicode="d" horiz-adv-x="631" 
d="M37 263q0 78 28 140.5t78 99t117 36.5q44 0 81 -17t65 -47v255h148v-730h-142v57q-29 -33 -67.5 -52t-84.5 -19q-66 0 -116.5 36.5t-78.5 99.5t-28 141zM188 263q0 -63 32 -103t82 -40q51 0 83.5 39.5t32.5 103.5q0 65 -32.5 104t-83.5 39q-50 0 -82 -40t-32 -103z" />
    <glyph glyph-name="uni0065" unicode="e" horiz-adv-x="580" 
d="M37 261q0 79 32 141.5t89.5 99.5t134.5 37t132 -34.5t85 -94t30 -134.5q0 -13 -1 -28.5t-4 -28.5h-347q11 -46 46.5 -73.5t88.5 -27.5q35 0 70.5 10t62.5 28l64 -106q-46 -30 -97.5 -47t-109.5 -17q-81 0 -143.5 36.5t-97.5 99t-35 139.5zM293 418q-40 0 -68 -28t-38 -80
h208q-5 50 -31.5 79t-70.5 29z" />
    <glyph glyph-name="uni0066" unicode="f" horiz-adv-x="363" 
d="M88 0v396h-74v130h74v20q0 98 52.5 148t146.5 50q24 0 44.5 -2.5t36.5 -7.5v-128q-13 3 -28 5t-29 2q-36 0 -55.5 -18t-19.5 -59v-10h122v-130h-122v-396h-148z" />
    <glyph glyph-name="uni0067" unicode="g" horiz-adv-x="626" 
d="M57 -109l52 119q32 -20 72 -31.5t80 -11.5q141 0 141 126v7q-28 -26 -64.5 -41t-78.5 -15q-64 0 -114 32.5t-79 88t-29 125.5q0 71 29 127t79.5 89t115.5 33q44 0 81 -16.5t65 -45.5v49h143v-434q0 -118 -70 -187t-204 -69q-127 0 -219 55zM188 290q0 -51 31.5 -83
t80.5 -32q50 0 81.5 31.5t31.5 83.5q0 53 -31.5 84.5t-81.5 31.5q-49 0 -80.5 -32.5t-31.5 -83.5z" />
    <glyph glyph-name="uni0068" unicode="h" horiz-adv-x="638" 
d="M76 0v730h148v-275q23 38 64.5 61t93.5 23q51 0 93.5 -26t68 -76.5t25.5 -125.5v-311h-148v285q0 62 -26.5 87.5t-64.5 25.5q-45 0 -75.5 -33.5t-30.5 -97.5v-267h-148z" />
    <glyph glyph-name="uni0069" unicode="i" horiz-adv-x="300" 
d="M57 680q0 38 26 63t67 25t67 -25t26 -63q0 -37 -26 -62.5t-67 -25.5t-67 25.5t-26 62.5zM76 0v526h148v-526h-148z" />
    <glyph glyph-name="uni006A" unicode="j" horiz-adv-x="300" 
d="M57 680q0 38 26 63t67 25t67 -25t26 -63q0 -37 -26 -62.5t-67 -25.5t-67 25.5t-26 62.5zM-43 -154l9 132q24 -6 46 -6q32 0 48 16.5t16 55.5v482h148v-496q0 -97 -47 -145.5t-135 -48.5q-23 0 -45.5 3t-39.5 7z" />
    <glyph glyph-name="uni006B" unicode="k" horiz-adv-x="570" 
d="M76 0v730h148v-428l157 224h170l-193 -250l206 -276h-178l-162 229v-229h-148z" />
    <glyph glyph-name="uni006C" unicode="l" horiz-adv-x="300" 
d="M76 0v730h148v-730h-148z" />
    <glyph glyph-name="uni006D" unicode="m" horiz-adv-x="952" 
d="M76 0v526h148v-71q22 38 61 61t85 23q50 0 91 -24.5t65 -72.5q32 52 77 74.5t94 22.5q52 0 94 -25.5t67 -76t25 -126.5v-311h-148v285q0 62 -23.5 87.5t-58.5 25.5q-42 0 -70.5 -32.5t-28.5 -100.5v-265h-148v285q0 62 -24 87.5t-59 25.5q-42 0 -70.5 -32.5t-28.5 -100.5
v-265h-148z" />
    <glyph glyph-name="uni006E" unicode="n" horiz-adv-x="638" 
d="M76 0v526h148v-71q23 38 64.5 61t93.5 23q51 0 93.5 -26t68 -76.5t25.5 -125.5v-311h-148v285q0 62 -26.5 87.5t-64.5 25.5q-45 0 -75.5 -33.5t-30.5 -97.5v-267h-148z" />
    <glyph glyph-name="uni006F" unicode="o" horiz-adv-x="610" 
d="M37 263q0 79 34.5 141t95 98.5t138.5 36.5q79 0 139 -36.5t94.5 -98.5t34.5 -141t-34.5 -141.5t-94.5 -99t-139 -36.5q-78 0 -138.5 36.5t-95 99t-34.5 141.5zM188 263q0 -65 34 -103.5t83 -38.5q50 0 83.5 38.5t33.5 103.5t-33.5 103.5t-83.5 38.5q-49 0 -83 -38.5
t-34 -103.5z" />
    <glyph glyph-name="uni0070" unicode="p" horiz-adv-x="631" 
d="M76 -150v676h143v-57q29 33 67.5 51.5t83.5 18.5q67 0 117.5 -36.5t78.5 -99t28 -140.5t-28 -141t-78.5 -99.5t-117.5 -36.5q-43 0 -80 17t-66 48v-201h-148zM213 263q0 -65 32 -104t84 -39q50 0 82 39.5t32 103.5q0 63 -32 103t-82 40q-52 0 -84 -39t-32 -104z" />
    <glyph glyph-name="uni0071" unicode="q" horiz-adv-x="631" 
d="M37 263q0 78 28 140.5t78.5 99t116.5 36.5q46 0 84.5 -19t67.5 -52v58h142v-676h-148v200q-28 -30 -65 -47t-81 -17q-67 0 -117 36.5t-78 99.5t-28 141zM188 263q0 -64 32 -103.5t82 -39.5q51 0 83.5 39t32.5 104t-32.5 104t-83.5 39q-50 0 -82 -40t-32 -103z" />
    <glyph glyph-name="uni0072" unicode="r" horiz-adv-x="404" 
d="M76 0v526h148v-99q22 51 64.5 81.5t97.5 30.5v-161q-85 -3 -123.5 -41t-38.5 -121v-216h-148z" />
    <glyph glyph-name="uni0073" unicode="s" horiz-adv-x="506" 
d="M32 57l61 110q30 -25 77 -41t85 -16q36 0 50 9.5t14 22.5q0 10 -6 19t-25 18.5t-58 21.5q-93 29 -133 71.5t-40 97.5q0 46 26 82.5t72 58t106 21.5q48 0 98.5 -13t90.5 -37l-52 -108q-31 19 -68.5 29.5t-69.5 10.5q-28 0 -42.5 -10.5t-14.5 -22.5q0 -13 15.5 -25
t62.5 -25q107 -28 149 -73.5t42 -104.5q0 -71 -57 -118t-164 -47q-61 0 -121 19t-98 50z" />
    <glyph glyph-name="uni0074" unicode="t" horiz-adv-x="395" 
d="M88 182v214h-74v130h74v116h148v-116h132v-130h-132v-198q0 -40 19.5 -58t57.5 -18q11 0 24.5 1.5t28.5 5.5l9 -132q-41 -11 -91 -11q-94 0 -145 49.5t-51 146.5z" />
    <glyph glyph-name="uni0075" unicode="u" horiz-adv-x="638" 
d="M69 214v312h148v-286q0 -61 27 -87t64 -26q45 0 75.5 34t30.5 98v267h148v-526h-148v71q-22 -38 -63.5 -61.5t-93.5 -23.5q-51 0 -93.5 26t-68.5 77t-26 125z" />
    <glyph glyph-name="uni0076" unicode="v" horiz-adv-x="560" 
d="M220 -2l-213 528h160l113 -326l117 326h156l-214 -528h-119z" />
    <glyph glyph-name="uni0077" unicode="w" horiz-adv-x="795" 
d="M491 -2l-93 277l-94 -277h-119l-177 528h160l80 -315l94 315h115l92 -316l83 316h155l-177 -528h-119z" />
    <glyph glyph-name="uni0078" unicode="x" horiz-adv-x="554" 
d="M9 0l185 267l-170 259h177l79 -135l82 135h168l-170 -250l185 -276h-177l-95 151l-95 -151h-169z" />
    <glyph glyph-name="uni0079" unicode="y" horiz-adv-x="560" 
d="M40 -147l14 121q13 -5 28 -8.5t31 -3.5q32 0 53 12.5t42 52.5l-201 499h160l114 -327l116 327h156l-208 -514q-28 -69 -62 -107.5t-71.5 -53.5t-78.5 -15q-56 0 -93 17z" />
    <glyph glyph-name="uni007A" unicode="z" horiz-adv-x="508" 
d="M37 0v91l224 307h-212v128h414v-92l-224 -306h232v-128h-434z" />
    <glyph glyph-name="uni00C0" unicode="&#xc0;" horiz-adv-x="701" 
d="M10 0l278 702h125l279 -702h-168l-47 128h-258l-48 -128h-161zM270 262h158l-78 211zM169 913h154l83 -145h-107z" />
    <glyph glyph-name="uni00E0" unicode="&#xe0;" horiz-adv-x="572" 
d="M42 146q0 73 55.5 121t161.5 48q26 0 50 -3t46 -8q-3 55 -32 79.5t-79 24.5q-31 0 -65 -9.5t-65 -25.5l-42 118q42 21 94 34.5t108 13.5q68 0 119.5 -26t80.5 -75.5t29 -122.5v-315h-148v52q-27 -31 -65 -48.5t-83 -17.5q-77 0 -121 46t-44 114zM183 158q0 -22 15.5 -39
t49.5 -17q47 0 77 29.5t30 72.5v9q-20 3 -40.5 5t-43.5 2q-47 0 -67.5 -19t-20.5 -43zM115 776h141l68 -170h-101z" />
    <glyph glyph-name="uni00C1" unicode="&#xc1;" horiz-adv-x="701" 
d="M10 0l278 702h125l279 -702h-168l-47 128h-258l-48 -128h-161zM270 262h158l-78 211zM296 768l83 145h154l-130 -145h-107z" />
    <glyph glyph-name="uni00E1" unicode="&#xe1;" horiz-adv-x="572" 
d="M42 146q0 73 55.5 121t161.5 48q26 0 50 -3t46 -8q-3 55 -32 79.5t-79 24.5q-31 0 -65 -9.5t-65 -25.5l-42 118q42 21 94 34.5t108 13.5q68 0 119.5 -26t80.5 -75.5t29 -122.5v-315h-148v52q-27 -31 -65 -48.5t-83 -17.5q-77 0 -121 46t-44 114zM183 158q0 -22 15.5 -39
t49.5 -17q47 0 77 29.5t30 72.5v9q-20 3 -40.5 5t-43.5 2q-47 0 -67.5 -19t-20.5 -43zM224 606l68 170h141l-108 -170h-101z" />
    <glyph glyph-name="uni00C2" unicode="&#xc2;" horiz-adv-x="701" 
d="M10 0l278 702h125l279 -702h-168l-47 128h-258l-48 -128h-161zM270 262h158l-78 211zM179 768l114 145h116l114 -145h-105l-67 59l-67 -59h-105z" />
    <glyph glyph-name="uni00E2" unicode="&#xe2;" horiz-adv-x="572" 
d="M42 146q0 73 55.5 121t161.5 48q26 0 50 -3t46 -8q-3 55 -32 79.5t-79 24.5q-31 0 -65 -9.5t-65 -25.5l-42 118q42 21 94 34.5t108 13.5q68 0 119.5 -26t80.5 -75.5t29 -122.5v-315h-148v52q-27 -31 -65 -48.5t-83 -17.5q-77 0 -121 46t-44 114zM183 158q0 -22 15.5 -39
t49.5 -17q47 0 77 29.5t30 72.5v9q-20 3 -40.5 5t-43.5 2q-47 0 -67.5 -19t-20.5 -43zM110 606l111 170h106l111 -170h-102l-62 73l-62 -73h-102z" />
    <glyph glyph-name="uni00C3" unicode="&#xc3;" horiz-adv-x="701" 
d="M10 0l278 702h125l279 -702h-168l-47 128h-258l-48 -128h-161zM270 262h158l-78 211zM160 765q3 42 15.5 76.5t37.5 55.5t64 21q28 0 49.5 -9.5t39.5 -22.5t33.5 -22.5t31.5 -9.5q17 0 25.5 14t12.5 45h73q-2 -41 -15 -76t-38 -56t-64 -21q-28 0 -50 10t-39.5 22.5
t-33 22.5t-31.5 10t-24.5 -14.5t-13.5 -45.5h-73z" />
    <glyph glyph-name="uni00E3" unicode="&#xe3;" horiz-adv-x="572" 
d="M42 146q0 73 55.5 121t161.5 48q26 0 50 -3t46 -8q-3 55 -32 79.5t-79 24.5q-31 0 -65 -9.5t-65 -25.5l-42 118q42 21 94 34.5t108 13.5q68 0 119.5 -26t80.5 -75.5t29 -122.5v-315h-148v52q-27 -31 -65 -48.5t-83 -17.5q-77 0 -121 46t-44 114zM183 158q0 -22 15.5 -39
t49.5 -17q47 0 77 29.5t30 72.5v9q-20 3 -40.5 5t-43.5 2q-47 0 -67.5 -19t-20.5 -43zM96 606q2 42 14 77t36 56.5t62 21.5q27 0 47 -10t35.5 -23.5t28 -23.5t24.5 -10q29 0 36 62h73q-2 -42 -14 -77.5t-36 -57t-62 -21.5q-27 0 -47 10t-35.5 23.5t-28 23.5t-24.5 10
q-29 0 -36 -61h-73z" />
    <glyph glyph-name="uni00C4" unicode="&#xc4;" horiz-adv-x="701" 
d="M10 0l278 702h125l279 -702h-168l-47 128h-258l-48 -128h-161zM270 262h158l-78 211zM165 844q0 29 20 49t51 20t51 -20t20 -49q0 -30 -20 -50t-51 -20t-51 20t-20 50zM395 844q0 29 20 49t51 20t51 -20t20 -49q0 -30 -20 -50t-51 -20t-51 20t-20 50z" />
    <glyph glyph-name="uni00E4" unicode="&#xe4;" horiz-adv-x="572" 
d="M42 146q0 73 55.5 121t161.5 48q26 0 50 -3t46 -8q-3 55 -32 79.5t-79 24.5q-31 0 -65 -9.5t-65 -25.5l-42 118q42 21 94 34.5t108 13.5q68 0 119.5 -26t80.5 -75.5t29 -122.5v-315h-148v52q-27 -31 -65 -48.5t-83 -17.5q-77 0 -121 46t-44 114zM183 158q0 -22 15.5 -39
t49.5 -17q47 0 77 29.5t30 72.5v9q-20 3 -40.5 5t-43.5 2q-47 0 -67.5 -19t-20.5 -43zM96 683q0 29 20 49t51 20t51 -20t20 -49q0 -30 -20 -50t-51 -20t-51 20t-20 50zM310 683q0 29 20 49t51 20t51 -20t20 -49q0 -30 -20 -50t-51 -20t-51 20t-20 50z" />
    <glyph glyph-name="uni0100" unicode="&#x100;" horiz-adv-x="701" 
d="M10 0l278 702h125l279 -702h-168l-47 128h-258l-48 -128h-161zM270 262h158l-78 211zM178 790v106h346v-106h-346z" />
    <glyph glyph-name="uni0101" unicode="&#x101;" horiz-adv-x="572" 
d="M42 146q0 73 55.5 121t161.5 48q26 0 50 -3t46 -8q-3 55 -32 79.5t-79 24.5q-31 0 -65 -9.5t-65 -25.5l-42 118q42 21 94 34.5t108 13.5q68 0 119.5 -26t80.5 -75.5t29 -122.5v-315h-148v52q-27 -31 -65 -48.5t-83 -17.5q-77 0 -121 46t-44 114zM183 158q0 -22 15.5 -39
t49.5 -17q47 0 77 29.5t30 72.5v9q-20 3 -40.5 5t-43.5 2q-47 0 -67.5 -19t-20.5 -43zM111 648v106h326v-106h-326z" />
    <glyph glyph-name="uni0102" unicode="&#x102;" horiz-adv-x="701" 
d="M10 0l278 702h125l279 -702h-168l-47 128h-258l-48 -128h-161zM270 262h158l-78 211zM180 905h100q2 -21 20 -34t51 -13t50.5 13t20.5 34h100q-6 -71 -51 -108t-120 -37t-120 37t-51 108z" />
    <glyph glyph-name="uni0103" unicode="&#x103;" horiz-adv-x="572" 
d="M42 146q0 73 55.5 121t161.5 48q26 0 50 -3t46 -8q-3 55 -32 79.5t-79 24.5q-31 0 -65 -9.5t-65 -25.5l-42 118q42 21 94 34.5t108 13.5q68 0 119.5 -26t80.5 -75.5t29 -122.5v-315h-148v52q-27 -31 -65 -48.5t-83 -17.5q-77 0 -121 46t-44 114zM183 158q0 -22 15.5 -39
t49.5 -17q47 0 77 29.5t30 72.5v9q-20 3 -40.5 5t-43.5 2q-47 0 -67.5 -19t-20.5 -43zM113 768h100q9 -69 61 -69t61 69h100q-7 -85 -48.5 -127.5t-112.5 -42.5q-70 0 -111.5 42.5t-49.5 127.5z" />
    <glyph glyph-name="uni00C5" unicode="&#xc5;" horiz-adv-x="701" 
d="M10 0l278 702h125l279 -702h-168l-47 128h-258l-48 -128h-161zM270 262h158l-78 211zM231 863q0 46 34 77.5t86 31.5q53 0 86.5 -31.5t33.5 -77.5q0 -45 -33.5 -76.5t-86.5 -31.5q-52 0 -86 31.5t-34 76.5zM311 863q0 -16 11 -27t29 -11t29 11t11 27q0 17 -11 28t-29 11
t-29 -11t-11 -28z" />
    <glyph glyph-name="uni00E5" unicode="&#xe5;" horiz-adv-x="572" 
d="M42 146q0 73 55.5 121t161.5 48q26 0 50 -3t46 -8q-3 55 -32 79.5t-79 24.5q-31 0 -65 -9.5t-65 -25.5l-42 118q42 21 94 34.5t108 13.5q68 0 119.5 -26t80.5 -75.5t29 -122.5v-315h-148v52q-27 -31 -65 -48.5t-83 -17.5q-77 0 -121 46t-44 114zM183 158q0 -22 15.5 -39
t49.5 -17q47 0 77 29.5t30 72.5v9q-20 3 -40.5 5t-43.5 2q-47 0 -67.5 -19t-20.5 -43zM158 704q0 47 33 78t83 31t83 -31t33 -78q0 -46 -33 -77.5t-83 -31.5t-83 31.5t-33 77.5zM238 704q0 -18 10 -29t26 -11t26 11t10 29q0 17 -10 28.5t-26 11.5t-26 -11.5t-10 -28.5z" />
    <glyph glyph-name="uni01FA" unicode="&#x1fa;" horiz-adv-x="701" 
d="M10 0l278 702h125l279 -702h-168l-47 128h-258l-48 -128h-161zM270 262h158l-78 211zM305 1006l83 145h154l-130 -145h-107zM231 863q0 46 34 77.5t86 31.5q53 0 86.5 -31.5t33.5 -77.5q0 -45 -33.5 -76.5t-86.5 -31.5q-52 0 -86 31.5t-34 76.5zM311 863q0 -16 11 -27
t29 -11t29 11t11 27q0 17 -11 28t-29 11t-29 -11t-11 -28z" />
    <glyph glyph-name="uni01FB" unicode="&#x1fb;" horiz-adv-x="572" 
d="M42 146q0 73 55.5 121t161.5 48q26 0 50 -3t46 -8q-3 55 -32 79.5t-79 24.5q-31 0 -65 -9.5t-65 -25.5l-42 118q42 21 94 34.5t108 13.5q68 0 119.5 -26t80.5 -75.5t29 -122.5v-315h-148v52q-27 -31 -65 -48.5t-83 -17.5q-77 0 -121 46t-44 114zM183 158q0 -22 15.5 -39
t49.5 -17q47 0 77 29.5t30 72.5v9q-20 3 -40.5 5t-43.5 2q-47 0 -67.5 -19t-20.5 -43zM236 865l68 170h141l-108 -170h-101zM158 704q0 47 33 78t83 31t83 -31t33 -78q0 -46 -33 -77.5t-83 -31.5t-83 31.5t-33 77.5zM238 704q0 -18 10 -29t26 -11t26 11t10 29q0 17 -10 28.5
t-26 11.5t-26 -11.5t-10 -28.5z" />
    <glyph glyph-name="uni1EA0" unicode="&#x1ea0;" horiz-adv-x="701" 
d="M10 0l278 702h125l279 -702h-168l-47 128h-258l-48 -128h-161zM270 262h158l-78 211zM261 -160q0 37 25 62.5t65 25.5q41 0 65.5 -25.5t24.5 -62.5t-24.5 -62.5t-65.5 -25.5q-40 0 -65 25.5t-25 62.5z" />
    <glyph glyph-name="uni1EA1" unicode="&#x1ea1;" horiz-adv-x="572" 
d="M42 146q0 73 55.5 121t161.5 48q26 0 50 -3t46 -8q-3 55 -32 79.5t-79 24.5q-31 0 -65 -9.5t-65 -25.5l-42 118q42 21 94 34.5t108 13.5q68 0 119.5 -26t80.5 -75.5t29 -122.5v-315h-148v52q-27 -31 -65 -48.5t-83 -17.5q-77 0 -121 46t-44 114zM183 158q0 -22 15.5 -39
t49.5 -17q47 0 77 29.5t30 72.5v9q-20 3 -40.5 5t-43.5 2q-47 0 -67.5 -19t-20.5 -43zM190 -160q0 37 25 62.5t65 25.5q41 0 65.5 -25.5t24.5 -62.5t-24.5 -62.5t-65.5 -25.5q-40 0 -65 25.5t-25 62.5z" />
    <glyph glyph-name="uni0104" unicode="&#x104;" horiz-adv-x="701" 
d="M10 0l278 702h125l279 -702q-74 -30 -102.5 -56t-28.5 -49q0 -13 9 -21.5t25 -8.5q26 0 60 21l22 -81q-22 -14 -50.5 -23.5t-57.5 -9.5q-52 0 -84 29t-32 71q0 38 23.5 70t65.5 58h-18l-47 128h-258l-48 -128h-161zM270 262h158l-78 211z" />
    <glyph glyph-name="uni0105" unicode="&#x105;" horiz-adv-x="572" 
d="M42 146q0 73 55.5 121t161.5 48q26 0 50 -3t46 -8q-3 55 -32 79.5t-79 24.5q-31 0 -65 -9.5t-65 -25.5l-42 118q42 21 94 34.5t108 13.5q68 0 119.5 -26t80.5 -75.5t29 -122.5v-315q-74 -30 -102.5 -56t-28.5 -49q0 -13 9 -21.5t25 -8.5q26 0 60 21l22 -81
q-22 -14 -50.5 -23.5t-57.5 -9.5q-52 0 -84 29t-32 71q0 38 24 70.5t67 58.5v51q-27 -31 -65 -48.5t-83 -17.5q-77 0 -121 46t-44 114zM183 158q0 -22 15.5 -39t49.5 -17q47 0 77 29.5t30 72.5v9q-20 3 -40.5 5t-43.5 2q-47 0 -67.5 -19t-20.5 -43z" />
    <glyph glyph-name="uni00C6" unicode="&#xc6;" horiz-adv-x="974" 
d="M10 0l357 700h545v-144h-306v-135h262v-134h-262v-143h311v-144h-466v128h-210l-64 -128h-167zM307 262h144v289z" />
    <glyph glyph-name="uni00E6" unicode="&#xe6;" horiz-adv-x="878" 
d="M42 144q0 72 57.5 120t166.5 48q13 0 39 -1.5t48 -3.5q-4 53 -33 77t-78 24q-31 0 -64.5 -9.5t-63.5 -25.5l-42 118q40 21 88.5 34.5t100.5 13.5q59 0 104 -26.5t69 -76.5q30 52 77 77.5t103 25.5q69 0 119 -34.5t77.5 -94t27.5 -134.5q0 -13 -1 -28.5t-3 -28.5h-329
q11 -46 43.5 -73.5t82.5 -27.5q69 0 124 38l63 -106q-42 -30 -88.5 -47t-95.5 -17q-64 0 -118.5 29.5t-86.5 88.5q-28 -55 -83 -86.5t-123 -31.5q-86 0 -133.5 45.5t-47.5 112.5zM600 418q-36 0 -61.5 -28t-33.5 -80h188q-4 50 -28 79t-65 29zM183 156q0 -22 15 -38t47 -16
q47 0 77.5 29.5t30.5 72.5v9q-19 2 -41 2.5t-35 0.5q-50 0 -72 -18t-22 -42z" />
    <glyph glyph-name="uni01FC" unicode="&#x1fc;" horiz-adv-x="974" 
d="M10 0l357 700h545v-144h-306v-135h262v-134h-262v-143h311v-144h-466v128h-210l-64 -128h-167zM307 262h144v289zM525 768l83 145h154l-130 -145h-107z" />
    <glyph glyph-name="uni01FD" unicode="&#x1fd;" horiz-adv-x="878" 
d="M42 144q0 72 57.5 120t166.5 48q13 0 39 -1.5t48 -3.5q-4 53 -33 77t-78 24q-31 0 -64.5 -9.5t-63.5 -25.5l-42 118q40 21 88.5 34.5t100.5 13.5q59 0 104 -26.5t69 -76.5q30 52 77 77.5t103 25.5q69 0 119 -34.5t77.5 -94t27.5 -134.5q0 -13 -1 -28.5t-3 -28.5h-329
q11 -46 43.5 -73.5t82.5 -27.5q69 0 124 38l63 -106q-42 -30 -88.5 -47t-95.5 -17q-64 0 -118.5 29.5t-86.5 88.5q-28 -55 -83 -86.5t-123 -31.5q-86 0 -133.5 45.5t-47.5 112.5zM600 418q-36 0 -61.5 -28t-33.5 -80h188q-4 50 -28 79t-65 29zM183 156q0 -22 15 -38t47 -16
q47 0 77.5 29.5t30.5 72.5v9q-19 2 -41 2.5t-35 0.5q-50 0 -72 -18t-22 -42zM387 606l68 170h141l-108 -170h-101z" />
    <glyph glyph-name="uni0106" unicode="&#x106;" horiz-adv-x="672" 
d="M47 350q0 78 26 144.5t72.5 115.5t110 76.5t138.5 27.5q79 0 143 -29.5t103 -76.5l-107 -111q-25 31 -60 47t-76 16q-54 0 -96.5 -27t-66.5 -74t-24 -109q0 -61 23.5 -108.5t65 -74.5t95.5 -27q42 0 80.5 16.5t65.5 47.5l105 -112q-40 -45 -105 -75.5t-143 -30.5
q-77 0 -141 27t-111 76.5t-72.5 116t-25.5 144.5zM321 768l83 145h154l-130 -145h-107z" />
    <glyph glyph-name="uni0107" unicode="&#x107;" horiz-adv-x="526" 
d="M37 263q0 78 33.5 140.5t93 99t137.5 36.5q63 0 114 -20.5t89 -57.5l-93 -102q-37 40 -96 40q-55 0 -91 -37t-36 -99t36.5 -99.5t92.5 -37.5q29 0 57 13t45 32l90 -105q-37 -37 -91 -58.5t-117 -21.5q-78 0 -137.5 36.5t-93 99.5t-33.5 141zM247 606l68 170h141
l-108 -170h-101z" />
    <glyph glyph-name="uni0108" unicode="&#x108;" horiz-adv-x="672" 
d="M47 350q0 78 26 144.5t72.5 115.5t110 76.5t138.5 27.5q79 0 143 -29.5t103 -76.5l-107 -111q-25 31 -60 47t-76 16q-54 0 -96.5 -27t-66.5 -74t-24 -109q0 -61 23.5 -108.5t65 -74.5t95.5 -27q42 0 80.5 16.5t65.5 47.5l105 -112q-40 -45 -105 -75.5t-143 -30.5
q-77 0 -141 27t-111 76.5t-72.5 116t-25.5 144.5zM204 768l114 145h116l114 -145h-105l-67 59l-67 -59h-105z" />
    <glyph glyph-name="uni0109" unicode="&#x109;" horiz-adv-x="526" 
d="M37 263q0 78 33.5 140.5t93 99t137.5 36.5q63 0 114 -20.5t89 -57.5l-93 -102q-37 40 -96 40q-55 0 -91 -37t-36 -99t36.5 -99.5t92.5 -37.5q29 0 57 13t45 32l90 -105q-37 -37 -91 -58.5t-117 -21.5q-78 0 -137.5 36.5t-93 99.5t-33.5 141zM133 606l111 170h106
l111 -170h-102l-62 73l-62 -73h-102z" />
    <glyph glyph-name="uni010C" unicode="&#x10c;" horiz-adv-x="672" 
d="M47 350q0 78 26 144.5t72.5 115.5t110 76.5t138.5 27.5q79 0 143 -29.5t103 -76.5l-107 -111q-25 31 -60 47t-76 16q-54 0 -96.5 -27t-66.5 -74t-24 -109q0 -61 23.5 -108.5t65 -74.5t95.5 -27q42 0 80.5 16.5t65.5 47.5l105 -112q-40 -45 -105 -75.5t-143 -30.5
q-77 0 -141 27t-111 76.5t-72.5 116t-25.5 144.5zM548 905l-114 -145h-116l-114 145h105l67 -60l67 60h105z" />
    <glyph glyph-name="uni010D" unicode="&#x10d;" horiz-adv-x="526" 
d="M37 263q0 78 33.5 140.5t93 99t137.5 36.5q63 0 114 -20.5t89 -57.5l-93 -102q-37 40 -96 40q-55 0 -91 -37t-36 -99t36.5 -99.5t92.5 -37.5q29 0 57 13t45 32l90 -105q-37 -37 -91 -58.5t-117 -21.5q-78 0 -137.5 36.5t-93 99.5t-33.5 141zM133 768h102l62 -74l62 74
h102l-111 -170h-106z" />
    <glyph glyph-name="uni010A" unicode="&#x10a;" horiz-adv-x="672" 
d="M47 350q0 78 26 144.5t72.5 115.5t110 76.5t138.5 27.5q79 0 143 -29.5t103 -76.5l-107 -111q-25 31 -60 47t-76 16q-54 0 -96.5 -27t-66.5 -74t-24 -109q0 -61 23.5 -108.5t65 -74.5t95.5 -27q42 0 80.5 16.5t65.5 47.5l105 -112q-40 -45 -105 -75.5t-143 -30.5
q-77 0 -141 27t-111 76.5t-72.5 116t-25.5 144.5zM286 855q0 36 25 61.5t65 25.5q41 0 65.5 -25.5t24.5 -61.5q0 -37 -24.5 -62.5t-65.5 -25.5q-40 0 -65 25.5t-25 62.5z" />
    <glyph glyph-name="uni010B" unicode="&#x10b;" horiz-adv-x="526" 
d="M37 263q0 78 33.5 140.5t93 99t137.5 36.5q63 0 114 -20.5t89 -57.5l-93 -102q-37 40 -96 40q-55 0 -91 -37t-36 -99t36.5 -99.5t92.5 -37.5q29 0 57 13t45 32l90 -105q-37 -37 -91 -58.5t-117 -21.5q-78 0 -137.5 36.5t-93 99.5t-33.5 141zM207 690q0 37 25 62.5
t65 25.5q41 0 65.5 -25.5t24.5 -62.5q0 -36 -24.5 -61.5t-65.5 -25.5q-40 0 -65 25.5t-25 61.5z" />
    <glyph glyph-name="uni00C7" unicode="&#xc7;" horiz-adv-x="672" 
d="M289 -152l19 57q20 -7 39 -7q26 0 26 13q0 6 -9.5 12t-41.5 10l19 57q-87 13 -153.5 62.5t-103.5 126.5t-37 171q0 78 26 144.5t72.5 115.5t110 76.5t138.5 27.5q79 0 143 -29.5t103 -76.5l-107 -111q-25 31 -60 47t-76 16q-54 0 -96.5 -27t-66.5 -74t-24 -109
q0 -61 23.5 -108.5t65 -74.5t95.5 -27q42 0 80.5 16.5t65.5 47.5l105 -112q-38 -43 -99 -73t-135 -33l-5 -22q35 -4 54.5 -23t19.5 -42q0 -27 -27 -45t-80 -18q-23 0 -45 3.5t-39 8.5z" />
    <glyph glyph-name="uni00E7" unicode="&#xe7;" horiz-adv-x="526" 
d="M200 -152l19 57q20 -7 39 -7q26 0 26 13q0 6 -9.5 12t-41.5 10l19 57q-64 12 -112.5 50t-75.5 95.5t-27 127.5q0 78 33.5 140.5t93 99t137.5 36.5q63 0 114 -20.5t89 -57.5l-93 -102q-37 40 -96 40q-55 0 -91 -37t-36 -99t36.5 -99.5t92.5 -37.5q29 0 57 13t45 32
l90 -105q-34 -34 -82.5 -55t-104.5 -24l-5 -23q35 -4 54.5 -23t19.5 -42q0 -27 -27 -45t-80 -18q-23 0 -45 3.5t-39 8.5z" />
    <glyph glyph-name="uni010E" unicode="&#x10e;" horiz-adv-x="735" 
d="M89 0v700h245q107 0 186.5 -45t124 -123.5t44.5 -181.5q0 -102 -44.5 -181t-124 -124t-186.5 -45h-245zM324 556h-79v-412h79q92 0 146.5 56.5t54.5 149.5t-54.5 149.5t-146.5 56.5zM489 905l-114 -145h-116l-114 145h105l67 -60l67 60h105z" />
    <glyph glyph-name="uni010F" unicode="&#x10f;" horiz-adv-x="740" 
d="M37 263q0 78 28 140.5t78 99t117 36.5q44 0 81 -17t65 -47v255h148v-730h-142v57q-29 -33 -67.5 -52t-84.5 -19q-66 0 -116.5 36.5t-78.5 99.5t-28 141zM188 263q0 -63 32 -103t82 -40q51 0 83.5 39.5t32.5 103.5q0 65 -32.5 104t-83.5 39q-50 0 -82 -40t-32 -103z
M633 730h137l-57 -309h-103z" />
    <glyph glyph-name="uni0110" unicode="&#x110;" horiz-adv-x="735" 
d="M89 0v280h-74v124h74v296h245q107 0 186.5 -45t124 -123.5t44.5 -181.5q0 -102 -44.5 -181t-124 -124t-186.5 -45h-245zM392 280h-147v-136h79q92 0 146.5 56.5t54.5 149.5t-54.5 149.5t-146.5 56.5h-79v-152h147v-124z" />
    <glyph glyph-name="uni0111" unicode="&#x111;" horiz-adv-x="631" 
d="M37 247q0 74 28 133t78 93.5t117 34.5q44 0 81 -16t65 -45v108h-117v114h117v61h148v-61h72v-114h-72v-555h-142v54q-29 -32 -67.5 -50t-84.5 -18q-66 0 -116.5 34.5t-78.5 94t-28 132.5zM188 247q0 -55 32 -91t82 -36q51 0 83.5 34.5t32.5 92.5q0 59 -32.5 93.5
t-83.5 34.5q-50 0 -82 -36t-32 -92z" />
    <glyph glyph-name="uni00D0" unicode="&#xd0;" horiz-adv-x="735" 
d="M89 0v280h-74v124h74v296h245q107 0 186.5 -45t124 -123.5t44.5 -181.5q0 -102 -44.5 -181t-124 -124t-186.5 -45h-245zM392 280h-147v-136h79q92 0 146.5 56.5t54.5 149.5t-54.5 149.5t-146.5 56.5h-79v-152h147v-124z" />
    <glyph glyph-name="uni00F0" unicode="&#xf0;" horiz-adv-x="649" 
d="M50 246q0 72 31 127t83 86.5t113 31.5q73 0 124 -46q-14 30 -34.5 59.5t-46.5 59.5l-123 -47l-33 89l81 31q-25 22 -54 45t-63 48h199q26 -21 49 -43l114 43l34 -89l-78 -30q64 -78 100.5 -165.5t36.5 -175.5q0 -84 -33.5 -148t-93 -100t-138.5 -36q-80 0 -140.5 35
t-94 94.5t-33.5 130.5zM204 244q0 -51 32 -84.5t81 -33.5q50 0 81.5 33.5t31.5 84.5t-31.5 82.5t-81.5 31.5q-49 0 -81 -31.5t-32 -82.5z" />
    <glyph glyph-name="uni00C8" unicode="&#xc8;" horiz-adv-x="632" 
d="M89 0v700h481v-144h-325v-135h282v-134h-282v-143h331v-144h-487zM152 913h154l83 -145h-107z" />
    <glyph glyph-name="uni00E8" unicode="&#xe8;" horiz-adv-x="580" 
d="M37 261q0 79 32 141.5t89.5 99.5t134.5 37t132 -34.5t85 -94t30 -134.5q0 -13 -1 -28.5t-4 -28.5h-347q11 -46 46.5 -73.5t88.5 -27.5q35 0 70.5 10t62.5 28l64 -106q-46 -30 -97.5 -47t-109.5 -17q-81 0 -143.5 36.5t-97.5 99t-35 139.5zM293 418q-40 0 -68 -28t-38 -80
h208q-5 50 -31.5 79t-70.5 29zM134 776h141l68 -170h-101z" />
    <glyph glyph-name="uni00C9" unicode="&#xc9;" horiz-adv-x="632" 
d="M89 0v700h481v-144h-325v-135h282v-134h-282v-143h331v-144h-487zM279 768l83 145h154l-130 -145h-107z" />
    <glyph glyph-name="uni00E9" unicode="&#xe9;" horiz-adv-x="583" 
d="M37 261q0 79 32 141.5t89.5 99.5t134.5 37t132 -34.5t85 -94t30 -134.5q0 -13 -1 -28.5t-4 -28.5h-347q11 -46 46.5 -73.5t88.5 -27.5q35 0 70.5 10t62.5 28l64 -106q-46 -30 -97.5 -47t-109.5 -17q-81 0 -143.5 36.5t-97.5 99t-35 139.5zM293 418q-40 0 -68 -28t-38 -80
h208q-5 50 -31.5 79t-70.5 29zM243 606l68 170h141l-108 -170h-101z" />
    <glyph glyph-name="uni00CA" unicode="&#xca;" horiz-adv-x="632" 
d="M89 0v700h481v-144h-325v-135h282v-134h-282v-143h331v-144h-487zM162 768l114 145h116l114 -145h-105l-67 59l-67 -59h-105z" />
    <glyph glyph-name="uni00EA" unicode="&#xea;" horiz-adv-x="580" 
d="M37 261q0 79 32 141.5t89.5 99.5t134.5 37t132 -34.5t85 -94t30 -134.5q0 -13 -1 -28.5t-4 -28.5h-347q11 -46 46.5 -73.5t88.5 -27.5q35 0 70.5 10t62.5 28l64 -106q-46 -30 -97.5 -47t-109.5 -17q-81 0 -143.5 36.5t-97.5 99t-35 139.5zM293 418q-40 0 -68 -28t-38 -80
h208q-5 50 -31.5 79t-70.5 29zM129 606l111 170h106l111 -170h-102l-62 73l-62 -73h-102z" />
    <glyph glyph-name="uni1EBC" unicode="&#x1ebc;" horiz-adv-x="632" 
d="M89 0v700h481v-144h-325v-135h282v-134h-282v-143h331v-144h-487zM143 765q3 42 15.5 76.5t37.5 55.5t64 21q28 0 49.5 -9.5t39.5 -22.5t33.5 -22.5t31.5 -9.5q17 0 25.5 14t12.5 45h73q-2 -41 -15 -76t-38 -56t-64 -21q-28 0 -50 10t-39.5 22.5t-33 22.5t-31.5 10
t-24.5 -14.5t-13.5 -45.5h-73z" />
    <glyph glyph-name="uni1EBD" unicode="&#x1ebd;" horiz-adv-x="580" 
d="M37 261q0 79 32 141.5t89.5 99.5t134.5 37t132 -34.5t85 -94t30 -134.5q0 -13 -1 -28.5t-4 -28.5h-347q11 -46 46.5 -73.5t88.5 -27.5q35 0 70.5 10t62.5 28l64 -106q-46 -30 -97.5 -47t-109.5 -17q-81 0 -143.5 36.5t-97.5 99t-35 139.5zM293 418q-40 0 -68 -28t-38 -80
h208q-5 50 -31.5 79t-70.5 29zM115 606q2 42 14 77t36 56.5t62 21.5q27 0 47 -10t35.5 -23.5t28 -23.5t24.5 -10q29 0 36 62h73q-2 -42 -14 -77.5t-36 -57t-62 -21.5q-27 0 -47 10t-35.5 23.5t-28 23.5t-24.5 10q-29 0 -36 -61h-73z" />
    <glyph glyph-name="uni011A" unicode="&#x11a;" horiz-adv-x="632" 
d="M89 0v700h481v-144h-325v-135h282v-134h-282v-143h331v-144h-487zM506 905l-114 -145h-116l-114 145h105l67 -60l67 60h105z" />
    <glyph glyph-name="uni011B" unicode="&#x11b;" horiz-adv-x="580" 
d="M37 261q0 79 32 141.5t89.5 99.5t134.5 37t132 -34.5t85 -94t30 -134.5q0 -13 -1 -28.5t-4 -28.5h-347q11 -46 46.5 -73.5t88.5 -27.5q35 0 70.5 10t62.5 28l64 -106q-46 -30 -97.5 -47t-109.5 -17q-81 0 -143.5 36.5t-97.5 99t-35 139.5zM293 418q-40 0 -68 -28t-38 -80
h208q-5 50 -31.5 79t-70.5 29zM129 768h102l62 -74l62 74h102l-111 -170h-106z" />
    <glyph glyph-name="uni00CB" unicode="&#xcb;" horiz-adv-x="632" 
d="M89 0v700h481v-144h-325v-135h282v-134h-282v-143h331v-144h-487zM148 844q0 29 20 49t51 20t51 -20t20 -49q0 -30 -20 -50t-51 -20t-51 20t-20 50zM378 844q0 29 20 49t51 20t51 -20t20 -49q0 -30 -20 -50t-51 -20t-51 20t-20 50z" />
    <glyph glyph-name="uni00EB" unicode="&#xeb;" horiz-adv-x="580" 
d="M37 261q0 79 32 141.5t89.5 99.5t134.5 37t132 -34.5t85 -94t30 -134.5q0 -13 -1 -28.5t-4 -28.5h-347q11 -46 46.5 -73.5t88.5 -27.5q35 0 70.5 10t62.5 28l64 -106q-46 -30 -97.5 -47t-109.5 -17q-81 0 -143.5 36.5t-97.5 99t-35 139.5zM293 418q-40 0 -68 -28t-38 -80
h208q-5 50 -31.5 79t-70.5 29zM115 683q0 29 20 49t51 20t51 -20t20 -49q0 -30 -20 -50t-51 -20t-51 20t-20 50zM329 683q0 29 20 49t51 20t51 -20t20 -49q0 -30 -20 -50t-51 -20t-51 20t-20 50z" />
    <glyph glyph-name="uni0112" unicode="&#x112;" horiz-adv-x="632" 
d="M89 0v700h481v-144h-325v-135h282v-134h-282v-143h331v-144h-487zM161 790v106h346v-106h-346z" />
    <glyph glyph-name="uni0113" unicode="&#x113;" horiz-adv-x="580" 
d="M37 261q0 79 32 141.5t89.5 99.5t134.5 37t132 -34.5t85 -94t30 -134.5q0 -13 -1 -28.5t-4 -28.5h-347q11 -46 46.5 -73.5t88.5 -27.5q35 0 70.5 10t62.5 28l64 -106q-46 -30 -97.5 -47t-109.5 -17q-81 0 -143.5 36.5t-97.5 99t-35 139.5zM293 418q-40 0 -68 -28t-38 -80
h208q-5 50 -31.5 79t-70.5 29zM130 648v106h326v-106h-326z" />
    <glyph glyph-name="uni0114" unicode="&#x114;" horiz-adv-x="632" 
d="M89 0v700h481v-144h-325v-135h282v-134h-282v-143h331v-144h-487zM163 905h100q2 -21 20 -34t51 -13t50.5 13t20.5 34h100q-6 -71 -51 -108t-120 -37t-120 37t-51 108z" />
    <glyph glyph-name="uni0115" unicode="&#x115;" horiz-adv-x="580" 
d="M37 261q0 79 32 141.5t89.5 99.5t134.5 37t132 -34.5t85 -94t30 -134.5q0 -13 -1 -28.5t-4 -28.5h-347q11 -46 46.5 -73.5t88.5 -27.5q35 0 70.5 10t62.5 28l64 -106q-46 -30 -97.5 -47t-109.5 -17q-81 0 -143.5 36.5t-97.5 99t-35 139.5zM293 418q-40 0 -68 -28t-38 -80
h208q-5 50 -31.5 79t-70.5 29zM132 768h100q9 -69 61 -69t61 69h100q-7 -85 -48.5 -127.5t-112.5 -42.5q-70 0 -111.5 42.5t-49.5 127.5z" />
    <glyph glyph-name="uni0116" unicode="&#x116;" horiz-adv-x="632" 
d="M89 0v700h481v-144h-325v-135h282v-134h-282v-143h331v-144h-487zM244 855q0 36 25 61.5t65 25.5q41 0 65.5 -25.5t24.5 -61.5q0 -37 -24.5 -62.5t-65.5 -25.5q-40 0 -65 25.5t-25 62.5z" />
    <glyph glyph-name="uni0117" unicode="&#x117;" horiz-adv-x="580" 
d="M37 261q0 79 32 141.5t89.5 99.5t134.5 37t132 -34.5t85 -94t30 -134.5q0 -13 -1 -28.5t-4 -28.5h-347q11 -46 46.5 -73.5t88.5 -27.5q35 0 70.5 10t62.5 28l64 -106q-46 -30 -97.5 -47t-109.5 -17q-81 0 -143.5 36.5t-97.5 99t-35 139.5zM293 418q-40 0 -68 -28t-38 -80
h208q-5 50 -31.5 79t-70.5 29zM203 690q0 37 25 62.5t65 25.5q41 0 65.5 -25.5t24.5 -62.5q0 -36 -24.5 -61.5t-65.5 -25.5q-40 0 -65 25.5t-25 61.5z" />
    <glyph glyph-name="uni1EB8" unicode="&#x1eb8;" horiz-adv-x="632" 
d="M89 0v700h481v-144h-325v-135h282v-134h-282v-143h331v-144h-487zM255 -160q0 37 25 62.5t65 25.5q41 0 65.5 -25.5t24.5 -62.5t-24.5 -62.5t-65.5 -25.5q-40 0 -65 25.5t-25 62.5z" />
    <glyph glyph-name="uni1EB9" unicode="&#x1eb9;" horiz-adv-x="580" 
d="M37 261q0 79 32 141.5t89.5 99.5t134.5 37t132 -34.5t85 -94t30 -134.5q0 -13 -1 -28.5t-4 -28.5h-347q11 -46 46.5 -73.5t88.5 -27.5q35 0 70.5 10t62.5 28l64 -106q-46 -30 -97.5 -47t-109.5 -17q-81 0 -143.5 36.5t-97.5 99t-35 139.5zM293 418q-40 0 -68 -28t-38 -80
h208q-5 50 -31.5 79t-70.5 29zM212 -160q0 37 25 62.5t65 25.5q41 0 65.5 -25.5t24.5 -62.5t-24.5 -62.5t-65.5 -25.5q-40 0 -65 25.5t-25 62.5z" />
    <glyph glyph-name="uni0118" unicode="&#x118;" horiz-adv-x="632" 
d="M89 0v700h481v-144h-325v-135h282v-134h-282v-143h331v-144q-74 -30 -102.5 -56t-28.5 -49q0 -13 9 -21.5t25 -8.5q26 0 60 21l22 -81q-22 -14 -50.5 -23.5t-57.5 -9.5q-52 0 -84 29t-32 71q0 38 23.5 70t65.5 58h-337z" />
    <glyph glyph-name="uni0119" unicode="&#x119;" horiz-adv-x="580" 
d="M476 25q-80 -38 -110.5 -68t-30.5 -57q0 -15 9.5 -25t27.5 -10q23 0 57 21l22 -81q-22 -14 -50.5 -23.5t-57.5 -9.5q-52 0 -84 29t-32 70q0 31 16.5 60.5t46.5 55.5q-75 5 -132 42.5t-89 97.5t-32 134q0 79 32 141.5t89.5 99.5t134.5 37t132 -34.5t85 -94t30 -134.5
q0 -13 -1 -28.5t-4 -28.5h-347q11 -46 46.5 -73.5t88.5 -27.5q35 0 70.5 10t62.5 28l64 -106q-21 -13 -44 -25zM293 418q-40 0 -68 -28t-38 -80h208q-5 50 -31.5 79t-70.5 29z" />
    <glyph glyph-name="uni011C" unicode="&#x11c;" horiz-adv-x="751" 
d="M47 350q0 78 26.5 144.5t74 115.5t112.5 76.5t143 27.5q81 0 147.5 -28t106.5 -74l-105 -115q-26 30 -65 46.5t-83 16.5q-57 0 -100.5 -26.5t-68.5 -73.5t-25 -110q0 -101 52.5 -161t140.5 -60q39 0 71.5 9t57.5 25v94h-131v135h281v-297q-31 -31 -76.5 -55.5t-99 -39
t-109.5 -14.5q-103 0 -182 47t-123.5 129.5t-44.5 187.5zM222 768l114 145h116l114 -145h-105l-67 59l-67 -59h-105z" />
    <glyph glyph-name="uni011D" unicode="&#x11d;" horiz-adv-x="626" 
d="M57 -109l52 119q32 -20 72 -31.5t80 -11.5q141 0 141 126v7q-28 -26 -64.5 -41t-78.5 -15q-64 0 -114 32.5t-79 88t-29 125.5q0 71 29 127t79.5 89t115.5 33q44 0 81 -16.5t65 -45.5v49h143v-434q0 -118 -70 -187t-204 -69q-127 0 -219 55zM188 290q0 -51 31.5 -83
t80.5 -32q50 0 81.5 31.5t31.5 83.5q0 53 -31.5 84.5t-81.5 31.5q-49 0 -80.5 -32.5t-31.5 -83.5zM156 606l111 170h106l111 -170h-102l-62 73l-62 -73h-102z" />
    <glyph glyph-name="uni01E6" unicode="&#x1e6;" horiz-adv-x="751" 
d="M47 350q0 78 26.5 144.5t74 115.5t112.5 76.5t143 27.5q81 0 147.5 -28t106.5 -74l-105 -115q-26 30 -65 46.5t-83 16.5q-57 0 -100.5 -26.5t-68.5 -73.5t-25 -110q0 -101 52.5 -161t140.5 -60q39 0 71.5 9t57.5 25v94h-131v135h281v-297q-31 -31 -76.5 -55.5t-99 -39
t-109.5 -14.5q-103 0 -182 47t-123.5 129.5t-44.5 187.5zM566 905l-114 -145h-116l-114 145h105l67 -60l67 60h105z" />
    <glyph glyph-name="uni01E7" unicode="&#x1e7;" horiz-adv-x="626" 
d="M57 -109l52 119q32 -20 72 -31.5t80 -11.5q141 0 141 126v7q-28 -26 -64.5 -41t-78.5 -15q-64 0 -114 32.5t-79 88t-29 125.5q0 71 29 127t79.5 89t115.5 33q44 0 81 -16.5t65 -45.5v49h143v-434q0 -118 -70 -187t-204 -69q-127 0 -219 55zM188 290q0 -51 31.5 -83
t80.5 -32q50 0 81.5 31.5t31.5 83.5q0 53 -31.5 84.5t-81.5 31.5q-49 0 -80.5 -32.5t-31.5 -83.5zM156 768h102l62 -74l62 74h102l-111 -170h-106z" />
    <glyph glyph-name="uni011E" unicode="&#x11e;" horiz-adv-x="751" 
d="M47 350q0 78 26.5 144.5t74 115.5t112.5 76.5t143 27.5q81 0 147.5 -28t106.5 -74l-105 -115q-26 30 -65 46.5t-83 16.5q-57 0 -100.5 -26.5t-68.5 -73.5t-25 -110q0 -101 52.5 -161t140.5 -60q39 0 71.5 9t57.5 25v94h-131v135h281v-297q-31 -31 -76.5 -55.5t-99 -39
t-109.5 -14.5q-103 0 -182 47t-123.5 129.5t-44.5 187.5zM223 905h100q2 -21 20 -34t51 -13t50.5 13t20.5 34h100q-6 -71 -51 -108t-120 -37t-120 37t-51 108z" />
    <glyph glyph-name="uni011F" unicode="&#x11f;" horiz-adv-x="626" 
d="M57 -109l52 119q32 -20 72 -31.5t80 -11.5q141 0 141 126v7q-28 -26 -64.5 -41t-78.5 -15q-64 0 -114 32.5t-79 88t-29 125.5q0 71 29 127t79.5 89t115.5 33q44 0 81 -16.5t65 -45.5v49h143v-434q0 -118 -70 -187t-204 -69q-127 0 -219 55zM188 290q0 -51 31.5 -83
t80.5 -32q50 0 81.5 31.5t31.5 83.5q0 53 -31.5 84.5t-81.5 31.5q-49 0 -80.5 -32.5t-31.5 -83.5zM159 768h100q9 -69 61 -69t61 69h100q-7 -85 -48.5 -127.5t-112.5 -42.5q-70 0 -111.5 42.5t-49.5 127.5z" />
    <glyph glyph-name="uni0120" unicode="&#x120;" horiz-adv-x="751" 
d="M47 350q0 78 26.5 144.5t74 115.5t112.5 76.5t143 27.5q81 0 147.5 -28t106.5 -74l-105 -115q-26 30 -65 46.5t-83 16.5q-57 0 -100.5 -26.5t-68.5 -73.5t-25 -110q0 -101 52.5 -161t140.5 -60q39 0 71.5 9t57.5 25v94h-131v135h281v-297q-31 -31 -76.5 -55.5t-99 -39
t-109.5 -14.5q-103 0 -182 47t-123.5 129.5t-44.5 187.5zM304 855q0 36 25 61.5t65 25.5q41 0 65.5 -25.5t24.5 -61.5q0 -37 -24.5 -62.5t-65.5 -25.5q-40 0 -65 25.5t-25 62.5z" />
    <glyph glyph-name="uni0121" unicode="&#x121;" horiz-adv-x="626" 
d="M57 -109l52 119q32 -20 72 -31.5t80 -11.5q141 0 141 126v7q-28 -26 -64.5 -41t-78.5 -15q-64 0 -114 32.5t-79 88t-29 125.5q0 71 29 127t79.5 89t115.5 33q44 0 81 -16.5t65 -45.5v49h143v-434q0 -118 -70 -187t-204 -69q-127 0 -219 55zM188 290q0 -51 31.5 -83
t80.5 -32q50 0 81.5 31.5t31.5 83.5q0 53 -31.5 84.5t-81.5 31.5q-49 0 -80.5 -32.5t-31.5 -83.5zM240 690q0 37 25 62.5t65 25.5q41 0 65.5 -25.5t24.5 -62.5q0 -36 -24.5 -61.5t-65.5 -25.5q-40 0 -65 25.5t-25 61.5z" />
    <glyph glyph-name="uni0122" unicode="&#x122;" horiz-adv-x="751" 
d="M47 350q0 78 26.5 144.5t74 115.5t112.5 76.5t143 27.5q81 0 147.5 -28t106.5 -74l-105 -115q-26 30 -65 46.5t-83 16.5q-57 0 -100.5 -26.5t-68.5 -73.5t-25 -110q0 -101 52.5 -161t140.5 -60q39 0 71.5 9t57.5 25v94h-131v135h281v-297q-31 -31 -76.5 -55.5t-99 -39
t-109.5 -14.5q-103 0 -182 47t-123.5 129.5t-44.5 187.5zM322 -157q0 35 25 60t65 25q41 0 66 -25.5t25 -67.5q0 -23 -10 -53t-25 -60t-31 -53h-97q12 21 22.5 46.5t15.5 47.5q-24 8 -40 29.5t-16 50.5z" />
    <glyph glyph-name="uni0123" unicode="&#x123;" horiz-adv-x="626" 
d="M57 -109l52 119q32 -20 72 -31.5t80 -11.5q141 0 141 126v7q-28 -26 -64.5 -41t-78.5 -15q-64 0 -114 32.5t-79 88t-29 125.5q0 71 29 127t79.5 89t115.5 33q44 0 81 -16.5t65 -45.5v49h143v-434q0 -118 -70 -187t-204 -69q-127 0 -219 55zM188 290q0 -51 31.5 -83
t80.5 -32q50 0 81.5 31.5t31.5 83.5q0 53 -31.5 84.5t-81.5 31.5q-49 0 -80.5 -32.5t-31.5 -83.5zM410 688q0 -35 -24.5 -60t-65.5 -25q-40 0 -65.5 25t-25.5 68q0 23 10 53t25 60t31 52h97q-12 -20 -22.5 -45.5t-15.5 -48.5q24 -7 40 -28.5t16 -50.5z" />
    <glyph glyph-name="uni0124" unicode="&#x124;" horiz-adv-x="750" 
d="M89 0v700h156v-274h261v274h156v-700h-156v282h-261v-282h-156zM203 768l114 145h116l114 -145h-105l-67 59l-67 -59h-105z" />
    <glyph glyph-name="uni0125" unicode="&#x125;" horiz-adv-x="638" 
d="M76 0v730h148v-275q23 38 64.5 61t93.5 23q51 0 93.5 -26t68 -76.5t25.5 -125.5v-311h-148v285q0 62 -26.5 87.5t-64.5 25.5q-45 0 -75.5 -33.5t-30.5 -97.5v-267h-148zM-14 810l111 170h106l111 -170h-102l-62 73l-62 -73h-102z" />
    <glyph glyph-name="uni0126" unicode="&#x126;" horiz-adv-x="750" 
d="M89 0v477h-82v114h82v109h156v-109h261v109h156v-109h82v-114h-82v-477h-156v231h-261v-231h-156zM245 375h261v102h-261v-102z" />
    <glyph glyph-name="uni0127" unicode="&#x127;" horiz-adv-x="638" 
d="M76 0v555h-72v114h72v61h148v-61h118v-114h-118v-131q23 38 64.5 61t93.5 23q51 0 93.5 -25.5t68 -76.5t25.5 -126v-280h-148v254q0 62 -26.5 88t-64.5 26q-45 0 -75.5 -34t-30.5 -98v-236h-148z" />
    <glyph glyph-name="uni0131" unicode="&#x131;" horiz-adv-x="300" 
d="M76 0v526h148v-526h-148z" />
    <glyph glyph-name="uni00CC" unicode="&#xcc;" horiz-adv-x="334" 
d="M89 0v700h156v-700h-156zM-15 913h154l83 -145h-107z" />
    <glyph glyph-name="uni00EC" unicode="&#xec;" horiz-adv-x="300" 
d="M-9 776h141l68 -170h-101zM76 0v526h148v-526h-148z" />
    <glyph glyph-name="uni00CD" unicode="&#xcd;" horiz-adv-x="334" 
d="M89 0v700h156v-700h-156zM112 768l83 145h154l-130 -145h-107z" />
    <glyph glyph-name="uni00ED" unicode="&#xed;" horiz-adv-x="300" 
d="M76 0v526h148v-526h-148zM100 606l68 170h141l-108 -170h-101z" />
    <glyph glyph-name="uni00CE" unicode="&#xce;" horiz-adv-x="334" 
d="M-5 768l114 145h116l114 -145h-105l-67 59l-67 -59h-105zM89 0v700h156v-700h-156z" />
    <glyph glyph-name="uni00EE" unicode="&#xee;" horiz-adv-x="300" 
d="M-14 606l111 170h106l111 -170h-102l-62 73l-62 -73h-102zM76 0v526h148v-526h-148z" />
    <glyph glyph-name="uni0128" unicode="&#x128;" horiz-adv-x="334" 
d="M89 0v700h156v-700h-156zM-24 765q3 42 15.5 76.5t37.5 55.5t64 21q28 0 49.5 -9.5t39.5 -22.5t33.5 -22.5t31.5 -9.5q17 0 25.5 14t12.5 45h73q-2 -41 -15 -76t-38 -56t-64 -21q-28 0 -50 10t-39.5 22.5t-33 22.5t-31.5 10t-24.5 -14.5t-13.5 -45.5h-73z" />
    <glyph glyph-name="uni0129" unicode="&#x129;" horiz-adv-x="300" 
d="M76 0v526h148v-526h-148zM-28 606q2 42 14 77t36 56.5t62 21.5q27 0 47 -10t35.5 -23.5t28 -23.5t24.5 -10q29 0 36 62h73q-2 -42 -14 -77.5t-36 -57t-62 -21.5q-27 0 -47 10t-35.5 23.5t-28 23.5t-24.5 10q-29 0 -36 -61h-73z" />
    <glyph glyph-name="uni00CF" unicode="&#xcf;" horiz-adv-x="334" 
d="M-19 844q0 29 20 49t51 20t51 -20t20 -49q0 -30 -20 -50t-51 -20t-51 20t-20 50zM211 844q0 29 20 49t51 20t51 -20t20 -49q0 -30 -20 -50t-51 -20t-51 20t-20 50zM89 0v700h156v-700h-156z" />
    <glyph glyph-name="uni00EF" unicode="&#xef;" horiz-adv-x="300" 
d="M-28 683q0 29 20 49t51 20t51 -20t20 -49q0 -30 -20 -50t-51 -20t-51 20t-20 50zM186 683q0 29 20 49t51 20t51 -20t20 -49q0 -30 -20 -50t-51 -20t-51 20t-20 50zM76 0v526h148v-526h-148z" />
    <glyph glyph-name="uni012A" unicode="&#x12a;" horiz-adv-x="334" 
d="M89 0v700h156v-700h-156zM-6 790v106h346v-106h-346z" />
    <glyph glyph-name="uni012B" unicode="&#x12b;" horiz-adv-x="300" 
d="M76 0v526h148v-526h-148zM-13 648v106h326v-106h-326z" />
    <glyph glyph-name="uni012C" unicode="&#x12c;" horiz-adv-x="334" 
d="M89 0v700h156v-700h-156zM-4 905h100q2 -21 20 -34t51 -13t50.5 13t20.5 34h100q-6 -71 -51 -108t-120 -37t-120 37t-51 108z" />
    <glyph glyph-name="uni012D" unicode="&#x12d;" horiz-adv-x="300" 
d="M76 0v526h148v-526h-148zM-11 768h100q9 -69 61 -69t61 69h100q-7 -85 -48.5 -127.5t-112.5 -42.5q-70 0 -111.5 42.5t-49.5 127.5z" />
    <glyph glyph-name="uni0130" unicode="&#x130;" horiz-adv-x="334" 
d="M89 0v700h156v-700h-156zM77 855q0 36 25 61.5t65 25.5q41 0 65.5 -25.5t24.5 -61.5q0 -37 -24.5 -62.5t-65.5 -25.5q-40 0 -65 25.5t-25 62.5z" />
    <glyph glyph-name="uni0069.TRK" horiz-adv-x="300" 
d="M57 680q0 38 26 63t67 25t67 -25t26 -63q0 -37 -26 -62.5t-67 -25.5t-67 25.5t-26 62.5zM76 0v526h148v-526h-148z" />
    <glyph glyph-name="uni1ECA" unicode="&#x1eca;" horiz-adv-x="334" 
d="M89 0v700h156v-700h-156zM77 -160q0 37 25 62.5t65 25.5q41 0 65.5 -25.5t24.5 -62.5t-24.5 -62.5t-65.5 -25.5q-40 0 -65 25.5t-25 62.5z" />
    <glyph glyph-name="uni1ECB" unicode="&#x1ecb;" horiz-adv-x="300" 
d="M57 680q0 38 26 63t67 25t67 -25t26 -63q0 -37 -26 -62.5t-67 -25.5t-67 25.5t-26 62.5zM76 0v526h148v-526h-148zM60 -160q0 37 25 62.5t65 25.5q41 0 65.5 -25.5t24.5 -62.5t-24.5 -62.5t-65.5 -25.5q-40 0 -65 25.5t-25 62.5z" />
    <glyph glyph-name="uni012E" unicode="&#x12e;" horiz-adv-x="334" 
d="M89 0v700h156v-700h-156zM140 24l105 -24q-74 -30 -102.5 -56t-28.5 -49q0 -13 9 -21.5t25 -8.5q26 0 60 21l22 -81q-22 -14 -50.5 -23.5t-57.5 -9.5q-52 0 -84 29t-32 71q0 47 36 85t98 67z" />
    <glyph glyph-name="uni012F" unicode="&#x12f;" horiz-adv-x="300" 
d="M57 680q0 38 26 63t67 25t67 -25t26 -63q0 -37 -26 -62.5t-67 -25.5t-67 25.5t-26 62.5zM76 0v526h148v-526h-148zM119 24l105 -24q-74 -30 -102.5 -56t-28.5 -49q0 -13 9 -21.5t25 -8.5q26 0 60 21l22 -81q-22 -14 -50.5 -23.5t-57.5 -9.5q-52 0 -84 29t-32 71
q0 47 36 85t98 67z" />
    <glyph glyph-name="uni0237" unicode="&#x237;" horiz-adv-x="300" 
d="M-43 -154l9 132q24 -6 46 -6q32 0 48 16.5t16 55.5v482h148v-496q0 -97 -47 -145.5t-135 -48.5q-23 0 -45.5 3t-39.5 7z" />
    <glyph glyph-name="uni0134" unicode="&#x134;" horiz-adv-x="544" 
d="M15 82l92 106q17 -24 43.5 -39.5t55.5 -15.5q45 0 73.5 31t28.5 98v438h154v-454q0 -78 -30 -136.5t-85 -91t-131 -32.5q-55 0 -108 25t-93 71zM212 768l114 145h116l114 -145h-105l-67 59l-67 -59h-105z" />
    <glyph glyph-name="uni0135" unicode="&#x135;" horiz-adv-x="300" 
d="M-43 -154l9 132q24 -6 46 -6q32 0 48 16.5t16 55.5v482h148v-496q0 -97 -47 -145.5t-135 -48.5q-23 0 -45.5 3t-39.5 7zM-14 606l111 170h106l111 -170h-102l-62 73l-62 -73h-102z" />
    <glyph glyph-name="uni0136" unicode="&#x136;" horiz-adv-x="676" 
d="M89 0v700h156v-308l224 308h187l-264 -341l277 -359h-194l-230 311v-311h-156zM268 -157q0 35 25 60t65 25q41 0 66 -25.5t25 -67.5q0 -23 -10 -53t-25 -60t-31 -53h-97q12 21 22.5 46.5t15.5 47.5q-24 8 -40 29.5t-16 50.5z" />
    <glyph glyph-name="uni0137" unicode="&#x137;" horiz-adv-x="570" 
d="M76 0v730h148v-428l157 224h170l-193 -250l206 -276h-178l-162 229v-229h-148zM213 -157q0 35 25 60t65 25q41 0 66 -25.5t25 -67.5q0 -23 -10 -53t-25 -60t-31 -53h-97q12 21 22.5 46.5t15.5 47.5q-24 8 -40 29.5t-16 50.5z" />
    <glyph glyph-name="uni0138" unicode="&#x138;" horiz-adv-x="570" 
d="M76 0v526h148v-224l157 224h170l-193 -250l206 -276h-178l-162 229v-229h-148z" />
    <glyph glyph-name="uni0139" unicode="&#x139;" horiz-adv-x="569" 
d="M89 0v700h156v-556h293v-144h-449zM112 768l83 145h154l-130 -145h-107z" />
    <glyph glyph-name="uni013A" unicode="&#x13a;" horiz-adv-x="300" 
d="M76 0v730h148v-730h-148zM100 810l68 170h141l-108 -170h-101z" />
    <glyph glyph-name="uni013D" unicode="&#x13d;" horiz-adv-x="569" 
d="M89 0v700h156v-556h293v-144h-449zM442 730h137l-57 -309h-103z" />
    <glyph glyph-name="uni013E" unicode="&#x13e;" horiz-adv-x="409" 
d="M76 0v730h148v-730h-148zM302 730h137l-57 -309h-103z" />
    <glyph glyph-name="uni013B" unicode="&#x13b;" horiz-adv-x="569" 
d="M89 0v700h156v-556h293v-144h-449zM230 -157q0 35 25 60t65 25q41 0 66 -25.5t25 -67.5q0 -23 -10 -53t-25 -60t-31 -53h-97q12 21 22.5 46.5t15.5 47.5q-24 8 -40 29.5t-16 50.5z" />
    <glyph glyph-name="uni013C" unicode="&#x13c;" horiz-adv-x="300" 
d="M76 0v730h148v-730h-148zM60 -157q0 35 25 60t65 25q41 0 66 -25.5t25 -67.5q0 -23 -10 -53t-25 -60t-31 -53h-97q12 21 22.5 46.5t15.5 47.5q-24 8 -40 29.5t-16 50.5z" />
    <glyph glyph-name="uni0141" unicode="&#x141;" horiz-adv-x="569" 
d="M89 0v198l-74 -38v141l74 38v361h156v-282l148 76v-140l-148 -76v-134h293v-144h-449z" />
    <glyph glyph-name="uni0142" unicode="&#x142;" horiz-adv-x="318" 
d="M76 0v205l-61 -31v140l61 31v385h148v-309l79 41v-141l-79 -40v-281h-148z" />
    <glyph glyph-name="uni013F" unicode="&#x13f;" horiz-adv-x="569" 
d="M89 0v700h156v-556h293v-144h-449zM354 349q0 38 27 65.5t70 27.5q42 0 69 -27.5t27 -65.5q0 -39 -27 -66t-69 -27q-43 0 -70 27t-27 66z" />
    <glyph glyph-name="uni0140" unicode="&#x140;" horiz-adv-x="420" 
d="M76 0v730h148v-730h-148zM262 298q0 38 27 65.5t70 27.5q42 0 69 -27.5t27 -65.5q0 -39 -27 -66t-69 -27q-43 0 -70 27t-27 66z" />
    <glyph glyph-name="uni0143" unicode="&#x143;" horiz-adv-x="760" 
d="M89 0v702h83l345 -393v391h153v-702h-82l-346 394v-392h-153zM326 768l83 145h154l-130 -145h-107z" />
    <glyph glyph-name="uni0144" unicode="&#x144;" horiz-adv-x="638" 
d="M76 0v526h148v-71q23 38 64.5 61t93.5 23q51 0 93.5 -26t68 -76.5t25.5 -125.5v-311h-148v285q0 62 -26.5 87.5t-64.5 25.5q-45 0 -75.5 -33.5t-30.5 -97.5v-267h-148zM278 606l68 170h141l-108 -170h-101z" />
    <glyph glyph-name="uni00D1" unicode="&#xd1;" horiz-adv-x="760" 
d="M89 0v702h83l345 -393v391h153v-702h-82l-346 394v-392h-153zM190 765q3 42 15.5 76.5t37.5 55.5t64 21q28 0 49.5 -9.5t39.5 -22.5t33.5 -22.5t31.5 -9.5q17 0 25.5 14t12.5 45h73q-2 -41 -15 -76t-38 -56t-64 -21q-28 0 -50 10t-39.5 22.5t-33 22.5t-31.5 10
t-24.5 -14.5t-13.5 -45.5h-73z" />
    <glyph glyph-name="uni00F1" unicode="&#xf1;" horiz-adv-x="638" 
d="M76 0v526h148v-71q23 38 64.5 61t93.5 23q51 0 93.5 -26t68 -76.5t25.5 -125.5v-311h-148v285q0 62 -26.5 87.5t-64.5 25.5q-45 0 -75.5 -33.5t-30.5 -97.5v-267h-148zM150 606q2 42 14 77t36 56.5t62 21.5q27 0 47 -10t35.5 -23.5t28 -23.5t24.5 -10q29 0 36 62h73
q-2 -42 -14 -77.5t-36 -57t-62 -21.5q-27 0 -47 10t-35.5 23.5t-28 23.5t-24.5 10q-29 0 -36 -61h-73z" />
    <glyph glyph-name="uni0147" unicode="&#x147;" horiz-adv-x="760" 
d="M89 0v702h83l345 -393v391h153v-702h-82l-346 394v-392h-153zM553 905l-114 -145h-116l-114 145h105l67 -60l67 60h105z" />
    <glyph glyph-name="uni0148" unicode="&#x148;" horiz-adv-x="638" 
d="M76 0v526h148v-71q23 38 64.5 61t93.5 23q51 0 93.5 -26t68 -76.5t25.5 -125.5v-311h-148v285q0 62 -26.5 87.5t-64.5 25.5q-45 0 -75.5 -33.5t-30.5 -97.5v-267h-148zM164 768h102l62 -74l62 74h102l-111 -170h-106z" />
    <glyph glyph-name="uni0145" unicode="&#x145;" horiz-adv-x="760" 
d="M89 0v702h83l345 -393v391h153v-702h-82l-346 394v-392h-153zM333 -157q0 35 25 60t65 25q41 0 66 -25.5t25 -67.5q0 -23 -10 -53t-25 -60t-31 -53h-97q12 21 22.5 46.5t15.5 47.5q-24 8 -40 29.5t-16 50.5z" />
    <glyph glyph-name="uni0146" unicode="&#x146;" horiz-adv-x="638" 
d="M76 0v526h148v-71q23 38 64.5 61t93.5 23q51 0 93.5 -26t68 -76.5t25.5 -125.5v-311h-148v285q0 62 -26.5 87.5t-64.5 25.5q-45 0 -75.5 -33.5t-30.5 -97.5v-267h-148zM236 -157q0 35 25 60t65 25q41 0 66 -25.5t25 -67.5q0 -23 -10 -53t-25 -60t-31 -53h-97
q12 21 22.5 46.5t15.5 47.5q-24 8 -40 29.5t-16 50.5z" />
    <glyph glyph-name="uni019D" unicode="&#x19d;" horiz-adv-x="760" 
d="M-30 -154l9 132q24 -6 46 -6q32 0 48 16.5t16 55.5v658h83l345 -393v391h153v-702h-82l-346 394v-362q0 -97 -49.5 -145.5t-137.5 -48.5q-23 0 -45.5 3t-39.5 7z" />
    <glyph glyph-name="uni0272" unicode="&#x272;" horiz-adv-x="638" 
d="M-43 -154l9 132q24 -6 46 -6q32 0 48 16.5t16 55.5v482h148v-71q23 38 64.5 61t93.5 23q51 0 93.5 -26t68 -76.5t25.5 -125.5v-311h-148v285q0 62 -26.5 87.5t-64.5 25.5q-45 0 -75.5 -33.5t-30.5 -97.5v-237q0 -97 -47 -145.5t-135 -48.5q-23 0 -45.5 3t-39.5 7z" />
    <glyph glyph-name="uni014A" unicode="&#x14a;" horiz-adv-x="760" 
d="M398 -154l9 132q24 -6 46 -6q32 0 48 16.5t16 55.5v35l-275 313v-392h-153v702h83l345 -393v391h153v-670q0 -97 -49.5 -145.5t-137.5 -48.5q-23 0 -45.5 3t-39.5 7z" />
    <glyph glyph-name="uni014B" unicode="&#x14b;" horiz-adv-x="638" 
d="M302 -154l9 132q24 -6 46 -6q32 0 48 16.5t16 55.5v241q0 62 -26.5 87.5t-64.5 25.5q-45 0 -75.5 -33.5t-30.5 -97.5v-267h-148v526h148v-71q23 38 64.5 61t93.5 23q51 0 93.5 -26t68 -76.5t25.5 -125.5v-281q0 -97 -47 -145.5t-135 -48.5q-23 0 -45.5 3t-39.5 7z" />
    <glyph glyph-name="uni0149" unicode="&#x149;" horiz-adv-x="923" 
d="M54 650q0 39 27 66.5t69 27.5q44 0 70.5 -28t26.5 -76q0 -52 -26 -110t-61 -109h-98q19 36 33 72.5t22 69.5q-27 8 -45 32t-18 55zM361 0v526h148v-71q23 38 64.5 61t93.5 23q51 0 93.5 -26t68 -76.5t25.5 -125.5v-311h-148v285q0 62 -26.5 87.5t-64.5 25.5
q-45 0 -75.5 -33.5t-30.5 -97.5v-267h-148z" />
    <glyph glyph-name="uni00D2" unicode="&#xd2;" horiz-adv-x="780" 
d="M47 350q0 80 25.5 146.5t71.5 115t109 75.5t137 27t137 -27t109 -75.5t71.5 -115t25.5 -146.5q0 -79 -25.5 -146t-71.5 -115.5t-109 -75.5t-137 -27t-137 27t-109 75.5t-71.5 115.5t-25.5 146zM210 350q0 -63 23 -111.5t63.5 -76t93.5 -27.5t93 27.5t63 76t23 111.5
t-23 111.5t-63 76t-93 27.5t-93.5 -27.5t-63.5 -76t-23 -111.5zM208 913h154l83 -145h-107z" />
    <glyph glyph-name="uni00F2" unicode="&#xf2;" horiz-adv-x="610" 
d="M37 263q0 79 34.5 141t95 98.5t138.5 36.5q79 0 139 -36.5t94.5 -98.5t34.5 -141t-34.5 -141.5t-94.5 -99t-139 -36.5q-78 0 -138.5 36.5t-95 99t-34.5 141.5zM188 263q0 -65 34 -103.5t83 -38.5q50 0 83.5 38.5t33.5 103.5t-33.5 103.5t-83.5 38.5q-49 0 -83 -38.5
t-34 -103.5zM146 776h141l68 -170h-101z" />
    <glyph glyph-name="uni00D3" unicode="&#xd3;" horiz-adv-x="780" 
d="M47 350q0 80 25.5 146.5t71.5 115t109 75.5t137 27t137 -27t109 -75.5t71.5 -115t25.5 -146.5q0 -79 -25.5 -146t-71.5 -115.5t-109 -75.5t-137 -27t-137 27t-109 75.5t-71.5 115.5t-25.5 146zM210 350q0 -63 23 -111.5t63.5 -76t93.5 -27.5t93 27.5t63 76t23 111.5
t-23 111.5t-63 76t-93 27.5t-93.5 -27.5t-63.5 -76t-23 -111.5zM335 768l83 145h154l-130 -145h-107z" />
    <glyph glyph-name="uni00F3" unicode="&#xf3;" horiz-adv-x="610" 
d="M37 263q0 79 34.5 141t95 98.5t138.5 36.5q79 0 139 -36.5t94.5 -98.5t34.5 -141t-34.5 -141.5t-94.5 -99t-139 -36.5q-78 0 -138.5 36.5t-95 99t-34.5 141.5zM188 263q0 -65 34 -103.5t83 -38.5q50 0 83.5 38.5t33.5 103.5t-33.5 103.5t-83.5 38.5q-49 0 -83 -38.5
t-34 -103.5zM255 606l68 170h141l-108 -170h-101z" />
    <glyph glyph-name="uni00D4" unicode="&#xd4;" horiz-adv-x="780" 
d="M47 350q0 80 25.5 146.5t71.5 115t109 75.5t137 27t137 -27t109 -75.5t71.5 -115t25.5 -146.5q0 -79 -25.5 -146t-71.5 -115.5t-109 -75.5t-137 -27t-137 27t-109 75.5t-71.5 115.5t-25.5 146zM210 350q0 -63 23 -111.5t63.5 -76t93.5 -27.5t93 27.5t63 76t23 111.5
t-23 111.5t-63 76t-93 27.5t-93.5 -27.5t-63.5 -76t-23 -111.5zM218 768l114 145h116l114 -145h-105l-67 59l-67 -59h-105z" />
    <glyph glyph-name="uni00F4" unicode="&#xf4;" horiz-adv-x="610" 
d="M37 263q0 79 34.5 141t95 98.5t138.5 36.5q79 0 139 -36.5t94.5 -98.5t34.5 -141t-34.5 -141.5t-94.5 -99t-139 -36.5q-78 0 -138.5 36.5t-95 99t-34.5 141.5zM188 263q0 -65 34 -103.5t83 -38.5q50 0 83.5 38.5t33.5 103.5t-33.5 103.5t-83.5 38.5q-49 0 -83 -38.5
t-34 -103.5zM141 606l111 170h106l111 -170h-102l-62 73l-62 -73h-102z" />
    <glyph glyph-name="uni00D5" unicode="&#xd5;" horiz-adv-x="780" 
d="M47 350q0 80 25.5 146.5t71.5 115t109 75.5t137 27t137 -27t109 -75.5t71.5 -115t25.5 -146.5q0 -79 -25.5 -146t-71.5 -115.5t-109 -75.5t-137 -27t-137 27t-109 75.5t-71.5 115.5t-25.5 146zM210 350q0 -63 23 -111.5t63.5 -76t93.5 -27.5t93 27.5t63 76t23 111.5
t-23 111.5t-63 76t-93 27.5t-93.5 -27.5t-63.5 -76t-23 -111.5zM199 765q3 42 15.5 76.5t37.5 55.5t64 21q28 0 49.5 -9.5t39.5 -22.5t33.5 -22.5t31.5 -9.5q17 0 25.5 14t12.5 45h73q-2 -41 -15 -76t-38 -56t-64 -21q-28 0 -50 10t-39.5 22.5t-33 22.5t-31.5 10
t-24.5 -14.5t-13.5 -45.5h-73z" />
    <glyph glyph-name="uni00F5" unicode="&#xf5;" horiz-adv-x="610" 
d="M37 263q0 79 34.5 141t95 98.5t138.5 36.5q79 0 139 -36.5t94.5 -98.5t34.5 -141t-34.5 -141.5t-94.5 -99t-139 -36.5q-78 0 -138.5 36.5t-95 99t-34.5 141.5zM188 263q0 -65 34 -103.5t83 -38.5q50 0 83.5 38.5t33.5 103.5t-33.5 103.5t-83.5 38.5q-49 0 -83 -38.5
t-34 -103.5zM127 606q2 42 14 77t36 56.5t62 21.5q27 0 47 -10t35.5 -23.5t28 -23.5t24.5 -10q29 0 36 62h73q-2 -42 -14 -77.5t-36 -57t-62 -21.5q-27 0 -47 10t-35.5 23.5t-28 23.5t-24.5 10q-29 0 -36 -61h-73z" />
    <glyph glyph-name="uni00D6" unicode="&#xd6;" horiz-adv-x="780" 
d="M47 350q0 80 25.5 146.5t71.5 115t109 75.5t137 27t137 -27t109 -75.5t71.5 -115t25.5 -146.5q0 -79 -25.5 -146t-71.5 -115.5t-109 -75.5t-137 -27t-137 27t-109 75.5t-71.5 115.5t-25.5 146zM210 350q0 -63 23 -111.5t63.5 -76t93.5 -27.5t93 27.5t63 76t23 111.5
t-23 111.5t-63 76t-93 27.5t-93.5 -27.5t-63.5 -76t-23 -111.5zM204 844q0 29 20 49t51 20t51 -20t20 -49q0 -30 -20 -50t-51 -20t-51 20t-20 50zM434 844q0 29 20 49t51 20t51 -20t20 -49q0 -30 -20 -50t-51 -20t-51 20t-20 50z" />
    <glyph glyph-name="uni00F6" unicode="&#xf6;" horiz-adv-x="610" 
d="M37 263q0 79 34.5 141t95 98.5t138.5 36.5q79 0 139 -36.5t94.5 -98.5t34.5 -141t-34.5 -141.5t-94.5 -99t-139 -36.5q-78 0 -138.5 36.5t-95 99t-34.5 141.5zM188 263q0 -65 34 -103.5t83 -38.5q50 0 83.5 38.5t33.5 103.5t-33.5 103.5t-83.5 38.5q-49 0 -83 -38.5
t-34 -103.5zM127 683q0 29 20 49t51 20t51 -20t20 -49q0 -30 -20 -50t-51 -20t-51 20t-20 50zM341 683q0 29 20 49t51 20t51 -20t20 -49q0 -30 -20 -50t-51 -20t-51 20t-20 50z" />
    <glyph glyph-name="uni014C" unicode="&#x14c;" horiz-adv-x="780" 
d="M47 350q0 80 25.5 146.5t71.5 115t109 75.5t137 27t137 -27t109 -75.5t71.5 -115t25.5 -146.5q0 -79 -25.5 -146t-71.5 -115.5t-109 -75.5t-137 -27t-137 27t-109 75.5t-71.5 115.5t-25.5 146zM210 350q0 -63 23 -111.5t63.5 -76t93.5 -27.5t93 27.5t63 76t23 111.5
t-23 111.5t-63 76t-93 27.5t-93.5 -27.5t-63.5 -76t-23 -111.5zM217 790v106h346v-106h-346z" />
    <glyph glyph-name="uni014D" unicode="&#x14d;" horiz-adv-x="610" 
d="M37 263q0 79 34.5 141t95 98.5t138.5 36.5q79 0 139 -36.5t94.5 -98.5t34.5 -141t-34.5 -141.5t-94.5 -99t-139 -36.5q-78 0 -138.5 36.5t-95 99t-34.5 141.5zM188 263q0 -65 34 -103.5t83 -38.5q50 0 83.5 38.5t33.5 103.5t-33.5 103.5t-83.5 38.5q-49 0 -83 -38.5
t-34 -103.5zM142 648v106h326v-106h-326z" />
    <glyph glyph-name="uni014E" unicode="&#x14e;" horiz-adv-x="780" 
d="M47 350q0 80 25.5 146.5t71.5 115t109 75.5t137 27t137 -27t109 -75.5t71.5 -115t25.5 -146.5q0 -79 -25.5 -146t-71.5 -115.5t-109 -75.5t-137 -27t-137 27t-109 75.5t-71.5 115.5t-25.5 146zM210 350q0 -63 23 -111.5t63.5 -76t93.5 -27.5t93 27.5t63 76t23 111.5
t-23 111.5t-63 76t-93 27.5t-93.5 -27.5t-63.5 -76t-23 -111.5zM219 905h100q2 -21 20 -34t51 -13t50.5 13t20.5 34h100q-6 -71 -51 -108t-120 -37t-120 37t-51 108z" />
    <glyph glyph-name="uni014F" unicode="&#x14f;" horiz-adv-x="610" 
d="M37 263q0 79 34.5 141t95 98.5t138.5 36.5q79 0 139 -36.5t94.5 -98.5t34.5 -141t-34.5 -141.5t-94.5 -99t-139 -36.5q-78 0 -138.5 36.5t-95 99t-34.5 141.5zM188 263q0 -65 34 -103.5t83 -38.5q50 0 83.5 38.5t33.5 103.5t-33.5 103.5t-83.5 38.5q-49 0 -83 -38.5
t-34 -103.5zM144 768h100q9 -69 61 -69t61 69h100q-7 -85 -48.5 -127.5t-112.5 -42.5q-70 0 -111.5 42.5t-49.5 127.5z" />
    <glyph glyph-name="uni0150" unicode="&#x150;" horiz-adv-x="780" 
d="M47 350q0 80 25.5 146.5t71.5 115t109 75.5t137 27t137 -27t109 -75.5t71.5 -115t25.5 -146.5q0 -79 -25.5 -146t-71.5 -115.5t-109 -75.5t-137 -27t-137 27t-109 75.5t-71.5 115.5t-25.5 146zM210 350q0 -63 23 -111.5t63.5 -76t93.5 -27.5t93 27.5t63 76t23 111.5
t-23 111.5t-63 76t-93 27.5t-93.5 -27.5t-63.5 -76t-23 -111.5zM265 768l66 145h131l-103 -145h-94zM426 768l66 145h131l-103 -145h-94z" />
    <glyph glyph-name="uni0151" unicode="&#x151;" horiz-adv-x="610" 
d="M37 263q0 79 34.5 141t95 98.5t138.5 36.5q79 0 139 -36.5t94.5 -98.5t34.5 -141t-34.5 -141.5t-94.5 -99t-139 -36.5q-78 0 -138.5 36.5t-95 99t-34.5 141.5zM188 263q0 -65 34 -103.5t83 -38.5q50 0 83.5 38.5t33.5 103.5t-33.5 103.5t-83.5 38.5q-49 0 -83 -38.5
t-34 -103.5zM183 606l53 170h126l-87 -170h-92zM335 606l52 170h126l-87 -170h-91z" />
    <glyph glyph-name="uni1ECC" unicode="&#x1ecc;" horiz-adv-x="780" 
d="M47 350q0 80 25.5 146.5t71.5 115t109 75.5t137 27t137 -27t109 -75.5t71.5 -115t25.5 -146.5q0 -79 -25.5 -146t-71.5 -115.5t-109 -75.5t-137 -27t-137 27t-109 75.5t-71.5 115.5t-25.5 146zM210 350q0 -63 23 -111.5t63.5 -76t93.5 -27.5t93 27.5t63 76t23 111.5
t-23 111.5t-63 76t-93 27.5t-93.5 -27.5t-63.5 -76t-23 -111.5zM300 -160q0 37 25 62.5t65 25.5q41 0 65.5 -25.5t24.5 -62.5t-24.5 -62.5t-65.5 -25.5q-40 0 -65 25.5t-25 62.5z" />
    <glyph glyph-name="uni1ECD" unicode="&#x1ecd;" horiz-adv-x="610" 
d="M37 263q0 79 34.5 141t95 98.5t138.5 36.5q79 0 139 -36.5t94.5 -98.5t34.5 -141t-34.5 -141.5t-94.5 -99t-139 -36.5q-78 0 -138.5 36.5t-95 99t-34.5 141.5zM188 263q0 -65 34 -103.5t83 -38.5q50 0 83.5 38.5t33.5 103.5t-33.5 103.5t-83.5 38.5q-49 0 -83 -38.5
t-34 -103.5zM215 -160q0 37 25 62.5t65 25.5q41 0 65.5 -25.5t24.5 -62.5t-24.5 -62.5t-65.5 -25.5q-40 0 -65 25.5t-25 62.5z" />
    <glyph glyph-name="uni01EA" unicode="&#x1ea;" horiz-adv-x="780" 
d="M522 12q-78 -35 -105 -61t-27 -51q0 -15 9.5 -25t27.5 -10q23 0 57 21l22 -81q-22 -14 -50.5 -23.5t-57.5 -9.5q-52 0 -84 29t-32 70q0 31 19 61t53 56q-89 9 -158.5 57t-109 127t-39.5 178q0 80 25.5 146.5t71.5 115t109 75.5t137 27t137 -27t109 -75.5t71.5 -115
t25.5 -146.5q0 -119 -57.5 -206.5t-153.5 -131.5zM210 350q0 -63 23 -111.5t63.5 -76t93.5 -27.5t93 27.5t63 76t23 111.5t-23 111.5t-63 76t-93 27.5t-93.5 -27.5t-63.5 -76t-23 -111.5z" />
    <glyph glyph-name="uni01EB" unicode="&#x1eb;" horiz-adv-x="610" 
d="M442 25q-54 -28 -83.5 -49.5t-41.5 -39.5t-12 -36q0 -15 9.5 -25t27.5 -10q23 0 57 21l22 -81q-22 -14 -50.5 -23.5t-57.5 -9.5q-52 0 -84 29t-32 70q0 64 65 118q-67 10 -117.5 48t-79 96.5t-28.5 129.5q0 79 34.5 141t95 98.5t138.5 36.5q79 0 139 -36.5t94.5 -98.5
t34.5 -141q0 -78 -35 -142t-96 -96zM188 263q0 -65 34 -103.5t83 -38.5q50 0 83.5 38.5t33.5 103.5t-33.5 103.5t-83.5 38.5q-49 0 -83 -38.5t-34 -103.5z" />
    <glyph glyph-name="uni00D8" unicode="&#xd8;" horiz-adv-x="780" 
d="M32 0l93 111q-37 47 -57.5 108t-20.5 131q0 80 25.5 146.5t71.5 115t109 75.5t137 27q54 0 102 -14.5t88 -41.5l35 42h133l-93 -111q37 -47 57.5 -107.5t20.5 -131.5q0 -79 -25.5 -146t-71.5 -115.5t-109 -75.5t-137 -27q-54 0 -102 14.5t-88 41.5l-35 -42h-133zM210 350
q0 -31 6 -58.5t16 -51.5l249 299q-40 26 -91 26q-53 0 -93.5 -27.5t-63.5 -76t-23 -111.5zM569 350q0 60 -22 109l-248 -298q40 -26 91 -26q53 0 93 27.5t63 76t23 111.5z" />
    <glyph glyph-name="uni00F8" unicode="&#xf8;" horiz-adv-x="610" 
d="M16 0l76 89q-26 35 -40.5 79.5t-14.5 94.5q0 79 34.5 141t95 98.5t138.5 36.5t140 -37l21 24h128l-76 -89q26 -35 40.5 -79.5t14.5 -94.5q0 -79 -34.5 -141.5t-94.5 -99t-139 -36.5q-40 0 -75.5 10t-65.5 28l-20 -24h-128zM188 263q0 -15 2 -28t5 -25l158 184
q-22 11 -48 11q-49 0 -83 -38.5t-34 -103.5zM422 263q0 15 -2 28t-5 25l-158 -184q22 -11 48 -11q50 0 83.5 38.5t33.5 103.5z" />
    <glyph glyph-name="uni01FE" unicode="&#x1fe;" horiz-adv-x="780" 
d="M32 0l93 111q-37 47 -57.5 108t-20.5 131q0 80 25.5 146.5t71.5 115t109 75.5t137 27q54 0 102 -14.5t88 -41.5l35 42h133l-93 -111q37 -47 57.5 -107.5t20.5 -131.5q0 -79 -25.5 -146t-71.5 -115.5t-109 -75.5t-137 -27q-54 0 -102 14.5t-88 41.5l-35 -42h-133zM210 350
q0 -31 6 -58.5t16 -51.5l249 299q-40 26 -91 26q-53 0 -93.5 -27.5t-63.5 -76t-23 -111.5zM569 350q0 60 -22 109l-248 -298q40 -26 91 -26q53 0 93 27.5t63 76t23 111.5zM335 768l83 145h154l-130 -145h-107z" />
    <glyph glyph-name="uni01FF" unicode="&#x1ff;" horiz-adv-x="610" 
d="M16 0l76 89q-26 35 -40.5 79.5t-14.5 94.5q0 79 34.5 141t95 98.5t138.5 36.5t140 -37l21 24h128l-76 -89q26 -35 40.5 -79.5t14.5 -94.5q0 -79 -34.5 -141.5t-94.5 -99t-139 -36.5q-40 0 -75.5 10t-65.5 28l-20 -24h-128zM188 263q0 -15 2 -28t5 -25l158 184
q-22 11 -48 11q-49 0 -83 -38.5t-34 -103.5zM422 263q0 15 -2 28t-5 25l-158 -184q22 -11 48 -11q50 0 83.5 38.5t33.5 103.5zM255 606l68 170h141l-108 -170h-101z" />
    <glyph glyph-name="uni0152" unicode="&#x152;" horiz-adv-x="984" 
d="M47 350q0 103 46.5 181.5t127.5 123.5t184 45h517v-144h-305v-135h262v-134h-262v-143h310v-144h-522q-103 0 -184 45t-127.5 124t-46.5 181zM415 144h46v412h-46q-60 0 -106.5 -26.5t-72.5 -73t-26 -106.5t26 -106.5t72.5 -73t106.5 -26.5z" />
    <glyph glyph-name="uni0153" unicode="&#x153;" horiz-adv-x="924" 
d="M37 263q0 79 32 141t87.5 98.5t125.5 36.5q61 0 112 -27.5t82 -83.5q29 56 77.5 83.5t106.5 27.5q69 0 119 -34.5t77.5 -94t27.5 -134.5q0 -13 -1 -28.5t-3 -28.5h-329q11 -46 43.5 -73.5t82.5 -27.5q69 0 124 38l63 -106q-42 -30 -88.5 -47t-95.5 -17q-64 0 -117.5 28
t-85.5 86q-31 -58 -82.5 -86t-112.5 -28q-70 0 -125.5 36.5t-87.5 99t-32 141.5zM646 418q-36 0 -61.5 -28t-33.5 -80h188q-4 50 -28 79t-65 29zM188 263q0 -65 31 -103.5t77 -38.5q45 0 76 38.5t31 103.5t-31 103.5t-76 38.5q-46 0 -77 -38.5t-31 -103.5z" />
    <glyph glyph-name="uni0154" unicode="&#x154;" horiz-adv-x="673" 
d="M89 0v700h279q79 0 136 -30t88 -82.5t31 -120.5q0 -73 -37 -127t-105 -80l163 -260h-183l-135 241h-81v-241h-156zM355 556h-110v-178h110q48 0 76.5 24.5t28.5 64.5t-28.5 64.5t-76.5 24.5zM279 768l83 145h154l-130 -145h-107z" />
    <glyph glyph-name="uni0155" unicode="&#x155;" horiz-adv-x="404" 
d="M76 0v526h148v-99q22 51 64.5 81.5t97.5 30.5v-161q-85 -3 -123.5 -41t-38.5 -121v-216h-148zM173 606l68 170h141l-108 -170h-101z" />
    <glyph glyph-name="uni0158" unicode="&#x158;" horiz-adv-x="673" 
d="M89 0v700h279q79 0 136 -30t88 -82.5t31 -120.5q0 -73 -37 -127t-105 -80l163 -260h-183l-135 241h-81v-241h-156zM355 556h-110v-178h110q48 0 76.5 24.5t28.5 64.5t-28.5 64.5t-76.5 24.5zM506 905l-114 -145h-116l-114 145h105l67 -60l67 60h105z" />
    <glyph glyph-name="uni0159" unicode="&#x159;" horiz-adv-x="404" 
d="M76 0v526h148v-99q22 51 64.5 81.5t97.5 30.5v-161q-85 -3 -123.5 -41t-38.5 -121v-216h-148zM59 768h102l62 -74l62 74h102l-111 -170h-106z" />
    <glyph glyph-name="uni0156" unicode="&#x156;" horiz-adv-x="673" 
d="M89 0v700h279q79 0 136 -30t88 -82.5t31 -120.5q0 -73 -37 -127t-105 -80l163 -260h-183l-135 241h-81v-241h-156zM355 556h-110v-178h110q48 0 76.5 24.5t28.5 64.5t-28.5 64.5t-76.5 24.5zM260 -157q0 35 25 60t65 25q41 0 66 -25.5t25 -67.5q0 -23 -10 -53t-25 -60
t-31 -53h-97q12 21 22.5 46.5t15.5 47.5q-24 8 -40 29.5t-16 50.5z" />
    <glyph glyph-name="uni0157" unicode="&#x157;" horiz-adv-x="404" 
d="M76 0v526h148v-99q22 51 64.5 81.5t97.5 30.5v-161q-85 -3 -123.5 -41t-38.5 -121v-216h-148zM60 -157q0 35 25 60t65 25q41 0 66 -25.5t25 -67.5q0 -23 -10 -53t-25 -60t-31 -53h-97q12 21 22.5 46.5t15.5 47.5q-24 8 -40 29.5t-16 50.5z" />
    <glyph glyph-name="uni015A" unicode="&#x15a;" horiz-adv-x="617" 
d="M26 82l79 124q39 -34 93 -56.5t114 -22.5q58 0 83 18.5t25 45.5t-24.5 48t-99.5 40q-89 24 -141.5 57.5t-74.5 75.5t-22 91q0 56 31.5 104t89.5 77.5t136 29.5q71 0 128 -19t108 -51l-73 -123q-32 23 -75.5 37.5t-89.5 14.5q-54 0 -77 -19.5t-23 -42.5q0 -16 11 -30
t39.5 -27.5t81.5 -27.5q131 -34 184.5 -90t53.5 -135q0 -60 -32.5 -109t-94.5 -77.5t-150 -28.5q-75 0 -148 25.5t-132 70.5zM261 768l83 145h154l-130 -145h-107z" />
    <glyph glyph-name="uni015B" unicode="&#x15b;" horiz-adv-x="506" 
d="M32 57l61 110q30 -25 77 -41t85 -16q36 0 50 9.5t14 22.5q0 10 -6 19t-25 18.5t-58 21.5q-93 29 -133 71.5t-40 97.5q0 46 26 82.5t72 58t106 21.5q48 0 98.5 -13t90.5 -37l-52 -108q-31 19 -68.5 29.5t-69.5 10.5q-28 0 -42.5 -10.5t-14.5 -22.5q0 -13 15.5 -25
t62.5 -25q107 -28 149 -73.5t42 -104.5q0 -71 -57 -118t-164 -47q-61 0 -121 19t-98 50zM214 606l68 170h141l-108 -170h-101z" />
    <glyph glyph-name="uni015C" unicode="&#x15c;" horiz-adv-x="617" 
d="M26 82l79 124q39 -34 93 -56.5t114 -22.5q58 0 83 18.5t25 45.5t-24.5 48t-99.5 40q-89 24 -141.5 57.5t-74.5 75.5t-22 91q0 56 31.5 104t89.5 77.5t136 29.5q71 0 128 -19t108 -51l-73 -123q-32 23 -75.5 37.5t-89.5 14.5q-54 0 -77 -19.5t-23 -42.5q0 -16 11 -30
t39.5 -27.5t81.5 -27.5q131 -34 184.5 -90t53.5 -135q0 -60 -32.5 -109t-94.5 -77.5t-150 -28.5q-75 0 -148 25.5t-132 70.5zM144 768l114 145h116l114 -145h-105l-67 59l-67 -59h-105z" />
    <glyph glyph-name="uni015D" unicode="&#x15d;" horiz-adv-x="506" 
d="M32 57l61 110q30 -25 77 -41t85 -16q36 0 50 9.5t14 22.5q0 10 -6 19t-25 18.5t-58 21.5q-93 29 -133 71.5t-40 97.5q0 46 26 82.5t72 58t106 21.5q48 0 98.5 -13t90.5 -37l-52 -108q-31 19 -68.5 29.5t-69.5 10.5q-28 0 -42.5 -10.5t-14.5 -22.5q0 -13 15.5 -25
t62.5 -25q107 -28 149 -73.5t42 -104.5q0 -71 -57 -118t-164 -47q-61 0 -121 19t-98 50zM100 606l111 170h106l111 -170h-102l-62 73l-62 -73h-102z" />
    <glyph glyph-name="uni0160" unicode="&#x160;" horiz-adv-x="617" 
d="M26 82l79 124q39 -34 93 -56.5t114 -22.5q58 0 83 18.5t25 45.5t-24.5 48t-99.5 40q-89 24 -141.5 57.5t-74.5 75.5t-22 91q0 56 31.5 104t89.5 77.5t136 29.5q71 0 128 -19t108 -51l-73 -123q-32 23 -75.5 37.5t-89.5 14.5q-54 0 -77 -19.5t-23 -42.5q0 -16 11 -30
t39.5 -27.5t81.5 -27.5q131 -34 184.5 -90t53.5 -135q0 -60 -32.5 -109t-94.5 -77.5t-150 -28.5q-75 0 -148 25.5t-132 70.5zM488 905l-114 -145h-116l-114 145h105l67 -60l67 60h105z" />
    <glyph glyph-name="uni0161" unicode="&#x161;" horiz-adv-x="506" 
d="M32 57l61 110q30 -25 77 -41t85 -16q36 0 50 9.5t14 22.5q0 10 -6 19t-25 18.5t-58 21.5q-93 29 -133 71.5t-40 97.5q0 46 26 82.5t72 58t106 21.5q48 0 98.5 -13t90.5 -37l-52 -108q-31 19 -68.5 29.5t-69.5 10.5q-28 0 -42.5 -10.5t-14.5 -22.5q0 -13 15.5 -25
t62.5 -25q107 -28 149 -73.5t42 -104.5q0 -71 -57 -118t-164 -47q-61 0 -121 19t-98 50zM100 768h102l62 -74l62 74h102l-111 -170h-106z" />
    <glyph glyph-name="uni015E" unicode="&#x15e;" horiz-adv-x="617" 
d="M26 82l79 124q39 -34 93 -56.5t114 -22.5q58 0 83 18.5t25 45.5t-24.5 48t-99.5 40q-89 24 -141.5 57.5t-74.5 75.5t-22 91q0 56 31.5 104t89.5 77.5t136 29.5q71 0 128 -19t108 -51l-73 -123q-32 23 -75.5 37.5t-89.5 14.5q-54 0 -77 -19.5t-23 -42.5q0 -16 11 -30
t39.5 -27.5t81.5 -27.5q131 -34 184.5 -90t53.5 -135q0 -55 -27 -100.5t-79 -75t-127 -37.5l-5 -24q35 -4 54.5 -23t19.5 -42q0 -27 -27 -45t-80 -18q-23 0 -45 3.5t-39 8.5l19 57q20 -7 39 -7q26 0 26 13q0 6 -9.5 12t-41.5 10l18 54q-68 5 -134 29.5t-119 65.5z" />
    <glyph glyph-name="uni015F" unicode="&#x15f;" horiz-adv-x="506" 
d="M32 57l61 110q30 -25 77 -41t85 -16q36 0 50 9.5t14 22.5q0 10 -6 19t-25 18.5t-58 21.5q-93 29 -133 71.5t-40 97.5q0 46 26 82.5t72 58t106 21.5q48 0 98.5 -13t90.5 -37l-52 -108q-31 19 -68.5 29.5t-69.5 10.5q-28 0 -42.5 -10.5t-14.5 -22.5q0 -13 15.5 -25
t62.5 -25q107 -28 149 -73.5t42 -104.5q0 -64 -46.5 -109.5t-135.5 -53.5l-6 -26q35 -4 54.5 -23t19.5 -42q0 -27 -27 -45t-80 -18q-23 0 -45 3.5t-39 8.5l19 57q20 -7 39 -7q26 0 26 13q0 6 -9.5 12t-41.5 10l19 56q-53 5 -103.5 23t-83.5 45z" />
    <glyph glyph-name="uni0218" unicode="&#x218;" horiz-adv-x="617" 
d="M26 82l79 124q39 -34 93 -56.5t114 -22.5q58 0 83 18.5t25 45.5t-24.5 48t-99.5 40q-89 24 -141.5 57.5t-74.5 75.5t-22 91q0 56 31.5 104t89.5 77.5t136 29.5q71 0 128 -19t108 -51l-73 -123q-32 23 -75.5 37.5t-89.5 14.5q-54 0 -77 -19.5t-23 -42.5q0 -16 11 -30
t39.5 -27.5t81.5 -27.5q131 -34 184.5 -90t53.5 -135q0 -60 -32.5 -109t-94.5 -77.5t-150 -28.5q-75 0 -148 25.5t-132 70.5zM229 -157q0 35 25 60t65 25q41 0 66 -25.5t25 -67.5q0 -23 -10 -53t-25 -60t-31 -53h-97q12 21 22.5 46.5t15.5 47.5q-24 8 -40 29.5t-16 50.5z
" />
    <glyph glyph-name="uni0219" unicode="&#x219;" horiz-adv-x="506" 
d="M32 57l61 110q30 -25 77 -41t85 -16q36 0 50 9.5t14 22.5q0 10 -6 19t-25 18.5t-58 21.5q-93 29 -133 71.5t-40 97.5q0 46 26 82.5t72 58t106 21.5q48 0 98.5 -13t90.5 -37l-52 -108q-31 19 -68.5 29.5t-69.5 10.5q-28 0 -42.5 -10.5t-14.5 -22.5q0 -13 15.5 -25
t62.5 -25q107 -28 149 -73.5t42 -104.5q0 -71 -57 -118t-164 -47q-61 0 -121 19t-98 50zM168 -157q0 35 25 60t65 25q41 0 66 -25.5t25 -67.5q0 -23 -10 -53t-25 -60t-31 -53h-97q12 21 22.5 46.5t15.5 47.5q-24 8 -40 29.5t-16 50.5z" />
    <glyph glyph-name="uni1E9E" unicode="&#x1e9e;" horiz-adv-x="1234" 
d="M26 82l79 124q39 -34 93 -56.5t114 -22.5q58 0 83 18.5t25 45.5t-24.5 48t-99.5 40q-89 24 -141.5 57.5t-74.5 75.5t-22 91q0 56 31.5 104t89.5 77.5t136 29.5q71 0 128 -19t108 -51l-73 -123q-32 23 -75.5 37.5t-89.5 14.5q-54 0 -77 -19.5t-23 -42.5q0 -16 11 -30
t39.5 -27.5t81.5 -27.5q131 -34 184.5 -90t53.5 -135q0 -60 -32.5 -109t-94.5 -77.5t-150 -28.5q-75 0 -148 25.5t-132 70.5zM643 82l79 124q39 -34 93 -56.5t114 -22.5q58 0 83 18.5t25 45.5t-24.5 48t-99.5 40q-89 24 -141.5 57.5t-74.5 75.5t-22 91q0 56 31.5 104
t89.5 77.5t136 29.5q71 0 128 -19t108 -51l-73 -123q-32 23 -75.5 37.5t-89.5 14.5q-54 0 -77 -19.5t-23 -42.5q0 -16 11 -30t39.5 -27.5t81.5 -27.5q131 -34 184.5 -90t53.5 -135q0 -60 -32.5 -109t-94.5 -77.5t-150 -28.5q-75 0 -148 25.5t-132 70.5z" />
    <glyph glyph-name="uni00DF" unicode="&#xdf;" horiz-adv-x="642" 
d="M76 0v470q0 91 32.5 151t89.5 90.5t130 30.5q61 0 111 -24.5t80.5 -67.5t30.5 -98q0 -38 -11.5 -63.5t-29 -42.5t-35 -29.5t-29 -23.5t-11.5 -26q0 -12 11.5 -23.5t45.5 -28.5q65 -31 93 -70t28 -97q0 -70 -48 -116t-140 -46q-49 0 -92 13t-69 27l43 118q23 -14 54 -23.5
t59 -9.5q26 0 38 10t12 24q0 17 -12.5 29t-58.5 33q-57 25 -82 62.5t-25 72.5t11.5 58.5t29 41t35 32t29 31t11.5 39.5q0 32 -22 50t-60 18q-46 0 -73.5 -33.5t-27.5 -111.5v-467h-148z" />
    <glyph glyph-name="uni0164" unicode="&#x164;" horiz-adv-x="583" 
d="M213 0v556h-187v144h531v-144h-188v-556h-156zM463 905l-114 -145h-116l-114 145h105l67 -60l67 60h105z" />
    <glyph glyph-name="uni0165" unicode="&#x165;" horiz-adv-x="504" 
d="M397 730h137l-57 -309h-103zM88 182v214h-74v130h74v116h148v-116h112v-130h-112v-198q0 -40 19.5 -58t57.5 -18q11 0 24.5 1.5t28.5 5.5l9 -132q-41 -11 -91 -11q-94 0 -145 49.5t-51 146.5z" />
    <glyph glyph-name="uni0162" unicode="&#x162;" horiz-adv-x="583" 
d="M213 0v556h-187v144h531v-144h-188v-556h-44l-8 -36q35 -4 54.5 -23t19.5 -42q0 -27 -27 -45t-80 -18q-23 0 -45 3.5t-39 8.5l19 57q20 -7 39 -7q26 0 26 13q0 6 -9.5 12t-41.5 10l22 67h-42z" />
    <glyph glyph-name="uni0163" unicode="&#x163;" horiz-adv-x="395" 
d="M132 -152l19 57q20 -7 39 -7q26 0 26 13q0 6 -9.5 12t-41.5 10l23 70q-100 42 -100 179v214h-74v130h74v116h148v-116h132v-130h-132v-198q0 -40 19.5 -58t57.5 -18q11 0 24.5 1.5t28.5 5.5l9 -132q-41 -11 -91 -11h-14.5t-15.5 1l-5 -23q35 -4 54.5 -23t19.5 -42
q0 -27 -27 -45t-80 -18q-23 0 -45 3.5t-39 8.5z" />
    <glyph glyph-name="uni021A" unicode="&#x21a;" horiz-adv-x="583" 
d="M213 0v556h-187v144h531v-144h-188v-556h-156zM201 -157q0 35 25 60t65 25q41 0 66 -25.5t25 -67.5q0 -23 -10 -53t-25 -60t-31 -53h-97q12 21 22.5 46.5t15.5 47.5q-24 8 -40 29.5t-16 50.5z" />
    <glyph glyph-name="uni021B" unicode="&#x21b;" horiz-adv-x="395" 
d="M88 182v214h-74v130h74v116h148v-116h132v-130h-132v-198q0 -40 19.5 -58t57.5 -18q11 0 24.5 1.5t28.5 5.5l9 -132q-41 -11 -91 -11q-94 0 -145 49.5t-51 146.5zM133 -157q0 35 25 60t65 25q41 0 66 -25.5t25 -67.5q0 -23 -10 -53t-25 -60t-31 -53h-97q12 21 22.5 46.5
t15.5 47.5q-24 8 -40 29.5t-16 50.5z" />
    <glyph glyph-name="uni0166" unicode="&#x166;" horiz-adv-x="583" 
d="M213 0v259h-109v114h109v183h-187v144h531v-144h-188v-183h109v-114h-109v-259h-156z" />
    <glyph glyph-name="uni0167" unicode="&#x167;" horiz-adv-x="395" 
d="M88 182v38h-74v110h74v66h-74v130h74v116h148v-116h132v-130h-132v-66h139v-110h-139v-22q0 -40 19.5 -58t57.5 -18q11 0 24.5 1.5t28.5 5.5l9 -132q-41 -11 -91 -11q-94 0 -145 49.5t-51 146.5z" />
    <glyph glyph-name="uni00DE" unicode="&#xde;" horiz-adv-x="661" 
d="M89 0v700h156v-111h122q80 0 137.5 -30t88.5 -84t31 -125q0 -70 -31 -123t-88.5 -83t-137.5 -30h-122v-114h-156zM355 445h-110v-190h110q48 0 76.5 26t28.5 69q0 44 -28.5 69.5t-76.5 25.5z" />
    <glyph glyph-name="uni00FE" unicode="&#xfe;" horiz-adv-x="631" 
d="M76 -150v880h148v-256q29 31 66 48t80 17q67 0 117.5 -36.5t78.5 -99t28 -140.5t-28 -141t-78.5 -99.5t-117.5 -36.5q-43 0 -80 17t-66 48v-201h-148zM213 263q0 -65 32 -104t84 -39q50 0 82 39.5t32 103.5q0 63 -32 103t-82 40q-52 0 -84 -39t-32 -104z" />
    <glyph glyph-name="uni00D9" unicode="&#xd9;" horiz-adv-x="733" 
d="M82 262v438h156v-414q0 -74 34 -112.5t96 -38.5t96 38.5t34 112.5v414h154v-438q0 -81 -33.5 -143.5t-97 -97.5t-154.5 -35q-90 0 -154 35t-97.5 97.5t-33.5 143.5zM186 913h154l83 -145h-107z" />
    <glyph glyph-name="uni00F9" unicode="&#xf9;" horiz-adv-x="638" 
d="M69 214v312h148v-286q0 -61 27 -87t64 -26q45 0 75.5 34t30.5 98v267h148v-526h-148v71q-22 -38 -63.5 -61.5t-93.5 -23.5q-51 0 -93.5 26t-68.5 77t-26 125zM155 776h141l68 -170h-101z" />
    <glyph glyph-name="uni00DA" unicode="&#xda;" horiz-adv-x="733" 
d="M82 262v438h156v-414q0 -74 34 -112.5t96 -38.5t96 38.5t34 112.5v414h154v-438q0 -81 -33.5 -143.5t-97 -97.5t-154.5 -35q-90 0 -154 35t-97.5 97.5t-33.5 143.5zM313 768l83 145h154l-130 -145h-107z" />
    <glyph glyph-name="uni00FA" unicode="&#xfa;" horiz-adv-x="638" 
d="M69 214v312h148v-286q0 -61 27 -87t64 -26q45 0 75.5 34t30.5 98v267h148v-526h-148v71q-22 -38 -63.5 -61.5t-93.5 -23.5q-51 0 -93.5 26t-68.5 77t-26 125zM264 606l68 170h141l-108 -170h-101z" />
    <glyph glyph-name="uni00DB" unicode="&#xdb;" horiz-adv-x="733" 
d="M82 262v438h156v-414q0 -74 34 -112.5t96 -38.5t96 38.5t34 112.5v414h154v-438q0 -81 -33.5 -143.5t-97 -97.5t-154.5 -35q-90 0 -154 35t-97.5 97.5t-33.5 143.5zM196 768l114 145h116l114 -145h-105l-67 59l-67 -59h-105z" />
    <glyph glyph-name="uni00FB" unicode="&#xfb;" horiz-adv-x="638" 
d="M69 214v312h148v-286q0 -61 27 -87t64 -26q45 0 75.5 34t30.5 98v267h148v-526h-148v71q-22 -38 -63.5 -61.5t-93.5 -23.5q-51 0 -93.5 26t-68.5 77t-26 125zM150 606l111 170h106l111 -170h-102l-62 73l-62 -73h-102z" />
    <glyph glyph-name="uni0168" unicode="&#x168;" horiz-adv-x="733" 
d="M82 262v438h156v-414q0 -74 34 -112.5t96 -38.5t96 38.5t34 112.5v414h154v-438q0 -81 -33.5 -143.5t-97 -97.5t-154.5 -35q-90 0 -154 35t-97.5 97.5t-33.5 143.5zM177 765q3 42 15.5 76.5t37.5 55.5t64 21q28 0 49.5 -9.5t39.5 -22.5t33.5 -22.5t31.5 -9.5
q17 0 25.5 14t12.5 45h73q-2 -41 -15 -76t-38 -56t-64 -21q-28 0 -50 10t-39.5 22.5t-33 22.5t-31.5 10t-24.5 -14.5t-13.5 -45.5h-73z" />
    <glyph glyph-name="uni0169" unicode="&#x169;" horiz-adv-x="638" 
d="M69 214v312h148v-286q0 -61 27 -87t64 -26q45 0 75.5 34t30.5 98v267h148v-526h-148v71q-22 -38 -63.5 -61.5t-93.5 -23.5q-51 0 -93.5 26t-68.5 77t-26 125zM136 606q2 42 14 77t36 56.5t62 21.5q27 0 47 -10t35.5 -23.5t28 -23.5t24.5 -10q29 0 36 62h73
q-2 -42 -14 -77.5t-36 -57t-62 -21.5q-27 0 -47 10t-35.5 23.5t-28 23.5t-24.5 10q-29 0 -36 -61h-73z" />
    <glyph glyph-name="uni00DC" unicode="&#xdc;" horiz-adv-x="733" 
d="M82 262v438h156v-414q0 -74 34 -112.5t96 -38.5t96 38.5t34 112.5v414h154v-438q0 -81 -33.5 -143.5t-97 -97.5t-154.5 -35q-90 0 -154 35t-97.5 97.5t-33.5 143.5zM182 844q0 29 20 49t51 20t51 -20t20 -49q0 -30 -20 -50t-51 -20t-51 20t-20 50zM412 844q0 29 20 49
t51 20t51 -20t20 -49q0 -30 -20 -50t-51 -20t-51 20t-20 50z" />
    <glyph glyph-name="uni00FC" unicode="&#xfc;" horiz-adv-x="638" 
d="M69 214v312h148v-286q0 -61 27 -87t64 -26q45 0 75.5 34t30.5 98v267h148v-526h-148v71q-22 -38 -63.5 -61.5t-93.5 -23.5q-51 0 -93.5 26t-68.5 77t-26 125zM136 683q0 29 20 49t51 20t51 -20t20 -49q0 -30 -20 -50t-51 -20t-51 20t-20 50zM350 683q0 29 20 49t51 20
t51 -20t20 -49q0 -30 -20 -50t-51 -20t-51 20t-20 50z" />
    <glyph glyph-name="uni016A" unicode="&#x16a;" horiz-adv-x="733" 
d="M82 262v438h156v-414q0 -74 34 -112.5t96 -38.5t96 38.5t34 112.5v414h154v-438q0 -81 -33.5 -143.5t-97 -97.5t-154.5 -35q-90 0 -154 35t-97.5 97.5t-33.5 143.5zM195 790v106h346v-106h-346z" />
    <glyph glyph-name="uni016B" unicode="&#x16b;" horiz-adv-x="638" 
d="M69 214v312h148v-286q0 -61 27 -87t64 -26q45 0 75.5 34t30.5 98v267h148v-526h-148v71q-22 -38 -63.5 -61.5t-93.5 -23.5q-51 0 -93.5 26t-68.5 77t-26 125zM151 648v106h326v-106h-326z" />
    <glyph glyph-name="uni016C" unicode="&#x16c;" horiz-adv-x="733" 
d="M82 262v438h156v-414q0 -74 34 -112.5t96 -38.5t96 38.5t34 112.5v414h154v-438q0 -81 -33.5 -143.5t-97 -97.5t-154.5 -35q-90 0 -154 35t-97.5 97.5t-33.5 143.5zM197 905h100q2 -21 20 -34t51 -13t50.5 13t20.5 34h100q-6 -71 -51 -108t-120 -37t-120 37t-51 108z" />
    <glyph glyph-name="uni016D" unicode="&#x16d;" horiz-adv-x="638" 
d="M69 214v312h148v-286q0 -61 27 -87t64 -26q45 0 75.5 34t30.5 98v267h148v-526h-148v71q-22 -38 -63.5 -61.5t-93.5 -23.5q-51 0 -93.5 26t-68.5 77t-26 125zM153 768h100q9 -69 61 -69t61 69h100q-7 -85 -48.5 -127.5t-112.5 -42.5q-70 0 -111.5 42.5t-49.5 127.5z" />
    <glyph glyph-name="uni016E" unicode="&#x16e;" horiz-adv-x="733" 
d="M82 262v438h156v-414q0 -74 34 -112.5t96 -38.5t96 38.5t34 112.5v414h154v-438q0 -81 -33.5 -143.5t-97 -97.5t-154.5 -35q-90 0 -154 35t-97.5 97.5t-33.5 143.5zM248 863q0 46 34 77.5t86 31.5q53 0 86.5 -31.5t33.5 -77.5q0 -45 -33.5 -76.5t-86.5 -31.5
q-52 0 -86 31.5t-34 76.5zM328 863q0 -16 11 -27t29 -11t29 11t11 27q0 17 -11 28t-29 11t-29 -11t-11 -28z" />
    <glyph glyph-name="uni016F" unicode="&#x16f;" horiz-adv-x="638" 
d="M69 214v312h148v-286q0 -61 27 -87t64 -26q45 0 75.5 34t30.5 98v267h148v-526h-148v71q-22 -38 -63.5 -61.5t-93.5 -23.5q-51 0 -93.5 26t-68.5 77t-26 125zM198 704q0 47 33 78t83 31t83 -31t33 -78q0 -46 -33 -77.5t-83 -31.5t-83 31.5t-33 77.5zM278 704
q0 -18 10 -29t26 -11t26 11t10 29q0 17 -10 28.5t-26 11.5t-26 -11.5t-10 -28.5z" />
    <glyph glyph-name="uni0170" unicode="&#x170;" horiz-adv-x="733" 
d="M82 262v438h156v-414q0 -74 34 -112.5t96 -38.5t96 38.5t34 112.5v414h154v-438q0 -81 -33.5 -143.5t-97 -97.5t-154.5 -35q-90 0 -154 35t-97.5 97.5t-33.5 143.5zM243 768l66 145h131l-103 -145h-94zM404 768l66 145h131l-103 -145h-94z" />
    <glyph glyph-name="uni0171" unicode="&#x171;" horiz-adv-x="638" 
d="M69 214v312h148v-286q0 -61 27 -87t64 -26q45 0 75.5 34t30.5 98v267h148v-526h-148v71q-22 -38 -63.5 -61.5t-93.5 -23.5q-51 0 -93.5 26t-68.5 77t-26 125zM192 606l53 170h126l-87 -170h-92zM344 606l52 170h126l-87 -170h-91z" />
    <glyph glyph-name="uni1EE4" unicode="&#x1ee4;" horiz-adv-x="733" 
d="M82 262v438h156v-414q0 -74 34 -112.5t96 -38.5t96 38.5t34 112.5v414h154v-438q0 -81 -33.5 -143.5t-97 -97.5t-154.5 -35q-90 0 -154 35t-97.5 97.5t-33.5 143.5zM277 -160q0 37 25 62.5t65 25.5q41 0 65.5 -25.5t24.5 -62.5t-24.5 -62.5t-65.5 -25.5q-40 0 -65 25.5
t-25 62.5z" />
    <glyph glyph-name="uni1EE5" unicode="&#x1ee5;" horiz-adv-x="638" 
d="M69 214v312h148v-286q0 -61 27 -87t64 -26q45 0 75.5 34t30.5 98v267h148v-526h-148v71q-22 -38 -63.5 -61.5t-93.5 -23.5q-51 0 -93.5 26t-68.5 77t-26 125zM223 -160q0 37 25 62.5t65 25.5q41 0 65.5 -25.5t24.5 -62.5t-24.5 -62.5t-65.5 -25.5q-40 0 -65 25.5
t-25 62.5z" />
    <glyph glyph-name="uni0172" unicode="&#x172;" horiz-adv-x="733" 
d="M505 15q-54 -25 -83 -45t-40 -36.5t-11 -33.5q0 -15 9.5 -25t27.5 -10q23 0 57 21l22 -81q-22 -14 -50.5 -23.5t-57.5 -9.5q-52 0 -84 29t-32 70q0 31 18 61t51 55q-79 7 -135 43.5t-85.5 96t-29.5 135.5v438h156v-414q0 -74 34 -112.5t96 -38.5t96 38.5t34 112.5v414
h154v-438q0 -86 -38 -150t-109 -97z" />
    <glyph glyph-name="uni0173" unicode="&#x173;" horiz-adv-x="638" 
d="M69 214v312h148v-286q0 -61 27 -87t64 -26q45 0 75.5 34t30.5 98v267h148v-526q-74 -30 -102.5 -56t-28.5 -49q0 -13 9 -21.5t25 -8.5q26 0 60 21l22 -81q-22 -14 -50.5 -23.5t-57.5 -9.5q-52 0 -84 29t-32 71q0 38 24 70.5t67 58.5v70q-22 -38 -63.5 -61.5t-93.5 -23.5
q-51 0 -93.5 26t-68.5 77t-26 125z" />
    <glyph glyph-name="uni1E80" unicode="&#x1e80;" horiz-adv-x="993" 
d="M224 -2l-214 702h164l121 -459l134 459h137l135 -459l120 459h162l-215 -702h-136l-135 429l-136 -429h-137zM316 913h154l83 -145h-107z" />
    <glyph glyph-name="uni1E81" unicode="&#x1e81;" horiz-adv-x="795" 
d="M491 -2l-93 277l-94 -277h-119l-177 528h160l80 -315l94 315h115l92 -316l83 316h155l-177 -528h-119zM242 776h141l68 -170h-101z" />
    <glyph glyph-name="uni1E82" unicode="&#x1e82;" horiz-adv-x="993" 
d="M224 -2l-214 702h164l121 -459l134 459h137l135 -459l120 459h162l-215 -702h-136l-135 429l-136 -429h-137zM443 768l83 145h154l-130 -145h-107z" />
    <glyph glyph-name="uni1E83" unicode="&#x1e83;" horiz-adv-x="795" 
d="M491 -2l-93 277l-94 -277h-119l-177 528h160l80 -315l94 315h115l92 -316l83 316h155l-177 -528h-119zM351 606l68 170h141l-108 -170h-101z" />
    <glyph glyph-name="uni0174" unicode="&#x174;" horiz-adv-x="993" 
d="M224 -2l-214 702h164l121 -459l134 459h137l135 -459l120 459h162l-215 -702h-136l-135 429l-136 -429h-137zM326 768l114 145h116l114 -145h-105l-67 59l-67 -59h-105z" />
    <glyph glyph-name="uni0175" unicode="&#x175;" horiz-adv-x="795" 
d="M491 -2l-93 277l-94 -277h-119l-177 528h160l80 -315l94 315h115l92 -316l83 316h155l-177 -528h-119zM237 606l111 170h106l111 -170h-102l-62 73l-62 -73h-102z" />
    <glyph glyph-name="uni1E84" unicode="&#x1e84;" horiz-adv-x="993" 
d="M224 -2l-214 702h164l121 -459l134 459h137l135 -459l120 459h162l-215 -702h-136l-135 429l-136 -429h-137zM312 844q0 29 20 49t51 20t51 -20t20 -49q0 -30 -20 -50t-51 -20t-51 20t-20 50zM542 844q0 29 20 49t51 20t51 -20t20 -49q0 -30 -20 -50t-51 -20t-51 20
t-20 50z" />
    <glyph glyph-name="uni1E85" unicode="&#x1e85;" horiz-adv-x="795" 
d="M491 -2l-93 277l-94 -277h-119l-177 528h160l80 -315l94 315h115l92 -316l83 316h155l-177 -528h-119zM223 683q0 29 20 49t51 20t51 -20t20 -49q0 -30 -20 -50t-51 -20t-51 20t-20 50zM437 683q0 29 20 49t51 20t51 -20t20 -49q0 -30 -20 -50t-51 -20t-51 20t-20 50z
" />
    <glyph glyph-name="uni1EF2" unicode="&#x1ef2;" horiz-adv-x="681" 
d="M263 0v277l-261 423h182l158 -277l161 277h176l-261 -423v-277h-155zM160 913h154l83 -145h-107z" />
    <glyph glyph-name="uni1EF3" unicode="&#x1ef3;" horiz-adv-x="560" 
d="M40 -147l14 121q13 -5 28 -8.5t31 -3.5q32 0 53 12.5t42 52.5l-201 499h160l114 -327l116 327h156l-208 -514q-28 -69 -62 -107.5t-71.5 -53.5t-78.5 -15q-56 0 -93 17zM124 776h141l68 -170h-101z" />
    <glyph glyph-name="uni00DD" unicode="&#xdd;" horiz-adv-x="681" 
d="M263 0v277l-261 423h182l158 -277l161 277h176l-261 -423v-277h-155zM287 768l83 145h154l-130 -145h-107z" />
    <glyph glyph-name="uni00FD" unicode="&#xfd;" horiz-adv-x="560" 
d="M40 -147l14 121q13 -5 28 -8.5t31 -3.5q32 0 53 12.5t42 52.5l-201 499h160l114 -327l116 327h156l-208 -514q-28 -69 -62 -107.5t-71.5 -53.5t-78.5 -15q-56 0 -93 17zM233 606l68 170h141l-108 -170h-101z" />
    <glyph glyph-name="uni0176" unicode="&#x176;" horiz-adv-x="681" 
d="M263 0v277l-261 423h182l158 -277l161 277h176l-261 -423v-277h-155zM170 768l114 145h116l114 -145h-105l-67 59l-67 -59h-105z" />
    <glyph glyph-name="uni0177" unicode="&#x177;" horiz-adv-x="560" 
d="M40 -147l14 121q13 -5 28 -8.5t31 -3.5q32 0 53 12.5t42 52.5l-201 499h160l114 -327l116 327h156l-208 -514q-28 -69 -62 -107.5t-71.5 -53.5t-78.5 -15q-56 0 -93 17zM119 606l111 170h106l111 -170h-102l-62 73l-62 -73h-102z" />
    <glyph glyph-name="uni1EF8" unicode="&#x1ef8;" horiz-adv-x="681" 
d="M263 0v277l-261 423h182l158 -277l161 277h176l-261 -423v-277h-155zM151 765q3 42 15.5 76.5t37.5 55.5t64 21q28 0 49.5 -9.5t39.5 -22.5t33.5 -22.5t31.5 -9.5q17 0 25.5 14t12.5 45h73q-2 -41 -15 -76t-38 -56t-64 -21q-28 0 -50 10t-39.5 22.5t-33 22.5t-31.5 10
t-24.5 -14.5t-13.5 -45.5h-73z" />
    <glyph glyph-name="uni1EF9" unicode="&#x1ef9;" horiz-adv-x="560" 
d="M40 -147l14 121q13 -5 28 -8.5t31 -3.5q32 0 53 12.5t42 52.5l-201 499h160l114 -327l116 327h156l-208 -514q-28 -69 -62 -107.5t-71.5 -53.5t-78.5 -15q-56 0 -93 17zM105 606q2 42 14 77t36 56.5t62 21.5q27 0 47 -10t35.5 -23.5t28 -23.5t24.5 -10q29 0 36 62h73
q-2 -42 -14 -77.5t-36 -57t-62 -21.5q-27 0 -47 10t-35.5 23.5t-28 23.5t-24.5 10q-29 0 -36 -61h-73z" />
    <glyph glyph-name="uni0178" unicode="&#x178;" horiz-adv-x="681" 
d="M263 0v277l-261 423h182l158 -277l161 277h176l-261 -423v-277h-155zM156 844q0 29 20 49t51 20t51 -20t20 -49q0 -30 -20 -50t-51 -20t-51 20t-20 50zM386 844q0 29 20 49t51 20t51 -20t20 -49q0 -30 -20 -50t-51 -20t-51 20t-20 50z" />
    <glyph glyph-name="uni00FF" unicode="&#xff;" horiz-adv-x="560" 
d="M40 -147l14 121q13 -5 28 -8.5t31 -3.5q32 0 53 12.5t42 52.5l-201 499h160l114 -327l116 327h156l-208 -514q-28 -69 -62 -107.5t-71.5 -53.5t-78.5 -15q-56 0 -93 17zM105 683q0 29 20 49t51 20t51 -20t20 -49q0 -30 -20 -50t-51 -20t-51 20t-20 50zM319 683
q0 29 20 49t51 20t51 -20t20 -49q0 -30 -20 -50t-51 -20t-51 20t-20 50z" />
    <glyph glyph-name="uni0232" unicode="&#x232;" horiz-adv-x="681" 
d="M263 0v277l-261 423h182l158 -277l161 277h176l-261 -423v-277h-155zM169 790v106h346v-106h-346z" />
    <glyph glyph-name="uni0233" unicode="&#x233;" horiz-adv-x="560" 
d="M40 -147l14 121q13 -5 28 -8.5t31 -3.5q32 0 53 12.5t42 52.5l-201 499h160l114 -327l116 327h156l-208 -514q-28 -69 -62 -107.5t-71.5 -53.5t-78.5 -15q-56 0 -93 17zM120 648v106h326v-106h-326z" />
    <glyph glyph-name="uni0179" unicode="&#x179;" horiz-adv-x="631" 
d="M42 0v96l319 462h-309v142h527v-96l-319 -462h329v-142h-547zM257 768l83 145h154l-130 -145h-107z" />
    <glyph glyph-name="uni017A" unicode="&#x17a;" horiz-adv-x="508" 
d="M37 0v91l224 307h-212v128h414v-92l-224 -306h232v-128h-434zM206 606l68 170h141l-108 -170h-101z" />
    <glyph glyph-name="uni017D" unicode="&#x17d;" horiz-adv-x="631" 
d="M42 0v96l319 462h-309v142h527v-96l-319 -462h329v-142h-547zM484 905l-114 -145h-116l-114 145h105l67 -60l67 60h105z" />
    <glyph glyph-name="uni017E" unicode="&#x17e;" horiz-adv-x="508" 
d="M37 0v91l224 307h-212v128h414v-92l-224 -306h232v-128h-434zM92 768h102l62 -74l62 74h102l-111 -170h-106z" />
    <glyph glyph-name="uni017B" unicode="&#x17b;" horiz-adv-x="631" 
d="M42 0v96l319 462h-309v142h527v-96l-319 -462h329v-142h-547zM222 855q0 36 25 61.5t65 25.5q41 0 65.5 -25.5t24.5 -61.5q0 -37 -24.5 -62.5t-65.5 -25.5q-40 0 -65 25.5t-25 62.5z" />
    <glyph glyph-name="uni017C" unicode="&#x17c;" horiz-adv-x="508" 
d="M37 0v91l224 307h-212v128h414v-92l-224 -306h232v-128h-434zM166 690q0 37 25 62.5t65 25.5q41 0 65.5 -25.5t24.5 -62.5q0 -36 -24.5 -61.5t-65.5 -25.5q-40 0 -65 25.5t-25 61.5z" />
    <glyph glyph-name="uni0132" unicode="&#x132;" horiz-adv-x="878" 
d="M89 0v700h156v-700h-156zM349 82l92 106q17 -24 43.5 -39.5t55.5 -15.5q45 0 73.5 31t28.5 98v438h154v-454q0 -78 -30 -136.5t-85 -91t-131 -32.5q-55 0 -108 25t-93 71z" />
    <glyph glyph-name="uni0133" unicode="&#x133;" horiz-adv-x="600" 
d="M57 680q0 38 26 63t67 25t67 -25t26 -63q0 -37 -26 -62.5t-67 -25.5t-67 25.5t-26 62.5zM76 0v526h148v-526h-148zM357 680q0 38 26 63t67 25t67 -25t26 -63q0 -37 -26 -62.5t-67 -25.5t-67 25.5t-26 62.5zM257 -154l9 132q24 -6 46 -6q32 0 48 16.5t16 55.5v482h148
v-496q0 -97 -47 -145.5t-135 -48.5q-23 0 -45.5 3t-39.5 7z" />
    <glyph glyph-name="IJacute" horiz-adv-x="878" 
d="M112 768l83 145h154l-130 -145h-107zM665 768l83 145h154l-130 -145h-107zM89 0v700h156v-700h-156zM349 82l92 106q17 -24 43.5 -39.5t55.5 -15.5q45 0 73.5 31t28.5 98v438h154v-454q0 -78 -30 -136.5t-85 -91t-131 -32.5q-55 0 -108 25t-93 71z" />
    <glyph glyph-name="ijacute" horiz-adv-x="600" 
d="M100 606l68 170h141l-108 -170h-101zM400 606l68 170h141l-108 -170h-101zM76 0v526h148v-526h-148zM257 -154l9 132q24 -6 46 -6q32 0 48 16.5t16 55.5v482h148v-496q0 -97 -47 -145.5t-135 -48.5q-23 0 -45.5 3t-39.5 7z" />
    <glyph glyph-name="uni018F" unicode="&#x18f;" horiz-adv-x="762" 
d="M374 -14q-97 0 -170.5 44t-114.5 122t-41 180q0 19 1.5 39t4.5 36h492q-16 70 -69 113.5t-125 43.5q-42 0 -82.5 -16.5t-69.5 -45.5l-97 111q42 44 110.5 72.5t143.5 28.5q77 0 142.5 -27t114 -76.5t75 -116t26.5 -144.5q0 -79 -25.5 -145.5t-71.5 -115.5t-108 -76
t-136 -27zM374 132q64 0 109.5 40.5t61.5 109.5h-334q12 -73 55 -111.5t108 -38.5z" />
    <glyph glyph-name="uni0259" unicode="&#x259;" horiz-adv-x="580" 
d="M543 264q0 -79 -32 -141.5t-89.5 -99.5t-134.5 -37t-132 34.5t-85 94t-30 134.5q0 13 1 28.5t4 28.5h347q-11 46 -46.5 73.5t-88.5 27.5q-35 0 -70.5 -10t-62.5 -28l-64 106q46 30 97.5 47t109.5 17q81 0 143.5 -36.5t97.5 -99t35 -139.5zM287 107q40 0 68 28t38 80h-208
q5 -50 31.5 -79t70.5 -29z" />
    <glyph glyph-name="uniFB01" unicode="&#xfb01;" horiz-adv-x="659" 
d="M415 680q0 38 26.5 63t66.5 25q42 0 68 -25t26 -63q0 -37 -26 -62.5t-68 -25.5q-40 0 -66.5 25.5t-26.5 62.5zM88 0v396h-74v130h74v20q0 98 51 148t140 50q22 0 39.5 -2.5t31.5 -7.5v-127q-21 6 -45 6q-34 0 -51.5 -18t-17.5 -59v-10h347v-526h-148v396h-199v-396h-148z
" />
    <glyph glyph-name="uniFB02" unicode="&#xfb02;" horiz-adv-x="664" 
d="M88 0v396h-74v130h74v20q0 98 52.5 148t146.5 50q24 0 44.5 -2.5t36.5 -7.5v-128q-13 3 -28 5t-29 2q-36 0 -55.5 -18t-19.5 -59v-10h122v-130h-122v-396h-148zM440 0v730h148v-730h-148z" />
    <glyph glyph-name="uni0030" unicode="0" horiz-adv-x="669" 
d="M48 350q0 113 36 194.5t100.5 125.5t149.5 44q86 0 150.5 -44t100.5 -125.5t36 -194.5t-36 -194.5t-100.5 -125.5t-150.5 -44q-85 0 -149.5 44t-100.5 125.5t-36 194.5zM212 350q0 -114 35.5 -165.5t86.5 -51.5t87 51.5t36 165.5t-36 165.5t-87 51.5t-86.5 -51.5
t-35.5 -165.5z" />
    <glyph glyph-name="uni0031" unicode="1" horiz-adv-x="462" 
d="M200 0v525l-138 -80l-68 125l237 130h125v-700h-156z" />
    <glyph glyph-name="uni0032" unicode="2" horiz-adv-x="591" 
d="M47 0v96l234 233q38 38 58 64t28 47t8 41q0 35 -26 59.5t-65 24.5q-40 0 -71 -24t-53 -68l-118 79q37 76 102.5 118.5t148.5 42.5q73 0 128 -28.5t86 -77.5t31 -113q0 -65 -36.5 -124t-113.5 -131l-102 -95h260v-144h-499z" />
    <glyph glyph-name="uni0033" unicode="3" horiz-adv-x="625" 
d="M34 128l116 89q27 -39 66 -62.5t85 -23.5q58 0 86 24t28 58q0 39 -33.5 62t-106.5 23h-76v123h74q53 0 83 20.5t30 54.5q0 29 -23.5 51t-67.5 22q-43 0 -78.5 -22t-56.5 -60l-115 86q37 64 104 102.5t157 38.5q70 0 124 -25t85.5 -69t31.5 -101q0 -44 -24.5 -80.5
t-70.5 -62.5q58 -22 91.5 -68t33.5 -105q0 -64 -34 -113t-95 -76.5t-142 -27.5q-90 0 -161 39t-111 103z" />
    <glyph glyph-name="uni0034" unicode="4" horiz-adv-x="619" 
d="M34 128v96l270 476h199v-435h87v-137h-87v-128h-156v128h-313zM195 265h152v270z" />
    <glyph glyph-name="uni0035" unicode="5" horiz-adv-x="627" 
d="M43 127l116 90q26 -39 64.5 -62.5t86.5 -23.5q51 0 83 26.5t32 69.5q0 45 -32.5 72t-88.5 27q-40 0 -72 -13t-58 -33l-92 40l24 380h433v-148h-309l-8 -127q25 16 57 24.5t72 8.5q69 0 122 -29.5t83.5 -80t30.5 -115.5q0 -75 -35 -130.5t-96.5 -86t-140.5 -30.5
q-89 0 -160 38t-112 103z" />
    <glyph glyph-name="uni0036" unicode="6" horiz-adv-x="640" 
d="M48 284q0 89 32.5 163.5t92.5 131.5t143 92t184 43l16 -148q-139 -17 -208.5 -64t-92.5 -124q29 35 71 53.5t90 18.5q64 0 112.5 -27.5t76.5 -77.5t28 -118t-34 -122.5t-94 -86.5t-137 -32q-84 0 -147 35.5t-98 102.5t-35 160zM212 221q0 -47 33.5 -74.5t75.5 -27.5
q49 0 80 28.5t31 75.5q0 46 -30 73.5t-77 27.5q-49 0 -81 -28t-32 -75z" />
    <glyph glyph-name="uni0037" unicode="7" horiz-adv-x="556" 
d="M126 0l224 548h-320v152h496v-96l-228 -604h-172z" />
    <glyph glyph-name="uni0038" unicode="8" horiz-adv-x="650" 
d="M48 205q0 55 29 98.5t82 70.5q-43 24 -67 60.5t-24 80.5q0 58 32 103t89.5 70.5t135.5 25.5q76 0 132.5 -25.5t88 -70.5t31.5 -103q0 -43 -23 -79.5t-65 -60.5q54 -27 83.5 -71t29.5 -99q0 -64 -34 -113.5t-96 -77.5t-147 -28t-147 28t-96 77.5t-34 113.5zM231 506
q0 -37 27 -57.5t67 -20.5t66 20.5t26 57.5q0 35 -26 55t-66 20t-67 -20t-27 -55zM212 213q0 -44 32 -68t81 -24t81 24t32 68q0 48 -32 72.5t-81 24.5t-81 -24.5t-32 -72.5z" />
    <glyph glyph-name="uni0039" unicode="9" horiz-adv-x="640" 
d="M47 473q0 68 34 122.5t94 86.5t137 32q84 0 147 -35.5t98 -102t35 -160.5q0 -88 -32.5 -163t-92.5 -132t-143 -92t-184 -43l-16 148q139 17 209 64t92 125q-29 -35 -71.5 -54t-89.5 -19q-63 0 -112 27.5t-77 78t-28 117.5zM208 477q0 -46 30.5 -73.5t76.5 -27.5
q49 0 81 28.5t32 74.5q0 32 -16 54.5t-40.5 35t-52.5 12.5q-49 0 -80 -28.5t-31 -75.5z" />
    <glyph glyph-name="uni0030.lt" horiz-adv-x="600" 
d="M33 350q0 179 73 271.5t194 92.5t194 -92.5t73 -271.5t-73 -271.5t-194 -92.5t-194 92.5t-73 271.5zM196 350q0 -80 14 -127.5t37.5 -68.5t52.5 -21t52.5 21t37.5 68.5t14 127.5t-14 127.5t-37.5 68.5t-52.5 21t-52.5 -21t-37.5 -68.5t-14 -127.5z" />
    <glyph glyph-name="uni0031.lt" horiz-adv-x="600" 
d="M268 0v525l-158 -92l-68 125l257 142h125v-700h-156z" />
    <glyph glyph-name="uni0032.lt" horiz-adv-x="600" 
d="M48 0v96l232 233q36 38 55.5 64t27 47t7.5 41q0 35 -25.5 59.5t-62.5 24.5q-39 0 -69 -24t-51 -68l-118 79q36 76 100.5 119t147.5 43q72 0 126 -28.5t84.5 -78t30.5 -113.5q0 -65 -36.5 -123.5t-111.5 -131.5l-98 -95h254v-144h-493z" />
    <glyph glyph-name="uni0033.lt" horiz-adv-x="600" 
d="M24 128l116 89q25 -39 60 -62.5t78 -23.5q57 0 85 24t28 58q0 39 -30.5 62t-98.5 23h-73v123h71q50 0 80 20.5t30 54.5q0 29 -23.5 51t-67.5 22q-40 0 -73.5 -22t-53.5 -60l-114 86q35 64 100 102.5t152 38.5q69 0 123.5 -25t86 -69t31.5 -101q0 -92 -97 -143
q56 -22 87.5 -68t31.5 -105q0 -64 -34 -113t-94.5 -76.5t-140.5 -27.5q-87 0 -154.5 39t-105.5 103z" />
    <glyph glyph-name="uni0034.lt" horiz-adv-x="600" 
d="M31 128v96l251 476h200v-437h83v-135h-83v-128h-156v128h-295zM183 263h143v270z" />
    <glyph glyph-name="uni0035.lt" horiz-adv-x="600" 
d="M28 127l116 90q25 -39 60 -62.5t81 -23.5q47 0 79 26.5t32 69.5q0 45 -30.5 72t-81.5 27q-40 0 -70 -13t-55 -33l-91 40l24 380h420v-148h-297l-8 -127q50 33 126 33q65 0 115.5 -29.5t80 -80t29.5 -115.5q0 -74 -34.5 -129.5t-95 -86.5t-139.5 -31q-86 0 -154 38
t-107 103z" />
    <glyph glyph-name="uni0036.lt" horiz-adv-x="600" 
d="M38 283q0 84 31.5 158.5t89.5 133t139.5 95t180.5 44.5l16 -148q-135 -17 -203 -63.5t-90 -124.5q28 35 68 53t85 18q60 0 107 -27.5t74.5 -77t27.5 -117.5t-33.5 -122.5t-91.5 -86.5t-132 -32q-81 0 -141.5 35t-94 101.5t-33.5 160.5zM198 221q0 -47 32 -74.5t70 -27.5
q44 0 74 28.5t30 75.5q0 46 -29.5 73.5t-70.5 27.5q-45 0 -75.5 -28t-30.5 -75z" />
    <glyph glyph-name="uni0037.lt" horiz-adv-x="600" 
d="M146 0l222 548h-318v152h494v-96l-227 -604h-171z" />
    <glyph glyph-name="uni0038.lt" horiz-adv-x="600" 
d="M35 205q0 56 28.5 99t80.5 69q-44 23 -68 59.5t-24 82.5q0 56 30.5 101t86 71.5t131.5 26.5q75 0 129.5 -26.5t84 -71.5t29.5 -101q0 -45 -23 -81.5t-66 -59.5q53 -26 82 -69.5t29 -99.5q0 -62 -32 -112t-91.5 -78.5t-141.5 -28.5t-141.5 28.5t-91.5 78.5t-32 112z
M213 506q0 -37 24.5 -57.5t62.5 -20.5t61.5 20.5t23.5 57.5q0 35 -23.5 55t-61.5 20t-62.5 -20t-24.5 -55zM200 213q0 -41 28 -66.5t72 -25.5t72 25.5t28 66.5q0 47 -28 72t-72 25t-72 -25t-28 -72z" />
    <glyph glyph-name="uni0039.lt" horiz-adv-x="600" 
d="M36 473q0 68 33.5 122.5t92 86.5t131.5 32q82 0 142 -35t93.5 -101.5t33.5 -160.5q0 -84 -31.5 -158.5t-89.5 -133t-139.5 -95t-180.5 -44.5l-16 148q135 17 203 63.5t90 124.5q-28 -34 -68 -52.5t-85 -18.5q-60 0 -107.5 27.5t-74.5 77.5t-27 117zM196 477
q0 -46 29.5 -73.5t70.5 -27.5q45 0 75.5 28.5t30.5 74.5q0 47 -32 74.5t-70 27.5q-43 0 -73.5 -28.5t-30.5 -75.5z" />
    <glyph glyph-name="uni1401" unicode="&#x1401;" horiz-adv-x="734" 
d="M304 -2l-295 702h716l-295 -702h-126zM233 556l135 -339l135 339h-270z" />
    <glyph glyph-name="uni1402" unicode="&#x1402;" horiz-adv-x="734" 
d="M9 0l295 702h126l295 -702h-716zM230 144h269l-133 339zM248 883q0 46 34 77.5t86 31.5q53 0 86.5 -31.5t33.5 -77.5q0 -45 -33.5 -76.5t-86.5 -31.5q-52 0 -86 31.5t-34 76.5zM328 883q0 -16 11 -27t29 -11t29 11t11 27q0 17 -11 28t-29 11t-29 -11t-11 -28z" />
    <glyph glyph-name="uni1403" unicode="&#x1403;" horiz-adv-x="734" 
d="M9 0l295 702h126l295 -702h-716zM230 144h269l-133 339z" />
    <glyph glyph-name="uni1404" unicode="&#x1404;" horiz-adv-x="734" 
d="M9 0l295 702h126l295 -702h-716zM230 144h269l-133 339zM281 878q0 36 24 60.5t63 24.5t63 -24.5t24 -60.5t-24 -60.5t-63 -24.5t-63 24.5t-24 60.5z" />
    <glyph glyph-name="uni1405" unicode="&#x1405;" horiz-adv-x="687" 
d="M89 -14v728l573 -301v-126zM237 475v-253l256 128z" />
    <glyph glyph-name="uni1406" unicode="&#x1406;" horiz-adv-x="687" 
d="M76 878q0 36 24 60.5t63 24.5t63 -24.5t24 -60.5t-24 -60.5t-63 -24.5t-63 24.5t-24 60.5zM89 -14v728l573 -301v-126zM237 475v-253l256 128z" />
    <glyph glyph-name="uni140A" unicode="&#x140a;" horiz-adv-x="687" 
d="M25 287v126l573 301v-728zM194 350l256 -128v253z" />
    <glyph glyph-name="uni140B" unicode="&#x140b;" horiz-adv-x="687" 
d="M25 287v126l573 301v-728zM194 350l256 -128v253zM437 878q0 36 24 60.5t63 24.5t63 -24.5t24 -60.5t-24 -60.5t-63 -24.5t-63 24.5t-24 60.5z" />
    <glyph glyph-name="uni142F" unicode="&#x142f;" horiz-adv-x="723" 
d="M299 -2l-290 702h167l186 -480l187 480h165l-290 -702h-125z" />
    <glyph glyph-name="uni1430" unicode="&#x1430;" horiz-adv-x="723" 
d="M9 0l289 702h126l290 -702h-167l-186 479l-187 -479h-165zM242 883q0 46 34 77.5t86 31.5q53 0 86.5 -31.5t33.5 -77.5q0 -45 -33.5 -76.5t-86.5 -31.5q-52 0 -86 31.5t-34 76.5zM322 883q0 -16 11 -27t29 -11t29 11t11 27q0 17 -11 28t-29 11t-29 -11t-11 -28z" />
    <glyph glyph-name="uni1431" unicode="&#x1431;" horiz-adv-x="723" 
d="M9 0l289 702h126l290 -702h-167l-186 479l-187 -479h-165z" />
    <glyph glyph-name="uni1432" unicode="&#x1432;" horiz-adv-x="723" 
d="M9 0l289 702h126l290 -702h-167l-186 479l-187 -479h-165zM275 878q0 36 24 60.5t63 24.5t63 -24.5t24 -60.5t-24 -60.5t-63 -24.5t-63 24.5t-24 60.5z" />
    <glyph glyph-name="uni1433" unicode="&#x1433;" horiz-adv-x="677" 
d="M80 -14v172l391 191l-391 191v174l572 -301v-126z" />
    <glyph glyph-name="uni1434" unicode="&#x1434;" horiz-adv-x="677" 
d="M80 -14v172l391 191l-391 191v174l572 -301v-126zM79 878q0 36 24 60.5t63 24.5t63 -24.5t24 -60.5t-24 -60.5t-63 -24.5t-63 24.5t-24 60.5z" />
    <glyph glyph-name="uni1438" unicode="&#x1438;" horiz-adv-x="677" 
d="M25 287v125l573 302v-175l-392 -190l392 -193v-170z" />
    <glyph glyph-name="uni1439" unicode="&#x1439;" horiz-adv-x="677" 
d="M25 287v125l573 302v-175l-392 -190l392 -193v-170zM430 878q0 36 24 60.5t63 24.5t63 -24.5t24 -60.5t-24 -60.5t-63 -24.5t-63 24.5t-24 60.5z" />
    <glyph glyph-name="uni1449" unicode="&#x1449;" horiz-adv-x="454" 
d="M20 431v70l374 211v-142l-211 -103l211 -102v-145z" />
    <glyph glyph-name="uni144C" unicode="&#x144c;" horiz-adv-x="743" 
d="M84 270v430h156v-412q0 -74 35.5 -113.5t95.5 -39.5q61 0 96.5 39.5t35.5 113.5v412h156v-430q0 -84 -34.5 -148t-99 -100t-154.5 -36q-89 0 -153.5 36t-99 100t-34.5 148z" />
    <glyph glyph-name="uni144D" unicode="&#x144d;" horiz-adv-x="743" 
d="M84 0v430q0 84 34.5 148t99 100t153.5 36q90 0 154.5 -36t99 -100t34.5 -148v-430h-156v412q0 74 -35.5 113.5t-96.5 39.5q-60 0 -95.5 -39.5t-35.5 -113.5v-412h-156zM251 883q0 46 34 77.5t86 31.5q53 0 86.5 -31.5t33.5 -77.5q0 -45 -33.5 -76.5t-86.5 -31.5
q-52 0 -86 31.5t-34 76.5zM331 883q0 -16 11 -27t29 -11t29 11t11 27q0 17 -11 28t-29 11t-29 -11t-11 -28z" />
    <glyph glyph-name="uni144E" unicode="&#x144e;" horiz-adv-x="743" 
d="M84 0v430q0 84 34.5 148t99 100t153.5 36q90 0 154.5 -36t99 -100t34.5 -148v-430h-156v412q0 74 -35.5 113.5t-96.5 39.5q-60 0 -95.5 -39.5t-35.5 -113.5v-412h-156z" />
    <glyph glyph-name="uni144F" unicode="&#x144f;" horiz-adv-x="743" 
d="M84 0v430q0 84 34.5 148t99 100t153.5 36q90 0 154.5 -36t99 -100t34.5 -148v-430h-156v412q0 74 -35.5 113.5t-96.5 39.5q-60 0 -95.5 -39.5t-35.5 -113.5v-412h-156zM284 878q0 36 24 60.5t63 24.5t63 -24.5t24 -60.5t-24 -60.5t-63 -24.5t-63 24.5t-24 60.5z" />
    <glyph glyph-name="uni1450" unicode="&#x1450;" horiz-adv-x="624" 
d="M80 0v146h109q106 0 161.5 55t55.5 149t-55.5 149t-161.5 55h-109v146h120q108 0 191 -42.5t130 -121t47 -186.5t-47 -186.5t-130 -121t-191 -42.5h-120z" />
    <glyph glyph-name="uni1451" unicode="&#x1451;" horiz-adv-x="624" 
d="M80 0v146h109q106 0 161.5 55t55.5 149t-55.5 149t-161.5 55h-109v146h120q108 0 191 -42.5t130 -121t47 -186.5t-47 -186.5t-130 -121t-191 -42.5h-120zM148 878q0 36 24 60.5t63 24.5t63 -24.5t24 -60.5t-24 -60.5t-63 -24.5t-63 24.5t-24 60.5z" />
    <glyph glyph-name="uni1455" unicode="&#x1455;" horiz-adv-x="624" 
d="M56 350q0 108 47 186.5t130.5 121t190.5 42.5h120v-146h-109q-106 0 -161.5 -55t-55.5 -149t55.5 -149t161.5 -55h109v-146h-120q-107 0 -190.5 42.5t-130.5 121t-47 186.5z" />
    <glyph glyph-name="uni1456" unicode="&#x1456;" horiz-adv-x="624" 
d="M56 350q0 108 47 186.5t130.5 121t190.5 42.5h120v-146h-109q-106 0 -161.5 -55t-55.5 -149t55.5 -149t161.5 -55h109v-146h-120q-107 0 -190.5 42.5t-130.5 121t-47 186.5zM302 878q0 36 24 60.5t63 24.5t63 -24.5t24 -60.5t-24 -60.5t-63 -24.5t-63 24.5t-24 60.5z" />
    <glyph glyph-name="uni1466" unicode="&#x1466;" horiz-adv-x="453" 
d="M50 466q0 73 33 125t91 80.5t132 28.5h88v-118h-80q-64 0 -99 -31.5t-35 -84.5q0 -54 35 -85.5t99 -31.5h80v-117h-88q-74 0 -132 28t-91 80.5t-33 125.5z" />
    <glyph glyph-name="uni146B" unicode="&#x146b;" horiz-adv-x="679" 
d="M62 450q0 73 33.5 132.5t94 95.5t141.5 36q80 0 139 -36t92 -101t33 -153v-424h-155v259q-28 -30 -65.5 -46.5t-81.5 -16.5q-62 0 -115 33t-84.5 90.5t-31.5 130.5zM215 451q0 -52 32.5 -85t83.5 -33q50 0 82.5 33t32.5 85q0 53 -32.5 88t-82.5 35q-51 0 -83.5 -35
t-32.5 -88z" />
    <glyph glyph-name="uni146C" unicode="&#x146c;" horiz-adv-x="679" 
d="M84 0v424q0 88 33 153t92.5 101t138.5 36q80 0 140.5 -36t94.5 -95.5t34 -132.5t-31.5 -130.5t-84 -90.5t-115.5 -33q-44 0 -82 16.5t-66 46.5v-259h-154zM233 451q0 -52 32.5 -85t82.5 -33q51 0 83.5 33t32.5 85q0 53 -32.5 88t-83.5 35q-50 0 -82.5 -35t-32.5 -88z
M228 883q0 46 34 77.5t86 31.5q53 0 86.5 -31.5t33.5 -77.5q0 -45 -33.5 -76.5t-86.5 -31.5q-52 0 -86 31.5t-34 76.5zM308 883q0 -16 11 -27t29 -11t29 11t11 27q0 17 -11 28t-29 11t-29 -11t-11 -28z" />
    <glyph glyph-name="uni146D" unicode="&#x146d;" horiz-adv-x="679" 
d="M84 0v424q0 88 33 153t92.5 101t138.5 36q80 0 140.5 -36t94.5 -95.5t34 -132.5t-31.5 -130.5t-84 -90.5t-115.5 -33q-44 0 -82 16.5t-66 46.5v-259h-154zM233 451q0 -52 32.5 -85t82.5 -33q51 0 83.5 33t32.5 85q0 53 -32.5 88t-83.5 35q-50 0 -82.5 -35t-32.5 -88z" />
    <glyph glyph-name="uni146E" unicode="&#x146e;" horiz-adv-x="679" 
d="M84 0v424q0 88 33 153t92.5 101t138.5 36q80 0 140.5 -36t94.5 -95.5t34 -132.5t-31.5 -130.5t-84 -90.5t-115.5 -33q-44 0 -82 16.5t-66 46.5v-259h-154zM233 451q0 -52 32.5 -85t82.5 -33q51 0 83.5 33t32.5 85q0 53 -32.5 88t-83.5 35q-50 0 -82.5 -35t-32.5 -88z
M261 878q0 36 24 60.5t63 24.5t63 -24.5t24 -60.5t-24 -60.5t-63 -24.5t-63 24.5t-24 60.5z" />
    <glyph glyph-name="uni146F" unicode="&#x146f;" horiz-adv-x="679" 
d="M62 250q0 73 31.5 130.5t84.5 90.5t115 33q44 0 81.5 -16.5t65.5 -46.5v259h155v-424q0 -87 -33 -152.5t-92 -101.5t-139 -36q-81 0 -141.5 36t-94 96t-33.5 132zM215 249q0 -53 32.5 -88t83.5 -35q50 0 82.5 35t32.5 88t-32.5 85.5t-82.5 32.5q-51 0 -83.5 -32.5
t-32.5 -85.5z" />
    <glyph glyph-name="uni1470" unicode="&#x1470;" horiz-adv-x="679" 
d="M62 250q0 73 31.5 130.5t84.5 90.5t115 33q44 0 81.5 -16.5t65.5 -46.5v259h155v-424q0 -87 -33 -152.5t-92 -101.5t-139 -36q-81 0 -141.5 36t-94 96t-33.5 132zM215 249q0 -53 32.5 -88t83.5 -35q50 0 82.5 35t32.5 88t-32.5 85.5t-82.5 32.5q-51 0 -83.5 -32.5
t-32.5 -85.5zM431 878q0 36 24 60.5t63 24.5t63 -24.5t24 -60.5t-24 -60.5t-63 -24.5t-63 24.5t-24 60.5z" />
    <glyph glyph-name="uni1472" unicode="&#x1472;" horiz-adv-x="679" 
d="M84 276v424h154v-259q28 30 66 46.5t82 16.5q63 0 115.5 -33t84 -90.5t31.5 -130.5q0 -72 -34 -132t-94.5 -96t-140.5 -36q-79 0 -138.5 36t-92.5 101.5t-33 152.5zM233 249q0 -53 32.5 -88t82.5 -35q51 0 83.5 35t32.5 88t-32.5 85.5t-83.5 32.5q-50 0 -82.5 -32.5
t-32.5 -85.5z" />
    <glyph glyph-name="uni1473" unicode="&#x1473;" horiz-adv-x="679" 
d="M74 878q0 36 24 60.5t63 24.5t63 -24.5t24 -60.5t-24 -60.5t-63 -24.5t-63 24.5t-24 60.5zM84 276v424h154v-259q28 30 66 46.5t82 16.5q63 0 115.5 -33t84 -90.5t31.5 -130.5q0 -72 -34 -132t-94.5 -96t-140.5 -36q-79 0 -138.5 36t-92.5 101.5t-33 152.5zM233 249
q0 -53 32.5 -88t82.5 -35q51 0 83.5 35t32.5 88t-32.5 85.5t-83.5 32.5q-50 0 -82.5 -32.5t-32.5 -85.5z" />
    <glyph glyph-name="uni1483" unicode="&#x1483;" horiz-adv-x="485" 
d="M57 419v281h126v-157q37 43 99 43q43 0 78.5 -22t56.5 -62t21 -94q0 -52 -24.5 -94.5t-67.5 -68t-100 -25.5q-56 0 -99 26t-66.5 71t-23.5 102zM177 409q0 -31 19.5 -51t49.5 -20q31 0 50 20t19 51t-19 50.5t-50 19.5q-30 0 -49.5 -19.5t-19.5 -50.5z" />
    <glyph glyph-name="uni1489" unicode="&#x1489;" horiz-adv-x="693" 
d="M64 335v108q0 81 32.5 142t93.5 95t146 34q86 0 147 -34t93.5 -95t32.5 -142v-443h-155v424q0 71 -31.5 106.5t-86.5 35.5q-54 0 -86 -35.5t-32 -106.5v-89h-154z" />
    <glyph glyph-name="uni148A" unicode="&#x148a;" horiz-adv-x="693" 
d="M84 0v443q0 81 32.5 142t93.5 95t146 34q86 0 147 -34t93.5 -95t32.5 -142v-108h-155v89q0 71 -31.5 106.5t-86.5 35.5q-54 0 -86 -35.5t-32 -106.5v-424h-154zM236 883q0 46 34 77.5t86 31.5q53 0 86.5 -31.5t33.5 -77.5q0 -45 -33.5 -76.5t-86.5 -31.5q-52 0 -86 31.5
t-34 76.5zM316 883q0 -16 11 -27t29 -11t29 11t11 27q0 17 -11 28t-29 11t-29 -11t-11 -28z" />
    <glyph glyph-name="uni148B" unicode="&#x148b;" horiz-adv-x="693" 
d="M84 0v443q0 81 32.5 142t93.5 95t146 34q86 0 147 -34t93.5 -95t32.5 -142v-108h-155v89q0 71 -31.5 106.5t-86.5 35.5q-54 0 -86 -35.5t-32 -106.5v-424h-154z" />
    <glyph glyph-name="uni148C" unicode="&#x148c;" horiz-adv-x="693" 
d="M84 0v443q0 81 32.5 142t93.5 95t146 34q86 0 147 -34t93.5 -95t32.5 -142v-108h-155v89q0 71 -31.5 106.5t-86.5 35.5q-54 0 -86 -35.5t-32 -106.5v-424h-154zM269 878q0 36 24 60.5t63 24.5t63 -24.5t24 -60.5t-24 -60.5t-63 -24.5t-63 24.5t-24 60.5z" />
    <glyph glyph-name="uni148D" unicode="&#x148d;" horiz-adv-x="693" 
d="M64 257v108h154v-89q0 -70 32 -106t86 -36q55 0 86.5 36t31.5 106v424h155v-443q0 -81 -32.5 -142t-93.5 -95t-147 -34q-85 0 -146 34t-93.5 95t-32.5 142z" />
    <glyph glyph-name="uni148E" unicode="&#x148e;" horiz-adv-x="693" 
d="M64 257v108h154v-89q0 -70 32 -106t86 -36q55 0 86.5 36t31.5 106v424h155v-443q0 -81 -32.5 -142t-93.5 -95t-147 -34q-85 0 -146 34t-93.5 95t-32.5 142zM445 878q0 36 24 60.5t63 24.5t63 -24.5t24 -60.5t-24 -60.5t-63 -24.5t-63 24.5t-24 60.5z" />
    <glyph glyph-name="uni1490" unicode="&#x1490;" horiz-adv-x="693" 
d="M84 257v443h154v-424q0 -70 32 -106t86 -36q55 0 86.5 36t31.5 106v89h155v-108q0 -81 -32.5 -142t-93.5 -95t-147 -34q-85 0 -146 34t-93.5 95t-32.5 142z" />
    <glyph glyph-name="uni1491" unicode="&#x1491;" horiz-adv-x="693" 
d="M74 878q0 36 24 60.5t63 24.5t63 -24.5t24 -60.5t-24 -60.5t-63 -24.5t-63 24.5t-24 60.5zM84 257v443h154v-424q0 -70 32 -106t86 -36q55 0 86.5 36t31.5 106v89h155v-108q0 -81 -32.5 -142t-93.5 -95t-147 -34q-85 0 -146 34t-93.5 95t-32.5 142z" />
    <glyph glyph-name="uni14A1" unicode="&#x14a1;" horiz-adv-x="486" 
d="M57 414v286h126v-277q0 -41 17 -62t48 -21t48 21t17 62v61h126v-70q0 -87 -52 -140.5t-139 -53.5t-139 53.5t-52 140.5z" />
    <glyph glyph-name="uni14A3" unicode="&#x14a3;" horiz-adv-x="571" 
d="M326 0v556h-293v144h449v-700h-156z" />
    <glyph glyph-name="uni14A4" unicode="&#x14a4;" horiz-adv-x="571" 
d="M89 0v700h449v-144h-293v-556h-156zM197 883q0 46 34 77.5t86 31.5q53 0 86.5 -31.5t33.5 -77.5q0 -45 -33.5 -76.5t-86.5 -31.5q-52 0 -86 31.5t-34 76.5zM277 883q0 -16 11 -27t29 -11t29 11t11 27q0 17 -11 28t-29 11t-29 -11t-11 -28z" />
    <glyph glyph-name="uni14A5" unicode="&#x14a5;" horiz-adv-x="571" 
d="M89 0v700h449v-144h-293v-556h-156z" />
    <glyph glyph-name="uni14A6" unicode="&#x14a6;" horiz-adv-x="571" 
d="M89 0v700h449v-144h-293v-556h-156zM230 878q0 36 24 60.5t63 24.5t63 -24.5t24 -60.5t-24 -60.5t-63 -24.5t-63 24.5t-24 60.5z" />
    <glyph glyph-name="uni14A7" unicode="&#x14a7;" horiz-adv-x="571" 
d="M33 0v144h293v556h156v-700h-449z" />
    <glyph glyph-name="uni14A8" unicode="&#x14a8;" horiz-adv-x="571" 
d="M33 0v144h293v556h156v-700h-449zM317 878q0 36 24 60.5t63 24.5t63 -24.5t24 -60.5t-24 -60.5t-63 -24.5t-63 24.5t-24 60.5z" />
    <glyph glyph-name="uni14AA" unicode="&#x14aa;" horiz-adv-x="571" 
d="M89 0v700h156v-556h293v-144h-449z" />
    <glyph glyph-name="uni14AB" unicode="&#x14ab;" horiz-adv-x="571" 
d="M80 878q0 36 24 60.5t63 24.5t63 -24.5t24 -60.5t-24 -60.5t-63 -24.5t-63 24.5t-24 60.5zM89 0v700h156v-556h293v-144h-449z" />
    <glyph glyph-name="uni14BB" unicode="&#x14bb;" horiz-adv-x="386" 
d="M62 232v468h126v-352h179v-116h-305z" />
    <glyph glyph-name="uni14C0" unicode="&#x14c0;" horiz-adv-x="821" 
d="M30 346v144h447q89 0 152.5 -33.5t97 -90t33.5 -127.5t-32.5 -128.5t-92 -91t-139.5 -33.5q-73 0 -130.5 29t-90.5 78.5t-33 112.5q0 43 14 79t39 61h-265zM387 240q0 -52 31 -83.5t80 -31.5q50 0 81 31.5t31 83.5q0 50 -32 81t-80 31t-79.5 -31t-31.5 -81z" />
    <glyph glyph-name="uni14C1" unicode="&#x14c1;" horiz-adv-x="821" 
d="M62 239q0 71 33.5 127.5t97 90t151.5 33.5h447v-144h-265q26 -25 40 -61t14 -79q0 -63 -33.5 -112.5t-90.5 -78.5t-130 -29q-81 0 -140 33.5t-91.5 91t-32.5 128.5zM211 240q0 -52 31.5 -83.5t80.5 -31.5q50 0 81 31.5t31 83.5q0 50 -32 81t-80 31t-80 -31t-32 -81z
M260 673q0 46 34 77.5t86 31.5q53 0 86.5 -31.5t33.5 -77.5q0 -45 -33.5 -76.5t-86.5 -31.5q-52 0 -86 31.5t-34 76.5zM340 673q0 -16 11 -27t29 -11t29 11t11 27q0 17 -11 28t-29 11t-29 -11t-11 -28z" />
    <glyph glyph-name="uni14C2" unicode="&#x14c2;" horiz-adv-x="821" 
d="M62 239q0 71 33.5 127.5t97 90t151.5 33.5h447v-144h-265q26 -25 40 -61t14 -79q0 -63 -33.5 -112.5t-90.5 -78.5t-130 -29q-81 0 -140 33.5t-91.5 91t-32.5 128.5zM211 240q0 -52 31.5 -83.5t80.5 -31.5q50 0 81 31.5t31 83.5q0 50 -32 81t-80 31t-80 -31t-32 -81z" />
    <glyph glyph-name="uni14C3" unicode="&#x14c3;" horiz-adv-x="821" 
d="M62 239q0 71 33.5 127.5t97 90t151.5 33.5h447v-144h-265q26 -25 40 -61t14 -79q0 -63 -33.5 -112.5t-90.5 -78.5t-130 -29q-81 0 -140 33.5t-91.5 91t-32.5 128.5zM211 240q0 -52 31.5 -83.5t80.5 -31.5q50 0 81 31.5t31 83.5q0 50 -32 81t-80 31t-80 -31t-32 -81z
M293 668q0 36 24 60.5t63 24.5t63 -24.5t24 -60.5t-24 -60.5t-63 -24.5t-63 24.5t-24 60.5z" />
    <glyph glyph-name="uni14C4" unicode="&#x14c4;" horiz-adv-x="821" 
d="M30 0v144h265q-25 26 -39 61.5t-14 78.5q0 63 33 113t90.5 78.5t130.5 28.5q80 0 139.5 -33.5t92 -91t32.5 -128.5q0 -70 -33.5 -127t-97 -90.5t-152.5 -33.5h-447zM387 250q0 -50 31.5 -81t79.5 -31t80 31t32 81q0 53 -31 84t-81 31q-49 0 -80 -31t-31 -84z" />
    <glyph glyph-name="uni14C5" unicode="&#x14c5;" horiz-adv-x="821" 
d="M30 0v144h265q-25 26 -39 61.5t-14 78.5q0 63 33 113t90.5 78.5t130.5 28.5q80 0 139.5 -33.5t92 -91t32.5 -128.5q0 -70 -33.5 -127t-97 -90.5t-152.5 -33.5h-447zM387 250q0 -50 31.5 -81t79.5 -31t80 31t32 81q0 53 -31 84t-81 31q-49 0 -80 -31t-31 -84zM409 668
q0 36 24 60.5t63 24.5t63 -24.5t24 -60.5t-24 -60.5t-63 -24.5t-63 24.5t-24 60.5z" />
    <glyph glyph-name="uni14C7" unicode="&#x14c7;" horiz-adv-x="821" 
d="M62 251q0 71 32.5 128.5t91.5 91t140 33.5q73 0 130 -28.5t90.5 -78.5t33.5 -113q0 -43 -14 -78.5t-40 -61.5h265v-144h-447q-88 0 -151.5 33.5t-97 90.5t-33.5 127zM211 250q0 -50 32 -81t80 -31t80 31t32 81q0 53 -31 84t-81 31q-49 0 -80.5 -31t-31.5 -84z" />
    <glyph glyph-name="uni14C8" unicode="&#x14c8;" horiz-adv-x="821" 
d="M62 251q0 71 32.5 128.5t91.5 91t140 33.5q73 0 130 -28.5t90.5 -78.5t33.5 -113q0 -43 -14 -78.5t-40 -61.5h265v-144h-447q-88 0 -151.5 33.5t-97 90.5t-33.5 127zM211 250q0 -50 32 -81t80 -31t80 31t32 81q0 53 -31 84t-81 31q-49 0 -80.5 -31t-31.5 -84zM239 668
q0 36 24 60.5t63 24.5t63 -24.5t24 -60.5t-24 -60.5t-63 -24.5t-63 24.5t-24 60.5z" />
    <glyph glyph-name="uni14D0" unicode="&#x14d0;" horiz-adv-x="569" 
d="M47 523q0 51 24 93t68.5 67t103.5 25q56 0 97 -20t63.5 -54.5t22.5 -78.5q0 -30 -11 -55t-30 -43h167v-118h-298q-66 0 -112.5 25t-70.5 67t-24 92zM175 523q0 -28 18.5 -48t49.5 -20q32 0 50 19.5t18 48.5t-18 48.5t-50 19.5q-31 0 -49.5 -20.5t-18.5 -47.5z" />
    <glyph glyph-name="uni14D3" unicode="&#x14d3;" horiz-adv-x="754" 
d="M30 346v144h392q88 0 148 -33t91 -88.5t31 -123.5t-31 -123.5t-91 -88.5t-148 -33h-99v144h94q57 0 86.5 29t29.5 72q0 44 -28.5 72.5t-87.5 28.5h-387z" />
    <glyph glyph-name="uni14D4" unicode="&#x14d4;" horiz-adv-x="754" 
d="M62 245q0 68 31.5 123.5t91.5 88.5t147 33h392v-144h-386q-59 0 -88 -28.5t-29 -72.5q0 -43 29.5 -72t87.5 -29h94v-144h-100q-87 0 -147 33t-91.5 88.5t-31.5 123.5zM248 673q0 46 34 77.5t86 31.5q53 0 86.5 -31.5t33.5 -77.5q0 -45 -33.5 -76.5t-86.5 -31.5
q-52 0 -86 31.5t-34 76.5zM328 673q0 -16 11 -27t29 -11t29 11t11 27q0 17 -11 28t-29 11t-29 -11t-11 -28z" />
    <glyph glyph-name="uni14D5" unicode="&#x14d5;" horiz-adv-x="754" 
d="M62 245q0 68 31.5 123.5t91.5 88.5t147 33h392v-144h-386q-59 0 -88 -28.5t-29 -72.5q0 -43 29.5 -72t87.5 -29h94v-144h-100q-87 0 -147 33t-91.5 88.5t-31.5 123.5z" />
    <glyph glyph-name="uni14D6" unicode="&#x14d6;" horiz-adv-x="754" 
d="M62 245q0 68 31.5 123.5t91.5 88.5t147 33h392v-144h-386q-59 0 -88 -28.5t-29 -72.5q0 -43 29.5 -72t87.5 -29h94v-144h-100q-87 0 -147 33t-91.5 88.5t-31.5 123.5zM281 668q0 36 24 60.5t63 24.5t63 -24.5t24 -60.5t-24 -60.5t-63 -24.5t-63 24.5t-24 60.5z" />
    <glyph glyph-name="uni14D7" unicode="&#x14d7;" horiz-adv-x="754" 
d="M30 0v144h387q59 0 87.5 29t28.5 72q0 44 -29.5 72.5t-86.5 28.5h-94v144h99q88 0 148 -33t91 -88.5t31 -123.5t-31 -123.5t-91 -88.5t-148 -33h-392z" />
    <glyph glyph-name="uni14D8" unicode="&#x14d8;" horiz-adv-x="754" 
d="M30 0v144h387q59 0 87.5 29t28.5 72q0 44 -29.5 72.5t-86.5 28.5h-94v144h99q88 0 148 -33t91 -88.5t31 -123.5t-31 -123.5t-91 -88.5t-148 -33h-392zM293 668q0 36 24 60.5t63 24.5t63 -24.5t24 -60.5t-24 -60.5t-63 -24.5t-63 24.5t-24 60.5z" />
    <glyph glyph-name="uni14DA" unicode="&#x14da;" horiz-adv-x="754" 
d="M62 245q0 68 31.5 123.5t91.5 88.5t147 33h100v-144h-94q-58 0 -87.5 -28.5t-29.5 -72.5q0 -43 29 -72t88 -29h386v-144h-392q-87 0 -147 33t-91.5 88.5t-31.5 123.5z" />
    <glyph glyph-name="uni14DB" unicode="&#x14db;" horiz-adv-x="754" 
d="M62 245q0 68 31.5 123.5t91.5 88.5t147 33h100v-144h-94q-58 0 -87.5 -28.5t-29.5 -72.5q0 -43 29 -72t88 -29h386v-144h-392q-87 0 -147 33t-91.5 88.5t-31.5 123.5zM287 668q0 36 24 60.5t63 24.5t63 -24.5t24 -60.5t-24 -60.5t-63 -24.5t-63 24.5t-24 60.5z" />
    <glyph glyph-name="uni14EA" unicode="&#x14ea;" horiz-adv-x="514" 
d="M47 520q0 50 22.5 91t66.5 65t106 24h59v-118h-54q-35 0 -52.5 -18.5t-17.5 -43.5t17 -44t53 -19h249v-118h-254q-62 0 -106 24t-66.5 65.5t-22.5 91.5z" />
    <glyph glyph-name="uni14ED" unicode="&#x14ed;" horiz-adv-x="605" 
d="M64 570v130h156v-118q0 -102 50 -150.5t150 -48.5h101v-383h-156v237q-139 4 -220 90t-81 243z" />
    <glyph glyph-name="uni14EE" unicode="&#x14ee;" horiz-adv-x="605" 
d="M84 0v383h101q100 0 150 48.5t50 150.5v118h156v-130q0 -158 -80.5 -243t-220.5 -90v-237h-156zM343 883q0 46 34 77.5t86 31.5q53 0 86.5 -31.5t33.5 -77.5q0 -45 -33.5 -76.5t-86.5 -31.5q-52 0 -86 31.5t-34 76.5zM423 883q0 -16 11 -27t29 -11t29 11t11 27
q0 17 -11 28t-29 11t-29 -11t-11 -28z" />
    <glyph glyph-name="uni14EF" unicode="&#x14ef;" horiz-adv-x="605" 
d="M84 0v383h101q100 0 150 48.5t50 150.5v118h156v-130q0 -158 -80.5 -243t-220.5 -90v-237h-156z" />
    <glyph glyph-name="uni14F0" unicode="&#x14f0;" horiz-adv-x="605" 
d="M84 0v383h101q100 0 150 48.5t50 150.5v118h156v-130q0 -158 -80.5 -243t-220.5 -90v-237h-156zM376 878q0 36 24 60.5t63 24.5t63 -24.5t24 -60.5t-24 -60.5t-63 -24.5t-63 24.5t-24 60.5z" />
    <glyph glyph-name="uni14F1" unicode="&#x14f1;" horiz-adv-x="605" 
d="M64 0v130q0 158 81 243.5t220 89.5v237h156v-383h-101q-100 0 -150 -48.5t-50 -150.5v-118h-156z" />
    <glyph glyph-name="uni14F2" unicode="&#x14f2;" horiz-adv-x="605" 
d="M64 0v130q0 158 81 243.5t220 89.5v237h156v-383h-101q-100 0 -150 -48.5t-50 -150.5v-118h-156zM356 878q0 36 24 60.5t63 24.5t63 -24.5t24 -60.5t-24 -60.5t-63 -24.5t-63 24.5t-24 60.5z" />
    <glyph glyph-name="uni14F4" unicode="&#x14f4;" horiz-adv-x="605" 
d="M84 317v383h156v-237q140 -4 220.5 -89.5t80.5 -243.5v-130h-156v118q0 102 -50 150.5t-150 48.5h-101z" />
    <glyph glyph-name="uni14F5" unicode="&#x14f5;" horiz-adv-x="605" 
d="M75 878q0 36 24 60.5t63 24.5t63 -24.5t24 -60.5t-24 -60.5t-63 -24.5t-63 24.5t-24 60.5zM84 317v383h156v-237q140 -4 220.5 -89.5t80.5 -243.5v-130h-156v118q0 102 -50 150.5t-150 48.5h-101z" />
    <glyph glyph-name="uni1505" unicode="&#x1505;" horiz-adv-x="426" 
d="M52 433v267h126v-154q96 -4 146 -59.5t50 -159.5v-103h-126v88q0 68 -29 94.5t-91 26.5h-76z" />
    <glyph glyph-name="uni1526" unicode="&#x1526;" horiz-adv-x="593" 
d="M44 241v97l260 362h190l-237 -315h247v-385h-156v241h-304z" />
    <glyph glyph-name="uni1527" unicode="&#x1527;" horiz-adv-x="593" 
d="M89 0v385h247l-237 315h190l260 -362v-97h-304v-241h-156zM100 883q0 46 34 77.5t86 31.5q53 0 86.5 -31.5t33.5 -77.5q0 -45 -33.5 -76.5t-86.5 -31.5q-52 0 -86 31.5t-34 76.5zM180 883q0 -16 11 -27t29 -11t29 11t11 27q0 17 -11 28t-29 11t-29 -11t-11 -28z" />
    <glyph glyph-name="uni1528" unicode="&#x1528;" horiz-adv-x="593" 
d="M89 0v385h247l-237 315h190l260 -362v-97h-304v-241h-156z" />
    <glyph glyph-name="uni1529" unicode="&#x1529;" horiz-adv-x="593" 
d="M89 0v385h247l-237 315h190l260 -362v-97h-304v-241h-156zM133 878q0 36 24 60.5t63 24.5t63 -24.5t24 -60.5t-24 -60.5t-63 -24.5t-63 24.5t-24 60.5z" />
    <glyph glyph-name="uni152A" unicode="&#x152a;" horiz-adv-x="593" 
d="M44 362v97h304v241h156v-385h-247l237 -315h-190z" />
    <glyph glyph-name="uni152B" unicode="&#x152b;" horiz-adv-x="593" 
d="M44 362v97h304v241h156v-385h-247l237 -315h-190zM339 878q0 36 24 60.5t63 24.5t63 -24.5t24 -60.5t-24 -60.5t-63 -24.5t-63 24.5t-24 60.5z" />
    <glyph glyph-name="uni152D" unicode="&#x152d;" horiz-adv-x="593" 
d="M99 0l237 315h-247v385h156v-241h304v-97l-260 -362h-190z" />
    <glyph glyph-name="uni152E" unicode="&#x152e;" horiz-adv-x="593" 
d="M80 878q0 36 24 60.5t63 24.5t63 -24.5t24 -60.5t-24 -60.5t-63 -24.5t-63 24.5t-24 60.5zM99 0l237 315h-247v385h156v-241h304v-97l-260 -362h-190z" />
    <glyph glyph-name="uni153E" unicode="&#x153e;" horiz-adv-x="402" 
d="M66 232l147 202h-156v266h127v-149h198v-77l-169 -242h-147z" />
    <glyph glyph-name="uni1542" unicode="&#x1542;" horiz-adv-x="817" 
d="M72 258v232h155v-216q0 -70 30 -104.5t82 -34.5q53 0 82.5 34.5t29.5 104.5v216h336v-144h-181v-88q0 -82 -31.5 -143t-91.5 -95t-144 -34t-143.5 34t-91.5 95t-32 143z" />
    <glyph glyph-name="uni1543" unicode="&#x1543;" horiz-adv-x="817" 
d="M211 258v88h-181v144h336v-216q0 -70 30 -104.5t82 -34.5q53 0 82.5 34.5t29.5 104.5v216h155v-232q0 -82 -31.5 -143t-91.5 -95t-144 -34t-143.5 34t-91.5 95t-32 143z" />
    <glyph glyph-name="uni1544" unicode="&#x1544;" horiz-adv-x="817" 
d="M30 0v144h181v88q0 82 32 143t91.5 95t143.5 34t144 -34t91.5 -95t31.5 -143v-232h-155v216q0 70 -29.5 104.5t-82.5 34.5q-52 0 -82 -34.5t-30 -104.5v-216h-336z" />
    <glyph glyph-name="uni1545" unicode="&#x1545;" horiz-adv-x="817" 
d="M72 0v232q0 82 32 143t91.5 95t143.5 34t144 -34t91.5 -95t31.5 -143v-88h181v-144h-336v216q0 70 -29.5 104.5t-82.5 34.5q-52 0 -82 -34.5t-30 -104.5v-216h-155zM219 673q0 46 34 77.5t86 31.5q53 0 86.5 -31.5t33.5 -77.5q0 -45 -33.5 -76.5t-86.5 -31.5
q-52 0 -86 31.5t-34 76.5zM299 673q0 -16 11 -27t29 -11t29 11t11 27q0 17 -11 28t-29 11t-29 -11t-11 -28z" />
    <glyph glyph-name="uni1546" unicode="&#x1546;" horiz-adv-x="817" 
d="M72 0v232q0 82 32 143t91.5 95t143.5 34t144 -34t91.5 -95t31.5 -143v-88h181v-144h-336v216q0 70 -29.5 104.5t-82.5 34.5q-52 0 -82 -34.5t-30 -104.5v-216h-155z" />
    <glyph glyph-name="uni1547" unicode="&#x1547;" horiz-adv-x="817" 
d="M72 0v232q0 82 32 143t91.5 95t143.5 34t144 -34t91.5 -95t31.5 -143v-88h181v-144h-336v216q0 70 -29.5 104.5t-82.5 34.5q-52 0 -82 -34.5t-30 -104.5v-216h-155zM252 668q0 36 24 60.5t63 24.5t63 -24.5t24 -60.5t-24 -60.5t-63 -24.5t-63 24.5t-24 60.5z" />
    <glyph glyph-name="uni1548" unicode="&#x1548;" horiz-adv-x="607" 
d="M89 0v343h166q65 0 96.5 29.5t31.5 76.5t-32 77t-96 30h-166v144h174q88 0 150.5 -32.5t96 -89t33.5 -129.5q0 -72 -33.5 -128.5t-96 -89t-150.5 -32.5h-20v-199h-154z" />
    <glyph glyph-name="uni1549" unicode="&#x1549;" horiz-adv-x="607" 
d="M89 0v343h166q65 0 96.5 29.5t31.5 76.5t-32 77t-96 30h-166v144h174q88 0 150.5 -32.5t96 -89t33.5 -129.5q0 -72 -33.5 -128.5t-96 -89t-150.5 -32.5h-20v-199h-154zM140 878q0 36 24 60.5t63 24.5t63 -24.5t24 -60.5t-24 -60.5t-63 -24.5t-63 24.5t-24 60.5z" />
    <glyph glyph-name="uni154B" unicode="&#x154b;" horiz-adv-x="607" 
d="M364 0v199h-20q-88 0 -150.5 32.5t-96 89t-33.5 128.5q0 73 33.5 129.5t96 89t150.5 32.5h174v-144h-166q-64 0 -96 -30t-32 -77t32 -76.5t96 -29.5h166v-343h-154z" />
    <glyph glyph-name="uni154C" unicode="&#x154c;" horiz-adv-x="607" 
d="M364 0v199h-20q-88 0 -150.5 32.5t-96 89t-33.5 128.5q0 73 33.5 129.5t96 89t150.5 32.5h174v-144h-166q-64 0 -96 -30t-32 -77t32 -76.5t96 -29.5h166v-343h-154zM293 878q0 36 24 60.5t63 24.5t63 -24.5t24 -60.5t-24 -60.5t-63 -24.5t-63 24.5t-24 60.5z" />
    <glyph glyph-name="uni1550" unicode="&#x1550;" horiz-adv-x="414" 
d="M47 523q0 49 22.5 89t65.5 64t102 24h119v-117h-114q-33 0 -49.5 -17t-16.5 -43t17 -43.5t49 -17.5h114v-230h-126v115q-89 5 -136 55.5t-47 120.5z" />
    <glyph glyph-name="uni1553" unicode="&#x1553;" horiz-adv-x="784" 
d="M317 -2l-221 416q-17 32 -26 61.5t-9 62.5q0 49 23.5 89t65.5 63.5t95 23.5q54 0 96 -23.5t66.5 -63t24.5 -89.5q0 -49 -23 -87t-58.5 -59.5t-73.5 -21.5h-9l101 -194l237 524h169l-332 -702h-126zM185 538q0 -26 17.5 -43.5t44.5 -17.5q26 0 43 17.5t17 43.5t-17 43.5
t-43 17.5q-27 0 -44.5 -17.5t-17.5 -43.5z" />
    <glyph glyph-name="uni1554" unicode="&#x1554;" horiz-adv-x="785" 
d="M61 162q0 33 9 62.5t26 61.5l221 416h126l332 -702h-169l-237 524l-101 -194h9q38 0 73.5 -21.5t58.5 -59.5t23 -87t-24.5 -89t-66.5 -63.5t-96 -23.5q-53 0 -95 23.5t-65.5 63.5t-23.5 89zM185 162q0 -26 17.5 -43.5t44.5 -17.5q26 0 43 17.5t17 43.5t-17 43.5t-43 17.5
q-27 0 -44.5 -17.5t-17.5 -43.5zM259 883q0 46 34 77.5t86 31.5q53 0 86.5 -31.5t33.5 -77.5q0 -45 -33.5 -76.5t-86.5 -31.5q-52 0 -86 31.5t-34 76.5zM339 883q0 -16 11 -27t29 -11t29 11t11 27q0 17 -11 28t-29 11t-29 -11t-11 -28z" />
    <glyph glyph-name="uni1555" unicode="&#x1555;" horiz-adv-x="785" 
d="M61 162q0 33 9 62.5t26 61.5l221 416h126l332 -702h-169l-237 524l-101 -194h9q38 0 73.5 -21.5t58.5 -59.5t23 -87t-24.5 -89t-66.5 -63.5t-96 -23.5q-53 0 -95 23.5t-65.5 63.5t-23.5 89zM185 162q0 -26 17.5 -43.5t44.5 -17.5q26 0 43 17.5t17 43.5t-17 43.5t-43 17.5
q-27 0 -44.5 -17.5t-17.5 -43.5z" />
    <glyph glyph-name="uni1556" unicode="&#x1556;" horiz-adv-x="785" 
d="M61 162q0 33 9 62.5t26 61.5l221 416h126l332 -702h-169l-237 524l-101 -194h9q38 0 73.5 -21.5t58.5 -59.5t23 -87t-24.5 -89t-66.5 -63.5t-96 -23.5q-53 0 -95 23.5t-65.5 63.5t-23.5 89zM185 162q0 -26 17.5 -43.5t44.5 -17.5q26 0 43 17.5t17 43.5t-17 43.5t-43 17.5
q-27 0 -44.5 -17.5t-17.5 -43.5zM292 878q0 36 24 60.5t63 24.5t63 -24.5t24 -60.5t-24 -60.5t-63 -24.5t-63 24.5t-24 60.5z" />
    <glyph glyph-name="uni1557" unicode="&#x1557;" horiz-adv-x="789" 
d="M95 -14v170l506 236l-176 104q-2 -38 -25 -71.5t-60.5 -53.5t-85.5 -20q-51 0 -91.5 23t-64.5 64t-24 94t24.5 93.5t66 64t92.5 23.5q71 0 141 -45l366 -229v-125zM196 532q0 -27 17.5 -44.5t43.5 -17.5q27 0 44 17.5t17 44.5t-17 45t-44 18q-26 0 -43.5 -18t-17.5 -45z
" />
    <glyph glyph-name="uni1558" unicode="&#x1558;" horiz-adv-x="789" 
d="M95 -14v170l506 236l-176 104q-2 -38 -25 -71.5t-60.5 -53.5t-85.5 -20q-51 0 -91.5 23t-64.5 64t-24 94t24.5 93.5t66 64t92.5 23.5q71 0 141 -45l366 -229v-125zM196 532q0 -27 17.5 -44.5t43.5 -17.5q27 0 44 17.5t17 44.5t-17 45t-44 18q-26 0 -43.5 -18t-17.5 -45z
M170 878q0 36 24 60.5t63 24.5t63 -24.5t24 -60.5t-24 -60.5t-63 -24.5t-63 24.5t-24 60.5z" />
    <glyph glyph-name="uni1559" unicode="&#x1559;" horiz-adv-x="789" 
d="M25 314v125l367 229q69 45 140 45q52 0 93 -23.5t65.5 -64t24.5 -93.5t-23.5 -94t-64.5 -64t-92 -23q-47 0 -85 20t-60.5 53.5t-25.5 71.5l-176 -104l506 -236v-170zM471 532q0 -27 17 -44.5t44 -17.5t44 17.5t17 44.5t-17 45t-44 18t-44 -18t-17 -45z" />
    <glyph glyph-name="uni155A" unicode="&#x155a;" horiz-adv-x="789" 
d="M25 314v125l367 229q69 45 140 45q52 0 93 -23.5t65.5 -64t24.5 -93.5t-23.5 -94t-64.5 -64t-92 -23q-47 0 -85 20t-60.5 53.5t-25.5 71.5l-176 -104l506 -236v-170zM471 532q0 -27 17 -44.5t44 -17.5t44 17.5t17 44.5t-17 45t-44 18t-44 -18t-17 -45zM445 878
q0 36 24 60.5t63 24.5t63 -24.5t24 -60.5t-24 -60.5t-63 -24.5t-63 24.5t-24 60.5z" />
    <glyph glyph-name="uni155D" unicode="&#x155d;" horiz-adv-x="518" 
d="M20 416v91l225 161q22 16 47.5 28t49.5 12q54 0 86.5 -33t32.5 -81q0 -52 -32 -82.5t-82 -30.5q-36 0 -63 19t-37 44l-106 -69l312 -121v-134zM309 594q0 -14 10 -24.5t26 -10.5q17 0 26.5 10.5t9.5 24.5q0 15 -9.5 25.5t-26.5 10.5q-16 0 -26 -10.5t-10 -25.5z" />
    <glyph glyph-name="uni1574" unicode="&#x1574;" horiz-adv-x="762" 
d="M440 0v259q-28 -30 -65.5 -46.5t-81.5 -16.5q-62 0 -115 33t-84.5 90.5t-31.5 130.5t33.5 132.5t94 95.5t141.5 36q80 0 139 -36t92 -101t33 -153v-234l134 107v-180l-175 -117h-114zM215 451q0 -52 32.5 -85t83.5 -33q50 0 82.5 33t32.5 85q0 53 -32.5 88t-82.5 35
q-51 0 -83.5 -35t-32.5 -88z" />
    <glyph glyph-name="uni1575" unicode="&#x1575;" horiz-adv-x="762" 
d="M33 117v180l134 -107v234q0 88 33 153t92.5 101t138.5 36q80 0 140.5 -36t94.5 -95.5t34 -132.5t-31.5 -130.5t-84 -90.5t-115.5 -33q-44 0 -82 16.5t-66 46.5v-259h-114zM316 451q0 -52 32.5 -85t82.5 -33q51 0 83.5 33t32.5 85q0 53 -32.5 88t-83.5 35q-50 0 -82.5 -35
t-32.5 -88z" />
    <glyph glyph-name="uni1576" unicode="&#x1576;" horiz-adv-x="762" 
d="M33 117v180l134 -107v234q0 88 33 153t92.5 101t138.5 36q80 0 140.5 -36t94.5 -95.5t34 -132.5t-31.5 -130.5t-84 -90.5t-115.5 -33q-44 0 -82 16.5t-66 46.5v-259h-114zM316 451q0 -52 32.5 -85t82.5 -33q51 0 83.5 33t32.5 85q0 53 -32.5 88t-83.5 35q-50 0 -82.5 -35
t-32.5 -88zM344 878q0 36 24 60.5t63 24.5t63 -24.5t24 -60.5t-24 -60.5t-63 -24.5t-63 24.5t-24 60.5z" />
    <glyph glyph-name="uni1577" unicode="&#x1577;" horiz-adv-x="762" 
d="M62 250q0 73 31.5 130.5t84.5 90.5t115 33q44 0 81.5 -16.5t65.5 -46.5v259h114l175 -117v-180l-134 107v-234q0 -87 -33 -152.5t-92 -101.5t-139 -36q-81 0 -141.5 36t-94 96t-33.5 132zM215 249q0 -53 32.5 -88t83.5 -35q50 0 82.5 35t32.5 88t-32.5 85.5t-82.5 32.5
q-51 0 -83.5 -32.5t-32.5 -85.5z" />
    <glyph glyph-name="uni1578" unicode="&#x1578;" horiz-adv-x="762" 
d="M62 250q0 73 31.5 130.5t84.5 90.5t115 33q44 0 81.5 -16.5t65.5 -46.5v259h114l175 -117v-180l-134 107v-234q0 -87 -33 -152.5t-92 -101.5t-139 -36q-81 0 -141.5 36t-94 96t-33.5 132zM215 249q0 -53 32.5 -88t83.5 -35q50 0 82.5 35t32.5 88t-32.5 85.5t-82.5 32.5
q-51 0 -83.5 -32.5t-32.5 -85.5zM431 878q0 36 24 60.5t63 24.5t63 -24.5t24 -60.5t-24 -60.5t-63 -24.5t-63 24.5t-24 60.5z" />
    <glyph glyph-name="uni1579" unicode="&#x1579;" horiz-adv-x="762" 
d="M167 276v234l-134 -107v180l174 117h114v-259q28 30 66 46.5t82 16.5q63 0 115.5 -33t84 -90.5t31.5 -130.5q0 -72 -34 -132t-94.5 -96t-140.5 -36q-79 0 -138.5 36t-92.5 101.5t-33 152.5zM316 249q0 -53 32.5 -88t82.5 -35q51 0 83.5 35t32.5 88t-32.5 85.5t-83.5 32.5
q-50 0 -82.5 -32.5t-32.5 -85.5z" />
    <glyph glyph-name="uni157A" unicode="&#x157a;" horiz-adv-x="762" 
d="M167 276v234l-134 -107v180l174 117h114v-259q28 30 66 46.5t82 16.5q63 0 115.5 -33t84 -90.5t31.5 -130.5q0 -72 -34 -132t-94.5 -96t-140.5 -36q-79 0 -138.5 36t-92.5 101.5t-33 152.5zM316 249q0 -53 32.5 -88t82.5 -35q51 0 83.5 35t32.5 88t-32.5 85.5t-83.5 32.5
q-50 0 -82.5 -32.5t-32.5 -85.5zM157 878q0 36 24 60.5t63 24.5t63 -24.5t24 -60.5t-24 -60.5t-63 -24.5t-63 24.5t-24 60.5z" />
    <glyph glyph-name="uni157B" unicode="&#x157b;" horiz-adv-x="554" 
d="M126 419v128l-106 -80v143l135 90h98v-155q17 19 43 30t55 11q44 0 79 -22t56 -62t21 -94q0 -52 -24.5 -94.5t-67.5 -68t-100 -25.5q-56 0 -99 26t-66.5 71t-23.5 102zM247 409q0 -31 19 -51t50 -20q30 0 49 20t19 51t-19 50.5t-49 19.5q-31 0 -50 -19.5t-19 -50.5z" />
    <glyph glyph-name="uni157C" unicode="&#x157c;" horiz-adv-x="750" 
d="M89 0v700h156v-274h261v274h156v-700h-156v282h-261v-282h-156z" />
    <glyph glyph-name="uni157D" unicode="&#x157d;" horiz-adv-x="507" 
d="M14 232l167 237l-153 231h159l69 -120l71 120h152l-153 -223l166 -245h-158l-84 135l-84 -135h-152z" />
    <glyph glyph-name="uni157E" unicode="&#x157e;" horiz-adv-x="1070" 
d="M47 523q0 49 22.5 89t65.5 64t102 24h119v-117h-114q-33 0 -49.5 -17t-16.5 -43t17 -43.5t49 -17.5h114v-230h-126v115q-89 5 -136 55.5t-47 120.5zM475 0v424q0 88 33 153t92.5 101t138.5 36q80 0 140.5 -36t94.5 -95.5t34 -132.5t-31.5 -130.5t-84 -90.5t-115.5 -33
q-44 0 -82 16.5t-66 46.5v-259h-154zM624 451q0 -52 32.5 -85t82.5 -33q51 0 83.5 33t32.5 85q0 53 -32.5 88t-83.5 35q-50 0 -82.5 -35t-32.5 -88zM619 883q0 46 34 77.5t86 31.5q53 0 86.5 -31.5t33.5 -77.5q0 -45 -33.5 -76.5t-86.5 -31.5q-52 0 -86 31.5t-34 76.5z
M699 883q0 -16 11 -27t29 -11t29 11t11 27q0 17 -11 28t-29 11t-29 -11t-11 -28z" />
    <glyph glyph-name="uni157F" unicode="&#x157f;" horiz-adv-x="1070" 
d="M47 523q0 49 22.5 89t65.5 64t102 24h119v-117h-114q-33 0 -49.5 -17t-16.5 -43t17 -43.5t49 -17.5h114v-230h-126v115q-89 5 -136 55.5t-47 120.5zM475 0v424q0 88 33 153t92.5 101t138.5 36q80 0 140.5 -36t94.5 -95.5t34 -132.5t-31.5 -130.5t-84 -90.5t-115.5 -33
q-44 0 -82 16.5t-66 46.5v-259h-154zM624 451q0 -52 32.5 -85t82.5 -33q51 0 83.5 33t32.5 85q0 53 -32.5 88t-83.5 35q-50 0 -82.5 -35t-32.5 -88z" />
    <glyph glyph-name="uni1580" unicode="&#x1580;" horiz-adv-x="1070" 
d="M47 523q0 49 22.5 89t65.5 64t102 24h119v-117h-114q-33 0 -49.5 -17t-16.5 -43t17 -43.5t49 -17.5h114v-230h-126v115q-89 5 -136 55.5t-47 120.5zM475 0v424q0 88 33 153t92.5 101t138.5 36q80 0 140.5 -36t94.5 -95.5t34 -132.5t-31.5 -130.5t-84 -90.5t-115.5 -33
q-44 0 -82 16.5t-66 46.5v-259h-154zM624 451q0 -52 32.5 -85t82.5 -33q51 0 83.5 33t32.5 85q0 53 -32.5 88t-83.5 35q-50 0 -82.5 -35t-32.5 -88zM652 878q0 36 24 60.5t63 24.5t63 -24.5t24 -60.5t-24 -60.5t-63 -24.5t-63 24.5t-24 60.5z" />
    <glyph glyph-name="uni1581" unicode="&#x1581;" horiz-adv-x="1061" 
d="M47 523q0 49 22.5 89t65.5 64t102 24h119v-117h-114q-33 0 -49.5 -17t-16.5 -43t17 -43.5t49 -17.5h114v-230h-126v115q-89 5 -136 55.5t-47 120.5zM444 250q0 73 31.5 130.5t84.5 90.5t115 33q44 0 81.5 -16.5t65.5 -46.5v259h155v-424q0 -87 -33 -152.5t-92 -101.5
t-139 -36q-81 0 -141.5 36t-94 96t-33.5 132zM597 249q0 -53 32.5 -88t83.5 -35q50 0 82.5 35t32.5 88t-32.5 85.5t-82.5 32.5q-51 0 -83.5 -32.5t-32.5 -85.5z" />
    <glyph glyph-name="uni1582" unicode="&#x1582;" horiz-adv-x="1061" 
d="M47 523q0 49 22.5 89t65.5 64t102 24h119v-117h-114q-33 0 -49.5 -17t-16.5 -43t17 -43.5t49 -17.5h114v-230h-126v115q-89 5 -136 55.5t-47 120.5zM444 250q0 73 31.5 130.5t84.5 90.5t115 33q44 0 81.5 -16.5t65.5 -46.5v259h155v-424q0 -87 -33 -152.5t-92 -101.5
t-139 -36q-81 0 -141.5 36t-94 96t-33.5 132zM597 249q0 -53 32.5 -88t83.5 -35q50 0 82.5 35t32.5 88t-32.5 85.5t-82.5 32.5q-51 0 -83.5 -32.5t-32.5 -85.5zM813 878q0 36 24 60.5t63 24.5t63 -24.5t24 -60.5t-24 -60.5t-63 -24.5t-63 24.5t-24 60.5z" />
    <glyph glyph-name="uni1583" unicode="&#x1583;" horiz-adv-x="1070" 
d="M47 523q0 49 22.5 89t65.5 64t102 24h119v-117h-114q-33 0 -49.5 -17t-16.5 -43t17 -43.5t49 -17.5h114v-230h-126v115q-89 5 -136 55.5t-47 120.5zM475 276v424h154v-259q28 30 66 46.5t82 16.5q63 0 115.5 -33t84 -90.5t31.5 -130.5q0 -72 -34 -132t-94.5 -96
t-140.5 -36q-79 0 -138.5 36t-92.5 101.5t-33 152.5zM624 249q0 -53 32.5 -88t82.5 -35q51 0 83.5 35t32.5 88t-32.5 85.5t-83.5 32.5q-50 0 -82.5 -32.5t-32.5 -85.5z" />
    <glyph glyph-name="uni1584" unicode="&#x1584;" horiz-adv-x="1070" 
d="M47 523q0 49 22.5 89t65.5 64t102 24h119v-117h-114q-33 0 -49.5 -17t-16.5 -43t17 -43.5t49 -17.5h114v-230h-126v115q-89 5 -136 55.5t-47 120.5zM475 276v424h154v-259q28 30 66 46.5t82 16.5q63 0 115.5 -33t84 -90.5t31.5 -130.5q0 -72 -34 -132t-94.5 -96
t-140.5 -36q-79 0 -138.5 36t-92.5 101.5t-33 152.5zM624 249q0 -53 32.5 -88t82.5 -35q51 0 83.5 35t32.5 88t-32.5 85.5t-83.5 32.5q-50 0 -82.5 -32.5t-32.5 -85.5zM465 878q0 36 24 60.5t63 24.5t63 -24.5t24 -60.5t-24 -60.5t-63 -24.5t-63 24.5t-24 60.5z" />
    <glyph glyph-name="uni1585" unicode="&#x1585;" horiz-adv-x="893" 
d="M47 523q0 49 22.5 89t65.5 64t102 24h119v-117h-114q-33 0 -49.5 -17t-16.5 -43t17 -43.5t49 -17.5h114v-230h-126v115q-89 5 -136 55.5t-47 120.5zM456 419v281h126v-157q37 43 99 43q44 0 79 -22t56 -62t21 -94q0 -52 -24.5 -94.5t-67.5 -68t-100 -25.5q-56 0 -99 26
t-66.5 71t-23.5 102zM577 409q0 -31 19 -51t49 -20q31 0 50 20t19 51t-19 50.5t-50 19.5q-30 0 -49 -19.5t-19 -50.5z" />
    <glyph glyph-name="uni158E" unicode="&#x158e;" horiz-adv-x="1349" 
d="M332 313v105h-116q-54 0 -92 21t-57.5 54t-19.5 70q0 42 20 75.5t54.5 53t76.5 19.5q63 0 103.5 -35t40.5 -90q0 -19 -5.5 -35.5t-18.5 -30.5h119v-109q29 26 72 26q50 0 87 -38t37 -101q0 -64 -41.5 -105.5t-109.5 -41.5q-67 0 -108.5 45t-41.5 117zM151 563
q0 -21 14 -34.5t33 -13.5q20 0 34 13.5t14 34.5q0 22 -14 35.5t-34 13.5q-19 0 -33 -13.5t-14 -35.5zM434 298q0 -21 14 -34.5t34 -13.5t33.5 13.5t13.5 34.5t-13.5 34.5t-33.5 13.5t-34 -13.5t-14 -34.5zM740 0v443q0 81 32.5 142t93.5 95t146 34q86 0 147 -34t93.5 -95
t32.5 -142v-108h-155v89q0 71 -31.5 106.5t-86.5 35.5q-54 0 -86 -35.5t-32 -106.5v-424h-154zM892 883q0 46 34 77.5t86 31.5q53 0 86.5 -31.5t33.5 -77.5q0 -45 -33.5 -76.5t-86.5 -31.5q-52 0 -86 31.5t-34 76.5zM972 883q0 -16 11 -27t29 -11t29 11t11 27q0 17 -11 28
t-29 11t-29 -11t-11 -28z" />
    <glyph glyph-name="uni158E.vut" horiz-adv-x="1364" 
d="M354 369v49h-138q-54 0 -92 21t-57.5 54t-19.5 70q0 42 20 75.5t54.5 53t76.5 19.5q63 0 103.5 -35t40.5 -90q0 -19 -5.5 -35.5t-18.5 -30.5h139v-145q0 -55 46 -55t46 55v43h104v-49q0 -67 -41.5 -108t-108.5 -41q-65 0 -107 41t-42 108zM151 563q0 -21 14 -34.5
t33 -13.5q20 0 34 13.5t14 34.5q0 22 -14 35.5t-34 13.5q-19 0 -33 -13.5t-14 -35.5zM755 0v443q0 81 32.5 142t93.5 95t146 34q86 0 147 -34t93.5 -95t32.5 -142v-108h-155v89q0 71 -31.5 106.5t-86.5 35.5q-54 0 -86 -35.5t-32 -106.5v-424h-154zM908 883q0 46 34 77.5
t86 31.5q53 0 86.5 -31.5t33.5 -77.5q0 -45 -33.5 -76.5t-86.5 -31.5q-52 0 -86 31.5t-34 76.5zM988 883q0 -16 11 -27t29 -11t29 11t11 27q0 17 -11 28t-29 11t-29 -11t-11 -28z" />
    <glyph glyph-name="uni158F" unicode="&#x158f;" horiz-adv-x="1349" 
d="M332 313v105h-116q-54 0 -92 21t-57.5 54t-19.5 70q0 42 20 75.5t54.5 53t76.5 19.5q63 0 103.5 -35t40.5 -90q0 -19 -5.5 -35.5t-18.5 -30.5h119v-109q29 26 72 26q50 0 87 -38t37 -101q0 -64 -41.5 -105.5t-109.5 -41.5q-67 0 -108.5 45t-41.5 117zM151 563
q0 -21 14 -34.5t33 -13.5q20 0 34 13.5t14 34.5q0 22 -14 35.5t-34 13.5q-19 0 -33 -13.5t-14 -35.5zM434 298q0 -21 14 -34.5t34 -13.5t33.5 13.5t13.5 34.5t-13.5 34.5t-33.5 13.5t-34 -13.5t-14 -34.5zM740 0v443q0 81 32.5 142t93.5 95t146 34q86 0 147 -34t93.5 -95
t32.5 -142v-108h-155v89q0 71 -31.5 106.5t-86.5 35.5q-54 0 -86 -35.5t-32 -106.5v-424h-154z" />
    <glyph glyph-name="uni158F.vut" horiz-adv-x="1364" 
d="M354 369v49h-138q-54 0 -92 21t-57.5 54t-19.5 70q0 42 20 75.5t54.5 53t76.5 19.5q63 0 103.5 -35t40.5 -90q0 -19 -5.5 -35.5t-18.5 -30.5h139v-145q0 -55 46 -55t46 55v43h104v-49q0 -67 -41.5 -108t-108.5 -41q-65 0 -107 41t-42 108zM151 563q0 -21 14 -34.5
t33 -13.5q20 0 34 13.5t14 34.5q0 22 -14 35.5t-34 13.5q-19 0 -33 -13.5t-14 -35.5zM755 0v443q0 81 32.5 142t93.5 95t146 34q86 0 147 -34t93.5 -95t32.5 -142v-108h-155v89q0 71 -31.5 106.5t-86.5 35.5q-54 0 -86 -35.5t-32 -106.5v-424h-154z" />
    <glyph glyph-name="uni1590" unicode="&#x1590;" horiz-adv-x="1349" 
d="M332 313v105h-116q-54 0 -92 21t-57.5 54t-19.5 70q0 42 20 75.5t54.5 53t76.5 19.5q63 0 103.5 -35t40.5 -90q0 -19 -5.5 -35.5t-18.5 -30.5h119v-109q29 26 72 26q50 0 87 -38t37 -101q0 -64 -41.5 -105.5t-109.5 -41.5q-67 0 -108.5 45t-41.5 117zM151 563
q0 -21 14 -34.5t33 -13.5q20 0 34 13.5t14 34.5q0 22 -14 35.5t-34 13.5q-19 0 -33 -13.5t-14 -35.5zM434 298q0 -21 14 -34.5t34 -13.5t33.5 13.5t13.5 34.5t-13.5 34.5t-33.5 13.5t-34 -13.5t-14 -34.5zM740 0v443q0 81 32.5 142t93.5 95t146 34q86 0 147 -34t93.5 -95
t32.5 -142v-108h-155v89q0 71 -31.5 106.5t-86.5 35.5q-54 0 -86 -35.5t-32 -106.5v-424h-154zM925 878q0 36 24 60.5t63 24.5t63 -24.5t24 -60.5t-24 -60.5t-63 -24.5t-63 24.5t-24 60.5z" />
    <glyph glyph-name="uni1590.vut" horiz-adv-x="1364" 
d="M354 369v49h-138q-54 0 -92 21t-57.5 54t-19.5 70q0 42 20 75.5t54.5 53t76.5 19.5q63 0 103.5 -35t40.5 -90q0 -19 -5.5 -35.5t-18.5 -30.5h139v-145q0 -55 46 -55t46 55v43h104v-49q0 -67 -41.5 -108t-108.5 -41q-65 0 -107 41t-42 108zM151 563q0 -21 14 -34.5
t33 -13.5q20 0 34 13.5t14 34.5q0 22 -14 35.5t-34 13.5q-19 0 -33 -13.5t-14 -35.5zM755 0v443q0 81 32.5 142t93.5 95t146 34q86 0 147 -34t93.5 -95t32.5 -142v-108h-155v89q0 71 -31.5 106.5t-86.5 35.5q-54 0 -86 -35.5t-32 -106.5v-424h-154zM941 878q0 36 24 60.5
t63 24.5t63 -24.5t24 -60.5t-24 -60.5t-63 -24.5t-63 24.5t-24 60.5z" />
    <glyph glyph-name="uni1591" unicode="&#x1591;" horiz-adv-x="1332" 
d="M332 313v105h-116q-54 0 -92 21t-57.5 54t-19.5 70q0 42 20 75.5t54.5 53t76.5 19.5q63 0 103.5 -35t40.5 -90q0 -19 -5.5 -35.5t-18.5 -30.5h119v-109q29 26 72 26q50 0 87 -38t37 -101q0 -64 -41.5 -105.5t-109.5 -41.5q-67 0 -108.5 45t-41.5 117zM151 563
q0 -21 14 -34.5t33 -13.5q20 0 34 13.5t14 34.5q0 22 -14 35.5t-34 13.5q-19 0 -33 -13.5t-14 -35.5zM434 298q0 -21 14 -34.5t34 -13.5t33.5 13.5t13.5 34.5t-13.5 34.5t-33.5 13.5t-34 -13.5t-14 -34.5zM703 257v108h154v-89q0 -70 32 -106t86 -36q55 0 86.5 36t31.5 106
v424h155v-443q0 -81 -32.5 -142t-93.5 -95t-147 -34q-85 0 -146 34t-93.5 95t-32.5 142z" />
    <glyph glyph-name="uni1591.vut" horiz-adv-x="1347" 
d="M354 369v49h-138q-54 0 -92 21t-57.5 54t-19.5 70q0 42 20 75.5t54.5 53t76.5 19.5q63 0 103.5 -35t40.5 -90q0 -19 -5.5 -35.5t-18.5 -30.5h139v-145q0 -55 46 -55t46 55v43h104v-49q0 -67 -41.5 -108t-108.5 -41q-65 0 -107 41t-42 108zM151 563q0 -21 14 -34.5
t33 -13.5q20 0 34 13.5t14 34.5q0 22 -14 35.5t-34 13.5q-19 0 -33 -13.5t-14 -35.5zM718 257v108h154v-89q0 -70 32 -106t86 -36q55 0 86.5 36t31.5 106v424h155v-443q0 -81 -32.5 -142t-93.5 -95t-147 -34q-85 0 -146 34t-93.5 95t-32.5 142z" />
    <glyph glyph-name="uni1592" unicode="&#x1592;" horiz-adv-x="1332" 
d="M332 313v105h-116q-54 0 -92 21t-57.5 54t-19.5 70q0 42 20 75.5t54.5 53t76.5 19.5q63 0 103.5 -35t40.5 -90q0 -19 -5.5 -35.5t-18.5 -30.5h119v-109q29 26 72 26q50 0 87 -38t37 -101q0 -64 -41.5 -105.5t-109.5 -41.5q-67 0 -108.5 45t-41.5 117zM151 563
q0 -21 14 -34.5t33 -13.5q20 0 34 13.5t14 34.5q0 22 -14 35.5t-34 13.5q-19 0 -33 -13.5t-14 -35.5zM434 298q0 -21 14 -34.5t34 -13.5t33.5 13.5t13.5 34.5t-13.5 34.5t-33.5 13.5t-34 -13.5t-14 -34.5zM703 257v108h154v-89q0 -70 32 -106t86 -36q55 0 86.5 36t31.5 106
v424h155v-443q0 -81 -32.5 -142t-93.5 -95t-147 -34q-85 0 -146 34t-93.5 95t-32.5 142zM1084 878q0 36 24 60.5t63 24.5t63 -24.5t24 -60.5t-24 -60.5t-63 -24.5t-63 24.5t-24 60.5z" />
    <glyph glyph-name="uni1592.vut" horiz-adv-x="1347" 
d="M354 369v49h-138q-54 0 -92 21t-57.5 54t-19.5 70q0 42 20 75.5t54.5 53t76.5 19.5q63 0 103.5 -35t40.5 -90q0 -19 -5.5 -35.5t-18.5 -30.5h139v-145q0 -55 46 -55t46 55v43h104v-49q0 -67 -41.5 -108t-108.5 -41q-65 0 -107 41t-42 108zM151 563q0 -21 14 -34.5
t33 -13.5q20 0 34 13.5t14 34.5q0 22 -14 35.5t-34 13.5q-19 0 -33 -13.5t-14 -35.5zM718 257v108h154v-89q0 -70 32 -106t86 -36q55 0 86.5 36t31.5 106v424h155v-443q0 -81 -32.5 -142t-93.5 -95t-147 -34q-85 0 -146 34t-93.5 95t-32.5 142zM1100 878q0 36 24 60.5
t63 24.5t63 -24.5t24 -60.5t-24 -60.5t-63 -24.5t-63 24.5t-24 60.5z" />
    <glyph glyph-name="uni1593" unicode="&#x1593;" horiz-adv-x="1332" 
d="M332 313v105h-116q-54 0 -92 21t-57.5 54t-19.5 70q0 42 20 75.5t54.5 53t76.5 19.5q63 0 103.5 -35t40.5 -90q0 -19 -5.5 -35.5t-18.5 -30.5h119v-109q29 26 72 26q50 0 87 -38t37 -101q0 -64 -41.5 -105.5t-109.5 -41.5q-67 0 -108.5 45t-41.5 117zM151 563
q0 -21 14 -34.5t33 -13.5q20 0 34 13.5t14 34.5q0 22 -14 35.5t-34 13.5q-19 0 -33 -13.5t-14 -35.5zM434 298q0 -21 14 -34.5t34 -13.5t33.5 13.5t13.5 34.5t-13.5 34.5t-33.5 13.5t-34 -13.5t-14 -34.5zM723 257v443h154v-424q0 -70 32 -106t86 -36q55 0 86.5 36t31.5 106
v89h155v-108q0 -81 -32.5 -142t-93.5 -95t-147 -34q-85 0 -146 34t-93.5 95t-32.5 142z" />
    <glyph glyph-name="uni1593.vut" horiz-adv-x="1347" 
d="M354 369v49h-138q-54 0 -92 21t-57.5 54t-19.5 70q0 42 20 75.5t54.5 53t76.5 19.5q63 0 103.5 -35t40.5 -90q0 -19 -5.5 -35.5t-18.5 -30.5h139v-145q0 -55 46 -55t46 55v43h104v-49q0 -67 -41.5 -108t-108.5 -41q-65 0 -107 41t-42 108zM151 563q0 -21 14 -34.5
t33 -13.5q20 0 34 13.5t14 34.5q0 22 -14 35.5t-34 13.5q-19 0 -33 -13.5t-14 -35.5zM738 257v443h154v-424q0 -70 32 -106t86 -36q55 0 86.5 36t31.5 106v89h155v-108q0 -81 -32.5 -142t-93.5 -95t-147 -34q-85 0 -146 34t-93.5 95t-32.5 142z" />
    <glyph glyph-name="uni1594" unicode="&#x1594;" horiz-adv-x="1332" 
d="M332 313v105h-116q-54 0 -92 21t-57.5 54t-19.5 70q0 42 20 75.5t54.5 53t76.5 19.5q63 0 103.5 -35t40.5 -90q0 -19 -5.5 -35.5t-18.5 -30.5h119v-109q29 26 72 26q50 0 87 -38t37 -101q0 -64 -41.5 -105.5t-109.5 -41.5q-67 0 -108.5 45t-41.5 117zM151 563
q0 -21 14 -34.5t33 -13.5q20 0 34 13.5t14 34.5q0 22 -14 35.5t-34 13.5q-19 0 -33 -13.5t-14 -35.5zM434 298q0 -21 14 -34.5t34 -13.5t33.5 13.5t13.5 34.5t-13.5 34.5t-33.5 13.5t-34 -13.5t-14 -34.5zM723 257v443h154v-424q0 -70 32 -106t86 -36q55 0 86.5 36t31.5 106
v89h155v-108q0 -81 -32.5 -142t-93.5 -95t-147 -34q-85 0 -146 34t-93.5 95t-32.5 142zM712 878q0 36 24 60.5t63 24.5t63 -24.5t24 -60.5t-24 -60.5t-63 -24.5t-63 24.5t-24 60.5z" />
    <glyph glyph-name="uni1594.vut" horiz-adv-x="1347" 
d="M354 369v49h-138q-54 0 -92 21t-57.5 54t-19.5 70q0 42 20 75.5t54.5 53t76.5 19.5q63 0 103.5 -35t40.5 -90q0 -19 -5.5 -35.5t-18.5 -30.5h139v-145q0 -55 46 -55t46 55v43h104v-49q0 -67 -41.5 -108t-108.5 -41q-65 0 -107 41t-42 108zM151 563q0 -21 14 -34.5
t33 -13.5q20 0 34 13.5t14 34.5q0 22 -14 35.5t-34 13.5q-19 0 -33 -13.5t-14 -35.5zM738 257v443h154v-424q0 -70 32 -106t86 -36q55 0 86.5 36t31.5 106v89h155v-108q0 -81 -32.5 -142t-93.5 -95t-147 -34q-85 0 -146 34t-93.5 95t-32.5 142zM728 878q0 36 24 60.5
t63 24.5t63 -24.5t24 -60.5t-24 -60.5t-63 -24.5t-63 24.5t-24 60.5z" />
    <glyph glyph-name="uni1595" unicode="&#x1595;" horiz-adv-x="678" 
d="M332 313v105h-116q-54 0 -92 21t-57.5 54t-19.5 70q0 42 20 75.5t54.5 53t76.5 19.5q63 0 103.5 -35t40.5 -90q0 -19 -5.5 -35.5t-18.5 -30.5h119v-109q29 26 72 26q50 0 87 -38t37 -101q0 -64 -41.5 -105.5t-109.5 -41.5q-67 0 -108.5 45t-41.5 117zM151 563
q0 -21 14 -34.5t33 -13.5q20 0 34 13.5t14 34.5q0 22 -14 35.5t-34 13.5q-19 0 -33 -13.5t-14 -35.5zM434 298q0 -21 14 -34.5t34 -13.5t33.5 13.5t13.5 34.5t-13.5 34.5t-33.5 13.5t-34 -13.5t-14 -34.5z" />
    <glyph glyph-name="uni1595.vut" horiz-adv-x="694" 
d="M354 369v49h-138q-54 0 -92 21t-57.5 54t-19.5 70q0 42 20 75.5t54.5 53t76.5 19.5q63 0 103.5 -35t40.5 -90q0 -19 -5.5 -35.5t-18.5 -30.5h139v-145q0 -55 46 -55t46 55v43h104v-49q0 -67 -41.5 -108t-108.5 -41q-65 0 -107 41t-42 108zM151 563q0 -21 14 -34.5
t33 -13.5q20 0 34 13.5t14 34.5q0 22 -14 35.5t-34 13.5q-19 0 -33 -13.5t-14 -35.5z" />
    <glyph glyph-name="uni1596" unicode="&#x1596;" horiz-adv-x="1002" 
d="M47 563q0 42 20 75.5t54.5 53t76.5 19.5q63 0 103.5 -35t40.5 -90q0 -19 -5.5 -35.5t-18.5 -30.5h76q-13 14 -18.5 30.5t-5.5 35.5q0 55 40.5 90t103.5 35q62 0 102.5 -35t40.5 -90q0 -19 -5.5 -35.5t-18.5 -30.5h133v-145q0 -55 45 -55q46 0 46 55v43h105v-49
q0 -67 -42 -108t-109 -41q-65 0 -107 41t-42 108v49h-446q-54 0 -92 21t-57.5 54t-19.5 70zM151 563q0 -21 14 -34.5t33 -13.5q20 0 34 13.5t14 34.5q0 22 -14 35.5t-34 13.5q-19 0 -33 -13.5t-14 -35.5zM466 563q0 -21 14 -34.5t34 -13.5t33.5 13.5t13.5 34.5
q0 22 -13.5 35.5t-33.5 13.5t-34 -13.5t-14 -35.5z" />
    <glyph glyph-name="uni15A0" unicode="&#x15a0;" horiz-adv-x="754" 
d="M62 245q0 68 31.5 123.5t91.5 88.5t147 33h208l-113 144h180l117 -174v-114h-386q-59 0 -88 -28.5t-29 -72.5q0 -43 29.5 -72t87.5 -29h94v-144h-100q-87 0 -147 33t-91.5 88.5t-31.5 123.5z" />
    <glyph glyph-name="uni15A1" unicode="&#x15a1;" horiz-adv-x="754" 
d="M62 245q0 68 31.5 123.5t91.5 88.5t147 33h208l-113 144h180l117 -174v-114h-386q-59 0 -88 -28.5t-29 -72.5q0 -43 29.5 -72t87.5 -29h94v-144h-100q-87 0 -147 33t-91.5 88.5t-31.5 123.5zM409 812q0 36 24 60.5t63 24.5t63 -24.5t24 -60.5t-24 -60.5t-63 -24.5
t-63 24.5t-24 60.5z" />
    <glyph glyph-name="uni15A2" unicode="&#x15a2;" horiz-adv-x="754" 
d="M30 30v114h387q59 0 87.5 29t28.5 72q0 44 -29.5 72.5t-86.5 28.5h-94v144h99q88 0 148 -33t91 -88.5t31 -123.5t-31 -123.5t-91 -88.5t-148 -33h-207l112 -144h-180z" />
    <glyph glyph-name="uni15A3" unicode="&#x15a3;" horiz-adv-x="754" 
d="M30 30v114h387q59 0 87.5 29t28.5 72q0 44 -29.5 72.5t-86.5 28.5h-94v144h99q88 0 148 -33t91 -88.5t31 -123.5t-31 -123.5t-91 -88.5t-148 -33h-207l112 -144h-180zM295 668q0 36 24 60.5t63 24.5t63 -24.5t24 -60.5t-24 -60.5t-63 -24.5t-63 24.5t-24 60.5z" />
    <glyph glyph-name="uni15A4" unicode="&#x15a4;" horiz-adv-x="754" 
d="M62 245q0 68 31.5 123.5t91.5 88.5t147 33h100v-144h-94q-58 0 -87.5 -28.5t-29.5 -72.5q0 -43 29 -72t88 -29h386v-114l-117 -174h-180l113 144h-208q-87 0 -147 33t-91.5 88.5t-31.5 123.5z" />
    <glyph glyph-name="uni15A5" unicode="&#x15a5;" horiz-adv-x="754" 
d="M62 245q0 68 31.5 123.5t91.5 88.5t147 33h100v-144h-94q-58 0 -87.5 -28.5t-29.5 -72.5q0 -43 29 -72t88 -29h386v-114l-117 -174h-180l113 144h-208q-87 0 -147 33t-91.5 88.5t-31.5 123.5zM285 668q0 36 24 60.5t63 24.5t63 -24.5t24 -60.5t-24 -60.5t-63 -24.5
t-63 24.5t-24 60.5z" />
    <glyph glyph-name="uni15A6" unicode="&#x15a6;" horiz-adv-x="514" 
d="M264 224l86 115h-108q-62 0 -106 24t-66.5 65.5t-22.5 91.5t22.5 91t66.5 65t106 24h59v-118h-54q-35 0 -52.5 -18.5t-17.5 -43.5t17 -44t53 -19h249v-98l-89 -135h-143z" />
    <glyph glyph-name="uni166D" unicode="&#x166d;" horiz-adv-x="690" 
d="M14 0l243 355l-230 345h186l138 -213l131 213h180l-229 -338l243 -362h-187l-151 231l-144 -231h-180z" />
    <glyph glyph-name="uni166F" unicode="&#x166f;" horiz-adv-x="1065" 
d="M47 523q0 49 22.5 89t65.5 64t102 24h119v-117h-114q-33 0 -49.5 -17t-16.5 -43t17 -43.5t49 -17.5h114v-230h-126v115q-89 5 -136 55.5t-47 120.5zM448 450q0 73 33.5 132.5t94 95.5t141.5 36q80 0 139 -36t92 -101t33 -153v-424h-155v259q-28 -30 -65.5 -46.5
t-81.5 -16.5q-62 0 -115 33t-84.5 90.5t-31.5 130.5zM601 451q0 -52 32.5 -85t83.5 -33q50 0 82.5 33t32.5 85q0 53 -32.5 88t-82.5 35q-51 0 -83.5 -35t-32.5 -88z" />
    <glyph glyph-name="uni1670" unicode="&#x1670;" horiz-adv-x="1344" 
d="M715 335v108q0 81 32.5 142t93.5 95t146 34q86 0 147 -34t93.5 -95t32.5 -142v-443h-155v424q0 71 -31.5 106.5t-86.5 35.5q-54 0 -86 -35.5t-32 -106.5v-89h-154zM332 313v105h-116q-54 0 -92 21t-57.5 54t-19.5 70q0 42 20 75.5t54.5 53t76.5 19.5q63 0 103.5 -35
t40.5 -90q0 -19 -5.5 -35.5t-18.5 -30.5h119v-109q29 26 72 26q50 0 87 -38t37 -101q0 -64 -41.5 -105.5t-109.5 -41.5q-67 0 -108.5 45t-41.5 117zM151 563q0 -21 14 -34.5t33 -13.5q20 0 34 13.5t14 34.5q0 22 -14 35.5t-34 13.5q-19 0 -33 -13.5t-14 -35.5zM434 298
q0 -21 14 -34.5t34 -13.5t33.5 13.5t13.5 34.5t-13.5 34.5t-33.5 13.5t-34 -13.5t-14 -34.5z" />
    <glyph glyph-name="uni1670.vut" horiz-adv-x="1344" 
d="M715 335v108q0 81 32.5 142t93.5 95t146 34q86 0 147 -34t93.5 -95t32.5 -142v-443h-155v424q0 71 -31.5 106.5t-86.5 35.5q-54 0 -86 -35.5t-32 -106.5v-89h-154zM344 369v49h-138q-54 0 -92 21t-57.5 54t-19.5 70q0 42 20 75.5t54.5 53t76.5 19.5q63 0 103.5 -35
t40.5 -90q0 -19 -5.5 -35.5t-18.5 -30.5h139v-145q0 -55 46 -55t46 55v43h104v-49q0 -67 -41.5 -108t-108.5 -41q-65 0 -107 41t-42 108zM141 563q0 -21 14 -34.5t33 -13.5q20 0 34 13.5t14 34.5q0 22 -14 35.5t-34 13.5q-19 0 -33 -13.5t-14 -35.5z" />
    <glyph glyph-name="uni1671" unicode="&#x1671;" horiz-adv-x="1660" 
d="M47 563q0 42 20 75.5t54.5 53t76.5 19.5q63 0 103.5 -35t40.5 -90q0 -19 -5.5 -35.5t-18.5 -30.5h76q-13 14 -18.5 30.5t-5.5 35.5q0 55 40.5 90t103.5 35q62 0 102.5 -35t40.5 -90q0 -19 -5.5 -35.5t-18.5 -30.5h133v-145q0 -55 45 -55q46 0 46 55v43h105v-49
q0 -67 -42 -108t-109 -41q-65 0 -107 41t-42 108v49h-446q-54 0 -92 21t-57.5 54t-19.5 70zM151 563q0 -21 14 -34.5t33 -13.5q20 0 34 13.5t14 34.5q0 22 -14 35.5t-34 13.5q-19 0 -33 -13.5t-14 -35.5zM466 563q0 -21 14 -34.5t34 -13.5t33.5 13.5t13.5 34.5
q0 22 -13.5 35.5t-33.5 13.5t-34 -13.5t-14 -35.5zM1051 0v443q0 81 32.5 142t93.5 95t146 34q86 0 147 -34t93.5 -95t32.5 -142v-108h-155v89q0 71 -31.5 106.5t-86.5 35.5q-54 0 -86 -35.5t-32 -106.5v-424h-154z" />
    <glyph glyph-name="uni1672" unicode="&#x1672;" horiz-adv-x="1660" 
d="M47 563q0 42 20 75.5t54.5 53t76.5 19.5q63 0 103.5 -35t40.5 -90q0 -19 -5.5 -35.5t-18.5 -30.5h76q-13 14 -18.5 30.5t-5.5 35.5q0 55 40.5 90t103.5 35q62 0 102.5 -35t40.5 -90q0 -19 -5.5 -35.5t-18.5 -30.5h133v-145q0 -55 45 -55q46 0 46 55v43h105v-49
q0 -67 -42 -108t-109 -41q-65 0 -107 41t-42 108v49h-446q-54 0 -92 21t-57.5 54t-19.5 70zM151 563q0 -21 14 -34.5t33 -13.5q20 0 34 13.5t14 34.5q0 22 -14 35.5t-34 13.5q-19 0 -33 -13.5t-14 -35.5zM466 563q0 -21 14 -34.5t34 -13.5t33.5 13.5t13.5 34.5
q0 22 -13.5 35.5t-33.5 13.5t-34 -13.5t-14 -35.5zM1051 0v443q0 81 32.5 142t93.5 95t146 34q86 0 147 -34t93.5 -95t32.5 -142v-108h-155v89q0 71 -31.5 106.5t-86.5 35.5q-54 0 -86 -35.5t-32 -106.5v-424h-154zM1237 878q0 36 24 60.5t63 24.5t63 -24.5t24 -60.5
t-24 -60.5t-63 -24.5t-63 24.5t-24 60.5z" />
    <glyph glyph-name="uni1673" unicode="&#x1673;" horiz-adv-x="1660" 
d="M47 563q0 42 20 75.5t54.5 53t76.5 19.5q63 0 103.5 -35t40.5 -90q0 -19 -5.5 -35.5t-18.5 -30.5h76q-13 14 -18.5 30.5t-5.5 35.5q0 55 40.5 90t103.5 35q62 0 102.5 -35t40.5 -90q0 -19 -5.5 -35.5t-18.5 -30.5h133v-145q0 -55 45 -55q46 0 46 55v43h105v-49
q0 -67 -42 -108t-109 -41q-65 0 -107 41t-42 108v49h-446q-54 0 -92 21t-57.5 54t-19.5 70zM151 563q0 -21 14 -34.5t33 -13.5q20 0 34 13.5t14 34.5q0 22 -14 35.5t-34 13.5q-19 0 -33 -13.5t-14 -35.5zM466 563q0 -21 14 -34.5t34 -13.5t33.5 13.5t13.5 34.5
q0 22 -13.5 35.5t-33.5 13.5t-34 -13.5t-14 -35.5zM1031 257v108h154v-89q0 -70 32 -106t86 -36q55 0 86.5 36t31.5 106v424h155v-443q0 -81 -32.5 -142t-93.5 -95t-147 -34q-85 0 -146 34t-93.5 95t-32.5 142z" />
    <glyph glyph-name="uni1674" unicode="&#x1674;" horiz-adv-x="1660" 
d="M47 563q0 42 20 75.5t54.5 53t76.5 19.5q63 0 103.5 -35t40.5 -90q0 -19 -5.5 -35.5t-18.5 -30.5h76q-13 14 -18.5 30.5t-5.5 35.5q0 55 40.5 90t103.5 35q62 0 102.5 -35t40.5 -90q0 -19 -5.5 -35.5t-18.5 -30.5h133v-145q0 -55 45 -55q46 0 46 55v43h105v-49
q0 -67 -42 -108t-109 -41q-65 0 -107 41t-42 108v49h-446q-54 0 -92 21t-57.5 54t-19.5 70zM151 563q0 -21 14 -34.5t33 -13.5q20 0 34 13.5t14 34.5q0 22 -14 35.5t-34 13.5q-19 0 -33 -13.5t-14 -35.5zM466 563q0 -21 14 -34.5t34 -13.5t33.5 13.5t13.5 34.5
q0 22 -13.5 35.5t-33.5 13.5t-34 -13.5t-14 -35.5zM1031 257v108h154v-89q0 -70 32 -106t86 -36q55 0 86.5 36t31.5 106v424h155v-443q0 -81 -32.5 -142t-93.5 -95t-147 -34q-85 0 -146 34t-93.5 95t-32.5 142zM1412 878q0 36 24 60.5t63 24.5t63 -24.5t24 -60.5t-24 -60.5
t-63 -24.5t-63 24.5t-24 60.5z" />
    <glyph glyph-name="uni1675" unicode="&#x1675;" horiz-adv-x="1660" 
d="M47 563q0 42 20 75.5t54.5 53t76.5 19.5q63 0 103.5 -35t40.5 -90q0 -19 -5.5 -35.5t-18.5 -30.5h76q-13 14 -18.5 30.5t-5.5 35.5q0 55 40.5 90t103.5 35q62 0 102.5 -35t40.5 -90q0 -19 -5.5 -35.5t-18.5 -30.5h133v-145q0 -55 45 -55q46 0 46 55v43h105v-49
q0 -67 -42 -108t-109 -41q-65 0 -107 41t-42 108v49h-446q-54 0 -92 21t-57.5 54t-19.5 70zM151 563q0 -21 14 -34.5t33 -13.5q20 0 34 13.5t14 34.5q0 22 -14 35.5t-34 13.5q-19 0 -33 -13.5t-14 -35.5zM466 563q0 -21 14 -34.5t34 -13.5t33.5 13.5t13.5 34.5
q0 22 -13.5 35.5t-33.5 13.5t-34 -13.5t-14 -35.5zM1051 257v443h154v-424q0 -70 32 -106t86 -36q55 0 86.5 36t31.5 106v89h155v-108q0 -81 -32.5 -142t-93.5 -95t-147 -34q-85 0 -146 34t-93.5 95t-32.5 142z" />
    <glyph glyph-name="uni1676" unicode="&#x1676;" horiz-adv-x="1660" 
d="M47 563q0 42 20 75.5t54.5 53t76.5 19.5q63 0 103.5 -35t40.5 -90q0 -19 -5.5 -35.5t-18.5 -30.5h76q-13 14 -18.5 30.5t-5.5 35.5q0 55 40.5 90t103.5 35q62 0 102.5 -35t40.5 -90q0 -19 -5.5 -35.5t-18.5 -30.5h133v-145q0 -55 45 -55q46 0 46 55v43h105v-49
q0 -67 -42 -108t-109 -41q-65 0 -107 41t-42 108v49h-446q-54 0 -92 21t-57.5 54t-19.5 70zM151 563q0 -21 14 -34.5t33 -13.5q20 0 34 13.5t14 34.5q0 22 -14 35.5t-34 13.5q-19 0 -33 -13.5t-14 -35.5zM466 563q0 -21 14 -34.5t34 -13.5t33.5 13.5t13.5 34.5
q0 22 -13.5 35.5t-33.5 13.5t-34 -13.5t-14 -35.5zM1051 257v443h154v-424q0 -70 32 -106t86 -36q55 0 86.5 36t31.5 106v89h155v-108q0 -81 -32.5 -142t-93.5 -95t-147 -34q-85 0 -146 34t-93.5 95t-32.5 142zM1041 878q0 36 24 60.5t63 24.5t63 -24.5t24 -60.5t-24 -60.5
t-63 -24.5t-63 24.5t-24 60.5z" />
    <glyph glyph-name="sylring" 
d="M210 883q0 46 34 77.5t86 31.5q53 0 86.5 -31.5t33.5 -77.5q0 -45 -33.5 -76.5t-86.5 -31.5q-52 0 -86 31.5t-34 76.5zM290 883q0 -16 11 -27t29 -11t29 11t11 27q0 17 -11 28t-29 11t-29 -11t-11 -28z" />
    <glyph glyph-name="syldotaccent" 
d="M243 878q0 36 24 60.5t63 24.5t63 -24.5t24 -60.5t-24 -60.5t-63 -24.5t-63 24.5t-24 60.5z" />
    <glyph glyph-name="uni00B4" unicode="&#xb4;" 
d="M280 606l68 170h141l-108 -170h-101z" />
    <glyph glyph-name="uni02D8" unicode="&#x2d8;" 
d="M169 768h100q9 -69 61 -69t61 69h100q-7 -85 -48.5 -127.5t-112.5 -42.5q-70 0 -111.5 42.5t-49.5 127.5z" />
    <glyph glyph-name="uni02C7" unicode="&#x2c7;" 
d="M166 768h102l62 -74l62 74h102l-111 -170h-106z" />
    <glyph glyph-name="uni02C7.alt" 
d="M332 730h137l-57 -309h-103z" />
    <glyph glyph-name="uni00B8" unicode="&#xb8;" horiz-adv-x="601" 
d="M239 -152l19 57q20 -7 39 -7q26 0 26 13q0 6 -9.5 12t-41.5 10l28 85l65 -14l-9 -40q35 -4 54.5 -23t19.5 -42q0 -27 -27 -45t-80 -18q-23 0 -45 3.5t-39 8.5z" />
    <glyph glyph-name="uni02C6" unicode="&#x2c6;" 
d="M166 606l111 170h106l111 -170h-102l-62 73l-62 -73h-102z" />
    <glyph glyph-name="commaaccent" 
d="M240 -157q0 35 25 60t65 25q41 0 66 -25.5t25 -67.5q0 -23 -10 -53t-25 -60t-31 -53h-97q12 21 22.5 46.5t15.5 47.5q-24 8 -40 29.5t-16 50.5z" />
    <glyph glyph-name="commaaccent.alt" 
d="M420 688q0 -35 -24.5 -60t-65.5 -25q-40 0 -65.5 25t-25.5 68q0 23 10 53t25 60t31 52h97q-12 -20 -22.5 -45.5t-15.5 -48.5q24 -7 40 -28.5t16 -50.5z" />
    <glyph glyph-name="uni00A8" unicode="&#xa8;" 
d="M152 683q0 29 20 49t51 20t51 -20t20 -49q0 -30 -20 -50t-51 -20t-51 20t-20 50zM366 683q0 29 20 49t51 20t51 -20t20 -49q0 -30 -20 -50t-51 -20t-51 20t-20 50z" />
    <glyph glyph-name="uni02D9" unicode="&#x2d9;" 
d="M240 690q0 37 25 62.5t65 25.5q41 0 65.5 -25.5t24.5 -62.5q0 -36 -24.5 -61.5t-65.5 -25.5q-40 0 -65 25.5t-25 61.5z" />
    <glyph glyph-name="dotbelow" 
d="M240 -160q0 37 25 62.5t65 25.5q41 0 65.5 -25.5t24.5 -62.5t-24.5 -62.5t-65.5 -25.5q-40 0 -65 25.5t-25 62.5z" />
    <glyph glyph-name="uni0060" unicode="`" 
d="M171 776h141l68 -170h-101z" />
    <glyph glyph-name="uni02DD" unicode="&#x2dd;" 
d="M208 606l53 170h126l-87 -170h-92zM360 606l52 170h126l-87 -170h-91z" />
    <glyph glyph-name="uni00AF" unicode="&#xaf;" 
d="M167 648v106h326v-106h-326z" />
    <glyph glyph-name="uni02C9" unicode="&#x2c9;" 
d="M167 648v106h326v-106h-326z" />
    <glyph glyph-name="uni02DB" unicode="&#x2db;" 
d="M225 24l105 -24q-74 -30 -102.5 -56t-28.5 -49q0 -13 9 -21.5t25 -8.5q26 0 60 21l22 -81q-22 -14 -50.5 -23.5t-57.5 -9.5q-52 0 -84 29t-32 71q0 47 36 85t98 67z" />
    <glyph glyph-name="uni02DA" unicode="&#x2da;" 
d="M214 704q0 47 33 78t83 31t83 -31t33 -78q0 -46 -33 -77.5t-83 -31.5t-83 31.5t-33 77.5zM294 704q0 -18 10 -29t26 -11t26 11t10 29q0 17 -10 28.5t-26 11.5t-26 -11.5t-10 -28.5z" />
    <glyph glyph-name="ringacute" 
d="M292 865l68 170h141l-108 -170h-101zM214 704q0 47 33 78t83 31t83 -31t33 -78q0 -46 -33 -77.5t-83 -31.5t-83 31.5t-33 77.5zM294 704q0 -18 10 -29t26 -11t26 11t10 29q0 17 -10 28.5t-26 11.5t-26 -11.5t-10 -28.5z" />
    <glyph glyph-name="uni02DC" unicode="&#x2dc;" 
d="M152 606q2 42 14 77t36 56.5t62 21.5q27 0 47 -10t35.5 -23.5t28 -23.5t24.5 -10q29 0 36 62h73q-2 -42 -14 -77.5t-36 -57t-62 -21.5q-27 0 -47 10t-35.5 23.5t-28 23.5t-24.5 10q-29 0 -36 -61h-73z" />
    <glyph glyph-name="uni00B4.cap" 
d="M275 768l83 145h154l-130 -145h-107z" />
    <glyph glyph-name="uni02D8.cap" 
d="M159 905h100q2 -21 20 -34t51 -13t50.5 13t20.5 34h100q-6 -71 -51 -108t-120 -37t-120 37t-51 108z" />
    <glyph glyph-name="uni02C7.cap" 
d="M502 905l-114 -145h-116l-114 145h105l67 -60l67 60h105z" />
    <glyph glyph-name="uni02C6.cap" 
d="M158 768l114 145h116l114 -145h-105l-67 59l-67 -59h-105z" />
    <glyph glyph-name="uni00A8.cap" 
d="M144 844q0 29 20 49t51 20t51 -20t20 -49q0 -30 -20 -50t-51 -20t-51 20t-20 50zM374 844q0 29 20 49t51 20t51 -20t20 -49q0 -30 -20 -50t-51 -20t-51 20t-20 50z" />
    <glyph glyph-name="uni02D9.cap" 
d="M240 855q0 36 25 61.5t65 25.5q41 0 65.5 -25.5t24.5 -61.5q0 -37 -24.5 -62.5t-65.5 -25.5q-40 0 -65 25.5t-25 62.5z" />
    <glyph glyph-name="uni0060.cap" 
d="M148 913h154l83 -145h-107z" />
    <glyph glyph-name="uni02DD.cap" 
d="M205 768l66 145h131l-103 -145h-94zM366 768l66 145h131l-103 -145h-94z" />
    <glyph glyph-name="uni00AF.cap" 
d="M157 790v106h346v-106h-346z" />
    <glyph glyph-name="uni02DA.cap" 
d="M210 863q0 46 34 77.5t86 31.5q53 0 86.5 -31.5t33.5 -77.5q0 -45 -33.5 -76.5t-86.5 -31.5q-52 0 -86 31.5t-34 76.5zM290 863q0 -16 11 -27t29 -11t29 11t11 27q0 17 -11 28t-29 11t-29 -11t-11 -28z" />
    <glyph glyph-name="ringacute.cap" 
d="M284 1006l83 145h154l-130 -145h-107zM210 863q0 46 34 77.5t86 31.5q53 0 86.5 -31.5t33.5 -77.5q0 -45 -33.5 -76.5t-86.5 -31.5q-52 0 -86 31.5t-34 76.5zM290 863q0 -16 11 -27t29 -11t29 11t11 27q0 17 -11 28t-29 11t-29 -11t-11 -28z" />
    <glyph glyph-name="uni02DC.cap" 
d="M139 765q3 42 15.5 76.5t37.5 55.5t64 21q28 0 49.5 -9.5t39.5 -22.5t33.5 -22.5t31.5 -9.5q17 0 25.5 14t12.5 45h73q-2 -41 -15 -76t-38 -56t-64 -21q-28 0 -50 10t-39.5 22.5t-33 22.5t-31.5 10t-24.5 -14.5t-13.5 -45.5h-73z" />
    <glyph glyph-name="uni002E" unicode="." horiz-adv-x="310" 
d="M59 80q0 38 26.5 65.5t69.5 27.5t69.5 -27.5t26.5 -65.5q0 -39 -26.5 -66.5t-69.5 -27.5t-69.5 27.5t-26.5 66.5z" />
    <glyph glyph-name="uni002E.tab" horiz-adv-x="600" 
d="M204 80q0 38 26.5 65.5t69.5 27.5t69.5 -27.5t26.5 -65.5q0 -39 -26.5 -66.5t-69.5 -27.5t-69.5 27.5t-26.5 66.5z" />
    <glyph glyph-name="uni002C" unicode="," horiz-adv-x="310" 
d="M59 80q0 38 26.5 65.5t69.5 27.5t69.5 -28t26.5 -75q0 -52 -26 -110.5t-61 -109.5h-97q19 36 32.5 72.5t22.5 69.5q-27 8 -45 32t-18 56z" />
    <glyph glyph-name="uni002C.tab" horiz-adv-x="600" 
d="M204 80q0 38 26.5 65.5t69.5 27.5t69.5 -28t26.5 -75q0 -52 -26 -110.5t-61 -109.5h-97q37 74 54 142q-27 8 -44.5 32t-17.5 56z" />
    <glyph glyph-name="uni003A" unicode=":" horiz-adv-x="310" 
d="M59 80q0 38 26.5 65.5t69.5 27.5t69.5 -27.5t26.5 -65.5q0 -39 -26.5 -66.5t-69.5 -27.5t-69.5 27.5t-26.5 66.5zM59 446q0 38 26.5 65.5t69.5 27.5t69.5 -27.5t26.5 -65.5q0 -39 -26.5 -66.5t-69.5 -27.5t-69.5 27.5t-26.5 66.5z" />
    <glyph glyph-name="uni003B" unicode=";" horiz-adv-x="310" 
d="M59 80q0 38 26.5 65.5t69.5 27.5t69.5 -28t26.5 -75q0 -52 -26 -110.5t-61 -109.5h-97q19 36 32.5 72.5t22.5 69.5q-27 8 -45 32t-18 56zM59 446q0 38 26.5 65.5t69.5 27.5t69.5 -27.5t26.5 -65.5q0 -39 -26.5 -66.5t-69.5 -27.5t-69.5 27.5t-26.5 66.5z" />
    <glyph glyph-name="uni2026" unicode="&#x2026;" horiz-adv-x="832" 
d="M59 80q0 38 26.5 65.5t69.5 27.5t69.5 -27.5t26.5 -65.5q0 -39 -26.5 -66.5t-69.5 -27.5t-69.5 27.5t-26.5 66.5zM320 80q0 38 26.5 65.5t69.5 27.5t69.5 -27.5t26.5 -65.5q0 -39 -26.5 -66.5t-69.5 -27.5t-69.5 27.5t-26.5 66.5zM581 80q0 38 26.5 65.5t69.5 27.5
t69.5 -27.5t26.5 -65.5q0 -39 -26.5 -66.5t-69.5 -27.5t-69.5 27.5t-26.5 66.5z" />
    <glyph glyph-name="uni0021" unicode="!" horiz-adv-x="310" 
d="M75 526v174h161v-174l-29 -279h-104zM59 80q0 38 26.5 65.5t69.5 27.5t69.5 -27.5t26.5 -65.5q0 -39 -26.5 -66.5t-69.5 -27.5t-69.5 27.5t-26.5 66.5z" />
    <glyph glyph-name="uni00A1" unicode="&#xa1;" horiz-adv-x="310" 
d="M59 446q0 39 26.5 66t69.5 27t69.5 -27t26.5 -66t-26.5 -66t-69.5 -27t-69.5 27t-26.5 66zM75 -150v154l28 274h104l29 -274v-154h-161z" />
    <glyph glyph-name="uni003F" unicode="?" horiz-adv-x="571" 
d="M34 577q40 62 106.5 99.5t142.5 37.5q74 0 127 -27.5t81 -72t28 -96.5q0 -57 -30 -97.5t-100 -80.5q-33 -20 -47 -36.5t-16 -41.5l-2 -14l-117 -1l-4 31q-1 8 -2.5 19t-1.5 21q0 32 18.5 59t73.5 60q42 24 56.5 41.5t14.5 36.5q0 23 -21 39.5t-63 16.5q-46 0 -81.5 -22.5
t-62.5 -60.5zM172 80q0 38 26.5 65.5t69.5 27.5t69.5 -27.5t26.5 -65.5q0 -39 -26.5 -66.5t-69.5 -27.5t-69.5 27.5t-26.5 66.5z" />
    <glyph glyph-name="uni00BF" unicode="&#xbf;" horiz-adv-x="571" 
d="M193 446q0 39 26.5 66t69.5 27t69.5 -27t26.5 -66t-26.5 -66t-69.5 -27t-69.5 27t-26.5 66zM38 19q0 53 30.5 96.5t99.5 80.5q33 19 47 34.5t17 38.5l1 14l117 1l4 -31q2 -8 3 -18.5t1 -21.5q0 -30 -17.5 -58t-74.5 -56q-40 -19 -56 -35.5t-16 -33.5q0 -22 20 -36.5
t64 -14.5q47 0 83 22t63 59l100 -89q-40 -61 -107 -98t-144 -37q-75 0 -127.5 25.5t-80 67t-27.5 90.5z" />
    <glyph glyph-name="uni2039" unicode="&#x2039;" horiz-adv-x="335" 
d="M32 237v56l123 163h159l-152 -191l152 -191h-159z" />
    <glyph glyph-name="uni2039.cap" horiz-adv-x="335" 
d="M32 277v56l123 163h159l-152 -191l152 -191h-159z" />
    <glyph glyph-name="uni203A" unicode="&#x203a;" horiz-adv-x="335" 
d="M22 74l151 191l-151 191h159l123 -163v-56l-123 -163h-159z" />
    <glyph glyph-name="uni203A.cap" horiz-adv-x="335" 
d="M22 114l151 191l-151 191h159l123 -163v-56l-123 -163h-159z" />
    <glyph glyph-name="uni00AB" unicode="&#xab;" horiz-adv-x="574" 
d="M32 237v56l123 163h159l-152 -191l152 -191h-159zM270 237v56l123 163h159l-152 -191l152 -191h-159z" />
    <glyph glyph-name="uni00AB.cap" horiz-adv-x="574" 
d="M32 277v56l123 163h159l-152 -191l152 -191h-159zM270 277v56l123 163h159l-152 -191l152 -191h-159z" />
    <glyph glyph-name="uni00BB" unicode="&#xbb;" horiz-adv-x="574" 
d="M22 74l151 191l-151 191h159l123 -163v-56l-123 -163h-159zM260 74l152 191l-152 191h159l123 -163v-56l-123 -163h-159z" />
    <glyph glyph-name="uni00BB.cap" horiz-adv-x="574" 
d="M22 114l151 191l-151 191h159l123 -163v-56l-123 -163h-159zM260 114l152 191l-152 191h159l123 -163v-56l-123 -163h-159z" />
    <glyph glyph-name="uni0027" unicode="'" horiz-adv-x="279" 
d="M62 730h155l-21 -309h-113z" />
    <glyph glyph-name="uni0022" unicode="&#x22;" horiz-adv-x="499" 
d="M62 730h158l-22 -309h-114zM279 730h159l-23 -309h-113z" />
    <glyph glyph-name="uni2018" unicode="&#x2018;" horiz-adv-x="301" 
d="M54 510q0 53 27 111t61 109h97q-19 -36 -33 -72.5t-22 -69.5q27 -8 45 -32t18 -56q0 -38 -26.5 -65.5t-69.5 -27.5t-70 28t-27 75z" />
    <glyph glyph-name="uni2019" unicode="&#x2019;" horiz-adv-x="301" 
d="M54 650q0 39 27 66.5t69 27.5q44 0 70.5 -28t26.5 -76q0 -52 -26 -110t-61 -109h-98q19 36 33 72.5t22 69.5q-27 8 -45 32t-18 55z" />
    <glyph glyph-name="uni201C" unicode="&#x201c;" horiz-adv-x="529" 
d="M54 510q0 53 27 111t61 109h97q-19 -36 -33 -72.5t-22 -69.5q27 -8 45 -32t18 -56q0 -38 -26.5 -65.5t-69.5 -27.5t-70 28t-27 75zM282 510q0 53 26.5 111t60.5 109h98q-19 -36 -33 -72.5t-22 -69.5q27 -8 44.5 -32t17.5 -56q0 -38 -26.5 -65.5t-68.5 -27.5q-43 0 -70 28
t-27 75z" />
    <glyph glyph-name="uni201D" unicode="&#x201d;" horiz-adv-x="529" 
d="M54 650q0 39 27 66.5t69 27.5q44 0 70.5 -28t26.5 -76q0 -52 -26 -110t-61 -109h-98q19 36 33 72.5t22 69.5q-27 8 -45 32t-18 55zM282 650q0 39 26.5 66.5t69.5 27.5t69.5 -28t26.5 -76q0 -52 -26 -110t-61 -109h-97q19 36 32.5 72.5t22.5 69.5q-27 8 -45 32t-18 55z
" />
    <glyph glyph-name="uni201A" unicode="&#x201a;" horiz-adv-x="301" 
d="M54 80q0 38 27 65.5t69 27.5q44 0 70.5 -28t26.5 -75q0 -52 -26 -110.5t-61 -109.5h-98q19 36 33 72.5t22 69.5q-27 8 -45 32t-18 56z" />
    <glyph glyph-name="uni201E" unicode="&#x201e;" horiz-adv-x="523" 
d="M54 80q0 38 27 65.5t69 27.5q44 0 70.5 -28t26.5 -75q0 -52 -26 -110.5t-61 -109.5h-98q19 36 33 72.5t22 69.5q-27 8 -45 32t-18 56zM282 80q0 38 26.5 65.5t69.5 27.5t69.5 -28t26.5 -75q0 -52 -26 -110.5t-61 -109.5h-97q19 36 32.5 72.5t22.5 69.5q-27 8 -45 32
t-18 56z" />
    <glyph glyph-name="uni0028" unicode="(" horiz-adv-x="360" 
d="M69 317q0 157 54 289.5t152 245.5l85 -62q-70 -101 -106.5 -218.5t-36.5 -254.5q0 -138 36.5 -255.5t106.5 -218.5l-85 -66q-98 112 -152 247t-54 293z" />
    <glyph glyph-name="uni0028.cap" horiz-adv-x="360" 
d="M69 347q0 157 54 289.5t152 245.5l85 -62q-70 -101 -106.5 -218.5t-36.5 -254.5q0 -138 36.5 -255.5t106.5 -218.5l-85 -66q-98 112 -152 247t-54 293z" />
    <glyph glyph-name="uni0029" unicode=")" horiz-adv-x="360" 
d="M0 -157q71 101 107 218.5t36 255.5q0 137 -36 254.5t-107 218.5l86 62q98 -113 151.5 -245.5t53.5 -289.5q0 -158 -53.5 -293t-151.5 -247z" />
    <glyph glyph-name="uni0029.cap" horiz-adv-x="360" 
d="M0 -127q71 101 107 218.5t36 255.5q0 137 -36 254.5t-107 218.5l86 62q98 -113 151.5 -245.5t53.5 -289.5q0 -158 -53.5 -293t-151.5 -247z" />
    <glyph glyph-name="uni005B" unicode="[" horiz-adv-x="327" 
d="M89 -202v1034h263v-127h-123v-780h123v-127h-263z" />
    <glyph glyph-name="uni005B.cap" horiz-adv-x="327" 
d="M89 -172v1034h263v-127h-123v-780h123v-127h-263z" />
    <glyph glyph-name="uni005D" unicode="]" horiz-adv-x="327" 
d="M-25 -202v127h123v780h-123v127h263v-1034h-263z" />
    <glyph glyph-name="uni005D.cap" horiz-adv-x="327" 
d="M-25 -172v127h123v780h-123v127h263v-1034h-263z" />
    <glyph glyph-name="uni007B" unicode="{" horiz-adv-x="344" 
d="M66 277v76q34 7 57.5 31.5t23.5 59.5q0 32 -10.5 58.5t-25 51t-25 51.5t-10.5 59q0 77 62.5 126t169.5 61l22 -103q-59 -13 -81 -37t-22 -57q0 -27 9.5 -51.5t22 -49.5t22 -51.5t9.5 -56.5q0 -44 -25.5 -78t-71.5 -52q46 -18 71.5 -52t25.5 -78q0 -30 -9.5 -56.5
t-22 -51.5t-22 -49.5t-9.5 -51.5q0 -34 22 -57t81 -37l-22 -103q-107 12 -169.5 61.5t-62.5 125.5q0 32 10.5 59t25 52t25 51.5t10.5 57.5q0 35 -23.5 59.5t-57.5 31.5z" />
    <glyph glyph-name="uni007B.cap" horiz-adv-x="344" 
d="M66 307v76q34 7 57.5 31.5t23.5 59.5q0 32 -10.5 58.5t-25 51t-25 51.5t-10.5 59q0 77 62.5 126t169.5 61l22 -103q-59 -13 -81 -37t-22 -57q0 -27 9.5 -51.5t22 -49.5t22 -51.5t9.5 -56.5q0 -44 -25.5 -78t-71.5 -52q46 -18 71.5 -52t25.5 -78q0 -30 -9.5 -56.5
t-22 -51.5t-22 -49.5t-9.5 -51.5q0 -34 22 -57t81 -37l-22 -103q-107 12 -169.5 61.5t-62.5 125.5q0 32 10.5 59t25 52t25 51.5t10.5 57.5q0 35 -23.5 59.5t-57.5 31.5z" />
    <glyph glyph-name="uni007D" unicode="}" horiz-adv-x="344" 
d="M14 -118q59 13 81 36.5t22 57.5q0 27 -9.5 51.5t-22 49.5t-22 51.5t-9.5 56.5q0 44 25.5 78t71.5 52q-46 18 -71.5 52t-25.5 78q0 30 9.5 56.5t22 51.5t22 49.5t9.5 51.5q0 34 -22 57.5t-81 36.5l22 103q107 -12 169.5 -61t62.5 -126q0 -32 -10.5 -59t-25 -51.5t-25 -51
t-10.5 -58.5q0 -35 23.5 -59.5t57.5 -31.5v-76q-34 -7 -57.5 -31.5t-23.5 -59.5q0 -31 10.5 -57.5t25 -51.5t25 -52t10.5 -59q0 -76 -62.5 -125.5t-169.5 -61.5z" />
    <glyph glyph-name="uni007D.cap" horiz-adv-x="344" 
d="M14 -88q59 13 81 36.5t22 57.5q0 27 -9.5 51.5t-22 49.5t-22 51.5t-9.5 56.5q0 44 25.5 78t71.5 52q-46 18 -71.5 52t-25.5 78q0 30 9.5 56.5t22 51.5t22 49.5t9.5 51.5q0 34 -22 57.5t-81 36.5l22 103q107 -12 169.5 -61t62.5 -126q0 -32 -10.5 -59t-25 -51.5t-25 -51
t-10.5 -58.5q0 -35 23.5 -59.5t57.5 -31.5v-76q-34 -7 -57.5 -31.5t-23.5 -59.5q0 -31 10.5 -57.5t25 -51.5t25 -52t10.5 -59q0 -76 -62.5 -125.5t-169.5 -61.5z" />
    <glyph glyph-name="uni002D" unicode="-" horiz-adv-x="451" 
d="M65 214v135h321v-135h-321z" />
    <glyph glyph-name="uni002D.cap" horiz-adv-x="451" 
d="M65 254v135h321v-135h-321z" />
    <glyph glyph-name="uni00AD" unicode="&#xad;" horiz-adv-x="451" 
d="M65 214v135h321v-135h-321z" />
    <glyph glyph-name="uni00AD.cap" horiz-adv-x="451" 
d="M65 254v135h321v-135h-321z" />
    <glyph glyph-name="uni2013" unicode="&#x2013;" horiz-adv-x="566" 
d="M65 214v135h437v-135h-437z" />
    <glyph glyph-name="uni2013.cap" horiz-adv-x="566" 
d="M65 254v135h437v-135h-437z" />
    <glyph glyph-name="uni2014" unicode="&#x2014;" horiz-adv-x="750" 
d="M0 214v135h750v-135h-750z" />
    <glyph glyph-name="uni2014.cap" horiz-adv-x="750" 
d="M0 254v135h750v-135h-750z" />
    <glyph glyph-name="uni005F" unicode="_" horiz-adv-x="436" 
d="M0 -128v120h436v-120h-436z" />
    <glyph glyph-name="uni2022" unicode="&#x2022;" horiz-adv-x="362" 
d="M59 293q0 50 35 85t87 35q53 0 87.5 -35t34.5 -85q0 -33 -16 -60t-43.5 -43.5t-62.5 -16.5t-62.5 16.5t-43.5 43.5t-16 60z" />
    <glyph glyph-name="uni2022.cap" horiz-adv-x="362" 
d="M59 333q0 50 35 85t87 35q53 0 87.5 -35t34.5 -85q0 -33 -16 -60t-43.5 -43.5t-62.5 -16.5t-62.5 16.5t-43.5 43.5t-16 60z" />
    <glyph glyph-name="uni00B7" unicode="&#xb7;" horiz-adv-x="310" 
d="M59 289q0 38 26.5 65.5t69.5 27.5t69.5 -27.5t26.5 -65.5q0 -39 -26.5 -66.5t-69.5 -27.5t-69.5 27.5t-26.5 66.5z" />
    <glyph glyph-name="uni00B7.cap" horiz-adv-x="310" 
d="M59 329q0 38 26.5 65.5t69.5 27.5t69.5 -27.5t26.5 -65.5q0 -39 -26.5 -66.5t-69.5 -27.5t-69.5 27.5t-26.5 66.5z" />
    <glyph glyph-name="uni007C" unicode="|" horiz-adv-x="314" 
d="M89 -150v850h136v-850h-136z" />
    <glyph glyph-name="uni00A6" unicode="&#xa6;" horiz-adv-x="314" 
d="M89 380v320h136v-320h-136zM89 -150v320h136v-320h-136z" />
    <glyph glyph-name="uni2020" unicode="&#x2020;" horiz-adv-x="584" 
d="M224 -150v537h-170v130h170v183h136v-183h169v-130h-169v-537h-136z" />
    <glyph glyph-name="uni2021" unicode="&#x2021;" horiz-adv-x="584" 
d="M54 33v130h170v224h-170v130h170v183h136v-183h169v-130h-169v-224h169v-130h-169v-183h-136v183h-170z" />
    <glyph glyph-name="uni002F" unicode="/" horiz-adv-x="424" 
d="M-8 -150l299 950h141l-298 -950h-142z" />
    <glyph glyph-name="uni005C" unicode="\" horiz-adv-x="424" 
d="M-8 800h142l298 -950h-141z" />
    <glyph glyph-name="uni0023" unicode="#" horiz-adv-x="741" 
d="M94 0l41 166h-101v119h130l31 130h-99v119h128l41 166h129l-41 -166h124l41 166h129l-41 -166h100v-119h-129l-31 -130h99v-119h-128l-41 -166h-129l41 166h-124l-41 -166h-129zM293 285h124l31 130h-124z" />
    <glyph glyph-name="uni0026" unicode="&#x26;" horiz-adv-x="679" 
d="M47 174q0 58 29 107t111 97q-33 44 -50.5 79.5t-17.5 72.5q0 51 26 92.5t73 66.5t110 25q64 0 111 -24.5t73 -65t26 -89.5q0 -52 -30 -99t-113 -91l81 -103q16 18 32 39t32 44l115 -89q-46 -57 -93 -105l103 -131h-189l-29 38q-41 -25 -85 -38.5t-92 -13.5
q-70 0 -120 24.5t-76.5 67.5t-26.5 96zM272 534q0 -20 11 -41.5t33 -50.5q44 24 56.5 45.5t12.5 46.5t-15.5 42t-41.5 17q-25 0 -40.5 -17t-15.5 -42zM202 184q0 -31 21 -51.5t57 -20.5q42 0 88 30l-104 135q-35 -25 -48.5 -48.5t-13.5 -44.5z" />
    <glyph glyph-name="uni00A7" unicode="&#xa7;" horiz-adv-x="632" 
d="M38 278q0 44 28 79t82 55q-23 25 -33.5 53.5t-10.5 59.5q0 49 28 92t78.5 70t119.5 27q62 0 114 -19t96 -51l-77 -118q-29 23 -62.5 37.5t-68.5 14.5q-38 0 -56 -15.5t-18 -35.5q0 -13 9 -26t34 -25t72 -24q124 -29 172.5 -73t48.5 -106q0 -43 -28 -78.5t-81 -55.5
q23 -25 33.5 -53.5t10.5 -59.5q0 -49 -28 -92t-78.5 -69.5t-120.5 -27.5q-62 0 -114 19t-96 51l77 117q29 -22 63 -36.5t68 -14.5q38 0 56 16t18 35q0 14 -9 26.5t-33.5 25t-72.5 23.5q-124 29 -172.5 73.5t-48.5 105.5zM320 224q20 -5 37 -11t32 -12q23 8 33 21t10 28
q0 23 -24.5 40.5t-95.5 36.5q-19 5 -36.5 11t-32.5 12q-22 -7 -32 -20.5t-10 -28.5q0 -23 24.5 -40.5t94.5 -36.5z" />
    <glyph glyph-name="uni00B6" unicode="&#xb6;" horiz-adv-x="754" 
d="M296 -150v379h-29q-67 0 -119 31t-81.5 84t-29.5 120q0 68 29.5 121t81.5 84t119 31h174v-850h-145zM520 -150v850h145v-850h-145z" />
    <glyph glyph-name="uni0040" unicode="@" horiz-adv-x="990" 
d="M47 260q0 93 33.5 175.5t94.5 145t145 98t184 35.5q97 0 177.5 -31.5t139 -89.5t90.5 -136.5t32 -173.5q0 -96 -26 -162.5t-71.5 -100.5t-103.5 -34q-56 0 -95.5 30t-56.5 79q-25 -31 -60.5 -48.5t-78.5 -17.5q-57 0 -103 31t-73 84t-27 119q0 67 27 120t73 83.5
t103 30.5q38 0 71 -15t58 -41v42h137v-332q0 -26 10.5 -40t27.5 -14t32.5 17t26 57.5t10.5 111.5q0 102 -42 174t-114 110t-164 38q-72 0 -133.5 -25.5t-107.5 -71.5t-71.5 -109t-25.5 -139q0 -92 40 -163t107 -111.5t148 -40.5q29 0 55.5 5.5t53.5 15.5l34 -104
q-34 -13 -68 -19.5t-75 -6.5q-90 0 -166 32.5t-131.5 90t-86 134.5t-30.5 167zM394 263q0 -47 25.5 -76.5t65.5 -29.5q42 0 69 29t27 77t-27 77t-69 29q-38 0 -64.5 -29.5t-26.5 -76.5z" />
    <glyph glyph-name="uni002A" unicode="*" horiz-adv-x="651" 
d="M58 485l45 138l171 -77l-21 184h145l-20 -184l170 77l45 -138l-182 -38l124 -137l-117 -85l-92 161l-93 -161l-117 85l124 137z" />
    <glyph glyph-name="uni00A9" unicode="&#xa9;" horiz-adv-x="806" 
d="M49 350q0 75 27.5 140.5t76 116t112.5 79t137 28.5q74 0 138 -28.5t113 -79t76.5 -116t27.5 -140.5t-27.5 -140.5t-76.5 -116t-113 -79t-138 -28.5q-73 0 -137 28.5t-112.5 79t-76 116t-27.5 140.5zM148 350q0 -75 33.5 -137.5t91 -100t129.5 -37.5q73 0 131 37.5
t91.5 100t33.5 137.5q0 76 -33.5 138t-91.5 99.5t-131 37.5q-72 0 -129.5 -37.5t-91 -99.5t-33.5 -138zM216 350q0 59 26 105t70.5 72.5t101.5 26.5q46 0 82 -18t58 -44l-66 -68q-26 34 -72 34q-43 0 -71 -30t-28 -78t27.5 -78.5t70.5 -30.5q25 0 44.5 10t34.5 26l64 -69
q-25 -27 -61.5 -44.5t-80.5 -17.5q-58 0 -103.5 26.5t-71 73t-25.5 104.5z" />
    <glyph glyph-name="uni00AE" unicode="&#xae;" horiz-adv-x="800" 
d="M46 350q0 75 27.5 140.5t76.5 116t113 79t137 28.5t137 -28.5t113 -79t76.5 -116t27.5 -140.5t-27.5 -140.5t-76.5 -116t-113 -79t-137 -28.5t-137 28.5t-113 79t-76.5 116t-27.5 140.5zM145 350q0 -75 33.5 -137.5t91.5 -100t130 -37.5q73 0 130.5 37.5t91 100
t33.5 137.5q0 76 -33.5 138t-91 99.5t-130.5 37.5q-72 0 -130 -37.5t-91.5 -99.5t-33.5 -138zM255 156v390h159q69 0 106 -37t37 -95q0 -40 -19.5 -70.5t-56.5 -44.5l89 -143h-111l-72 131h-37v-131h-95zM407 459h-57v-89h57q25 0 38 12.5t13 31.5q0 20 -13 32.5t-38 12.5z
" />
    <glyph glyph-name="uni2122" unicode="&#x2122;" horiz-adv-x="834" 
d="M388 280v422h58l134 -203l135 203h58v-422h-95v214l-82 -122h-31l-82 121v-213h-95zM119 280v332h-109v89h312v-89h-109v-332h-94z" />
    <glyph glyph-name="uni005E" unicode="^" horiz-adv-x="600" 
d="M54 269l200 445h92l200 -445h-147l-99 263l-99 -263h-147z" />
    <glyph glyph-name="uni007E" unicode="~" horiz-adv-x="600" 
d="M72 267q3 59 18.5 105.5t46 73.5t76.5 27q33 0 58.5 -11t46 -26t38.5 -26t36 -11q41 0 52 69h84q-3 -59 -18.5 -106t-45.5 -74t-77 -27q-33 0 -58.5 11.5t-46 26t-38.5 26t-36 11.5q-40 0 -52 -69h-84z" />
    <glyph glyph-name="uni00A2" unicode="&#xa2;" horiz-adv-x="524" 
d="M226 38v146q-55 16 -96 53.5t-63.5 90.5t-22.5 116t22.5 116t63.5 90.5t96 53.5v146h129v-140q44 -7 80 -26.5t64 -48.5l-93 -101q-37 40 -91 40q-52 0 -86.5 -35.5t-34.5 -94.5q0 -58 35 -94t88 -36q28 0 54.5 13t42.5 32l91 -105q-29 -28 -67.5 -47.5t-82.5 -27.5v-141
h-129z" />
    <glyph glyph-name="uni00A4" unicode="&#xa4;" horiz-adv-x="651" 
d="M44 135l95 95q-22 44 -22 94t22 94l-95 94l93 93l97 -97q20 9 43 14t48 5q26 0 49 -5t43 -14l97 97l92 -93l-95 -95q11 -21 16.5 -44t5.5 -49q0 -50 -22 -94l95 -94l-93 -93l-97 97q-20 -9 -42.5 -14t-48.5 -5q-25 0 -48 5t-43 14l-97 -97zM241 324q0 -39 24.5 -62.5
t59.5 -23.5t59 23.5t24 62.5t-24 62.5t-59 23.5q-36 0 -60 -23.5t-24 -62.5z" />
    <glyph glyph-name="uni0024" unicode="$" horiz-adv-x="617" 
d="M26 82l79 124q39 -34 93 -56.5t114 -22.5q58 0 83 18.5t25 45.5t-24.5 48t-99.5 40q-89 24 -141.5 57.5t-74.5 75.5t-22 91q0 48 23 90t66 72.5t102 42.5v142h130v-141q49 -7 91 -24t81 -41l-73 -123q-32 23 -75.5 37.5t-89.5 14.5q-54 0 -77 -19.5t-23 -42.5
q0 -16 11 -30t39.5 -27.5t81.5 -27.5q131 -34 184.5 -90t53.5 -135q0 -77 -53 -134.5t-151 -74.5v-142h-130v140q-61 8 -118.5 31.5t-104.5 60.5z" />
    <glyph glyph-name="uni20AC" unicode="&#x20ac;" horiz-adv-x="650" 
d="M6 218v107h72v44h-72v107h90q21 71 64 124.5t103 83.5t132 30q71 0 129 -29t94 -75l-96 -99q-26 30 -58 44.5t-61 14.5q-46 0 -82.5 -25t-58.5 -69h209v-107h-236v-44h236v-107h-207q21 -41 56 -64.5t78 -23.5q33 0 68 16t63 49l94 -100q-37 -46 -96 -77.5t-131 -31.5
t-132 29t-102.5 81.5t-64.5 121.5h-91z" />
    <glyph glyph-name="uni00A3" unicode="&#xa3;" horiz-adv-x="596" 
d="M74 0v96q40 29 61.5 64t26.5 83h-88v112h66q-15 29 -30.5 63t-15.5 80q0 59 30 108t85 78.5t128 29.5q62 0 116 -25t90 -66l-95 -109q-21 26 -48 38t-55 12q-46 0 -70.5 -27t-24.5 -62q0 -37 11.5 -64t22.5 -56h209v-112h-198q-8 -59 -52 -101h294v-142h-463z" />
    <glyph glyph-name="uni00A5" unicode="&#xa5;" horiz-adv-x="681" 
d="M110 138v106h153v44h-153v107h100l-208 305h182l158 -261l161 261h176l-208 -305h100v-107h-153v-44h153v-106h-153v-138h-155v138h-153z" />
    <glyph glyph-name="uni002B" unicode="+" horiz-adv-x="600" 
d="M234 71v175h-173v128h173v175h132v-175h173v-128h-173v-175h-132z" />
    <glyph glyph-name="uni2212" unicode="&#x2212;" horiz-adv-x="600" 
d="M61 246v128h478v-128h-478z" />
    <glyph glyph-name="uni00D7" unicode="&#xd7;" horiz-adv-x="600" 
d="M60 163l147 147l-147 147l93 93l147 -147l147 147l93 -93l-147 -147l147 -147l-93 -93l-147 147l-147 -147z" />
    <glyph glyph-name="uni00F7" unicode="&#xf7;" horiz-adv-x="600" 
d="M217 503q0 33 22.5 56.5t60.5 23.5t60.5 -23.5t22.5 -56.5t-22.5 -56.5t-60.5 -23.5t-60.5 23.5t-22.5 56.5zM61 246v128h478v-128h-478zM217 117q0 33 22.5 56.5t60.5 23.5t60.5 -23.5t22.5 -56.5t-22.5 -56.5t-60.5 -23.5t-60.5 23.5t-22.5 56.5z" />
    <glyph glyph-name="uni003D" unicode="=" horiz-adv-x="600" 
d="M61 358v126h478v-126h-478zM61 136v126h478v-126h-478z" />
    <glyph glyph-name="uni2248" unicode="&#x2248;" horiz-adv-x="600" 
d="M61 332v130q26 23 60.5 35.5t70.5 12.5q35 0 62 -7.5t51.5 -17.5t50.5 -17.5t58 -7.5q33 0 65 14t60 36v-130q-26 -22 -60.5 -35t-70.5 -13q-34 0 -61.5 7.5t-52 17.5t-50.5 17.5t-58 7.5t-64 -13.5t-61 -36.5zM61 110v130q26 23 60.5 35.5t70.5 12.5q35 0 62 -7.5
t51.5 -17.5t50.5 -17.5t58 -7.5q33 0 65 14t60 36v-130q-26 -22 -60.5 -35t-70.5 -13q-34 0 -61.5 7.5t-52 17.5t-50.5 17.5t-58 7.5t-64 -13.5t-61 -36.5z" />
    <glyph glyph-name="uni2260" unicode="&#x2260;" horiz-adv-x="600" 
d="M106 59l41 79h-86v122h149l51 100h-200v122h263l41 79h130l-41 -79h85v-122h-148l-52 -100h200v-122h-263l-41 -79h-129z" />
    <glyph glyph-name="uni00B1" unicode="&#xb1;" horiz-adv-x="600" 
d="M61 71v121h173v113h-173v121h173v123h132v-123h173v-121h-173v-113h173v-121h-478z" />
    <glyph glyph-name="uni003E" unicode="&#x3e;" horiz-adv-x="600" 
d="M86 70v146l259 94l-259 94v146l444 -194v-92z" />
    <glyph glyph-name="uni2265" unicode="&#x2265;" horiz-adv-x="600" 
d="M61 189v137l289 44l-289 43v137l478 -122v-117zM61 50v121h478v-121h-478z" />
    <glyph glyph-name="uni003C" unicode="&#x3c;" horiz-adv-x="600" 
d="M70 264v92l444 194v-146l-259 -94l259 -94v-146z" />
    <glyph glyph-name="uni2264" unicode="&#x2264;" horiz-adv-x="600" 
d="M61 311v117l478 122v-137l-289 -43l289 -44v-137zM61 50v121h478v-121h-478z" />
    <glyph glyph-name="uni00AC" unicode="&#xac;" horiz-adv-x="600" 
d="M61 246v128h478v-303h-132v175h-346z" />
    <glyph glyph-name="uni0025" unicode="%" horiz-adv-x="937" 
d="M44 531q0 52 24 93t66.5 65.5t97.5 24.5q56 0 98 -24.5t66 -65.5t24 -93t-24 -93.5t-66 -65.5t-98 -24q-55 0 -97.5 24t-66.5 65.5t-24 93.5zM171 0l439 700h156l-439 -700h-156zM169 531q0 -30 18.5 -48t44.5 -18q27 0 45.5 18t18.5 48t-18.5 48t-45.5 18
q-26 0 -44.5 -18t-18.5 -48zM516 169q0 52 24 93.5t66.5 65.5t97.5 24q56 0 98 -24t66 -65.5t24 -93.5t-24 -93t-66 -65.5t-98 -24.5q-55 0 -97.5 24.5t-66.5 65.5t-24 93zM641 169q0 -29 18.5 -47.5t44.5 -18.5q27 0 45.5 18.5t18.5 47.5q0 30 -18.5 48t-45.5 18
q-26 0 -44.5 -18t-18.5 -48z" />
    <glyph glyph-name="uni2030" unicode="&#x2030;" horiz-adv-x="1352" 
d="M44 531q0 52 24 93t66.5 65.5t97.5 24.5q56 0 98 -24.5t66 -65.5t24 -93t-24 -93.5t-66 -65.5t-98 -24q-55 0 -97.5 24t-66.5 65.5t-24 93.5zM171 0l439 700h156l-439 -700h-156zM169 531q0 -30 18.5 -48t44.5 -18q27 0 45.5 18t18.5 48t-18.5 48t-45.5 18
q-26 0 -44.5 -18t-18.5 -48zM516 169q0 52 24 93.5t66.5 65.5t97.5 24q56 0 98 -24t66 -65.5t24 -93.5t-24 -93t-66 -65.5t-98 -24.5q-55 0 -97.5 24.5t-66.5 65.5t-24 93zM932 169q0 52 24 93.5t66.5 65.5t97.5 24q56 0 98 -24t66 -65.5t24 -93.5t-24 -93t-66 -65.5
t-98 -24.5q-55 0 -97.5 24.5t-66.5 65.5t-24 93zM641 169q0 -29 18.5 -47.5t44.5 -18.5q27 0 45.5 18.5t18.5 47.5q0 30 -18.5 48t-45.5 18q-26 0 -44.5 -18t-18.5 -48zM1057 169q0 -29 18.5 -47.5t44.5 -18.5q27 0 45.5 18.5t18.5 47.5q0 30 -18.5 48t-45.5 18
q-26 0 -44.5 -18t-18.5 -48z" />
    <glyph glyph-name="uni00B0" unicode="&#xb0;" horiz-adv-x="465" 
d="M44 531q0 52 24 93t66.5 65.5t97.5 24.5q56 0 98 -24.5t66 -65.5t24 -93t-24 -93.5t-66 -65.5t-98 -24q-55 0 -97.5 24t-66.5 65.5t-24 93.5zM169 531q0 -30 18.5 -48t44.5 -18q27 0 45.5 18t18.5 48t-18.5 48t-45.5 18q-26 0 -44.5 -18t-18.5 -48z" />
    <glyph glyph-name="uni2044" unicode="&#x2044;" horiz-adv-x="581" 
d="M-7 0l439 700h156l-439 -700h-156z" />
    <glyph glyph-name="uni2215" unicode="&#x2215;" horiz-adv-x="581" 
d="M-7 0l439 700h156l-439 -700h-156z" />
    <glyph glyph-name="uni00B9" unicode="&#xb9;" horiz-adv-x="333" 
d="M130 232v330l-75 -46l-55 93l158 91h95v-468h-123z" />
    <glyph glyph-name="uni00B2" unicode="&#xb2;" horiz-adv-x="434" 
d="M32 595q27 53 76 84.5t112 31.5q49 0 87 -20t60 -55t22 -80q0 -42 -25.5 -81.5t-84.5 -86.5l-56 -45h173v-111h-357v81l157 140q36 32 50 52.5t14 39.5q0 20 -14.5 34t-38.5 14q-52 0 -80 -59z" />
    <glyph glyph-name="uni00B3" unicode="&#xb3;" horiz-adv-x="463" 
d="M30 320l87 68q20 -28 47.5 -43.5t58.5 -15.5q35 0 53.5 15t18.5 34q0 21 -19.5 33.5t-61.5 12.5h-60v89h53q33 0 50.5 13.5t17.5 30.5q0 19 -16.5 32.5t-42.5 13.5q-55 0 -86 -61l-94 60q28 50 78 79.5t112 29.5q51 0 90 -17.5t61 -47.5t22 -66q0 -31 -16.5 -55.5
t-54.5 -41.5q46 -15 69.5 -46.5t23.5 -71.5q0 -41 -24.5 -73.5t-67.5 -51t-101 -18.5q-64 0 -115 26t-83 72z" />
    <glyph glyph-name="uni00AA" unicode="&#xaa;" horiz-adv-x="434" 
d="M40 435q0 51 39 84.5t115 33.5q35 0 63 -6q-2 33 -21.5 46.5t-48.5 13.5q-24 0 -48.5 -6t-48.5 -20l-39 91q37 19 77 29t80 10q80 0 122 -43.5t42 -114.5v-213h-115v40q-19 -23 -46 -37t-58 -14q-49 0 -81 30t-32 76zM154 448q0 -13 10 -22.5t29 -9.5q25 0 44.5 16
t19.5 43v5q-13 2 -24.5 3t-23.5 1q-31 0 -43 -11t-12 -25z" />
    <glyph glyph-name="uni00BA" unicode="&#xba;" horiz-adv-x="454" 
d="M40 520q0 54 23.5 97t66 68.5t97.5 25.5q56 0 98 -25.5t65.5 -68.5t23.5 -97t-24 -97t-66 -68.5t-97 -25.5t-97 25.5t-66 68.5t-24 97zM163 520q0 -40 19 -61t45 -21t45 21t19 61t-19 60.5t-45 20.5q-27 0 -45.5 -20.5t-18.5 -60.5z" />
    <glyph glyph-name="uni2116" unicode="&#x2116;" horiz-adv-x="1128" 
d="M709 520q0 54 24 97t66 68.5t97 25.5q56 0 98 -25.5t66 -68.5t24 -97t-24 -97t-66.5 -68.5t-97.5 -25.5t-97 25.5t-66 68.5t-24 97zM89 0v702h83l298 -373v371h154v-702h-83l-299 375v-373h-153zM832 520q0 -40 19 -61t45 -21t45 21t19 61t-18.5 60.5t-45.5 20.5
q-26 0 -45 -20.5t-19 -60.5zM722 148v130h348v-130h-348z" />
    <glyph glyph-name="uni0394" unicode="&#x394;" horiz-adv-x="734" 
d="M9 0l295 702h126l295 -702h-716zM230 144h269l-133 339z" />
    <glyph glyph-name="uni2206" unicode="&#x2206;" horiz-adv-x="734" 
d="M9 0l295 702h126l295 -702h-716zM230 144h269l-133 339z" />
    <glyph glyph-name="uniA7B6" unicode="&#xa7b6;" horiz-adv-x="765" 
d="M346 0h-294v156h169v41q-85 31 -129 93.5t-44 150.5q0 81 44 142.5t120 96t170 34.5q95 0 171 -34.5t120 -96t44 -142.5q0 -88 -44 -150.5t-129 -92.5v-42h169v-156h-295v284q67 8 100.5 41.5t33.5 86.5q0 39 -22 69t-60 47.5t-88 17.5q-49 0 -87 -17.5t-60 -47.5
t-22 -69q0 -53 33.5 -86.5t99.5 -41.5v-284z" />
    <glyph glyph-name="uni2126" unicode="&#x2126;" horiz-adv-x="765" 
d="M346 0h-294v156h169v41q-85 31 -129 93.5t-44 150.5q0 81 44 142.5t120 96t170 34.5q95 0 171 -34.5t120 -96t44 -142.5q0 -88 -44 -150.5t-129 -92.5v-42h169v-156h-295v284q67 8 100.5 41.5t33.5 86.5q0 39 -22 69t-60 47.5t-88 17.5q-49 0 -87 -17.5t-60 -47.5
t-22 -69q0 -53 33.5 -86.5t99.5 -41.5v-284z" />
    <glyph glyph-name="uni03BC" unicode="&#x3bc;" horiz-adv-x="646" 
d="M76 -150v676h148v-286q0 -61 27 -87t65 -26q44 0 74.5 34t30.5 98v267h148v-526h-148v71q-17 -38 -47.5 -61.5t-70.5 -23.5q-31 0 -57.5 15t-46.5 45l25 -196h-148z" />
    <glyph glyph-name="uni00B5" unicode="&#xb5;" horiz-adv-x="646" 
d="M76 -150v676h148v-286q0 -61 27 -87t65 -26q44 0 74.5 34t30.5 98v267h148v-526h-148v71q-17 -38 -47.5 -61.5t-70.5 -23.5q-31 0 -57.5 15t-46.5 45l25 -196h-148z" />
    <glyph glyph-name="uni03C0" unicode="&#x3c0;" horiz-adv-x="614" 
d="M85 0l16 378h-77v148h551v-148h-86l7 -215q1 -25 11 -35.5t29 -10.5q17 0 36 6l10 -126q-36 -11 -71 -11q-73 0 -114 42.5t-41 124.5v225h-122l-6 -378h-143z" />
    <glyph glyph-name="uni2113" unicode="&#x2113;" horiz-adv-x="632" 
d="M10 88q35 20 67.5 39.5t61.5 39.5q-4 16 -5.5 33.5t-1.5 35.5q0 104 27.5 195.5t74 162t103.5 110.5t115 40q69 0 107 -43t38 -113q0 -89 -69 -204t-226 -239q26 -26 56 -26q20 0 42.5 9t50.5 30l68 -105q-40 -31 -87 -49t-85 -18q-51 0 -92 20t-69 56
q-28 -19 -58.5 -37.5t-62.5 -36.5zM431 598q-21 0 -46 -26.5t-49.5 -72t-41.5 -104.5t-22 -124q98 87 143.5 163t45.5 122q0 42 -30 42z" />
    <glyph glyph-name="uni212E" unicode="&#x212e;" horiz-adv-x="795" 
d="M54 350q0 83 29.5 149t79 113.5t111.5 72.5t128 25q65 0 126 -24.5t109.5 -69.5t76.5 -107.5t28 -138.5q0 -7 -1 -17t-1 -18h-519v-220q82 -65 193 -65q74 0 138.5 29.5t101.5 66.5l40 -44q-30 -29 -75 -54.5t-98.5 -41.5t-110.5 -16q-69 0 -133 25t-114.5 72.5
t-79.5 114t-29 148.5zM402 650q-101 0 -181 -64v-191h362v189q-37 32 -83.5 49t-97.5 17z" />
    <glyph glyph-name="uni221E" unicode="&#x221e;" horiz-adv-x="856" 
d="M49 310q0 64 29 109t74.5 69.5t96.5 24.5q57 0 100.5 -29t78.5 -71q36 42 79 71t100 29q51 0 97 -24.5t74.5 -69.5t28.5 -109q0 -63 -28.5 -108.5t-74.5 -70t-97 -24.5q-57 0 -100.5 29t-78.5 71q-36 -42 -79 -71t-100 -29q-51 0 -96.5 24.5t-74.5 70t-29 108.5zM528 277
q13 -17 31.5 -28.5t37.5 -11.5q27 0 50 20t23 53t-23 53t-50 20q-19 0 -37.5 -11.5t-31.5 -28.5l-24 -33zM186 310q0 -33 23 -53t50 -20q20 0 38 11.5t31 28.5l24 33l-24 33q-13 17 -31 28.5t-38 11.5q-27 0 -50 -20t-23 -53z" />
    <glyph glyph-name="uni2202" unicode="&#x2202;" horiz-adv-x="681" 
d="M52 214q0 84 35.5 149t96.5 102.5t139 37.5q54 0 94.5 -19.5t64.5 -52.5q-8 64 -32 102t-57 54.5t-70 16.5q-25 0 -52 -6t-51 -20l-47 128q35 17 78 27.5t88 10.5q76 0 140 -37.5t102.5 -113t38.5 -189.5q0 -131 -44 -224.5t-118.5 -143t-166.5 -49.5q-72 0 -126 30
t-83.5 81.5t-29.5 115.5zM199 223q0 -50 28.5 -83t76.5 -33q43 0 77.5 24t55 62.5t20.5 81.5q0 49 -31.5 79t-83.5 30q-42 0 -74.5 -22.5t-50.5 -59t-18 -79.5z" />
    <glyph glyph-name="uni222B" unicode="&#x222b;" horiz-adv-x="578" 
d="M307 26q-20 -95 -76.5 -142.5t-153.5 -47.5q-22 0 -46 4t-41 8l27 127q14 -4 28 -6t27 -2q36 0 60 18.5t31 55.5l108 513q20 95 76.5 142.5t153.5 47.5q23 0 47 -3.5t40 -8.5l-27 -127q-14 4 -27.5 6t-27.5 2q-36 0 -59.5 -18t-31.5 -56z" />
    <glyph glyph-name="uni221A" unicode="&#x221a;" horiz-adv-x="673" 
d="M273 -2l-158 392h-103v136h208l115 -329l190 503h156l-289 -702h-119z" />
    <glyph glyph-name="uni2211" unicode="&#x2211;" horiz-adv-x="636" 
d="M581 558h-306l169 -237v-78l-181 -251h328v-142h-547v96l247 332l-237 326v96h527v-142z" />
    <glyph glyph-name="uni220F" unicode="&#x220f;" horiz-adv-x="780" 
d="M124 -150v694h-93v156h718v-156h-92v-694h-145v694h-244v-694h-144z" />
    <glyph glyph-name="uni25CA" unicode="&#x25ca;" horiz-adv-x="657" 
d="M69 275l197 427h126l196 -427l-197 -427h-125zM232 280l97 -223l96 213l-97 223z" />
    </font>
</defs>
</svg>
