<?xml version="1.0" encoding="iso-8859-1"?>
<!-- Generator: Adobe Illustrator 18.0.0, SVG Export Plug-In . SVG Version: 6.00 Build 0)  -->
<!DOCTYPE svg PUBLIC "-//W3C//DTD SVG 1.1//EN" "http://www.w3.org/Graphics/SVG/1.1/DTD/svg11.dtd">
<svg version="1.1" id="Capa_1" xmlns="http://www.w3.org/2000/svg" xmlns:xlink="http://www.w3.org/1999/xlink" x="0px" y="0px"
	 viewBox="0 0 243.894 243.894" style="enable-background:new 0 0 243.894 243.894;" xml:space="preserve">
<g>
	<g>
		<g>
			<g>
				<g>
					<path style="fill:#2E2140;" d="M137.212,58.973h-30.53c-15.093,0-27.371-12.279-27.371-27.373v-4.228
						C79.311,12.279,91.589,0,106.682,0h30.53c15.094,0,27.372,12.279,27.372,27.372V31.6
						C164.584,46.694,152.306,58.973,137.212,58.973L137.212,58.973z M106.682,9.125c-10.061,0-18.247,8.185-18.247,18.247V31.6
						c0,10.062,8.187,18.248,18.247,18.248h30.53c10.061,0,18.248-8.186,18.248-18.248v-4.228c0-10.062-8.188-18.247-18.248-18.247
						H106.682L106.682,9.125z"/>
				</g>
			</g>
		</g>
		<g>
			<g>
				<g>
					<g>
						<path style="fill:#8C4646;" d="M53.83,203.378c0,10.871-8.814,19.684-19.686,19.684l0,0c-10.871,0-19.684-8.813-19.684-19.684
							v-14.291c0-10.871,8.813-19.685,19.684-19.685l0,0c10.871,0,19.686,8.814,19.686,19.685V203.378z"/>
					</g>
					<g>
						<path style="fill:#2E2140;" d="M34.145,226.894c-12.967,0-23.517-10.549-23.517-23.516v-14.291
							c0-12.967,10.55-23.516,23.517-23.516c12.967,0,23.517,10.549,23.517,23.516v14.291
							C57.661,216.345,47.112,226.894,34.145,226.894L34.145,226.894z M34.145,173.235c-8.741,0-15.853,7.111-15.853,15.853v14.291
							c0,8.741,7.112,15.852,15.853,15.852c8.741,0,15.854-7.111,15.854-15.852v-14.291
							C49.998,180.346,42.886,173.235,34.145,173.235L34.145,173.235z"/>
					</g>
				</g>
				<g>
					<g>
						<path style="fill:#8C4646;" d="M53.83,100.331c0,10.871-8.814,19.685-19.686,19.685l0,0c-10.871,0-19.684-8.813-19.684-19.685
							v-14.29c0-10.872,8.813-19.686,19.684-19.686l0,0c10.871,0,19.686,8.813,19.686,19.686V100.331z"/>
					</g>
					<g>
						<path style="fill:#2E2140;" d="M34.145,123.847c-12.967,0-23.517-10.55-23.517-23.517v-14.29
							c0-12.968,10.55-23.517,23.517-23.517c12.967,0,23.517,10.549,23.517,23.517v14.29
							C57.661,113.297,47.112,123.847,34.145,123.847L34.145,123.847z M34.145,70.186c-8.741,0-15.853,7.112-15.853,15.854v14.29
							c0,8.741,7.112,15.854,15.853,15.854c8.741,0,15.854-7.112,15.854-15.854v-14.29C49.998,77.298,42.886,70.186,34.145,70.186
							L34.145,70.186z"/>
					</g>
				</g>
				<g>
					<g>
						<path style="fill:#8C4646;" d="M229.435,203.378c0,10.871-8.814,19.684-19.685,19.684l0,0
							c-10.872,0-19.686-8.813-19.686-19.684v-14.291c0-10.871,8.813-19.685,19.686-19.685l0,0c10.87,0,19.685,8.814,19.685,19.685
							V203.378z"/>
					</g>
					<g>
						<path style="fill:#2E2140;" d="M209.75,226.894c-12.967,0-23.518-10.549-23.518-23.516v-14.291
							c0-12.967,10.551-23.516,23.518-23.516s23.516,10.549,23.516,23.516v14.291C233.266,216.345,222.717,226.894,209.75,226.894
							L209.75,226.894z M209.75,173.235c-8.742,0-15.854,7.111-15.854,15.853v14.291c0,8.741,7.112,15.852,15.854,15.852
							c8.741,0,15.853-7.111,15.853-15.852v-14.291C225.603,180.346,218.492,173.235,209.75,173.235L209.75,173.235z"/>
					</g>
				</g>
				<g>
					<g>
						<path style="fill:#8C4646;" d="M229.435,100.331c0,10.871-8.814,19.685-19.685,19.685l0,0
							c-10.872,0-19.686-8.813-19.686-19.685v-14.29c0-10.872,8.813-19.686,19.686-19.686l0,0c10.87,0,19.685,8.813,19.685,19.686
							V100.331z"/>
					</g>
					<g>
						<path style="fill:#2E2140;" d="M209.75,123.847c-12.967,0-23.518-10.55-23.518-23.517v-14.29
							c0-12.968,10.551-23.517,23.518-23.517s23.516,10.549,23.516,23.517v14.29C233.266,113.297,222.717,123.847,209.75,123.847
							L209.75,123.847z M209.75,70.186c-8.742,0-15.854,7.112-15.854,15.854v14.29c0,8.741,7.112,15.854,15.854,15.854
							c8.741,0,15.853-7.112,15.853-15.854v-14.29C225.603,77.298,218.492,70.186,209.75,70.186L209.75,70.186z"/>
					</g>
				</g>
			</g>
			<g>
				<g>
					<line style="fill:#8C4646;" x1="14.46" y1="93.186" x2="34.145" y2="93.186"/>
				</g>
				<g>
					<polygon style="fill:#2E2140;" points="34.145,95.102 14.46,95.102 14.46,91.27 34.145,91.27 34.145,95.102 					"/>
				</g>
			</g>
			<g>
				<g>
					<line style="fill:#8C4646;" x1="209.75" y1="93.186" x2="229.435" y2="93.186"/>
				</g>
				<g>
					<polygon style="fill:#2E2140;" points="229.435,95.102 209.75,95.102 209.75,91.27 229.435,91.27 229.435,95.102 					"/>
				</g>
			</g>
			<g>
				<g>
					<line style="fill:#8C4646;" x1="14.46" y1="198.719" x2="34.145" y2="198.719"/>
				</g>
				<g>
					<polygon style="fill:#2E2140;" points="34.145,200.635 14.46,200.635 14.46,196.804 34.145,196.804 34.145,200.635 					"/>
				</g>
			</g>
			<g>
				<g>
					<line style="fill:#8C4646;" x1="209.75" y1="198.719" x2="229.435" y2="198.719"/>
				</g>
				<g>
					<polygon style="fill:#2E2140;" points="229.435,200.635 209.75,200.635 209.75,196.804 229.435,196.804 229.435,200.635 					
						"/>
				</g>
			</g>
		</g>
		<g>
			<g>
				<path style="fill:#F2AE72;" d="M209.75,194.443c0,25.195-20.426,45.619-45.621,45.619H79.765
					c-25.196,0-45.62-20.424-45.62-45.619V77.833c0-25.195,20.424-45.62,45.62-45.62h84.364c25.195,0,45.621,20.425,45.621,45.62
					V194.443z"/>
			</g>
			<g>
				<path style="fill:#2E2140;" d="M164.129,243.894H79.765c-27.269,0-49.452-22.185-49.452-49.451V77.833
					c0-27.268,22.184-49.452,49.452-49.452h84.364c27.268,0,49.452,22.184,49.452,49.452v116.61
					C213.581,221.709,191.397,243.894,164.129,243.894L164.129,243.894z M79.765,36.044c-23.042,0-41.789,18.746-41.789,41.789
					v116.61c0,23.042,18.747,41.788,41.789,41.788h84.364c23.042,0,41.789-18.746,41.789-41.788V77.833
					c0-23.042-18.747-41.789-41.789-41.789H79.765L79.765,36.044z"/>
			</g>
		</g>
		<g>
			<g>
				<path style="fill:#D96459;" d="M181.615,198.519c0,13.721-11.12,24.842-24.84,24.842H87.119c-13.72,0-24.84-11.121-24.84-24.842
					V177.39c0-13.721,11.12-24.842,24.84-24.842h69.655c13.72,0,24.84,11.121,24.84,24.842V198.519z"/>
			</g>
			<g>
				<path style="fill:#2E2140;" d="M156.775,227.193H87.119c-15.809,0-28.671-12.862-28.671-28.674V177.39
					c0-15.812,12.862-28.674,28.671-28.674h69.655c15.81,0,28.672,12.862,28.672,28.674v21.129
					C185.447,214.331,172.584,227.193,156.775,227.193L156.775,227.193z M87.119,156.379c-11.583,0-21.008,9.426-21.008,21.011
					v21.129c0,11.585,9.425,21.011,21.008,21.011h69.655c11.584,0,21.009-9.426,21.009-21.011V177.39
					c0-11.585-9.425-21.011-21.009-21.011H87.119L87.119,156.379z"/>
			</g>
		</g>
		<g>
			<g>
				<path style="fill:#D96459;" d="M181.615,112.876c0,13.719-11.12,24.84-24.84,24.84H87.119c-13.72,0-24.84-11.121-24.84-24.84
					V91.745c0-13.719,11.12-24.842,24.84-24.842h69.655c13.72,0,24.84,11.123,24.84,24.842V112.876z"/>
			</g>
			<g>
				<path style="fill:#2E2140;" d="M156.775,141.547H87.119c-15.809,0-28.671-12.862-28.671-28.671V91.745
					c0-15.811,12.862-28.673,28.671-28.673h69.655c15.81,0,28.672,12.862,28.672,28.673v21.132
					C185.447,128.685,172.584,141.547,156.775,141.547L156.775,141.547z M87.119,70.735c-11.583,0-21.008,9.425-21.008,21.01v21.132
					c0,11.583,9.425,21.008,21.008,21.008h69.655c11.584,0,21.009-9.425,21.009-21.008V91.745c0-11.585-9.425-21.01-21.009-21.01
					H87.119L87.119,70.735z"/>
			</g>
		</g>
		<g>
			<g>
				<line style="fill:#00ADA7;" x1="62.28" y1="187.955" x2="181.615" y2="187.955"/>
			</g>
			<g>
				<polygon style="fill:#2E2140;" points="181.615,189.871 62.28,189.871 62.28,186.039 181.615,186.039 181.615,189.871 				"/>
			</g>
		</g>
		<g>
			<g>
				<path style="fill:#2E2140;" d="M181.615,197.191h-4.388v-1.916h4.388V197.191L181.615,197.191z M172.437,197.191h-4.789v-1.916
					h4.789V197.191L172.437,197.191z M162.859,197.191h-4.79v-1.916h4.79V197.191L162.859,197.191z M153.28,197.191h-4.789v-1.916
					h4.789V197.191L153.28,197.191z M143.701,197.191h-4.789v-1.916h4.789V197.191L143.701,197.191z M134.121,197.191h-4.789v-1.916
					h4.789V197.191L134.121,197.191z M124.543,197.191h-4.79v-1.916h4.79V197.191L124.543,197.191z M114.964,197.191h-4.79v-1.916
					h4.79V197.191L114.964,197.191z M105.385,197.191h-4.789v-1.916h4.789V197.191L105.385,197.191z M95.806,197.191h-4.789v-1.916
					h4.789V197.191L95.806,197.191z M86.227,197.191h-4.789v-1.916h4.789V197.191L86.227,197.191z M76.649,197.191h-4.79v-1.916
					h4.79V197.191L76.649,197.191z M67.07,197.191h-4.79v-1.916h4.79V197.191L67.07,197.191z"/>
			</g>
		</g>
		<g>
			<g>
				<line style="fill:#00ADA7;" x1="62.28" y1="101.745" x2="181.615" y2="101.745"/>
			</g>
			<g>
				<polygon style="fill:#2E2140;" points="181.615,103.661 62.28,103.661 62.28,99.829 181.615,99.829 181.615,103.661 				"/>
			</g>
		</g>
		<g>
			<g>
				<path style="fill:#2E2140;" d="M181.615,110.98h-4.388v-1.916h4.388V110.98L181.615,110.98z M172.437,110.98h-4.789v-1.916
					h4.789V110.98L172.437,110.98z M162.859,110.98h-4.79v-1.916h4.79V110.98L162.859,110.98z M153.28,110.98h-4.789v-1.916h4.789
					V110.98L153.28,110.98z M143.701,110.98h-4.789v-1.916h4.789V110.98L143.701,110.98z M134.121,110.98h-4.789v-1.916h4.789
					V110.98L134.121,110.98z M124.543,110.98h-4.79v-1.916h4.79V110.98L124.543,110.98z M114.964,110.98h-4.79v-1.916h4.79V110.98
					L114.964,110.98z M105.385,110.98h-4.789v-1.916h4.789V110.98L105.385,110.98z M95.806,110.98h-4.789v-1.916h4.789V110.98
					L95.806,110.98z M86.227,110.98h-4.789v-1.916h4.789V110.98L86.227,110.98z M76.649,110.98h-4.79v-1.916h4.79V110.98
					L76.649,110.98z M67.07,110.98h-4.79v-1.916h4.79V110.98L67.07,110.98z"/>
			</g>
		</g>
		<g>
			<g>
				<path style="fill:#79BD8F;" d="M181.394,35.604c-5.326-2.181-11.152-3.392-17.265-3.392H79.765
					c-6.111,0-11.936,1.211-17.263,3.392c3.831,17.262,11.417,45.387,20.149,45.387h78.592
					C169.976,80.991,177.562,52.866,181.394,35.604z"/>
			</g>
			<g>
				<path style="fill:#2E2140;" d="M161.243,84.823H82.652c-5.759,0-10.685-5.942-15.497-18.7c-3.62-9.593-6.563-21.44-8.394-29.689
					l-0.7-3.153l2.988-1.223c5.963-2.44,12.259-3.677,18.716-3.677h84.364c6.46,0,12.757,1.237,18.717,3.678l2.988,1.223
					l-0.699,3.153c-1.833,8.25-4.775,20.098-8.394,29.688C171.928,78.88,167.003,84.823,161.243,84.823L161.243,84.823z
					 M66.983,38.043c7.38,31.826,13.911,39.117,15.669,39.117h78.592c1.757,0,8.287-7.291,15.668-39.117
					c-4.12-1.328-8.407-1.999-12.782-1.999H79.765C75.391,36.044,71.106,36.715,66.983,38.043L66.983,38.043z"/>
			</g>
		</g>
		<g>
			<g>
				<path style="fill:#2E2140;" d="M121.948,43.772c-2.52,0-4.563,2.042-4.563,4.562v50.679c0,2.519,2.043,4.562,4.563,4.562
					c2.518,0,4.562-2.043,4.562-4.562V48.334C126.51,45.814,124.466,43.772,121.948,43.772z"/>
			</g>
		</g>
		<g>
			<g>
				<g>
					<circle style="fill:#00ADA7;" cx="121.948" cy="94.816" r="1.879"/>
				</g>
			</g>
			<g>
				<g>
					<circle style="fill:#00ADA7;" cx="121.948" cy="86.358" r="1.879"/>
				</g>
			</g>
			<g>
				<g>
					<circle style="fill:#00ADA7;" cx="121.948" cy="77.902" r="1.879"/>
				</g>
			</g>
			<g>
				<g>
					<circle style="fill:#00ADA7;" cx="121.948" cy="69.445" r="1.879"/>
				</g>
			</g>
			<g>
				<g>
					<circle style="fill:#00ADA7;" cx="121.948" cy="60.987" r="1.879"/>
				</g>
			</g>
			<g>
				<g>
					<circle style="fill:#00ADA7;" cx="121.948" cy="52.531" r="1.879"/>
				</g>
			</g>
		</g>
		<g style="opacity:0.3;">
			<g>
				<path style="fill:#2E2140;" d="M62.28,101.745v11.132c0,13.719,11.12,24.84,24.84,24.84h69.655
					c13.72,0,24.84-11.121,24.84-24.84v-11.132H62.28z"/>
			</g>
		</g>
		<g style="opacity:0.3;">
			<g>
				<path style="fill:#2E2140;" d="M62.28,187.09v11.132c0,13.719,11.12,24.841,24.84,24.841h69.655
					c13.72,0,24.84-11.122,24.84-24.841V187.09H62.28z"/>
			</g>
		</g>
	</g>
</g>
<g>
</g>
<g>
</g>
<g>
</g>
<g>
</g>
<g>
</g>
<g>
</g>
<g>
</g>
<g>
</g>
<g>
</g>
<g>
</g>
<g>
</g>
<g>
</g>
<g>
</g>
<g>
</g>
<g>
</g>
</svg>
