<?xml version="1.0" encoding="iso-8859-1"?>
<!-- Generator: Adobe Illustrator 18.0.0, SVG Export Plug-In . SVG Version: 6.00 Build 0)  -->
<!DOCTYPE svg PUBLIC "-//W3C//DTD SVG 1.1//EN" "http://www.w3.org/Graphics/SVG/1.1/DTD/svg11.dtd">
<svg version="1.1" id="Capa_1" xmlns="http://www.w3.org/2000/svg" xmlns:xlink="http://www.w3.org/1999/xlink" x="0px" y="0px"
	 viewBox="0 0 274.715 274.715" style="enable-background:new 0 0 274.715 274.715;" xml:space="preserve">
<g>
	<path style="fill:none;" d="M148.981,19.324c0-3.283-2.667-5.951-5.947-5.951h-11.352c-3.282,0-5.95,2.668-5.95,5.951v12.559
		h23.249V19.324z"/>
	<path style="fill:#C7B773;" d="M32.478,198.746v-37.84l-19.156,19.156c-0.164,0.165-0.348,0.294-0.526,0.432
		C16.134,189.248,23.425,196.062,32.478,198.746z"/>
	<path style="fill:#C7B773;" d="M10.816,145.446v22.657l21.662-21.664v-29.992C19.97,120.156,10.816,131.749,10.816,145.446z"/>
	<path style="fill:#C7B773;" d="M262.204,179.716c-0.791-0.222-1.541-0.623-2.161-1.246l-17.808-17.807v38.083
		C251.555,195.982,259.007,188.843,262.204,179.716z"/>
	<path style="fill:#C7B773;" d="M242.235,116.448v30.226l21.664,21.665v-22.893C263.899,131.749,254.745,120.157,242.235,116.448z"
		/>
	<path style="fill:#05293D;" d="M242.235,108.183v-9.124c0-37.041-30.136-67.176-67.177-67.176h-12.7V19.324
		C162.358,8.669,153.686,0,143.034,0h-11.352c-10.655,0-19.324,8.669-19.324,19.324v12.559H99.657
		c-37.043,0-67.179,30.135-67.179,67.176v9.124c-16.967,3.907-29.662,19.125-29.662,37.263v24.302
		c0,18.138,12.695,33.356,29.662,37.263v0.528c0,37.041,30.136,67.176,67.179,67.176h75.401c37.041,0,67.177-30.135,67.177-67.176
		v-0.528c16.969-3.907,29.664-19.125,29.664-37.262v-24.302C271.899,127.308,259.204,112.09,242.235,108.183z M175.058,266.715
		H99.657c-32.631,0-59.179-26.546-59.179-59.176v-76.819h83.279v13.664h-9.167c-3.694,0-6.688,2.992-6.688,6.686
		c0,3.694,2.993,6.684,6.688,6.684h9.167v5.177c0,8.648,6.496,15.684,14.486,15.684c7.987,0,14.486-7.036,14.486-15.684v-5.177
		h10.345c3.694,0,6.688-2.99,6.688-6.684c0-3.694-2.993-6.686-6.688-6.686H152.73v-13.664h81.505v76.819
		C234.235,240.168,207.688,266.715,175.058,266.715z M99.657,39.883h75.401c32.63,0,59.177,26.546,59.177,59.176v23.66H152.73V90.51
		c0-8.649-6.499-15.685-14.486-15.685c-7.99,0-14.486,7.036-14.486,15.685v31.431l-0.392,0.731l0.089,0.048H40.478v-23.66
		C40.478,66.429,67.026,39.883,99.657,39.883z M263.899,168.339l-21.664-21.665v-30.226c12.51,3.709,21.664,15.302,21.664,28.998
		V168.339z M141.583,144.383h-6.683V90.51c0-2.462,1.531-4.54,3.343-4.54c1.812,0,3.34,2.078,3.34,4.54V144.383z M134.901,157.753
		h6.683v5.177c0,2.468-1.528,4.539-3.34,4.539c-1.811,0-3.343-2.071-3.343-4.539V157.753z M32.478,146.439l-21.662,21.664v-22.657
		c0-13.697,9.154-25.29,21.662-28.999V146.439z M13.322,180.062l19.156-19.156v37.84c-9.053-2.684-16.344-9.498-19.683-18.252
		C12.974,180.357,13.158,180.227,13.322,180.062z M242.235,160.663l17.808,17.807c0.62,0.623,1.37,1.023,2.161,1.246
		c-3.196,9.127-10.648,16.267-19.969,19.03V160.663z M125.732,19.324c0-3.283,2.668-5.951,5.95-5.951h11.352
		c3.28,0,5.947,2.668,5.947,5.951v12.559h-23.249V19.324z"/>
	<path style="fill:#5C4B51;" d="M40.478,122.719h82.976l-0.089-0.048l0.392-0.731V90.51c0-8.649,6.496-15.685,14.486-15.685
		c7.987,0,14.486,7.036,14.486,15.685v32.21h81.505v-23.66c0-32.63-26.547-59.176-59.177-59.176H99.657
		c-32.631,0-59.179,26.546-59.179,59.176V122.719z M119.49,120.59l-3.873-2.088l2.082-3.87l3.871,2.081L119.49,120.59z
		 M156.43,121.393l-2.081-3.87l3.872-2.081l2.084,3.875L156.43,121.393z M227.937,77.959l2.083,3.874l-3.874,2.082l-2.085-3.878
		L227.937,77.959z M220.191,82.122l2.08,3.874l-3.873,2.084l-2.082-3.877L220.191,82.122z M212.443,86.288l2.086,3.874l-3.877,2.082
		l-2.081-3.872L212.443,86.288z M204.7,90.455l2.076,3.87l-3.872,2.085l-2.076-3.878L204.7,90.455z M196.95,94.617l2.085,3.867
		l-3.873,2.089l-2.084-3.872L196.95,94.617z M189.204,98.785l2.082,3.87l-3.869,2.084l-2.085-3.873L189.204,98.785z M181.46,102.946
		l2.08,3.878l-3.876,2.079l-2.077-3.872L181.46,102.946z M173.711,107.109l2.086,3.874l-3.876,2.085l-2.082-3.874L173.711,107.109z
		 M168.052,115.149l-3.877,2.083l-2.083-3.872l3.874-2.084L168.052,115.149z M109.954,110.464l3.874,2.088l-2.086,3.868
		l-3.873-2.079L109.954,110.464z M102.207,106.303l3.874,2.081l-2.083,3.877l-3.875-2.088L102.207,106.303z M94.459,102.135
		l3.873,2.083l-2.079,3.874l-3.874-2.082L94.459,102.135z M86.717,97.974l3.869,2.08l-2.082,3.874l-3.873-2.086L86.717,97.974z
		 M78.968,93.806l3.874,2.082l-2.086,3.875l-3.871-2.079L78.968,93.806z M71.221,89.644l3.873,2.081L73.011,95.6l-3.871-2.085
		L71.221,89.644z M63.474,85.477l3.874,2.079l-2.083,3.878l-3.873-2.078L63.474,85.477z M55.732,81.316l3.87,2.081l-2.079,3.87
		l-3.876-2.081L55.732,81.316z M47.981,77.148l3.876,2.078l-2.08,3.875l-3.876-2.075L47.981,77.148z"/>
	<path style="fill:#5C4B51;" d="M234.235,130.719H152.73v13.664h10.345c3.694,0,6.688,2.992,6.688,6.686
		c0,3.694-2.993,6.684-6.688,6.684H152.73v5.177c0,8.648-6.499,15.684-14.486,15.684c-7.99,0-14.486-7.036-14.486-15.684v-5.177
		h-9.167c-3.694,0-6.688-2.99-6.688-6.684c0-3.694,2.993-6.686,6.688-6.686h9.167v-13.664H40.478v76.819
		c0,32.63,26.548,59.176,59.179,59.176h75.401c32.63,0,59.177-26.546,59.177-59.176V130.719z M197.504,236.461
		c0,10.837-6.81,19.324-15.494,19.324H94.477c-8.684,0-15.49-8.487-15.49-19.324v-35.176c0-10.837,6.807-19.324,15.49-19.324h87.533
		c8.684,0,15.494,8.487,15.494,19.324V236.461z"/>
	<path style="fill:#E3DB9A;" d="M179.285,213.678h-4.462v-2.233h-4.457v2.233h-4.457v-2.233h-4.457v2.233h-4.458v-2.233h-4.457
		v2.233h-4.458v-2.233h-4.456v2.233h-4.458v-2.233h-4.457v2.233h-4.46v-2.233h-4.456v2.233h-4.46v-2.233h-4.454v2.233h-4.457v-2.233
		h-4.459v2.233h-4.46v-2.233h-4.454v2.233h-4.461v-2.233h-2.229v25.017c0,3.617,1.601,5.734,2.237,5.967l87.339-0.017
		c0.659-0.3,2.193-2.401,2.193-5.95v-22.783h-0.39v-2.233h-4.453V213.678z"/>
	<path style="fill:#E3DB9A;" d="M181.893,195.322l-87.416,0.012c-0.519,0.216-2.119,2.334-2.119,5.951v10.16h2.229v-2.224h4.461
		v2.224h4.454v-2.224h4.46v2.224h4.459v-2.224h4.457v2.224h4.454v-2.224h4.46v2.224h4.456v-2.224h4.46v2.224h4.457v-2.224h4.458
		v2.224h4.456v-2.224h4.458v2.224h4.457v-2.224h4.458v2.224h4.457v-2.224h4.457v2.224h4.457v-2.224h4.462v2.224h4.453v-2.224h0.39
		v-7.936C184.127,197.668,182.531,195.55,181.893,195.322z"/>
	<path style="fill:#05293D;" d="M182.01,181.96H94.477c-8.684,0-15.49,8.487-15.49,19.324v35.176
		c0,10.837,6.807,19.324,15.49,19.324h87.533c8.684,0,15.494-8.487,15.494-19.324v-35.176
		C197.504,190.447,190.694,181.96,182.01,181.96z M183.738,209.22v2.224v2.233h0.39v22.783c0,3.549-1.534,5.65-2.193,5.95
		l-87.339,0.017c-0.637-0.233-2.237-2.351-2.237-5.967v-25.017H90.13h2.228v-10.16c0-3.617,1.601-5.734,2.119-5.951l87.416-0.012
		c0.638,0.229,2.234,2.346,2.234,5.963v7.936H183.738z M188.196,211.444h2.622H188.196z"/>
	
		<line style="fill:none;stroke:#E3DB9A;stroke-width:0;stroke-linecap:round;stroke-linejoin:round;" x1="174.823" y1="211.444" x2="170.366" y2="211.444"/>
	
		<line style="fill:none;stroke:#E3DB9A;stroke-width:0;stroke-linecap:round;stroke-linejoin:round;" x1="156.994" y1="211.444" x2="152.537" y2="211.444"/>
	
		<line style="fill:none;stroke:#E3DB9A;stroke-width:0;stroke-linecap:round;stroke-linejoin:round;" x1="112.42" y1="211.444" x2="107.961" y2="211.444"/>
	
		<line style="fill:none;stroke:#E3DB9A;stroke-width:0;stroke-linecap:round;stroke-linejoin:round;" x1="103.501" y1="211.444" x2="99.047" y2="211.444"/>
	
		<line style="fill:none;stroke:#E3DB9A;stroke-width:0;stroke-linecap:round;stroke-linejoin:round;" x1="94.586" y1="211.444" x2="92.358" y2="211.444"/>
	
		<line style="fill:none;stroke:#E3DB9A;stroke-width:0;stroke-linecap:round;stroke-linejoin:round;" x1="121.331" y1="211.444" x2="116.877" y2="211.444"/>
	
		<line style="fill:none;stroke:#E3DB9A;stroke-width:0;stroke-linecap:round;stroke-linejoin:round;" x1="139.164" y1="211.444" x2="134.707" y2="211.444"/>
	
		<line style="fill:none;stroke:#E3DB9A;stroke-width:0;stroke-linecap:round;stroke-linejoin:round;" x1="148.079" y1="211.444" x2="143.622" y2="211.444"/>
	
		<line style="fill:none;stroke:#E3DB9A;stroke-width:0;stroke-linecap:round;stroke-linejoin:round;" x1="165.909" y1="211.444" x2="161.452" y2="211.444"/>
	
		<line style="fill:none;stroke:#E3DB9A;stroke-width:0;stroke-linecap:round;stroke-linejoin:round;" x1="183.738" y1="211.444" x2="179.285" y2="211.444"/>
	
		<line style="fill:none;stroke:#E3DB9A;stroke-width:0;stroke-linecap:round;stroke-linejoin:round;" x1="92.358" y1="211.444" x2="90.13" y2="211.444"/>
	
		<line style="fill:none;stroke:#E3DB9A;stroke-width:0;stroke-linecap:round;stroke-linejoin:round;" x1="130.247" y1="211.444" x2="125.791" y2="211.444"/>
	
		<line style="fill:none;stroke:#E3DB9A;stroke-width:0;stroke-linecap:round;stroke-linejoin:round;" x1="188.196" y1="211.444" x2="190.818" y2="211.444"/>
	<polygon style="fill:#05293D;" points="125.791,213.678 125.791,211.444 125.791,209.22 121.331,209.22 121.331,211.444 
		121.331,213.678 	"/>
	<polygon style="fill:#05293D;" points="143.622,213.678 143.622,211.444 143.622,209.22 139.164,209.22 139.164,211.444 
		139.164,213.678 	"/>
	<polygon style="fill:#05293D;" points="161.452,213.678 161.452,211.444 161.452,209.22 156.994,209.22 156.994,211.444 
		156.994,213.678 	"/>
	<polygon style="fill:#05293D;" points="134.707,213.678 134.707,211.444 134.707,209.22 130.247,209.22 130.247,211.444 
		130.247,213.678 	"/>
	<polygon style="fill:#05293D;" points="179.285,213.678 179.285,211.444 179.285,209.22 174.823,209.22 174.823,211.444 
		174.823,213.678 	"/>
	<polygon style="fill:#05293D;" points="170.366,213.678 170.366,211.444 170.366,209.22 165.909,209.22 165.909,211.444 
		165.909,213.678 	"/>
	<polygon style="fill:#05293D;" points="116.877,213.678 116.877,211.444 116.877,209.22 112.42,209.22 112.42,211.444 
		112.42,213.678 	"/>
	<polygon style="fill:#05293D;" points="152.537,213.678 152.537,211.444 152.537,209.22 148.079,209.22 148.079,211.444 
		148.079,213.678 	"/>
	<polygon style="fill:#05293D;" points="107.961,213.678 107.961,211.444 107.961,209.22 103.501,209.22 103.501,211.444 
		103.501,213.678 	"/>
	<polygon style="fill:#05293D;" points="99.047,213.678 99.047,211.444 99.047,209.22 94.586,209.22 94.586,211.444 94.586,213.678 
			"/>
	<polygon style="fill:#05293D;" points="183.54,106.824 181.46,102.946 177.587,105.031 179.664,108.902 	"/>
	
		<rect x="170.618" y="107.89" transform="matrix(0.4741 0.8805 -0.8805 0.4741 187.8213 -94.2654)" style="fill:#05293D;" width="4.4" height="4.398"/>
	<polygon style="fill:#05293D;" points="113.828,112.553 109.954,110.464 107.869,114.342 111.742,116.421 	"/>
	
		<rect x="186.111" y="99.562" transform="matrix(0.4738 0.8807 -0.8807 0.4738 188.7099 -112.2844)" style="fill:#05293D;" width="4.395" height="4.396"/>
	
		<rect x="162.87" y="112.053" transform="matrix(-0.881 0.4732 -0.4732 -0.881 364.5552 136.7938)" style="fill:#05293D;" width="4.401" height="4.4"/>
	
		<rect x="217.095" y="82.901" transform="matrix(0.473 0.8811 -0.8811 0.473 190.547 -148.3637)" style="fill:#05293D;" width="4.398" height="4.398"/>
	
		<rect x="193.859" y="95.394" transform="matrix(0.4746 0.8802 -0.8802 0.4746 188.9216 -121.2938)" style="fill:#05293D;" width="4.393" height="4.398"/>
	
		<rect x="209.35" y="87.068" transform="matrix(0.4741 0.8805 -0.8805 0.4741 189.8413 -139.317)" style="fill:#05293D;" width="4.4" height="4.397"/>
	<polygon style="fill:#05293D;" points="106.081,108.383 102.207,106.303 100.123,110.172 103.998,112.261 	"/>
	
		<rect x="62.172" y="86.255" transform="matrix(0.8811 0.4729 -0.4729 0.8811 49.4812 -19.9243)" style="fill:#05293D;" width="4.397" height="4.402"/>
	<polygon style="fill:#05293D;" points="59.602,83.396 55.732,81.316 53.647,85.185 57.523,87.266 	"/>
	
		<rect x="69.919" y="90.423" transform="matrix(0.8809 0.4733 -0.4733 0.8809 52.4266 -23.1022)" style="fill:#05293D;" width="4.397" height="4.394"/>
	
		<rect x="46.68" y="77.926" transform="matrix(0.8813 0.4725 -0.4725 0.8813 43.6615 -13.5868)" style="fill:#05293D;" width="4.398" height="4.4"/>
	<polygon style="fill:#05293D;" points="90.586,100.054 86.717,97.974 84.631,101.843 88.504,103.928 	"/>
	
		<rect x="93.157" y="102.915" transform="matrix(0.8807 0.4737 -0.4737 0.8807 61.1627 -32.6269)" style="fill:#05293D;" width="4.398" height="4.398"/>
	
		<rect x="77.665" y="94.585" transform="matrix(0.8808 0.4735 -0.4735 0.8808 55.3462 -26.2775)" style="fill:#05293D;" width="4.398" height="4.402"/>
	
		<rect x="224.841" y="78.736" transform="matrix(0.4736 0.8808 -0.8808 0.4736 190.8075 -157.3609)" style="fill:#05293D;" width="4.399" height="4.398"/>
	<polygon style="fill:#05293D;" points="206.776,94.325 204.7,90.455 200.828,92.532 202.904,96.41 	"/>
	<polygon style="fill:#05293D;" points="154.349,117.523 156.43,121.393 160.305,119.317 158.221,115.442 	"/>
	<polygon style="fill:#05293D;" points="115.617,118.502 119.49,120.59 121.57,116.712 117.699,114.632 	"/>
	<path style="fill:#E3DB9A;" d="M138.244,167.469c1.812,0,3.34-2.071,3.34-4.539v-5.177h-6.683v5.177
		C134.901,165.397,136.432,167.469,138.244,167.469z"/>
	<path style="fill:#E3DB9A;" d="M138.244,85.97c-1.811,0-3.343,2.078-3.343,4.54v53.873h6.683V90.51
		C141.583,88.048,140.055,85.97,138.244,85.97z"/>
</g>
<g>
</g>
<g>
</g>
<g>
</g>
<g>
</g>
<g>
</g>
<g>
</g>
<g>
</g>
<g>
</g>
<g>
</g>
<g>
</g>
<g>
</g>
<g>
</g>
<g>
</g>
<g>
</g>
<g>
</g>
</svg>
