<?xml version="1.0" encoding="iso-8859-1"?>
<!-- Generator: Adobe Illustrator 18.0.0, SVG Export Plug-In . SVG Version: 6.00 Build 0)  -->
<!DOCTYPE svg PUBLIC "-//W3C//DTD SVG 1.1//EN" "http://www.w3.org/Graphics/SVG/1.1/DTD/svg11.dtd">
<svg version="1.1" id="Capa_1" xmlns="http://www.w3.org/2000/svg" xmlns:xlink="http://www.w3.org/1999/xlink" x="0px" y="0px"
	 viewBox="0 0 176.36 176.36" style="enable-background:new 0 0 176.36 176.36;" xml:space="preserve">
<g>
	<g>
		<g>
			<g>
				<circle style="fill:#FFF6E5;" cx="115.959" cy="62.451" r="7.287"/>
			</g>
			<g>
				<path style="fill:#2E2140;" d="M115.959,73.048c-5.844,0-10.597-4.753-10.597-10.597c0-5.844,4.753-10.598,10.597-10.598
					c5.844,0,10.598,4.754,10.598,10.598C126.557,68.295,121.803,73.048,115.959,73.048L115.959,73.048z M115.959,58.473
					c-2.193,0-3.979,1.785-3.979,3.979c0,2.193,1.785,3.978,3.979,3.978c2.193,0,3.978-1.784,3.978-3.978
					C119.937,60.258,118.152,58.473,115.959,58.473L115.959,58.473z"/>
			</g>
		</g>
		<g>
			<g>
				<path style="fill:#8C4646;" d="M115.959,64.106c-31.53,0-57.091,25.561-57.091,57.092h114.183
					C173.051,89.667,147.49,64.106,115.959,64.106z"/>
			</g>
			<g>
				<path style="fill:#2E2140;" d="M176.36,124.507H55.559v-3.31c0-33.305,27.096-60.401,60.4-60.401s60.401,27.097,60.401,60.401
					V124.507L176.36,124.507z M62.278,117.888H169.64c-1.715-28.12-25.137-50.473-53.681-50.473
					C87.416,67.415,63.993,89.768,62.278,117.888L62.278,117.888z"/>
			</g>
		</g>
		<g>
			<g>
				<line style="fill:#176D8C;" x1="3.31" y1="121.197" x2="69.533" y2="121.197"/>
			</g>
			<g>
				<path style="fill:#2E2140;" d="M69.533,124.507H3.31c-1.828,0-3.31-1.482-3.31-3.31c0-1.827,1.481-3.31,3.31-3.31h66.224
					c1.828,0,3.31,1.482,3.31,3.31C72.843,123.024,71.361,124.507,69.533,124.507L69.533,124.507z"/>
			</g>
		</g>
		<g>
			<g>
				<path style="fill:#FFF6E5;" d="M58.868,121.197h40.984V66.425C76.168,73.38,58.868,95.262,58.868,121.197z"/>
			</g>
			<g>
				<path style="fill:#2E2140;" d="M103.162,124.507H55.559v-3.31c0-26.622,17.831-50.451,43.362-57.948l4.241-1.245V124.507
					L103.162,124.507z M62.281,117.888h34.262V71.044C77.125,78.582,63.586,97.027,62.281,117.888L62.281,117.888z"/>
			</g>
		</g>
	</g>
</g>
<g>
</g>
<g>
</g>
<g>
</g>
<g>
</g>
<g>
</g>
<g>
</g>
<g>
</g>
<g>
</g>
<g>
</g>
<g>
</g>
<g>
</g>
<g>
</g>
<g>
</g>
<g>
</g>
<g>
</g>
</svg>
