<?xml version="1.0" encoding="iso-8859-1"?>
<!-- Generator: Adobe Illustrator 18.0.0, SVG Export Plug-In . SVG Version: 6.00 Build 0)  -->
<!DOCTYPE svg PUBLIC "-//W3C//DTD SVG 1.1//EN" "http://www.w3.org/Graphics/SVG/1.1/DTD/svg11.dtd">
<svg version="1.1" id="Capa_1" xmlns="http://www.w3.org/2000/svg" xmlns:xlink="http://www.w3.org/1999/xlink" x="0px" y="0px"
	 viewBox="0 0 236.663 236.663" style="enable-background:new 0 0 236.663 236.663;" xml:space="preserve">
<g>
	<path style="fill:#F2F2F2;" d="M230.334,119.016c0-36.032-29.838-65.346-66.514-65.346l-26.207,0.707
		c2.811,1.494,5.508,3.198,8.055,5.16l22.996-0.736c28.409-0.001,51.484,26.757,51.484,59.648c0,32.893-23.075,59.652-51.433,59.652
		l-23.335-1.104c-2.916,2.331-6.035,4.419-9.331,6.26l27.898,1.109C200.496,184.364,230.334,155.047,230.334,119.016z"/>
	<path style="opacity:0.73;fill:#05293D;" d="M230.334,119.016c0-36.032-29.838-65.346-66.514-65.346l-26.207,0.707
		c2.811,1.494,5.508,3.198,8.055,5.16l22.996-0.736c28.409-0.001,51.484,26.757,51.484,59.648c0,32.893-23.075,59.652-51.433,59.652
		l-23.335-1.104c-2.916,2.331-6.035,4.419-9.331,6.26l27.898,1.109C200.496,184.364,230.334,155.047,230.334,119.016z"/>
	<path style="fill:#F2F2F2;" d="M216.986,118.448c0-31.146-21.654-56.484-48.27-56.484l-19.444,0.622
		c3.513,3.258,6.654,7.094,9.294,11.626c2.781,4.135,5.182,8.596,7.132,13.257c4.061,9.702,6.118,20.011,6.118,30.636
		c0,17.581-5.609,34.214-16.228,48.096c-2.102,2.746-4.438,5.332-6.889,7.787l20.09,0.949
		C195.332,174.935,216.986,149.595,216.986,118.448z"/>
	<path style="opacity:0.73;fill:#05293D;" d="M216.986,118.448c0-31.146-21.654-56.484-48.27-56.484l-19.444,0.622
		c3.513,3.258,6.654,7.094,9.294,11.626c2.781,4.135,5.182,8.596,7.132,13.257c4.061,9.702,6.118,20.011,6.118,30.636
		c0,17.581-5.609,34.214-16.228,48.096c-2.102,2.746-4.438,5.332-6.889,7.787l20.09,0.949
		C195.332,174.935,216.986,149.595,216.986,118.448z"/>
	<path style="fill:#F2F2F2;" d="M146.768,125.397c3.182,0.068,6.162-2.371,6.162-6.23c0-3.586-2.371-6.023-5.484-6.023
		c-3.859,0-6.162,2.91-7.245,6.904C141.149,123.434,143.586,125.397,146.768,125.397z"/>
	<path style="opacity:0.73;fill:#05293D;" d="M146.768,125.397c3.182,0.068,6.162-2.371,6.162-6.23c0-3.586-2.371-6.023-5.484-6.023
		c-3.859,0-6.162,2.91-7.245,6.904C141.149,123.434,143.586,125.397,146.768,125.397z"/>
	<path style="fill:#F2F2F2;" d="M141.847,169.699c2.691-2.561,5.2-5.358,7.457-8.309c9.551-12.488,14.6-27.458,14.6-43.286
		c0-9.568-1.849-18.852-5.505-27.58c-1.767-4.227-3.943-8.262-6.465-11.996l-0.147-0.232c-7.394-12.786-19.494-19.248-32.862-22.647
		c-4.865,3.576-14.337,15.416-21.402,54.249c3.119,1.409,5.303,4.547,5.303,8.207c0,3.652-2.184,6.791-5.298,8.202
		c3.225,17.565,7.213,29.671,11.136,38.025c0.065,0.114,0.131,0.222,0.196,0.338c0.434,0.781,1.149,2.217,2,3.985
		c3.955,7.154,7.681,10.717,10.295,12.469C128.927,178.518,135.994,174.681,141.847,169.699z M114.541,118.897
		c0-10.291,5.959-14.556,11.306-14.556c3.793,0,7.517,2.03,9.682,6.433h0.204c1.625-4.334,5.281-8.125,10.9-8.125
		c7.989,0,13.404,6.703,13.404,16.926c0,11.17-6.295,16.316-12.253,16.316c-5.281,0-8.938-3.047-11.037-7.854h-0.135
		c-2.234,4.266-5.821,6.365-9.681,6.365C119.484,134.402,114.541,127.699,114.541,118.897z"/>
	<path style="opacity:0.73;fill:#05293D;" d="M141.847,169.699c2.691-2.561,5.2-5.358,7.457-8.309
		c9.551-12.488,14.6-27.458,14.6-43.286c0-9.568-1.849-18.852-5.505-27.58c-1.767-4.227-3.943-8.262-6.465-11.996l-0.147-0.232
		c-7.394-12.786-19.494-19.248-32.862-22.647c-4.865,3.576-14.337,15.416-21.402,54.249c3.119,1.409,5.303,4.547,5.303,8.207
		c0,3.652-2.184,6.791-5.298,8.202c3.225,17.565,7.213,29.671,11.136,38.025c0.065,0.114,0.131,0.222,0.196,0.338
		c0.434,0.781,1.149,2.217,2,3.985c3.955,7.154,7.681,10.717,10.295,12.469C128.927,178.518,135.994,174.681,141.847,169.699z
		 M114.541,118.897c0-10.291,5.959-14.556,11.306-14.556c3.793,0,7.517,2.03,9.682,6.433h0.204c1.625-4.334,5.281-8.125,10.9-8.125
		c7.989,0,13.404,6.703,13.404,16.926c0,11.17-6.295,16.316-12.253,16.316c-5.281,0-8.938-3.047-11.037-7.854h-0.135
		c-2.234,4.266-5.821,6.365-9.681,6.365C119.484,134.402,114.541,127.699,114.541,118.897z"/>
	<path style="fill:#F2F2F2;" d="M93.88,115.426c-1.441,0-2.614,1.202-2.614,2.679c0,1.477,1.173,2.674,2.614,2.674
		c1.441,0,2.614-1.197,2.614-2.674C96.493,116.628,95.321,115.426,93.88,115.426z"/>
	<path style="opacity:0.73;fill:#05293D;" d="M93.88,115.426c-1.441,0-2.614,1.202-2.614,2.679c0,1.477,1.173,2.674,2.614,2.674
		c1.441,0,2.614-1.197,2.614-2.674C96.493,116.628,95.321,115.426,93.88,115.426z"/>
	<path style="fill:#F2F2F2;" d="M132.551,118.49c-0.677-2.369-2.845-4.467-5.553-4.467c-2.775,0-5.484,1.557-5.484,5.348
		c0,3.521,2.371,5.279,5.079,5.279C129.571,124.651,131.466,122.012,132.551,118.49z"/>
	<path style="opacity:0.73;fill:#05293D;" d="M132.551,118.49c-0.677-2.369-2.845-4.467-5.553-4.467
		c-2.775,0-5.484,1.557-5.484,5.348c0,3.521,2.371,5.279,5.079,5.279C129.571,124.651,131.466,122.012,132.551,118.49z"/>
	<path style="fill:#F2F2F2;" d="M87.373,111.967c1.024-1.104,2.318-1.921,3.775-2.395c4.517-25.184,10.684-43.107,18.355-53.239
		c0.646-0.857,1.254-1.599,1.837-2.28c-5.748-0.995-11.612-1.566-17.329-1.941c-5.402-0.468-10.157-0.593-14.618-0.388l-0.36,0.018
		l-0.354-0.048c-6.167-0.833-12.63,1.499-18.079,4.315C61.409,63.048,65.651,82.342,87.373,111.967z"/>
	<path style="opacity:0.73;fill:#05293D;" d="M87.373,111.967c1.024-1.104,2.318-1.921,3.775-2.395
		c4.517-25.184,10.684-43.107,18.355-53.239c0.646-0.857,1.254-1.599,1.837-2.28c-5.748-0.995-11.612-1.566-17.329-1.941
		c-5.402-0.468-10.157-0.593-14.618-0.388l-0.36,0.018l-0.354-0.048c-6.167-0.833-12.63,1.499-18.079,4.315
		C61.409,63.048,65.651,82.342,87.373,111.967z"/>
	<path style="opacity:0.73;fill:#05293D;" d="M87.373,111.967c1.024-1.104,2.318-1.921,3.775-2.395
		c4.517-25.184,10.684-43.107,18.355-53.239c0.646-0.857,1.254-1.599,1.837-2.28c-5.748-0.995-11.612-1.566-17.329-1.941
		c-5.402-0.468-10.157-0.593-14.618-0.388l-0.36,0.018l-0.354-0.048c-6.167-0.833-12.63,1.499-18.079,4.315
		C61.409,63.048,65.651,82.342,87.373,111.967z"/>
	<path style="fill:#F2F2F2;" d="M91.152,126.636c-1.909-0.621-3.56-1.84-4.669-3.477c-16.825,18.479-21.657,46.06-22.85,55.456
		c6.429,2.695,13.42,4.639,20.818,5.676c9.984,1.398,19.916,0.973,29.132-1.064C106.347,176.148,97.283,160.605,91.152,126.636z"/>
	<path style="opacity:0.73;fill:#05293D;" d="M91.152,126.636c-1.909-0.621-3.56-1.84-4.669-3.477
		c-16.825,18.479-21.657,46.06-22.85,55.456c6.429,2.695,13.42,4.639,20.818,5.676c9.984,1.398,19.916,0.973,29.132-1.064
		C106.347,176.148,97.283,160.605,91.152,126.636z"/>
	<path style="opacity:0.73;fill:#05293D;" d="M91.152,126.636c-1.909-0.621-3.56-1.84-4.669-3.477
		c-16.825,18.479-21.657,46.06-22.85,55.456c6.429,2.695,13.42,4.639,20.818,5.676c9.984,1.398,19.916,0.973,29.132-1.064
		C106.347,176.148,97.283,160.605,91.152,126.636z"/>
	<path style="fill:#F2F2F2;" d="M31.458,126.589v-16.273c0-7.16-2.611-11.542-4.035-11.542h-0.919
		c-1.523,5.469-2.407,11.15-2.595,16.956l0.004,4.748c0.195,6.035,1.138,11.936,2.799,17.652h0.711
		C28.846,138.13,31.458,133.747,31.458,126.589z"/>
	<path style="opacity:0.73;fill:#05293D;" d="M31.458,126.589v-16.273c0-7.16-2.611-11.542-4.035-11.542h-0.919
		c-1.523,5.469-2.407,11.15-2.595,16.956l0.004,4.748c0.195,6.035,1.138,11.936,2.799,17.652h0.711
		C28.846,138.13,31.458,133.747,31.458,126.589z"/>
	<path style="opacity:0.73;fill:#05293D;" d="M31.458,126.589v-16.273c0-7.16-2.611-11.542-4.035-11.542h-0.919
		c-1.523,5.469-2.407,11.15-2.595,16.956l0.004,4.748c0.195,6.035,1.138,11.936,2.799,17.652h0.711
		C28.846,138.13,31.458,133.747,31.458,126.589z"/>
	<path style="fill:#F2F2F2;" d="M108.664,164.332c0.736,1.568,1.47,3.009,2.196,4.323c-0.851-1.769-1.567-3.204-2-3.985
		C108.795,164.554,108.729,164.446,108.664,164.332z"/>
	<path style="opacity:0.73;fill:#05293D;" d="M108.664,164.332c0.736,1.568,1.47,3.009,2.196,4.323
		c-0.851-1.769-1.567-3.204-2-3.985C108.795,164.554,108.729,164.446,108.664,164.332z"/>
	<path style="opacity:0.73;fill:#05293D;" d="M108.664,164.332c0.736,1.568,1.47,3.009,2.196,4.323
		c-0.851-1.769-1.567-3.204-2-3.985C108.795,164.554,108.729,164.446,108.664,164.332z"/>
	<path style="fill:#F2F2F2;" d="M59.095,176.542c1.485-10.959,6.678-37.358,23.401-56.064h-46.79v6.111
		c0,8.58-3.238,15.133-7.63,15.73c0.535,1.485,1.102,2.963,1.74,4.419c1.266,2.893,2.739,5.729,4.378,8.425
		C40.096,164.061,48.709,171.362,59.095,176.542z"/>
	<path style="opacity:0.73;fill:#05293D;" d="M59.095,176.542c1.485-10.959,6.678-37.358,23.401-56.064h-46.79v6.111
		c0,8.58-3.238,15.133-7.63,15.73c0.535,1.485,1.102,2.963,1.74,4.419c1.266,2.893,2.739,5.729,4.378,8.425
		C40.096,164.061,48.709,171.362,59.095,176.542z"/>
	<path style="opacity:0.73;fill:#05293D;" d="M59.095,176.542c1.485-10.959,6.678-37.358,23.401-56.064h-46.79v6.111
		c0,8.58-3.238,15.133-7.63,15.73c0.535,1.485,1.102,2.963,1.74,4.419c1.266,2.893,2.739,5.729,4.378,8.425
		C40.096,164.061,48.709,171.362,59.095,176.542z"/>
	<path style="fill:#F2F2F2;" d="M54.612,59.462c-3.578,2.44-7.063,5.344-10.235,8.552c-7.537,7.616-13.121,16.673-16.548,26.548
		c4.517,0.381,7.876,7.015,7.876,15.754v5.414h48.552C63.026,87.062,57.512,67.59,56.123,58.53
		C55.602,58.845,55.094,59.158,54.612,59.462z"/>
	<path style="opacity:0.73;fill:#05293D;" d="M54.612,59.462c-3.578,2.44-7.063,5.344-10.235,8.552
		c-7.537,7.616-13.121,16.673-16.548,26.548c4.517,0.381,7.876,7.015,7.876,15.754v5.414h48.552
		C63.026,87.062,57.512,67.59,56.123,58.53C55.602,58.845,55.094,59.158,54.612,59.462z"/>
	<path style="opacity:0.73;fill:#05293D;" d="M54.612,59.462c-3.578,2.44-7.063,5.344-10.235,8.552
		c-7.537,7.616-13.121,16.673-16.548,26.548c4.517,0.381,7.876,7.015,7.876,15.754v5.414h48.552
		C63.026,87.062,57.512,67.59,56.123,58.53C55.602,58.845,55.094,59.158,54.612,59.462z"/>
	<path style="fill:#05293D;" d="M163.734,47.34l-41.349,1.121c-9.291-2.556-18.931-3.661-27.773-4.235
		c-5.537-0.484-10.525-0.624-15.239-0.42c-11.066-1.337-21.817,4.461-29.095,9.038c-4.118,2.804-7.996,6.033-11.525,9.603
		c-13.276,13.421-21.147,30.832-22.562,49.55c-0.156,0.425-0.253,0.877-0.253,1.354v0.081c0.014,0.484,0.017,0.959,0.017,1.425
		c0,23.962-12.029,26.712-12.675,26.839c-2.126,0.369-3.58,2.375-3.228,4.521c0.344,2.156,2.37,3.629,4.529,3.283
		c0.518-0.08,8.468-1.507,13.998-11.005c1.03,3.884,2.357,7.694,3.985,11.412c1.407,3.222,3.05,6.37,4.951,9.495
		c11.561,17.443,31.912,29.371,55.837,32.725c13.965,1.957,27.575,0.78,39.718-3.202c0.826,0.177,1.439,0.215,1.779,0.218
		l38.972,1.553c40.167,0,72.843-32.154,72.843-71.679C236.663,79.493,203.987,47.34,163.734,47.34z M84.451,184.29
		c-7.397-1.037-14.389-2.98-20.818-5.676c1.193-9.396,6.025-36.977,22.85-55.456c1.11,1.638,2.76,2.856,4.669,3.477
		c6.131,33.969,15.194,49.512,22.43,56.59C104.367,185.263,94.435,185.689,84.451,184.29z M78.68,51.694l0.354,0.048l0.36-0.018
		c4.461-0.205,9.216-0.081,14.618,0.388c5.717,0.375,11.58,0.946,17.329,1.941c-0.583,0.681-1.191,1.423-1.837,2.28
		c-7.671,10.132-13.838,28.055-18.355,53.239c-1.456,0.475-2.751,1.291-3.775,2.395C65.651,82.342,61.409,63.048,60.601,56.008
		C66.049,53.193,72.513,50.86,78.68,51.694z M93.88,120.778c-1.441,0-2.614-1.197-2.614-2.674c0-1.477,1.173-2.679,2.614-2.679
		c1.441,0,2.614,1.202,2.614,2.679C96.493,119.581,95.321,120.778,93.88,120.778z M84.258,115.73H35.706v-5.414
		c0-8.739-3.36-15.373-7.876-15.754c3.428-9.875,9.012-18.932,16.548-26.548c3.172-3.209,6.657-6.112,10.235-8.552
		c0.482-0.303,0.989-0.616,1.511-0.931C57.512,67.59,63.026,87.062,84.258,115.73z M23.913,120.478l-0.004-4.748
		c0.188-5.806,1.073-11.487,2.595-16.956h0.919c1.424,0,4.035,4.382,4.035,11.542v16.273c0,7.158-2.611,11.541-4.035,11.541h-0.711
		C25.051,132.414,24.108,126.513,23.913,120.478z M28.075,142.318c4.392-0.597,7.63-7.149,7.63-15.73v-6.111h46.79
		c-16.723,18.706-21.916,45.105-23.401,56.064c-10.386-5.18-18.999-12.482-24.901-21.38c-1.639-2.696-3.112-5.532-4.378-8.425
		C29.177,145.281,28.61,143.804,28.075,142.318z M110.86,168.655c-0.726-1.314-1.46-2.755-2.196-4.323
		c-3.923-8.354-7.911-20.46-11.136-38.025c3.114-1.411,5.298-4.55,5.298-8.202c0-3.66-2.184-6.798-5.303-8.207
		c7.065-38.833,16.537-50.673,21.402-54.249c13.368,3.399,25.468,9.861,32.862,22.647l0.147,0.232
		c2.522,3.734,4.698,7.769,6.465,11.996c3.656,8.729,5.505,18.012,5.505,27.58c0,15.828-5.048,30.798-14.6,43.286
		c-2.257,2.95-4.766,5.747-7.457,8.309c-5.853,4.981-12.919,8.818-20.691,11.425C118.541,179.372,114.815,175.81,110.86,168.655z
		 M155.589,166.2c10.619-13.882,16.228-30.515,16.228-48.096c0-10.625-2.058-20.934-6.118-30.636
		c-1.95-4.661-4.352-9.122-7.132-13.257c-2.64-4.532-5.782-8.368-9.294-11.626l19.444-0.622c26.615,0,48.27,25.338,48.27,56.484
		s-21.654,56.486-48.195,56.488l-20.09-0.949C151.152,171.532,153.487,168.946,155.589,166.2z M145.381,176.997l23.335,1.104
		c28.357,0,51.433-26.76,51.433-59.652c0-32.892-23.075-59.65-51.484-59.648l-22.996,0.736c-2.547-1.962-5.244-3.666-8.055-5.16
		l26.207-0.707c36.676,0,66.514,29.314,66.514,65.346c0,36.031-29.838,65.349-66.386,65.351l-27.898-1.109
		C139.346,181.416,142.465,179.328,145.381,176.997z"/>
	<path style="fill:#B1C2B3;" d="M136.612,128.037h0.135c2.099,4.807,5.756,7.854,11.037,7.854c5.959,0,12.253-5.146,12.253-16.316
		c0-10.223-5.416-16.926-13.404-16.926c-5.62,0-9.275,3.791-10.9,8.125h-0.204c-2.166-4.402-5.89-6.433-9.682-6.433
		c-5.347,0-11.306,4.265-11.306,14.556c0,8.803,4.942,15.506,12.39,15.506C130.791,134.402,134.378,132.303,136.612,128.037z
		 M147.445,113.143c3.113,0,5.484,2.438,5.484,6.023c0,3.859-2.98,6.299-6.162,6.23c-3.182,0-5.62-1.963-6.567-5.35
		C141.284,116.053,143.586,113.143,147.445,113.143z M121.514,119.371c0-3.791,2.71-5.348,5.484-5.348
		c2.708,0,4.875,2.098,5.553,4.467c-1.084,3.522-2.98,6.16-5.958,6.16C123.885,124.651,121.514,122.893,121.514,119.371z"/>
</g>
<g>
</g>
<g>
</g>
<g>
</g>
<g>
</g>
<g>
</g>
<g>
</g>
<g>
</g>
<g>
</g>
<g>
</g>
<g>
</g>
<g>
</g>
<g>
</g>
<g>
</g>
<g>
</g>
<g>
</g>
</svg>
