<?xml version="1.0" encoding="iso-8859-1"?>
<!-- Generator: Adobe Illustrator 18.0.0, SVG Export Plug-In . SVG Version: 6.00 Build 0)  -->
<!DOCTYPE svg PUBLIC "-//W3C//DTD SVG 1.1//EN" "http://www.w3.org/Graphics/SVG/1.1/DTD/svg11.dtd">
<svg version="1.1" id="Capa_1" xmlns="http://www.w3.org/2000/svg" xmlns:xlink="http://www.w3.org/1999/xlink" x="0px" y="0px"
	 viewBox="0 0 469.041 469.041" style="enable-background:new 0 0 469.041 469.041;" xml:space="preserve">
<g>
	<g>
		<g>
			<polygon style="fill:#0D596D;" points="170.385,4 270.803,4 298.656,118.345 273.001,144.731 273.001,465.041 170.385,465.041 
							"/>
			<path style="fill:#2E2140;" d="M273.001,469.041H170.385c-2.209,0-4-1.791-4-4V4c0-2.209,1.791-4,4-4h100.418
				c1.845,0,3.45,1.261,3.887,3.053l27.853,114.345c0.325,1.337-0.06,2.748-1.019,3.735l-24.522,25.222v318.686
				C277.001,467.25,275.21,469.041,273.001,469.041z M174.385,461.041h94.616v-316.31c0-1.042,0.406-2.042,1.132-2.789l24.112-24.8
				L267.66,8h-93.275V461.041z"/>
		</g>
		<g>
			<rect x="170.385" y="17.436" style="fill:#2E2140;" width="104.665" height="8"/>
		</g>
		<g>
			<path style="fill:#2E2140;" d="M188.149,23.436h-7.707c-1.104,0-2-0.895-2-2V4c0-1.105,0.895-2,2-2h7.707c1.105,0,2,0.895,2,2
				v17.436C190.149,22.541,189.253,23.436,188.149,23.436z M182.442,19.436h3.707V6h-3.707V19.436z"/>
		</g>
		<g>
			<path style="fill:#2E2140;" d="M210.865,23.436h-7.707c-1.104,0-2-0.895-2-2V4c0-1.105,0.896-2,2-2h7.707c1.105,0,2,0.895,2,2
				v17.436C212.865,22.541,211.969,23.436,210.865,23.436z M205.158,19.436h3.707V6h-3.707V19.436z"/>
		</g>
		<g>
			<path style="fill:#2E2140;" d="M233.58,23.436h-7.707c-1.105,0-2-0.895-2-2V4c0-1.105,0.895-2,2-2h7.707c1.105,0,2,0.895,2,2
				v17.436C235.58,22.541,234.685,23.436,233.58,23.436z M227.873,19.436h3.707V6h-3.707V19.436z"/>
		</g>
		<g>
			<path style="fill:#2E2140;" d="M256.296,23.436h-7.708c-1.104,0-2-0.895-2-2V4c0-1.105,0.896-2,2-2h7.708c1.104,0,2,0.895,2,2
				v17.436C258.296,22.541,257.401,23.436,256.296,23.436z M250.588,19.436h3.708V6h-3.708V19.436z"/>
		</g>
		<g>
			<path style="fill:#2E2140;" d="M274.956,117.979c-18.74,0.001-30.632-9.675-31.3-10.232c-0.424-0.353-0.683-0.867-0.715-1.418
				l-3.651-61.655c-0.063-1.062,0.716-1.987,1.772-2.105l38.345-4.316l0.447,3.975l-36.46,4.104l3.486,58.858
				c3.774,2.809,22.755,15.277,49.34,4.414l1.514,3.703C289.387,116.716,281.723,117.979,274.956,117.979z"/>
		</g>
		<g>
			
				<rect x="260.38" y="35.032" transform="matrix(0.1387 0.9903 -0.9903 0.1387 280.9618 -212.0345)" style="fill:#2E2140;" width="4" height="40.951"/>
		</g>
		<g>
			<path style="fill:#2E2140;" d="M280.102,93.987l-1.871-0.706c0.357-0.948,0.646-1.872,0.859-2.745l1.943,0.474
				C280.802,91.961,280.489,92.963,280.102,93.987z M276.486,92.789c-0.685-0.847-1.285-1.727-1.785-2.617l1.744-0.979
				c0.444,0.792,0.981,1.579,1.596,2.339L276.486,92.789z M281.533,87.878l-1.996-0.128c0.02-0.297,0.029-0.587,0.029-0.871
				c0-0.651-0.053-1.283-0.157-1.877l1.971-0.345c0.124,0.708,0.186,1.455,0.186,2.222
				C281.566,87.204,281.554,87.538,281.533,87.878z M273.43,87.216c-0.311-1.049-0.47-2.097-0.47-3.114l0.001-0.15l2,0.047
				l-0.001,0.104c0,0.824,0.13,1.68,0.388,2.545L273.43,87.216z M278.567,82.454c-0.398-0.781-0.927-1.515-1.569-2.18l1.438-1.39
				c0.781,0.808,1.425,1.703,1.913,2.661L278.567,82.454z M275.452,81.396l-1.871-0.704c0.286-0.76,0.673-1.505,1.155-2.222
				c-0.716-0.448-1.521-0.861-2.394-1.231l0.779-1.842c1.023,0.433,1.968,0.924,2.807,1.46l-0.661,1.035l1.512,1.162
				C276.2,79.807,275.753,80.595,275.452,81.396z M278.711,77.052l-1.297-1.522c0.747-0.637,1.6-1.258,2.537-1.848l1.066,1.692
				C280.161,75.913,279.386,76.477,278.711,77.052z M269.624,76.286c-0.884-0.255-1.837-0.483-2.832-0.678l0.383-1.963
				c1.054,0.205,2.064,0.447,3.004,0.719L269.624,76.286z M243.222,75.599l-0.313-1.976c0.047-0.007,1.169-0.184,3.03-0.383
				l0.213,1.988C244.347,75.423,243.233,75.597,243.222,75.599z M263.895,75.147c-0.936-0.118-1.923-0.214-2.936-0.287l0.143-1.995
				c1.048,0.075,2.072,0.175,3.043,0.297L263.895,75.147z M249.111,74.958l-0.152-1.994c0.936-0.071,1.952-0.135,3.027-0.183
				l0.09,1.998C251.022,74.827,250.027,74.889,249.111,74.958z M258.006,74.717c-0.723-0.019-1.435-0.026-2.141-0.027
				c-0.278,0-0.552,0.002-0.824,0.005l-0.021-2c0.311-0.003,0.628-0.004,0.942-0.005c0.687,0,1.389,0.009,2.097,0.028
				L258.006,74.717z M283.547,73.963l-0.889-1.791c0.873-0.434,1.815-0.857,2.802-1.259l0.754,1.853
				C285.274,73.148,284.376,73.552,283.547,73.963z"/>
		</g>
		<g>
			<rect x="216.571" y="21.436" style="fill:#2E2140;" width="4" height="443.604"/>
		</g>
		<g>
			<path style="fill:#2E2140;" d="M227.373,462.437h-3v-3h3V462.437z M227.373,456.437h-3v-3h3V456.437z M227.373,450.437h-3v-3h3
				V450.437z M227.373,444.437h-3v-3h3V444.437z M227.373,438.437h-3v-3h3V438.437z M227.373,432.437h-3v-3h3V432.437z
				 M227.373,426.437h-3v-3h3V426.437z M227.373,420.437h-3v-3h3V420.437z M227.373,414.436h-3v-3h3V414.436z M227.373,408.436h-3
				v-3h3V408.436z M227.373,402.436h-3v-3h3V402.436z M227.373,396.436h-3v-3h3V396.436z M227.373,390.436h-3v-3h3V390.436z
				 M227.373,384.436h-3v-3h3V384.436z M227.373,378.436h-3v-3h3V378.436z M227.373,372.436h-3v-3h3V372.436z M227.373,366.436h-3
				v-3h3V366.436z M227.373,360.436h-3v-3h3V360.436z M227.373,354.436h-3v-3h3V354.436z M227.373,348.436h-3v-3h3V348.436z
				 M227.373,342.436h-3v-3h3V342.436z M227.373,336.436h-3v-3h3V336.436z M227.373,330.436h-3v-3h3V330.436z M227.373,324.436h-3
				v-3h3V324.436z M227.373,318.436h-3v-3h3V318.436z M227.373,312.436h-3v-3h3V312.436z M227.373,306.436h-3v-3h3V306.436z
				 M227.373,300.436h-3v-3h3V300.436z M227.373,294.436h-3v-3h3V294.436z M227.373,288.436h-3v-3h3V288.436z M227.373,282.436h-3
				v-3h3V282.436z M227.373,276.436h-3v-3h3V276.436z M227.373,270.436h-3v-3h3V270.436z M227.373,264.436h-3v-3h3V264.436z
				 M227.373,258.436h-3v-3h3V258.436z M227.373,252.436h-3v-3h3V252.436z M227.373,246.436h-3v-3h3V246.436z M227.373,240.436h-3
				v-3h3V240.436z M227.373,234.436h-3v-3h3V234.436z M227.373,228.436h-3v-3h3V228.436z M227.373,222.436h-3v-3h3V222.436z
				 M227.373,216.436h-3v-3h3V216.436z M227.373,210.436h-3v-3h3V210.436z M227.373,204.436h-3v-3h3V204.436z M227.373,198.436h-3
				v-3h3V198.436z M227.373,192.436h-3v-3h3V192.436z M227.373,186.436h-3v-3h3V186.436z M227.373,180.436h-3v-3h3V180.436z
				 M227.373,174.436h-3v-3h3V174.436z M227.373,168.436h-3v-3h3V168.436z M227.373,162.436h-3v-3h3V162.436z M227.373,156.436h-3
				v-3h3V156.436z M227.373,150.436h-3v-3h3V150.436z M227.373,144.436h-3v-3h3V144.436z M227.373,138.436h-3v-3h3V138.436z
				 M227.373,132.436h-3v-3h3V132.436z M227.373,126.436h-3v-3h3V126.436z M227.373,120.436h-3v-3h3V120.436z M227.373,114.436h-3
				v-3h3V114.436z M227.373,108.436h-3v-3h3V108.436z M227.373,102.436h-3v-3h3V102.436z M227.373,96.436h-3v-3h3V96.436z
				 M227.373,90.436h-3v-3h3V90.436z M227.373,84.436h-3v-3h3V84.436z M227.373,78.436h-3v-3h3V78.436z M227.373,72.436h-3v-3h3
				V72.436z M227.373,66.436h-3v-3h3V66.436z M227.373,60.436h-3v-3h3V60.436z M227.373,54.436h-3v-3h3V54.436z M227.373,48.436h-3
				v-3h3V48.436z M227.373,42.436h-3v-3h3V42.436z M227.373,36.436h-3v-3h3V36.436z M227.373,30.436h-3v-3h3V30.436z
				 M227.373,24.436h-3v-3h3V24.436z"/>
		</g>
		<g>
			<path style="fill:#2E2140;" d="M218.141,70.443c-37.992-8.35-39.686-48.539-39.698-48.944l3.998-0.127
				c0.051,1.527,1.643,37.491,36.56,45.164L218.141,70.443z"/>
		</g>
		<g>
			<path style="fill:#2E2140;" d="M217.006,61.775c-0.998-0.251-1.989-0.538-2.946-0.852l0.625-1.9
				c0.911,0.3,1.856,0.573,2.809,0.813L217.006,61.775z M211.183,59.855c-0.948-0.393-1.888-0.827-2.792-1.29l0.912-1.78
				c0.856,0.439,1.747,0.851,2.645,1.223L211.183,59.855z M205.712,57.049c-0.869-0.542-1.724-1.126-2.542-1.738l1.197-1.602
				c0.773,0.578,1.581,1.13,2.403,1.642L205.712,57.049z M200.782,53.361c-0.762-0.68-1.505-1.402-2.21-2.146l1.453-1.375
				c0.665,0.704,1.368,1.386,2.089,2.029L200.782,53.361z M196.549,48.892c-0.634-0.791-1.249-1.624-1.828-2.476l1.654-1.124
				c0.55,0.809,1.133,1.599,1.734,2.349L196.549,48.892z M193.091,43.809c-0.502-0.874-0.985-1.787-1.435-2.716l1.801-0.872
				c0.429,0.887,0.89,1.759,1.369,2.591L193.091,43.809z M190.411,38.288c-0.378-0.933-0.734-1.901-1.06-2.878l1.898-0.632
				c0.311,0.938,0.653,1.866,1.015,2.759L190.411,38.288z M188.473,32.473c-0.263-0.99-0.499-1.994-0.7-2.982l1.959-0.399
				c0.194,0.95,0.421,1.915,0.675,2.868L188.473,32.473z M187.252,26.464c-0.266-1.905-0.304-3.062-0.306-3.11l1.999-0.063
				c0.001,0.011,0.038,1.109,0.287,2.897L187.252,26.464z"/>
		</g>
		<g>
			
				<rect x="245.893" y="4.363" transform="matrix(0.1211 0.9926 -0.9926 0.1211 251.5279 -216.2718)" style="fill:#2E2140;" width="4" height="59.079"/>
		</g>
		<g>
			<rect x="170.385" y="450.31" style="fill:#2E2140;" width="102.616" height="4"/>
		</g>
	</g>
	<g style="opacity:0.3;">
		<polygon style="fill:#2E2140;" points="220.456,4 220.456,465.041 273.001,465.041 273.001,144.731 298.656,118.345 270.803,4 		
			"/>
	</g>
</g>
<g>
</g>
<g>
</g>
<g>
</g>
<g>
</g>
<g>
</g>
<g>
</g>
<g>
</g>
<g>
</g>
<g>
</g>
<g>
</g>
<g>
</g>
<g>
</g>
<g>
</g>
<g>
</g>
<g>
</g>
</svg>
