<?xml version="1.0" encoding="iso-8859-1"?>
<!-- Generator: Adobe Illustrator 18.0.0, SVG Export Plug-In . SVG Version: 6.00 Build 0)  -->
<!DOCTYPE svg PUBLIC "-//W3C//DTD SVG 1.1//EN" "http://www.w3.org/Graphics/SVG/1.1/DTD/svg11.dtd">
<svg version="1.1" id="Capa_1" xmlns="http://www.w3.org/2000/svg" xmlns:xlink="http://www.w3.org/1999/xlink" x="0px" y="0px"
	 viewBox="0 0 137.671 137.671" style="enable-background:new 0 0 137.671 137.671;" xml:space="preserve">
<g>
	<g>
		<g>
			<rect x="30.854" y="3" style="fill:#F2F2F2;" width="75.964" height="131.671"/>
			<path style="fill:#2E2140;" d="M106.817,137.671H30.854c-1.657,0-3-1.343-3-3V3c0-1.657,1.343-3,3-3h75.964c1.657,0,3,1.343,3,3
				v131.671C109.817,136.328,108.474,137.671,106.817,137.671z M33.854,131.671h69.964V6H33.854V131.671z"/>
		</g>
		<g style="opacity:0.5;">
			<rect x="39.926" y="12.933" style="fill:#2E2140;" width="57.82" height="105.383"/>
		</g>
		<g style="opacity:0.3;">
			<circle style="fill:#2E2140;" cx="68.835" cy="125.308" r="5.079"/>
		</g>
		<g style="opacity:0.45;">
			<polygon style="fill:#F2F2F2;" points="39.926,61.141 73.929,12.933 65.391,12.933 39.926,49.037 			"/>
		</g>
		<g style="opacity:0.45;">
			<polygon style="fill:#F2F2F2;" points="39.926,79.932 87.182,12.933 78.644,12.933 39.926,67.827 			"/>
		</g>
		<g style="opacity:0.45;">
			<polygon style="fill:#F2F2F2;" points="97.746,12.933 94.55,12.933 39.926,90.377 39.926,118.315 47.494,118.315 97.746,47.069 
							"/>
		</g>
	</g>
</g>
<g>
</g>
<g>
</g>
<g>
</g>
<g>
</g>
<g>
</g>
<g>
</g>
<g>
</g>
<g>
</g>
<g>
</g>
<g>
</g>
<g>
</g>
<g>
</g>
<g>
</g>
<g>
</g>
<g>
</g>
</svg>
