<?xml version="1.0" encoding="iso-8859-1"?>
<!-- Generator: Adobe Illustrator 18.0.0, SVG Export Plug-In . SVG Version: 6.00 Build 0)  -->
<!DOCTYPE svg PUBLIC "-//W3C//DTD SVG 1.1//EN" "http://www.w3.org/Graphics/SVG/1.1/DTD/svg11.dtd">
<svg version="1.1" id="Capa_1" xmlns="http://www.w3.org/2000/svg" xmlns:xlink="http://www.w3.org/1999/xlink" x="0px" y="0px"
	 viewBox="0 0 150.846 150.846" style="enable-background:new 0 0 150.846 150.846;" xml:space="preserve">
<g>
	<g>
		<g>
			<g>
				<g>
					<g>
						<g>
							<rect x="30.169" y="4" style="fill:#04518C;" width="90.508" height="142.846"/>
						</g>
					</g>
				</g>
			</g>
		</g>
		<g>
			<g>
				<g>
					<g>
						<g>
							<path style="fill:#2E2140;" d="M120.677,150.846H30.169c-2.209,0-4-1.791-4-4V4c0-2.209,1.791-4,4-4h90.508
								c2.209,0,4,1.791,4,4v142.846C124.677,149.055,122.886,150.846,120.677,150.846z M34.169,142.846h82.508V8H34.169V142.846z"
								/>
						</g>
					</g>
				</g>
			</g>
		</g>
	</g>
	<g>
		<g>
			<g>
				<g>
					<g>
						<g>
							<g>
								<path style="fill:#F2E1AC;" d="M50.756,29.203v1.435c0,1.767-0.852,2.728-2.586,2.728h-0.82v4.148h-1.734V26.476h2.555
									C49.904,26.476,50.756,27.436,50.756,29.203z M47.35,28.052v3.737h0.82c0.552,0,0.852-0.252,0.852-1.041v-1.655
									c0-0.789-0.3-1.041-0.852-1.041H47.35z"/>
							</g>
						</g>
					</g>
				</g>
			</g>
		</g>
		<g>
			<g>
				<g>
					<g>
						<g>
							<g>
								<path style="fill:#F2E1AC;" d="M58.626,37.514h-1.751l-0.299-2.003h-2.129l-0.3,2.003h-1.593l1.767-11.038h2.539
									L58.626,37.514z M54.669,34.012h1.671l-0.836-5.581L54.669,34.012z"/>
							</g>
						</g>
					</g>
				</g>
			</g>
		</g>
		<g>
			<g>
				<g>
					<g>
						<g>
							<g>
								<path style="fill:#F2E1AC;" d="M63.342,26.349c1.688,0,2.555,1.01,2.555,2.775v0.348h-1.641v-0.458
									c0-0.788-0.315-1.089-0.866-1.089c-0.552,0-0.867,0.301-0.867,1.089c0,2.27,3.391,2.696,3.391,5.85
									c0,1.767-0.884,2.775-2.587,2.775c-1.702,0-2.587-1.009-2.587-2.775v-0.678h1.642v0.788c0,0.789,0.347,1.072,0.898,1.072
									c0.553,0,0.899-0.283,0.899-1.072c0-2.271-3.391-2.696-3.391-5.851C60.787,27.358,61.655,26.349,63.342,26.349z"/>
							</g>
						</g>
					</g>
				</g>
			</g>
		</g>
		<g>
			<g>
				<g>
					<g>
						<g>
							<g>
								<path style="fill:#F2E1AC;" d="M70.818,26.349c1.688,0,2.555,1.01,2.555,2.775v0.348h-1.641v-0.458
									c0-0.788-0.315-1.089-0.866-1.089c-0.553,0-0.868,0.301-0.868,1.089c0,2.27,3.39,2.696,3.39,5.85
									c0,1.767-0.882,2.775-2.586,2.775c-1.703,0-2.586-1.009-2.586-2.775v-0.678h1.641v0.788c0,0.789,0.347,1.072,0.899,1.072
									c0.552,0,0.898-0.283,0.898-1.072c0-2.271-3.39-2.696-3.39-5.851C68.264,27.358,69.131,26.349,70.818,26.349z"/>
							</g>
						</g>
					</g>
				</g>
			</g>
		</g>
		<g>
			<g>
				<g>
					<g>
						<g>
							<g>
								<path style="fill:#F2E1AC;" d="M81.101,29.203v1.435c0,1.767-0.853,2.728-2.586,2.728h-0.82v4.148h-1.735V26.476h2.556
									C80.248,26.476,81.101,27.436,81.101,29.203z M77.694,28.052v3.737h0.82c0.551,0,0.852-0.252,0.852-1.041v-1.655
									c0-0.789-0.301-1.041-0.852-1.041H77.694z"/>
							</g>
						</g>
					</g>
				</g>
			</g>
		</g>
		<g>
			<g>
				<g>
					<g>
						<g>
							<g>
								<path style="fill:#F2E1AC;" d="M83.42,29.124c0-1.766,0.931-2.775,2.634-2.775s2.632,1.01,2.632,2.775v5.74
									c0,1.767-0.929,2.775-2.632,2.775s-2.634-1.009-2.634-2.775V29.124z M85.154,34.975c0,0.789,0.348,1.088,0.899,1.088
									c0.552,0,0.898-0.299,0.898-1.088v-5.961c0-0.788-0.347-1.089-0.898-1.089c-0.552,0-0.899,0.301-0.899,1.089V34.975z"/>
							</g>
						</g>
					</g>
				</g>
			</g>
		</g>
		<g>
			<g>
				<g>
					<g>
						<g>
							<g>
								<path style="fill:#F2E1AC;" d="M95.012,37.514c-0.095-0.283-0.158-0.458-0.158-1.357v-1.734
									c0-1.025-0.347-1.403-1.136-1.403h-0.599v4.494h-1.735V26.476h2.618c1.798,0,2.57,0.835,2.57,2.538v0.867
									c0,1.135-0.362,1.877-1.135,2.24c0.866,0.361,1.151,1.198,1.151,2.35v1.702c0,0.536,0.015,0.931,0.188,1.341H95.012z
									 M93.119,28.052v3.391h0.677c0.647,0,1.042-0.284,1.042-1.167v-1.088c0-0.789-0.268-1.136-0.884-1.136H93.119z"/>
							</g>
						</g>
					</g>
				</g>
			</g>
		</g>
		<g>
			<g>
				<g>
					<g>
						<g>
							<g>
								<path style="fill:#F2E1AC;" d="M98.797,26.476h5.362v1.576h-1.813v9.462h-1.734v-9.462h-1.814V26.476z"/>
							</g>
						</g>
					</g>
				</g>
			</g>
		</g>
	</g>
	<g>
		<g>
			<g>
				<g>
					<g>
						<g>
							<g>
								<g>
									<rect x="48.092" y="59.717" style="fill:#F2E1AC;" width="55.486" height="3"/>
								</g>
							</g>
						</g>
					</g>
				</g>
			</g>
			<g>
				<g>
					<g>
						<g>
							<g>
								<g>
									<rect x="48.092" y="89.476" style="fill:#F2E1AC;" width="55.486" height="3"/>
								</g>
							</g>
						</g>
					</g>
				</g>
			</g>
			<g>
				<g>
					<g>
						<g>
							<g>
								<g>
									<rect x="44.753" y="74.39" style="fill:#F2E1AC;" width="62.165" height="3"/>
								</g>
							</g>
						</g>
					</g>
				</g>
			</g>
		</g>
		<g>
			<g>
				<g>
					<g>
						<g>
							<g>
								<g>
									<path style="fill:#F2E1AC;" d="M75.837,109.178c-18.242,0-33.084-14.841-33.084-33.082s14.842-33.082,33.084-33.082
										c18.241,0,33.081,14.841,33.081,33.082S94.078,109.178,75.837,109.178z M75.837,47.014
										c-16.037,0-29.084,13.046-29.084,29.082s13.047,29.082,29.084,29.082c16.035,0,29.081-13.046,29.081-29.082
										S91.872,47.014,75.837,47.014z"/>
								</g>
							</g>
						</g>
					</g>
				</g>
			</g>
			<g>
				<g>
					<g>
						<g>
							<g>
								<g>
									<g>
										<g>
											<path style="fill:#F2E1AC;" d="M61.231,105.524c-7.497-10.473-17.37-32.03,0.745-58.753l2.483,1.684
												c-16.238,23.954-9.392,43.307-0.788,55.323L61.231,105.524z"/>
										</g>
									</g>
								</g>
							</g>
						</g>
					</g>
					<g>
						<g>
							<g>
								<g>
									<g>
										<g>
											<path style="fill:#F2E1AC;" d="M70.88,107.616c-8.187-11.288-18.966-34.526,0.815-63.333l2.473,1.697
												c-17.799,25.922-10.292,46.867-0.86,59.874L70.88,107.616z"/>
										</g>
									</g>
								</g>
							</g>
						</g>
					</g>
				</g>
				<g>
					<g>
						<g>
							<g>
								<g>
									<g>
										<g>
											<path style="fill:#F2E1AC;" d="M90.439,105.524L88,103.778c8.604-12.018,15.451-31.37-0.786-55.323l2.482-1.684
												C107.811,73.493,97.938,95.052,90.439,105.524z"/>
										</g>
									</g>
								</g>
							</g>
						</g>
					</g>
					<g>
						<g>
							<g>
								<g>
									<g>
										<g>
											<path style="fill:#F2E1AC;" d="M80.791,107.616l-2.428-1.762c9.433-13.006,16.94-33.951-0.859-59.874l2.473-1.697
												C99.758,73.09,88.978,96.328,80.791,107.616z"/>
										</g>
									</g>
								</g>
							</g>
						</g>
					</g>
				</g>
			</g>
			<g>
				<g>
					<g>
						<g>
							<g>
								<g>
									<rect x="74.336" y="45.014" style="fill:#F2E1AC;" width="3" height="62.164"/>
								</g>
							</g>
						</g>
					</g>
				</g>
			</g>
		</g>
	</g>
</g>
<g>
</g>
<g>
</g>
<g>
</g>
<g>
</g>
<g>
</g>
<g>
</g>
<g>
</g>
<g>
</g>
<g>
</g>
<g>
</g>
<g>
</g>
<g>
</g>
<g>
</g>
<g>
</g>
<g>
</g>
</svg>
