<?xml version="1.0" encoding="iso-8859-1"?>
<!-- Generator: Adobe Illustrator 18.0.0, SVG Export Plug-In . SVG Version: 6.00 Build 0)  -->
<!DOCTYPE svg PUBLIC "-//W3C//DTD SVG 1.1//EN" "http://www.w3.org/Graphics/SVG/1.1/DTD/svg11.dtd">
<svg version="1.1" id="Capa_1" xmlns="http://www.w3.org/2000/svg" xmlns:xlink="http://www.w3.org/1999/xlink" x="0px" y="0px"
	 viewBox="0 0 224.4 224.4" style="enable-background:new 0 0 224.4 224.4;" xml:space="preserve">
<g>
	<polygon style="fill:#B1C2B3;" points="198.844,97.679 167.157,97.679 167.157,99.968 195.772,99.968 195.772,188.007 
		28.527,188.007 28.527,99.968 56.624,99.968 56.624,97.679 25.556,97.679 25.556,191.207 198.844,191.207 	"/>
	<rect x="7.033" y="97.679" style="fill:#B1C2B3;" width="11.494" height="93.528"/>
	<rect x="205.875" y="97.679" style="fill:#B1C2B3;" width="11.493" height="93.528"/>
	<path style="fill:#05293D;" d="M167.157,90.643V78.854l-26.332-21.969H82.918l-26.294,21.97v11.787H0v107.601h224.4V90.643H167.157
		z M217.368,191.207h-11.493V97.679h11.493V191.207z M7.033,97.679h11.494v93.528H7.033V97.679z M25.556,97.679h31.068v2.289H28.527
		v88.039h167.245V99.968h-28.615v-2.289h31.687v93.528H25.556V97.679z M138.277,63.921l21.847,18.225v98.818H63.655V82.146
		l21.813-18.225H138.277z"/>
	<path style="fill:#B1C2B3;" d="M63.655,180.964h96.469V82.146l-21.847-18.225h-52.81L63.655,82.146V180.964z M146.209,170.256
		c0,3.517-2.749,6.376-6.127,6.376H84.016c-3.38,0-6.13-2.859-6.13-6.376v-61.388c0-3.519,2.75-6.378,6.13-6.378h56.066
		c3.378,0,6.127,2.859,6.127,6.378V170.256z M126.002,67.683v28.219H97.778V67.683H126.002z"/>
	<polygon style="fill:#B1C2B3;" points="103.405,85.537 115.637,73.306 113.682,73.306 103.405,83.581 	"/>
	<polygon style="fill:#B1C2B3;" points="103.405,90.275 120.375,90.275 120.375,73.306 119.455,73.306 103.405,89.354 	"/>
	<polygon style="fill:#B1C2B3;" points="109.864,73.306 103.405,73.306 103.405,79.765 	"/>
	<path style="fill:#B1C2B3;" d="M84.918,169.6h54.259v-60.077H84.918V169.6z M112.046,114.106c14.035,0,25.457,11.417,25.457,25.452
		c0,14.035-11.423,25.458-25.457,25.458s-25.456-11.423-25.456-25.458C86.591,125.523,98.012,114.106,112.046,114.106z"/>
	<path style="fill:#05293D;" d="M140.082,102.49H84.016c-3.38,0-6.13,2.859-6.13,6.378v61.388c0,3.517,2.75,6.376,6.13,6.376h56.066
		c3.378,0,6.127-2.859,6.127-6.376v-61.388C146.209,105.35,143.46,102.49,140.082,102.49z M139.178,169.6H84.918v-60.077h54.259
		V169.6z"/>
	<path style="fill:#B1C2B3;" d="M112.046,124.584c-8.257,0-14.975,6.718-14.975,14.975c0,8.258,6.718,14.98,14.975,14.98
		c8.258,0,14.978-6.723,14.978-14.98C127.024,131.302,120.304,124.584,112.046,124.584z M112.046,153.429
		c-7.649,0-13.868-6.219-13.868-13.87c0-7.649,6.218-13.868,13.868-13.868s13.868,6.219,13.868,13.868
		C125.914,147.21,119.696,153.429,112.046,153.429z"/>
	<path style="fill:#B1C2B3;" d="M112.046,158.793c10.607,0,19.233-8.628,19.233-19.234c0-10.604-8.626-19.236-19.233-19.236
		c-10.604,0-19.235,8.633-19.235,19.236C92.811,150.165,101.442,158.793,112.046,158.793z M112.046,122.096
		c9.63,0,17.467,7.833,17.467,17.463c0,9.632-7.836,17.468-17.467,17.468c-9.628,0-17.464-7.836-17.464-17.468
		C94.582,129.929,102.418,122.096,112.046,122.096z"/>
	<rect x="90.13" y="44.898" style="fill:#B1C2B3;" width="43.06" height="2.57"/>
	<rect x="90.13" y="35.292" style="fill:#B1C2B3;" width="43.06" height="2.57"/>
	<path style="fill:#05293D;" d="M140.223,28.259h-7.831v-2.102H92.671v2.102h-9.573v26.24h57.125V28.259z M90.13,47.468v-2.57
		h43.061v2.57H90.13z M133.191,35.292v2.57H90.13v-2.57H133.191z"/>
	<polygon style="fill:#FFFFFF;" points="103.405,83.581 113.682,73.306 109.864,73.306 103.405,79.765 	"/>
	<polygon style="fill:#FFFFFF;" points="103.405,89.354 119.455,73.306 115.637,73.306 103.405,85.537 	"/>
	<path style="fill:#05293D;" d="M97.778,95.901h28.224V67.683H97.778V95.901z M109.864,73.306h3.818h1.955h3.818h0.92v16.97h-16.97
		v-0.922v-3.816v-1.956v-3.816v-6.459H109.864z"/>
	<rect x="195.425" y="78.074" style="fill:#B1C2B3;" width="1.281" height="5.122"/>
	<rect x="189.845" y="78.074" style="fill:#B1C2B3;" width="1.284" height="5.122"/>
	<rect x="192.635" y="78.074" style="fill:#B1C2B3;" width="1.284" height="5.122"/>
	<rect x="201.002" y="78.074" style="fill:#B1C2B3;" width="1.284" height="5.122"/>
	<rect x="198.215" y="78.074" style="fill:#B1C2B3;" width="1.278" height="5.122"/>
	<rect x="178.585" y="78.074" style="fill:#B1C2B3;" width="1.387" height="5.122"/>
	<rect x="181.478" y="78.074" style="fill:#B1C2B3;" width="1.282" height="5.122"/>
	<rect x="187.055" y="78.074" style="fill:#B1C2B3;" width="1.284" height="5.122"/>
	<rect x="203.792" y="78.074" style="fill:#B1C2B3;" width="1.119" height="5.122"/>
	<rect x="184.269" y="78.074" style="fill:#B1C2B3;" width="1.28" height="5.122"/>
	<path style="fill:#05293D;" d="M210.939,72.046h-4.12v-3.633h-30.325v3.633h-3.937v17.181h38.382V72.046z M202.286,83.196h-1.284
		v-5.122h1.284V83.196z M199.493,83.196h-1.278v-5.122h1.278V83.196z M196.706,83.196h-1.281v-5.122h1.281V83.196z M193.919,83.196
		h-1.284v-5.122h1.284V83.196z M191.129,83.196h-1.284v-5.122h1.284V83.196z M188.339,83.196h-1.284v-5.122h1.284V83.196z
		 M185.549,83.196h-1.28v-5.122h1.28V83.196z M182.76,83.196h-1.282v-5.122h1.282V83.196z M179.972,83.196h-1.387v-5.122h1.387
		V83.196z M204.911,83.196h-1.119v-5.122h1.119V83.196z"/>
	<path style="fill:#B1C2B3;" d="M112.046,126.934c-6.964,0-12.623,5.664-12.623,12.625c0,6.967,5.66,12.628,12.623,12.628
		c6.961,0,12.625-5.661,12.625-12.628C124.671,132.598,119.007,126.934,112.046,126.934z"/>
	<path style="fill:#05293D;" d="M112.046,165.017c14.035,0,25.457-11.423,25.457-25.458c0-14.035-11.423-25.452-25.457-25.452
		s-25.456,11.417-25.456,25.452C86.591,153.594,98.012,165.017,112.046,165.017z M112.046,120.322
		c10.607,0,19.233,8.633,19.233,19.236c0,10.606-8.626,19.234-19.233,19.234c-10.604,0-19.235-8.628-19.235-19.234
		C92.811,128.955,101.442,120.322,112.046,120.322z"/>
	<path style="fill:#05293D;" d="M94.582,139.559c0,9.632,7.836,17.468,17.464,17.468c9.63,0,17.467-7.836,17.467-17.468
		c0-9.63-7.836-17.463-17.467-17.463C102.418,122.096,94.582,129.929,94.582,139.559z M112.046,154.539
		c-8.257,0-14.975-6.723-14.975-14.98c0-8.257,6.718-14.975,14.975-14.975c8.258,0,14.978,6.718,14.978,14.975
		C127.024,147.816,120.304,154.539,112.046,154.539z"/>
	<path style="fill:#05293D;" d="M112.046,125.69c-7.649,0-13.868,6.219-13.868,13.868c0,7.651,6.218,13.87,13.868,13.87
		s13.868-6.219,13.868-13.87C125.914,131.909,119.696,125.69,112.046,125.69z M124.671,139.559c0,6.967-5.664,12.628-12.625,12.628
		c-6.964,0-12.623-5.661-12.623-12.628c0-6.961,5.66-12.625,12.623-12.625C119.007,126.934,124.671,132.598,124.671,139.559z"/>
</g>
<g>
</g>
<g>
</g>
<g>
</g>
<g>
</g>
<g>
</g>
<g>
</g>
<g>
</g>
<g>
</g>
<g>
</g>
<g>
</g>
<g>
</g>
<g>
</g>
<g>
</g>
<g>
</g>
<g>
</g>
</svg>
