<?xml version="1.0" encoding="iso-8859-1"?>
<!-- Generator: Adobe Illustrator 18.0.0, SVG Export Plug-In . SVG Version: 6.00 Build 0)  -->
<!DOCTYPE svg PUBLIC "-//W3C//DTD SVG 1.1//EN" "http://www.w3.org/Graphics/SVG/1.1/DTD/svg11.dtd">
<svg version="1.1" id="Capa_1" xmlns="http://www.w3.org/2000/svg" xmlns:xlink="http://www.w3.org/1999/xlink" x="0px" y="0px"
	 viewBox="0 0 156.888 156.888" style="enable-background:new 0 0 156.888 156.888;" xml:space="preserve">
<g>
	<g>
		<g>
			<g>
				<polygon style="fill:#5C4B51;" points="150.888,139.46 150.888,76.414 105.73,76.414 6,125.406 6,139.46 				"/>
			</g>
		</g>
		<g>
			<g>
				<rect x="6" y="139.46" style="fill:#F2E1AC;" width="144.888" height="13.73"/>
			</g>
		</g>
		<g>
			<g>
				<path style="fill:#5C4B51;" d="M33.246,125.433c1.983,0,3.998-0.442,5.898-1.376L91.822,98.18
					c6.641-3.262,9.382-11.293,6.118-17.936l0,0l-76.732,37.694C23.539,122.678,28.298,125.433,33.246,125.433z"/>
			</g>
			<g>
				<path style="fill:#2E2140;" d="M33.246,128.736c-6.422,0-12.171-3.579-15.002-9.343l-1.46-2.965L99.45,75.821l1.457,2.967
					c1.967,4.004,2.257,8.535,0.815,12.76c-1.44,4.221-4.439,7.631-8.445,9.597L40.6,127.021
					C38.286,128.157,35.812,128.736,33.246,128.736L33.246,128.736z M26.123,119.204c1.855,1.85,4.389,2.925,7.123,2.925
					c1.547,0,3.039-0.351,4.439-1.04l52.68-25.875c2.419-1.19,4.233-3.248,5.103-5.802c0.504-1.471,0.657-3.006,0.471-4.504
					L26.123,119.204L26.123,119.204z"/>
			</g>
		</g>
		<g>
			<g>
				<path style="fill:#5C4B51;" d="M150.888,121.944c-9.671,0-17.512,7.842-17.512,17.516h17.512V121.944z"/>
			</g>
			<g>
				<path style="fill:#2E2140;" d="M154.192,142.765h-24.121v-3.305c0-11.479,9.338-20.818,20.816-20.818h3.305V142.765
					L154.192,142.765z M137.067,136.154h10.517V125.64C142.398,126.878,138.308,130.969,137.067,136.154L137.067,136.154z"/>
			</g>
		</g>
		<g>
			<g>
				<path style="fill:#F2E1AC;" d="M150.101,97.981l-60.798,13.247c-0.577,0.125-1.113,0.384-1.568,0.762l-29.825,24.617l4.706,5.7
					l29.136-24.046l59.925-13.056L150.101,97.981z"/>
			</g>
		</g>
		<g>
			<g>
				<g>
					<circle style="fill:#2E2140;" cx="36.118" cy="118.03" r="1.214"/>
				</g>
			</g>
			<g>
				<g>
					<circle style="fill:#2E2140;" cx="43.507" cy="114.423" r="1.214"/>
				</g>
			</g>
			<g>
				<g>
					<path style="fill:#2E2140;" d="M52.111,110.79c0.012,0.671-0.523,1.225-1.192,1.237c-0.67,0.014-1.223-0.521-1.235-1.193
						c-0.013-0.67,0.52-1.22,1.19-1.236C51.545,109.587,52.098,110.118,52.111,110.79z"/>
				</g>
			</g>
			<g>
				<g>
					<circle style="fill:#2E2140;" cx="58.287" cy="107.206" r="1.214"/>
				</g>
			</g>
			<g>
				<g>
					<circle style="fill:#2E2140;" cx="65.676" cy="103.597" r="1.214"/>
				</g>
			</g>
			<g>
				<g>
					<path style="fill:#2E2140;" d="M74.279,99.967c0.013,0.667-0.521,1.222-1.192,1.236c-0.669,0.009-1.222-0.521-1.236-1.192
						c-0.011-0.667,0.523-1.222,1.192-1.237C73.714,98.764,74.267,99.295,74.279,99.967z"/>
				</g>
			</g>
			<g>
				<g>
					<path style="fill:#2E2140;" d="M81.668,96.356c0.015,0.672-0.52,1.226-1.189,1.236c-0.67,0.015-1.224-0.518-1.236-1.188
						c-0.014-0.672,0.52-1.228,1.189-1.236C81.103,95.153,81.657,95.688,81.668,96.356z"/>
				</g>
			</g>
			<g>
				<g>
					<circle style="fill:#2E2140;" cx="87.844" cy="92.771" r="1.214"/>
				</g>
			</g>
		</g>
		<g>
			<g>
				<path style="fill:#5C4B51;" d="M105.73,76.414c0,0,22.084,26.423,45.157,0H105.73z"/>
			</g>
			<g style="opacity:0.52;">
				<path style="fill:#2E2140;" d="M105.73,76.414c0,0,22.084,26.423,45.157,0H105.73z"/>
			</g>
			<g>
				<path style="fill:#2E2140;" d="M128.929,91.461h-0.004c-14.754,0-25.288-12.396-25.731-12.926c-0.82-0.982-1-2.356-0.458-3.518
					c0.546-1.163,1.71-1.907,2.995-1.907h45.157c1.296,0,2.473,0.758,3.009,1.938c0.536,1.181,0.332,2.566-0.519,3.542
					C145.917,87.131,137.691,91.461,128.929,91.461L128.929,91.461z M114.418,79.721c3.691,2.59,8.775,5.134,14.507,5.134h0.004
					c4.704,0,9.299-1.721,13.73-5.134H114.418L114.418,79.721z"/>
			</g>
		</g>
		<g>
			<g>
				<path style="fill:#2E2140;" d="M154.584,143.151H2.304v-20.045L104.872,72.72h49.712V143.151L154.584,143.151z M9.694,135.762
					H147.19V80.112h-40.603L9.694,127.71V135.762L9.694,135.762z"/>
			</g>
		</g>
		<g>
			<g>
				<path style="fill:#2E2140;" d="M154.584,156.888H2.304v-21.126h152.28V156.888L154.584,156.888z M9.694,149.493H147.19v-6.342
					H9.694V149.493L9.694,149.493z"/>
			</g>
		</g>
		<g>
			<path style="fill:#F2E1AC;" d="M36.117,120.028c-0.512,0-1.023-0.195-1.414-0.586l-9.82-9.82c-0.781-0.781-0.781-2.047,0-2.828
				c0.781-0.781,2.047-0.781,2.828,0l9.82,9.82c0.781,0.781,0.781,2.047,0,2.828C37.141,119.833,36.629,120.028,36.117,120.028z"/>
		</g>
		<g>
			<path style="fill:#F2E1AC;" d="M43.507,116.509c-0.512,0-1.023-0.195-1.414-0.586l-9.821-9.82c-0.781-0.781-0.781-2.047,0-2.828
				c0.781-0.781,2.047-0.781,2.828,0l9.821,9.82c0.781,0.781,0.781,2.047,0,2.828C44.53,116.313,44.019,116.509,43.507,116.509z"/>
		</g>
		<g>
			<path style="fill:#F2E1AC;" d="M50.897,112.988c-0.512,0-1.023-0.195-1.414-0.586l-9.822-9.819c-0.781-0.78-0.781-2.047,0-2.828
				c0.781-0.781,2.047-0.781,2.828,0l9.822,9.819c0.781,0.78,0.781,2.047,0,2.828C51.921,112.793,51.409,112.988,50.897,112.988z"/>
		</g>
		<g>
			<path style="fill:#F2E1AC;" d="M58.285,109.467c-0.512,0-1.023-0.195-1.414-0.586l-9.82-9.819c-0.781-0.781-0.781-2.047,0-2.828
				c0.781-0.781,2.047-0.781,2.828,0l9.82,9.819c0.781,0.781,0.781,2.047,0,2.828C59.309,109.271,58.797,109.467,58.285,109.467z"/>
		</g>
		<g>
			<path style="fill:#F2E1AC;" d="M65.674,105.946c-0.512,0-1.023-0.195-1.414-0.586l-9.82-9.822c-0.781-0.781-0.781-2.048,0-2.828
				c0.781-0.781,2.047-0.781,2.828,0l9.82,9.822c0.781,0.781,0.781,2.048,0,2.828C66.697,105.751,66.186,105.946,65.674,105.946z"/>
		</g>
		<g>
			<path style="fill:#F2E1AC;" d="M73.062,102.425c-0.512,0-1.023-0.195-1.414-0.586l-9.82-9.82c-0.781-0.781-0.781-2.047,0-2.828
				c0.781-0.781,2.047-0.781,2.828,0l9.82,9.82c0.781,0.781,0.781,2.047,0,2.828C74.086,102.229,73.574,102.425,73.062,102.425z"/>
		</g>
		<g>
			<path style="fill:#F2E1AC;" d="M80.452,98.904c-0.512,0-1.023-0.195-1.414-0.586l-9.821-9.819c-0.781-0.78-0.781-2.047,0-2.828
				c0.781-0.781,2.047-0.781,2.828,0l9.821,9.819c0.781,0.78,0.781,2.047,0,2.828C81.476,98.709,80.964,98.904,80.452,98.904z"/>
		</g>
		<g>
			<path style="fill:#F2E1AC;" d="M87.842,95.383c-0.512,0-1.023-0.195-1.414-0.586l-9.822-9.82c-0.781-0.78-0.781-2.047,0-2.828
				c0.781-0.781,2.047-0.781,2.828,0l9.822,9.82c0.781,0.78,0.781,2.047,0,2.828C88.865,95.188,88.354,95.383,87.842,95.383z"/>
		</g>
	</g>
	<g>
		<g>
			<g>
				<polygon style="fill:#5C4B51;" points="6,17.428 6,80.471 51.157,80.471 150.888,31.481 150.888,17.428 				"/>
			</g>
		</g>
		<g>
			<g>
				<rect x="6" y="3.698" style="fill:#F2E1AC;" width="144.888" height="13.729"/>
			</g>
		</g>
		<g>
			<g>
				<path style="fill:#5C4B51;" d="M123.641,31.456c-1.982,0-3.997,0.442-5.897,1.376L65.065,58.706
					C58.423,61.97,55.683,70,58.946,76.642l0,0l76.733-37.693C133.348,34.208,128.59,31.456,123.641,31.456z"/>
			</g>
			<g>
				<path style="fill:#2E2140;" d="M123.641,28.148c6.423,0,12.172,3.58,15.004,9.345l1.458,2.962l-82.665,40.61L55.98,78.1
					c-1.967-4.003-2.258-8.538-0.816-12.759c1.442-4.225,4.441-7.632,8.445-9.6l52.679-25.874
					C118.601,28.729,121.075,28.148,123.641,28.148L123.641,28.148z M130.765,37.681c-1.857-1.849-4.389-2.922-7.124-2.922
					c-1.545,0-3.038,0.35-4.439,1.038L66.522,61.672c-2.42,1.19-4.233,3.248-5.104,5.803c-0.502,1.472-0.657,3.004-0.47,4.504
					L130.765,37.681L130.765,37.681z"/>
			</g>
		</g>
		<g>
			<g>
				<path style="fill:#5C4B51;" d="M6,34.941c9.671,0,17.512-7.84,17.512-17.514H6V34.941z"/>
			</g>
			<g>
				<path style="fill:#2E2140;" d="M2.695,14.124h24.121v3.304c0,11.478-9.339,20.817-20.816,20.817H2.695V14.124L2.695,14.124z
					 M19.821,20.731H9.304v10.518C14.489,30.009,18.58,25.917,19.821,20.731L19.821,20.731z"/>
			</g>
		</g>
		<g>
			<g>
				<path style="fill:#F2E1AC;" d="M6.785,58.905l60.799-13.247c0.577-0.125,1.113-0.386,1.569-0.761L98.978,20.28l-4.706-5.702
					L65.137,38.623L5.212,51.682L6.785,58.905z"/>
			</g>
		</g>
		<g>
			<g>
				<g>
					<path style="fill:#2E2140;" d="M119.557,38.88c-0.015-0.67,0.519-1.224,1.19-1.236c0.67-0.014,1.223,0.521,1.236,1.189
						c0.014,0.671-0.52,1.225-1.19,1.24C120.123,40.082,119.568,39.55,119.557,38.88z"/>
				</g>
			</g>
			<g>
				<g>
					<circle style="fill:#2E2140;" cx="113.38" cy="42.465" r="1.214"/>
				</g>
			</g>
			<g>
				<g>
					<circle style="fill:#2E2140;" cx="105.99" cy="46.075" r="1.214"/>
				</g>
			</g>
			<g>
				<g>
					<circle style="fill:#2E2140;" cx="98.601" cy="49.682" r="1.214"/>
				</g>
			</g>
			<g>
				<g>
					<circle style="fill:#2E2140;" cx="91.211" cy="53.29" r="1.214"/>
				</g>
			</g>
			<g>
				<g>
					<path style="fill:#2E2140;" d="M82.608,56.921c-0.013-0.67,0.521-1.226,1.191-1.236c0.669-0.013,1.222,0.521,1.237,1.192
						c0.01,0.668-0.522,1.221-1.192,1.237C83.174,58.124,82.621,57.591,82.608,56.921z"/>
				</g>
			</g>
			<g>
				<g>
					<circle style="fill:#2E2140;" cx="76.432" cy="60.507" r="1.215"/>
				</g>
			</g>
			<g>
				<g>
					<path style="fill:#2E2140;" d="M67.829,64.139c-0.014-0.671,0.521-1.226,1.19-1.236c0.67-0.015,1.225,0.521,1.236,1.189
						c0.014,0.673-0.52,1.226-1.19,1.235C68.394,65.343,67.841,64.809,67.829,64.139z"/>
				</g>
			</g>
		</g>
		<g>
			<g>
				<path style="fill:#5C4B51;" d="M51.157,80.471c0,0-22.084-26.421-45.157,0H51.157z"/>
			</g>
			<g style="opacity:0.52;">
				<path style="fill:#2E2140;" d="M51.157,80.471c0,0-22.084-26.421-45.157,0H51.157z"/>
			</g>
			<g>
				<path style="fill:#2E2140;" d="M27.959,65.424h0.003c14.755,0,25.29,12.399,25.731,12.929c0.821,0.983,1.001,2.354,0.459,3.518
					c-0.546,1.16-1.712,1.904-2.995,1.904H6c-1.297,0-2.472-0.756-3.009-1.938c-0.536-1.178-0.334-2.563,0.518-3.539
					C10.97,69.754,19.195,65.424,27.959,65.424L27.959,65.424z M42.469,77.168c-3.69-2.592-8.774-5.136-14.507-5.136h-0.003
					c-4.704,0-9.3,1.723-13.73,5.136H42.469L42.469,77.168z"/>
			</g>
		</g>
		<g>
			<g>
				<path style="fill:#2E2140;" d="M2.304,13.733h152.28v20.048L52.016,84.168H2.304V13.733L2.304,13.733z M147.192,21.126H9.696
					v55.647h40.604l96.892-47.598V21.126L147.192,21.126z"/>
			</g>
		</g>
		<g>
			<g>
				<path style="fill:#2E2140;" d="M2.304,0h152.28v21.126H2.304V0L2.304,0z M147.192,7.393H9.696v6.341h137.496V7.393
					L147.192,7.393z"/>
			</g>
		</g>
		<g>
			<path style="fill:#F2E1AC;" d="M130.59,50.677c-0.512,0-1.023-0.195-1.414-0.586l-9.82-9.818c-0.781-0.78-0.781-2.047,0-2.828
				c0.781-0.781,2.047-0.781,2.828,0l9.82,9.818c0.781,0.78,0.781,2.047,0,2.828C131.613,50.481,131.102,50.677,130.59,50.677z"/>
		</g>
		<g>
			<path style="fill:#F2E1AC;" d="M123.202,54.199c-0.512,0-1.023-0.195-1.414-0.586l-9.821-9.822c-0.781-0.781-0.781-2.047,0-2.828
				c0.781-0.781,2.047-0.781,2.828,0l9.821,9.822c0.781,0.781,0.781,2.047,0,2.828C124.226,54.004,123.714,54.199,123.202,54.199z"
				/>
		</g>
		<g>
			<path style="fill:#F2E1AC;" d="M115.812,57.719c-0.512,0-1.023-0.195-1.414-0.586l-9.821-9.819c-0.781-0.78-0.781-2.047,0-2.828
				c0.781-0.781,2.047-0.781,2.828,0l9.821,9.819c0.781,0.78,0.781,2.047,0,2.828C116.835,57.523,116.323,57.719,115.812,57.719z"/>
		</g>
		<g>
			<path style="fill:#F2E1AC;" d="M108.424,61.241c-0.512,0-1.023-0.195-1.414-0.586l-9.822-9.82c-0.781-0.78-0.781-2.047,0-2.828
				c0.781-0.781,2.047-0.781,2.828,0l9.822,9.82c0.781,0.78,0.781,2.047,0,2.828C109.447,61.046,108.936,61.241,108.424,61.241z"/>
		</g>
		<g>
			<path style="fill:#F2E1AC;" d="M101.034,64.76c-0.512,0-1.023-0.195-1.414-0.586l-9.82-9.819c-0.781-0.781-0.781-2.047,0-2.828
				c0.781-0.781,2.047-0.781,2.828,0l9.82,9.819c0.781,0.781,0.781,2.047,0,2.828C102.058,64.564,101.546,64.76,101.034,64.76z"/>
		</g>
		<g>
			<path style="fill:#F2E1AC;" d="M93.645,68.281c-0.512,0-1.023-0.195-1.414-0.586l-9.82-9.821c-0.781-0.781-0.781-2.047,0-2.828
				c0.781-0.781,2.047-0.781,2.828,0l9.82,9.821c0.781,0.781,0.781,2.047,0,2.828C94.668,68.086,94.156,68.281,93.645,68.281z"/>
		</g>
		<g>
			<path style="fill:#F2E1AC;" d="M86.257,71.802c-0.512,0-1.023-0.195-1.414-0.586l-9.821-9.819c-0.781-0.78-0.781-2.047,0-2.828
				c0.781-0.781,2.047-0.781,2.828,0l9.821,9.819c0.781,0.78,0.781,2.047,0,2.828C87.28,71.606,86.769,71.802,86.257,71.802z"/>
		</g>
		<g>
			<path style="fill:#F2E1AC;" d="M78.867,75.323c-0.512,0-1.023-0.195-1.414-0.586l-9.82-9.82c-0.781-0.781-0.781-2.047,0-2.828
				c0.781-0.781,2.047-0.781,2.828,0l9.82,9.82c0.781,0.781,0.781,2.047,0,2.828C79.891,75.128,79.379,75.323,78.867,75.323z"/>
		</g>
	</g>
</g>
<g>
</g>
<g>
</g>
<g>
</g>
<g>
</g>
<g>
</g>
<g>
</g>
<g>
</g>
<g>
</g>
<g>
</g>
<g>
</g>
<g>
</g>
<g>
</g>
<g>
</g>
<g>
</g>
<g>
</g>
</svg>
