<?xml version="1.0" encoding="iso-8859-1"?>
<!-- Generator: Adobe Illustrator 18.0.0, SVG Export Plug-In . SVG Version: 6.00 Build 0)  -->
<!DOCTYPE svg PUBLIC "-//W3C//DTD SVG 1.1//EN" "http://www.w3.org/Graphics/SVG/1.1/DTD/svg11.dtd">
<svg version="1.1" id="Capa_1" xmlns="http://www.w3.org/2000/svg" xmlns:xlink="http://www.w3.org/1999/xlink" x="0px" y="0px"
	 viewBox="0 0 262.654 262.654" style="enable-background:new 0 0 262.654 262.654;" xml:space="preserve">
<g>
	<g>
		<g>
			<path style="fill:#2E2140;" d="M155.395,100.824H107.26c-10.934,0-19.498-10.163-19.498-23.136V37.208
				c0-12.974,8.564-23.136,19.498-23.136h48.135c10.934,0,19.498,10.163,19.498,23.136v40.481
				C174.893,90.662,166.328,100.824,155.395,100.824L155.395,100.824z M107.26,29.496c-1.622,0-4.074,3.076-4.074,7.712v40.481
				c0,4.636,2.452,7.712,4.074,7.712h48.135c1.621,0,4.074-3.076,4.074-7.712V37.208c0-4.637-2.453-7.712-4.074-7.712H107.26
				L107.26,29.496z"/>
		</g>
		<g>
			<path style="fill:#B39C85;" d="M258.027,200.233c0,24.147-19.575,43.722-43.723,43.722H48.348
				c-24.148,0-43.721-19.575-43.721-43.722V96.038c0-24.147,19.573-43.722,43.721-43.722h165.957
				c24.148,0,43.723,19.575,43.723,43.722V200.233z"/>
			<circle style="fill:#F2AE72;" cx="130.802" cy="153.991" r="29.458"/>
			<path style="fill:#2E2140;" d="M214.305,248.582H48.348C21.688,248.582,0,226.892,0,200.233V96.038
				c0-26.659,21.688-48.35,48.348-48.35h165.957c26.659,0,48.35,21.69,48.35,48.35v104.195
				C262.654,226.892,240.964,248.582,214.305,248.582L214.305,248.582z M48.348,56.943c-21.556,0-39.094,17.537-39.094,39.095
				v104.195c0,21.558,17.538,39.095,39.094,39.095h165.957c21.557,0,39.095-17.537,39.095-39.095V96.038
				c0-21.558-17.538-39.095-39.095-39.095H48.348L48.348,56.943z"/>
		</g>
		<g>
			<g>
				<rect x="48.867" y="53.028" style="fill:#F2AE72;" width="32.446" height="190.927"/>
				<path style="fill:#2E2140;" d="M85.94,248.582H44.239V48.401H85.94V248.582L85.94,248.582z M53.494,239.328h23.191V57.655
					H53.494V239.328L53.494,239.328z"/>
			</g>
			<g>
				<rect x="183.135" y="53.028" style="fill:#F2AE72;" width="32.446" height="190.927"/>
				<path style="fill:#2E2140;" d="M220.208,248.582h-41.7V48.401h41.7V248.582L220.208,248.582z M187.762,239.328h23.191V57.655
					h-23.191V239.328L187.762,239.328z"/>
			</g>
		</g>
		<g>
			<rect x="37.236" y="148.492" style="fill:#AF2214;" width="52.119" height="12.706"/>
			<path style="fill:#2E2140;" d="M93.982,165.826H32.608v-21.961h61.374V165.826L93.982,165.826z M41.863,156.572h42.865v-3.452
				H41.863V156.572L41.863,156.572z"/>
		</g>
		<g>
			<rect x="173.299" y="148.492" style="fill:#AF2214;" width="52.119" height="12.706"/>
			<path style="fill:#2E2140;" d="M230.045,165.826h-61.373v-21.961h61.373V165.826L230.045,165.826z M177.926,156.572h42.865
				v-3.452h-42.865V156.572L177.926,156.572z"/>
		</g>
		<g>
			<polygon style="fill:#2E2140;" points="26.885,235.633 23.8,235.633 23.8,58.858 26.885,58.858 26.885,235.633 			"/>
		</g>
		<g>
			<polygon style="fill:#2E2140;" points="240.738,235.633 237.653,235.633 237.653,58.858 240.738,58.858 240.738,235.633 			"/>
		</g>
	</g>
</g>
<g>
</g>
<g>
</g>
<g>
</g>
<g>
</g>
<g>
</g>
<g>
</g>
<g>
</g>
<g>
</g>
<g>
</g>
<g>
</g>
<g>
</g>
<g>
</g>
<g>
</g>
<g>
</g>
<g>
</g>
</svg>
