<?xml version="1.0" encoding="iso-8859-1"?>
<!-- Generator: Adobe Illustrator 18.0.0, SVG Export Plug-In . SVG Version: 6.00 Build 0)  -->
<!DOCTYPE svg PUBLIC "-//W3C//DTD SVG 1.1//EN" "http://www.w3.org/Graphics/SVG/1.1/DTD/svg11.dtd">
<svg version="1.1" id="Capa_1" xmlns="http://www.w3.org/2000/svg" xmlns:xlink="http://www.w3.org/1999/xlink" x="0px" y="0px"
	 viewBox="0 0 143.878 143.878" style="enable-background:new 0 0 143.878 143.878;" xml:space="preserve">
<g>
	<g>
		<circle style="fill:#FFFFFF;" cx="34.09" cy="71.939" r="26.796"/>
	</g>
	<g>
		<circle style="fill:#FFFFFF;" cx="109.788" cy="71.939" r="26.796"/>
	</g>
	<g style="opacity:0.65;">
		<circle style="fill:#2E2140;" cx="34.09" cy="71.939" r="26.796"/>
	</g>
	<polygon style="fill:#FFFFFF;" points="7.277,78.529 41.31,44.494 45.319,48.504 10.88,82.941 	"/>
	<polygon style="fill:#FFFFFF;" points="13.181,83.135 47.215,49.1 51.222,53.109 16.784,87.545 	"/>
	<g style="opacity:0.65;">
		<circle style="fill:#2E2140;" cx="109.788" cy="71.939" r="26.796"/>
	</g>
	<polygon style="fill:#FFFFFF;" points="83.264,80.118 117.298,46.085 121.305,50.091 86.868,84.531 	"/>
	<polygon style="fill:#FFFFFF;" points="89.167,84.722 123.201,50.69 127.208,54.698 92.771,89.137 	"/>
	<path style="fill-rule:evenodd;clip-rule:evenodd;fill:#2E2140;" d="M9.35,60.308c1.186-0.113,0.969,1.619,0,1.649
		C8.352,61.991,8.059,60.431,9.35,60.308z"/>
	<path style="fill-rule:evenodd;clip-rule:evenodd;fill:#2E2140;" d="M8.72,64c0.559,0.562,0.216,1.647-0.471,1.729
		C6.848,65.899,6.977,63.405,8.72,64z"/>
	<path style="fill-rule:evenodd;clip-rule:evenodd;fill:#2E2140;" d="M7.464,67.694c0.408,0.303,0.551,1.233,0.079,1.572
		C5.949,69.575,5.604,67.335,7.464,67.694z"/>
	<path style="fill-rule:evenodd;clip-rule:evenodd;fill:#2E2140;" d="M5.734,71.623c0.891-0.089,0.533,1.219,0,1.257
		C5.118,72.925,4.74,71.722,5.734,71.623z"/>
	<path style="fill-rule:evenodd;clip-rule:evenodd;fill:#2E2140;" d="M9.977,72.33c1.521,0.85-0.078,2.916-1.334,2.123
		C7.686,73.849,8.327,71.79,9.977,72.33z"/>
	<path style="fill-rule:evenodd;clip-rule:evenodd;fill:#2E2140;" d="M7.306,76.653c0.284-0.351,0.951-0.629,1.571-0.393
		C10.391,77.829,6.811,79.21,7.306,76.653z"/>
	<path style="fill-rule:evenodd;clip-rule:evenodd;fill:#2E2140;" d="M7.386,80.267c0.31,0.247,0.405,0.803,0.078,1.099
		C6.278,81.599,6.133,80.06,7.386,80.267z"/>
	<path style="fill-rule:evenodd;clip-rule:evenodd;fill:#2E2140;" d="M10.057,85.139c0.282,0.354,0.272,0.908-0.08,1.18
		C8.533,86.54,8.707,84.612,10.057,85.139z"/>
	<path style="fill:#FFFFFF;" d="M109.787,101.681c-15.477,0-28.503-12.08-29.657-27.502l-0.052-0.685l-0.591-0.347
		c-1.104-0.647-2.843-1.534-4.86-2.075c-0.837-0.224-1.674-0.375-2.488-0.445l-0.057-0.005h-0.286l-0.057,0.005
		c-0.815,0.07-1.652,0.222-2.488,0.445c-2.019,0.541-3.758,1.428-4.86,2.075l-0.59,0.347l-0.054,0.685
		c-1.152,15.422-14.18,27.502-29.657,27.502c-16.4,0-29.744-13.342-29.744-29.742c0-2.9,0.422-5.77,1.251-8.534l0.507-1.686H1.31
		v-5.911c2.26-0.165,7.546-1.13,13.217-6.253c5.41-4.739,12.363-7.358,19.563-7.358c6.785,0,13.427,2.354,18.7,6.632
		c5.199,4.215,8.864,10.106,10.32,16.587l0.338,1.511l1.433-0.583c0.846-0.345,1.697-0.64,2.53-0.878
		c1.504-0.426,3.009-0.678,4.474-0.75h0.108c1.465,0.072,2.971,0.324,4.473,0.75c0.835,0.238,1.686,0.533,2.53,0.878l1.433,0.583
		l0.339-1.511c1.456-6.48,5.12-12.372,10.32-16.587c5.273-4.277,11.914-6.632,18.699-6.632c7.201,0,14.153,2.619,19.579,7.373
		c5.655,5.109,10.942,6.073,13.202,6.238v5.911h-4.794l0.508,1.686c0.827,2.765,1.248,5.634,1.248,8.534
		C139.53,88.339,126.188,101.681,109.787,101.681L109.787,101.681z M109.787,48.088c-13.149,0-23.848,10.7-23.848,23.851
		c0,13.149,10.698,23.849,23.848,23.849c13.151,0,23.851-10.699,23.851-23.849C133.638,58.789,122.938,48.088,109.787,48.088
		L109.787,48.088z M34.09,48.088c-13.151,0-23.851,10.7-23.851,23.851c0,13.149,10.699,23.849,23.851,23.849
		c13.15,0,23.849-10.699,23.849-23.849C57.938,58.789,47.24,48.088,34.09,48.088L34.09,48.088z"/>
	<path style="opacity:0.91;fill:#2E2140;" d="M109.787,101.681c-15.477,0-28.503-12.08-29.657-27.502l-0.052-0.685l-0.591-0.347
		c-1.104-0.647-2.843-1.534-4.86-2.075c-0.837-0.224-1.674-0.375-2.488-0.445l-0.057-0.005h-0.286l-0.057,0.005
		c-0.815,0.07-1.652,0.222-2.488,0.445c-2.019,0.541-3.758,1.428-4.86,2.075l-0.59,0.347l-0.054,0.685
		c-1.152,15.422-14.18,27.502-29.657,27.502c-16.4,0-29.744-13.342-29.744-29.742c0-2.9,0.422-5.77,1.251-8.534l0.507-1.686H1.31
		v-5.911c2.26-0.165,7.546-1.13,13.217-6.253c5.41-4.739,12.363-7.358,19.563-7.358c6.785,0,13.427,2.354,18.7,6.632
		c5.199,4.215,8.864,10.106,10.32,16.587l0.338,1.511l1.433-0.583c0.846-0.345,1.697-0.64,2.53-0.878
		c1.504-0.426,3.009-0.678,4.474-0.75h0.108c1.465,0.072,2.971,0.324,4.473,0.75c0.835,0.238,1.686,0.533,2.53,0.878l1.433,0.583
		l0.339-1.511c1.456-6.48,5.12-12.372,10.32-16.587c5.273-4.277,11.914-6.632,18.699-6.632c7.201,0,14.153,2.619,19.579,7.373
		c5.655,5.109,10.942,6.073,13.202,6.238v5.911h-4.794l0.508,1.686c0.827,2.765,1.248,5.634,1.248,8.534
		C139.53,88.339,126.188,101.681,109.787,101.681L109.787,101.681z M109.787,48.088c-13.149,0-23.848,10.7-23.848,23.851
		c0,13.149,10.698,23.849,23.848,23.849c13.151,0,23.851-10.699,23.851-23.849C133.638,58.789,122.938,48.088,109.787,48.088
		L109.787,48.088z M34.09,48.088c-13.151,0-23.851,10.7-23.851,23.851c0,13.149,10.699,23.849,23.851,23.849
		c13.15,0,23.849-10.699,23.849-23.849C57.938,58.789,47.24,48.088,34.09,48.088L34.09,48.088z"/>
	<path style="fill:#2E2140;" d="M109.787,43.506c6.876,0,13.518,2.497,18.701,7.032c5.11,4.612,9.969,6.02,12.771,6.438v3.433
		h-1.725h-3.52l1.011,3.372c0.792,2.641,1.194,5.385,1.194,8.157c0,15.678-12.755,28.433-28.434,28.433
		c-7.208,0-14.087-2.713-19.371-7.641c-5.258-4.901-8.447-11.525-8.98-18.648l-0.104-1.368l-1.182-0.696
		c-1.174-0.688-3.024-1.631-5.185-2.211c-0.91-0.242-1.823-0.408-2.712-0.485l-0.115-0.01h-0.115h-0.17h-0.114l-0.114,0.01
		c-0.892,0.077-1.803,0.243-2.713,0.485c-2.16,0.58-4.011,1.522-5.185,2.211l-1.184,0.696l-0.102,1.368
		c-0.533,7.123-3.723,13.747-8.981,18.648c-5.283,4.928-12.163,7.641-19.371,7.641c-15.679,0-28.434-12.755-28.434-28.433
		c0-2.772,0.403-5.517,1.196-8.157l1.012-3.372H4.343H2.619v-3.433c2.802-0.418,7.66-1.824,12.77-6.436
		c5.184-4.538,11.824-7.035,18.7-7.035c6.486,0,12.834,2.25,17.875,6.34c4.972,4.031,8.476,9.661,9.868,15.857l0.678,3.02
		l2.865-1.169c0.801-0.326,1.605-0.604,2.393-0.827c1.396-0.397,2.792-0.632,4.148-0.701h0.044c1.356,0.069,2.751,0.304,4.148,0.701
		c0.786,0.224,1.593,0.501,2.393,0.827l2.865,1.169l0.678-3.02c1.393-6.196,4.896-11.826,9.867-15.857
		C96.954,45.756,103.302,43.506,109.787,43.506 M109.787,97.097c13.874,0,25.161-11.286,25.161-25.158
		c0-13.873-11.287-25.159-25.161-25.159c-13.872,0-25.157,11.286-25.157,25.159C84.63,85.811,95.915,97.097,109.787,97.097
		 M34.09,97.097c13.873,0,25.159-11.286,25.159-25.158c0-13.873-11.286-25.159-25.159-25.159c-13.873,0-25.158,11.286-25.158,25.159
		C8.932,85.811,20.217,97.097,34.09,97.097 M109.787,40.887c-14.783,0-27.185,10.384-30.298,24.241
		c-0.828-0.336-1.719-0.653-2.665-0.921c-1.627-0.461-3.23-0.726-4.801-0.803h-0.17c-1.569,0.077-3.175,0.342-4.8,0.803
		c-0.946,0.268-1.838,0.585-2.665,0.921C61.274,51.271,48.873,40.887,34.09,40.887c-7.821,0-14.976,2.907-20.441,7.696l0,0
		C8.096,53.599,3.032,54.41,0.976,54.516H0v8.513h4.343c-0.848,2.823-1.306,5.815-1.306,8.91c0,17.123,13.93,31.052,31.053,31.052
		c16.336,0,29.765-12.68,30.965-28.713c1.094-0.643,2.691-1.445,4.535-1.94c0.781-0.209,1.534-0.342,2.264-0.406h0.17
		c0.73,0.064,1.484,0.197,2.264,0.406c1.844,0.495,3.441,1.297,4.536,1.94c1.2,16.033,14.629,28.713,30.964,28.713
		c17.124,0,31.054-13.929,31.054-31.052c0-3.096-0.458-6.087-1.306-8.91h4.343v-8.513h-0.976c-2.057-0.106-7.12-0.917-12.673-5.933
		l0,0C124.764,43.794,117.609,40.887,109.787,40.887L109.787,40.887z M109.787,94.479c-12.427,0-22.539-10.112-22.539-22.54
		c0-12.428,10.112-22.54,22.539-22.54c12.429,0,22.54,10.112,22.54,22.54C132.327,84.367,122.216,94.479,109.787,94.479
		L109.787,94.479z M34.09,94.479c-12.429,0-22.539-10.112-22.539-22.54c0-12.428,10.11-22.54,22.539-22.54
		c12.428,0,22.538,10.112,22.538,22.54C56.628,84.367,46.518,94.479,34.09,94.479L34.09,94.479z"/>
</g>
<g>
</g>
<g>
</g>
<g>
</g>
<g>
</g>
<g>
</g>
<g>
</g>
<g>
</g>
<g>
</g>
<g>
</g>
<g>
</g>
<g>
</g>
<g>
</g>
<g>
</g>
<g>
</g>
<g>
</g>
</svg>
