<?xml version="1.0" encoding="iso-8859-1"?>
<!-- Generator: Adobe Illustrator 18.0.0, SVG Export Plug-In . SVG Version: 6.00 Build 0)  -->
<!DOCTYPE svg PUBLIC "-//W3C//DTD SVG 1.1//EN" "http://www.w3.org/Graphics/SVG/1.1/DTD/svg11.dtd">
<svg version="1.1" id="Capa_1" xmlns="http://www.w3.org/2000/svg" xmlns:xlink="http://www.w3.org/1999/xlink" x="0px" y="0px"
	 viewBox="0 0 209.893 209.893" style="enable-background:new 0 0 209.893 209.893;" xml:space="preserve">
<g>
	<path style="fill:#778691;" d="M114.446,60.942c1.67,3.957,3.441,8.773,5.124,14.518c2.671,9.115,4.679,19.104,6.014,29.757h11.288
		C135.532,87.906,127.266,72.027,114.446,60.942z"/>
	<path style="fill:#778691;" d="M126.341,165.385h10.726v-30.011h-9.565C127.579,145.022,127.193,155.049,126.341,165.385z"/>
	<path style="fill:#778691;" d="M107.636,64.832v40.385h10.112C115.356,86.829,111.233,73.578,107.636,64.832z"/>
	<path style="fill:#778691;" d="M70.662,165.385h10.61c-0.853-10.336-1.239-20.362-1.16-30.011h-9.45V165.385z"/>
	<path style="fill:#778691;" d="M99.861,65.101c-1.479,3.614-3.041,7.976-4.525,13.121c-2,6.93-4.023,15.9-5.458,26.995h9.983
		V65.101z"/>
	<path style="fill:#778691;" d="M119.746,135.374h-12.11v30.011h10.915C119.467,154.53,119.824,144.533,119.746,135.374z"/>
	<path style="fill:#778691;" d="M114.658,51.189c0.547,0.396,1.095,0.791,1.631,1.202c5.797,4.441,10.883,9.711,15.114,15.66
		c7.825,11.002,12.356,23.762,13.26,37.165h7.553C150.387,81.232,135.501,60.854,114.658,51.189z"/>
	<rect x="40.577" y="135.374" style="fill:#778691;" width="6.419" height="30.011"/>
	<path style="fill:#778691;" d="M88.043,75.46c1.654-5.646,3.393-10.396,5.038-14.313c-12.685,11.099-20.882,26.936-22.224,44.07
		h11.172C83.364,94.563,85.372,84.575,88.043,75.46z"/>
	<path style="fill:#778691;" d="M52.719,81.864c3.666-8.668,8.914-16.452,15.598-23.136c1.607-1.608,3.282-3.127,5.014-4.567
		c-18.168,10.291-30.854,29.151-32.541,51.055h6.395C47.726,97.151,49.567,89.314,52.719,81.864z"/>
	<rect x="54.77" y="135.374" style="fill:#778691;" width="8.119" height="30.011"/>
	<path style="fill:#778691;" d="M99.861,135.374H87.885c-0.083,9.125,0.26,19.122,1.178,30.011h10.798V135.374z"/>
	<rect x="144.84" y="135.374" style="fill:#778691;" width="7.586" height="30.011"/>
	<path style="fill:#778691;" d="M75.928,68.616c4.109-5.892,9.053-11.138,14.695-15.59c1.105-0.872,2.239-1.7,3.388-2.504
		c-21.613,9.372-37.16,30.147-39.031,54.694h8.085C63.953,92.052,68.349,79.487,75.928,68.616z"/>
	<rect x="160.199" y="135.374" style="fill:#778691;" width="9.116" height="30.011"/>
	<path style="fill:#778691;" d="M129.131,50.561c3.458,2.425,6.722,5.141,9.748,8.168c6.684,6.684,11.933,14.468,15.599,23.136
		c3.151,7.45,4.992,15.287,5.534,23.353h9.092C167.195,80.435,151.205,59.546,129.131,50.561z"/>
	<rect x="33.075" y="174.454" style="fill:#F5F5F5;" width="3.509" height="26.369"/>
	<rect x="142.121" y="174.454" style="fill:#F5F5F5;" width="4.648" height="26.369"/>
	<rect x="123.757" y="174.454" style="fill:#F5F5F5;" width="4.647" height="26.369"/>
	<rect x="132.939" y="174.454" style="fill:#F5F5F5;" width="4.647" height="26.369"/>
	<rect x="169.667" y="174.454" style="fill:#F5F5F5;" width="4.647" height="26.369"/>
	<rect x="151.303" y="174.454" style="fill:#F5F5F5;" width="4.647" height="26.369"/>
	<rect x="160.485" y="174.454" style="fill:#F5F5F5;" width="4.647" height="26.369"/>
	<rect x="114.575" y="174.454" style="fill:#F5F5F5;" width="4.647" height="26.369"/>
	<rect x="87.03" y="174.454" style="fill:#F5F5F5;" width="4.647" height="26.369"/>
	<rect x="77.847" y="174.454" style="fill:#F5F5F5;" width="4.648" height="26.369"/>
	<rect x="41.118" y="174.454" style="fill:#F5F5F5;" width="4.648" height="26.369"/>
	<rect x="68.666" y="174.454" style="fill:#F5F5F5;" width="4.646" height="26.369"/>
	<rect x="50.301" y="174.454" style="fill:#F5F5F5;" width="4.647" height="26.369"/>
	<rect x="59.484" y="174.454" style="fill:#F5F5F5;" width="4.647" height="26.369"/>
	<rect x="105.392" y="174.454" style="fill:#F5F5F5;" width="4.647" height="26.369"/>
	<rect x="96.211" y="174.454" style="fill:#F5F5F5;" width="4.647" height="26.369"/>
	<path style="fill:#05293D;" d="M178.385,165.405v-55.206c0-9.912-1.942-19.529-5.773-28.587
		c-3.698-8.745-8.993-16.599-15.736-23.343c-6.742-6.742-14.597-12.038-23.342-15.736c-3.772-1.596-7.647-2.845-11.597-3.781
		c3.796-4.118,6.119-9.613,6.119-15.643C128.055,10.367,117.688,0,104.946,0S81.837,10.367,81.837,23.109
		c0,5.732,2.103,10.981,5.572,15.023v0.744c-3.759,0.923-7.45,2.134-11.049,3.656c-8.747,3.698-16.6,8.994-23.343,15.736
		c-6.744,6.744-12.038,14.598-15.737,23.343c-3.831,9.058-5.773,18.675-5.773,28.587v55.206c-4.171,0.21-7.503,3.66-7.503,7.884
		v28.7c0,4.358,3.545,7.903,7.903,7.903h146.076c4.357,0,7.903-3.545,7.903-7.903v-28.7
		C185.887,169.065,182.555,165.615,178.385,165.405z M40.577,135.374v-25.175c0-1.679,0.085-3.336,0.212-4.982
		c1.687-21.903,14.373-40.764,32.541-51.055c-1.731,1.439-3.406,2.959-5.014,4.567c-6.684,6.684-11.932,14.468-15.598,23.136
		c-3.152,7.45-4.993,15.287-5.535,23.353c-0.111,1.652-0.187,3.312-0.187,4.982v25.175v30.011h-6.419V135.374z M104.946,9.068
		c7.742,0,14.039,6.3,14.039,14.041c0,6.729-4.761,12.364-11.091,13.723c-0.981-0.038-1.962-0.072-2.948-0.072
		c-0.986,0-1.968,0.034-2.948,0.072c-6.33-1.358-11.091-6.993-11.091-13.723C90.907,15.368,97.204,9.068,104.946,9.068z
		 M54.98,105.217c1.871-24.547,17.418-45.322,39.031-54.694c-1.149,0.804-2.284,1.632-3.388,2.504
		c-5.643,4.452-10.586,9.697-14.695,15.59c-7.578,10.871-11.974,23.436-12.862,36.601c-0.111,1.652-0.176,3.313-0.176,4.982v25.175
		v30.011H54.77v-30.011v-25.175C54.77,108.521,54.855,106.863,54.98,105.217z M152.426,110.199v25.175v30.011h-7.586v-30.011
		v-25.175c0-1.67-0.065-3.33-0.177-4.982c-0.903-13.403-5.434-26.163-13.26-37.165c-4.232-5.949-9.317-11.219-15.114-15.66
		c-0.536-0.411-1.084-0.807-1.631-1.202c20.843,9.664,35.73,30.043,37.558,54.027C152.341,106.863,152.426,108.521,152.426,110.199z
		 M70.857,105.217c1.341-17.135,9.538-32.972,22.224-44.07c-1.645,3.918-3.384,8.668-5.038,14.313
		c-2.67,9.115-4.679,19.104-6.014,29.757c-0.318,2.537-0.61,5.102-0.85,7.713c-0.662,7.204-1.005,14.709-1.067,22.444
		c-0.079,9.648,0.308,19.675,1.16,30.011h-10.61v-30.011v-25.175C70.662,108.528,70.728,106.866,70.857,105.217z M137.066,110.199
		v25.175v30.011h-10.726c0.853-10.336,1.238-20.362,1.16-30.011c-0.063-7.735-0.406-15.24-1.067-22.444
		c-0.24-2.611-0.531-5.176-0.85-7.713c-1.335-10.653-3.343-20.642-6.014-29.757c-1.683-5.744-3.454-10.561-5.124-14.518
		c12.82,11.085,21.086,26.964,22.426,44.274C137,106.866,137.066,108.527,137.066,110.199z M107.636,165.385v-30.011v-30.157V64.832
		c3.598,8.746,7.721,21.997,10.112,40.385c1.15,8.843,1.902,18.867,1.998,30.157c0.078,9.159-0.279,19.156-1.195,30.011H107.636z
		 M89.063,165.385c-0.917-10.889-1.261-20.886-1.178-30.011c0.104-11.393,0.865-21.436,1.993-30.157
		c1.435-11.095,3.458-20.065,5.458-26.995c1.485-5.146,3.046-9.507,4.525-13.121v40.116v30.157v30.011H89.063z M45.766,174.454
		v26.369h-4.648v-26.369H45.766z M50.301,174.454h4.647v26.369h-4.647V174.454z M59.484,174.454h4.647v26.369h-4.647V174.454z
		 M68.666,174.454h4.646v26.369h-4.646V174.454z M77.847,174.454h4.647v26.369h-4.647V174.454z M87.03,174.454h4.646v26.369H87.03
		V174.454z M96.211,174.454h4.647v26.369h-4.647V174.454z M105.392,174.454h4.647v26.369h-4.647V174.454z M114.575,174.454h4.646
		v26.369h-4.646V174.454z M123.757,174.454h4.647v26.369h-4.647V174.454z M132.939,174.454h4.646v26.369h-4.646V174.454z
		 M142.121,174.454h4.648v26.369h-4.648V174.454z M151.303,174.454h4.647v26.369h-4.647V174.454z M160.485,174.454h4.646v26.369
		h-4.646V174.454z M169.667,174.454h4.646v26.369h-4.646V174.454z M169.315,110.199v25.175v30.011h-9.116v-30.011v-25.175
		c0-1.671-0.076-3.33-0.188-4.982c-0.542-8.065-2.383-15.902-5.534-23.353c-3.666-8.668-8.915-16.452-15.599-23.136
		c-3.026-3.027-6.29-5.743-9.748-8.168c22.074,8.985,38.064,29.874,39.973,54.656C169.23,106.863,169.315,108.521,169.315,110.199z
		 M33.075,174.454h3.509v26.369h-3.509V174.454z"/>
	<path style="fill:#778691;" d="M101.998,36.832c0.981-0.038,1.962-0.072,2.948-0.072c0.986,0,1.968,0.034,2.948,0.072
		c6.33-1.358,11.091-6.993,11.091-13.723c0-7.741-6.297-14.041-14.039-14.041s-14.039,6.3-14.039,14.041
		C90.907,29.839,95.668,35.474,101.998,36.832z"/>
	<path style="fill:#E3DB9A;" d="M160.199,110.199v25.175h9.116v-25.175c0-1.679-0.085-3.336-0.212-4.982h-9.092
		C160.123,106.869,160.199,108.528,160.199,110.199z"/>
	<path style="fill:#E3DB9A;" d="M99.861,105.217h-9.983c-1.128,8.722-1.889,18.765-1.993,30.157h11.976V105.217z"/>
	<path style="fill:#E3DB9A;" d="M46.996,110.199c0-1.671,0.076-3.33,0.187-4.982h-6.395c-0.127,1.646-0.212,3.304-0.212,4.982
		v25.175h6.419V110.199z"/>
	<path style="fill:#E3DB9A;" d="M80.112,135.374c0.063-7.735,0.406-15.24,1.067-22.444c0.24-2.611,0.531-5.176,0.85-7.713H70.857
		c-0.129,1.649-0.195,3.312-0.195,4.982v25.175H80.112z"/>
	<path style="fill:#E3DB9A;" d="M144.84,110.199v25.175h7.586v-25.175c0-1.678-0.085-3.336-0.21-4.982h-7.553
		C144.774,106.869,144.84,108.529,144.84,110.199z"/>
	<path style="fill:#E3DB9A;" d="M62.889,135.374v-25.175c0-1.669,0.065-3.33,0.176-4.982H54.98c-0.125,1.646-0.21,3.305-0.21,4.982
		v25.175H62.889z"/>
	<path style="fill:#E3DB9A;" d="M126.433,112.93c0.661,7.204,1.005,14.709,1.067,22.444h9.565v-25.175
		c0-1.672-0.066-3.333-0.194-4.982h-11.288C125.902,107.754,126.193,110.318,126.433,112.93z"/>
	<path style="fill:#E3DB9A;" d="M117.748,105.217h-10.112v30.157h12.11C119.65,124.084,118.898,114.06,117.748,105.217z"/>
</g>
<g>
</g>
<g>
</g>
<g>
</g>
<g>
</g>
<g>
</g>
<g>
</g>
<g>
</g>
<g>
</g>
<g>
</g>
<g>
</g>
<g>
</g>
<g>
</g>
<g>
</g>
<g>
</g>
<g>
</g>
</svg>
